<svg xmlns="http://www.w3.org/2000/svg" fill="none" viewBox="0 0 24 24">
  <path fill="#000" d="M4 1.75a.75.75 0 0 1 .75.75v19a.75.75 0 0 1-1.5 0v-19A.75.75 0 0 1 4 1.75"/>
  <path fill="#000" d="M3.25 3.75H12c.47 0 .92.16 1.255.495s.495.785.495 1.255v4.75H3.25zm1.5 1.5v3.5h7.5V5.5c0-.13-.04-.18-.055-.195-.016-.015-.065-.055-.195-.055z"/>
  <path fill="#000" d="M3.25 8.75H19c.47 0 .92.16 1.255.495s.495.785.495 1.255v3c0 .47-.16.92-.495 1.255s-.785.495-1.255.495H3.25zm1.5 1.5v3.5H19c.13 0 .18-.04.195-.055.015-.016.055-.065.055-.195v-3c0-.13-.04-.18-.055-.195-.016-.015-.065-.055-.195-.055z"/>
  <path fill="#000" d="M3.25 13.75h14.5v4.75c0 .47-.16.92-.495 1.255s-.785.495-1.255.495H3.25zm1.5 1.5v3.5H16c.13 0 .18-.04.195-.055.015-.016.055-.065.055-.195v-3.25z"/>
</svg>
