<svg xmlns="http://www.w3.org/2000/svg" fill="none" viewBox="0 0 24 24">
  <path fill="#000" d="M7 3h10c2.2 0 4 1.8 4 4v10c0 2.2-1.8 4-4 4H7c-2.2 0-4-1.8-4-4V7c0-2.3 1.7-4 4-4"/>
  <path fill="#000" d="M7 3.75C5.114 3.75 3.75 5.114 3.75 7v10A3.26 3.26 0 0 0 7 20.25h10A3.26 3.26 0 0 0 20.25 17V7A3.26 3.26 0 0 0 17 3.75zM2.25 7c0-2.714 2.036-4.75 4.75-4.75h10A4.76 4.76 0 0 1 21.75 7v10A4.76 4.76 0 0 1 17 21.75H7A4.76 4.76 0 0 1 2.25 17z"/>
  <path fill="#fff" d="M6.75 8a.75.75 0 0 1 .75-.75H10a.75.75 0 0 1 0 1.5H7.5A.75.75 0 0 1 6.75 8m0 4a.75.75 0 0 1 .75-.75h5.6a.75.75 0 0 1 0 1.5H7.5a.75.75 0 0 1-.75-.75m0 4a.75.75 0 0 1 .75-.75h8.8a.75.75 0 0 1 0 1.5H7.5a.75.75 0 0 1-.75-.75"/>
</svg>
