<svg xmlns="http://www.w3.org/2000/svg" fill="none" viewBox="0 0 24 24">
  <path fill="#000" d="M14.13 8.42a.75.75 0 0 1 0 1.06l-3 3a.75.75 0 0 1-1.06-1.06l3-3a.75.75 0 0 1 1.06 0m-8.76.9a.75.75 0 0 1 1.06 0l2.1 2.1a.75.75 0 0 1-1.06 1.06l-2.1-2.1a.75.75 0 0 1 0-1.06m9.876-.831a.75.75 0 0 1 1.015.307l3 5.6a.75.75 0 1 1-1.322.708l-3-5.6a.75.75 0 0 1 .307-1.015"/>
  <path fill="#000" d="M4.6 10.45a1.7 1.7 0 1 0 0-3.4 1.7 1.7 0 0 0 0 3.4"/>
  <path fill="#000" d="M4.6 7.8a.95.95 0 1 0 0 1.9.95.95 0 0 0 0-1.9m-2.45.95a2.45 2.45 0 1 1 4.9 0 2.45 2.45 0 0 1-4.9 0m7.15 6.1a1.7 1.7 0 1 0 0-3.4 1.7 1.7 0 0 0 0 3.4"/>
  <path fill="#000" d="M9.3 12.2a.95.95 0 1 0 0 1.9.95.95 0 0 0 0-1.9m-2.45.95a2.45 2.45 0 1 1 4.9 0 2.45 2.45 0 0 1-4.9 0m7.95-3.7a1.7 1.7 0 1 0 0-3.4 1.7 1.7 0 0 0 0 3.4"/>
  <path fill="#000" d="M14.8 6.8a.95.95 0 1 0 0 1.9.95.95 0 0 0 0-1.9m-2.45.95a2.45 2.45 0 1 1 4.9 0 2.45 2.45 0 0 1-4.9 0m7.05 10.2a1.7 1.7 0 1 0 0-3.4 1.7 1.7 0 0 0 0 3.4"/>
  <path fill="#000" d="M19.4 15.3a.95.95 0 1 0 0 1.9.95.95 0 0 0 0-1.9m-2.45.95a2.45 2.45 0 1 1 4.9 0 2.45 2.45 0 0 1-4.9 0"/>
</svg>
