<svg xmlns="http://www.w3.org/2000/svg" fill="none" viewBox="0 0 24 24">
  <path fill="#000" d="M21 12h-7c-1.1 0-2 .9-2 2v7c-5 0-9-4-9-9s4-9 9-9 9 4 9 9"/>
  <path fill="#000" d="M12 3.75A8.213 8.213 0 0 0 3.75 12a8.21 8.21 0 0 0 7.5 8.217V14A2.756 2.756 0 0 1 14 11.25h6.217A8.21 8.21 0 0 0 12 3.75M2.25 12A9.713 9.713 0 0 1 12 2.25 9.713 9.713 0 0 1 21.75 12v.75H14c-.686 0-1.25.564-1.25 1.25v7.75H12A9.713 9.713 0 0 1 2.25 12"/>
  <path fill="#000" d="M14 12.75c-.686 0-1.25.564-1.25 1.25v6.217a8.204 8.204 0 0 0 7.467-7.467zM11.25 14A2.756 2.756 0 0 1 14 11.25h7.75V12A9.713 9.713 0 0 1 12 21.75h-.75z"/>
</svg>
