<svg xmlns="http://www.w3.org/2000/svg" fill="none" viewBox="0 0 24 24">
  <path fill="#000" d="M8.45 3.85a5.15 5.15 0 0 0-2.831 9.453A6.67 6.67 0 0 1 8.9 9.14a6.63 6.63 0 0 1 1.853-4.748A5.1 5.1 0 0 0 8.45 3.85m.684 6.905a5.15 5.15 0 0 0-2.126 3.19c.458.134.941.205 1.442.205a5.1 5.1 0 0 0 2.304-.543 6.64 6.64 0 0 1-1.62-2.852M5.4 14.91A6.65 6.65 0 1 1 12 3.376a6.65 6.65 0 1 1 6.698 11.483L18.7 15a6.65 6.65 0 1 1-13.3-.089Zm11.78.538a5.15 5.15 0 0 1-10.26.024 6.67 6.67 0 0 0 5.08-.847 6.67 6.67 0 0 0 5.18.824Zm1.285-2.204a5.15 5.15 0 0 0-5.22-8.852 6.63 6.63 0 0 1 1.853 4.696 6.67 6.67 0 0 1 3.367 4.156m-3.585-2.547a5.16 5.16 0 0 1 2.205 3.22 5.2 5.2 0 0 1-1.536.232 5.1 5.1 0 0 1-2.304-.543 6.64 6.64 0 0 0 1.635-2.91Zm-1.39-.643A5.14 5.14 0 0 1 12 12.73a5.14 5.14 0 0 1-1.486-2.648 5.16 5.16 0 0 1 2.978-.028Zm.088-1.529a6.7 6.7 0 0 0-3.16.025A5.14 5.14 0 0 1 12 5.27a5.14 5.14 0 0 1 1.579 3.257Z"/>
</svg>
