<svg xmlns="http://www.w3.org/2000/svg" fill="none" viewBox="0 0 24 24">
  <path fill="#000" d="M3.75 8c0-1.286.964-2.25 2.25-2.25h12c1.286 0 2.25.964 2.25 2.25v5a.75.75 0 0 0 1.5 0V8c0-2.114-1.636-3.75-3.75-3.75H6C3.886 4.25 2.25 5.886 2.25 8v8c0 2.114 1.636 3.75 3.75 3.75h6a.75.75 0 0 0 0-1.5H6c-1.286 0-2.25-.964-2.25-2.25zm2.591.332a.75.75 0 0 0-.682 1.336l4.7 2.4.005.003c1.023.51 2.16.495 3.24.014l.037-.017 4.7-2.4a.75.75 0 0 0-.682-1.336l-4.681 2.39c-.711.311-1.368.294-1.94.008zm8.538 6.03a.75.75 0 0 1 1.06.017l2.011 2.08v-.958a.75.75 0 0 1 1.5 0v2.4c0 .378-.198.653-.394.81-.173.138-.409.24-.656.24H16a.75.75 0 0 1 0-1.5h.822l-1.961-2.03a.75.75 0 0 1 .018-1.06Z"/>
</svg>
