<svg xmlns="http://www.w3.org/2000/svg" fill="none" viewBox="0 0 24 24">
  <path fill="#000" d="M16.7 16H7.3c-1.7 0-3-1.3-3-3V7c0-1.7 1.3-3 3-3h9.4c1.7 0 3 1.3 3 3v6c0 1.6-1.4 3-3 3"/>
  <path fill="#000" d="M7.3 4.75c-1.286 0-2.25.964-2.25 2.25v6c0 1.286.964 2.25 2.25 2.25h9.4c1.186 0 2.25-1.064 2.25-2.25V7c0-1.286-.964-2.25-2.25-2.25zM3.55 7c0-2.114 1.636-3.75 3.75-3.75h9.4c2.114 0 3.75 1.636 3.75 3.75v6c0 2.014-1.736 3.75-3.75 3.75H7.3c-2.114 0-3.75-1.636-3.75-3.75z"/>
  <path fill="#000" d="m6.8 7.4 4 2c.7.3 1.5.3 2.2 0l4-2"/>
  <path fill="#fff" d="M6.13 7.065a.75.75 0 0 1 1.005-.336l3.98 1.99c.5.208 1.07.208 1.57 0l3.98-1.99a.75.75 0 0 1 .67 1.342l-4 2-.04.018a3.55 3.55 0 0 1-2.83-.018l-4-2a.75.75 0 0 1-.336-1.006"/>
  <path fill="#000" d="M12 15.25a.75.75 0 0 1 .75.75v4a.75.75 0 0 1-1.5 0v-4a.75.75 0 0 1 .75-.75"/>
  <path fill="#000" d="M6.25 20a.75.75 0 0 1 .75-.75h10a.75.75 0 0 1 0 1.5H7a.75.75 0 0 1-.75-.75"/>
</svg>
