<svg xmlns="http://www.w3.org/2000/svg" fill="none" viewBox="0 0 24 24">
  <path fill="#000" d="M7.65 20.5a2 2 0 1 0 0-4 2 2 0 0 0 0 4"/>
  <path fill="#000" d="M7.65 17.25a1.25 1.25 0 1 0 0 2.5 1.25 1.25 0 0 0 0-2.5M4.9 18.5a2.75 2.75 0 1 1 5.5 0 2.75 2.75 0 0 1-5.5 0m11.85-11a2 2 0 1 0 0-4 2 2 0 0 0 0 4"/>
  <path fill="#000" d="M16.75 4.25a1.25 1.25 0 1 0 0 2.5 1.25 1.25 0 0 0 0-2.5M14 5.5a2.75 2.75 0 1 1 5.5 0 2.75 2.75 0 0 1-5.5 0m-6.35-.75a.75.75 0 0 1 .75.75v10a.75.75 0 0 1-1.5 0v-10a.75.75 0 0 1 .75-.75"/>
  <path fill="#000" d="M16.75 6.75a.75.75 0 0 1 .75.75h-.75l.75.001v.035a2 2 0 0 1-.024.274 4.3 4.3 0 0 1-.148.687 5.3 5.3 0 0 1-1.145 2.005c-1.311 1.456-3.796 2.748-8.433 2.748a.75.75 0 0 1 0-1.5c4.363 0 6.378-1.208 7.318-2.252a3.8 3.8 0 0 0 .823-1.432 3 3 0 0 0 .108-.555L16 7.493v-.001.006M7.75 5.06l1.97 1.97a.75.75 0 1 0 1.06-1.06L8.628 3.817l-.062-.041c-.485-.323-1.209-.444-1.746.094l-2.1 2.1a.75.75 0 0 0 1.06 1.06z"/>
</svg>
