<svg xmlns="http://www.w3.org/2000/svg" fill="none" viewBox="0 0 24 24">
  <path fill="#000" d="m10.65 13.1-6-3c-1.3-.9-1.3-2.8 0-3.7l6-3c.8-.6 1.9-.6 2.7 0l6 3c1.3.9 1.3 2.9 0 3.8l-6 3c-.8.5-1.8.5-2.7-.1"/>
  <path fill="#000" d="M12.9 4a1.5 1.5 0 0 0-1.8 0l-.054.04-6.008 3.005a1.492 1.492 0 0 0 0 2.41l5.99 2.995.038.026c.667.445 1.349.424 1.886.088l.03-.019 5.98-2.99c.817-.605.817-1.905 0-2.51L12.954 4.04zm.842-1.243a3 3 0 0 0-3.484 0l-5.99 2.996-.044.03a2.993 2.993 0 0 0 0 4.934l.044.03 6.008 3.004c1.112.721 2.396.74 3.44.105l6.018-3.01.044-.03c1.73-1.198 1.73-3.834 0-5.033l-.044-.03z"/>
  <path fill="#000" d="M4.08 13.565a.75.75 0 0 1 1.005-.336l6.06 3.03.055.04a1.5 1.5 0 0 0 1.8 0l.054-.04 6.06-3.03a.75.75 0 0 1 .671 1.342l-5.943 2.972a3 3 0 0 1-3.484 0L4.416 14.57a.75.75 0 0 1-.336-1.006Z"/>
  <path fill="#000" d="M4.08 17.265a.75.75 0 0 1 1.005-.336l6.06 3.03.055.04a1.5 1.5 0 0 0 1.8 0l.054-.04 6.06-3.03a.75.75 0 0 1 .671 1.342l-5.943 2.972a3 3 0 0 1-3.484 0L4.416 18.27a.75.75 0 0 1-.336-1.006Z"/>
</svg>
