<svg xmlns="http://www.w3.org/2000/svg" fill="none" viewBox="0 0 24 24">
  <path fill="#000" d="m17.944 11.05-1.3 1-3.1-2.3c-.9-.6-2.1-.6-2.9 0l-3.2 2.3-1.3-1c-1.4-1-1.4-3.1 0-4.1l4.5-3.2c.9-.6 2.1-.6 2.9 0l4.5 3.2c1.3 1 1.3 3.1-.1 4.1"/>
  <path fill="#000" d="M11.068 4.368 6.58 7.56c-.98.701-.98 2.179 0 2.88l.011.007.869.668 2.741-1.97c1.08-.806 2.626-.775 3.76-.02l.015.011 2.66 1.974.862-.663.01-.007c.985-.704.982-2.19.09-2.888L13.1 4.356l-.008-.006c-.516-.388-1.362-.419-2.025.018Zm2.917-1.224c-1.08-.805-2.625-.773-3.758-.018l-.009.006-4.51 3.207c-1.815 1.297-1.82 4.01-.012 5.313l1.732 1.333 3.66-2.63.006-.005c.515-.386 1.357-.418 2.019.014l3.539 2.626 1.739-1.338c1.8-1.297 1.803-3.994.11-5.297l-.011-.008z"/>
  <path fill="#000" d="m16.462 11.018 1.712 1.316c2.018 1.29 2.032 4.021.206 5.326l-.002.001-4.509 3.207-.01.006c-1.132.755-2.677.787-3.757-.018l-4.493-3.195h-.001c-1.815-1.297-1.82-4.01-.012-5.313l1.73-1.33 3.542 2.513c.663.437 1.509.406 2.025.019l.008-.006 3.56-2.527Zm-2.677 3.738c-1.08.804-2.625.773-3.758.018l-.009-.006-2.657-1.886-.87.67-.012.008a1.776 1.776 0 0 0 0 2.88l4.507 3.204.007.006c.517.387 1.363.418 2.026-.018l4.489-3.192c.962-.689.987-2.136-.162-2.854l-.03-.02-.89-.684z"/>
  <path fill="#000" d="m16.644 12.05-3.1 2.2c-.9.6-2.1.6-2.9 0l-3.2-2.2 3.1-2.2c.9-.6 2.1-.6 2.9 0z"/>
  <path fill="#000" d="M10.968 10.468 8.753 12.04l2.328 1.6.013.01c.516.387 1.362.418 2.025-.019l2.215-1.571-2.328-1.6-.012-.01c-.517-.388-1.363-.419-2.026.018M13.88 9.24c-1.08-.8-2.621-.768-3.753-.014l-.009.006-3.984 2.828 4.073 2.8c1.08.8 2.621.768 3.753.014l.009-.006 3.984-2.828z"/>
</svg>
