<svg xmlns="http://www.w3.org/2000/svg" viewBox="0 0 61 60" fill="currentColor">
  <path d="M30.8 51.425c-.2472.0034-.4925-.0428-.7215-.1359-.229-.093-.4371-.231-.6118-.4058-.1748-.1748-.3128-.3828-.4059-.6118-.093-.229-.1392-.4743-.1358-.7215L28.85 17.5c.0032-.2516.0564-.5002.1565-.7311.1-.2309.245-.4397.4264-.6141.1814-.1745.3957-.3111.6304-.4021.2347-.0909.4851-.1343.7367-.1277.4973 0 .9742.1976 1.3258.5492.3516.3516.5492.8285.5492 1.3258v32.05c-.0065.4953-.2061.9684-.5564 1.3187-.3502.3502-.8234.5498-1.3186.5563Z"/>
  <path d="M30.8 55c-.4926.001-.9668-.1869-1.325-.525L17.6 42.5c-.3511-.3515-.5484-.8281-.5484-1.325 0-.4968.1973-.9734.5484-1.325.3515-.3511.8281-.5483 1.325-.5483s.9734.1972 1.325.5483L30.8 50.375 41.325 39.8c.358-.358.8436-.5592 1.35-.5592.5063 0 .9919.2012 1.35.5592.358.3581.5592.8437.5592 1.35 0 .5064-.2012.992-.5592 1.35L32.15 54.4c-.1708.1886-.3791.3394-.6116.4428-.2325.1033-.484.1569-.7384.1572Zm-.0001-35.625c-1.4141 0-2.7965-.4193-3.9723-1.205-1.1758-.7856-2.0923-1.9023-2.6334-3.2088-.5412-1.3065-.6828-2.7441-.4069-4.1311.2759-1.38694.9568-2.66095 1.9568-3.6609.9999-.99994 2.2739-1.68092 3.6609-1.9568 1.387-.27588 2.8246-.13429 4.1311.40688 1.3065.54116 2.4232 1.4576 3.2088 2.63341.7857 1.17581 1.205 2.55821 1.205 3.97231 0 1.8963-.7533 3.7149-2.0942 5.0558-1.3409 1.3409-3.1595 2.0942-5.0558 2.0942Zm0-10.52498c-.6735.00001-1.3318.20007-1.8915.57478-.5597.37471-.9954.9072-1.252 1.5299-.2566.6228-.3224 1.3077-.1892 1.9679.1332.6602.4595 1.2659.9375 1.7404.478.4745 1.0862.7964 1.7474.9247.6611.1284 1.3455.0575 1.9663-.2037.6209-.2612 1.1501-.7009 1.5207-1.2633.3706-.5624.5658-1.2222.5608-1.8957 0-.4453-.0881-.8862-.2593-1.2973-.1711-.4112-.422-.7843-.738-1.09805-.3161-.31373-.6911-.56181-1.1035-.72994-.4123-.16813-.8539-.25299-1.2992-.24969Z"/>
</svg>
