<svg xmlns="http://www.w3.org/2000/svg" viewBox="0 0 61 60" fill="currentColor">
  <path d="M21.7501 36.2751c-.2463.0011-.4904-.0469-.718-.1414-.2275-.0944-.4339-.2334-.607-.4086l-4.525-4.525c-.1769-.1724-.3175-.3784-.4135-.606-.096-.2276-.1454-.4721-.1454-.719 0-.247.0494-.4915.1454-.7191.096-.2275.2366-.4336.4135-.6059l5-5c.3516-.3512.8281-.5484 1.325-.5484s.9735.1972 1.325.5484c.3511.3515.5484.8281.5484 1.325 0 .4968-.1973.9734-.5484 1.325l-3.675 3.8 3.225 3.075c.3511.3515.5484.8281.5484 1.325 0 .4968-.1973.9734-.5484 1.325-.176.1783-.3865.319-.6185.4135-.2321.0946-.4809.141-.7315.1365Zm17.6998-.0001c-.2464.0012-.4905-.0469-.718-.1413-.2275-.0945-.4339-.2334-.607-.4087-.3511-.3515-.5484-.8281-.5484-1.325 0-.4968.1973-.9734.5484-1.325l3.2-3.075-3.575-3.575c-.3511-.3515-.5484-.8281-.5484-1.325 0-.4968.1973-.9734.5484-1.325.3515-.3511.8281-.5483 1.325-.5483s.9734.1972 1.325.5483l5 5c.1769.1724.3175.3784.4135.606.096.2276.1454.472.1454.719s-.0494.4915-.1454.7191c-.096.2275-.2366.4336-.4135.6059l-4.525 4.525c-.203.1481-.4341.2533-.6791.3092-.245.0559-.4988.0613-.7459.0158Zm-11.35 2.325c-.2143.0452-.4356.0452-.65 0-.2434-.0823-.467-.2143-.6566-.3878-.1895-.1735-.3409-.3845-.4444-.6197-.1035-.2352-.1568-.4894-.1566-.7464.0001-.2569.0538-.511.1576-.7461L31.45 22c.0854-.2412.2192-.4623.3933-.6498.1741-.1875.3847-.3374.6189-.4404.2342-.1031.487-.1571.7429-.1588.2558-.0017.5093.049.7449.149.2434.0823.467.2144.6566.3878.1895.1735.3409.3846.4444.6198.1035.2352.1568.4893.1566.7463-.0001.257-.0538.5111-.1576.7461l-5.3001 14.1c-.1493.3158-.3817.5851-.6724.7788-.2907.1938-.6286.3048-.9776.3212Z"/>
  <path d="M43.725 56.875h-26.25c-2.6522 0-5.1957-1.0536-7.0711-2.9289-1.87536-1.8754-2.92892-4.4189-2.92892-7.0711v-33.75c0-2.6522 1.05356-5.1957 2.92892-7.07107C12.2793 4.17857 14.8228 3.125 17.475 3.125h26.25c2.6521 0 5.1957 1.05357 7.071 2.92893 1.8754 1.87537 2.929 4.41887 2.929 7.07107v33.75c0 2.6522-1.0536 5.1957-2.929 7.0711-1.8753 1.8753-4.4189 2.9289-7.071 2.9289Zm-26.25-50c-1.6576 0-3.2473.65848-4.4194 1.83058-1.1721 1.17211-1.8306 2.76182-1.8306 4.41942v33.75c0 1.6576.6585 3.2473 1.8306 4.4194 1.1721 1.1721 2.7618 1.8306 4.4194 1.8306h26.25c1.6576 0 3.2473-.6585 4.4194-1.8306 1.1721-1.1721 1.8306-2.7618 1.8306-4.4194v-33.75c0-1.6576-.6585-3.24731-1.8306-4.41942C46.9723 7.53348 45.3826 6.875 43.725 6.875h-26.25Z"/>
</svg>
