<svg xmlns="http://www.w3.org/2000/svg" viewBox="0 0 61 60" fill="currentColor">
  <path d="M21.2001 31.8751c-.3697-.005-.7298-.1191-1.0348-.3281-.305-.209-.5415-.5035-.6795-.8465-.1381-.3431-.1717-.7192-.0966-1.0813.0752-.3621.2557-.6938.5189-.9535.2632-.2598.5973-.4359.9603-.5062.363-.0704.7387-.0318 1.0799.1108.3411.1426.6325.383.8375.6907.2049.3078.3143.6693.3143 1.0391-.0066.4995-.2097.9764-.5653 1.3273-.3556.351-.8351.5477-1.3347.5477ZM30.8 31.875c1.0356 0 1.875-.8395 1.875-1.875 0-1.0355-.8394-1.875-1.875-1.875-1.0355 0-1.875.8395-1.875 1.875 0 1.0355.8395 1.875 1.875 1.875Zm10 .0501c-.3768.0049-.7466-.1023-1.0623-.308s-.5631-.5007-.7108-.8474c-.1476-.3467-.1889-.7295-.1184-1.0997.0705-.3702.2494-.7111.5141-.9793.2647-.2683.6032-.4517.9724-.5271.3693-.0753.7526-.0392 1.1012.1038.3486.1431.6469.3866.8568.6995.2099.313.322.6813.322 1.0582 0 .4996-.1967.9791-.5476 1.3347-.351.3556-.8278.5587-1.3274.5653ZM4.92504 31.875c-.41649.0025-.82194-.1337-1.1524-.3872-.33045-.2535-.5671-.6098-.6726-1.0128-.12303-.4804-.05331-.9899.19427-1.4197.24757-.4297.65337-.7457 1.13073-.8803 0 .0001 6.14996-1.675 6.14996-5.675V11.25c-.0205-.8526.1323-1.70053.4491-2.49237.3169-.79184.7913-1.5111 1.3943-2.11418.6031-.60309 1.3224-1.07744 2.1142-1.3943.7919-.31687 1.6398-.46966 2.4924-.4491.4973 0 .9742.19754 1.3259.54917.3516.35163.5491.82855.5491 1.32583 0 .49728-.1975.97419-.5491 1.32582-.3517.35163-.8286.54918-1.3259.54918-.3645-.03087-.7313.01863-1.0747.14502-.3433.12639-.6546.32659-.9121.58646-.2575.25987-.4548.57308-.578.91757-.1233.3444-.1694.7117-.1352 1.0759V22.5c0 6.925-8.57496 9.25-8.94996 9.35l-.45.025Z"/>
  <path d="M17.025 55.2c-.1572.0262-.3177.0262-.4749 0-.375 0-8.95005-2.5-8.95005-9.35V34.575c.02987-.3599-.01862-.7221-.14213-1.0615-.12351-.3395-.31911-.6481-.57334-.9047-.25422-.2566-.56103-.4551-.89931-.5818-.33828-.1266-.69998-.1785-1.06022-.152-.49728 0-.9742-.1975-1.32583-.5491-.35163-.3517-.54917-.8286-.54917-1.3259 0-.4972.19754-.9741.54917-1.3258.35163-.3516.82855-.5492 1.32583-.5492.84841-.017 1.69152.1376 2.47872.4545.7872.3168 1.50228.7895 2.10232 1.3895.60001.6 1.07271 1.3151 1.38951 2.1023.3169.7872.4715 1.6303.4544 2.4787V45.8c0 4 6.075 5.7 6.125 5.725.2413.0551.4688.1587.6687.3045.2.1457.3682.3306.4945.5434.1262.2128.2079.449.24.6944.0322.2453.0141.4946-.0531.7327-.1006.4009-.3325.7566-.6587 1.0104-.3262.2537-.7281.3909-1.1414.3896Zm39.6751-23.325h-.475c-.375 0-8.95-2.5-8.95-9.35V11.25c.0303-.3622-.0187-.7267-.1436-1.0681-.125-.34132-.3229-.65132-.5799-.90836-.2571-.25704-.5671-.45493-.9084-.57989-.3414-.12495-.7059-.17396-1.0681-.14361-.4973 0-.9742-.19755-1.3259-.54918-.3516-.35163-.5491-.82854-.5491-1.32583 0-.49728.1975-.97419.5491-1.32582.3517-.35163.8286-.54918 1.3259-.54918.8505-.02042 1.6963.13161 2.4864.44695.7902.31533 1.5082.78743 2.111 1.38782.6027.6004 1.0776 1.31664 1.396 2.10555.3184.7889.4737 1.63415.4566 2.48465V22.5c0 4 6.075 5.7 6.125 5.7.4819.1293.8937.443 1.1463.8734.2526.4303.3258.9428.2037 1.4266-.1053.3963-.3392.7463-.665.9952-.3258.2489-.725.3825-1.135.3798Z"/>
  <path d="M44.575 55.2001c-.4472-.0115-.8757-.1825-1.2079-.4821-.3322-.2997-.5464-.7083-.6037-1.152-.0574-.4437.0458-.8933.291-1.2676.2451-.3743.616-.6486 1.0456-.7733 0 0 6.15-1.675 6.15-5.725v-11.225c-.0204-.8505.1316-1.6964.447-2.4865.3153-.7901.7874-1.5082 1.3878-2.1109.6004-.6028 1.3166-1.0776 2.1055-1.396.7889-.3184 1.6342-.4738 2.4847-.4566.4973 0 .9742.1975 1.3259.5491.3516.3517.5491.8286.5491 1.3259 0 .4972-.1975.9741-.5491 1.3258-.3517.3516-.8286.5492-1.3259.5492-.3625-.0271-.7265.0253-1.0668.1534-.3402.1281-.6483.3289-.903.5883-.2547.2594-.4497.5713-.5715.9138-.1218.3425-.1674.7075-.1337 1.0695v11.2c0 6.925-8.575 9.25-8.95 9.35-.1544.0428-.315.0597-.475.05Z"/>
</svg>
