<svg xmlns="http://www.w3.org/2000/svg" viewBox="0 0 60 60" fill="currentColor">
  <path d="M22.9251 51.225c-1.9884-.0017-3.8948-.7931-5.3-2.2L6.60014 37.975c-1.40451-1.4063-2.1934-3.3125-2.1934-5.3 0-1.9875.78889-3.8937 2.1934-5.3l23.12496-23.1c1.4063-1.4045 3.3125-2.1934 5.3-2.1934 1.9875 0 3.8938.7889 5.3 2.1934l11.05 11.025c1.4045 1.4063 2.1934 3.3125 2.1934 5.3 0 1.9875-.7889 3.8937-2.1934 5.3l-23.125 23.125c-.6987.6996-1.5289 1.2542-2.4428 1.6317-.9139.3776-1.8934.5707-2.8822.5683Zm12.075-44.15c-.329-.0019-.6551.06116-.9597.18558-.3046.12441-.5817.30772-.8153.53942l-23.1 23.1c-.23428.2324-.42027.5089-.54719.8136-.12692.3046-.19227.6314-.19227.9614 0 .33.06535.6568.19227.9614.12692.3047.31291.5812.54719.8136l11.025 11.025c.2324.2343.5089.4203.8136.5472.3046.127.6314.1923.9614.1923.3301 0 .6568-.0653.9615-.1923.3046-.1269.5811-.3129.8135-.5472l23.1-22.975c.2317-.2336.415-.5106.5395-.8152.1244-.3046.1874-.6308.1855-.9598-.0027-.6558-.2631-1.2843-.725-1.75L36.7751 7.8c-.2336-.2317-.5106-.41501-.8152-.53942-.3046-.12442-.6308-.18748-.9598-.18558Z"/>
  <path d="M34.9999 29.325c-.5387.0016-1.0723-.1036-1.5701-.3096-.4978-.2059-.9498-.5086-1.3299-.8904l-3.975-3.975c-.3809-.3807-.6832-.8328-.8894-1.3304-.2062-.4976-.3123-1.0309-.3123-1.5696 0-.5386.1061-1.0719.3123-1.5695.2062-.4976.5085-.9497.8894-1.3305l4.2-4.225c.7855-.7474 1.8283-1.1642 2.9125-1.1642 1.0843 0 2.1271.4168 2.9125 1.1642l3.975 3.975c.771.7733 1.2039 1.8206 1.2039 2.9125s-.4329 2.1393-1.2039 2.9125l-4.225 4.2c-.38.3818-.832.6845-1.3298.8904-.4978.206-1.0315.3112-1.5702.3096Zm-2.725-8.075 2.725 2.725 2.95-2.975-2.7-2.7-2.975 2.95ZM52.5 52.5H5c-.66304 0-1.29893-.2634-1.76777-.7322C2.76339 51.2989 2.5 50.663 2.5 50s.26339-1.2989.73223-1.7678C3.70107 47.7634 4.33696 47.5 5 47.5h47.5c.663 0 1.2989.2634 1.7678.7322C54.7366 48.7011 55 49.337 55 50s-.2634 1.2989-.7322 1.7678c-.4689.4688-1.1048.7322-1.7678.7322ZM17.4998 34.9999c-.329.0019-.6551-.0611-.9597-.1856-.3046-.1244-.5817-.3077-.8153-.5394-.2343-.2324-.4203-.5089-.5472-.8135-.1269-.3047-.1922-.6315-.1922-.9615 0-.33.0653-.6568.1922-.9614.1269-.3047.3129-.5812.5472-.8136l5-5c.4708-.4707 1.1093-.7352 1.775-.7352.6658 0 1.3043.2645 1.775.7352.4708.4708.7353 1.1093.7353 1.775 0 .6658-.2645 1.3043-.7353 1.775l-5 5c-.2336.2317-.5106.415-.8152.5394-.3046.1245-.6307.1875-.9598.1856Zm5 5c-.329.0019-.6551-.0611-.9597-.1856-.3046-.1244-.5817-.3077-.8153-.5394-.2343-.2324-.4203-.5089-.5472-.8135-.1269-.3047-.1922-.6315-.1922-.9615 0-.33.0653-.6568.1922-.9614.1269-.3047.3129-.5812.5472-.8136l5-5c.4708-.4707 1.1093-.7352 1.775-.7352.6658 0 1.3043.2645 1.775.7352.4708.4708.7353 1.1093.7353 1.775 0 .6658-.2645 1.3043-.7353 1.775l-5 5c-.2336.2317-.5106.415-.8152.5394-.3046.1245-.6307.1875-.9598.1856Z"/>
</svg>
