<svg xmlns="http://www.w3.org/2000/svg" viewBox="0 0 60 60" fill="currentColor">
  <path d="M30 52.5H15c-2.6522 0-5.1957-1.0536-7.07107-2.9289C6.05357 47.6957 5 45.1522 5 42.5v-25c0-2.6522 1.05357-5.1957 2.92893-7.0711C9.8043 8.55357 12.3478 7.5 15 7.5h15c2.6522 0 5.1957 1.05357 7.0711 2.9289C38.9464 12.3043 40 14.8478 40 17.5v25c0 2.6522-1.0536 5.1957-2.9289 7.0711C35.1957 51.4464 32.6522 52.5 30 52.5Zm-15-40c-1.3261 0-2.5979.5268-3.5355 1.4645C10.5268 14.9021 10 16.1739 10 17.5v25c0 1.3261.5268 2.5979 1.4645 3.5355C12.4021 46.9732 13.6739 47.5 15 47.5h15c1.3261 0 2.5979-.5268 3.5355-1.4645C34.4732 45.0979 35 43.8261 35 42.5v-25c0-1.3261-.5268-2.5979-1.4645-3.5355C32.5979 13.0268 31.3261 12.5 30 12.5H15Z"/>
  <path d="M42.5 42.5h-5c-.663 0-1.2989-.2634-1.7678-.7322C35.2634 41.2989 35 40.663 35 40s.2634-1.2989.7322-1.7678c.4689-.4688 1.1048-.7322 1.7678-.7322h5c1.9891 0 3.8968-.7902 5.3033-2.1967C49.2098 33.8968 50 31.9891 50 30s-.7902-3.8968-2.1967-5.3033C46.3968 23.2902 44.4891 22.5 42.5 22.5h-5c-.663 0-1.2989-.2634-1.7678-.7322C35.2634 21.2989 35 20.663 35 20s.2634-1.2989.7322-1.7678c.4689-.4688 1.1048-.7322 1.7678-.7322h5c3.3152 0 6.4946 1.317 8.8388 3.6612C53.683 23.5054 55 26.6848 55 30c0 3.3152-1.317 6.4946-3.6612 8.8388C48.9946 41.183 45.8152 42.5 42.5 42.5ZM22.5 30c-.663 0-1.2989-.2634-1.7678-.7322C20.2634 28.7989 20 28.163 20 27.5V10c0-.66304.2634-1.29893.7322-1.76777C21.2011 7.76339 21.837 7.5 22.5 7.5s1.2989.26339 1.7678.73223C24.7366 8.70107 25 9.33696 25 10v17.5c0 .663-.2634 1.2989-.7322 1.7678C23.7989 29.7366 23.163 30 22.5 30Z"/>
  <path d="M22.5 40c-1.4834 0-2.9334-.4399-4.1668-1.264-1.2333-.8241-2.1946-1.9954-2.7623-3.3659-.5677-1.3704-.7162-2.8784-.4268-4.3333.2894-1.4548 1.0037-2.7912 2.0526-3.8401 1.0489-1.0489 2.3853-1.7632 3.8401-2.0526 1.4549-.2894 2.9629-.1409 4.3333.4268 1.3705.5677 2.5418 1.529 3.3659 2.7623C29.5601 29.5666 30 31.0166 30 32.5c0 1.9891-.7902 3.8968-2.1967 5.3033C26.3968 39.2098 24.4891 40 22.5 40Zm0-10c-.4945 0-.9778.1466-1.3889.4213s-.7316.6652-.9208 1.122c-.1892.4568-.2387.9595-.1423 1.4444.0965.485.3346.9304.6842 1.2801.3497.3496.7951.5877 1.2801.6842.4849.0964.9876.0469 1.4444-.1423.4568-.1892.8473-.5096 1.122-.9208.2747-.4111.4213-.8944.4213-1.3889 0-.663-.2634-1.2989-.7322-1.7678C23.7989 30.2634 23.163 30 22.5 30Z"/>
</svg>
