<svg xmlns="http://www.w3.org/2000/svg" viewBox="0 0 60 60" fill="currentColor">
  <path d="M52.0251 47.5c-.2563.0464-.5188.0464-.775 0-.6285-.2011-1.1519-.6424-1.4563-1.2278s-.3651-1.2673-.1687-1.8972c.9704-3.082 1.2014-6.3492.6742-9.537-.5272-3.1879-1.7978-6.2067-3.7089-8.8121-1.9111-2.6054-4.4089-4.724-7.2912-6.1844S33.2312 17.6202 30 17.6202c-3.2311 0-6.4168.7609-9.2991 2.2213-2.8823 1.4604-5.3801 3.579-7.2912 6.1844-1.9111 2.6054-3.1817 5.6242-3.70891 8.8121-.52722 3.1878-.29623 6.455.67431 9.537.0984.3135.1342.6434.1052.9707-.029.3274-.1221.6458-.2742.9371-.1521.2914-.36001.5499-.61198.7609-.25198.211-.54304.3703-.85657.4688-.6332.1989-1.31949.1381-1.90789-.169-.58839-.3071-1.0307-.8353-1.22961-1.4685-1.20291-3.8303-1.48719-7.8899-.82986-11.8504.65734-3.9606 2.23784-7.7107 4.6136-10.947 2.37581-3.2363 5.48001-5.8678 9.06161-7.6816 3.5816-1.8138 7.54-2.759 11.5546-2.759 4.0147 0 7.9731.9452 11.5547 2.759 3.5816 1.8138 6.6859 4.4453 9.0616 7.6816 2.3758 3.2363 3.9563 6.9864 4.6136 10.947.6573 3.9605.3731 8.0201-.8298 11.8504-.1803.4825-.5052.8976-.9303 1.1884-.4251.2909-.9297.4434-1.4447.4366Z"/>
  <path d="M52.0251 47.5h-44.05c-.66304 0-1.29893-.2634-1.76777-.7322C5.73849 46.2989 5.4751 45.663 5.4751 45s.26339-1.2989.73223-1.7678c.46884-.4688 1.10473-.7322 1.76777-.7322h44.05c.663 0 1.2989.2634 1.7678.7322.4688.4689.7322 1.1048.7322 1.7678s-.2634 1.2989-.7322 1.7678c-.4689.4688-1.1048.7322-1.7678.7322Zm-22.025-6.9251c-.329.0019-.6552-.0611-.9598-.1855s-.5816-.3078-.8152-.5395c-.2343-.2324-.4203-.5089-.5472-.8135-.127-.3047-.1923-.6314-.1923-.9615 0-.33.0653-.6568.1923-.9614.1269-.3046.3129-.5812.5472-.8136l9.275-9.225c.4684-.4656 1.102-.7269 1.7625-.7269.6605 0 1.2941.2613 1.7625.7269.2343.2324.4203.509.5472.8136s.1923.6314.1923.9614c0 .3301-.0654.6568-.1923.9615-.1269.3046-.3129.5811-.5472.8135l-9.225 9.225c-.2366.2348-.5177.4198-.8268.5443-.3091.1245-.64.186-.9732.1807Z"/>
</svg>
