<svg xmlns="http://www.w3.org/2000/svg" viewBox="0 0 61 60" fill="currentColor">
  <path d="M30.6001 30.35c-15 0-26.15003-5.35-26.15003-12.5S15.7001 5.34998 30.6001 5.34998s26.15 5.37502 26.15 12.50002c0 7.125-11.15 12.5-26.15 12.5Zm0-21.22502c-13.2 0-22.50003 4.60002-22.50003 8.75002 0 4.15 9.20003 8.725 22.50003 8.725 13.3 0 22.5-4.6 22.5-8.725s-9.3-8.75002-22.5-8.75002Z"/>
  <path d="M30.6001 42.5c-7.2637.2459-14.4638-1.4269-20.87503-4.85-1.46675-.7088-2.72415-1.7865-3.64889-3.1276C5.15144 33.1813 4.59109 31.6229 4.45007 30c.14409-1.6285.70817-3.1917 1.63714-4.5369.92896-1.3453 2.19102-2.4265 3.66286-3.1381.41903-.229.90893-.2919 1.37213-.1761.4633.1158.8659.4018 1.1279.8011.2373.4147.3074.9044.1959 1.369-.1115.4647-.3962.8692-.7959 1.131C9.45007 26.925 8.10007 28.5 8.10007 30s1.25 3.075 3.52503 4.475c5.8389 3.0691 12.3841 4.5437 18.975 4.275 6.5573.251 13.0657-1.2231 18.875-4.275 2.275-1.4 3.625-2.975 3.625-4.475 0-1.5-1.25-3.075-3.525-4.475-.3998-.2618-.6845-.6663-.796-1.131-.1115-.4646-.0414-.9543.196-1.369.2619-.3993.6646-.6853 1.1278-.8011.4633-.1158.9532-.0529 1.3722.1761 1.4569.7084 2.7073 1.7795 3.6311 3.1104.9237 1.3308 1.4898 2.8769 1.6439 4.4896-.1441 1.6285-.7082 3.1917-1.6372 4.5369-.9289 1.3453-2.191 2.4265-3.6628 3.1381-6.4079 3.4057-13.5975 5.0695-20.85 4.825Z"/>
  <path d="M30.6001 54.625c-15 0-26.15003-5.375-26.15003-12.5.14825-1.6241.71426-3.1822 1.64299-4.5227.92874-1.3405 2.18858-2.4179 3.65701-3.1273.41473-.2374.90443-.3075 1.36903-.196.4646.1115.8692.3962 1.131.796.2314.4161.2982.9039.187 1.3669-.1111.4629-.392.8673-.787 1.1331-2.20003 1.475-3.55003 3.075-3.55003 4.55 0 4.15 9.20003 8.75 22.50003 8.75 13.3 0 22.5-4.6 22.5-8.75 0-1.475-1.25-3.075-3.525-4.45-.3951-.2658-.676-.6702-.7871-1.1331-.1111-.463-.0443-.9508.1871-1.3669.2618-.3998.6663-.6845 1.131-.796.4646-.1115.9543-.0414 1.369.196 1.4684.7094 2.7283 1.7868 3.657 3.1273.9287 1.3405 1.4947 2.8986 1.643 4.5227-.025 7.025-11.175 12.4-26.175 12.4Z"/>
</svg>
