<svg xmlns="http://www.w3.org/2000/svg" viewBox="0 0 61 60" fill="currentColor">
  <path d="M30.0252 51.875h-19.875c-1.44341-.0066-2.82582-.5829-3.84647-1.6035-1.02065-1.0207-1.59696-2.4031-1.60353-3.8465V10c0-.49728.19754-.97419.54917-1.32583.35163-.35163.82854-.54917 1.32583-.54917h14.475c14.8 0 32.5 10 33.325 10.35.2911.159.5333.3943.7007.6806.1673.2863.2535.6128.2493.9444v10c0 .4973-.1975.9742-.5492 1.3258-.3516.3517-.8285.5492-1.3258.5492-.4973 0-.9742-.1975-1.3258-.5492-.3517-.3516-.5492-.8285-.5492-1.3258v-8.975c-3.85-2.025-18.55-9.35-30.525-9.35h-12.5v34.65c0 .4509.1791.8833.49791 1.2021.31882.3188.75122.4979 1.20209.4979h20c.4973 0 .9742.1975 1.3258.5492.3517.3516.5492.8285.5492 1.3258 0 .4973-.1975.9742-.5492 1.3258-.3516.3516-.8285.5492-1.3258.5492h-.225Z"/>
  <path d="M53.4502 21.875H6.5752c-.49729 0-.9742-.1975-1.32583-.5492-.35163-.3516-.54917-.8285-.54917-1.3258 0-.4973.19754-.9742.54917-1.3258.35163-.3517.82854-.5492 1.32583-.5492h46.875c.4973 0 .9742.1975 1.3258.5492.3517.3516.5492.8285.5492 1.3258 0 .4973-.1975.9742-.5492 1.3258-.3516.3517-.8285.5492-1.3258.5492Zm1.575 23.9h-19.075c-.4973 0-.9742-.1975-1.3258-.5492-.3517-.3516-.5492-.8285-.5492-1.3258 0-.4973.1975-.9742.5492-1.3258.3516-.3516.8285-.5492 1.3258-.5492h19.075c.4973 0 .9742.1976 1.3258.5492.3516.3516.5492.8285.5492 1.3258 0 .4973-.1976.9742-.5492 1.3258-.3516.3517-.8285.5492-1.3258.5492Z"/>
  <path d="M45.5001 55.325c-.4973 0-.9742-.1975-1.3258-.5492-.3516-.3516-.5492-.8285-.5492-1.3258V34.375c0-.4973.1976-.9742.5492-1.3258.3516-.3517.8285-.5492 1.3258-.5492.4973 0 .9742.1975 1.3258.5492.3517.3516.5492.8285.5492 1.3258V53.45c-.0065.4953-.2061.9684-.5563 1.3187-.3502.3502-.8234.5498-1.3187.5563Z"/>
</svg>
