<svg xmlns="http://www.w3.org/2000/svg" viewBox="0 0 60 60" fill="currentColor">
  <path d="M45.0002 47.5h-30c-2.6521 0-5.19566-1.0536-7.07102-2.9289-1.87537-1.8754-2.92894-4.4189-2.92894-7.0711v-20c0-2.6522 1.05357-5.1957 2.92894-7.0711C9.80454 8.55357 12.3481 7.5 15.0002 7.5h30c2.6522 0 5.1957 1.05357 7.0711 2.9289 1.8754 1.8754 2.9289 4.4189 2.9289 7.0711v20c0 2.6522-1.0535 5.1957-2.9289 7.0711-1.8754 1.8753-4.4189 2.9289-7.0711 2.9289Zm-30-35c-1.326 0-2.5978.5268-3.5355 1.4645-.9377.9376-1.4645 2.2094-1.4645 3.5355v20c0 1.3261.5268 2.5979 1.4645 3.5355.9377.9377 2.2095 1.4645 3.5355 1.4645h30c1.3261 0 2.5979-.5268 3.5356-1.4645.9377-.9376 1.4644-2.2094 1.4644-3.5355v-20c0-1.3261-.5267-2.5979-1.4644-3.5355-.9377-.9377-2.2095-1.4645-3.5356-1.4645h-30Z"/>
  <path d="M30 35.2001c-.2722.0094-.5436-.0331-.8-.125l-22.49999-7.575c-.31189-.1051-.60003-.2705-.84797-.487-.24795-.2164-.45084-.4795-.59709-.7743-.14625-.2949-.233-.6156-.2553-.944-.02229-.3283.02031-.6578.12536-.9697.10506-.3119.27052-.6001.48694-.848.21641-.2479.47955-.4508.77437-.5971.29483-.1462.61557-.233.94392-.2553.32836-.0223.65788.0203.96977.1254L30 30.0001l21.7-7.025c.3257-.124.6737-.1784 1.0217-.16.348.0185.6882.1095.999.2673.3107.1577.585.3786.8053.6486.2204.27.3818.583.474.9191.2051.6299.1517 1.3154-.1482 1.906-.3.5906-.8222 1.038-1.4518 1.244l-22.5 7.275c-.2873.1068-.5945.1495-.9.125Z"/>
  <path d="M9.80002 45.3999c-.32902.0019-.65517-.0611-.95977-.1855-.30459-.1244-.58163-.3078-.81523-.5395-.23432-.2324-.42031-.5089-.54723-.8135-.12692-.3047-.19227-.6314-.19227-.9615 0-.33.06535-.6568.19227-.9614.12692-.3047.31291-.5812.54723-.8136l12.72498-12.7c.4783-.4095 1.0935-.6235 1.7227-.5992.6291.0243 1.226.2851 1.6712.7303.4453.4453.7061 1.0421.7304 1.6713.0243.6292-.1897 1.2444-.5993 1.7226l-12.7 12.725c-.2336.2317-.5106.4151-.8152.5395-.3046.1244-.6308.1874-.95978.1855ZM50.2001 45.4c-.329.0019-.6552-.0612-.9598-.1856-.3046-.1244-.5816-.3077-.8152-.5394L35.7751 32c-.4096-.4783-.6236-1.0935-.5993-1.7226.0243-.6292.2851-1.2261.7304-1.6713.4452-.4453 1.0421-.7061 1.6713-.7304.6292-.0243 1.2443.1897 1.7226.5993l12.675 12.65c.2343.2324.4203.5089.5472.8135.1269.3047.1923.6315.1923.9615 0 .33-.0654.6568-.1923.9614-.1269.3047-.3129.5812-.5472.8136-.2336.2317-.5106.415-.8152.5394-.3046.1244-.6308.1875-.9598.1856Z"/>
</svg>
