<svg xmlns="http://www.w3.org/2000/svg" viewBox="0 0 61 60" fill="currentColor">
  <path d="M30.1999 40.725c1.0356 0 1.875-.8395 1.875-1.875 0-1.0356-.8394-1.875-1.875-1.875-1.0355 0-1.8749.8394-1.8749 1.875 0 1.0355.8394 1.875 1.8749 1.875Zm.0001-7.2c-.2472.0033-.4925-.0429-.7215-.1359-.229-.093-.437-.231-.6118-.4058-.1748-.1748-.3128-.3828-.4058-.6118-.0931-.229-.1393-.4744-.1359-.7215v-10.5c0-.4973.1975-.9742.5492-1.3259.3516-.3516.8285-.5491 1.3258-.5491.4973 0 .9742.1975 1.3258.5491.3517.3517.5492.8286.5492 1.3259v10.5c0 .4972-.1975.9742-.5492 1.3258-.3516.3516-.8285.5492-1.3258.5492Z"/>
  <path d="M39.6 54.575H20.8c-.4971-.0004-.9737-.1983-1.325-.55l-13.3-13.3c-.35173-.3513-.54956-.8279-.55-1.325V20.6c.00044-.4971.19827-.9737.55-1.325l13.3-13.30001c.3513-.35173.8279-.54956 1.325-.55h18.8c.4971.00044.9737.19827 1.325.55l13.3 13.30001c.3517.3513.5496.8279.55 1.325v18.8c-.0004.4971-.1983.9737-.55 1.325l-13.3 13.3c-.3513.3517-.8279.5496-1.325.55Zm-18.025-3.75h17.25l12.2-12.2v-17.25l-12.2-12.20001h-17.25L9.375 21.375v17.25l12.2 12.2Z"/>
</svg>
