<svg xmlns="http://www.w3.org/2000/svg" viewBox="0 0 61 60" fill="currentColor">
  <path d="M30.4001 56.775c-5.2956 0-10.4722-1.5703-14.8754-4.5124-4.4031-2.9421-7.8349-7.1238-9.86144-12.0163-2.02654-4.8925-2.55677-10.276-1.52365-15.4699 1.03312-5.1938 3.58319-9.9646 7.32769-13.7092 3.7446-3.74455 8.5154-6.29462 13.7093-7.32774 5.1938-1.03312 10.5774-.50288 15.4699 1.52365 4.8925 2.02654 9.0742 5.45839 12.0162 9.86149 2.9421 4.4031 4.5124 9.5798 4.5124 14.8754-.0132 7.0971-2.8384 13.8998-7.8568 18.9182-5.0184 5.0184-11.8211 7.8436-18.9182 7.8568Zm0-49.80001c-4.5539 0-9.0055 1.35039-12.792 3.88041-3.7864 2.53-6.7376 6.126-8.48029 10.3333-1.74271 4.2073-2.19868 8.8368-1.31026 13.3032.88843 4.4665 3.08135 8.5691 6.30145 11.7892 3.2201 3.2201 7.3228 5.413 11.7892 6.3015 4.4664.8884 9.0959.4324 13.3032-1.3103 4.2073-1.7427 7.8033-4.6939 10.3333-8.4803 2.53-3.7864 3.8804-8.2381 3.8804-12.792-.0066-6.1046-2.4346-11.9572-6.7511-16.2738-4.3166-4.31663-10.1693-6.74459-16.2739-6.75121Z"/>
  <path d="M30.4 41.925c-2.3586 0-4.6641-.6994-6.6252-2.0097s-3.4895-3.1728-4.3921-5.3518c-.9026-2.179-1.1387-4.5767-.6786-6.8899.4601-2.3133 1.5959-4.4381 3.2636-6.1058 1.6678-1.6678 3.7926-2.8035 6.1058-3.2636 2.3133-.4602 4.711-.224 6.89.6786 2.179.9025 4.0414 2.431 5.3518 4.392C41.6256 25.3359 42.325 27.6415 42.325 30c-.0066 3.1607-1.2651 6.19-3.5001 8.425-2.2349 2.2349-5.2642 3.4934-8.4249 3.5Zm0-20c-1.6211.0001-3.2056.4822-4.552 1.385-1.3465.9028-2.3941 2.1855-3.0098 3.6851-.6157 1.4996-.7717 3.1485-.4481 4.7369.3237 1.5885 1.1123 3.0449 2.2656 4.1841 1.1533 1.1392 2.6193 1.9098 4.2116 2.2138 1.5923.3041 3.2391.1279 4.731-.5062 1.492-.6342 2.7617-1.6975 3.6478-3.055.8862-1.3574 1.3487-2.9477 1.3289-4.5687-.0066-2.1661-.87-4.2416-2.4017-5.7733-1.5317-1.5317-3.6072-2.3951-5.7733-2.4017v.1Z"/>
  <path d="M30.4 21.825c-.4868-.006-.9528-.1987-1.3017-.5383-.3489-.3396-.5541-.8002-.5733-1.2867V5c0-.49728.1976-.97419.5492-1.32583.3516-.35163.8285-.54917 1.3258-.54917.4973 0 .9742.19754 1.3258.54917.3517.35164.5492.82855.5492 1.32583v15c-.0192.4865-.2244.9471-.5733 1.2867-.3489.3396-.8148.5323-1.3017.5383Zm0 34.95c-.4952-.0065-.9684-.2061-1.3186-.5563-.3503-.3503-.5499-.8234-.5564-1.3187V40c0-.4973.1976-.9742.5492-1.3258.3516-.3517.8285-.5492 1.3258-.5492.4973 0 .9742.1975 1.3258.5492.3517.3516.5492.8285.5492 1.3258v15c-.0314.4776-.242.9258-.5897 1.2549-.3476.3291-.8066.5148-1.2853.5201Zm-10-24.9H5.40002c-.49728 0-.97419-.1975-1.32582-.5492-.35163-.3516-.54918-.8285-.54918-1.3258 0-.4973.19755-.9742.54918-1.3258.35163-.3517.82854-.5492 1.32582-.5492H20.4c.4973 0 .9742.1975 1.3258.5492.3517.3516.5492.8285.5492 1.3258 0 .4973-.1975.9742-.5492 1.3258-.3516.3517-.8285.5492-1.3258.5492Zm35 0h-15c-.4973 0-.9742-.1975-1.3258-.5492-.3516-.3516-.5492-.8285-.5492-1.3258 0-.4973.1976-.9742.5492-1.3258.3516-.3517.8285-.5492 1.3258-.5492h15c.4973 0 .9742.1975 1.3259.5492.3516.3516.5491.8285.5491 1.3258 0 .4973-.1975.9742-.5491 1.3258-.3517.3517-.8286.5492-1.3259.5492Z"/>
</svg>
