<svg xmlns="http://www.w3.org/2000/svg" viewBox="0 0 60 60" fill="currentColor">
  <path d="M42.2755 47.5h-24.525c-2.4864 0-4.871-.9878-6.6291-2.7459-1.75819-1.7582-2.74591-4.1427-2.74591-6.6291V13.6c0-2.4864.98772-4.871 2.74591-6.62915 1.7581-1.75815 4.1427-2.74587 6.6291-2.74587h24.525c2.4864 0 4.871.98772 6.6291 2.74587C50.6628 8.729 51.6505 11.1136 51.6505 13.6v24.525c0 2.4864-.9877 4.8709-2.7459 6.6291-1.7581 1.7581-4.1427 2.7459-6.6291 2.7459ZM17.7505 7.97497c-1.4919 0-2.9226.59264-3.9775 1.64753-1.0549 1.0549-1.6475 2.4856-1.6475 3.9775v24.525c0 1.4918.5926 2.9226 1.6475 3.9774 1.0549 1.0549 2.4856 1.6476 3.9775 1.6476h24.525c1.4918 0 2.9226-.5927 3.9775-1.6476 1.0549-1.0548 1.6475-2.4856 1.6475-3.9774V13.6c0-1.4919-.5926-2.9226-1.6475-3.9775-1.0549-1.05489-2.4857-1.64753-3.9775-1.64753h-24.525Z"/>
  <path d="M42.25 55.775H17.725c-2.4844-.0066-4.8651-.9964-6.6219-2.7532-1.75669-1.7567-2.74653-4.1374-2.75312-6.6218V21.875c0-.4973.19754-.9742.54917-1.3258C9.25078 20.1975 9.72769 20 10.225 20c.4973 0 .9742.1975 1.3258.5492.3516.3516.5492.8285.5492 1.3258V46.4c0 1.4918.5926 2.9226 1.6475 3.9775s2.4856 1.6475 3.9775 1.6475H42.25c1.4918 0 2.9226-.5926 3.9774-1.6475 1.0549-1.0549 1.6476-2.4857 1.6476-3.9775V21.875c0-.4973.1975-.9742.5491-1.3258.3517-.3517.8286-.5492 1.3259-.5492.4972 0 .9742.1975 1.3258.5492.3516.3516.5492.8285.5492 1.3258V46.4c0 2.4864-.9878 4.871-2.7459 6.6291-1.7582 1.7582-4.1427 2.7459-6.6291 2.7459Z"/>
  <path d="M36.7499 33.5749h-15c-.3434-.013-.6765-.1202-.9631-.3098-.2866-.1896-.5155-.4543-.6619-.7652-.1491-.3378-.1907-.7132-.1191-1.0755.0716-.3622.2528-.6937.5191-.9495l5.55-5.5499c.1724-.1769.3784-.3175.606-.4135.2275-.096.472-.1455.719-.1455s.4915.0495.719.1455c.2276.096.4336.2366.606.4135.3511.3515.5484.8281.5484 1.3249 0 .4969-.1973.9735-.5484 1.325l-2.35 2.35h8.625V16.325c0-.4973.1975-.9742.5492-1.3259.3516-.3516.8285-.5491 1.3258-.5491.4973 0 .9742.1975 1.3258.5491.3517.3517.5492.8286.5492 1.3259v15.3749c-.003.2561-.0577.5089-.1609.7432-.1032.2344-.2527.4455-.4395.6206-.1868.1751-.4071.3107-.6476.3986-.2405.0878-.4963.1261-.752.1126Z"/>
  <path d="M27.4999 39.125c-.496-.0058-.9707-.2028-1.325-.55l-5.65-5.55c-.3511-.3516-.5483-.8282-.5483-1.325 0-.4969.1972-.9735.5483-1.325.1724-.1769.3784-.3175.606-.4135.2275-.096.472-.1455.719-.1455s.4915.0495.719.1455c.2276.096.4337.2366.606.4135l5.55 5.55c.3511.3515.5484.8281.5484 1.325 0 .4968-.1973.9734-.5484 1.325-.3315.3207-.7649.5153-1.225.55Z"/>
</svg>
