<svg xmlns="http://www.w3.org/2000/svg" viewBox="0 0 61 60" fill="currentColor">
  <path d="M30.4002 36.5c-.3359-.0025-.6647-.0976-.95-.275L4.70022 21.475c-.28023-.1627-.51282-.3961-.67451-.6769-.16168-.2808-.24678-.5991-.24678-.9231 0-.324.0851-.6424.24678-.9231.16169-.2808.39428-.5142.67451-.6769L29.4502 3.525c.2831-.18298.613-.28031.95-.28031.3371 0 .667.09733.95.28031l24.75 14.75c.2803.1627.5128.3961.6745.6769.1617.2807.2468.5991.2468.9231 0 .324-.0851.6423-.2468.9231-.1617.2808-.3942.5142-.6745.6769l-24.75 14.75c-.2853.1774-.614.2725-.95.275ZM9.32522 20 30.4002 32.5 51.4752 20 30.4002 7.3 9.32522 20Z"/>
  <path d="M30.4001 46.75c-.345.0065-.6843-.0892-.975-.275l-25.00003-15c-.40438-.2678-.68923-.682-.79473-1.1554-.10549-.4734-.02342-.9693.22898-1.3835.2524-.4142.65548-.7144 1.12459-.8377.46911-.1233.96774-.06 1.39116.1766L30.4001 42.7l24.025-14.425c.4234-.2366.922-.2999 1.3911-.1766.4691.1233.8722.4235 1.1246.8377.2524.4142.3345.9101.229 1.3835-.1055.4734-.3904.8876-.7947 1.1554l-25 15c-.2908.1858-.63.2815-.975.275Z"/>
  <path d="M30.4001 56.75c-.345.0065-.6843-.0892-.975-.275l-25.00003-15c-.40438-.2678-.68923-.682-.79473-1.1554-.10549-.4734-.02342-.9693.22898-1.3835.2524-.4142.65548-.7145 1.12459-.8377.46911-.1233.96774-.06 1.39116.1766L30.4001 52.7l24.025-14.425c.2102-.1393.4464-.2347.6944-.2805.2479-.0459.5026-.0413.7488.0136.2461.0548.4787.1588.6837.3056.205.1468.3784.3335.5096.5488.1312.2153.2177.455.2541.7045.0365.2495.0223.5038-.0418.7477-.0641.2439-.1767.4724-.3312.6718-.1544.1993-.3475.3655-.5676.4885l-25 15c-.2908.1858-.63.2815-.975.275Z"/>
</svg>
