<svg xmlns="http://www.w3.org/2000/svg" viewBox="0 0 61 60" fill="currentColor">
  <path d="M47.8501 56.425h-34.1c-2.4864 0-4.87095-.9877-6.6291-2.7459-1.75816-1.7581-2.74588-4.1427-2.74588-6.6291v-34.1c0-2.4864.98772-4.87096 2.74588-6.62911 1.75815-1.75816 4.1427-2.74588 6.6291-2.74588h34.1c2.4864 0 4.871.98772 6.6291 2.74588 1.7582 1.75815 2.7459 4.14271 2.7459 6.62911v34.1c0 2.4864-.9877 4.871-2.7459 6.6291-1.7581 1.7582-4.1427 2.7459-6.6291 2.7459Zm-34.1-49.09999c-1.4918 0-2.9226.59263-3.97745 1.64753C8.71775 10.0274 8.12512 11.4582 8.12512 12.95v34.1c0 1.4919.59263 2.9226 1.64753 3.9775 1.05485 1.0549 2.48565 1.6475 3.97745 1.6475h34.1c1.4919 0 2.9226-.5926 3.9775-1.6475s1.6475-2.4856 1.6475-3.9775v-34.1c0-1.4918-.5926-2.9226-1.6475-3.97746-1.0549-1.0549-2.4856-1.64753-3.9775-1.64753h-34.1Z"/>
  <path d="M55.3501 22.175H6.25012c-.49728 0-.97419-.1976-1.32582-.5492s-.54918-.8285-.54918-1.3258c0-.4973.19755-.9742.54918-1.3258.35163-.3517.82854-.5492 1.32582-.5492H55.3501c.4973 0 .9742.1975 1.3258.5492.3517.3516.5492.8285.5492 1.3258 0 .4973-.1975.9742-.5492 1.3258-.3516.3516-.8285.5492-1.3258.5492Z"/>
  <path d="M20.3751 56.425c-.4952-.0065-.9684-.2061-1.3186-.5563-.3503-.3503-.5499-.8234-.5564-1.3187V20.3c0-.4973.1976-.9742.5492-1.3258.3516-.3517.8285-.5492 1.3258-.5492.4973 0 .9742.1975 1.3258.5492.3517.3516.5492.8285.5492 1.3258v34.25c0 .4973-.1975.9742-.5492 1.3258-.3516.3516-.8285.5492-1.3258.5492Zm20.85 0c-.4973 0-.9742-.1976-1.3258-.5492-.3517-.3516-.5492-.8285-.5492-1.3258V20.3c0-.4973.1975-.9742.5492-1.3258.3516-.3517.8285-.5492 1.3258-.5492.4973 0 .9742.1975 1.3258.5492.3517.3516.5492.8285.5492 1.3258v34.25c-.0065.4953-.2061.9684-.5563 1.3187-.3503.3502-.8234.5498-1.3187.5563Z"/>
</svg>
