<svg xmlns="http://www.w3.org/2000/svg" viewBox="0 0 61 60" fill="currentColor">
  <path d="M47.1501 39.15c-.495-.0108-.9679-.2071-1.325-.55-.3511-.3516-.5484-.8282-.5484-1.325 0-.4969.1973-.9735.5484-1.325l6.025-5.95-5.875-5.95c-.3312-.3555-.5115-.8256-.503-1.3113.0086-.4858.2054-.9493.5489-1.2928.3436-.3435.807-.5403 1.2928-.5489.4857-.0085.9558.1718 1.3113.503l7.175 7.2c.3511.3515.5483.8281.5483 1.325 0 .4968-.1972.9734-.5483 1.325l-7.35 7.35c-.3481.3413-.8127.5378-1.3.55Zm-32.85 0c-.4972-.0005-.9737-.1983-1.325-.55l-7.17504-7.2c-.35113-.3516-.54835-.8281-.54835-1.325s.19722-.9735.54835-1.325l7.32504-7.35c.3514-.3547.8293-.5553 1.3286-.5577.4993-.0023.9791.1938 1.3339.5452.3547.3514.5553.8293.5576 1.3286.0024.4994-.1937.9792-.5451 1.3339L9.75006 30l5.87504 5.875c.3511.3515.5483.8281.5483 1.325s-.1972.9734-.5483 1.325c-.3452.3705-.8196.5942-1.325.625Zm16.4999 0c-1.8097 0-3.5787-.5367-5.0834-1.5421-1.5047-1.0054-2.6775-2.4344-3.3701-4.1064-.6925-1.6719-.8737-3.5117-.5207-5.2866.3531-1.7749 1.2246-3.4053 2.5042-4.6849 1.2797-1.2797 2.91-2.1512 4.685-2.5042 1.7749-.3531 3.6146-.1719 5.2866.5207 1.6719.6925 3.101 1.8653 4.1064 3.37C39.4134 26.4212 39.95 28.1903 39.95 30c0 2.4267-.964 4.7541-2.6799 6.47-1.716 1.716-4.0433 2.68-6.4701 2.68Zm0-14.55c-1.068 0-2.112.3167-3 .91-.8881.5934-1.5802 1.4368-1.9889 2.4235-.4087.9867-.5157 2.0725-.3073 3.12.2083 1.0475.7226 2.0097 1.4779 2.7649.7552.7552 1.7173 1.2695 2.7648 1.4778 1.0475.2084 2.1333.1014 3.12-.3073.9867-.4087 1.8301-1.1008 2.4235-1.9888.5933-.8881.91-1.9321.91-3.0001 0-1.4322-.5689-2.8057-1.5816-3.8184C33.6057 25.1689 32.2322 24.6 30.8 24.6Z"/>
</svg>
