<svg width="24" height="24" viewBox="0 0 24 24" fill="none" xmlns="http://www.w3.org/2000/svg">
<path fill-rule="evenodd" clip-rule="evenodd" d="M16.7513 4.0293C16.4739 4.0293 16.2614 4.13646 16.0884 4.31395C15.7844 4.62578 15.7844 5.26052 16.0884 5.57235L18.0876 7.62309L19.7898 5.87697L19.9488 5.7139C20.1899 5.37448 20.2652 5.14548 20.2652 4.99392C20.2652 4.78383 20.2436 4.65809 20.2135 4.57593C20.1892 4.50936 20.1523 4.45011 20.0673 4.38469L20.0251 4.35221L19.9878 4.31395C19.6838 4.00211 19.065 4.00211 18.761 4.31395L17.8347 5.26413L17.3574 4.28499C17.0785 4.09192 16.8843 4.0293 16.7513 4.0293ZM18.0676 2.94207C17.6888 2.69883 17.2444 2.50623 16.7513 2.50623C16.0388 2.50623 15.4594 2.80522 15.0385 3.23697C14.1547 4.1436 14.1547 5.7427 15.0385 6.64933L17.076 8.73933C17.315 9.0582 17.6713 9.23315 18.0505 9.23315C18.4416 9.23315 18.7958 9.05051 19.0579 8.78164L21.0749 6.7126L21.1066 6.6693C21.4355 6.2194 21.75 5.64856 21.75 4.99392C21.75 4.39091 21.6292 3.7081 20.9998 3.19906C20.2216 2.43953 18.9558 2.35386 18.0676 2.94207ZM17.9878 7.72208C17.9878 7.72204 17.9883 7.7217 17.9894 7.72114L17.9878 7.72208Z" fill="black"/>
<path fill-rule="evenodd" clip-rule="evenodd" d="M6.09885 6.03196C7.54282 4.55513 9.62706 3.62311 11.901 3.62311C12.311 3.62311 12.6434 3.28216 12.6434 2.86158C12.6434 2.44099 12.311 2.10004 11.901 2.10004C9.22989 2.10004 6.7643 3.19538 5.04104 4.96309L5.03309 4.97124L5.02538 4.97964C3.32613 6.83168 2.25 9.24744 2.25 12C2.25 14.7401 3.31779 17.2693 5.04104 19.037L5.05038 19.0466C5.24745 19.2488 5.48875 19.4963 5.84708 19.7414C6.18823 19.9747 6.64915 19.8801 6.87659 19.5302C7.10402 19.1802 7.01183 18.7074 6.67068 18.4741C6.44079 18.3169 6.28809 18.1622 6.09094 17.96C4.64668 16.4785 3.73477 14.3369 3.73477 12C3.73477 9.67979 4.63516 7.631 6.09885 6.03196Z" fill="black"/>
<path fill-rule="evenodd" clip-rule="evenodd" d="M20.8096 11.2385C21.2197 11.2385 21.552 11.5795 21.552 12.0001C21.552 15.0756 20.1611 17.9417 17.8941 19.7135C17.5679 19.9684 17.1021 19.9038 16.8536 19.5693C16.6052 19.2347 16.6681 18.7569 16.9942 18.502C18.8846 17.0246 20.0673 14.6107 20.0673 12.0001C20.0673 11.5795 20.3996 11.2385 20.8096 11.2385Z" fill="black"/>
<path d="M11.901 15.0462C13.541 15.0462 14.8706 13.6824 14.8706 12C14.8706 10.3177 13.541 8.95386 11.901 8.95386C10.261 8.95386 8.93147 10.3177 8.93147 12C8.93147 13.6824 10.261 15.0462 11.901 15.0462Z" fill="black"/>
<path fill-rule="evenodd" clip-rule="evenodd" d="M11.901 9.7154C10.671 9.7154 9.67386 10.7383 9.67386 12C9.67386 13.2618 10.671 14.2846 11.901 14.2846C13.131 14.2846 14.1282 13.2618 14.1282 12C14.1282 10.7383 13.131 9.7154 11.901 9.7154ZM8.18909 12C8.18909 9.89708 9.85097 8.19232 11.901 8.19232C13.9511 8.19232 15.6129 9.89708 15.6129 12C15.6129 14.1029 13.9511 15.8077 11.901 15.8077C9.85097 15.8077 8.18909 14.1029 8.18909 12Z" fill="black"/>
<path d="M17.4441 19.1077C15.9594 20.4277 13.9797 21.1385 11.901 21.1385C9.72333 21.1385 7.84262 20.3262 6.25887 19.1077C7.05074 16.7724 9.22841 15.0462 11.901 15.0462C14.4746 15.0462 16.6523 16.6708 17.4441 19.1077Z" fill="black"/>
<path fill-rule="evenodd" clip-rule="evenodd" d="M7.16839 18.8365C8.54417 19.7827 10.1188 20.377 11.901 20.377C13.6321 20.377 15.2698 19.8423 16.556 18.863C15.7512 17.0116 13.9806 15.8077 11.901 15.8077C9.75804 15.8077 7.98671 17.0676 7.16839 18.8365ZM5.55769 18.8576C6.45058 16.2243 8.90396 14.2847 11.901 14.2847C14.7919 14.2847 17.2548 16.1168 18.1484 18.8669L18.3054 19.3498L17.9304 19.6832C16.2984 21.1341 14.1414 21.9001 11.901 21.9001C9.53164 21.9001 7.49841 21.0133 5.81344 19.717L5.37949 19.3831L5.55769 18.8576Z" fill="black"/>
</svg>
