<svg width="24" height="24" viewBox="0 0 24 24" fill="none" xmlns="http://www.w3.org/2000/svg">
<path fill-rule="evenodd" clip-rule="evenodd" d="M2.25 9C2.25 5.28579 5.28579 2.25 9 2.25H15C15.4142 2.25 15.75 2.58579 15.75 3C15.75 3.41421 15.4142 3.75 15 3.75H9C6.11421 3.75 3.75 6.11421 3.75 9V15C3.75 16.5208 4.40664 17.8968 5.45022 18.8582C6.0899 16.976 7.54275 15.4461 9.4134 14.7153C8.69659 14.0323 8.24988 13.0683 8.24988 12C8.24988 9.92893 9.92881 8.25 11.9999 8.25C14.0709 8.25 15.7499 9.92893 15.7499 12C15.7499 13.098 15.278 14.0858 14.5259 14.7716C16.374 15.5415 17.7951 17.0981 18.3946 18.9957C19.5279 18.0305 20.25 16.5949 20.25 15V11C20.25 10.5858 20.5858 10.25 21 10.25C21.4142 10.25 21.75 10.5858 21.75 11V15C21.75 18.7142 18.7142 21.75 15 21.75H9C5.28579 21.75 2.25 18.7142 2.25 15V9ZM17.0676 19.8227C16.5249 17.5161 14.4435 15.75 11.8999 15.75C9.38655 15.75 7.32449 17.4743 6.7522 19.7407C7.43465 20.067 8.19714 20.25 9 20.25H15C15.7329 20.25 16.4322 20.0975 17.0676 19.8227ZM11.9999 9.75C10.7572 9.75 9.74988 10.7574 9.74988 12C9.74988 13.2426 10.7572 14.25 11.9999 14.25C13.2425 14.25 14.2499 13.2426 14.2499 12C14.2499 10.7574 13.2425 9.75 11.9999 9.75ZM18 3.25C18.4142 3.25 18.75 3.58579 18.75 4V6.25H21C21.4142 6.25 21.75 6.58579 21.75 7C21.75 7.41421 21.4142 7.75 21 7.75H18.75V10C18.75 10.4142 18.4142 10.75 18 10.75C17.5858 10.75 17.25 10.4142 17.25 10V7.75H15C14.5858 7.75 14.25 7.41421 14.25 7C14.25 6.58579 14.5858 6.25 15 6.25H17.25V4C17.25 3.58579 17.5858 3.25 18 3.25Z" fill="black"/>
</svg>
