<svg width="24" height="24" viewBox="0 0 24 24" fill="none" xmlns="http://www.w3.org/2000/svg">
<path fill-rule="evenodd" clip-rule="evenodd" d="M2.03745 9C2.03745 5.28579 5.07324 2.25 8.78745 2.25H10.7874C11.2017 2.25 11.5374 2.58579 11.5374 3C11.5374 3.41421 11.2017 3.75 10.7874 3.75H8.78745C5.90166 3.75 3.53745 6.11421 3.53745 9V15C3.53745 16.5209 4.19413 17.8969 5.23775 18.8583C5.87742 16.976 7.33029 15.4461 9.20097 14.7153C8.48416 14.0322 8.03745 13.0683 8.03745 12C8.03745 9.92893 9.71638 8.25 11.7874 8.25C13.8585 8.25 15.5374 9.92893 15.5374 12C15.5374 13.0923 15.0705 14.0755 14.3252 14.7609C16.1715 15.5144 17.5937 17.0469 18.1889 18.9898C19.3182 18.0247 20.0374 16.5917 20.0374 15V12C20.0374 11.5858 20.3732 11.25 20.7874 11.25C21.2017 11.25 21.5374 11.5858 21.5374 12V15C21.5374 18.7142 18.5017 21.75 14.7874 21.75H8.78745C5.07324 21.75 2.03745 18.7142 2.03745 15V9ZM16.8586 19.8212C16.3229 17.4449 14.2468 15.75 11.6875 15.75C9.1741 15.75 7.11202 17.4744 6.53976 19.7407C7.22217 20.067 7.98463 20.25 8.78745 20.25H14.7874C15.5217 20.25 16.2222 20.0969 16.8586 19.8212ZM11.7874 9.75C10.5448 9.75 9.53745 10.7574 9.53745 12C9.53745 13.2426 10.5448 14.25 11.7874 14.25C13.0301 14.25 14.0374 13.2426 14.0374 12C14.0374 10.7574 13.0301 9.75 11.7874 9.75ZM19.0572 3.46967C19.3501 3.17678 19.825 3.17678 20.1179 3.46967L21.5179 4.86966C21.7884 5.14018 21.9626 5.49931 21.9626 5.89999C21.9626 6.30068 21.7884 6.65981 21.5179 6.93032L20.1179 8.33032C19.825 8.62322 19.3501 8.62322 19.0572 8.33033C18.7643 8.03743 18.7643 7.56256 19.0572 7.26967L20.4269 5.89999L19.0572 4.53033C18.7643 4.23744 18.7643 3.76256 19.0572 3.46967ZM16.4179 4.63033C16.7108 4.33744 16.7108 3.86257 16.4179 3.56967C16.125 3.27678 15.6501 3.27678 15.3572 3.56968L13.9572 4.96968C13.6867 5.2402 13.5125 5.59932 13.5125 6.00001C13.5125 6.40069 13.6867 6.75982 13.9572 7.03034L15.3572 8.43033C15.6501 8.72322 16.125 8.72322 16.4179 8.43033C16.7108 8.13744 16.7108 7.66256 16.4179 7.36967L15.0482 6.00001L16.4179 4.63033Z" fill="black"/>
</svg>
