<svg width="24" height="24" viewBox="0 0 24 24" fill="none" xmlns="http://www.w3.org/2000/svg">
<path fill-rule="evenodd" clip-rule="evenodd" d="M21 10.25C21.4142 10.25 21.75 10.5858 21.75 11V15C21.75 17.4728 20.4006 19.7314 18.2493 20.8637C17.8828 21.0566 17.4292 20.9159 17.2363 20.5493C17.0434 20.1828 17.1841 19.7292 17.5507 19.5363C19.1993 18.6686 20.25 16.9272 20.25 15V11C20.25 10.5858 20.5858 10.25 21 10.25Z" fill="black"/>
<path fill-rule="evenodd" clip-rule="evenodd" d="M9 3.75C6.11421 3.75 3.75 6.11421 3.75 9V15C3.75 16.932 4.80615 18.6788 6.36423 19.5444C6.72632 19.7455 6.85678 20.2021 6.65562 20.5642C6.45446 20.9263 5.99786 21.0568 5.63577 20.8556C3.59385 19.7212 2.25 17.468 2.25 15V9C2.25 5.28579 5.28579 2.25 9 2.25H15C15.4142 2.25 15.75 2.58579 15.75 3C15.75 3.41421 15.4142 3.75 15 3.75H9Z" fill="black"/>
<path d="M12 15C13.6569 15 15 13.6569 15 12C15 10.3431 13.6569 9 12 9C10.3431 9 9 10.3431 9 12C9 13.6569 10.3431 15 12 15Z" fill="black"/>
<path fill-rule="evenodd" clip-rule="evenodd" d="M12 9.75C10.7574 9.75 9.75 10.7574 9.75 12C9.75 13.2426 10.7574 14.25 12 14.25C13.2426 14.25 14.25 13.2426 14.25 12C14.25 10.7574 13.2426 9.75 12 9.75ZM8.25 12C8.25 9.92893 9.92893 8.25 12 8.25C14.0711 8.25 15.75 9.92893 15.75 12C15.75 14.0711 14.0711 15.75 12 15.75C9.92893 15.75 8.25 14.0711 8.25 12Z" fill="black"/>
<path d="M17.9 20.1999C17 20.6999 16 20.9999 15 20.9999H8.99998C7.89998 20.9999 6.89998 20.6999 6.09998 20.1999C6.49998 17.1999 8.99998 14.9999 12 14.9999C15 14.9999 17.5 17.1999 17.9 20.1999Z" fill="black"/>
<path fill-rule="evenodd" clip-rule="evenodd" d="M6.93328 19.8016C7.52954 20.0832 8.23226 20.2499 9.00001 20.2499H15C15.6876 20.2499 16.391 20.0827 17.0622 19.7818C16.5119 17.42 14.4451 15.7499 12 15.7499C9.54812 15.7499 7.47661 17.4294 6.93328 19.8016ZM5.35659 20.1008C5.80573 16.7323 8.62004 14.2499 12 14.2499C15.38 14.2499 18.1943 16.7323 18.6434 20.1008L18.711 20.6074L18.2642 20.8556C17.2729 21.4063 16.1486 21.7499 15 21.7499H9.00001C7.76405 21.7499 6.62556 21.4128 5.70251 20.8359L5.29272 20.5798L5.35659 20.1008Z" fill="black"/>
<path fill-rule="evenodd" clip-rule="evenodd" d="M18 3.25C18.4142 3.25 18.75 3.58579 18.75 4V10C18.75 10.4142 18.4142 10.75 18 10.75C17.5858 10.75 17.25 10.4142 17.25 10V4C17.25 3.58579 17.5858 3.25 18 3.25Z" fill="black"/>
<path fill-rule="evenodd" clip-rule="evenodd" d="M14.25 7C14.25 6.58579 14.5858 6.25 15 6.25H21C21.4142 6.25 21.75 6.58579 21.75 7C21.75 7.41421 21.4142 7.75 21 7.75H15C14.5858 7.75 14.25 7.41421 14.25 7Z" fill="black"/>
</svg>
