<svg width="24" height="24" viewBox="0 0 24 24" fill="none" xmlns="http://www.w3.org/2000/svg">
<path fill-rule="evenodd" clip-rule="evenodd" d="M5.65296 6.12235C7.11723 4.6679 9.23078 3.75 11.5367 3.75C11.9525 3.75 12.2895 3.41421 12.2895 3C12.2895 2.58579 11.9525 2.25 11.5367 2.25C8.82802 2.25 6.32776 3.32874 4.58028 5.06967L4.57222 5.0777L4.5644 5.08598C2.84126 6.90995 1.75 9.28911 1.75 12C1.75 14.6985 2.8328 17.1894 4.58028 18.9303L4.58975 18.9398C4.78959 19.1389 5.03428 19.3827 5.39765 19.624C5.7436 19.8538 6.211 19.7607 6.44163 19.416C6.67226 19.0714 6.57878 18.6057 6.23284 18.376C5.99971 18.2211 5.84486 18.0688 5.64494 17.8697C4.18037 16.4106 3.25565 14.3015 3.25565 12C3.25565 9.71491 4.16869 7.69716 5.65296 6.12235Z" fill="black"/>
<path fill-rule="evenodd" clip-rule="evenodd" d="M20.5706 11.25C20.9864 11.25 21.3234 11.5858 21.3234 12C21.3234 15.0289 19.9129 17.8516 17.614 19.5966C17.2833 19.8476 16.8109 19.784 16.559 19.4545C16.307 19.1251 16.3708 18.6545 16.7015 18.4034C18.6185 16.9484 19.8178 14.5711 19.8178 12C19.8178 11.5858 20.1548 11.25 20.5706 11.25Z" fill="black"/>
<path d="M11.5367 15C13.1998 15 14.548 13.6569 14.548 12C14.548 10.3431 13.1998 9 11.5367 9C9.87364 9 8.52544 10.3431 8.52544 12C8.52544 13.6569 9.87364 15 11.5367 15Z" fill="black"/>
<path fill-rule="evenodd" clip-rule="evenodd" d="M11.5367 9.75C10.2894 9.75 9.27823 10.7574 9.27823 12C9.27823 13.2426 10.2894 14.25 11.5367 14.25C12.784 14.25 13.7952 13.2426 13.7952 12C13.7952 10.7574 12.784 9.75 11.5367 9.75ZM7.77258 12C7.77258 9.92893 9.45783 8.25 11.5367 8.25C13.6156 8.25 15.3008 9.92893 15.3008 12C15.3008 14.0711 13.6156 15.75 11.5367 15.75C9.45783 15.75 7.77258 14.0711 7.77258 12Z" fill="black"/>
<path d="M17.1578 18.9999C15.6521 20.2999 13.6446 20.9999 11.4363 20.9999C9.22802 20.9999 7.32087 20.1999 5.71484 18.9999C6.51785 16.6999 8.72614 14.9999 11.4363 14.9999C14.1465 14.9999 16.3547 16.5999 17.1578 18.9999Z" fill="black"/>
<path fill-rule="evenodd" clip-rule="evenodd" d="M6.63718 18.7328C8.03232 19.6647 9.62906 20.2499 11.4363 20.2499C13.2862 20.2499 14.9545 19.7214 16.2571 18.7589C15.4425 16.9409 13.6441 15.7499 11.4363 15.7499C9.26325 15.7499 7.46701 16.9907 6.63718 18.7328ZM5.00384 18.7535C5.90928 16.1602 8.39716 14.2499 11.4363 14.2499C14.4607 14.2499 16.9634 16.0474 17.872 18.7628L18.0311 19.2384L17.6508 19.5667C15.9927 20.9984 13.804 21.7499 11.4363 21.7499C9.03367 21.7499 6.97184 20.8766 5.26319 19.5999L4.82314 19.2711L5.00384 18.7535Z" fill="black"/>
<path fill-rule="evenodd" clip-rule="evenodd" d="M18.8524 3.45171C19.1563 3.16909 19.6327 3.18545 19.9164 3.48826L21.3141 4.98021C21.5797 5.24948 21.75 5.6045 21.75 6C21.75 6.40069 21.5752 6.75982 21.3037 7.03033L19.8984 8.43033C19.6044 8.72323 19.1277 8.72323 18.8337 8.43033C18.5397 8.13744 18.5397 7.66257 18.8337 7.36967L20.2093 5.99927L18.8157 4.51174C18.532 4.20893 18.5484 3.73434 18.8524 3.45171Z" fill="black"/>
<path fill-rule="evenodd" clip-rule="evenodd" d="M16.1845 3.56965C16.4785 3.86254 16.4785 4.33741 16.1845 4.63031L14.8096 5.99998L16.1845 7.36965C16.4785 7.66254 16.4785 8.13741 16.1845 8.43031C15.8905 8.7232 15.4138 8.7232 15.1198 8.43031L13.7145 7.03031C13.443 6.75979 13.2682 6.40066 13.2682 5.99998C13.2682 5.59929 13.443 5.24016 13.7145 4.96965L15.1198 3.56965C15.4138 3.27675 15.8905 3.27675 16.1845 3.56965Z" fill="black"/>
</svg>
