<svg width="24" height="24" viewBox="0 0 24 24" fill="none" xmlns="http://www.w3.org/2000/svg">
<path fill-rule="evenodd" clip-rule="evenodd" d="M20.8206 11.2692C21.2364 11.2692 21.5734 11.5964 21.5734 12V14.9231C21.5734 17.3325 20.219 19.5332 18.0595 20.6364C17.6916 20.8244 17.2364 20.6872 17.0427 20.3301C16.8491 19.9729 16.9904 19.531 17.3583 19.3431C19.0132 18.4976 20.0678 16.8008 20.0678 14.9231V12C20.0678 11.5964 20.4048 11.2692 20.8206 11.2692Z" fill="black"/>
<path fill-rule="evenodd" clip-rule="evenodd" d="M8.77541 3.96154C5.87876 3.96154 3.50565 6.26513 3.50565 9.07692V14.9231C3.50565 16.8056 4.56577 18.5075 6.12972 19.3509C6.49317 19.5469 6.62412 19.9918 6.4222 20.3446C6.22028 20.6974 5.76196 20.8246 5.39851 20.6286C3.34891 19.5232 2 17.3278 2 14.9231V9.07692C2 5.45795 5.04721 2.5 8.77541 2.5H10.7829C11.1987 2.5 11.5358 2.82718 11.5358 3.23077C11.5358 3.63436 11.1987 3.96154 10.7829 3.96154H8.77541Z" fill="black"/>
<path d="M11.7866 14.9231C13.4497 14.9231 14.7979 13.6144 14.7979 12C14.7979 10.3856 13.4497 9.0769 11.7866 9.0769C10.1235 9.0769 8.77533 10.3856 8.77533 12C8.77533 13.6144 10.1235 14.9231 11.7866 14.9231Z" fill="black"/>
<path fill-rule="evenodd" clip-rule="evenodd" d="M11.7866 9.80767C10.5393 9.80767 9.52816 10.7892 9.52816 12C9.52816 13.2108 10.5393 14.1923 11.7866 14.1923C13.0339 14.1923 14.0451 13.2108 14.0451 12C14.0451 10.7892 13.0339 9.80767 11.7866 9.80767ZM8.02251 12C8.02251 9.98201 9.70776 8.34613 11.7866 8.34613C13.8655 8.34613 15.5507 9.98201 15.5507 12C15.5507 14.0179 13.8655 15.6538 11.7866 15.6538C9.70776 15.6538 8.02251 14.0179 8.02251 12Z" fill="black"/>
<path d="M17.7088 19.9897C16.8055 20.4769 15.8017 20.7692 14.7979 20.7692H8.77534C7.6712 20.7692 6.66744 20.4769 5.86443 19.9897C6.26593 17.0666 8.77534 14.923 11.7866 14.923C14.7979 14.923 17.3073 17.0666 17.7088 19.9897Z" fill="black"/>
<path fill-rule="evenodd" clip-rule="evenodd" d="M6.70088 19.6016C7.29939 19.8759 8.00475 20.0384 8.77539 20.0384H14.798C15.4881 20.0384 16.1942 19.8755 16.8679 19.5823C16.3155 17.2811 14.2409 15.6538 11.7867 15.6538C9.32556 15.6538 7.24625 17.2902 6.70088 19.6016ZM5.11826 19.8931C5.56909 16.6109 8.39399 14.1923 11.7867 14.1923C15.1794 14.1923 18.0043 16.6109 18.4551 19.8931L18.5229 20.3867L18.0745 20.6285C17.0794 21.1651 15.9509 21.5 14.798 21.5H8.77539C7.53478 21.5 6.392 21.1715 5.46548 20.6094L5.05415 20.3598L5.11826 19.8931Z" fill="black"/>
<path fill-rule="evenodd" clip-rule="evenodd" d="M19.1024 3.6709C19.4064 3.39553 19.8828 3.41147 20.1665 3.70652L21.5642 5.16021C21.8297 5.42258 22 5.76849 22 6.15386C22 6.54427 21.8252 6.89419 21.5537 7.15777L20.1484 8.52187C19.8544 8.80725 19.3778 8.80725 19.0838 8.52187C18.7898 8.23649 18.7898 7.77379 19.0838 7.4884L20.4593 6.15314L19.0657 4.70375C18.7821 4.40871 18.7985 3.94628 19.1024 3.6709Z" fill="black"/>
<path fill-rule="evenodd" clip-rule="evenodd" d="M16.4345 3.78581C16.7285 4.0712 16.7285 4.5339 16.4345 4.81928L15.0597 6.15383L16.4345 7.48838C16.7285 7.77376 16.7285 8.23646 16.4345 8.52184C16.1405 8.80722 15.6638 8.80722 15.3698 8.52184L13.9646 7.15774C13.693 6.89416 13.5182 6.54424 13.5182 6.15383C13.5182 5.76342 13.693 5.4135 13.9646 5.14992L15.3698 3.78581C15.6638 3.50043 16.1405 3.50043 16.4345 3.78581Z" fill="black"/>
</svg>
