<svg width="24" height="24" viewBox="0 0 24 24" fill="none" xmlns="http://www.w3.org/2000/svg">
<path fill-rule="evenodd" clip-rule="evenodd" d="M18.9697 4.23028C18.7626 4.02317 18.4374 4.02317 18.2303 4.23028L15.3303 7.13028C15.1232 7.33739 15.1232 7.66251 15.3303 7.86962L15.7303 8.26962C15.9374 8.47673 16.2626 8.47673 16.4697 8.26962L19.3697 5.36962C19.5768 5.16251 19.5768 4.83739 19.3697 4.63028L18.9697 4.23028ZM17.1697 3.16962C17.9626 2.37673 19.2374 2.37673 20.0303 3.16962L20.4303 3.56962C21.2232 4.36251 21.2232 5.63739 20.4303 6.43028L17.5303 9.33028C16.7374 10.1232 15.4626 10.1232 14.6697 9.33028L14.2697 8.93028C13.4768 8.13739 13.4768 6.86251 14.2697 6.06962L17.1697 3.16962Z" fill="black"/>
<path fill-rule="evenodd" clip-rule="evenodd" d="M12.9 9.6394L17.4053 14.1447C17.8545 14.5255 18.0134 15.0707 17.9724 15.5623C17.9312 16.0567 17.6884 16.5471 17.2743 16.8811C12.9787 20.4404 7.06807 21.1471 4.3554 21.348L4.32774 21.3501H4.3C3.73873 21.3501 3.28495 21.0128 3.08286 20.5797C2.87568 20.1358 2.9208 19.5352 3.39995 19.1395L12.9 9.6394ZM12.9 11.7607L4.85936 19.8014C7.70416 19.5416 12.6952 18.7297 16.3212 15.7227L16.3314 15.7143C16.4138 15.6484 16.469 15.5411 16.4776 15.4378C16.4855 15.3426 16.4542 15.3039 16.4315 15.2857L16.399 15.2598L12.9 11.7607Z" fill="black"/>
<path fill-rule="evenodd" clip-rule="evenodd" d="M15.5303 9.13024L13.4303 11.2302L12.3697 10.1696L14.4697 8.06958L15.5303 9.13024Z" fill="black"/>
</svg>
