<svg width="24" height="24" viewBox="0 0 24 24" fill="none" xmlns="http://www.w3.org/2000/svg">
<path fill-rule="evenodd" clip-rule="evenodd" d="M5.88628 5.4113C4.41866 6.77886 3.45255 8.9104 3.4999 11.9886L3.50008 12.0001H3.49999C3.49999 14.2497 4.65474 16.515 6.40681 18.1965C8.15834 19.8775 10.4074 20.881 12.4903 20.7524C13.7051 20.6343 14.5064 20.3596 15.0956 19.9783C15.6841 19.5974 16.1238 19.0698 16.552 18.335C16.8845 17.7644 17.1868 17.1129 17.5462 16.3384C17.6633 16.086 17.7865 15.8206 17.9187 15.5407C18.4473 14.4218 19.0943 13.1331 20.0191 11.6945C20.5635 10.8476 20.638 9.95912 20.3689 9.0586C20.0927 8.13431 19.447 7.18554 18.5338 6.3192C16.6938 4.57357 13.971 3.3501 11.75 3.3501C9.44161 3.3501 7.36584 4.03262 5.88628 5.4113ZM4.8637 4.31389C6.68414 2.61757 9.15837 1.8501 11.75 1.8501C14.429 1.8501 17.5062 3.27663 19.5662 5.231C20.603 6.21466 21.4323 7.37838 21.8061 8.62909C22.187 9.90357 22.0864 11.2526 21.2809 12.5057C20.4057 13.8671 19.7902 15.0909 19.275 16.1814C19.1568 16.4316 19.0423 16.6784 18.9301 16.9203C18.5624 17.7131 18.219 18.4535 17.848 19.0902C17.3511 19.9429 16.7659 20.684 15.9106 21.2376C15.058 21.7893 14.0003 22.1141 12.6218 22.2467L12.6098 22.2478L12.5978 22.2486C9.98406 22.4154 7.33831 21.1695 5.36817 19.2787C3.39664 17.3866 2.00196 14.7542 1.99999 12.0059C1.94864 8.58694 3.03234 6.02039 4.8637 4.31389Z" fill="black"/>
<path fill-rule="evenodd" clip-rule="evenodd" d="M11.55 10.1501C10.6939 10.1501 9.99998 10.8441 9.99998 11.7001C9.99998 12.5562 10.6939 13.2501 11.55 13.2501C12.406 13.2501 13.1 12.5562 13.1 11.7001C13.1 10.8441 12.406 10.1501 11.55 10.1501ZM8.49998 11.7001C8.49998 10.0157 9.86552 8.65015 11.55 8.65015C13.2345 8.65015 14.6 10.0157 14.6 11.7001C14.6 13.3846 13.2345 14.7501 11.55 14.7501C9.86552 14.7501 8.49998 13.3846 8.49998 11.7001Z" fill="black"/>
</svg>
