<svg width="24" height="24" viewBox="0 0 24 24" fill="none" xmlns="http://www.w3.org/2000/svg">
<path d="M18.8 8.44995C17.9 11.45 15.2 13.55 12 13.55C8.79998 13.55 5.99998 11.45 5.09998 8.44995H18.8Z" fill="black"/>
<path fill-rule="evenodd" clip-rule="evenodd" d="M4.09198 7.69995H19.808L19.5184 8.66546C18.5264 11.9721 15.5422 14.3 12 14.3C8.47021 14.3 5.37721 11.9841 4.38163 8.66546L4.09198 7.69995ZM6.19697 9.19995C7.25486 11.3572 9.48837 12.8 12 12.8C14.5021 12.8 16.6654 11.3649 17.7074 9.19995H6.19697Z" fill="black"/>
<path d="M5.09999 8.4501C4.89999 7.8501 4.79999 7.1501 4.79999 6.4501C4.79999 5.3501 5.09999 4.2501 5.49999 3.3501" fill="black"/>
<path fill-rule="evenodd" clip-rule="evenodd" d="M5.80459 2.66468C6.1831 2.83291 6.35357 3.27613 6.18535 3.65464C5.81715 4.48309 5.54999 5.4787 5.54999 6.45004C5.54999 7.084 5.64122 7.70204 5.8115 8.21287C5.94249 8.60583 5.73012 9.03057 5.33716 9.16155C4.9442 9.29254 4.51946 9.08017 4.38848 8.68721C4.15875 7.99804 4.04999 7.21608 4.04999 6.45004C4.04999 5.22139 4.38283 4.01699 4.81463 3.04544C4.98286 2.66692 5.42608 2.49645 5.80459 2.66468Z" fill="black"/>
<path d="M18.4 3.3501C18.9 4.3501 19.1 5.3501 19.1 6.4501C19.1 7.1501 19 7.8501 18.8 8.4501" fill="black"/>
<path fill-rule="evenodd" clip-rule="evenodd" d="M18.0646 2.6792C18.4351 2.49396 18.8856 2.64412 19.0708 3.01461C19.6299 4.13273 19.85 5.25029 19.85 6.45002C19.85 7.21606 19.7412 7.99802 19.5115 8.68719C19.3805 9.08015 18.9558 9.29252 18.5628 9.16153C18.1699 9.03054 17.9575 8.6058 18.0885 8.21285C18.2588 7.70202 18.35 7.08398 18.35 6.45002C18.35 5.44974 18.1701 4.5673 17.7292 3.68543C17.5439 3.31494 17.6941 2.86444 18.0646 2.6792Z" fill="black"/>
<path fill-rule="evenodd" clip-rule="evenodd" d="M4.84998 3.3501C4.84998 2.93588 5.18576 2.6001 5.59998 2.6001H18.4C18.8142 2.6001 19.15 2.93588 19.15 3.3501C19.15 3.76431 18.8142 4.1001 18.4 4.1001H5.59998C5.18576 4.1001 4.84998 3.76431 4.84998 3.3501Z" fill="black"/>
<path fill-rule="evenodd" clip-rule="evenodd" d="M12 12.8C12.4142 12.8 12.75 13.1358 12.75 13.55V20.65C12.75 21.0643 12.4142 21.4 12 21.4C11.5858 21.4 11.25 21.0643 11.25 20.65V13.55C11.25 13.1358 11.5858 12.8 12 12.8Z" fill="black"/>
<path fill-rule="evenodd" clip-rule="evenodd" d="M7.84998 20.6501C7.84998 20.2359 8.18576 19.9001 8.59998 19.9001H15.4C15.8142 19.9001 16.15 20.2359 16.15 20.6501C16.15 21.0644 15.8142 21.4001 15.4 21.4001H8.59998C8.18576 21.4001 7.84998 21.0644 7.84998 20.6501Z" fill="black"/>
</svg>
