<svg width="24" height="24" viewBox="0 0 24 24" fill="none" xmlns="http://www.w3.org/2000/svg">
<path d="M19.1 6.4501C19.1 10.3501 15.9 13.5501 12 13.5501C8.09999 13.5501 4.89999 10.3501 4.89999 6.4501C4.89999 5.3501 5.19999 4.2501 5.59999 3.3501H18.4C18.9 4.2501 19.1 5.3501 19.1 6.4501Z" fill="black"/>
<path fill-rule="evenodd" clip-rule="evenodd" d="M5.11259 2.6001H18.8413L19.0556 2.98587C19.6371 4.03247 19.85 5.27008 19.85 6.4501C19.85 10.7643 16.3142 14.3001 12 14.3001C7.68578 14.3001 4.14999 10.7643 4.14999 6.4501C4.14999 5.22144 4.48283 4.01705 4.91464 3.04549L5.11259 2.6001ZM6.10366 4.1001C5.83248 4.82796 5.64999 5.64732 5.64999 6.4501C5.64999 9.93588 8.51421 12.8001 12 12.8001C15.4858 12.8001 18.35 9.93588 18.35 6.4501C18.35 5.59694 18.2191 4.78407 17.9314 4.1001H6.10366Z" fill="black"/>
<path fill-rule="evenodd" clip-rule="evenodd" d="M12 12.8C12.4142 12.8 12.75 13.1358 12.75 13.55V20.65C12.75 21.0643 12.4142 21.4 12 21.4C11.5858 21.4 11.25 21.0643 11.25 20.65V13.55C11.25 13.1358 11.5858 12.8 12 12.8Z" fill="black"/>
<path fill-rule="evenodd" clip-rule="evenodd" d="M7.85001 20.6501C7.85001 20.2359 8.18579 19.9001 8.60001 19.9001H15.4C15.8142 19.9001 16.15 20.2359 16.15 20.6501C16.15 21.0644 15.8142 21.4001 15.4 21.4001H8.60001C8.18579 21.4001 7.85001 21.0644 7.85001 20.6501Z" fill="black"/>
</svg>
