<svg width="24" height="24" viewBox="0 0 24 24" fill="none" xmlns="http://www.w3.org/2000/svg">
<path fill-rule="evenodd" clip-rule="evenodd" d="M8.35713 9.0426C9.16855 7.26132 10.9534 6.1499 13 6.1499C14.2842 6.1499 15.4531 6.61719 16.3815 7.42469C17.5533 8.36906 18.25 9.87944 18.25 11.2999C18.25 13.5112 16.8067 15.3745 14.9197 16.1675C14.5515 19.3934 11.9035 21.9499 8.50001 21.9499C3.85433 21.9499 0.374075 17.0724 2.92864 12.1653C3.94024 10.0455 6.17273 9.05239 8.35713 9.0426ZM9.62951 9.88831C9.60553 9.99671 9.5581 10.1111 9.47484 10.2182C9.3459 10.384 9.18519 10.4621 9.07469 10.4989C8.9058 10.5552 8.72714 10.5506 8.70263 10.55C8.70128 10.5499 8.7004 10.5499 8.70001 10.5499H8.68217L8.66434 10.5491C6.7694 10.4588 5.01102 11.2731 4.27782 12.821L4.27151 12.8343L4.26468 12.8473C2.23203 16.7359 4.94976 20.4499 8.50001 20.4499C11.1809 20.4499 13.2694 18.3831 13.4507 15.7637C13.4534 15.6987 13.4632 15.6318 13.4821 15.5645C13.4997 15.5015 13.5233 15.4448 13.55 15.3945V15.0593L14.0628 14.8884C15.5919 14.3787 16.75 12.9414 16.75 11.2999C16.75 10.3256 16.2519 9.2419 15.4315 8.58555L15.4186 8.57522L15.4061 8.56433C14.7366 7.97845 13.9101 7.6499 13 7.6499C11.4223 7.6499 10.1338 8.54029 9.62951 9.88831ZM8.50001 14.1499C7.79086 14.1499 7.15001 14.7371 7.15001 15.4999C7.15001 16.3234 7.99384 17.0359 8.89397 16.7788C9.33861 16.6517 9.73889 16.2558 9.87339 15.8125C10.0443 15.0112 9.3356 14.1499 8.50001 14.1499ZM5.65001 15.4999C5.65001 13.8627 7.00917 12.6499 8.50001 12.6499C10.2579 12.6499 11.7447 14.3751 11.3308 16.1685L11.3265 16.1874L11.3212 16.2059C11.05 17.1551 10.2552 17.9499 9.30606 18.221C7.40619 18.7639 5.65001 17.2764 5.65001 15.4999Z" fill="black"/>
<path fill-rule="evenodd" clip-rule="evenodd" d="M8.50002 14.1499C7.79087 14.1499 7.15002 14.7371 7.15002 15.4999C7.15002 16.3234 7.99385 17.0359 8.89398 16.7788C9.29237 16.6649 9.63367 16.3021 9.77888 15.7939C10.0249 14.9328 9.36581 14.1499 8.50002 14.1499ZM5.65002 15.4999C5.65002 13.8627 7.00918 12.6499 8.50002 12.6499C10.2342 12.6499 11.7752 14.267 11.2212 16.2059C10.9664 17.0977 10.3077 17.9349 9.30607 18.221C7.4062 18.7639 5.65002 17.2764 5.65002 15.4999Z" fill="black"/>
<path fill-rule="evenodd" clip-rule="evenodd" d="M21.7303 2.26972C22.0232 2.56261 22.0232 3.03749 21.7303 3.33038L16.5303 8.53038C16.2374 8.82327 15.7626 8.82327 15.4697 8.53038C15.1768 8.23749 15.1768 7.76261 15.4697 7.46972L20.6697 2.26972C20.9626 1.97683 21.4374 1.97683 21.7303 2.26972Z" fill="black"/>
</svg>
