<svg width="24" height="24" viewBox="0 0 24 24" fill="none" xmlns="http://www.w3.org/2000/svg">
<path fill-rule="evenodd" clip-rule="evenodd" d="M5.09999 7.3999C4.5142 7.3999 4.04999 7.86412 4.04999 8.4499V17.9499C4.04999 18.5357 4.5142 18.9999 5.09999 18.9999H18.9C19.4858 18.9999 19.95 18.5357 19.95 17.9499V8.4499C19.95 7.86412 19.4858 7.3999 18.9 7.3999H17.3C16.8858 7.3999 16.55 7.06412 16.55 6.6499C16.55 6.23569 16.8858 5.8999 17.3 5.8999H18.9C20.3142 5.8999 21.45 7.03569 21.45 8.4499V17.9499C21.45 19.3641 20.3142 20.4999 18.9 20.4999H5.09999C3.68577 20.4999 2.54999 19.3641 2.54999 17.9499V8.4499C2.54999 7.03569 3.68577 5.8999 5.09999 5.8999H6.69999C7.1142 5.8999 7.44999 6.23569 7.44999 6.6499C7.44999 7.06412 7.1142 7.3999 6.69999 7.3999H5.09999Z" fill="black"/>
<path fill-rule="evenodd" clip-rule="evenodd" d="M9.84998 6.6499C9.84998 6.23569 10.1858 5.8999 10.6 5.8999H13.4C13.8142 5.8999 14.15 6.23569 14.15 6.6499C14.15 7.06412 13.8142 7.3999 13.4 7.3999H10.6C10.1858 7.3999 9.84998 7.06412 9.84998 6.6499Z" fill="black"/>
<path d="M10.6 5.5499V10.4499C10.6 11.2499 10 11.8499 9.20001 11.8499H8.10001C7.30001 11.7499 6.70001 11.1499 6.70001 10.4499V5.5499C6.70001 4.7499 7.30001 4.1499 8.10001 4.1499H9.30001C10 4.2499 10.6 4.8499 10.6 5.5499Z" fill="black"/>
<path fill-rule="evenodd" clip-rule="evenodd" d="M8.10001 4.8999C7.71423 4.8999 7.45001 5.16412 7.45001 5.5499V10.4499C7.45001 10.6852 7.67077 11.0231 8.15228 11.0999H9.20001C9.5858 11.0999 9.85001 10.8357 9.85001 10.4499V5.5499C9.85001 5.29171 9.60506 4.97346 9.23792 4.8999H8.10001ZM5.95001 5.5499C5.95001 4.33569 6.8858 3.3999 8.10001 3.3999H9.35331L9.40608 3.40744C10.4147 3.55152 11.35 4.41827 11.35 5.5499V10.4499C11.35 11.6641 10.4142 12.5999 9.20001 12.5999H8.05332L8.00699 12.5941C6.91681 12.4578 5.95001 11.6081 5.95001 10.4499V5.5499Z" fill="black"/>
<path d="M17.3 5.5499V10.4499C17.3 11.2499 16.7 11.8499 15.9 11.8499H14.7C13.9 11.8499 13.3 11.2499 13.3 10.4499V5.5499C13.3 4.7499 13.9 4.1499 14.7 4.1499H15.9C16.7 4.2499 17.3 4.8499 17.3 5.5499Z" fill="black"/>
<path fill-rule="evenodd" clip-rule="evenodd" d="M14.7 4.8999C14.3142 4.8999 14.05 5.16412 14.05 5.5499V10.4499C14.05 10.8357 14.3142 11.0999 14.7 11.0999H15.9C16.2858 11.0999 16.55 10.8357 16.55 10.4499V5.5499C16.55 5.31465 16.3292 4.97671 15.8477 4.8999H14.7ZM12.55 5.5499C12.55 4.33569 13.4858 3.3999 14.7 3.3999H15.9467L15.993 3.40569C17.0832 3.54197 18.05 4.39169 18.05 5.5499V10.4499C18.05 11.6641 17.1142 12.5999 15.9 12.5999H14.7C13.4858 12.5999 12.55 11.6641 12.55 10.4499V5.5499Z" fill="black"/>
<path fill-rule="evenodd" clip-rule="evenodd" d="M8.70001 11C9.11423 11 9.45001 11.3358 9.45001 11.75V19.75C9.45001 20.1642 9.11423 20.5 8.70001 20.5C8.2858 20.5 7.95001 20.1642 7.95001 19.75V11.75C7.95001 11.3358 8.2858 11 8.70001 11Z" fill="black"/>
<path fill-rule="evenodd" clip-rule="evenodd" d="M15.4 11C15.8142 11 16.15 11.3358 16.15 11.75V19.75C16.15 20.1642 15.8142 20.5 15.4 20.5C14.9858 20.5 14.65 20.1642 14.65 19.75V11.75C14.65 11.3358 14.9858 11 15.4 11Z" fill="black"/>
</svg>
