<svg width="24" height="24" viewBox="0 0 24 24" fill="none" xmlns="http://www.w3.org/2000/svg">
<path fill-rule="evenodd" clip-rule="evenodd" d="M5.09999 7.3999C4.5142 7.3999 4.04999 7.86412 4.04999 8.4499V17.9499C4.04999 18.5357 4.5142 18.9999 5.09999 18.9999H18.9C19.4858 18.9999 19.95 18.5357 19.95 17.9499V8.4499C19.95 7.86412 19.4858 7.3999 18.9 7.3999H17.3C16.8858 7.3999 16.55 7.06412 16.55 6.6499C16.55 6.23569 16.8858 5.8999 17.3 5.8999H18.9C20.3142 5.8999 21.45 7.03569 21.45 8.4499V17.9499C21.45 19.3641 20.3142 20.4999 18.9 20.4999H5.09999C3.68577 20.4999 2.54999 19.3641 2.54999 17.9499V8.4499C2.54999 7.03569 3.68577 5.8999 5.09999 5.8999H6.69999C7.1142 5.8999 7.44999 6.23569 7.44999 6.6499C7.44999 7.06412 7.1142 7.3999 6.69999 7.3999H5.09999Z" fill="black"/>
<path fill-rule="evenodd" clip-rule="evenodd" d="M9.84998 6.6499C9.84998 6.23569 10.1858 5.8999 10.6 5.8999H13.4C13.8142 5.8999 14.15 6.23569 14.15 6.6499C14.15 7.06412 13.8142 7.3999 13.4 7.3999H10.6C10.1858 7.3999 9.84998 7.06412 9.84998 6.6499Z" fill="black"/>
<path fill-rule="evenodd" clip-rule="evenodd" d="M8.10001 4.8999C7.71423 4.8999 7.45001 5.16412 7.45001 5.5499V10.3499C7.45001 10.7357 7.71423 10.9999 8.10001 10.9999H9.20001C9.56172 10.9999 9.87764 10.7478 9.95001 10.2975V5.5499C9.95001 5.16412 9.6858 4.8999 9.30001 4.8999H8.10001ZM5.95001 5.5499C5.95001 4.33569 6.8858 3.3999 8.10001 3.3999H9.30001C10.5142 3.3999 11.45 4.33569 11.45 5.5499V10.3966L11.4442 10.4429C11.3037 11.5672 10.4276 12.4999 9.20001 12.4999H8.10001C6.8858 12.4999 5.95001 11.5641 5.95001 10.3499V5.5499Z" fill="black"/>
<path fill-rule="evenodd" clip-rule="evenodd" d="M14.8 4.8999C14.4142 4.8999 14.15 5.16412 14.15 5.5499V10.3499C14.15 10.7357 14.4142 10.9999 14.8 10.9999H16C16.2353 10.9999 16.5732 10.7791 16.65 10.2976V5.5499C16.65 5.16412 16.3858 4.8999 16 4.8999H14.8ZM12.65 5.5499C12.65 4.33569 13.5858 3.3999 14.8 3.3999H16C17.2142 3.3999 18.15 4.33569 18.15 5.5499V10.3966L18.1442 10.4429C18.008 11.5331 17.1582 12.4999 16 12.4999H14.8C13.5858 12.4999 12.65 11.5641 12.65 10.3499V5.5499Z" fill="black"/>
<path fill-rule="evenodd" clip-rule="evenodd" d="M8.70001 11C9.11423 11 9.45001 11.3358 9.45001 11.75V19.75C9.45001 20.1642 9.11423 20.5 8.70001 20.5C8.2858 20.5 7.95001 20.1642 7.95001 19.75V11.75C7.95001 11.3358 8.2858 11 8.70001 11Z" fill="black"/>
<path fill-rule="evenodd" clip-rule="evenodd" d="M15.4 11C15.8142 11 16.15 11.3358 16.15 11.75V19.75C16.15 20.1642 15.8142 20.5 15.4 20.5C14.9858 20.5 14.65 20.1642 14.65 19.75V11.75C14.65 11.3358 14.9858 11 15.4 11Z" fill="black"/>
</svg>
