<svg xmlns="http://www.w3.org/2000/svg" fill="none" viewBox="0 0 24 24">
  <path fill="#000" d="M14.324 9.323a.23.23 0 0 0-.074.177v10.3a.27.27 0 0 0 .073.176.23.23 0 0 0 .177.074h4.2c.08 0 .135-.03.177-.074a.27.27 0 0 0 .073-.176V9.5a.27.27 0 0 0-.073-.176.23.23 0 0 0-.177-.074h-4.2a.27.27 0 0 0-.176.073M12.75 9.5c0-1.062.885-1.75 1.75-1.75h4.2c1.062 0 1.75.885 1.75 1.75v10.3c0 .865-.688 1.75-1.75 1.75h-4.2c-1.062 0-1.75-.885-1.75-1.75z"/>
  <path fill="#000" d="M17.55 3.867V7.75h-1.8V5.7c0-.346.173-.725.492-.992zm.738-1.367c.464.245.762.729.762 1.3v5.45h-4.8V5.7c0-.845.417-1.654 1.082-2.186l.03-.024 1.442-.927.01-.006a1.5 1.5 0 0 1 1.474-.057M7.1 13.55c-1.168 0-2.05.947-2.05 2.05v4.2a.27.27 0 0 0 .073.176.23.23 0 0 0 .177.074h3.9a.28.28 0 0 0 .207-.093.6.6 0 0 0 .143-.246V15.6c0-1.168-.947-2.05-2.05-2.05zM3.55 15.6c0-1.897 1.518-3.55 3.55-3.55h.4c1.897 0 3.55 1.518 3.55 3.55v4.274l-.015.073c-.143.718-.758 1.603-1.835 1.603H5.3c-1.062 0-1.75-.885-1.75-1.75z"/>
</svg>
