<svg xmlns="http://www.w3.org/2000/svg" fill="none" viewBox="0 0 24 24">
  <path fill="#000" d="M11.55 3.95A1.47 1.47 0 0 0 10.1 5.4c0 .786.664 1.45 1.45 1.45h1c.764 0 1.45-.742 1.45-1.45a1.47 1.47 0 0 0-1.45-1.45zM8.6 5.4a2.97 2.97 0 0 1 2.95-2.95h1A2.97 2.97 0 0 1 15.5 5.4c0 1.492-1.314 2.95-2.95 2.95h-1A2.97 2.97 0 0 1 8.6 5.4"/>
  <path fill="#000" d="M9.471 6.75h4.958L15.6 18.463v.037c0 .526-.14 1.119-.717 1.513l-1.902 1.401-.015.01c-.58.387-1.378.333-1.951.047l-.058-.029-1.94-1.43C8.42 19.603 8.3 18.89 8.3 18.5v-.037zm1.358 1.5L9.8 18.53a.6.6 0 0 0 .037.188.2.2 0 0 0 .031.06l.012.008 1.852 1.364c.08.033.171.05.255.05.085 0 .13-.017.143-.023l1.888-1.391.015-.01a.1.1 0 0 0 .026-.022l.01-.018a.6.6 0 0 0 .03-.202L13.07 8.25z"/>
  <path fill="#000" d="m14.25 11.8-4.6 1-.2 2.4 5-1.1z"/>
</svg>
