<svg width="24" height="24" viewBox="0 0 24 24" fill="none" xmlns="http://www.w3.org/2000/svg">
<path d="M12 3V12H3C3 7 7 3 12 3Z" fill="black"/>
<path fill-rule="evenodd" clip-rule="evenodd" d="M3.78299 11.25H11.25V3.78299C7.26801 4.13521 4.13521 7.26801 3.78299 11.25ZM2.25 12C2.25 6.58579 6.58579 2.25 12 2.25H12.75V12.75H2.25V12Z" fill="black"/>
<path fill-rule="evenodd" clip-rule="evenodd" d="M11.25 2.25H12C14.7109 2.25 17.09 3.33717 18.914 5.05385L18.9311 5.06993L18.9472 5.08704C20.5581 6.80537 21.75 9.28288 21.75 12V12.75H11.25V2.25ZM12.75 3.78308V11.25H20.2139C20.0235 9.26463 19.0965 7.44672 17.8688 6.13005C16.4701 4.81995 14.7229 3.95834 12.75 3.78308Z" fill="black"/>
<path fill-rule="evenodd" clip-rule="evenodd" d="M11.25 11.25H21.75V12C21.75 14.7109 20.6628 17.09 18.9462 18.914L18.9384 18.9223L18.9303 18.9303C17.1894 20.6713 14.6985 21.75 12 21.75H11.25V11.25ZM12.75 12.75V20.2172C14.7524 20.0417 16.5632 19.1722 17.8617 17.8777C19.1764 16.4775 20.0413 14.7271 20.2169 12.75H12.75Z" fill="black"/>
<path fill-rule="evenodd" clip-rule="evenodd" d="M2.25 11.25H12.75V21.75H12C9.28911 21.75 6.90995 20.6628 5.08598 18.9462L5.0777 18.9384L5.06967 18.9303C3.32874 17.1894 2.25 14.6985 2.25 12V11.25ZM3.78276 12.75C3.95827 14.7524 4.82777 16.5632 6.12234 17.8617C7.52254 19.1764 9.27291 20.0413 11.25 20.2169V12.75H3.78276Z" fill="black"/>
</svg>
