<svg width="24" height="24" viewBox="0 0 24 24" fill="none" xmlns="http://www.w3.org/2000/svg">
<path d="M8 3.95001V20.05C5 18.55 3 15.55 3 11.95C3 9.45001 4 7.25001 5.6 5.55001C6.3 4.95001 7.1 4.35001 8 3.95001Z" fill="black"/>
<path fill-rule="evenodd" clip-rule="evenodd" d="M8.75 2.79596V21.2636L7.66459 20.7208C4.4201 19.0986 2.25 15.8447 2.25 11.95C2.25 9.23915 3.33717 6.85998 5.05385 5.03601L5.08139 5.00674L5.11191 4.98059C5.83335 4.36221 6.69782 3.70804 7.6954 3.26467L8.75 2.79596ZM6.1189 6.09313C4.65166 7.6649 3.75 9.67497 3.75 11.95C3.75 14.7993 5.10974 17.233 7.25 18.7328V5.22519C6.85594 5.48858 6.4794 5.7855 6.1189 6.09313Z" fill="black"/>
<path fill-rule="evenodd" clip-rule="evenodd" d="M8.75 4.43033V19.5697C9.73981 19.9865 10.8644 20.2 12 20.2C13.1356 20.2 14.2602 19.9865 15.25 19.5697V4.43033C14.2602 4.01358 13.1356 3.80002 12 3.80002C10.8644 3.80002 9.73981 4.01358 8.75 4.43033ZM7.66459 3.2792C8.98048 2.62125 10.4975 2.30002 12 2.30002C13.5025 2.30002 15.0195 2.62125 16.3354 3.2792L16.75 3.48649V20.5135L16.3354 20.7208C15.0195 21.3788 13.5025 21.7 12 21.7C10.4975 21.7 8.98048 21.3788 7.66459 20.7208L7.25 20.5135V3.48649L7.66459 3.2792Z" fill="black"/>
<path d="M21 12.05C21 14.55 20 16.75 18.4 18.45C17.7 19.15 16.9 19.75 16 20.15V3.95001C16.9 4.35001 17.7 4.95001 18.4 5.65001C19.9 7.25001 21 9.55001 21 12.05Z" fill="black"/>
<path fill-rule="evenodd" clip-rule="evenodd" d="M15.25 2.79596L16.3046 3.26467C17.3075 3.71038 18.1815 4.37088 18.9303 5.1197L18.9389 5.12825L18.9472 5.13708C20.5581 6.85541 21.75 9.33291 21.75 12.05C21.75 14.7609 20.6628 17.1401 18.9462 18.9641L18.9384 18.9723L18.9303 18.9804C18.1815 19.7292 17.3075 20.3897 16.3046 20.8354L15.25 21.3041V2.79596ZM16.75 5.23478V18.8653C17.1416 18.5925 17.5124 18.2762 17.8616 17.9277C19.3404 16.3529 20.25 14.3351 20.25 12.05C20.25 9.77167 19.2459 7.65306 17.8611 6.1718C17.512 5.82357 17.1414 5.50747 16.75 5.23478Z" fill="black"/>
</svg>
