<svg width="24" height="24" viewBox="0 0 24 24" fill="none" xmlns="http://www.w3.org/2000/svg">
<path fill-rule="evenodd" clip-rule="evenodd" d="M7.25 5.23665C5.12736 6.7233 3.75 9.18844 3.75 12C3.75 14.8116 5.12736 17.2767 7.25 18.7634V5.23665ZM8.75 4.40529V19.5947C9.74537 20.0169 10.8434 20.25 12 20.25C13.1475 20.25 14.2478 20.0037 15.25 19.5619V4.40529C14.2546 3.9831 13.1566 3.75 12 3.75C10.8434 3.75 9.74537 3.9831 8.75 4.40529ZM20.25 12C20.25 14.7314 18.8544 17.1953 16.75 18.7047V5.23665C18.8726 6.7233 20.25 9.18844 20.25 12ZM2.25 12C2.25 6.58579 6.58579 2.25 12 2.25C17.4142 2.25 21.75 6.58579 21.75 12C21.75 17.3142 17.3142 21.75 12 21.75C6.58579 21.75 2.25 17.4142 2.25 12Z" fill="black"/>
</svg>
