<svg width="24" height="24" viewBox="0 0 24 24" fill="none" xmlns="http://www.w3.org/2000/svg">
<path fill-rule="evenodd" clip-rule="evenodd" d="M2.68652 15.25H21.1541L20.6854 16.3046C20.2397 17.3075 19.5792 18.1815 18.8304 18.9303C17.0895 20.6713 14.5986 21.75 11.9 21.75C9.18916 21.75 6.81 20.6628 4.98603 18.9462L4.93889 18.9018L4.877 18.8193C4.29356 18.0414 3.65963 17.1962 3.22923 16.3354L2.68652 15.25ZM5.22584 16.75C5.47951 17.1202 5.76303 17.5005 6.0605 17.8973C7.6297 19.355 9.63335 20.25 11.9 20.25C14.2015 20.25 16.3106 19.3287 17.7697 17.8697C18.1213 17.5181 18.4404 17.1446 18.7153 16.75H5.22584Z" fill="black"/>
<path d="M12 3C14.5 3 16.7 4 18.4 5.6C20 7.2 21 9.5 21 12C21 13.4 20.7 14.8 20.1 16H3.9C3.3 14.8 3 13.4 3 12C3 7 7 3 12 3Z" fill="black"/>
<path fill-rule="evenodd" clip-rule="evenodd" d="M12 3.75C7.41421 3.75 3.75 7.41421 3.75 12C3.75 13.1356 3.96356 14.2602 4.38031 15.25H19.6197C20.0364 14.2602 20.25 13.1356 20.25 12C20.25 9.70273 19.3321 7.59711 17.8777 6.13834C16.3028 4.65963 14.2851 3.75 12 3.75ZM2.25 12C2.25 6.58579 6.58579 2.25 12 2.25C14.7109 2.25 17.09 3.33717 18.914 5.05385L18.9223 5.06164L18.9303 5.06967C20.6713 6.8106 21.75 9.30148 21.75 12C21.75 13.5025 21.4288 15.0195 20.7708 16.3354L20.5635 16.75H3.43647L3.22918 16.3354C2.57123 15.0195 2.25 13.5025 2.25 12Z" fill="black"/>
</svg>
