<svg width="24" height="24" viewBox="0 0 24 24" fill="none" xmlns="http://www.w3.org/2000/svg">
<path fill-rule="evenodd" clip-rule="evenodd" d="M3.78299 11.25C4.13521 7.26801 7.26801 4.13521 11.25 3.78299V11.25H3.78299ZM3.7843 12.75C4.14318 16.659 7.27691 19.8555 11.25 20.2161V12.75H3.7843ZM12.75 12.75V20.217C16.732 19.8648 19.8648 16.732 20.217 12.75H12.75ZM20.217 11.25C19.8648 7.26801 16.732 4.13521 12.75 3.78299V11.25H20.217ZM2.25 12C2.25 6.58579 6.58579 2.25 12 2.25C17.4142 2.25 21.75 6.58579 21.75 12C21.75 17.4142 17.4142 21.75 12 21.75C6.58038 21.75 2.25 17.3088 2.25 12Z" fill="black"/>
</svg>
