<svg width="24" height="24" viewBox="0 0 24 24" fill="none" xmlns="http://www.w3.org/2000/svg">
<path d="M20.4 8.9H3.5C3.9 7.6 4.7 6.5 5.6 5.6C7.2 4 9.5 3 12 3C15.9 3 19.2 5.4 20.4 8.9Z" fill="black"/>
<path fill-rule="evenodd" clip-rule="evenodd" d="M12 3.75C9.69849 3.75 7.58937 4.67126 6.1303 6.13033C5.53275 6.72788 5.00036 7.40167 4.61497 8.15H19.2729C17.9419 5.50281 15.1985 3.75 12 3.75ZM5.06964 5.06967C6.81056 3.32874 9.30144 2.25 12 2.25C16.2164 2.25 19.8042 4.84985 21.1094 8.65676L21.45 9.65H2.4845L2.78313 8.67944C3.23045 7.22565 4.11529 6.02402 5.06964 5.06967Z" fill="black"/>
<path fill-rule="evenodd" clip-rule="evenodd" d="M2.95943 8.25H20.8874L21.0854 8.6954C21.5327 9.70193 21.75 10.8074 21.75 12C21.75 13.0982 21.5306 14.1747 21.2184 15.2155L21.2102 15.2427L21.2 15.2692C20.6647 16.6609 19.9142 17.8387 18.9575 18.9017L18.9443 18.9164L18.9303 18.9303C17.1894 20.6713 14.6985 21.75 12 21.75C10.5032 21.75 8.99216 21.4312 7.67979 20.7784C6.68348 20.3328 5.81461 19.6753 5.06967 18.9303C3.32874 17.1894 2.25 14.6985 2.25 12C2.25 10.8073 2.46711 9.72696 2.78849 8.76283L2.95943 8.25ZM4.05619 9.75C3.86691 10.4453 3.75 11.1946 3.75 12C3.75 14.3015 4.67126 16.4106 6.13033 17.8697C6.78151 18.5208 7.50745 19.0604 8.3046 19.4146L8.32017 19.4216L8.33541 19.4292C9.41952 19.9712 10.7025 20.25 12 20.25C14.2942 20.25 16.3973 19.3346 17.8558 17.8835C18.6865 16.9574 19.3283 15.9476 19.7898 14.7571C20.0728 13.8077 20.25 12.8932 20.25 12C20.25 11.1768 20.128 10.4289 19.8909 9.75H4.05619Z" fill="black"/>
<path fill-rule="evenodd" clip-rule="evenodd" d="M7.25 8.89999H8.75V20H7.25V8.89999Z" fill="black"/>
<path fill-rule="evenodd" clip-rule="evenodd" d="M21 15.65H8V14.15H21V15.65Z" fill="black"/>
</svg>
