<svg width="24" height="24" viewBox="0 0 24 24" fill="none" xmlns="http://www.w3.org/2000/svg">
<path fill-rule="evenodd" clip-rule="evenodd" d="M4.68906 8.1499C6.0633 5.52482 8.80846 3.75 12 3.75C15.1915 3.75 17.9367 5.52482 19.3109 8.1499H4.68906ZM4.0841 9.6499C3.86655 10.3936 3.75 11.1821 3.75 12C3.75 14.8116 5.12736 17.2767 7.25 18.7634V9.6499H4.0841ZM12 20.25C10.8434 20.25 9.74537 20.0169 8.75 19.5947V9.6499H15.25V19.5947C14.2546 20.0169 13.1566 20.25 12 20.25ZM16.75 18.7634C18.8726 17.2767 20.25 14.8116 20.25 12C20.25 11.1821 20.1334 10.3936 19.9159 9.6499H16.75V18.7634ZM12 2.25C6.58579 2.25 2.25 6.58579 2.25 12C2.25 17.4142 6.58579 21.75 12 21.75C17.4142 21.75 21.75 17.4142 21.75 12C21.75 6.58579 17.4142 2.25 12 2.25Z" fill="black"/>
</svg>
