<svg width="24" height="24" viewBox="0 0 24 24" fill="none" xmlns="http://www.w3.org/2000/svg">
<path fill-rule="evenodd" clip-rule="evenodd" d="M11.25 8.20001H21.75V16.95C21.75 19.5642 19.6142 21.7 17 21.7H11.25V8.20001ZM12.75 9.70001V20.2H17C18.7858 20.2 20.25 18.7358 20.25 16.95V9.70001H12.75Z" fill="black"/>
<path fill-rule="evenodd" clip-rule="evenodd" d="M2.25 8.20001H12.75V21.7H7C4.38579 21.7 2.25 19.5642 2.25 16.95V8.20001ZM3.75 9.70001V16.95C3.75 18.7358 5.21421 20.2 7 20.2H11.25V9.70001H3.75Z" fill="black"/>
<path d="M21 7.04999V9.04999H3V7.04999C3 4.84999 4.8 3.04999 7 3.04999H17C19.2 3.04999 21 4.74999 21 7.04999Z" fill="black"/>
<path fill-rule="evenodd" clip-rule="evenodd" d="M7 3.79999C5.21421 3.79999 3.75 5.2642 3.75 7.04999V8.29999H20.25V7.04999C20.25 5.17645 18.7981 3.79999 17 3.79999H7ZM2.25 7.04999C2.25 4.43577 4.38579 2.29999 7 2.29999H17C19.6019 2.29999 21.75 4.32353 21.75 7.04999V9.79999H2.25V7.04999Z" fill="black"/>
</svg>
