<svg width="24" height="24" viewBox="0 0 24 24" fill="none" xmlns="http://www.w3.org/2000/svg">
<path fill-rule="evenodd" clip-rule="evenodd" d="M7 3.75C5.21421 3.75 3.75 5.21421 3.75 7V11.25H11.25V3.75H7ZM11.25 12.75H3.75V17C3.75 18.7981 5.12646 20.25 7 20.25H11.25V12.75ZM12.75 12.75H20.25V17C20.25 18.7858 18.7858 20.25 17 20.25H12.75V12.75ZM20.25 11.25H12.75V3.75H17C18.7858 3.75 20.25 5.21421 20.25 7V11.25ZM2.25 7C2.25 4.38579 4.38579 2.25 7 2.25H17C19.6142 2.25 21.75 4.38579 21.75 7V17C21.75 19.6142 19.6142 21.75 17 21.75H7C4.27354 21.75 2.25 19.6019 2.25 17V7Z" fill="black"/>
</svg>
