<svg width="24" height="24" viewBox="0 0 24 24" fill="none" xmlns="http://www.w3.org/2000/svg">
<path fill-rule="evenodd" clip-rule="evenodd" d="M7 3.75C5.11421 3.75 3.75 5.11421 3.75 7V8.1499H20.25V7C20.25 5.21421 18.7858 3.75 17 3.75H7ZM3.75 17V9.6499H7.25V20.25H7C5.21421 20.25 3.75 18.7858 3.75 17ZM8.75 20.25H17C18.7858 20.25 20.25 18.7858 20.25 17V9.6499H8.75V20.25ZM2.25 7C2.25 4.28579 4.28579 2.25 7 2.25H17C19.6142 2.25 21.75 4.38579 21.75 7V17C21.75 19.6142 19.6142 21.75 17 21.75H7C4.38579 21.75 2.25 19.6142 2.25 17V7Z" fill="black"/>
</svg>
