<svg width="24" height="24" viewBox="0 0 24 24" fill="none" xmlns="http://www.w3.org/2000/svg">
<path d="M21 7V17C21 19.2 19.2 21 17 21H16V3H17C19.2 3 21 4.7 21 7Z" fill="black"/>
<path fill-rule="evenodd" clip-rule="evenodd" d="M15.25 2.25H17C19.6019 2.25 21.75 4.27354 21.75 7V17C21.75 19.6142 19.6142 21.75 17 21.75H15.25V2.25ZM16.75 3.75V20.25H17C18.7858 20.25 20.25 18.7858 20.25 17V7C20.25 5.12646 18.7981 3.75 17 3.75H16.75Z" fill="black"/>
<path fill-rule="evenodd" clip-rule="evenodd" d="M7.25 2.25H16.75V21.75H7.25V2.25ZM8.75 3.75V20.25H15.25V3.75H8.75Z" fill="black"/>
<path d="M8 3V21H7C4.8 21 3 19.2 3 17V7C3 4.8 4.8 3 7 3H8Z" fill="black"/>
<path fill-rule="evenodd" clip-rule="evenodd" d="M7 3.75C5.21421 3.75 3.75 5.21421 3.75 7V17C3.75 18.7858 5.21421 20.25 7 20.25H7.25V3.75H7ZM2.25 7C2.25 4.38579 4.38579 2.25 7 2.25H8.75V21.75H7C4.38579 21.75 2.25 19.6142 2.25 17V7Z" fill="black"/>
</svg>
