<svg width="24" height="24" viewBox="0 0 24 24" fill="none" xmlns="http://www.w3.org/2000/svg">
<path fill-rule="evenodd" clip-rule="evenodd" d="M12 3.75C7.41421 3.75 3.75 7.41421 3.75 12C3.75 16.5858 7.41421 20.25 12 20.25C16.4858 20.25 20.25 16.4858 20.25 12C20.25 7.41421 16.5858 3.75 12 3.75ZM2.25 12C2.25 6.58579 6.58579 2.25 12 2.25C17.4142 2.25 21.75 6.58579 21.75 12C21.75 17.3142 17.3142 21.75 12 21.75C6.58579 21.75 2.25 17.4142 2.25 12Z" fill="black"/>
<path d="M7.2 12.9C6.9 12.9 6.7 12.8 6.5 12.6C6.4 12.5 6.3 12.4 6.3 12.3C6.2 12.2 6.2 12.1 6.2 11.9C6.2 11.8 6.2 11.6 6.3 11.5C6.3 11.4 6.4 11.3 6.5 11.2C6.9 10.8 7.5 10.8 7.9 11.2C8 11.3 8.1 11.4 8.1 11.5C8.2 11.7 8.2 11.8 8.2 11.9C8.2 12.2 8.1 12.4 7.9 12.6C7.7 12.8 7.5 12.9 7.2 12.9Z" fill="black"/>
<path d="M11.9 12.9C11.6 12.9 11.4 12.8 11.2 12.6C11.1 12.5 10.9 12.2 10.9 11.9C10.9 11.7 11.1 11.4 11.2 11.2C11.6 10.8 12.2 10.8 12.6 11.2C12.8 11.4 12.9 11.6 12.9 11.9C12.9 12.2 12.8 12.4 12.6 12.6C12.5 12.8 12.2 12.9 11.9 12.9Z" fill="black"/>
<path d="M16.7 12.9C16.4 12.9 16.2 12.8 16 12.6C15.8 12.4 15.7 12.2 15.7 11.9C15.7 11.6 15.8 11.4 16 11.2C16.4 10.8 17 10.8 17.4 11.2C17.6 11.4 17.7 11.6 17.7 11.9C17.7 12.2 17.6 12.4 17.4 12.6C17.2 12.8 17 12.9 16.7 12.9Z" fill="black"/>
</svg>
