<svg width="24" height="24" viewBox="0 0 24 24" fill="none" xmlns="http://www.w3.org/2000/svg">
<path d="M17.9 10C18.7284 10 19.4 9.32843 19.4 8.5C19.4 7.67157 18.7284 7 17.9 7C17.0716 7 16.4 7.67157 16.4 8.5C16.4 9.32843 17.0716 10 17.9 10Z" fill="black"/>
<path fill-rule="evenodd" clip-rule="evenodd" d="M17.9 7.5C17.3477 7.5 16.9 7.94772 16.9 8.5C16.9 9.05228 17.3477 9.5 17.9 9.5C18.4523 9.5 18.9 9.05228 18.9 8.5C18.9 7.94772 18.4523 7.5 17.9 7.5ZM15.9 8.5C15.9 7.39543 16.7954 6.5 17.9 6.5C19.0046 6.5 19.9 7.39543 19.9 8.5C19.9 9.60457 19.0046 10.5 17.9 10.5C16.7954 10.5 15.9 9.60457 15.9 8.5Z" fill="black"/>
<path d="M12 10C12.8284 10 13.5 9.32843 13.5 8.5C13.5 7.67157 12.8284 7 12 7C11.1716 7 10.5 7.67157 10.5 8.5C10.5 9.32843 11.1716 10 12 10Z" fill="black"/>
<path fill-rule="evenodd" clip-rule="evenodd" d="M12 7.5C11.4477 7.5 11 7.94772 11 8.5C11 9.05228 11.4477 9.5 12 9.5C12.5523 9.5 13 9.05228 13 8.5C13 7.94772 12.5523 7.5 12 7.5ZM10 8.5C10 7.39543 10.8954 6.5 12 6.5C13.1046 6.5 14 7.39543 14 8.5C14 9.60457 13.1046 10.5 12 10.5C10.8954 10.5 10 9.60457 10 8.5Z" fill="black"/>
<path d="M6.10001 10C6.92844 10 7.60001 9.32843 7.60001 8.5C7.60001 7.67157 6.92844 7 6.10001 7C5.27159 7 4.60001 7.67157 4.60001 8.5C4.60001 9.32843 5.27159 10 6.10001 10Z" fill="black"/>
<path fill-rule="evenodd" clip-rule="evenodd" d="M6.10001 7.5C5.54773 7.5 5.10001 7.94772 5.10001 8.5C5.10001 9.05228 5.54773 9.5 6.10001 9.5C6.6523 9.5 7.10001 9.05228 7.10001 8.5C7.10001 7.94772 6.6523 7.5 6.10001 7.5ZM4.10001 8.5C4.10001 7.39543 4.99545 6.5 6.10001 6.5C7.20458 6.5 8.10001 7.39543 8.10001 8.5C8.10001 9.60457 7.20458 10.5 6.10001 10.5C4.99545 10.5 4.10001 9.60457 4.10001 8.5Z" fill="black"/>
<path d="M17.9 17C18.7284 17 19.4 16.3284 19.4 15.5C19.4 14.6716 18.7284 14 17.9 14C17.0716 14 16.4 14.6716 16.4 15.5C16.4 16.3284 17.0716 17 17.9 17Z" fill="black"/>
<path fill-rule="evenodd" clip-rule="evenodd" d="M17.9 14.5C17.3477 14.5 16.9 14.9477 16.9 15.5C16.9 16.0523 17.3477 16.5 17.9 16.5C18.4523 16.5 18.9 16.0523 18.9 15.5C18.9 14.9477 18.4523 14.5 17.9 14.5ZM15.9 15.5C15.9 14.3954 16.7954 13.5 17.9 13.5C19.0046 13.5 19.9 14.3954 19.9 15.5C19.9 16.6046 19.0046 17.5 17.9 17.5C16.7954 17.5 15.9 16.6046 15.9 15.5Z" fill="black"/>
<path d="M12 17C12.8284 17 13.5 16.3284 13.5 15.5C13.5 14.6716 12.8284 14 12 14C11.1716 14 10.5 14.6716 10.5 15.5C10.5 16.3284 11.1716 17 12 17Z" fill="black"/>
<path fill-rule="evenodd" clip-rule="evenodd" d="M12 14.5C11.4477 14.5 11 14.9477 11 15.5C11 16.0523 11.4477 16.5 12 16.5C12.5523 16.5 13 16.0523 13 15.5C13 14.9477 12.5523 14.5 12 14.5ZM10 15.5C10 14.3954 10.8954 13.5 12 13.5C13.1046 13.5 14 14.3954 14 15.5C14 16.6046 13.1046 17.5 12 17.5C10.8954 17.5 10 16.6046 10 15.5Z" fill="black"/>
<path d="M6.10001 17C6.92844 17 7.60001 16.3284 7.60001 15.5C7.60001 14.6716 6.92844 14 6.10001 14C5.27159 14 4.60001 14.6716 4.60001 15.5C4.60001 16.3284 5.27159 17 6.10001 17Z" fill="black"/>
<path fill-rule="evenodd" clip-rule="evenodd" d="M6.10001 14.5C5.54773 14.5 5.10001 14.9477 5.10001 15.5C5.10001 16.0523 5.54773 16.5 6.10001 16.5C6.6523 16.5 7.10001 16.0523 7.10001 15.5C7.10001 14.9477 6.6523 14.5 6.10001 14.5ZM4.10001 15.5C4.10001 14.3954 4.99545 13.5 6.10001 13.5C7.20458 13.5 8.10001 14.3954 8.10001 15.5C8.10001 16.6046 7.20458 17.5 6.10001 17.5C4.99545 17.5 4.10001 16.6046 4.10001 15.5Z" fill="black"/>
</svg>
