<svg xmlns="http://www.w3.org/2000/svg" fill="none" viewBox="0 0 24 24">
  <path fill="#000" d="M15.25 6.95A.75.75 0 0 1 16 6.2h1a4.76 4.76 0 0 1 4.75 4.75v6a.75.75 0 0 1-1.5 0v-6A3.26 3.26 0 0 0 17 7.7h-1a.75.75 0 0 1-.75-.75M3 6.2a.75.75 0 0 1 .75.75v10A3.26 3.26 0 0 0 7 20.2a.75.75 0 1 1 0 1.5 4.76 4.76 0 0 1-4.75-4.75v-10A.75.75 0 0 1 3 6.2"/>
  <path fill="#000" d="M16 6.95H3v-2.8c0-.7.6-1.2 1.2-1.2h8.1c1 0 2 .6 2.4 1.5z"/>
  <path fill="#000" d="M3.89 3.833a.43.43 0 0 0-.14.317V6.2h11.015l-.741-1.424-.01-.021C13.747 4.15 13.033 3.7 12.3 3.7H4.2a.47.47 0 0 0-.31.133m-1.64.317c0-1.154.977-1.95 1.95-1.95h8.1c1.26 0 2.538.74 3.075 1.923l1.86 3.577H2.25zm15.38 12.07a.75.75 0 0 1 0 1.06l-4.3 4.3a.75.75 0 1 1-1.06-1.06l4.3-4.3a.75.75 0 0 1 1.06 0"/>
  <path fill="#000" d="M12.27 16.22a.75.75 0 0 1 1.06 0l4.3 4.3a.75.75 0 1 1-1.06 1.06l-4.3-4.3a.75.75 0 0 1 0-1.06"/>
</svg>
