<svg xmlns="http://www.w3.org/2000/svg" fill="none" viewBox="0 0 24 24">
  <path fill="#000" d="M10.28 4.005c.805-.804 1.94-.966 2.877-.485L9.82 6.93c-.511-.946-.358-2.106.46-2.925m3.54 3.54c-.83.83-2.05.963-2.955.463l3.378-3.454c.555.958.414 2.154-.423 2.99Zm-4.6-4.6c1.593-1.593 4.067-1.593 5.66 0s1.593 4.068 0 5.66c-1.577 1.577-4.161 1.613-5.67-.01-1.583-1.593-1.58-4.06.01-5.65m-3.04 3.76a.75.75 0 1 0-1.06-1.06c-3.793 3.792-3.793 9.967 0 13.76s9.968 3.793 13.76 0c3.793-3.793 3.793-9.968 0-13.76a.75.75 0 0 0-1.06 1.06c3.075 3.075 3.201 8.005.38 11.233v-3.463a3.65 3.65 0 0 0-3.65-3.65h-5.1a3.65 3.65 0 0 0-3.65 3.65v3.463C2.979 14.71 3.105 9.78 6.18 6.705m10.52 7.77v4.807a8.26 8.26 0 0 1-9.4 0v-4.807c0-1.186.964-2.15 2.15-2.15h5.1c1.186 0 2.15.964 2.15 2.15m-6.197.093a.75.75 0 0 0-1.106 1.014c1.41 1.537 3.804 1.503 5.283.023a.75.75 0 0 0-1.06-1.06c-.92.92-2.327.885-3.117.023"/>
</svg>
