<svg xmlns="http://www.w3.org/2000/svg" fill="none" viewBox="0 0 24 24">
  <path fill="#000" d="M4 17.95v-6c0-2.2 1.8-4 4-4h8c2.2 0 4 1.8 4 4v6c0 1.7-1.3 3-3 3H7c-1.7 0-3-1.3-3-3"/>
  <path fill="#000" d="M8 8.7a3.26 3.26 0 0 0-3.25 3.25v6c0 1.286.964 2.25 2.25 2.25h10c1.286 0 2.25-.964 2.25-2.25v-6A3.26 3.26 0 0 0 16 8.7zm-4.75 3.25A4.76 4.76 0 0 1 8 7.2h8a4.76 4.76 0 0 1 4.75 4.75v6c0 2.114-1.636 3.75-3.75 3.75H7c-2.114 0-3.75-1.636-3.75-3.75z"/>
  <path fill="#000" d="M12 3.8a3.26 3.26 0 0 0-3.25 3.25v1h-1.5v-1A4.76 4.76 0 0 1 12 2.3c1.328 0 2.512.601 3.33 1.42.819.818 1.42 2.002 1.42 3.33v1h-1.5v-1c0-.872-.399-1.688-.98-2.27-.582-.581-1.398-.98-2.27-.98"/>
  <path fill="#fff" d="M14.63 12.32a.75.75 0 0 1 0 1.06l-4.3 4.3a.75.75 0 1 1-1.06-1.06l4.3-4.3a.75.75 0 0 1 1.06 0"/>
  <path fill="#fff" d="M9.27 12.32a.75.75 0 0 1 1.06 0l4.3 4.3a.75.75 0 0 1-1.06 1.06l-4.3-4.3a.75.75 0 0 1 0-1.06"/>
</svg>
