<svg xmlns="http://www.w3.org/2000/svg" fill="none" viewBox="0 0 24 24">
  <path fill="#000" d="M5 5.75c-.686 0-1.25.564-1.25 1.25v2.25h16.5V7c0-.738-.615-1.25-1.25-1.25zM2.25 7A2.756 2.756 0 0 1 5 4.25h14c1.365 0 2.75 1.088 2.75 2.75v3.75H2.25z"/>
  <path fill="#000" d="M21 10v7c0 1.1-.9 2-2 2H5c-1.1 0-2-.9-2-2v-7z"/>
  <path fill="#000" d="M2.25 9.25h19.5V17A2.756 2.756 0 0 1 19 19.75H5A2.756 2.756 0 0 1 2.25 17zm1.5 1.5V17c0 .686.564 1.25 1.25 1.25h14c.686 0 1.25-.564 1.25-1.25v-6.25z"/>
</svg>
