<svg xmlns="http://www.w3.org/2000/svg" fill="none" viewBox="0 0 24 24">
  <path fill="#000" d="M21 7v3H3V7c0-1.1.9-2 2-2h14c1 0 2 .8 2 2"/>
  <path fill="#000" d="M5 5.75c-.686 0-1.25.564-1.25 1.25v2.25h16.5V7c0-.738-.615-1.25-1.25-1.25zM2.25 7A2.756 2.756 0 0 1 5 4.25h14c1.365 0 2.75 1.088 2.75 2.75v3.75H2.25z"/>
  <path fill="#000" d="M21 9.25a.75.75 0 0 1 .75.75v2a.75.75 0 0 1-1.5 0v-2a.75.75 0 0 1 .75-.75m-18 0a.75.75 0 0 1 .75.75v7c0 .686.564 1.25 1.25 1.25h7a.75.75 0 0 1 0 1.5H5A2.756 2.756 0 0 1 2.25 17v-7A.75.75 0 0 1 3 9.25m17.038 5.127a.75.75 0 0 1-.015 1.061l-3.5 3.4a.75.75 0 0 1-1.046-1.076l3.5-3.4a.75.75 0 0 1 1.061.015"/>
  <path fill="#000" d="M15.462 14.377a.75.75 0 0 1 1.06-.015l3.5 3.4a.75.75 0 1 1-1.045 1.076l-3.5-3.4a.75.75 0 0 1-.015-1.06"/>
</svg>
