<svg xmlns="http://www.w3.org/2000/svg" fill="none" viewBox="0 0 24 24">
  <path fill="#000" d="M5 5.75c-.686 0-1.25.564-1.25 1.25v10c0 .686.564 1.25 1.25 1.25h7a.75.75 0 0 1 0 1.5H5A2.756 2.756 0 0 1 2.25 17V7A2.756 2.756 0 0 1 5 4.25h14A2.756 2.756 0 0 1 21.75 7v5a.75.75 0 0 1-1.5 0V7c0-.686-.564-1.25-1.25-1.25z"/>
  <path fill="#000" d="M3 9.25h18v1.5H3zm14 4.1a.75.75 0 0 1 .75.75v4a.75.75 0 0 1-1.5 0v-4a.75.75 0 0 1 .75-.75"/>
  <path fill="#000" d="m17.05 14.51 1.42 1.42a.75.75 0 0 0 1.06-1.06l-1.786-1.786-.109-.055a1.4 1.4 0 0 0-.623-.154c-.219 0-.51.063-.742.295l-1.7 1.7a.75.75 0 0 0 1.06 1.06z"/>
</svg>
