<svg xmlns="http://www.w3.org/2000/svg" fill="none" viewBox="0 0 24 24">
  <path fill="#000" d="M14 14V9c0-1.1.9-2 2-2h2c1.1 0 2 .9 2 2v5c0 1.1-.9 2-2 2h-2c-1.2 0-2-.9-2-2"/>
  <path fill="#000" d="M16 7.75c-.686 0-1.25.564-1.25 1.25v5c0 .71.489 1.25 1.25 1.25h2c.686 0 1.25-.564 1.25-1.25V9c0-.686-.564-1.25-1.25-1.25zM13.25 9A2.756 2.756 0 0 1 16 6.25h2A2.756 2.756 0 0 1 20.75 9v5A2.756 2.756 0 0 1 18 16.75h-2c-1.639 0-2.75-1.26-2.75-2.75zM4 18V9c0-1.1.9-2 2-2h2c1.1 0 2 .9 2 2v9c0 1.1-.9 2-2 2H6c-1.2 0-2-.9-2-2"/>
  <path fill="#000" d="M6 7.75c-.686 0-1.25.564-1.25 1.25v9c0 .71.489 1.25 1.25 1.25h2c.686 0 1.25-.564 1.25-1.25V9c0-.686-.564-1.25-1.25-1.25zM3.25 9A2.756 2.756 0 0 1 6 6.25h2A2.756 2.756 0 0 1 10.75 9v9A2.756 2.756 0 0 1 8 20.75H6c-1.639 0-2.75-1.26-2.75-2.75zm0-5A.75.75 0 0 1 4 3.25h16a.75.75 0 0 1 0 1.5H4A.75.75 0 0 1 3.25 4"/>
</svg>
