<svg xmlns="http://www.w3.org/2000/svg" fill="none" viewBox="0 0 24 24">
  <path fill="#000" d="M11.375 15.375h-4c-2.2 0-4-1.8-4-4v-4c0-2.2 1.8-4 4-4h4c2.2 0 4 1.8 4 4v4c0 2.2-1.8 4-4 4"/>
  <path fill="#000" d="M7.375 3.875a3.51 3.51 0 0 0-3.5 3.5v4c0 1.924 1.576 3.5 3.5 3.5h4c1.924 0 3.5-1.576 3.5-3.5v-4c0-1.924-1.576-3.5-3.5-3.5zm-4.5 3.5c0-2.476 2.024-4.5 4.5-4.5h4c2.476 0 4.5 2.024 4.5 4.5v4c0 2.476-2.024 4.5-4.5 4.5h-4a4.51 4.51 0 0 1-4.5-4.5z"/>
  <path fill="#000" d="M14.625 8.375a.75.75 0 0 1 .75-.75h1.5a.75.75 0 0 1 0 1.5h-1.5a.75.75 0 0 1-.75-.75m4.262.731a.75.75 0 0 1 1.057.08q.279.324.505.7a.75.75 0 0 1-.235 1.013.75.75 0 0 1 .838.616q.072.414.073.86v1a.75.75 0 0 1-1.5 0v-1q-.001-.32-.05-.604a.75.75 0 0 1 .328-.756.75.75 0 0 1-.742-.36 3.6 3.6 0 0 0-.356-.492.75.75 0 0 1 .082-1.057m1.488 5.519a.75.75 0 0 1 .75.75v1c0 .642-.13 1.257-.364 1.818a.75.75 0 1 1-1.384-.577c.16-.383.248-.801.248-1.241v-1a.75.75 0 0 1 .75-.75M8.54 17.605a.75.75 0 0 1 1.006.335c.12.24.285.47.49.681a.75.75 0 1 1-1.079 1.044 4.3 4.3 0 0 1-.753-1.055.75.75 0 0 1 .336-1.006m10.057 2.175a.75.75 0 0 1-.404.981 4.7 4.7 0 0 1-1.818.364h-1a.75.75 0 0 1 0-1.5h1c.44 0 .858-.088 1.24-.248a.75.75 0 0 1 .982.404m-8.002.242a.75.75 0 0 1 .926-.517c.277.078.565.12.854.12h1a.75.75 0 0 1 0 1.5h-1a4.6 4.6 0 0 1-1.262-.177.75.75 0 0 1-.518-.926"/>
  <path fill="#000" d="M8.375 14.625a.75.75 0 0 1 .75.75v1.5a.75.75 0 0 1-1.5 0v-1.5a.75.75 0 0 1 .75-.75"/>
</svg>
