<svg xmlns="http://www.w3.org/2000/svg" fill="none" viewBox="0 0 24 24">
  <path fill="#000" d="M14 10H9c-1.1 0-2-.9-2-2V6c0-1.1.9-2 2-2h5c1.1 0 2 .9 2 2v2c0 1.1-.9 2-2 2"/>
  <path fill="#000" d="M9 4.75c-.686 0-1.25.564-1.25 1.25v2c0 .686.564 1.25 1.25 1.25h5c.686 0 1.25-.564 1.25-1.25V6c0-.686-.564-1.25-1.25-1.25zM6.25 6A2.756 2.756 0 0 1 9 3.25h5A2.756 2.756 0 0 1 16.75 6v2A2.756 2.756 0 0 1 14 10.75H9A2.756 2.756 0 0 1 6.25 8zM18 20H9c-1.1 0-2-.9-2-2v-2c0-1.1.9-2 2-2h9c1.1 0 2 .9 2 2v2c0 1.1-.9 2-2 2"/>
  <path fill="#000" d="M9 14.75c-.686 0-1.25.564-1.25 1.25v2c0 .686.564 1.25 1.25 1.25h9c.686 0 1.25-.564 1.25-1.25v-2c0-.686-.564-1.25-1.25-1.25zM6.25 16A2.756 2.756 0 0 1 9 13.25h9A2.756 2.756 0 0 1 20.75 16v2A2.756 2.756 0 0 1 18 20.75H9A2.756 2.756 0 0 1 6.25 18zM4 3.25a.75.75 0 0 1 .75.75v16a.75.75 0 0 1-1.5 0V4A.75.75 0 0 1 4 3.25"/>
</svg>
