<svg xmlns="http://www.w3.org/2000/svg" fill="none" viewBox="0 0 24 24">
  <path fill="#000" d="M18.374 6.543c-.176-.211-.557-.287-.894.05L6.556 17.517l-.026.022c-.21.175-.286.556.05.893l1.573 1.573c.347.27.787.207.967.027L20.044 9.108l.026-.022c.21-.175.286-.556-.05-.893l-1.624-1.624zm1.128-.99c-.828-.958-2.227-.876-3.082-.02L5.54 16.41c-.959.827-.876 2.227-.021 3.082l1.624 1.624.026.022c.85.708 2.194.77 3.01-.046L21.06 10.214c.959-.827.876-2.227.021-3.082z"/>
  <path fill="#000" d="m15.08 7.932 3.6 3.6-1.06 1.06-3.6-3.6zM7.4 4.662a.75.75 0 0 1 .75-.75h3.3a.75.75 0 0 1 0 1.5h-3.3a.75.75 0 0 1-.75-.75"/>
  <path fill="#000" d="M9.75 2.313a.75.75 0 0 1 .75.75v3.2a.75.75 0 0 1-1.5 0v-3.2a.75.75 0 0 1 .75-.75m-7.85 8.15a.75.75 0 0 1 .75-.75h3.2a.75.75 0 1 1 0 1.5h-3.2a.75.75 0 0 1-.75-.75"/>
  <path fill="#000" d="M4.25 8.112a.75.75 0 0 1 .75.75v3.2a.75.75 0 0 1-1.5 0v-3.2a.75.75 0 0 1 .75-.75M17.3 18.163a.75.75 0 0 1 .75-.75h3.3a.75.75 0 1 1 0 1.5h-3.3a.75.75 0 0 1-.75-.75"/>
  <path fill="#000" d="M19.65 15.813a.75.75 0 0 1 .75.75v3.3a.75.75 0 0 1-1.5 0v-3.3a.75.75 0 0 1 .75-.75"/>
</svg>
