<svg xmlns="http://www.w3.org/2000/svg" fill="none" viewBox="0 0 24 24">
  <path fill="#000" d="M20.75 12.35v1.1c0 1.8-1.4 3.2-3.1 3.2H6.35c-1.7 0-3.1-1.4-3.1-3.2v-1.1z"/>
  <path fill="#000" d="M2.5 11.6h19v1.85c0 2.199-1.72 3.95-3.85 3.95H6.35c-2.13 0-3.85-1.751-3.85-3.95zM4 13.1v.35c0 1.401 1.08 2.45 2.35 2.45h11.3c1.27 0 2.35-1.049 2.35-2.45v-.35z"/>
  <path fill="#000" d="M5.05 3.2C4.464 3.2 4 3.664 4 4.25v7.35h16V4.25c0-.535-.419-.97-.996-1.05zM2.5 4.25A2.543 2.543 0 0 1 5.05 1.7h14.042l.04.005c1.205.133 2.368 1.09 2.368 2.545v8.85h-19z"/>
  <path fill="#000" d="M20.75 11.6h.1v1.5h-.1zM9.4 15.9h5.2v3.85a2.543 2.543 0 0 1-2.55 2.55c-1.36 0-2.65-1.084-2.65-2.55zm1.5 1.5v2.35c0 .534.51 1.05 1.15 1.05.586 0 1.05-.464 1.05-1.05V17.4z"/>
</svg>
