<svg xmlns="http://www.w3.org/2000/svg" fill="none" viewBox="0 0 24 24">
  <path fill="#000" d="M6.5 18.45h11v1.5h-11zm2-14.4h7v1.5h-7zm9.438 2.316 2 11-1.476.268-2-11zm-10.4.268-2 11-1.476-.268 2-11z"/>
  <path fill="#000" d="M6.8 3.85a.95.95 0 1 0 0 1.9.95.95 0 0 0 0-1.9m-2.45.95a2.45 2.45 0 1 1 4.9 0 2.45 2.45 0 0 1-4.9 0m.45 13.45a.95.95 0 1 0 0 1.9.95.95 0 0 0 0-1.9m-2.45.95a2.45 2.45 0 1 1 4.9 0 2.45 2.45 0 0 1-4.9 0m16.85-.95a.95.95 0 1 0 0 1.9.95.95 0 0 0 0-1.9m-2.45.95a2.45 2.45 0 1 1 4.9 0 2.45 2.45 0 0 1-4.9 0m.45-15.35a.95.95 0 1 0 0 1.9.95.95 0 0 0 0-1.9m-2.45.95a2.45 2.45 0 1 1 4.9 0 2.45 2.45 0 0 1-4.9 0"/>
</svg>
