<svg xmlns="http://www.w3.org/2000/svg" fill="none" viewBox="0 0 24 24">
  <path fill="#000" d="M6.5 18.45h11v1.5h-11zm0-14.4h11v1.5h-11zM19.95 6.5v11h-1.5v-11zm-14.4 0v11h-1.5v-11z"/>
  <path fill="#000" d="M4.8 3.85a.95.95 0 1 0 0 1.9.95.95 0 0 0 0-1.9m-2.45.95a2.45 2.45 0 1 1 4.9 0 2.45 2.45 0 0 1-4.9 0M4.8 18.25a.95.95 0 1 0 0 1.9.95.95 0 0 0 0-1.9m-2.45.95a2.45 2.45 0 1 1 4.9 0 2.45 2.45 0 0 1-4.9 0m16.85-.95a.95.95 0 1 0 0 1.9.95.95 0 0 0 0-1.9m-2.45.95a2.45 2.45 0 1 1 4.9 0 2.45 2.45 0 0 1-4.9 0M19.2 3.85a.95.95 0 1 0 0 1.9.95.95 0 0 0 0-1.9m-2.45.95a2.45 2.45 0 1 1 4.9 0 2.45 2.45 0 0 1-4.9 0"/>
</svg>
