<svg xmlns="http://www.w3.org/2000/svg" fill="none" viewBox="0 0 24 24">
  <path fill="#000" d="M6.55 15.6a3.6 3.6 0 1 0 0-7.2 3.6 3.6 0 0 0 0 7.2"/>
  <path fill="#000" d="M6.55 9.15a2.85 2.85 0 1 0 0 5.7 2.85 2.85 0 0 0 0-5.7M2.2 12a4.35 4.35 0 1 1 8.7 0 4.35 4.35 0 0 1-8.7 0"/>
  <path fill="#000" d="M9.4 12a.75.75 0 0 1 .75-.75h10.9a.75.75 0 0 1 0 1.5h-10.9A.75.75 0 0 1 9.4 12"/>
  <path fill="#000" d="M21.05 10.15a.75.75 0 0 1 .75.75v4.7a.75.75 0 1 1-1.5 0v-4.7a.75.75 0 0 1 .75-.75m-3.8 1.1A.75.75 0 0 1 18 12v2.5a.75.75 0 0 1-1.5 0V12a.75.75 0 0 1 .75-.75"/>
</svg>
