<svg xmlns="http://www.w3.org/2000/svg" fill="none" viewBox="0 0 24 24">
  <path fill="#000" d="M5.6 10.692A3.6 3.6 0 1 0 10.693 5.6 3.6 3.6 0 0 0 5.6 10.69"/>
  <path fill="#000" d="M10.162 6.131a2.85 2.85 0 1 0-4.03 4.03 2.85 2.85 0 0 0 4.03-4.03M5.07 5.071a4.35 4.35 0 1 1 6.152 6.151A4.35 4.35 0 0 1 5.07 5.07"/>
  <path fill="#000" d="M10.162 10.162a.75.75 0 0 1 1.06 0l7.708 7.707a.75.75 0 1 1-1.061 1.06l-7.707-7.707a.75.75 0 0 1 0-1.06"/>
  <path fill="#000" d="M19.708 17.091a.75.75 0 0 1 0 1.06l-3.324 3.324a.75.75 0 0 1-1.06-1.06l3.323-3.324a.75.75 0 0 1 1.06 0m-3.464-1.909a.75.75 0 0 1 0 1.06l-1.768 1.768a.75.75 0 0 1-1.06-1.06l1.767-1.768a.75.75 0 0 1 1.06 0"/>
</svg>
