<svg xmlns="http://www.w3.org/2000/svg" fill="none" viewBox="0 0 24 24">
  <path fill="#000" d="M17 3.75A3.26 3.26 0 0 0 13.75 7v3.5a.75.75 0 0 1-1.5 0V7A4.76 4.76 0 0 1 17 2.25c1.328 0 2.512.601 3.33 1.42.819.818 1.42 2.002 1.42 3.33a.75.75 0 0 1-1.5 0c0-.872-.399-1.688-.98-2.27-.582-.581-1.398-.98-2.27-.98"/>
  <path fill="#000" d="M9 21A6 6 0 1 0 9 9a6 6 0 0 0 0 12"/>
  <path fill="#000" d="M9 9.75a5.25 5.25 0 1 0 0 10.5 5.25 5.25 0 0 0 0-10.5M2.25 15a6.75 6.75 0 1 1 13.5 0 6.75 6.75 0 0 1-13.5 0"/>
  <path fill="#fff" d="M9 15.25a.75.75 0 0 1 .75.75v1a.75.75 0 0 1-1.5 0v-1a.75.75 0 0 1 .75-.75"/>
</svg>
