<svg width="24" height="24" viewBox="0 0 24 24" fill="none" xmlns="http://www.w3.org/2000/svg">
<path fill-rule="evenodd" clip-rule="evenodd" d="M12.05 3.80005C7.4642 3.80005 3.79999 7.46426 3.79999 12.05C3.79999 16.5413 7.46961 20.3 12.05 20.3C16.6358 20.3 20.3 16.6358 20.3 12.05C20.3 7.46426 16.6358 3.80005 12.05 3.80005ZM2.29999 12.05C2.29999 6.63584 6.63577 2.30005 12.05 2.30005C17.4642 2.30005 21.8 6.63584 21.8 12.05C21.8 17.4643 17.4642 21.8 12.05 21.8C6.63037 21.8 2.29999 17.3588 2.29999 12.05Z" fill="black"/>
<path d="M14.75 11.35C14.95 11.15 15.25 11.05 15.45 11.05C15.55 11.05 15.75 11.05 15.85 11.15C15.95 11.15 16.05 11.25 16.15 11.35C16.25 11.45 16.25 11.55 16.35 11.65C16.35 11.75 16.45 11.95 16.45 12.05C16.45 12.55 15.95 13.05 15.45 13.05C15.35 13.05 15.15 13.05 15.05 12.95C14.95 12.85 14.85 12.85 14.75 12.75C14.55 12.55 14.45 12.35 14.45 12.05C14.45 11.75 14.55 11.55 14.75 11.35Z" fill="black"/>
<path d="M11.35 14.75C11.55 14.55 11.75 14.45 12.05 14.45C12.35 14.45 12.55 14.55 12.75 14.75C12.95 14.95 13.05 15.25 13.05 15.45C13.05 15.95 12.55 16.45 12.05 16.45C11.75 16.45 11.55 16.35 11.35 16.15C11.15 15.95 11.05 15.75 11.05 15.45C11.05 15.15 11.15 14.85 11.35 14.75Z" fill="black"/>
<path d="M11.25 7.85005C11.45 7.65005 11.75 7.55005 11.95 7.55005C12.05 7.55005 12.25 7.55005 12.35 7.65005C12.45 7.65005 12.55 7.75005 12.65 7.85005C12.75 7.95005 12.85 8.05005 12.85 8.15005C12.85 8.25005 12.95 8.45005 12.95 8.55005C12.95 9.05005 12.45 9.55005 11.95 9.55005C11.85 9.55005 11.65 9.55005 11.55 9.45005C11.45 9.45005 11.35 9.35005 11.25 9.25005C11.05 9.15005 10.95 8.85005 10.95 8.55005C10.95 8.35005 11.05 8.05005 11.25 7.85005Z" fill="black"/>
<path d="M7.84999 11.25C8.04999 11.05 8.24999 10.95 8.54999 10.95C8.84999 10.95 9.04999 11.05 9.24999 11.25C9.44999 11.45 9.54999 11.75 9.54999 11.95C9.54999 12.45 9.04999 12.95 8.54999 12.95C8.24999 12.95 8.04999 12.85 7.84999 12.65C7.74999 12.45 7.64999 12.25 7.64999 11.95C7.64999 11.65 7.74999 11.45 7.84999 11.25Z" fill="black"/>
</svg>
