<svg width="24" height="24" viewBox="0 0 24 24" fill="none" xmlns="http://www.w3.org/2000/svg">
<path fill-rule="evenodd" clip-rule="evenodd" d="M11.9475 9.11182L21.5 16.2499C22.4766 16.9824 21.9707 18.4999 20.75 18.4999H3.24999C2.02978 18.4999 1.52384 16.9837 2.4987 16.2509C2.49913 16.2506 2.49956 16.2503 2.49999 16.2499L11.9475 9.11182ZM11.9525 10.9881L3.99559 16.9999H19.9978L11.9525 10.9881Z" fill="black"/>
<path fill-rule="evenodd" clip-rule="evenodd" d="M14.5197 7.48048C13.9126 6.87337 13.0875 6.87337 12.4804 7.48048C11.8732 8.08758 11.8732 8.91271 12.4804 9.51982C12.7732 9.81271 12.7732 10.2876 12.4804 10.5805C12.1875 10.8734 11.7126 10.8734 11.4197 10.5805C10.2268 9.38758 10.2268 7.61271 11.4197 6.41982C12.6126 5.22692 14.3875 5.22692 15.5804 6.41982C15.8732 6.71271 15.8732 7.18758 15.5804 7.48048C15.2875 7.77337 14.8126 7.77337 14.5197 7.48048Z" fill="black"/>
</svg>
