<svg width="24" height="24" viewBox="0 0 24 24" fill="none" xmlns="http://www.w3.org/2000/svg">
<path d="M4.85 13.7H9.25C9.85 13.7 10.25 14.2 10.25 14.7V17.3C10.25 18.8 9.05 20.1 7.45 20.1H6.55C5.05 20.1 3.75 18.9 3.75 17.3V14.7C3.85 14.1 4.25 13.7 4.85 13.7Z" fill="black"/>
<path fill-rule="evenodd" clip-rule="evenodd" d="M4.5 14.7713V17.3C4.5 18.4684 5.44665 19.35 6.55 19.35H7.45C8.61844 19.35 9.5 18.4033 9.5 17.3V14.7C9.5 14.6453 9.47581 14.5768 9.42671 14.5242C9.38461 14.4791 9.32937 14.45 9.25 14.45H4.85C4.72628 14.45 4.66316 14.4869 4.62424 14.5232C4.58372 14.5611 4.53087 14.6361 4.5 14.7713ZM3.60076 13.4267C3.93684 13.113 4.37372 12.95 4.85 12.95H9.25C10.3121 12.95 11 13.8353 11 14.7V17.3C11 19.1966 9.48156 20.85 7.45 20.85H6.55C4.65335 20.85 3 19.3315 3 17.3V14.6379L3.0102 14.5767C3.08213 14.1451 3.27119 13.7343 3.60076 13.4267Z" fill="black"/>
<path d="M14.75 4H19.15C19.75 4 20.15 4.5 20.15 5V18.3C20.15 19.3 19.35 20.1 18.35 20.1H15.55C14.55 20.1 13.75 19.3 13.75 18.3V5C13.75 4.4 14.15 4 14.75 4Z" fill="black"/>
<path fill-rule="evenodd" clip-rule="evenodd" d="M14.5553 4.80533C14.5399 4.82075 14.5 4.87044 14.5 5V18.3C14.5 18.8858 14.9642 19.35 15.55 19.35H18.35C18.9358 19.35 19.4 18.8858 19.4 18.3V5C19.4 4.94535 19.3758 4.87685 19.3267 4.82424C19.2846 4.77914 19.2294 4.75 19.15 4.75H14.75C14.6204 4.75 14.5707 4.78991 14.5553 4.80533ZM13.4947 3.74467C13.8293 3.41009 14.2796 3.25 14.75 3.25H19.15C20.2121 3.25 20.9 4.13536 20.9 5V18.3C20.9 19.7142 19.7642 20.85 18.35 20.85H15.55C14.1358 20.85 13 19.7142 13 18.3V5C13 4.52956 13.1601 4.07925 13.4947 3.74467Z" fill="black"/>
<path fill-rule="evenodd" clip-rule="evenodd" d="M7.05 3.55005C7.46421 3.55005 7.8 3.88584 7.8 4.30005V13.7C7.8 14.1143 7.46421 14.45 7.05 14.45C6.63579 14.45 6.3 14.1143 6.3 13.7V4.30005C6.3 3.88584 6.63579 3.55005 7.05 3.55005Z" fill="black"/>
<path fill-rule="evenodd" clip-rule="evenodd" d="M4.8 6.80005C4.8 6.38584 5.13579 6.05005 5.55 6.05005H8.45C8.86421 6.05005 9.2 6.38584 9.2 6.80005C9.2 7.21426 8.86421 7.55005 8.45 7.55005H5.55C5.13579 7.55005 4.8 7.21426 4.8 6.80005Z" fill="black"/>
<path fill-rule="evenodd" clip-rule="evenodd" d="M4.8 9.30005C4.8 8.88584 5.13579 8.55005 5.55 8.55005H8.45C8.86421 8.55005 9.2 8.88584 9.2 9.30005C9.2 9.71426 8.86421 10.05 8.45 10.05H5.55C5.13579 10.05 4.8 9.71426 4.8 9.30005Z" fill="black"/>
</svg>
