<svg width="24" height="24" viewBox="0 0 24 24" fill="none" xmlns="http://www.w3.org/2000/svg">
<path fill-rule="evenodd" clip-rule="evenodd" d="M7.79999 5.05005C7.1142 5.05005 6.54999 5.61426 6.54999 6.30005V7.15005H17.45V6.30005C17.45 5.63803 16.9099 5.05005 16.1 5.05005H7.79999ZM5.04999 6.30005C5.04999 4.78584 6.28577 3.55005 7.79999 3.55005H16.1C17.69 3.55005 18.95 4.76207 18.95 6.30005V8.65005H5.04999V6.30005Z" fill="black"/>
<path d="M18.2 7.8999V12.6999C16.5 12.0999 14.4 11.6999 12 11.6999C9.59999 11.6999 7.49999 12.0999 5.79999 12.6999V7.8999H18.2Z" fill="black"/>
<path fill-rule="evenodd" clip-rule="evenodd" d="M5.04999 7.1499H18.95V13.76L17.9504 13.4071C16.333 12.8363 14.3176 12.4499 12 12.4499C9.68241 12.4499 7.66701 12.8363 6.0496 13.4071L5.04999 13.76V7.1499ZM6.54999 8.6499V11.6754C8.12794 11.2282 9.96377 10.9499 12 10.9499C14.0362 10.9499 15.872 11.2282 17.45 11.6754V8.6499H6.54999Z" fill="black"/>
<path fill-rule="evenodd" clip-rule="evenodd" d="M6.05835 13.3043C5.06206 13.6846 4.30615 14.118 3.81224 14.5593C3.31531 15.0034 3.14999 15.391 3.14999 15.7001C3.14999 15.9879 3.28762 16.3319 3.6807 16.7186C4.0761 17.1077 4.68667 17.493 5.50131 17.8329C7.12725 18.5114 9.42481 18.9501 12 18.9501C14.5752 18.9501 16.8727 18.5114 18.4987 17.8329C19.3133 17.493 19.9239 17.1077 20.3193 16.7186C20.7124 16.3319 20.85 15.9879 20.85 15.7001C20.85 15.391 20.6847 15.0034 20.1877 14.5593C19.6938 14.118 18.9379 13.6846 17.9416 13.3043C16.3257 12.7351 14.3134 12.3501 12 12.3501C9.6866 12.3501 7.67428 12.7351 6.05835 13.3043ZM5.55038 11.8929C7.33297 11.2637 9.51757 10.8501 12 10.8501C14.4824 10.8501 16.667 11.2637 18.4496 11.8929L18.4583 11.8959L18.467 11.8992C19.5664 12.3181 20.5076 12.8335 21.1872 13.4409C21.8653 14.0468 22.35 14.8091 22.35 15.7001C22.35 16.5123 21.9501 17.2183 21.3713 17.7878C20.7949 18.355 19.9992 18.8322 19.0763 19.2173C17.2272 19.9888 14.7248 20.4501 12 20.4501C9.27518 20.4501 6.77274 19.9888 4.92368 19.2173C4.00081 18.8322 3.20514 18.355 2.62867 17.7878C2.04986 17.2183 1.64999 16.5123 1.64999 15.7001C1.64999 14.8091 2.13468 14.0468 2.81275 13.4409C3.49241 12.8335 4.43356 12.3181 5.533 11.8992L5.54165 11.8959L5.55038 11.8929Z" fill="black"/>
</svg>
