<svg width="24" height="24" viewBox="0 0 24 24" fill="none" xmlns="http://www.w3.org/2000/svg">
<path d="M18.7 20.8H14.5C13.9 20.8 13.5 20.3 13.5 19.8V9.5C13.5 8.9 14 8.5 14.5 8.5H18.7C19.3 8.5 19.7 9 19.7 9.5V19.8C19.7 20.3 19.3 20.8 18.7 20.8Z" fill="black"/>
<path fill-rule="evenodd" clip-rule="evenodd" d="M14.3242 9.32329C14.2791 9.36539 14.25 9.42063 14.25 9.5V19.8C14.25 19.8546 14.2742 19.9232 14.3233 19.9758C14.3654 20.0209 14.4206 20.05 14.5 20.05H18.7C18.7794 20.05 18.8346 20.0209 18.8767 19.9758C18.9258 19.9232 18.95 19.8546 18.95 19.8V9.5C18.95 9.44535 18.9258 9.37685 18.8767 9.32424C18.8346 9.27914 18.7794 9.25 18.7 9.25H14.5C14.4454 9.25 14.3768 9.27419 14.3242 9.32329ZM12.75 9.5C12.75 8.43789 13.6354 7.75 14.5 7.75H18.7C19.7621 7.75 20.45 8.63536 20.45 9.5V19.8C20.45 20.6646 19.7621 21.55 18.7 21.55H14.5C13.4379 21.55 12.75 20.6646 12.75 19.8V9.5Z" fill="black"/>
<path fill-rule="evenodd" clip-rule="evenodd" d="M17.55 3.8666V7.75H15.75V5.7C15.75 5.35449 15.9229 4.97542 16.2416 4.70771L17.55 3.8666ZM18.2884 2.49966C18.7524 2.74529 19.05 3.229 19.05 3.8V9.25H14.25V5.7C14.25 4.85511 14.6673 4.04567 15.3315 3.51435L15.3618 3.4901L16.8042 2.56284L16.8141 2.55688C17.2791 2.27787 17.8335 2.25881 18.2884 2.49966Z" fill="black"/>
<path d="M9.2 20.8H5.3C4.7 20.8 4.3 20.3 4.3 19.8V15.6C4.3 14.1 5.5 12.8 7.1 12.8H7.5C9 12.8 10.3 14 10.3 15.6V19.8C10.2 20.3 9.8 20.8 9.2 20.8Z" fill="black"/>
<path fill-rule="evenodd" clip-rule="evenodd" d="M7.1 13.55C5.93157 13.55 5.05 14.4967 5.05 15.6V19.8C5.05 19.8547 5.07419 19.9232 5.12329 19.9758C5.16539 20.0209 5.22064 20.05 5.3 20.05H9.2C9.27551 20.05 9.34114 20.0232 9.40717 19.9572C9.46906 19.8953 9.5209 19.8066 9.55 19.7108V15.6C9.55 14.4316 8.60336 13.55 7.5 13.55H7.1ZM3.55 15.6C3.55 13.7034 5.06844 12.05 7.1 12.05H7.5C9.39665 12.05 11.05 13.5685 11.05 15.6V19.8743L11.0354 19.9471C10.8918 20.6652 10.2773 21.55 9.2 21.55H5.3C4.23789 21.55 3.55 20.6647 3.55 19.8V15.6Z" fill="black"/>
</svg>
