<svg width="24" height="24" viewBox="0 0 24 24" fill="none" xmlns="http://www.w3.org/2000/svg">
<path fill-rule="evenodd" clip-rule="evenodd" d="M11.55 3.94995C10.7642 3.94995 10.1 4.61416 10.1 5.39995C10.1 6.18574 10.7642 6.84995 11.55 6.84995H12.55C13.3142 6.84995 14 6.10766 14 5.39995C14 4.61416 13.3358 3.94995 12.55 3.94995H11.55ZM8.60001 5.39995C8.60001 3.78574 9.93579 2.44995 11.55 2.44995H12.55C14.1642 2.44995 15.5 3.78574 15.5 5.39995C15.5 6.89224 14.1858 8.34995 12.55 8.34995H11.55C9.93579 8.34995 8.60001 7.01416 8.60001 5.39995Z" fill="black"/>
<path fill-rule="evenodd" clip-rule="evenodd" d="M9.47126 6.75H14.4287L15.6 18.4626V18.5C15.6 19.0265 15.4602 19.6185 14.8826 20.0129L12.9807 21.4143L12.966 21.424C12.3855 21.811 11.5876 21.7573 11.0146 21.4708L10.957 21.442L9.0169 20.0125C8.41971 19.6025 8.3 18.8902 8.3 18.5V18.4626L9.47126 6.75ZM10.8287 8.25L9.80072 18.5302C9.8038 18.5958 9.81667 18.6641 9.83751 18.7183C9.85271 18.7578 9.86565 18.774 9.86947 18.7783L9.8807 18.7857L11.7327 20.1504C11.8138 20.1828 11.904 20.2 11.9875 20.2C12.073 20.2 12.1183 20.1827 12.1307 20.1774L14.0193 18.7857L14.034 18.776C14.052 18.7639 14.0587 18.7562 14.0605 18.754C14.0623 18.7518 14.0656 18.7475 14.0702 18.7365C14.0802 18.7125 14.097 18.6541 14.0996 18.5337L13.0713 8.25H10.8287Z" fill="black"/>
<path d="M14.25 11.8L9.65 12.8L9.45 15.2L14.45 14.1L14.25 11.8Z" fill="black"/>
</svg>
