<svg xmlns="http://www.w3.org/2000/svg" fill="none" viewBox="0 0 24 24">
  <path fill="#000" d="M7 7.3a3.26 3.26 0 0 0-3.25 3.25.75.75 0 1 1-1.5 0A4.76 4.76 0 0 1 7 5.8a.75.75 0 0 1 0 1.5m-4 8.5a.75.75 0 0 1 .75.75A3.26 3.26 0 0 0 7 19.8h10a3.26 3.26 0 0 0 3.25-3.25.75.75 0 0 1 1.5 0A4.76 4.76 0 0 1 17 21.3H7a4.76 4.76 0 0 1-4.75-4.75.75.75 0 0 1 .75-.75m13.25-9.25A.75.75 0 0 1 17 5.8a4.76 4.76 0 0 1 4.75 4.75.75.75 0 1 1-1.5 0A3.26 3.26 0 0 0 17 7.3a.75.75 0 0 1-.75-.75"/>
  <path fill="#000" d="M8.8 4.2c-.586 0-1.05.464-1.05 1.05v1.3a.75.75 0 0 1-1.5 0v-1.3A2.543 2.543 0 0 1 8.8 2.7h6.4a2.543 2.543 0 0 1 2.55 2.55v1.2a.75.75 0 0 1-1.5 0v-1.2c0-.586-.464-1.05-1.05-1.05zM12 17.55a3 3 0 1 0 0-6 3 3 0 0 0 0 6"/>
  <path fill="#000" d="M12 12.3a2.25 2.25 0 1 0 0 4.5 2.25 2.25 0 0 0 0-4.5m-3.75 2.25a3.75 3.75 0 1 1 7.5 0 3.75 3.75 0 0 1-7.5 0m1-6A.75.75 0 0 1 10 7.8h4a.75.75 0 0 1 0 1.5h-4a.75.75 0 0 1-.75-.75m11.75 2v6h-1.1c-1 0-1.9-.9-1.9-1.9v-2.3c0-1 .8-1.9 1.9-1.9H21z"/>
  <path fill="#000" d="M19.9 11.2c-.66 0-1.15.538-1.15 1.15v2.3c0 .586.564 1.15 1.15 1.15h.35v-4.6zm-2.65 1.15c0-1.388 1.11-2.65 2.65-2.65h1.85v7.6H19.9c-1.414 0-2.65-1.236-2.65-2.65zM6 12.35v2.2c0 1-.8 1.9-1.9 1.9H3v-6h1.1c1 .1 1.9.9 1.9 1.9"/>
  <path fill="#000" d="M2.25 9.7h1.887l.038.004c1.288.129 2.575 1.172 2.575 2.646v2.2c0 1.388-1.11 2.65-2.65 2.65H2.25zm1.5 1.5v4.5h.35c.66 0 1.15-.538 1.15-1.15v-2.2c0-.518-.497-1.065-1.191-1.15z"/>
</svg>
