<svg xmlns="http://www.w3.org/2000/svg" fill="none" viewBox="0 0 24 24">
  <path fill="#000" d="M7.75 5.25c0-.586.464-1.05 1.05-1.05h6.4c.586 0 1.05.464 1.05 1.05v1.2q0 .026.002.05l-.002.05c0 .414.336.75.75.75a3.266 3.266 0 0 1 3.162 2.5H19.9c-1.414 0-2.65 1.236-2.65 2.65v2.2c0 1.414 1.236 2.65 2.65 2.65h.262A3.266 3.266 0 0 1 17 19.8H7a3.266 3.266 0 0 1-3.162-2.5H4.1c1.414 0 2.65-1.236 2.65-2.65v-2.2c0-1.414-1.236-2.65-2.65-2.65h-.262a3.266 3.266 0 0 1 3.14-2.5H7a.75.75 0 0 0 .75-.75zm-5.5 5.3c0-2.36 1.74-4.329 4-4.69v-.61A2.54 2.54 0 0 1 8.8 2.7h6.4a2.54 2.54 0 0 1 2.55 2.55v.61c2.26.361 4 2.33 4 4.69v6A4.76 4.76 0 0 1 17 21.3H7a4.76 4.76 0 0 1-4.75-4.75zm1.5 5.25v-4.5h.35c.586 0 1.15.564 1.15 1.15v2.2c0 .586-.564 1.15-1.15 1.15zm16.15-4.5h.35v4.5h-.35c-.586 0-1.15-.564-1.15-1.15v-2.2c0-.586.564-1.15 1.15-1.15m-7.9 1a2.25 2.25 0 1 0 0 4.5 2.25 2.25 0 0 0 0-4.5m-3.75 2.25a3.75 3.75 0 1 1 7.5 0 3.75 3.75 0 0 1-7.5 0M10 7.8a.75.75 0 0 0 0 1.5h4a.75.75 0 0 0 0-1.5z"/>
</svg>
