<svg xmlns="http://www.w3.org/2000/svg" fill="none" viewBox="0 0 24 24">
  <path fill="#000" d="M21 13.5V17c0 2.2-1.8 4-4 4H7c-2.2 0-4-1.8-4-4v-2.1S5 12 9 12s4 3 7 4c3.7 1.2 5-2.5 5-2.5"/>
  <path fill="#000" d="M21.75 9.103V17A4.76 4.76 0 0 1 17 21.75H7A4.76 4.76 0 0 1 2.25 17v-2.334l.133-.192L3 14.9l-.617-.426v-.001l.002-.002.002-.004.008-.01a3 3 0 0 1 .11-.146c.073-.093.179-.22.318-.372.277-.302.69-.7 1.237-1.096A8.3 8.3 0 0 1 9 11.25c1.1 0 1.964.207 2.688.56.718.35 1.256.823 1.717 1.285.167.166.322.328.473.485.707.738 1.297 1.354 2.356 1.707.798.259 1.421.24 1.908.106a2.8 2.8 0 0 0 1.22-.728 4.2 4.2 0 0 0 .924-1.396l.007-.018v-.002zm-18 6.054q.07-.086.177-.203c.223-.242.56-.569 1.013-.897A6.8 6.8 0 0 1 9 12.75c.9 0 1.536.168 2.03.409.502.243.901.583 1.315.996q.188.19.388.403c.716.755 1.586 1.672 3.03 2.154l.006.001c1.05.341 1.976.346 2.774.125a4.25 4.25 0 0 0 1.707-.95V17A3.26 3.26 0 0 1 17 20.25H7A3.26 3.26 0 0 1 3.75 17zm-.134.171"/>
  <path fill="#000" d="M2.25 7A4.76 4.76 0 0 1 7 2.25h10c2.602 0 4.75 2.024 4.75 4.75v6.616l-.035.11L21 13.5l.715.226v.003l-.003.005-.004.014-.015.044a6 6 0 0 1-.272.623 5.5 5.5 0 0 1-.961 1.349 4.14 4.14 0 0 1-1.881 1.118c-.808.217-1.747.195-2.819-.171-1.442-.482-2.311-1.398-3.027-2.153q-.2-.213-.388-.403c-.414-.413-.814-.752-1.314-.996-.495-.241-1.13-.409-2.031-.409a6.8 6.8 0 0 0-4.06 1.307c-.452.328-.79.656-1.013.897a5 5 0 0 0-.3.358l-.01.015-1.367 1.981zm18 6.369V7c0-1.874-1.452-3.25-3.25-3.25H7A3.26 3.26 0 0 0 3.75 7v6.078A8.3 8.3 0 0 1 9 11.25c1.1 0 1.964.207 2.688.56.718.35 1.256.823 1.717 1.285.167.166.322.329.473.485.708.74 1.298 1.355 2.36 1.709l.005.001c.827.283 1.462.274 1.947.143.49-.131.885-.4 1.2-.722.319-.323.546-.688.695-.98.074-.143.126-.264.159-.347zM15.5 7.75c-.386 0-.75.364-.75.75s.364.75.75.75.75-.364.75-.75-.364-.75-.75-.75m-2.25.75c0-1.214 1.036-2.25 2.25-2.25s2.25 1.036 2.25 2.25-1.036 2.25-2.25 2.25-2.25-1.036-2.25-2.25"/>
  <path fill="#000" d="M15.5 10a1.5 1.5 0 1 0 0-3 1.5 1.5 0 0 0 0 3"/>
  <path fill="#000" d="M15.5 7.75a.75.75 0 1 0 0 1.5.75.75 0 0 0 0-1.5m-2.25.75a2.25 2.25 0 1 1 4.5 0 2.25 2.25 0 0 1-4.5 0"/>
</svg>
