<svg xmlns="http://www.w3.org/2000/svg" fill="none" viewBox="0 0 24 24">
  <path fill="#000" d="M21 11.95v5.1c0 2.2-1.8 4-4 4H7c-2.2 0-4-1.8-4-4v-1.9s4-3.2 18-3.2"/>
  <path fill="#000" d="M17 21.75H7c-2.6 0-4.8-2.1-4.8-4.8v-2.2l.3-.2c.2-.1 4.4-3.4 18.5-3.4h.8v5.8c-.1 2.7-2.2 4.8-4.8 4.8m-13.3-6.2v1.5c0 1.7 1.5 3.2 3.3 3.2h10c1.8 0 3.3-1.5 3.3-3.3v-4.3c-11 .1-15.5 2.2-16.6 2.9"/>
  <path fill="#000" d="M2.2 16.65v-9.7c0-2.6 2.1-4.7 4.8-4.7h10c2.6 0 4.8 2.1 4.8 4.8v5.7H21c-13.4 0-17.5 3-17.5 3zM7 3.75c-1.8 0-3.3 1.5-3.3 3.3v6.8c2-1 6.8-2.6 16.5-2.7v-4.1c0-1.8-1.5-3.3-3.3-3.3z"/>
  <path fill="#000" d="M7.5 9.05a1.5 1.5 0 1 0 0-3 1.5 1.5 0 0 0 0 3"/>
  <path fill="#000" d="M7.5 9.75c-1.3 0-2.3-1-2.3-2.2s1-2.3 2.3-2.3 2.3 1 2.3 2.3-1.1 2.2-2.3 2.2m0-3c-.4 0-.8.3-.8.8s.3.7.8.7.7-.3.7-.7-.3-.8-.7-.8"/>
</svg>
