<svg xmlns="http://www.w3.org/2000/svg" fill="none" viewBox="0 0 24 24">
  <path fill="#000" d="M19.8 19.8c-.7.7-1.7 1.2-2.8 1.2H7c-2.2 0-4-1.8-4-4v-1.9L8.6 11c.8-.6 1.9-.5 2.6.2l3 3z"/>
  <path fill="#000" d="M10.67 11.73a1.23 1.23 0 0 0-1.62-.13l-.007.005L3.75 15.48V17A3.26 3.26 0 0 0 7 20.25h10c.608 0 1.188-.194 1.681-.508zm-2.516-1.333a2.73 2.73 0 0 1 3.576.273l9.13 9.13-.53.53c-.818.819-2.002 1.42-3.33 1.42H7A4.76 4.76 0 0 1 2.25 17v-2.28z"/>
  <path fill="#000" d="M17.704 13.762c-.571-.498-1.245-.505-1.71-.098l-.01.009-.672.568 4.426 4.347a3.14 3.14 0 0 0 .512-1.688v-.864zm-2.693-1.23c1.133-.988 2.656-.795 3.683.104l.006.005 3.05 2.723V16.9c0 1.328-.601 2.512-1.42 3.33l-.525.526-6.717-6.597z"/>
  <path fill="#000" d="M7 3.75A3.26 3.26 0 0 0 3.75 7v6.621l4.404-3.224a2.73 2.73 0 0 1 3.576.273l2.512 2.512.79-.669.018-.013c1.046-.784 2.664-.835 3.67.159l1.53 1.421V7c0-1.874-1.452-3.25-3.25-3.25zM2.25 7A4.76 4.76 0 0 1 7 2.25h10c2.602 0 4.75 2.024 4.75 4.75v10.52l-4.07-3.78-.01-.01c-.391-.39-1.155-.442-1.704-.042l-1.808 1.53-3.488-3.488a1.23 1.23 0 0 0-1.62-.13l-.007.005L2.25 16.58z"/>
</svg>
