<svg width="24" height="24" viewBox="0 0 24 24" fill="none" xmlns="http://www.w3.org/2000/svg">
<path d="M21 11.95V17.05C21 19.25 19.2 21.05 17 21.05H7C4.8 21.05 3 19.25 3 17.05V15.15C3 15.15 7 11.95 21 11.95Z" fill="black"/>
<path d="M17 21.7499H7.00001C4.40001 21.7499 2.20001 19.6499 2.20001 16.9499V14.7499L2.50001 14.5499C2.70001 14.4499 6.90001 11.1499 21 11.1499H21.8V16.9499C21.7 19.6499 19.6 21.7499 17 21.7499ZM3.70001 15.5499V17.0499C3.70001 18.7499 5.20001 20.2499 7.00001 20.2499H17C18.8 20.2499 20.3 18.7499 20.3 16.9499V12.6499C9.30001 12.7499 4.80001 14.8499 3.70001 15.5499Z" fill="black"/>
<path d="M2.20001 16.65V6.95C2.20001 4.35 4.30001 2.25 7.00001 2.25H17C19.6 2.25 21.8 4.35 21.8 7.05V12.75H21C7.60001 12.75 3.50001 15.75 3.50001 15.75L2.20001 16.65ZM7.00001 3.75C5.20001 3.75 3.70001 5.25 3.70001 7.05V13.85C5.70001 12.85 10.5 11.25 20.2 11.15V7.05C20.2 5.25 18.7 3.75 16.9 3.75H7.00001Z" fill="black"/>
<path d="M7.5 9.05005C8.32843 9.05005 9 8.37848 9 7.55005C9 6.72162 8.32843 6.05005 7.5 6.05005C6.67157 6.05005 6 6.72162 6 7.55005C6 8.37848 6.67157 9.05005 7.5 9.05005Z" fill="black"/>
<path d="M7.50001 9.75C6.20001 9.75 5.20001 8.75 5.20001 7.55C5.20001 6.35 6.20001 5.25 7.50001 5.25C8.80001 5.25 9.80001 6.25 9.80001 7.55C9.80001 8.85 8.70001 9.75 7.50001 9.75ZM7.50001 6.75C7.10001 6.75 6.70001 7.05 6.70001 7.55C6.70001 8.05 7.00001 8.25 7.50001 8.25C8.00001 8.25 8.20001 7.95 8.20001 7.55C8.20001 7.15 7.90001 6.75 7.50001 6.75Z" fill="black"/>
</svg>
