<svg width="24" height="24" viewBox="0 0 24 24" fill="none" xmlns="http://www.w3.org/2000/svg">
<path fill-rule="evenodd" clip-rule="evenodd" d="M7 3.75C5.21421 3.75 3.75 5.21421 3.75 7V15C3.75 15.4142 3.41421 15.75 3 15.75C2.58579 15.75 2.25 15.4142 2.25 15V7C2.25 4.38579 4.38579 2.25 7 2.25H12C12.4142 2.25 12.75 2.58579 12.75 3C12.75 3.41421 12.4142 3.75 12 3.75H7Z" fill="black"/>
<path fill-rule="evenodd" clip-rule="evenodd" d="M21 8.25C21.4142 8.25 21.75 8.58579 21.75 9V17C21.75 18.3282 21.1488 19.5118 20.3303 20.3303C20.0374 20.6232 19.5626 20.6232 19.2697 20.3303C18.9768 20.0374 18.9768 19.5626 19.2697 19.2697C19.8511 18.6882 20.25 17.8718 20.25 17V9C20.25 8.58579 20.5858 8.25 21 8.25Z" fill="black"/>
<path d="M19.8 19.7999C19.1 20.4999 18.1 20.9999 17 20.9999H7C4.8 20.9999 3 19.1999 3 16.9999V15.0999L8.6 10.9999C9.4 10.3999 10.5 10.4999 11.2 11.1999L14.2 14.1999L19.8 19.7999Z" fill="black"/>
<path fill-rule="evenodd" clip-rule="evenodd" d="M10.6697 11.7304C10.2242 11.285 9.54093 11.2319 9.05 11.6001L9.04308 11.6053L3.75 15.4805V17.0001C3.75 18.7859 5.21421 20.2501 7 20.2501H17C17.6076 20.2501 18.1883 20.0563 18.6813 19.7421L10.6697 11.7304ZM8.15374 10.3973C9.26248 9.56861 10.7769 9.71627 11.7303 10.6697L20.8607 19.8001L20.3303 20.3304C19.5118 21.1489 18.3282 21.7501 17 21.7501H7C4.38579 21.7501 2.25 19.6143 2.25 17.0001V14.7197L8.15374 10.3973Z" fill="black"/>
<path fill-rule="evenodd" clip-rule="evenodd" d="M17.7988 13.8581C17.229 13.3645 16.5581 13.3583 16.0939 13.7645L16.0845 13.7727L14.7845 14.8726L13.8156 13.7275L15.1112 12.6313C16.2444 11.6442 17.7668 11.8369 18.7939 12.7357L18.8018 12.7426L21.5096 15.2498L20.4905 16.3504L17.7988 13.8581Z" fill="black"/>
<path fill-rule="evenodd" clip-rule="evenodd" d="M16.4 3.25C16.8142 3.25 17.15 3.58579 17.15 4V8.9C17.15 9.31421 16.8142 9.65 16.4 9.65C15.9858 9.65 15.65 9.31421 15.65 8.9V4C15.65 3.58579 15.9858 3.25 16.4 3.25Z" fill="black"/>
<path fill-rule="evenodd" clip-rule="evenodd" d="M13.25 6.3999C13.25 5.98569 13.5858 5.6499 14 5.6499H18.9C19.3142 5.6499 19.65 5.98569 19.65 6.3999C19.65 6.81412 19.3142 7.1499 18.9 7.1499H14C13.5858 7.1499 13.25 6.81412 13.25 6.3999Z" fill="black"/>
</svg>
