<svg width="24" height="24" viewBox="0 0 24 24" fill="none" xmlns="http://www.w3.org/2000/svg">
<path d="M19.8 19.7999C19.1 20.4999 18.1 20.9999 17 20.9999H7C4.8 20.9999 3 19.1999 3 16.9999V15.0999L8.6 10.9999C9.4 10.3999 10.5 10.4999 11.2 11.1999L14.2 14.1999L19.8 19.7999Z" fill="black"/>
<path fill-rule="evenodd" clip-rule="evenodd" d="M10.6697 11.7304C10.2242 11.285 9.54093 11.2319 9.05 11.6001L9.04308 11.6053L3.75 15.4805V17.0001C3.75 18.7859 5.21421 20.2501 7 20.2501H17C17.6076 20.2501 18.1883 20.0563 18.6813 19.7421L10.6697 11.7304ZM8.15374 10.3973C9.26248 9.56861 10.7769 9.71627 11.7303 10.6697L20.8607 19.8001L20.3303 20.3304C19.5118 21.1489 18.3282 21.7501 17 21.7501H7C4.38579 21.7501 2.25 19.6143 2.25 17.0001V14.7197L8.15374 10.3973Z" fill="black"/>
<path fill-rule="evenodd" clip-rule="evenodd" d="M17.7035 13.7621C17.1327 13.2644 16.4594 13.2571 15.9939 13.6644L15.9845 13.6726L15.3123 14.2412L19.7379 18.5877C20.0546 18.0934 20.25 17.5103 20.25 16.9V16.0358L17.7035 13.7621ZM15.0111 12.5312C16.1444 11.5441 17.6668 11.7368 18.6939 12.6356L18.6995 12.6405L21.75 15.3642V16.9C21.75 18.2281 21.1489 19.4118 20.3303 20.2303L19.8047 20.7559L13.0876 14.1587L15.0111 12.5312Z" fill="black"/>
<path fill-rule="evenodd" clip-rule="evenodd" d="M7 3.75C5.21421 3.75 3.75 5.21421 3.75 7V13.6214L8.15376 10.3972C9.2625 9.56853 10.7769 9.7162 11.7303 10.6697L14.2424 13.1817L15.0324 12.5132L15.05 12.5C16.0956 11.7158 17.7136 11.6648 18.7196 12.659L20.25 14.0801V7C20.25 5.12646 18.7981 3.75 17 3.75H7ZM2.25 7C2.25 4.38579 4.38579 2.25 7 2.25H17C19.6019 2.25 21.75 4.27354 21.75 7V17.5199L17.6795 13.7401L17.6697 13.7303C17.2787 13.3393 16.5154 13.288 15.9658 13.6883L14.1576 15.2183L10.6697 11.7303C10.2242 11.2849 9.54093 11.2318 9.05 11.6L9.04308 11.6052L2.25 16.5786V7Z" fill="black"/>
</svg>
