<svg xmlns="http://www.w3.org/2000/svg" fill="none" viewBox="0 0 24 24">
  <path fill="#000" d="M8.357 9.043C9.17 7.26 10.953 6.15 13 6.15c1.284 0 2.453.467 3.381 1.275 1.172.944 1.869 2.454 1.869 3.875 0 2.211-1.443 4.074-3.33 4.868-.368 3.225-3.017 5.782-6.42 5.782-4.646 0-8.126-4.878-5.571-9.785 1.011-2.12 3.244-3.113 5.428-3.122m1.273.845a.82.82 0 0 1-.555.61c-.17.057-.348.053-.372.052h-.039c-1.895-.091-3.653.723-4.386 2.271l-.006.013-.007.013C2.232 16.736 4.95 20.45 8.5 20.45c2.68 0 4.77-2.067 4.95-4.686a.9.9 0 0 1 .1-.37v-.335l.513-.17c1.529-.51 2.687-1.948 2.687-3.59 0-.973-.498-2.057-1.319-2.713l-.012-.01-.013-.012A3.6 3.6 0 0 0 13 7.65c-1.578 0-2.866.89-3.37 2.238M8.5 14.15c-.71 0-1.35.587-1.35 1.35 0 .823.844 1.536 1.744 1.279.445-.127.845-.523.98-.966.17-.802-.538-1.663-1.374-1.663M5.65 15.5c0-1.637 1.36-2.85 2.85-2.85 1.758 0 3.245 1.725 2.83 3.519l-.004.018-.005.019a3 3 0 0 1-2.015 2.015c-1.9.543-3.656-.945-3.656-2.721"/>
  <path fill="#000" d="M8.5 14.15c-.71 0-1.35.587-1.35 1.35 0 .823.844 1.536 1.744 1.279.398-.114.74-.477.885-.985.246-.861-.413-1.644-1.279-1.644M5.65 15.5c0-1.637 1.36-2.85 2.85-2.85 1.734 0 3.275 1.617 2.721 3.556-.255.892-.913 1.729-1.915 2.015-1.9.543-3.656-.945-3.656-2.721M21.73 2.27a.75.75 0 0 1 0 1.06l-5.2 5.2a.75.75 0 1 1-1.06-1.06l5.2-5.2a.75.75 0 0 1 1.06 0"/>
</svg>
