<svg xmlns="http://www.w3.org/2000/svg" fill="none" viewBox="0 0 24 24">
  <path fill="#000" d="M5.1 7.4c-.586 0-1.05.464-1.05 1.05v9.5c0 .586.464 1.05 1.05 1.05h13.8c.586 0 1.05-.464 1.05-1.05v-9.5c0-.586-.464-1.05-1.05-1.05h-1.6a.75.75 0 0 1 0-1.5h1.6a2.543 2.543 0 0 1 2.55 2.55v9.5a2.543 2.543 0 0 1-2.55 2.55H5.1a2.543 2.543 0 0 1-2.55-2.55v-9.5A2.54 2.54 0 0 1 5.1 5.9h1.6a.75.75 0 0 1 0 1.5z"/>
  <path fill="#000" d="M9.85 6.65a.75.75 0 0 1 .75-.75h2.8a.75.75 0 0 1 0 1.5h-2.8a.75.75 0 0 1-.75-.75"/>
  <path fill="#000" d="M10.6 5.55v4.9c0 .8-.6 1.4-1.4 1.4H8.1c-.8-.1-1.4-.7-1.4-1.4v-4.9c0-.8.6-1.4 1.4-1.4h1.2c.7.1 1.3.7 1.3 1.4"/>
  <path fill="#000" d="M8.1 4.9c-.386 0-.65.264-.65.65v4.9c0 .235.22.573.702.65H9.2c.386 0 .65-.264.65-.65v-4.9c0-.258-.245-.577-.612-.65zm-2.15.65c0-1.214.936-2.15 2.15-2.15h1.253l.053.007c1.009.145 1.944 1.011 1.944 2.143v4.9c0 1.214-.936 2.15-2.15 2.15H8.053l-.046-.006c-1.09-.136-2.057-.986-2.057-2.144zm11.35 0v4.9c0 .8-.6 1.4-1.4 1.4h-1.2c-.8 0-1.4-.6-1.4-1.4v-4.9c0-.8.6-1.4 1.4-1.4h1.2c.8.1 1.4.7 1.4 1.4"/>
  <path fill="#000" d="M14.7 4.9c-.386 0-.65.264-.65.65v4.9c0 .386.264.65.65.65h1.2c.386 0 .65-.264.65-.65v-4.9c0-.235-.22-.573-.702-.65zm-2.15.65c0-1.214.936-2.15 2.15-2.15h1.247l.046.006c1.09.136 2.057.986 2.057 2.144v4.9c0 1.214-.936 2.15-2.15 2.15h-1.2a2.117 2.117 0 0 1-2.15-2.15zM8.7 11a.75.75 0 0 1 .75.75v8a.75.75 0 0 1-1.5 0v-8A.75.75 0 0 1 8.7 11"/>
  <path fill="#000" d="M15.4 11a.75.75 0 0 1 .75.75v8a.75.75 0 0 1-1.5 0v-8a.75.75 0 0 1 .75-.75"/>
</svg>
