<svg xmlns="http://www.w3.org/2000/svg" fill="none" viewBox="0 0 24 24">
  <path fill="#000" d="m11.65 18.85-.2.3c-.6.6-1.6.6-2.2 0l-4.4-4.4c-.6-.6-.6-1.6 0-2.2l.2-.2c.6-.6 1.6-.6 2.2 0l4.4 4.4c.6.6.6 1.5 0 2.1"/>
  <path fill="#000" d="m5.58 12.88-.2.2a.82.82 0 0 0 0 1.14l4.4 4.4a.82.82 0 0 0 1.094.041l.193-.289.053-.052c.307-.307.307-.733 0-1.04l-4.4-4.4a.82.82 0 0 0-1.14 0m-1.06-1.06a2.32 2.32 0 0 1 3.26 0l4.4 4.4c.874.873.893 2.209.057 3.102l-.204.306-.053.052a2.32 2.32 0 0 1-3.26 0l-4.4-4.4a2.32 2.32 0 0 1 0-3.26zm14.63-.37-.2.2c-.6.6-1.6.6-2.2 0l-4.5-4.4c-.6-.6-.6-1.6 0-2.2l.2-.2c.6-.6 1.6-.6 2.2 0l4.4 4.4c.7.6.7 1.6.1 2.2"/>
  <path fill="#000" d="M14.12 5.38a.82.82 0 0 0-1.14 0l-.2.2a.82.82 0 0 0-.002 1.137l4.502 4.403a.82.82 0 0 0 1.14 0l.2-.2a.74.74 0 0 0-.058-1.1l-.022-.02zm-2.2-1.06a2.32 2.32 0 0 1 3.26 0l-.147 1.787m4.529 2.594L15.18 4.32zm0 0a2.237 2.237 0 0 1 .118 3.28l-.2.2a2.32 2.32 0 0 1-3.257.003L11.72 7.78a2.32 2.32 0 0 1 0-3.26l.2-.2"/>
  <path fill="#000" d="m20.35 7.85-.2.2c-.6.6-1.6.6-2.2 0l-2-2c-.6-.6-.6-1.6 0-2.2l.2-.2c.6-.6 1.6-.6 2.2 0l2 2c.6.6.6 1.6 0 2.2"/>
  <path fill="#000" d="M17.82 4.18a.82.82 0 0 0-1.14 0l-.2.2a.82.82 0 0 0 0 1.14l2 2a.82.82 0 0 0 1.14 0l.2-.2a.82.82 0 0 0 0-1.14zm-2.2-1.06a2.32 2.32 0 0 1 3.26 0l2 2a2.32 2.32 0 0 1 0 3.26l-.2.2a2.32 2.32 0 0 1-3.26 0l-2-2a2.32 2.32 0 0 1 0-3.26zM8.05 20.05l-.2.2c-.6.6-1.6.6-2.2 0l-2-2c-.6-.6-.6-1.6 0-2.2l.2-.2c.6-.6 1.6-.6 2.2 0l2 2c.6.7.6 1.6 0 2.2"/>
  <path fill="#000" d="m4.38 16.38-.2.2a.82.82 0 0 0 0 1.14l2 2a.82.82 0 0 0 1.14 0l.2-.2c.282-.283.339-.726-.023-1.162L5.52 16.38a.82.82 0 0 0-1.14 0m-1.06-1.06a2.32 2.32 0 0 1 3.26 0l2.02 2.02.02.022c.82.957.874 2.305-.04 3.218l-.2.2a2.32 2.32 0 0 1-3.26 0l-2-2a2.32 2.32 0 0 1 0-3.26zm6.7-.2 5.1-5.1 1.06 1.06-5.1 5.1zm-2.2-2.2 5.1-5.1 1.06 1.06-5.1 5.1z"/>
</svg>
