<svg xmlns="http://www.w3.org/2000/svg" fill="none" viewBox="0 0 24 24">
  <path fill="#000" d="m4.05 6.45 5.3 11.3c.5 1.1 1.6 1.7 2.7 1.7h4.4c1 0 1.8-.7 2-1.6l.4-2.2c.1-.6-.3-1.2-1-1.2h-6.1q-.6 0-.9-.6l-4.4-8.6c-.2-.5-.7-.7-1.2-.7-1 0-1.6 1-1.2 1.9"/>
  <path fill="#000" d="M3.365 6.755C2.76 5.394 3.669 3.8 5.25 3.8c.657 0 1.514.268 1.882 1.136l4.389 8.579c.055.11.102.149.12.161.014.009.04.024.109.024h6.1c1.227 0 1.905 1.081 1.74 2.073l-.002.011-.403 2.214-.003.015A2.79 2.79 0 0 1 16.45 20.2h-4.4c-1.359 0-2.745-.74-3.38-2.135L3.367 6.762l-.003-.007Zm1.368-.615 5.3 11.3c.365.802 1.177 1.26 2.017 1.26h4.4c.629 0 1.133-.435 1.265-1l.396-2.177a.3.3 0 0 0-.053-.237c-.033-.042-.089-.086-.208-.086h-6.1c-.331 0-.655-.085-.941-.276a1.9 1.9 0 0 1-.628-.735L5.766 5.56l-.012-.032a.28.28 0 0 0-.142-.154.8.8 0 0 0-.362-.075c-.418 0-.707.403-.517.84Zm13.917 5.41h-1c-.8 0-1.5-.7-1.5-1.5s.7-1.5 1.5-1.5h1c.8 0 1.5.7 1.5 1.5s-.7 1.5-1.5 1.5"/>
  <path fill="#000" d="M17.65 9.3c-.386 0-.75.364-.75.75s.364.75.75.75h1c.386 0 .75-.364.75-.75s-.364-.75-.75-.75zm-2.25.75c0-1.214 1.036-2.25 2.25-2.25h1c1.214 0 2.25 1.036 2.25 2.25s-1.036 2.25-2.25 2.25h-1c-1.214 0-2.25-1.036-2.25-2.25"/>
</svg>
