<svg xmlns="http://www.w3.org/2000/svg" fill="none" viewBox="0 0 24 24">
  <path fill="#000" d="M18.87 5.13c-1.307-1.307-3.333-1.307-4.64 0l-1.223 1.224 4.598 4.68L18.87 9.77c1.307-1.308 1.307-3.333 0-4.64m-.733 7.494 1.793-1.794c1.893-1.893 1.893-4.868 0-6.76-1.892-1.893-4.867-1.893-6.76 0l-9.1 9.1c-1.89 1.89-1.893 4.858-.009 6.752 1.807 1.917 4.89 1.888 6.77.008l1.688-1.689.016-.015.006-.006 5.583-5.584.002-.001zm-1.593-.529-4.598-4.68-4.631 4.63 4.68 4.599zM5.13 14.23l1.124-1.124 4.68 4.599L9.77 18.87c-1.317 1.316-3.428 1.291-4.623.017l-.008-.009-.009-.008c-1.307-1.308-1.307-3.333 0-4.64"/>
  <path fill="#000" d="M10.905 11.981c-.1 0-.2-.1-.3-.1s-.2-.1-.2-.2c-.2-.1-.2-.3-.2-.5 0-.1 0-.2.1-.3s.1-.2.2-.2c.1-.2.4-.3.7-.2.1 0 .2.1.2.2.1 0 .1.1.2.2s.1.2.1.3c0 .2-.1.4-.2.5q-.3.3-.6.3m2 2c-.2 0-.4-.1-.5-.2s-.1-.2-.2-.2c0-.1-.1-.2-.1-.3s0-.2.1-.3c0-.1.1-.2.2-.2s.1-.3.2-.3q.3-.15.6 0c.1 0 .2.1.2.2.1.1.1.2.2.2 0 .1.1.2.1.3s0 .2-.1.3c0 .1-.1.2-.2.2-.1.2-.3.3-.5.3"/>
</svg>
