<svg xmlns="http://www.w3.org/2000/svg" fill="none" viewBox="0 0 24 24">
  <path fill="#000" d="m12.05 17.7-1.7 1.7c-1.6 1.6-4.1 1.6-5.7 0s-1.6-4.1 0-5.7l1.7-1.7z"/>
  <path fill="#000" d="m6.35 10.94 6.76 6.76-2.23 2.23c-1.893 1.893-4.867 1.893-6.76 0-1.893-1.892-1.893-4.867 0-6.76zm0 2.12-1.17 1.17c-1.307 1.307-1.307 3.333 0 4.64s3.333 1.307 4.64 0l1.17-1.17z"/>
  <path fill="#000" d="m5.332 12 6.718-6.717L18.767 12l-6.717 6.717zm2.122 0 4.596 4.596L16.646 12 12.05 7.404z"/>
  <path fill="#000" d="M20.55 7.5c0 1-.4 2-1.2 2.8l-1.6 1.7-5.7-5.7 1.7-1.7c1.6-1.6 4.1-1.6 5.7 0 .8.8 1.1 1.8 1.1 2.9"/>
  <path fill="#000" d="M18.92 5.13c-1.307-1.307-3.333-1.307-4.64 0L13.11 6.3l4.624 4.623 1.078-1.145.008-.008c.663-.664.98-1.475.98-2.27 0-.956-.256-1.745-.88-2.37m-5.7-1.06c1.893-1.893 4.867-1.893 6.76 0 .976.975 1.32 2.186 1.32 3.43 0 1.202-.48 2.387-1.411 3.322l-2.123 2.255L10.99 6.3zm-2.17 7.73c-.1 0-.2-.1-.3-.1s-.2-.1-.2-.2c-.2-.1-.2-.3-.2-.5 0-.1 0-.2.1-.3s.1-.2.2-.2c.1-.2.4-.3.7-.2.1 0 .2.1.2.2.1 0 .1.1.2.2s.1.2.1.3c0 .2-.1.4-.2.5q-.3.3-.6.3m2 2c-.2 0-.4-.1-.5-.2s-.1-.2-.2-.2c0-.1-.1-.2-.1-.3s0-.2.1-.3c0-.1.1-.2.2-.2s.1-.3.2-.3q.3-.15.6 0c.1 0 .2.1.2.2.1.1.1.2.2.2 0 .1.1.2.1.3s0 .2-.1.3c0 .1-.1.2-.2.2-.1.2-.3.3-.5.3"/>
</svg>
