<svg xmlns="http://www.w3.org/2000/svg" viewBox="0 0 24 24" fill="currentColor">
  <path d="M9 3.75C6.11421 3.75 3.75 6.11421 3.75 9v6c0 2.8858 2.36421 5.25 5.25 5.25h6c2.8858 0 5.25-2.3642 5.25-5.25V9c0-2.88579-2.3642-5.25-5.25-5.25H9ZM2.25 9c0-3.71421 3.03579-6.75 6.75-6.75h6c3.7142 0 6.75 3.03579 6.75 6.75v6c0 3.7142-3.0358 6.75-6.75 6.75H9c-3.71421 0-6.75-3.0358-6.75-6.75V9Zm6 3c0-.4142.33579-.75.75-.75h2.25V9c0-.41421.3358-.75.75-.75s.75.33579.75.75v2.25H15c.4142 0 .75.3358.75.75s-.3358.75-.75.75h-2.25V15c0 .4142-.3358.75-.75.75s-.75-.3358-.75-.75v-2.25H9c-.41421 0-.75-.3358-.75-.75Z"/>
</svg>
