<svg xmlns="http://www.w3.org/2000/svg" fill="none" viewBox="0 0 24 24">
  <path fill="#000" d="M8.8 8.8V4c0-.7.6-1.3 1.3-1.3h3.4c.7 0 1.3.6 1.3 1.3v4.8"/>
  <path fill="#000" fill-rule="evenodd" d="M10.1 3.45a.575.575 0 0 0-.55.55v4.8a.75.75 0 1 1-1.5 0V4c0-1.114.936-2.05 2.05-2.05h3.4c1.114 0 2.05.936 2.05 2.05v4.8a.75.75 0 0 1-1.5 0V4a.575.575 0 0 0-.55-.55h-3.4Z" clip-rule="evenodd"/>
  <path fill="#000" d="M14.7 14.7v4.8c0 .7-.6 1.3-1.3 1.3h-3.3c-.7 0-1.3-.6-1.3-1.3v-4.8"/>
  <path fill="#000" fill-rule="evenodd" d="M8.8 13.95a.75.75 0 0 1 .75.75v4.8c0 .286.264.55.55.55h3.3c.286 0 .55-.264.55-.55v-4.8a.75.75 0 1 1 1.5 0v4.8c0 1.114-.936 2.05-2.05 2.05h-3.3a2.073 2.073 0 0 1-2.05-2.05v-4.8a.75.75 0 0 1 .75-.75Z" clip-rule="evenodd"/>
  <path fill="#000" d="M14.7 8.8h4.8c.7 0 1.3.6 1.3 1.3v3.4c0 .7-.6 1.3-1.3 1.3h-4.8"/>
  <path fill="#000" fill-rule="evenodd" d="M13.95 8.8a.75.75 0 0 1 .75-.75h4.8c1.114 0 2.05.936 2.05 2.05v3.4c0 1.114-.936 2.05-2.05 2.05h-4.8a.75.75 0 0 1 0-1.5h4.8c.286 0 .55-.264.55-.55v-3.4a.575.575 0 0 0-.55-.55h-4.8a.75.75 0 0 1-.75-.75Z" clip-rule="evenodd"/>
  <path fill="#000" d="M14.7 8.8H8.8v5.9h5.9V8.8Z"/>
  <path fill="#000" fill-rule="evenodd" d="M8.05 8.05h7.4v7.4h-7.4v-7.4Zm1.5 1.5v4.4h4.4v-4.4h-4.4Z" clip-rule="evenodd"/>
  <path fill="#000" d="M8.8 8.8v5.9H4c-.7 0-1.3-.6-1.3-1.3v-3.3c0-.7.6-1.3 1.3-1.3h4.8Z"/>
  <path fill="#000" fill-rule="evenodd" d="M4 9.55a.575.575 0 0 0-.55.55v3.3c0 .286.264.55.55.55h4.05v-4.4H4Zm-2.05.55c0-1.114.936-2.05 2.05-2.05h5.55v7.4H4a2.073 2.073 0 0 1-2.05-2.05v-3.3Z" clip-rule="evenodd"/>
</svg>
