<svg width="24" height="24" viewBox="0 0 24 24" fill="none" xmlns="http://www.w3.org/2000/svg">
<path d="M8.79999 8.79995V3.99995C8.79999 3.29995 9.39999 2.69995 10.1 2.69995H13.5C14.2 2.69995 14.8 3.29995 14.8 3.99995V8.79995" fill="black"/>
<path fill-rule="evenodd" clip-rule="evenodd" d="M10.1 3.44995C9.8142 3.44995 9.54999 3.71416 9.54999 3.99995V8.79995C9.54999 9.21417 9.2142 9.54995 8.79999 9.54995C8.38577 9.54995 8.04999 9.21417 8.04999 8.79995V3.99995C8.04999 2.88574 8.98577 1.94995 10.1 1.94995H13.5C14.6142 1.94995 15.55 2.88574 15.55 3.99995V8.79995C15.55 9.21417 15.2142 9.54995 14.8 9.54995C14.3858 9.54995 14.05 9.21417 14.05 8.79995V3.99995C14.05 3.71416 13.7858 3.44995 13.5 3.44995H10.1Z" fill="black"/>
<path d="M14.7 14.7V19.5C14.7 20.2 14.1 20.8 13.4 20.8H10.1C9.39999 20.8 8.79999 20.2 8.79999 19.5V14.7" fill="black"/>
<path fill-rule="evenodd" clip-rule="evenodd" d="M8.79999 13.95C9.2142 13.95 9.54999 14.2857 9.54999 14.7V19.5C9.54999 19.7857 9.8142 20.05 10.1 20.05H13.4C13.6858 20.05 13.95 19.7857 13.95 19.5V14.7C13.95 14.2857 14.2858 13.95 14.7 13.95C15.1142 13.95 15.45 14.2857 15.45 14.7V19.5C15.45 20.6142 14.5142 21.55 13.4 21.55H10.1C8.98578 21.55 8.04999 20.6142 8.04999 19.5V14.7C8.04999 14.2857 8.38577 13.95 8.79999 13.95Z" fill="black"/>
<path d="M14.7 8.79993H19.5C20.2 8.79993 20.8 9.39993 20.8 10.0999V13.4999C20.8 14.1999 20.2 14.7999 19.5 14.7999H14.7" fill="black"/>
<path fill-rule="evenodd" clip-rule="evenodd" d="M13.95 8.79993C13.95 8.38571 14.2858 8.04993 14.7 8.04993H19.5C20.6142 8.04993 21.55 8.98571 21.55 10.0999V13.4999C21.55 14.6141 20.6142 15.5499 19.5 15.5499H14.7C14.2858 15.5499 13.95 15.2141 13.95 14.7999C13.95 14.3857 14.2858 14.0499 14.7 14.0499H19.5C19.7858 14.0499 20.05 13.7857 20.05 13.4999V10.0999C20.05 9.81414 19.7858 9.54993 19.5 9.54993H14.7C14.2858 9.54993 13.95 9.21414 13.95 8.79993Z" fill="black"/>
<path d="M14.7 8.79993H8.79999V14.6999H14.7V8.79993Z" fill="black"/>
<path fill-rule="evenodd" clip-rule="evenodd" d="M8.04999 8.04993H15.45V15.4499H8.04999V8.04993ZM9.54999 9.54993V13.9499H13.95V9.54993H9.54999Z" fill="black"/>
<path d="M8.80001 8.79993V14.6999H4.00001C3.30001 14.6999 2.70001 14.0999 2.70001 13.3999V10.0999C2.70001 9.39993 3.30001 8.79993 4.00001 8.79993H8.80001Z" fill="black"/>
<path fill-rule="evenodd" clip-rule="evenodd" d="M4.00001 9.54993C3.71423 9.54993 3.45001 9.81414 3.45001 10.0999V13.3999C3.45001 13.6857 3.71423 13.9499 4.00001 13.9499H8.05001V9.54993H4.00001ZM1.95001 10.0999C1.95001 8.98571 2.8858 8.04993 4.00001 8.04993H9.55001V15.4499H4.00001C2.8858 15.4499 1.95001 14.5141 1.95001 13.3999V10.0999Z" fill="black"/>
</svg>
