<svg xmlns="http://www.w3.org/2000/svg" viewBox="0 0 24 24" fill="currentColor">
  <path d="M8.05005 2.09998c-2.61421 0-4.75 2.13578-4.75 4.75 0 .89626.25046 1.70399.66709 2.41573-.0672.2925-.06716.52976-.06711.76619v.0555l.60373 6.0372C4.64272 17.5143 5.87103 18.6 7.25004 18.6s2.60735-1.0857 2.74631-2.4754l.46445-5.2017c1.3514-.798 2.3392-2.33014 2.3392-4.07292 0-2.61422-2.1357-4.75-4.74995-4.75ZM10.019 9.41402c.7534-.58134 1.281-1.52503 1.281-2.56404 0-1.78579-1.46416-3.25-3.24995-3.25-1.78579 0-3.25 1.46421-3.25 3.25 0 .72237.23795 1.37278.66032 1.96409l-.06629.04735C5.94786 9.62195 6.89506 10.1 7.95005 10.1c.63917 0 1.08158-.0936 1.41411-.29308l.65484-.3929ZM5.99631 15.9754l-.50421-5.0421c.72602.4321 1.57728.6667 2.45795.6667.31958 0 .63859-.0188.95059-.0702l-.39723 4.449c-.06285.6089-.63356 1.1212-1.25337 1.1212-.62099 0-1.19269-.5143-1.25373-1.1246ZM13.2001 12.85c0-2.1142 1.6358-3.75002 3.75-3.75002 2.1142 0 3.75 1.63582 3.75 3.75002 0 .7113-.1722 1.3645-.5287 1.9361.0295.1776.029.3317.0287.4358v.0614l-.4042 4.5464-.0016.0133c-.1406 1.1242-1.0167 2.057-2.2442 2.057-1.2276 0-2.1037-.9328-2.2443-2.057l-.0013-.0109-.3643-3.8248c-1.0316-.6656-1.7401-1.806-1.7401-3.1573Zm2.78 2.0265.0054.0027c.2841.142.6671.2208.9646.2208.7573 0 1.4302-.3826 1.7897-.8859l.1612-.2257c.1955-.3154.2991-.6874.2991-1.1384 0-1.2858-.9642-2.25-2.25-2.25s-2.25.9642-2.25 2.25c0 .8886.5137 1.641 1.28 2.0265Zm.97 1.7235c.5936 0 1.1609-.1409 1.6613-.3858l-.3071 3.4544c-.0632.4685-.3849.7314-.7542.7314-.37 0-.692-.2637-.7546-.7334l-.2949-3.0961c.1558.0198.3072.0295.4495.0295Z"/>
</svg>
