<svg xmlns="http://www.w3.org/2000/svg" viewBox="0 0 24 24" fill="currentColor">
  <path d="M8 2.09998c-2.61421 0-4.75 2.13578-4.75 4.75 0 1.6824.84888 3.20352 2.23501 4.02552l.46794 5.2412.00079.0079C6.09271 17.5143 7.32101 18.6 8.70002 18.6c1.37898 0 2.60728-1.0857 2.74628-2.4754l.6037-6.0372v-.0555c.0001-.20214.0001-.40488-.0419-.64224.4613-.74148.7419-1.59099.7419-2.53968 0-2.61422-2.1358-4.75-4.75-4.75Zm2.637 6.64657-.0473.06752-.0041.00586C10.0364 9.60453 9.07405 10.1 8.00001 10.1c-.63918 0-1.08158-.0936-1.41412-.29308l-.00816-.0049.01773-.04137C5.48608 9.28521 4.75 8.16646 4.75 6.84998c0-1.78579 1.46421-3.25 3.25-3.25s3.25 1.46421 3.25 3.25c0 .695-.2202 1.32337-.613 1.89657ZM8.00001 11.6c.88066 0 1.73193-.2346 2.45799-.6667l-.50426 5.0421C9.8927 16.5857 9.32101 17.1 8.70002 17.1c-.61982 0-1.19054-.5123-1.25337-1.1212l-.39724-4.449c.312.0514.63101.0702.9506.0702ZM13.25 12.85c0-2.1142 1.6358-3.75002 3.75-3.75002 2.1142 0 3.75 1.63582 3.75 3.75002 0 1.3513-.7085 2.4917-1.7401 3.1573l-.3643 3.8248-.0014.0109C18.5037 20.9672 17.6276 21.9 16.4 21.9c-1.2276 0-2.1037-.9328-2.2442-2.057l-.0016-.0133-.4042-4.5464V15.25l-.0001-.0281c-.0003-.1041-.0007-.2582.0288-.4358-.3565-.5716-.5287-1.2248-.5287-1.9361Zm1.7991 1.1384.1612.2257c.3595.5033 1.0324.8859 1.7897.8859.2975 0 .6805-.0788.9646-.2208l.0055-.0028c.7663-.3855 1.2799-1.1379 1.2799-2.0264 0-1.2858-.9642-2.25-2.25-2.25s-2.25.9642-2.25 2.25c0 .451.1036.823.2991 1.1384Zm.5966 5.6802-.307-3.4544c.5004.2449 1.0677.3858 1.6613.3858.1423 0 .2937-.0097.4494-.0295l-.2948 3.0961c-.0626.4697-.3847.7334-.7546.7334-.3693 0-.691-.2629-.7543-.7314Z"/>
</svg>
