<svg xmlns="http://www.w3.org/2000/svg" viewBox="0 0 24 24" fill="currentColor">
  <path d="M12 3.75c-2.61421 0-4.75 2.13579-4.75 4.75 0 .89627.25047 1.704.66709 2.4157-.0672.2925-.06716.5298-.06711.7662v.0555l.60373 6.0373C8.59267 19.1643 9.82098 20.25 11.2 20.25c1.379 0 2.6073-1.0857 2.7463-2.4753l.4644-5.2018c1.3514-.798 2.3393-2.3301 2.3393-4.0729 0-2.61421-2.1358-4.75-4.75-4.75Zm1.969 7.314c.7533-.5814 1.281-1.52501 1.281-2.564 0-1.78579-1.4642-3.25-3.25-3.25S8.75 6.71421 8.75 8.5c0 .72237.23795 1.37271.66032 1.964l-.06629.0474C9.89783 11.2719 10.845 11.75 11.9 11.75h.0533l.0528.0076c.4845.0692.9114-.0628 1.308-.3007l.6549-.3929Zm-4.02274 6.5614-.50422-5.0421c.71166.4235 1.54366.6574 2.40576.6665.3553.0449.6888.03.9989-.0267l-.3933 4.4058c-.0629.6088-.6336 1.1211-1.2534 1.1211-.621 0-1.1927-.5142-1.25374-1.1246Z"/>
</svg>
