<svg xmlns="http://www.w3.org/2000/svg" fill="none" viewBox="0 0 24 24">
  <path fill="#000" d="M11.6 20.3a7.9 7.9 0 1 0 0-15.8 7.9 7.9 0 0 0 0 15.8Z"/>
  <path fill="#000" fill-rule="evenodd" d="M11.6 5.25a7.15 7.15 0 1 0 0 14.3 7.15 7.15 0 0 0 0-14.3ZM2.95 12.4a8.65 8.65 0 1 1 17.3 0 8.65 8.65 0 0 1-17.3 0Zm2.88-9.13a.75.75 0 0 1 0 1.06l-1.5 1.5a.75.75 0 0 1-1.06-1.06l1.5-1.5a.75.75 0 0 1 1.06 0Z" clip-rule="evenodd"/>
  <path fill="#000" fill-rule="evenodd" d="M7.447 18.587a.75.75 0 0 1-.034 1.06l-1.6 1.5a.75.75 0 0 1-1.026-1.094l1.6-1.5a.75.75 0 0 1 1.06.034Zm9.906-15.3a.75.75 0 0 1 1.06-.034l1.6 1.5a.75.75 0 1 1-1.026 1.094l-1.6-1.5a.75.75 0 0 1-.034-1.06Zm-1.6 15.3a.75.75 0 0 1 1.06-.034l1.6 1.5a.75.75 0 0 1-1.026 1.094l-1.6-1.5a.75.75 0 0 1-.034-1.06Z" clip-rule="evenodd"/>
  <path fill="#fff" d="m11.5 14.7-1.7.9c-.2.1-.4-.1-.4-.3l.3-1.8c0-.1 0-.2-.1-.2l-1.2-1.4c-.2-.1-.1-.4.1-.4l1.8-.3c.1 0 .2-.1.2-.1l.8-1.7c.1-.2.4-.2.5 0l.8 1.7c0 .1.1.1.2.1l1.8.3c.2 0 .3.3.1.4l-1.3 1.3c-.1.1-.1.1-.1.2l.3 1.8c0 .2-.2.4-.4.3l-1.7-.9c.2 0 .1 0 0 .1Z"/>
  <path fill="#fff" fill-rule="evenodd" d="m11.55 10.63.333.708a.822.822 0 0 0 .542.561c.118.04.24.049.313.05l.73.123-.598.598-.005.005c-.02.02-.052.052-.08.083a.861.861 0 0 0-.23.508 1.309 1.309 0 0 0-.005.13v.066l.154.927-.526-.279a.755.755 0 0 0-.089-.085c-.136-.112-.276-.144-.308-.152h-.002a.838.838 0 0 0-.113-.018 1.846 1.846 0 0 0-.156-.005h-1.108l.048-.288v-.065c0-.024.005-.203-.051-.372a.84.84 0 0 0-.34-.442l-.512-.597.84-.14c.231-.023.4-.127.466-.172a1.209 1.209 0 0 0 .154-.121l.013-.013.006-.005.002-.002.001-.002h.001l-.53-.531.53.53.093-.092.427-.908Zm-1.595-.133.67-1.424.004-.008c.377-.753 1.465-.753 1.842 0l.004.008.67 1.424 1.537.256c.465.038.75.395.84.704.091.32.02.768-.35 1.032l-1.083 1.083.261 1.566v.062c0 .335-.159.642-.395.839a.995.995 0 0 1-1.09.132l-.008-.004-1.262-.668-1.452.768-.008.004a.994.994 0 0 1-1.09-.132 1.102 1.102 0 0 1-.395-.839v-.062l.199-1.193-.369-.195h.401l.033-.198-1.017-1.186c-.344-.267-.407-.697-.318-1.01.088-.308.374-.665.84-.703l1.536-.256Z" clip-rule="evenodd"/>
</svg>
