<svg xmlns="http://www.w3.org/2000/svg" fill="none" viewBox="0 0 24 24">
  <path fill="#000" d="M11.6 20.3a7.9 7.9 0 1 0 0-15.8 7.9 7.9 0 0 0 0 15.8Z"/>
  <path fill="#000" fill-rule="evenodd" d="M11.6 5.25a7.15 7.15 0 1 0 0 14.3 7.15 7.15 0 0 0 0-14.3ZM2.95 12.4a8.65 8.65 0 1 1 17.3 0 8.65 8.65 0 0 1-17.3 0Z" clip-rule="evenodd"/>
  <path fill="#fff" fill-rule="evenodd" d="M11.1 7.75a.75.75 0 0 1 .75.75v4c0 .156.086.375.28.57l1.9 1.9a.75.75 0 1 1-1.06 1.06l-1.9-1.9c-.406-.405-.72-.986-.72-1.63v-4a.75.75 0 0 1 .75-.75Z" clip-rule="evenodd"/>
  <path fill="#000" fill-rule="evenodd" d="M5.83 3.27a.75.75 0 0 1 0 1.06l-1.5 1.5a.75.75 0 0 1-1.06-1.06l1.5-1.5a.75.75 0 0 1 1.06 0Zm1.617 15.317a.75.75 0 0 1-.034 1.06l-1.6 1.5a.75.75 0 0 1-1.026-1.094l1.6-1.5a.75.75 0 0 1 1.06.034Zm9.906-15.3a.75.75 0 0 1 1.06-.034l1.6 1.5a.75.75 0 0 1-1.026 1.094l-1.6-1.5a.75.75 0 0 1-.034-1.06Zm-1.6 15.3a.75.75 0 0 1 1.06-.034l1.6 1.5a.75.75 0 0 1-1.026 1.094l-1.6-1.5a.75.75 0 0 1-.034-1.06Z" clip-rule="evenodd"/>
</svg>
