<svg width="24" height="24" viewBox="0 0 24 24" fill="none" xmlns="http://www.w3.org/2000/svg">
<path d="M11.6 20.3C15.9631 20.3 19.5 16.763 19.5 12.4C19.5 8.03695 15.9631 4.5 11.6 4.5C7.23696 4.5 3.70001 8.03695 3.70001 12.4C3.70001 16.763 7.23696 20.3 11.6 20.3Z" fill="black"/>
<path fill-rule="evenodd" clip-rule="evenodd" d="M11.6 5.25C7.65118 5.25 4.45001 8.45116 4.45001 12.4C4.45001 16.3488 7.65118 19.55 11.6 19.55C15.5488 19.55 18.75 16.3488 18.75 12.4C18.75 8.45116 15.5488 5.25 11.6 5.25ZM2.95001 12.4C2.95001 7.62274 6.82275 3.75 11.6 3.75C16.3773 3.75 20.25 7.62274 20.25 12.4C20.25 17.1773 16.3773 21.05 11.6 21.05C6.82275 21.05 2.95001 17.1773 2.95001 12.4Z" fill="black"/>
<path fill-rule="evenodd" clip-rule="evenodd" d="M5.83032 3.26972C6.12321 3.56261 6.12321 4.03749 5.83032 4.33038L4.33032 5.83038C4.03742 6.12327 3.56255 6.12327 3.26966 5.83038C2.97676 5.53749 2.97676 5.06261 3.26966 4.76972L4.76966 3.26972C5.06255 2.97683 5.53742 2.97683 5.83032 3.26972Z" fill="black"/>
<path fill-rule="evenodd" clip-rule="evenodd" d="M7.44714 18.5871C7.73044 18.8893 7.71513 19.364 7.41295 19.6473L5.81295 21.1473C5.51076 21.4306 5.03614 21.4152 4.75284 21.1131C4.46954 20.8109 4.48485 20.3362 4.78703 20.0529L6.38703 18.5529C6.68922 18.2696 7.16385 18.285 7.44714 18.5871Z" fill="black"/>
<path fill-rule="evenodd" clip-rule="evenodd" d="M17.3529 3.2871C17.6362 2.98491 18.1108 2.9696 18.413 3.2529L20.013 4.7529C20.3152 5.0362 20.3305 5.51082 20.0472 5.81301C19.7639 6.11519 19.2893 6.1305 18.9871 5.8472L17.3871 4.3472C17.0849 4.06391 17.0696 3.58928 17.3529 3.2871Z" fill="black"/>
<path fill-rule="evenodd" clip-rule="evenodd" d="M15.7528 18.5871C16.0361 18.285 16.5108 18.2696 16.8129 18.5529L18.4129 20.0529C18.7151 20.3362 18.7304 20.8109 18.4471 21.1131C18.1638 21.4152 17.6892 21.4306 17.387 21.1473L15.787 19.6473C15.4849 19.364 15.4695 18.8893 15.7528 18.5871Z" fill="black"/>
<path fill-rule="evenodd" clip-rule="evenodd" d="M8.45001 12.4C8.45001 11.9858 8.7858 11.65 9.20001 11.65H14.1C14.5142 11.65 14.85 11.9858 14.85 12.4C14.85 12.8142 14.5142 13.15 14.1 13.15H9.20001C8.7858 13.15 8.45001 12.8142 8.45001 12.4Z" fill="white"/>
</svg>
