<svg width="24" height="24" viewBox="0 0 24 24" fill="none" xmlns="http://www.w3.org/2000/svg">
<path d="M11.6 20.3C15.9631 20.3 19.5 16.763 19.5 12.4C19.5 8.03695 15.9631 4.5 11.6 4.5C7.23696 4.5 3.70001 8.03695 3.70001 12.4C3.70001 16.763 7.23696 20.3 11.6 20.3Z" fill="black"/>
<path fill-rule="evenodd" clip-rule="evenodd" d="M11.6 5.25C7.65118 5.25 4.45001 8.45116 4.45001 12.4C4.45001 16.3488 7.65118 19.55 11.6 19.55C15.5488 19.55 18.75 16.3488 18.75 12.4C18.75 8.45116 15.5488 5.25 11.6 5.25ZM2.95001 12.4C2.95001 7.62274 6.82275 3.75 11.6 3.75C16.3773 3.75 20.25 7.62274 20.25 12.4C20.25 17.1773 16.3773 21.05 11.6 21.05C6.82275 21.05 2.95001 17.1773 2.95001 12.4Z" fill="black"/>
<path fill-rule="evenodd" clip-rule="evenodd" d="M5.83032 3.26972C6.12321 3.56261 6.12321 4.03749 5.83032 4.33038L4.33032 5.83038C4.03742 6.12327 3.56255 6.12327 3.26966 5.83038C2.97676 5.53749 2.97676 5.06261 3.26966 4.76972L4.76966 3.26972C5.06255 2.97683 5.53742 2.97683 5.83032 3.26972Z" fill="black"/>
<path fill-rule="evenodd" clip-rule="evenodd" d="M7.44714 18.5871C7.73044 18.8893 7.71513 19.364 7.41295 19.6473L5.81295 21.1473C5.51076 21.4306 5.03614 21.4152 4.75284 21.1131C4.46954 20.8109 4.48485 20.3362 4.78703 20.0529L6.38703 18.5529C6.68922 18.2696 7.16385 18.285 7.44714 18.5871Z" fill="black"/>
<path fill-rule="evenodd" clip-rule="evenodd" d="M17.3529 3.2871C17.6362 2.98491 18.1108 2.9696 18.413 3.2529L20.013 4.7529C20.3152 5.0362 20.3305 5.51082 20.0472 5.81301C19.7639 6.11519 19.2893 6.1305 18.9871 5.8472L17.3871 4.3472C17.0849 4.06391 17.0696 3.58928 17.3529 3.2871Z" fill="black"/>
<path fill-rule="evenodd" clip-rule="evenodd" d="M15.7528 18.5871C16.0361 18.285 16.5108 18.2696 16.8129 18.5529L18.4129 20.0529C18.7151 20.3362 18.7304 20.8109 18.4471 21.1131C18.1638 21.4152 17.6892 21.4306 17.387 21.1473L15.787 19.6473C15.4849 19.364 15.4695 18.8893 15.7528 18.5871Z" fill="black"/>
<path d="M11.5 14.7L9.80003 15.6C9.60003 15.7 9.40003 15.5 9.40003 15.3L9.70003 13.5C9.70003 13.4 9.70003 13.3 9.60003 13.3L8.40003 11.9C8.20003 11.8 8.30003 11.5 8.50003 11.5L10.3 11.2C10.4 11.2 10.5 11.1 10.5 11.1L11.3 9.4C11.4 9.2 11.7 9.2 11.8 9.4L12.6 11.1C12.6 11.2 12.7 11.2 12.8 11.2L14.6 11.5C14.8 11.5 14.9 11.8 14.7 11.9L13.4 13.2C13.3 13.3 13.3 13.3 13.3 13.4L13.6 15.2C13.6 15.4 13.4 15.6 13.2 15.5L11.5 14.6C11.7 14.6 11.6 14.6 11.5 14.7Z" fill="white"/>
<path fill-rule="evenodd" clip-rule="evenodd" d="M11.55 10.6302L11.883 11.3377C11.9096 11.4311 11.9545 11.5273 12.0252 11.6183C12.1541 11.7841 12.3148 11.8622 12.4253 11.899C12.5432 11.9383 12.6659 11.9479 12.7376 11.9499L13.4677 12.0716L12.8697 12.6697C12.8681 12.6712 12.8665 12.6729 12.8648 12.6746C12.8448 12.6946 12.8127 12.7266 12.7847 12.7577C12.7529 12.793 12.6921 12.8638 12.6417 12.9646C12.5849 13.0782 12.5635 13.1842 12.5553 13.266C12.5497 13.3223 12.5499 13.3789 12.55 13.3963C12.55 13.3979 12.55 13.3991 12.55 13.4V13.4621L12.7045 14.3891L12.1776 14.1101C12.1478 14.0763 12.1175 14.0479 12.0892 14.0248C11.9527 13.9131 11.8133 13.8806 11.7808 13.873L11.7794 13.8727C11.7283 13.8608 11.6859 13.8564 11.6664 13.8546C11.6119 13.8497 11.5433 13.8499 11.5101 13.85C11.5062 13.85 11.5028 13.85 11.5 13.85H10.402L10.45 13.5621V13.5C10.45 13.4996 10.45 13.4987 10.4501 13.4974C10.4507 13.4729 10.4553 13.2942 10.399 13.1253C10.3622 13.0148 10.2841 12.8541 10.1183 12.7252C10.0988 12.71 10.079 12.696 10.0591 12.6831L9.54711 12.0858L10.3875 11.9458C10.6183 11.9234 10.7869 11.8185 10.8535 11.774C10.9032 11.741 10.943 11.709 10.9709 11.6851C10.9853 11.6728 10.9974 11.6617 11.0073 11.6526L11.0204 11.6401L11.0258 11.6348L11.0282 11.6325L11.0293 11.6314L11.0301 11.6306C11.0302 11.6305 11.0303 11.6303 10.5 11.1L11.0301 11.6306L11.1229 11.5378L11.55 10.6302ZM9.9548 10.4972L10.6252 9.07257L10.6292 9.06459C11.0056 8.3118 12.0944 8.3118 12.4708 9.06459L12.4748 9.07257L13.1452 10.4972L14.6817 10.7533C15.1473 10.791 15.4329 11.1477 15.5212 11.4565C15.613 11.7779 15.5428 12.2247 15.1712 12.4894L14.089 13.5717L14.35 15.1379V15.2C14.35 15.5354 14.1911 15.8421 13.9552 16.0387C13.6985 16.2526 13.2821 16.3796 12.8646 16.1708L12.8568 16.1669L11.5945 15.4986L10.1432 16.2669L10.1354 16.2708C9.71793 16.4796 9.30155 16.3526 9.04488 16.1387C8.80896 15.9421 8.65002 15.6354 8.65002 15.3V15.2379L8.84883 14.0451L8.4804 13.85H8.88134L8.91427 13.6524L7.89748 12.4662C7.55334 12.1991 7.48968 11.7686 7.57887 11.4565C7.66709 11.1477 7.9527 10.791 8.41831 10.7533L9.9548 10.4972Z" fill="white"/>
</svg>
