<svg xmlns="http://www.w3.org/2000/svg" fill="none" viewBox="0 0 24 24">
  <path fill="#000" d="M12 20.1a7.9 7.9 0 1 0 0-15.8 7.9 7.9 0 0 0 0 15.8Z"/>
  <path fill="#000" fill-rule="evenodd" d="M12 5.05a7.15 7.15 0 1 0 0 14.3 7.15 7.15 0 0 0 0-14.3ZM3.35 12.2a8.65 8.65 0 1 1 17.3 0 8.65 8.65 0 0 1-17.3 0Zm2.88-9.13a.75.75 0 0 1 0 1.06l-1.5 1.5a.75.75 0 1 1-1.06-1.06l1.5-1.5a.75.75 0 0 1 1.06 0Z" clip-rule="evenodd"/>
  <path fill="#000" fill-rule="evenodd" d="M7.847 18.387a.75.75 0 0 1-.034 1.06l-1.6 1.5a.75.75 0 0 1-1.026-1.094l1.6-1.5a.75.75 0 0 1 1.06.034Zm9.906-15.3a.75.75 0 0 1 1.06-.034l1.6 1.5a.75.75 0 1 1-1.026 1.094l-1.6-1.5a.75.75 0 0 1-.034-1.06Zm-1.6 15.3a.75.75 0 0 1 1.06-.034l1.6 1.5a.75.75 0 1 1-1.026 1.094l-1.6-1.5a.75.75 0 0 1-.034-1.06Z" clip-rule="evenodd"/>
  <path fill="#fff" fill-rule="evenodd" d="M12 9.15a.75.75 0 0 1 .75.75v5.3a.75.75 0 0 1-1.5 0V9.9a.75.75 0 0 1 .75-.75Z" clip-rule="evenodd"/>
  <path fill="#fff" fill-rule="evenodd" d="m12 10.16-1.97 1.97a.75.75 0 1 1-1.06-1.06l2.2-2.2c.228-.229.54-.37.867-.37.296 0 .638.124.853.43l2.14 2.14a.75.75 0 0 1-1.06 1.06L12 10.16Z" clip-rule="evenodd"/>
</svg>
