<svg xmlns="http://www.w3.org/2000/svg" fill="none" viewBox="0 0 24 24">
  <path fill="#000" d="M11.6 20.3a7.9 7.9 0 1 0 0-15.8 7.9 7.9 0 0 0 0 15.8Z"/>
  <path fill="#000" fill-rule="evenodd" d="M11.6 5.25a7.15 7.15 0 1 0 0 14.3 7.15 7.15 0 0 0 0-14.3ZM2.95 12.4a8.65 8.65 0 1 1 17.3 0 8.65 8.65 0 0 1-17.3 0Zm2.88-9.13a.75.75 0 0 1 0 1.06l-1.5 1.5a.75.75 0 0 1-1.06-1.06l1.5-1.5a.75.75 0 0 1 1.06 0Z" clip-rule="evenodd"/>
  <path fill="#000" fill-rule="evenodd" d="M7.447 18.587a.75.75 0 0 1-.034 1.06l-1.6 1.5a.75.75 0 0 1-1.026-1.094l1.6-1.5a.75.75 0 0 1 1.06.034Zm9.906-15.3a.75.75 0 0 1 1.06-.034l1.6 1.5a.75.75 0 1 1-1.026 1.094l-1.6-1.5a.75.75 0 0 1-.034-1.06Zm-1.6 15.3a.75.75 0 0 1 1.06-.034l1.6 1.5a.75.75 0 0 1-1.026 1.094l-1.6-1.5a.75.75 0 0 1-.034-1.06Z" clip-rule="evenodd"/>
  <path fill="#fff" fill-rule="evenodd" d="M7.95 12.4a.75.75 0 0 1 .75-.75H14a.75.75 0 0 1 0 1.5H8.7a.75.75 0 0 1-.75-.75Z" clip-rule="evenodd"/>
  <path fill="#fff" fill-rule="evenodd" d="M11.67 9.37a.75.75 0 0 1 1.06 0l2.2 2.2c.229.228.37.54.37.867 0 .293-.122.631-.42.847l-2.138 2.234a.75.75 0 1 1-1.084-1.036l1.986-2.077-1.974-1.975a.75.75 0 0 1 0-1.06Z" clip-rule="evenodd"/>
</svg>
