<svg xmlns="http://www.w3.org/2000/svg" viewBox="0 0 24 24" fill="currentColor">
  <path d="M4 3.25c-.41421 0-.75.33579-.75.75s.33579.75.75.75h16c.4142 0 .75-.33579.75-.75s-.3358-.75-.75-.75H4Zm2 4.5c-.68579 0-1.25.56421-1.25 1.25v9c0 .7108.4888 1.25 1.25 1.25h2c.68579 0 1.25-.5642 1.25-1.25V9c0-.68579-.56421-1.25-1.25-1.25H6ZM3.25 9c0-1.51421 1.23579-2.75 2.75-2.75h2c1.51421 0 2.75 1.23579 2.75 2.75v9c0 1.5142-1.23579 2.75-2.75 2.75H6c-1.6388 0-2.75-1.2608-2.75-2.75V9ZM16 7.75c-.6858 0-1.25.56421-1.25 1.25v5c0 .7108.4888 1.25 1.25 1.25h2c.6858 0 1.25-.5642 1.25-1.25V9c0-.68579-.5642-1.25-1.25-1.25h-2ZM13.25 9c0-1.51421 1.2358-2.75 2.75-2.75h2c1.5142 0 2.75 1.23579 2.75 2.75v5c0 1.5142-1.2358 2.75-2.75 2.75h-2c-1.6388 0-2.75-1.2608-2.75-2.75V9Z"/>
</svg>
