<svg xmlns="http://www.w3.org/2000/svg" viewBox="0 0 24 24" fill="currentColor">
  <path d="M16 4.75c-.6858 0-1.25.56421-1.25 1.25v9c0 .6858.5642 1.25 1.25 1.25h2c.6858 0 1.25-.5642 1.25-1.25V6c0-.7612-.5392-1.25-1.25-1.25h-2ZM13.25 6c0-1.51421 1.2358-2.75 2.75-2.75h2c1.4892 0 2.75 1.1112 2.75 2.75v9c0 1.5142-1.2358 2.75-2.75 2.75h-2c-1.5142 0-2.75-1.2358-2.75-2.75V6ZM6 8.75c-.68579 0-1.25.56421-1.25 1.25v5c0 .6858.56421 1.25 1.25 1.25h2c.68579 0 1.25-.5642 1.25-1.25v-5c0-.7612-.53919-1.25-1.25-1.25H6ZM3.25 10c0-1.51421 1.23579-2.75 2.75-2.75h2c1.48919 0 2.75 1.1112 2.75 2.75v5c0 1.5142-1.23579 2.75-2.75 2.75H6c-1.51421 0-2.75-1.2358-2.75-2.75v-5ZM4 19.25c-.41421 0-.75.3358-.75.75s.33579.75.75.75h16c.4142 0 .75-.3358.75-.75s-.3358-.75-.75-.75H4Z"/>
</svg>
