<svg xmlns="http://www.w3.org/2000/svg" fill="none" viewBox="0 0 24 24">
  <path fill="#000" fill-rule="evenodd" d="M16 4.75c-.686 0-1.25.564-1.25 1.25v9c0 .686.564 1.25 1.25 1.25h2c.686 0 1.25-.564 1.25-1.25V6c0-.761-.54-1.25-1.25-1.25h-2ZM13.25 6A2.756 2.756 0 0 1 16 3.25h2c1.49 0 2.75 1.111 2.75 2.75v9A2.756 2.756 0 0 1 18 17.75h-2A2.756 2.756 0 0 1 13.25 15V6ZM6 8.75c-.686 0-1.25.564-1.25 1.25v5c0 .686.564 1.25 1.25 1.25h2c.686 0 1.25-.564 1.25-1.25v-5c0-.761-.54-1.25-1.25-1.25H6ZM3.25 10A2.756 2.756 0 0 1 6 7.25h2c1.49 0 2.75 1.111 2.75 2.75v5A2.756 2.756 0 0 1 8 17.75H6A2.756 2.756 0 0 1 3.25 15v-5ZM4 19.25a.75.75 0 0 0 0 1.5h16a.75.75 0 0 0 0-1.5H4Z" clip-rule="evenodd"/>
</svg>
