<svg width="24" height="24" viewBox="0 0 24 24" fill="none" xmlns="http://www.w3.org/2000/svg">
<path d="M10 10V15C10 16.1 9.1 17 8 17H6C4.9 17 4 16.1 4 15V10C4 8.9 4.9 8 6 8H8C9.1 8 10 8.8 10 10Z" fill="black"/>
<path fill-rule="evenodd" clip-rule="evenodd" d="M6 8.75C5.31421 8.75 4.75 9.31421 4.75 10V15C4.75 15.6858 5.31421 16.25 6 16.25H8C8.68579 16.25 9.25 15.6858 9.25 15V10C9.25 9.2388 8.71081 8.75 8 8.75H6ZM3.25 10C3.25 8.48579 4.48579 7.25 6 7.25H8C9.48919 7.25 10.75 8.3612 10.75 10V15C10.75 16.5142 9.51421 17.75 8 17.75H6C4.48579 17.75 3.25 16.5142 3.25 15V10Z" fill="black"/>
<path d="M20 6V15C20 16.1 19.1 17 18 17H16C14.9 17 14 16.1 14 15V6C14 4.9 14.9 4 16 4H18C19.1 4 20 4.8 20 6Z" fill="black"/>
<path fill-rule="evenodd" clip-rule="evenodd" d="M16 4.75C15.3142 4.75 14.75 5.31421 14.75 6V15C14.75 15.6858 15.3142 16.25 16 16.25H18C18.6858 16.25 19.25 15.6858 19.25 15V6C19.25 5.2388 18.7108 4.75 18 4.75H16ZM13.25 6C13.25 4.48579 14.4858 3.25 16 3.25H18C19.4892 3.25 20.75 4.3612 20.75 6V15C20.75 16.5142 19.5142 17.75 18 17.75H16C14.4858 17.75 13.25 16.5142 13.25 15V6Z" fill="black"/>
<path fill-rule="evenodd" clip-rule="evenodd" d="M3.25 20C3.25 19.5858 3.58579 19.25 4 19.25H20C20.4142 19.25 20.75 19.5858 20.75 20C20.75 20.4142 20.4142 20.75 20 20.75H4C3.58579 20.75 3.25 20.4142 3.25 20Z" fill="black"/>
</svg>
