<svg xmlns="http://www.w3.org/2000/svg" viewBox="0 0 24 24" fill="currentColor">
  <path d="M4.5 5.25c-.41421 0-.75.33579-.75.75s.33579.75.75.75h15c.4142 0 .75-.33579.75-.75s-.3358-.75-.75-.75h-15Zm6 4c-.4142 0-.75.33579-.75.75 0 .4142.3358.75.75.75h9c.4142 0 .75-.3358.75-.75 0-.41421-.3358-.75-.75-.75h-9ZM3.75 14c0-.4142.33579-.75.75-.75h15c.4142 0 .75.3358.75.75s-.3358.75-.75.75h-15c-.41421 0-.75-.3358-.75-.75Zm6.75 3.25c-.4142 0-.75.3358-.75.75s.3358.75.75.75h9c.4142 0 .75-.3358.75-.75s-.3358-.75-.75-.75h-9Z"/>
</svg>
