<svg xmlns="http://www.w3.org/2000/svg" fill="none" viewBox="0 0 24 24">
  <path fill="#000" d="M7 10a3 3 0 1 0 0-6 3 3 0 0 0 0 6Z"/>
  <path fill="#000" fill-rule="evenodd" d="M7 4.75a2.25 2.25 0 1 0 0 4.5 2.25 2.25 0 0 0 0-4.5ZM3.25 7a3.75 3.75 0 1 1 7.5 0 3.75 3.75 0 0 1-7.5 0Z" clip-rule="evenodd"/>
  <path fill="#000" d="M16 10a3 3 0 1 0 0-6 3 3 0 0 0 0 6Z"/>
  <path fill="#000" fill-rule="evenodd" d="M16 4.75a2.25 2.25 0 1 0 0 4.5 2.25 2.25 0 0 0 0-4.5ZM12.25 7a3.75 3.75 0 1 1 7.5 0 3.75 3.75 0 0 1-7.5 0Z" clip-rule="evenodd"/>
  <path fill="#000" d="M7 19a3 3 0 1 0 0-6 3 3 0 0 0 0 6Z"/>
  <path fill="#000" fill-rule="evenodd" d="M7 13.75a2.25 2.25 0 1 0 0 4.5 2.25 2.25 0 0 0 0-4.5ZM3.25 16a3.75 3.75 0 1 1 7.5 0 3.75 3.75 0 0 1-7.5 0Zm9 0a.75.75 0 0 1 .75-.75h6a.75.75 0 0 1 0 1.5h-6a.75.75 0 0 1-.75-.75Z" clip-rule="evenodd"/>
  <path fill="#000" fill-rule="evenodd" d="M16 12.25a.75.75 0 0 1 .75.75v6a.75.75 0 0 1-1.5 0v-6a.75.75 0 0 1 .75-.75Z" clip-rule="evenodd"/>
</svg>
