<svg xmlns="http://www.w3.org/2000/svg" fill="none" viewBox="0 0 24 24">
  <path fill="#000" d="M10 11H6c-1.1 0-2-.9-2-2V7c0-1.1.9-2 2-2h2c1.1 0 2 .9 2 2v4Z"/>
  <path fill="#000" fill-rule="evenodd" d="M6 5.75c-.686 0-1.25.564-1.25 1.25v2c0 .686.564 1.25 1.25 1.25h3.25V7c0-.686-.564-1.25-1.25-1.25H6ZM3.25 7A2.756 2.756 0 0 1 6 4.25h2A2.756 2.756 0 0 1 10.75 7v4.75H6A2.756 2.756 0 0 1 3.25 9V7Z" clip-rule="evenodd"/>
  <path fill="#000" d="M17 11h-4V7c0-1.1.9-2 2-2h2c1.1 0 2 .9 2 2v2c0 1.1-.9 2-2 2Z"/>
  <path fill="#000" fill-rule="evenodd" d="M15 5.75c-.686 0-1.25.564-1.25 1.25v3.25H17c.686 0 1.25-.564 1.25-1.25V7c0-.686-.564-1.25-1.25-1.25h-2ZM12.25 7A2.756 2.756 0 0 1 15 4.25h2A2.756 2.756 0 0 1 19.75 7v2A2.756 2.756 0 0 1 17 11.75h-4.75V7Z" clip-rule="evenodd"/>
  <path fill="#000" d="M8 20H6c-1.1 0-2-.9-2-2v-2c0-1.1.9-2 2-2h4v4c0 1.1-.9 2-2 2Z"/>
  <path fill="#000" fill-rule="evenodd" d="M6 14.75c-.686 0-1.25.564-1.25 1.25v2c0 .686.564 1.25 1.25 1.25h2c.686 0 1.25-.564 1.25-1.25v-3.25H6ZM3.25 16A2.756 2.756 0 0 1 6 13.25h4.75V18A2.756 2.756 0 0 1 8 20.75H6A2.756 2.756 0 0 1 3.25 18v-2Z" clip-rule="evenodd"/>
  <path fill="#000" d="M17 20h-2c-1.1 0-2-.9-2-2v-4h4c1.1 0 2 .9 2 2v2c0 1.1-.9 2-2 2Z"/>
  <path fill="#000" fill-rule="evenodd" d="M12.25 13.25H17A2.756 2.756 0 0 1 19.75 16v2A2.756 2.756 0 0 1 17 20.75h-2A2.756 2.756 0 0 1 12.25 18v-4.75Zm1.5 1.5V18c0 .686.564 1.25 1.25 1.25h2c.686 0 1.25-.564 1.25-1.25v-2c0-.686-.564-1.25-1.25-1.25h-3.25Z" clip-rule="evenodd"/>
</svg>
