<svg width="24" height="24" viewBox="0 0 24 24" fill="none" xmlns="http://www.w3.org/2000/svg">
<path d="M7 10C8.65685 10 10 8.65685 10 7C10 5.34315 8.65685 4 7 4C5.34315 4 4 5.34315 4 7C4 8.65685 5.34315 10 7 10Z" fill="black"/>
<path fill-rule="evenodd" clip-rule="evenodd" d="M7 4.75C5.75736 4.75 4.75 5.75736 4.75 7C4.75 8.24264 5.75736 9.25 7 9.25C8.24264 9.25 9.25 8.24264 9.25 7C9.25 5.75736 8.24264 4.75 7 4.75ZM3.25 7C3.25 4.92893 4.92893 3.25 7 3.25C9.07107 3.25 10.75 4.92893 10.75 7C10.75 9.07107 9.07107 10.75 7 10.75C4.92893 10.75 3.25 9.07107 3.25 7Z" fill="black"/>
<path d="M16 10C17.6569 10 19 8.65685 19 7C19 5.34315 17.6569 4 16 4C14.3431 4 13 5.34315 13 7C13 8.65685 14.3431 10 16 10Z" fill="black"/>
<path fill-rule="evenodd" clip-rule="evenodd" d="M16 4.75C14.7574 4.75 13.75 5.75736 13.75 7C13.75 8.24264 14.7574 9.25 16 9.25C17.2426 9.25 18.25 8.24264 18.25 7C18.25 5.75736 17.2426 4.75 16 4.75ZM12.25 7C12.25 4.92893 13.9289 3.25 16 3.25C18.0711 3.25 19.75 4.92893 19.75 7C19.75 9.07107 18.0711 10.75 16 10.75C13.9289 10.75 12.25 9.07107 12.25 7Z" fill="black"/>
<path d="M7 19C8.65685 19 10 17.6569 10 16C10 14.3431 8.65685 13 7 13C5.34315 13 4 14.3431 4 16C4 17.6569 5.34315 19 7 19Z" fill="black"/>
<path fill-rule="evenodd" clip-rule="evenodd" d="M7 13.75C5.75736 13.75 4.75 14.7574 4.75 16C4.75 17.2426 5.75736 18.25 7 18.25C8.24264 18.25 9.25 17.2426 9.25 16C9.25 14.7574 8.24264 13.75 7 13.75ZM3.25 16C3.25 13.9289 4.92893 12.25 7 12.25C9.07107 12.25 10.75 13.9289 10.75 16C10.75 18.0711 9.07107 19.75 7 19.75C4.92893 19.75 3.25 18.0711 3.25 16Z" fill="black"/>
<path fill-rule="evenodd" clip-rule="evenodd" d="M13.2697 13.2696C13.5626 12.9767 14.0374 12.9767 14.3303 13.2696L18.6303 17.5696C18.9232 17.8625 18.9232 18.3374 18.6303 18.6303C18.3374 18.9231 17.8626 18.9231 17.5697 18.6303L13.2697 14.3303C12.9768 14.0374 12.9768 13.5625 13.2697 13.2696Z" fill="black"/>
<path fill-rule="evenodd" clip-rule="evenodd" d="M18.6303 13.2696C18.9232 13.5625 18.9232 14.0374 18.6303 14.3303L14.3303 18.6303C14.0374 18.9231 13.5626 18.9231 13.2697 18.6303C12.9768 18.3374 12.9768 17.8625 13.2697 17.5696L17.5697 13.2696C17.8626 12.9767 18.3374 12.9767 18.6303 13.2696Z" fill="black"/>
</svg>
