<svg width="24" height="24" viewBox="0 0 24 24" fill="none" xmlns="http://www.w3.org/2000/svg">
<path d="M10 11H6C4.9 11 4 10.1 4 9V7C4 5.9 4.9 5 6 5H8C9.1 5 10 5.9 10 7V11Z" fill="black"/>
<path fill-rule="evenodd" clip-rule="evenodd" d="M6 5.75C5.31421 5.75 4.75 6.31421 4.75 7V9C4.75 9.68579 5.31421 10.25 6 10.25H9.25V7C9.25 6.31421 8.68579 5.75 8 5.75H6ZM3.25 7C3.25 5.48579 4.48579 4.25 6 4.25H8C9.51421 4.25 10.75 5.48579 10.75 7V11.75H6C4.48579 11.75 3.25 10.5142 3.25 9V7Z" fill="black"/>
<path d="M17 11H13V7C13 5.9 13.9 5 15 5H17C18.1 5 19 5.9 19 7V9C19 10.1 18.1 11 17 11Z" fill="black"/>
<path fill-rule="evenodd" clip-rule="evenodd" d="M15 5.75C14.3142 5.75 13.75 6.31421 13.75 7V10.25H17C17.6858 10.25 18.25 9.68579 18.25 9V7C18.25 6.31421 17.6858 5.75 17 5.75H15ZM12.25 7C12.25 5.48579 13.4858 4.25 15 4.25H17C18.5142 4.25 19.75 5.48579 19.75 7V9C19.75 10.5142 18.5142 11.75 17 11.75H12.25V7Z" fill="black"/>
<path d="M8 20H6C4.9 20 4 19.1 4 18V16C4 14.9 4.9 14 6 14H10V18C10 19.1 9.1 20 8 20Z" fill="black"/>
<path fill-rule="evenodd" clip-rule="evenodd" d="M6 14.75C5.31421 14.75 4.75 15.3142 4.75 16V18C4.75 18.6858 5.31421 19.25 6 19.25H8C8.68579 19.25 9.25 18.6858 9.25 18V14.75H6ZM3.25 16C3.25 14.4858 4.48579 13.25 6 13.25H10.75V18C10.75 19.5142 9.51421 20.75 8 20.75H6C4.48579 20.75 3.25 19.5142 3.25 18V16Z" fill="black"/>
<path d="M17 20H15C13.9 20 13 19.1 13 18V14H17C18.1 14 19 14.9 19 16V18C19 19.1 18.1 20 17 20Z" fill="black"/>
<path fill-rule="evenodd" clip-rule="evenodd" d="M12.25 13.25H17C18.5142 13.25 19.75 14.4858 19.75 16V18C19.75 19.5142 18.5142 20.75 17 20.75H15C13.4858 20.75 12.25 19.5142 12.25 18V13.25ZM13.75 14.75V18C13.75 18.6858 14.3142 19.25 15 19.25H17C17.6858 19.25 18.25 18.6858 18.25 18V16C18.25 15.3142 17.6858 14.75 17 14.75H13.75Z" fill="black"/>
</svg>
