<svg xmlns="http://www.w3.org/2000/svg" viewBox="0 0 24 24" fill="currentColor">
  <path d="M5.25 6.5c0-.68579.56421-1.25 1.25-1.25h2c.68579 0 1.25.56421 1.25 1.25v3.25H6.5c-.68579 0-1.25-.56421-1.25-1.25v-2ZM6.5 3.75c-1.51421 0-2.75 1.23579-2.75 2.75v2c0 1.5142 1.23579 2.75 2.75 2.75h4.75V6.5c0-1.51421-1.2358-2.75-2.75-2.75h-2Zm7.75 2.75c0-.68579.5642-1.25 1.25-1.25h2c.6858 0 1.25.56421 1.25 1.25v2c0 .68579-.5642 1.25-1.25 1.25h-3.25V6.5Zm1.25-2.75c-1.5142 0-2.75 1.23579-2.75 2.75v4.75h4.75c1.5142 0 2.75-1.2358 2.75-2.75v-2c0-1.51421-1.2358-2.75-2.75-2.75h-2Zm-9 10.5c-.68579 0-1.25.5642-1.25 1.25v2c0 .6858.56421 1.25 1.25 1.25h2c.68579 0 1.25-.5642 1.25-1.25v-3.25H6.5ZM3.75 15.5c0-1.5142 1.23579-2.75 2.75-2.75h4.75v4.75c0 1.5142-1.2358 2.75-2.75 2.75h-2c-1.51421 0-2.75-1.2358-2.75-2.75v-2Zm13.75-2.75h-4.75v4.75c0 1.5142 1.2358 2.75 2.75 2.75h2c1.5142 0 2.75-1.2358 2.75-2.75v-2c0-1.5142-1.2358-2.75-2.75-2.75Zm-3.25 4.75v-3.25h3.25c.6858 0 1.25.5642 1.25 1.25v2c0 .6858-.5642 1.25-1.25 1.25h-2c-.6858 0-1.25-.5642-1.25-1.25Z"/>
</svg>
