<svg xmlns="http://www.w3.org/2000/svg" viewBox="0 0 24 24" fill="currentColor">
  <path d="M7.5 5.25c-1.24264 0-2.25 1.00736-2.25 2.25S6.25736 9.75 7.5 9.75 9.75 8.74264 9.75 7.5 8.74264 5.25 7.5 5.25ZM3.75 7.5c0-2.07107 1.67893-3.75 3.75-3.75 2.07107 0 3.75 1.67893 3.75 3.75 0 2.07107-1.67893 3.75-3.75 3.75-2.07107 0-3.75-1.67893-3.75-3.75ZM16.5 5.25c-1.2426 0-2.25 1.00736-2.25 2.25s1.0074 2.25 2.25 2.25 2.25-1.00736 2.25-2.25-1.0074-2.25-2.25-2.25ZM12.75 7.5c0-2.07107 1.6789-3.75 3.75-3.75s3.75 1.67893 3.75 3.75c0 2.07107-1.6789 3.75-3.75 3.75s-3.75-1.67893-3.75-3.75Zm-7.5 9c0-1.2426 1.00736-2.25 2.25-2.25s2.25 1.0074 2.25 2.25-1.00736 2.25-2.25 2.25-2.25-1.0074-2.25-2.25Zm2.25-3.75c-2.07107 0-3.75 1.6789-3.75 3.75s1.67893 3.75 3.75 3.75c2.07107 0 3.75-1.6789 3.75-3.75s-1.67893-3.75-3.75-3.75Zm6.2696 1.0197c.2929-.2929.7678-.2929 1.0607 0l1.6196 1.6197 1.6197-1.6197c.2929-.2929.7678-.2929 1.0607 0 .2929.2929.2929.7678 0 1.0607L17.5106 16.45l1.6197 1.6197c.2929.2929.2929.7678 0 1.0607-.2929.2929-.7678.2929-1.0607 0l-1.6197-1.6197-1.6196 1.6197c-.2929.2929-.7678.2929-1.0607 0-.2929-.2929-.2929-.7678 0-1.0607l1.6197-1.6197-1.6197-1.6196c-.2929-.2929-.2929-.7678 0-1.0607Z"/>
</svg>
