<svg xmlns="http://www.w3.org/2000/svg" viewBox="0 0 24 24" fill="currentColor">
  <path d="M5.25 7.5c0-1.24264 1.00736-2.25 2.25-2.25S9.75 6.25736 9.75 7.5 8.74264 9.75 7.5 9.75 5.25 8.74264 5.25 7.5ZM7.5 3.75c-2.07107 0-3.75 1.67893-3.75 3.75 0 2.07107 1.67893 3.75 3.75 3.75 2.07107 0 3.75-1.67893 3.75-3.75 0-2.07107-1.67893-3.75-3.75-3.75Zm0 10.5c-1.24264 0-2.25 1.0074-2.25 2.25s1.00736 2.25 2.25 2.25 2.25-1.0074 2.25-2.25-1.00736-2.25-2.25-2.25ZM3.75 16.5c0-2.0711 1.67893-3.75 3.75-3.75 2.07107 0 3.75 1.6789 3.75 3.75s-1.67893 3.75-3.75 3.75c-2.07107 0-3.75-1.6789-3.75-3.75Zm12.75-2.25c-1.2426 0-2.25 1.0074-2.25 2.25s1.0074 2.25 2.25 2.25 2.25-1.0074 2.25-2.25-1.0074-2.25-2.25-2.25Zm-3.75 2.25c0-2.0711 1.6789-3.75 3.75-3.75s3.75 1.6789 3.75 3.75-1.6789 3.75-3.75 3.75-3.75-1.6789-3.75-3.75Zm0-9c0-.41421.3358-.75.75-.75h2.25V4.5c0-.41421.3358-.75.75-.75s.75.33579.75.75v2.25h2.25c.4142 0 .75.33579.75.75s-.3358.75-.75.75h-2.25v2.25c0 .4142-.3358.75-.75.75s-.75-.3358-.75-.75V8.25H13.5c-.4142 0-.75-.33579-.75-.75Z"/>
</svg>
