<svg xmlns="http://www.w3.org/2000/svg" viewBox="0 0 24 24" fill="currentColor">
  <path d="M5.75 7c0-1.24264 1.00736-2.25 2.25-2.25S10.25 5.75736 10.25 7 9.24264 9.25 8 9.25 5.75 8.24264 5.75 7ZM8 3.25C5.92893 3.25 4.25 4.92893 4.25 7c0 2.07107 1.67893 3.75 3.75 3.75 2.0711 0 3.75-1.67893 3.75-3.75 0-2.07107-1.6789-3.75-3.75-3.75ZM14.75 7c0-1.24264 1.0074-2.25 2.25-2.25S19.25 5.75736 19.25 7 18.2426 9.25 17 9.25 14.75 8.24264 14.75 7ZM17 3.25c-2.0711 0-3.75 1.67893-3.75 3.75 0 2.07107 1.6789 3.75 3.75 3.75S20.75 9.07107 20.75 7c0-2.07107-1.6789-3.75-3.75-3.75Zm-9 10.5c-1.24264 0-2.25 1.0074-2.25 2.25S6.75736 18.25 8 18.25s2.25-1.0074 2.25-2.25S9.24264 13.75 8 13.75ZM4.25 16c0-2.0711 1.67893-3.75 3.75-3.75 2.0711 0 3.75 1.6789 3.75 3.75S10.0711 19.75 8 19.75c-2.07107 0-3.75-1.6789-3.75-3.75Zm10.5 0c0-1.2426 1.0074-2.25 2.25-2.25s2.25 1.0074 2.25 2.25-1.0074 2.25-2.25 2.25-2.25-1.0074-2.25-2.25ZM17 12.25c-2.0711 0-3.75 1.6789-3.75 3.75s1.6789 3.75 3.75 3.75 3.75-1.6789 3.75-3.75-1.6789-3.75-3.75-3.75Z"/>
</svg>
