<svg width="24" height="24" viewBox="0 0 24 24" fill="none" xmlns="http://www.w3.org/2000/svg">
<path d="M7 11C8.65685 11 10 9.65685 10 8C10 6.34315 8.65685 5 7 5C5.34315 5 4 6.34315 4 8C4 9.65685 5.34315 11 7 11Z" fill="black"/>
<path fill-rule="evenodd" clip-rule="evenodd" d="M7 5.75C5.75736 5.75 4.75 6.75736 4.75 8C4.75 9.24264 5.75736 10.25 7 10.25C8.24264 10.25 9.25 9.24264 9.25 8C9.25 6.75736 8.24264 5.75 7 5.75ZM3.25 8C3.25 5.92893 4.92893 4.25 7 4.25C9.07107 4.25 10.75 5.92893 10.75 8C10.75 10.0711 9.07107 11.75 7 11.75C4.92893 11.75 3.25 10.0711 3.25 8Z" fill="black"/>
<path d="M16 11C17.6569 11 19 9.65685 19 8C19 6.34315 17.6569 5 16 5C14.3431 5 13 6.34315 13 8C13 9.65685 14.3431 11 16 11Z" fill="black"/>
<path fill-rule="evenodd" clip-rule="evenodd" d="M16 5.75C14.7574 5.75 13.75 6.75736 13.75 8C13.75 9.24264 14.7574 10.25 16 10.25C17.2426 10.25 18.25 9.24264 18.25 8C18.25 6.75736 17.2426 5.75 16 5.75ZM12.25 8C12.25 5.92893 13.9289 4.25 16 4.25C18.0711 4.25 19.75 5.92893 19.75 8C19.75 10.0711 18.0711 11.75 16 11.75C13.9289 11.75 12.25 10.0711 12.25 8Z" fill="black"/>
<path d="M7 20C8.65685 20 10 18.6569 10 17C10 15.3431 8.65685 14 7 14C5.34315 14 4 15.3431 4 17C4 18.6569 5.34315 20 7 20Z" fill="black"/>
<path fill-rule="evenodd" clip-rule="evenodd" d="M7 14.75C5.75736 14.75 4.75 15.7574 4.75 17C4.75 18.2426 5.75736 19.25 7 19.25C8.24264 19.25 9.25 18.2426 9.25 17C9.25 15.7574 8.24264 14.75 7 14.75ZM3.25 17C3.25 14.9289 4.92893 13.25 7 13.25C9.07107 13.25 10.75 14.9289 10.75 17C10.75 19.0711 9.07107 20.75 7 20.75C4.92893 20.75 3.25 19.0711 3.25 17Z" fill="black"/>
<path d="M16 20C17.6569 20 19 18.6569 19 17C19 15.3431 17.6569 14 16 14C14.3431 14 13 15.3431 13 17C13 18.6569 14.3431 20 16 20Z" fill="black"/>
<path fill-rule="evenodd" clip-rule="evenodd" d="M16 14.75C14.7574 14.75 13.75 15.7574 13.75 17C13.75 18.2426 14.7574 19.25 16 19.25C17.2426 19.25 18.25 18.2426 18.25 17C18.25 15.7574 17.2426 14.75 16 14.75ZM12.25 17C12.25 14.9289 13.9289 13.25 16 13.25C18.0711 13.25 19.75 14.9289 19.75 17C19.75 19.0711 18.0711 20.75 16 20.75C13.9289 20.75 12.25 19.0711 12.25 17Z" fill="black"/>
</svg>
