<svg xmlns="http://www.w3.org/2000/svg" viewBox="0 0 24 24" fill="currentColor">
  <path d="M7.5 5.25c-1.24264 0-2.25 1.00736-2.25 2.25S6.25736 9.75 7.5 9.75 9.75 8.74264 9.75 7.5 8.74264 5.25 7.5 5.25ZM3.75 7.5c0-2.07107 1.67893-3.75 3.75-3.75 2.07107 0 3.75 1.67893 3.75 3.75 0 2.07107-1.67893 3.75-3.75 3.75-2.07107 0-3.75-1.67893-3.75-3.75ZM16.5 5.25c-1.2426 0-2.25 1.00736-2.25 2.25s1.0074 2.25 2.25 2.25 2.25-1.00736 2.25-2.25-1.0074-2.25-2.25-2.25ZM12.75 7.5c0-2.07107 1.6789-3.75 3.75-3.75s3.75 1.67893 3.75 3.75c0 2.07107-1.6789 3.75-3.75 3.75s-3.75-1.67893-3.75-3.75Zm-7.5 9c0-1.2426 1.00736-2.25 2.25-2.25s2.25 1.0074 2.25 2.25-1.00736 2.25-2.25 2.25-2.25-1.0074-2.25-2.25Zm2.25-3.75c-2.07107 0-3.75 1.6789-3.75 3.75s1.67893 3.75 3.75 3.75c2.07107 0 3.75-1.6789 3.75-3.75s-1.67893-3.75-3.75-3.75Zm5.25 3.75c0-.4142.3358-.75.75-.75h2.25V13.5c0-.4142.3358-.75.75-.75s.75.3358.75.75v2.25h2.25c.4142 0 .75.3358.75.75s-.3358.75-.75.75h-2.25v2.25c0 .4142-.3358.75-.75.75s-.75-.3358-.75-.75v-2.25H13.5c-.4142 0-.75-.3358-.75-.75Z"/>
</svg>
