<svg xmlns="http://www.w3.org/2000/svg" fill="none" viewBox="0 0 24 24">
  <path fill="#000" d="M7 11a3 3 0 1 0 0-6 3 3 0 0 0 0 6Z"/>
  <path fill="#000" fill-rule="evenodd" d="M7 5.75a2.25 2.25 0 1 0 0 4.5 2.25 2.25 0 0 0 0-4.5ZM3.25 8a3.75 3.75 0 1 1 7.5 0 3.75 3.75 0 0 1-7.5 0Z" clip-rule="evenodd"/>
  <path fill="#000" d="M16 11a3 3 0 1 0 0-6 3 3 0 0 0 0 6Z"/>
  <path fill="#000" fill-rule="evenodd" d="M16 5.75a2.25 2.25 0 1 0 0 4.5 2.25 2.25 0 0 0 0-4.5ZM12.25 8a3.75 3.75 0 1 1 7.5 0 3.75 3.75 0 0 1-7.5 0Z" clip-rule="evenodd"/>
  <path fill="#000" d="M7 20a3 3 0 1 0 0-6 3 3 0 0 0 0 6Z"/>
  <path fill="#000" fill-rule="evenodd" d="M7 14.75a2.25 2.25 0 1 0 0 4.5 2.25 2.25 0 0 0 0-4.5ZM3.25 17a3.75 3.75 0 1 1 7.5 0 3.75 3.75 0 0 1-7.5 0Z" clip-rule="evenodd"/>
  <path fill="#000" d="M16 20a3 3 0 1 0 0-6 3 3 0 0 0 0 6Z"/>
  <path fill="#000" fill-rule="evenodd" d="M16 14.75a2.25 2.25 0 1 0 0 4.5 2.25 2.25 0 0 0 0-4.5ZM12.25 17a3.75 3.75 0 1 1 7.5 0 3.75 3.75 0 0 1-7.5 0Z" clip-rule="evenodd"/>
</svg>
