<svg xmlns="http://www.w3.org/2000/svg" fill="none" viewBox="0 0 24 24">
  <path fill="#000" fill-rule="evenodd" d="M7.5 5.25a2.25 2.25 0 1 0 0 4.5 2.25 2.25 0 0 0 0-4.5ZM3.75 7.5a3.75 3.75 0 1 1 7.5 0 3.75 3.75 0 0 1-7.5 0ZM16.5 5.25a2.25 2.25 0 1 0 0 4.5 2.25 2.25 0 0 0 0-4.5ZM12.75 7.5a3.75 3.75 0 1 1 7.5 0 3.75 3.75 0 0 1-7.5 0Zm-7.5 9a2.25 2.25 0 1 1 4.5 0 2.25 2.25 0 0 1-4.5 0Zm2.25-3.75a3.75 3.75 0 1 0 0 7.5 3.75 3.75 0 0 0 0-7.5Zm6.27 1.02a.75.75 0 0 1 1.06 0l1.62 1.62 1.62-1.62a.75.75 0 0 1 1.06 1.06l-1.62 1.62 1.62 1.62a.75.75 0 0 1-1.06 1.06l-1.62-1.62-1.62 1.62a.75.75 0 0 1-1.06-1.06l1.62-1.62-1.62-1.62a.75.75 0 0 1 0-1.06Z" clip-rule="evenodd"/>
</svg>
