<svg xmlns="http://www.w3.org/2000/svg" viewBox="0 0 24 24" fill="currentColor">
  <path d="M5 8.20001c.41421 0 .75.33579.75.75V16.95c0 1.2858.96421 2.25 2.25 2.25h8c1.2858 0 2.25-.9642 2.25-2.25V8.95001c0-.41421.3358-.75.75-.75s.75.33579.75.75V16.95c0 2.1142-1.6358 3.75-3.75 3.75H8c-2.11421 0-3.75-1.6358-3.75-3.75V8.95001c0-.41421.33579-.75.75-.75Z"/>
  <path d="M5.5 4.79999c-.98579 0-1.75.76421-1.75 1.75 0 .98578.76421 1.75 1.75 1.75h13c.4199 0 .8616-.19725 1.2072-.54283.3456-.34559.5428-.78731.5428-1.20717 0-.98579-.7642-1.75-1.75-1.75h-13Zm-3.25 1.75c0-1.81422 1.43579-3.25 3.25-3.25h13c1.8142 0 3.25 1.43578 3.25 3.25 0 .88014-.4028 1.68841-.9822 2.26783-.5794.57941-1.3877.98217-2.2678.98217h-13c-1.81421 0-3.25-1.43579-3.25-3.25Z"/>
</svg>
