<svg xmlns="http://www.w3.org/2000/svg" viewBox="0 0 24 24" fill="currentColor">
  <path d="M5.5 4.19998c-.98579 0-1.75.76422-1.75 1.75 0 .98579.76421 1.75 1.75 1.75h13c.0458 0 .0918-.00234.138-.00697.1073-.05927.2307-.093.362-.093.0095 0 .0189.00017.0284.00052.2433-.09095.4774-.24198.6788-.44338.3456-.34558.5428-.78731.5428-1.20717 0-.98578-.7642-1.75-1.75-1.75h-13Zm14.25 4.7247c.3832-.17303.729-.41799 1.0178-.70687.5794-.57942.9822-1.38769.9822-2.26783 0-1.81421-1.4358-3.25-3.25-3.25h-13c-1.81421 0-3.25 1.43579-3.25 3.25 0 1.36964.81832 2.52359 2 3.0069V16.45c0 2.1142 1.63579 3.75 3.75 3.75h4c.4142 0 .75-.3358.75-.75s-.3358-.75-.75-.75H8c-1.28579 0-2.25-.9642-2.25-2.25V9.19998h12.5V13.45c0 .4142.3358.75.75.75s.75-.3358.75-.75V8.92468Zm-.1197 6.79492c.2929.2929.2929.7678 0 1.0607L18.0106 18.4l1.6197 1.6197c.2929.2929.2929.7678 0 1.0607-.2929.2928-.7678.2928-1.0607-.0001L16.95 19.4607l-1.6197 1.6196c-.2929.2929-.7677.2929-1.0606.0001-.2929-.2929-.2929-.7678 0-1.0607L15.8893 18.4l-1.6196-1.6197c-.2929-.2929-.2929-.7678 0-1.0607.2929-.2929.7677-.2929 1.0606 0l1.6197 1.6197 1.6196-1.6197c.2929-.2929.7678-.2929 1.0607 0Z"/>
</svg>
