<svg xmlns="http://www.w3.org/2000/svg" viewBox="0 0 24 24" fill="currentColor">
  <path d="M5.5 4.75c-.98579 0-1.75.76421-1.75 1.75s.76421 1.75 1.75 1.75h13c.0458 0 .0918-.00235.138-.00697.1073-.05927.2307-.09301.362-.09301.0095 0 .0189.00018.0284.00053.2433-.09096.4774-.24198.6788-.44338.3456-.34558.5428-.78731.5428-1.20717 0-.98579-.7642-1.75-1.75-1.75h-13Zm14.25 4.7247c.3832-.17303.729-.41799 1.0178-.70687.5794-.57942.9822-1.38769.9822-2.26783 0-1.81421-1.4358-3.25-3.25-3.25h-13c-1.81421 0-3.25 1.43579-3.25 3.25 0 1.36964.81832 2.52359 2 3.0069V17c0 2.1142 1.63579 3.75 3.75 3.75h4c.4142 0 .75-.3358.75-.75s-.3358-.75-.75-.75H8c-1.28579 0-2.25-.9642-2.25-2.25V9.75h12.5V14c0 .4142.3358.75.75.75s.75-.3358.75-.75V9.4747ZM16 13.25c.4142 0 .75.3358.75.75v2.25H19c.4142 0 .75.3358.75.75s-.3358.75-.75.75h-2.25V20c0 .4142-.3358.75-.75.75s-.75-.3358-.75-.75v-2.25H13c-.4142 0-.75-.3358-.75-.75s.3358-.75.75-.75h2.25V14c0-.4142.3358-.75.75-.75Z"/>
</svg>
