<svg width="24" height="24" viewBox="0 0 24 24" fill="none" xmlns="http://www.w3.org/2000/svg">
<path fill-rule="evenodd" clip-rule="evenodd" d="M4.8 7.95007C5.21421 7.95007 5.55 8.28586 5.55 8.70007V16.8001C5.55 18.0859 6.51421 19.0501 7.8 19.0501H15.8C17.0858 19.0501 18.05 18.0859 18.05 16.8001V8.70007C18.05 8.28586 18.3858 7.95007 18.8 7.95007C19.2142 7.95007 19.55 8.28586 19.55 8.70007V16.8001C19.55 18.9143 17.9142 20.5501 15.8 20.5501H7.8C5.68579 20.5501 4.05 18.9143 4.05 16.8001V8.70007C4.05 8.28586 4.38579 7.95007 4.8 7.95007Z" fill="black"/>
<path d="M18.3 8.80005H5.3C3.9 8.80005 2.8 7.70005 2.8 6.30005C2.8 4.90005 3.9 3.80005 5.3 3.80005H18.3C19.7 3.80005 20.8 4.90005 20.8 6.30005C20.8 7.60005 19.6 8.80005 18.3 8.80005Z" fill="black"/>
<path fill-rule="evenodd" clip-rule="evenodd" d="M5.3 4.55005C4.31421 4.55005 3.55 5.31426 3.55 6.30005C3.55 7.28584 4.31421 8.05005 5.3 8.05005H18.3C18.7199 8.05005 19.1616 7.8528 19.5072 7.50722C19.8528 7.16163 20.05 6.71991 20.05 6.30005C20.05 5.31426 19.2858 4.55005 18.3 4.55005H5.3ZM2.05 6.30005C2.05 4.48584 3.48579 3.05005 5.3 3.05005H18.3C20.1142 3.05005 21.55 4.48583 21.55 6.30005C21.55 7.18019 21.1472 7.98846 20.5678 8.56788C19.9884 9.1473 19.1801 9.55005 18.3 9.55005H5.3C3.48579 9.55005 2.05 8.11426 2.05 6.30005Z" fill="black"/>
</svg>
