<svg xmlns="http://www.w3.org/2000/svg" viewBox="0 0 24 24" fill="currentColor">
  <path fill-rule="evenodd" d="M11.45 18.25c0-.4142.3358-.75.75-.75h6c.4142 0 .75.3358.75.75s-.3358.75-.75.75h-6c-.4142 0-.75-.3358-.75-.75Z" clip-rule="evenodd"/>
  <path fill-rule="evenodd" d="m12.4107 18.3 2.3196-2.3197c.2929-.2928.2929-.7677 0-1.0606-.2929-.2929-.7677-.2929-1.0606 0l-2.5 2.5c-.4929.4929-.4929 1.2677 0 1.7606l2.5 2.5c.2929.2929.7677.2929 1.0606 0 .2929-.2929.2929-.7677 0-1.0606L12.4107 18.3Z" clip-rule="evenodd"/>
  <path fill-rule="evenodd" d="M6.24995 7.95001c0-.41421.33579-.75.75-.75H18.1999c.4142 0 .75.33579.75.75 0 .41422-.3358.75-.75.75H6.99995c-.41421 0-.75-.33578-.75-.75Z" clip-rule="evenodd"/>
  <path fill-rule="evenodd" d="M6.55711 8.02255c.00831.01817.02825.05214.07322.09711l4.49997 4.50004c.2929.2929.2929.7677 0 1.0606-.2929.2929-.7677.2929-1.0606 0L5.56967 9.18032C5.25783 8.86848 5.05 8.46125 5.05 7.99999c0-.46125.20783-.86848.51967-1.18033l4.50003-4.49999c.2929-.2929.7677-.2929 1.0606 0 .2929.29289.2929.76776 0 1.06065l-4.49997 4.5c-.04497.04498-.06491.07895-.07322.09712-.00416.00909-.0058.01504-.00646.01798-.00064.00285-.00065.00419-.00065.00457 0 .00039.00001.00172.00065.00458.00066.00293.0023.00889.00646.01798Z" clip-rule="evenodd"/>
</svg>
