<svg xmlns="http://www.w3.org/2000/svg" viewBox="0 0 24 24" fill="currentColor">
  <path fill-rule="evenodd" d="M17.7983 17.7983c-.2929.2929-.7678.2929-1.0607 0L6.20172 7.26239c-.29289-.2929-.29289-.76777 0-1.06066.2929-.2929.76777-.2929 1.06066 0L17.7983 16.7376c.2929.2929.2929.7678 0 1.0607Z" clip-rule="evenodd"/>
  <path fill-rule="evenodd" d="M10.7197 17.5508c0-.4142.3358-.75.75-.75h5.167c.0763-.0177.1228-.0497.1451-.072.0127-.0127.0172-.0216.0183-.0242.0004-.0008.0006-.0013.0006-.0016l-.0706-5.294c-.0055-.4142.3258-.7544.74-.76.4142-.0055.7544.3258.7599.74l.0709 5.3133c0 .8875-.7248 1.4813-1.4926 1.591l-.0527.0075h-5.2859c-.4142 0-.75-.3358-.75-.75Z" clip-rule="evenodd"/>
  <path fill-rule="evenodd" d="M6.5199 13.2096c-.41422 0-.75-.3358-.75-.75V7.22703c0-.83848.68934-1.52782 1.52781-1.52782h5.23259c.4142 0 .75.33579.75.75s-.3358.75-.75.75H7.29771c-.00032 0-.00751-.00002-.01767.01014-.01016.01016-.01014.01735-.01014.01767v5.23258c0 .4142-.33579.75-.75.75Z" clip-rule="evenodd"/>
</svg>
