<svg xmlns="http://www.w3.org/2000/svg" viewBox="0 0 24 24" fill="currentColor">
  <path fill-rule="evenodd" d="M15 20.25c2.8858 0 5.25-2.3642 5.25-5.25V9c0-2.88579-2.3642-5.25-5.25-5.25H9C6.21421 3.75 3.75 6.21421 3.75 9v6c0 2.8858 2.36421 5.25 5.25 5.25h6ZM21.75 15c0 3.7142-3.0358 6.75-6.75 6.75H9c-3.71421 0-6.75-3.0358-6.75-6.75V9c0-3.61422 3.13579-6.75 6.75-6.75h6c3.7142 0 6.75 3.03579 6.75 6.75v6Z" clip-rule="evenodd"/>
  <path fill-rule="evenodd" d="M14.8504 9.16247c.2929.2929.2929.76777 0 1.06063L10.1835 14.89c-.29292.2929-.7678.2929-1.06069 0-.29289-.2929-.29289-.7677 0-1.0606l4.66689-4.66693c.2929-.29289.7678-.29289 1.0607 0Z" clip-rule="evenodd"/>
  <path fill-rule="evenodd" d="M14.363 14.6426c0 .4142-.3358.75-.75.75h-3.5356c-.69704 0-1.24495-.548-1.24495-1.245V10.612c0-.4142.33578-.74996.75-.74996.41421 0 .74995.33576.74995.74996v3.2806h3.2806c.4142 0 .75.3357.75.75Z" clip-rule="evenodd"/>
</svg>
