<svg xmlns="http://www.w3.org/2000/svg" viewBox="0 0 24 24" fill="currentColor">
  <path fill-rule="evenodd" d="M16.6447 7.06968c.2929-.2929.7677-.2929 1.0606 0l2.5 2.5c.4929.49292.4929 1.26772 0 1.76062l-2.5 2.5c-.2929.2929-.7677.2929-1.0606 0-.2929-.2929-.2929-.7677 0-1.0606l2.3196-2.3197-2.3196-2.31966c-.2929-.2929-.2929-.76777 0-1.06066Z" clip-rule="evenodd"/>
  <path fill-rule="evenodd" d="M3.425 13.4c0-2.1142 1.63579-3.75001 3.75-3.75001h12.6c.4142 0 .75.33579.75.75001 0 .4142-.3358.75-.75.75h-12.6c-1.28578 0-2.25.9642-2.25 2.25s.96422 2.25 2.25 2.25h4c.4142 0 .75.3358.75.75s-.3358.75-.75.75h-4c-2.11421 0-3.75-1.6358-3.75-3.75Z" clip-rule="evenodd"/>
</svg>
