<svg xmlns="http://www.w3.org/2000/svg" viewBox="0 0 24 24" fill="currentColor">
  <path fill-rule="evenodd" d="M18.25 12.55c-.4142 0-.75-.3358-.75-.75V5.80001c0-.41422.3358-.75.75-.75s.75.33578.75.75V11.8c0 .4142-.3358.75-.75.75Z" clip-rule="evenodd"/>
  <path fill-rule="evenodd" d="m18.3 11.5893-2.3196-2.31962c-.2929-.29289-.7678-.29289-1.0607 0-.2929.2929-.2929.76772 0 1.06062l2.5 2.5c.4929.4929 1.2677.4929 1.7606 0l2.5-2.5c.2929-.2929.2929-.76772 0-1.06062-.2929-.29289-.7677-.29289-1.0606 0L18.3 11.5893Z" clip-rule="evenodd"/>
  <path fill-rule="evenodd" d="M7.95 17.75c-.41421 0-.75-.3357-.75-.75V5.8001c0-.41422.33579-.75.75-.75.41422 0 .75.33578.75.75V17c0 .4143-.33578.75-.75.75Z" clip-rule="evenodd"/>
  <path fill-rule="evenodd" d="M8.02256 17.4429c.01817-.0083.05213-.0282.09711-.0732l4.50003-4.5c.2929-.2929.7677-.2929 1.0606 0 .2929.2929.2929.7677 0 1.0606l-4.49997 4.5c-.31184.3119-.71908.5197-1.18033.5197-.46126 0-.86849-.2078-1.18033-.5197l-4.5-4.5c-.29289-.2929-.29289-.7677 0-1.0606.29289-.2929.76777-.2929 1.06066 0l4.5 4.5c.04498.045.07894.0649.09711.0732.0091.0042.01505.0058.01798.0065.00286.0006.0042.0006.00458.0006.00038 0 .00172 0 .00458-.0006.00293-.0007.00888-.0023.01798-.0065Z" clip-rule="evenodd"/>
</svg>
