<svg xmlns="http://www.w3.org/2000/svg" viewBox="0 0 24 24" fill="currentColor">
  <path d="M12 20.25c4.5563 0 8.25-3.6937 8.25-8.25 0-4.55635-3.6936-8.25-8.25-8.25-4.55635 0-8.25 3.69365-8.25 8.25 0 4.5563 3.69365 8.25 8.25 8.25ZM21.75 12c0 5.3848-4.3652 9.75-9.75 9.75-5.38478 0-9.75-4.3652-9.75-9.75 0-5.38478 4.36523-9.75 9.75-9.75 5.3848 0 9.75 4.36522 9.75 9.75Z"/>
  <path d="M15.75 12c0 .4142-.3358.75-.75.75H8.4c-.41421 0-.75-.3358-.75-.75s.33579-.75.75-.75H15c.4142 0 .75.3358.75.75Z"/>
  <path d="M11.5303 15.5303c-.2929.2929-.7677.2929-1.0606 0l-2.50003-2.5c-.49289-.4929-.49289-1.2677 0-1.7606l2.50003-2.50003c.2929-.29289.7677-.29289 1.0606 0 .2929.29289.2929.76777 0 1.06066L9.21066 12.15l2.31964 2.3197c.2929.2929.2929.7677 0 1.0606Z"/>
</svg>
