<svg xmlns="http://www.w3.org/2000/svg" viewBox="0 0 24 24" fill="currentColor">
  <path d="M3.8 12c0-.4142.33579-.75.75-.75h14.9c.4142 0 .75.3358.75.75s-.3358.75-.75.75H4.55c-.41421 0-.75-.3358-.75-.75Z"/>
  <path d="M8.98032 7.16967c.29289.29289.29289.76776 0 1.06066L5.32669 11.8839c-.04141.0665-.0517.122-.0517.1536 0 .018.00312.0274.00417.0301.00031.0008.00051.0012.00066.0015l3.79338 3.6935c.29677.289.3031.7638.01414 1.0606-.28896.2968-.76379.3031-1.06057.0142l-3.80716-3.707c-.62756-.6276-.53496-1.56-.06962-2.1804l.03198-.0426 3.73769-3.73773c.29289-.2929.76776-.2929 1.06066 0Z"/>
  <path d="M15.0197 7.26967c.2929-.29289.7677-.29289 1.0606 0l3.7 3.70003c.5929.5929.5929 1.5677 0 2.1606l-3.7 3.7c-.2929.2929-.7677.2929-1.0606 0-.2929-.2929-.2929-.7677 0-1.0606l3.7-3.7c.0002-.0003.0053-.0053.0053-.0197s-.0051-.0194-.0053-.0197l-3.7-3.69997c-.2929-.29289-.2929-.76776 0-1.06066Z"/>
</svg>
