<svg xmlns="http://www.w3.org/2000/svg" viewBox="0 0 24 24" fill="currentColor">
  <path fill-rule="evenodd" d="M20.25 12c0-4.55635-3.6937-8.25-8.25-8.25-4.55635 0-8.25 3.69365-8.25 8.25 0 4.5563 3.69365 8.25 8.25 8.25 4.5563 0 8.25-3.6937 8.25-8.25ZM12 2.25c5.3848 0 9.75 4.36522 9.75 9.75 0 5.3848-4.3652 9.75-9.75 9.75-5.38478 0-9.75-4.3652-9.75-9.75 0-5.38478 4.36522-9.75 9.75-9.75Z" clip-rule="evenodd"/>
  <path fill-rule="evenodd" d="M9.16248 9.54961c.29289-.2929.76777-.2929 1.06062 0L14.89 14.2165c.2929.2929.2929.7678 0 1.0607-.2928.2929-.7677.2929-1.0606 0l-4.66692-4.6669c-.29289-.2929-.29289-.7678 0-1.06069Z" clip-rule="evenodd"/>
  <path fill-rule="evenodd" d="M14.6425 10.037c.4143 0 .75.3358.75.75v3.5356c0 .697-.5479 1.245-1.2449 1.245H10.612c-.4142 0-.74996-.3358-.74996-.75 0-.4143.33576-.75.74996-.75h3.2805V10.787c0-.4142.3358-.75.75-.75Z" clip-rule="evenodd"/>
</svg>
