<svg xmlns="http://www.w3.org/2000/svg" viewBox="0 0 24 25" fill="currentColor">
  <path d="M12 18.2461c-.4142 0-.75-.3358-.75-.75V7.49609c0-.41421.3358-.75.75-.75s.75.33579.75.75V17.4961c0 .4142-.3358.75-.75.75Z"/>
  <path d="m12.069 16.7468 3.6936-3.7934c.289-.2968.7638-.3032 1.0606-.0142.2968.289.3031.7638.0141 1.0606l-3.7069 3.8071c-.5929.5929-1.5678.5929-2.1607 0l-.0071-.0071-3.69997-3.8c-.28896-.2968-.28263-.7716.01415-1.0606.29677-.289.7716-.2826 1.06056.0142l3.69356 3.7934c.0018.0013.0073.0048.0191.0048.0118 0 .0173-.0035.019-.0048Z"/>
  <path d="M18.75 17.5039c0 .4142-.3358.75-.75.75H6c-.41421 0-.75-.3358-.75-.75s.33579-.75.75-.75h12c.4142 0 .75.3358.75.75Z"/>
</svg>
