<svg xmlns="http://www.w3.org/2000/svg" viewBox="0 0 24 24" fill="currentColor">
  <path fill-rule="evenodd" d="M7.87229 15.9863c-.29289-.2929-.29289-.7677 0-1.0606l7.07111-7.0711c.2928-.29289.7677-.29289 1.0606 0 .2929.2929.2929.76777 0 1.06066L8.93295 15.9863c-.29289.2929-.76777.2929-1.06066 0Z" clip-rule="evenodd"/>
  <path fill-rule="evenodd" d="m9.03717 15.0593 5.21413-.1409c.4141-.0112.7588.3154.77.7295.0112.414-.3154.7588-.7294.77l-5.24276.1416H9.039c-.83847 0-1.52781-.6893-1.52781-1.5278v-.01l.07077-5.30327c.00553-.41418.34576-.74546.75994-.73994.41417.00553.74545.34576.73993.75994l-.07059 5.29407c.00026.0022.00174.0086.01009.0169.00729.0073.01305.0093.01584.0099Z" clip-rule="evenodd"/>
</svg>
