<svg xmlns="http://www.w3.org/2000/svg" viewBox="0 0 24 24" fill="currentColor">
  <path fill-rule="evenodd" d="M9.82702 9.06881c-.29289-.2929-.76776-.2929-1.06066 0L5.36513 12.47c-.27057.2706-.44476.6298-.44476 1.0306 0 .4007.17419.7599.44476 1.0305l3.40123 3.4012c.29289.2929.76777.2929 1.06066 0 .29288-.2929.29288-.7678 0-1.0607l-3.37108-3.371 3.37108-3.3711c.29288-.29293.29288-.7678 0-1.06069Z" clip-rule="evenodd"/>
  <path fill-rule="evenodd" d="M18.4 5.84804c-.4142 0-.75.33578-.75.75h.75c-.75 0-.75.00031-.75 0l-.0001.00799c-.0002.00909-.0005.02445-.0012.04566-.0014.04245-.0044.10816-.0105.1938-.0122.17154-.0371.42149-.0874.7234-.1012.60736-.3023 1.40573-.6969 2.19501-.3932.7863-.9712 1.5499-1.8241 2.1185-.8483.5655-2.013.9682-3.6323.9682H5.60003l-.00004 1.5h5.79751c1.8818 0 3.3431-.4726 4.4643-1.2201 1.1166-.7444 1.8516-1.7315 2.3337-2.6958.4807-.96134.7173-1.91361.8349-2.61922.0591-.35458.0889-.6517.104-.86312.0076-.10583.0115-.19056.0135-.25069.001-.03008.0015-.05404.0018-.07145l.0002-.02115.0001-.0068v-.00244c0-.00042 0-.00179-.75-.00179h.75c0-.41422-.3358-.75-.75-.75Z" clip-rule="evenodd"/>
</svg>
