<svg xmlns="http://www.w3.org/2000/svg" viewBox="0 0 24 24" fill="currentColor">
  <path fill-rule="evenodd" d="M12.55 5.75c0 .41421-.3358.75-.75.75h-6c-.41421 0-.75-.33579-.75-.75S5.38579 5 5.8 5h6c.4142 0 .75.33579.75.75Z" clip-rule="evenodd"/>
  <path fill-rule="evenodd" d="M11.5893 5.7 9.26967 8.01966c-.29289.29289-.29289.76776.00001 1.06066.29289.29289.76772.29289 1.06062 0l2.5-2.5c.4929-.4929.4929-1.26775 0-1.76064l-2.5-2.5c-.2929-.2929-.76773-.2929-1.06062 0-.2929.29289-.2929.76776-.00001 1.06066L11.5893 5.7Z" clip-rule="evenodd"/>
  <path fill-rule="evenodd" d="M17.7501 16.05c0 .4142-.3358.75-.75.75h-11.2c-.41421 0-.75-.3358-.75-.75s.33579-.75.75-.75h11.2c.4142 0 .75.3358.75.75Z" clip-rule="evenodd"/>
  <path fill-rule="evenodd" d="M17.4429 15.9775c-.0083-.0182-.0282-.0522-.0732-.0972l-4.5-4.5c-.2929-.2929-.2929-.7677 0-1.0606.2929-.2929.7677-.2929 1.0606 0l4.5 4.5c.3119.3118.5197.7191.5197 1.1803 0 .4613-.2078.8685-.5197 1.1803l-4.5 4.5c-.2929.2929-.7677.2929-1.0606 0-.2929-.2929-.2929-.7677 0-1.0606l4.5-4.5c.045-.045.0649-.079.0732-.0971.0042-.0091.0058-.0151.0065-.018.0006-.0029.0006-.0042.0006-.0046 0-.0004 0-.0017-.0006-.0046-.0007-.0029-.0023-.0089-.0065-.0179Z" clip-rule="evenodd"/>
</svg>
