<svg xmlns="http://www.w3.org/2000/svg" viewBox="0 0 24 25" fill="currentColor">
  <path fill-rule="evenodd" d="M17.7461 12.5c0 .4142-.3358.75-.75.75H6.99608c-.41421 0-.75-.3358-.75-.75s.33579-.75.75-.75H16.9961c.4142 0 .75.3358.75.75Z" clip-rule="evenodd"/>
  <path fill-rule="evenodd" d="m16.2468 12.4309-3.7934-3.69355c-.2968-.28896-.3032-.76379-.0142-1.06056.289-.29677.7638-.3031 1.0606-.01414l3.8071 3.70695c.5929.5929.5929 1.5678 0 2.1607l-.0071.0071-3.8 3.7c-.2968.2889-.7716.2826-1.0606-.0142-.289-.2968-.2826-.7716.0142-1.0606l3.7934-3.6935c.0013-.0018.0048-.0073.0048-.0191 0-.0118-.0035-.0173-.0048-.0191Z" clip-rule="evenodd"/>
  <path fill-rule="evenodd" d="M17.0039 5.75c.4142 0 .75.33579.75.75v12c0 .4142-.3358.75-.75.75s-.75-.3358-.75-.75v-12c0-.41421.3358-.75.75-.75Z" clip-rule="evenodd"/>
</svg>
