<svg xmlns="http://www.w3.org/2000/svg" viewBox="0 0 24 24" fill="currentColor">
  <path d="M3.75 12c0 4.5563 3.69365 8.25 8.25 8.25 4.5563 0 8.25-3.6937 8.25-8.25 0-4.55635-3.6937-8.25-8.25-8.25-4.55635 0-8.25 3.69365-8.25 8.25ZM12 21.75c-5.38478 0-9.75-4.3652-9.75-9.75 0-5.38478 4.36522-9.75 9.75-9.75 5.3848 0 9.75 4.36522 9.75 9.75 0 5.3848-4.3652 9.75-9.75 9.75Z"/>
  <path d="M14.6254 8.68747c.2929.2929.2929.76777 0 1.06066L9.9585 14.415c-.2929.2929-.76777.2929-1.06066 0-.2929-.2929-.2929-.7677 0-1.0606l4.66686-4.66693c.2929-.29289.7678-.29289 1.0607 0Z"/>
  <path d="M14.138 14.1676c0 .4142-.3358.75-.75.75H9.85243c-.69706 0-1.24498-.548-1.24498-1.245V10.137c0-.41417.33579-.74996.75-.74996.41422 0 .75005.33579.75005.74996v3.2806h3.2805c.4142 0 .75.3357.75.75Z"/>
</svg>
