<svg xmlns="http://www.w3.org/2000/svg" viewBox="0 0 24 24" fill="currentColor">
  <path d="M12 20.25c4.5563 0 8.25-3.6937 8.25-8.25 0-4.55635-3.6936-8.25-8.25-8.25-4.55635 0-8.25 3.69365-8.25 8.25 0 4.5563 3.69365 8.25 8.25 8.25ZM21.75 12c0 5.3848-4.3652 9.75-9.75 9.75-5.38478 0-9.75-4.3652-9.75-9.75 0-5.38478 4.36523-9.75 9.75-9.75 5.3848 0 9.75 4.36522 9.75 9.75Z"/>
  <path d="M14.6625 14.9254c-.2929.2929-.7677.2929-1.0606 0l-4.66693-4.6669c-.2929-.2929-.2929-.76778 0-1.06067.29289-.29289.76776-.29289 1.06066 0l4.66687 4.66687c.2929.2929.2929.7678 0 1.0607Z"/>
  <path d="M9.18243 14.438c-.41421 0-.75-.3358-.75-.75v-3.5356c0-.69703.54792-1.24495 1.24498-1.24495h3.53549c.4143 0 .75.33579.75.75 0 .41425-.3357.74995-.75.74995H9.93243v3.2806c0 .4142-.33578.75-.75.75Z"/>
</svg>
