<svg xmlns="http://www.w3.org/2000/svg" viewBox="0 0 24 24" fill="currentColor">
  <path fill-rule="evenodd" d="M9 3.75C6.11421 3.75 3.75 6.11421 3.75 9v6c0 2.8858 2.36421 5.25 5.25 5.25h6c2.7858 0 5.25-2.4642 5.25-5.25V9c0-2.88579-2.3642-5.25-5.25-5.25H9ZM2.25 9c0-3.71421 3.03579-6.75 6.75-6.75h6c3.7142 0 6.75 3.03579 6.75 6.75v6c0 3.6142-3.1358 6.75-6.75 6.75H9c-3.71421 0-6.75-3.0358-6.75-6.75V9Zm5.59998 3c0-.4142.33578-.75.75-.75h5.18932l-1.7197-1.71967c-.2928-.29289-.2928-.76777 0-1.06066.2929-.29289.7678-.29289 1.0607 0l2.5 2.50003c.4929.4929.4929 1.2677 0 1.7606l-2.5 2.5c-.2929.2929-.7678.2929-1.0607 0-.2928-.2929-.2928-.7677 0-1.0606l1.4197-1.4197H8.59998c-.41422 0-.75-.3358-.75-.75Z" clip-rule="evenodd"/>
</svg>
