<svg xmlns="http://www.w3.org/2000/svg" viewBox="0 0 24 24" fill="currentColor">
  <path d="M14.1729 14.9312c.2929.2929.7678.2929 1.0607 0l3.4012-3.4012c.2706-.2706.4448-.6298.4448-1.0306 0-.4007-.1742-.75989-.4448-1.03046L15.2336 6.0677c-.2929-.29289-.7678-.29289-1.0607 0-.2928.2929-.2928.76777 0 1.06066l3.3711 3.37104-3.3711 3.3711c-.2928.2929-.2928.7678 0 1.0607Z"/>
  <path d="M5.60001 18.152c.41421 0 .75-.3358.75-.75h-.75c.75 0 .75-.0004.75 0l.00011-.008c.00015-.0091.00047-.0245.00118-.0457.00141-.0424.00436-.1082.01048-.1938.01225-.1715.03712-.4215.08744-.7234.10122-.6074.30228-1.4057.69692-2.195.39318-.7863.97116-1.5499 1.82409-2.1185.84823-.5655 2.01287-.9682 3.63227-.9682H18.4V9.64942h-5.7975c-1.8818 0-3.34309.47258-4.46432 1.22008-1.11654.7444-1.85153 1.7315-2.33368 2.6958-.48067.9613-.71727 1.9136-.83487 2.6192-.0591.3546-.08894.6517-.10404.8631-.00756.1059-.01145.1906-.01346.2507-.001.0301-.00153.0541-.00181.0715l-.00026.0211-.00004.0068-.00001.0025c0 .0004 0 .0018.75.0018h-.75c0 .4142.33578.75.75.75Z"/>
</svg>
