<svg xmlns="http://www.w3.org/2000/svg" viewBox="0 0 24 24" fill="currentColor">
  <path d="M16.1277 8.01368c.2929.29289.2929.76776 0 1.06066L9.05664 16.1454c-.29289.2929-.76776.2929-1.06066 0-.29289-.2929-.29289-.7678 0-1.0607l7.07112-7.07102c.2928-.2929.7677-.2929 1.0606 0Z"/>
  <path d="m14.9628 8.94069-5.21412.14092c-.41406.01119-.75879-.3154-.76999-.72946-.01119-.41407.31541-.7588.72947-.76999l5.24274-.1417h.0101c.8385 0 1.5278.68934 1.5278 1.52782v.01l-.0707 5.30332c-.0056.4142-.3458.7454-.76.7399-.4142-.0055-.7454-.3457-.7399-.7599l.0706-5.29413c-.0003-.00218-.0018-.00852-.0101-.01687-.0073-.00729-.0131-.00934-.0159-.00991Z"/>
</svg>
