<svg xmlns="http://www.w3.org/2000/svg" viewBox="0 0 24 24" fill="currentColor">
  <path fill-rule="evenodd" d="M17.7375 12.1c0 .4142-.3358.75-.75.75H6.98752c-.41421 0-.75-.3358-.75-.75s.33579-.75.75-.75h9.99998c.4142 0 .75.3358.75.75Z" clip-rule="evenodd"/>
  <path fill-rule="evenodd" d="m16.2583 11.9318-3.7866-3.58734c-.3007-.28487-.3135-.75957-.0287-1.06027.2849-.3007.7596-.31353 1.0603-.02866l3.8074 3.60697.0071.0072c.5929.5929.5929 1.5677 0 2.1606l-.007.0071-3.8001 3.7c-.2967.2889-.7716.2826-1.0605-.0142-.289-.2968-.2827-.7716.0141-1.0606l3.7934-3.6935c.0014-.0018.0048-.0073.0048-.0191 0-.0103-.0026-.0158-.0042-.0182Z" clip-rule="evenodd"/>
</svg>
