<svg xmlns="http://www.w3.org/2000/svg" viewBox="0 0 24 24" fill="currentColor">
  <path d="M12 3.75c-4.55635 0-8.25 3.69365-8.25 8.25 0 4.5563 3.69365 8.25 8.25 8.25 4.5563 0 8.25-3.6937 8.25-8.25 0-4.55635-3.6937-8.25-8.25-8.25ZM2.25 12c0-5.38478 4.36522-9.75 9.75-9.75 5.3848 0 9.75 4.36522 9.75 9.75 0 5.3848-4.3652 9.75-9.75 9.75-5.38478 0-9.75-4.3652-9.75-9.75Z"/>
  <path d="M9.54962 14.8375c-.2929-.2929-.2929-.7677 0-1.0606l4.66688-4.66694c.2929-.29289.7678-.29289 1.0607 0 .2929.29289.2929.76777 0 1.06064l-4.6669 4.6669c-.2929.2929-.76779.2929-1.06068 0Z"/>
  <path d="M10.037 9.35745c0-.41421.3358-.75.75-.75h3.5356c.697 0 1.2449.54792 1.2449 1.24497V13.388c0 .4142-.3357.75-.75.75-.4142 0-.75-.3358-.75-.75v-3.2806H10.787c-.4142 0-.75-.33574-.75-.74995Z"/>
</svg>
