<svg xmlns="http://www.w3.org/2000/svg" viewBox="0 0 24 24" fill="currentColor">
  <path fill-rule="evenodd" d="M15.9863 16.1277c-.2929.2929-.7677.2929-1.0606 0L7.85459 9.05666c-.29289-.29289-.29289-.76777 0-1.06066s.76777-.29289 1.06066 0l7.07105 7.0711c.2929.2929.2929.7677 0 1.0606Z" clip-rule="evenodd"/>
  <path fill-rule="evenodd" d="m15.0593 14.9628-.1409-5.21412c-.0112-.41406.3154-.75879.7294-.76999.4141-.01119.7588.31541.77.72947l.1417 5.24274v.0101c0 .8385-.6893 1.5278-1.5278 1.5278h-.01l-5.30329-.0707c-.41417-.0056-.74545-.3458-.73993-.76.00552-.4142.34575-.7454.75993-.7399l5.29409.0706c.0022-.0003.0085-.0018.0169-.0101.0073-.0073.0093-.0131.0099-.0159Z" clip-rule="evenodd"/>
</svg>
