<svg xmlns="http://www.w3.org/2000/svg" viewBox="0 0 24 25" fill="currentColor">
  <path fill-rule="evenodd" d="M2.25 8.2c0-2.61421 2.13579-4.75 4.75-4.75h10c2.6142 0 4.75 2.13579 4.75 4.75 0 .41421-.3358.75-.75.75s-.75-.33579-.75-.75c0-1.78579-1.4642-3.25-3.25-3.25H7c-1.78579 0-3.25 1.46421-3.25 3.25v6c0 1.7858 1.46421 3.25 3.25 3.25h5.7c.4142 0 .75.3358.75.75s-.3358.75-.75.75H7c-2.61421 0-4.75-2.1358-4.75-4.75v-6Z" clip-rule="evenodd"/>
  <path fill-rule="evenodd" d="M9.96967 15.1697c.29293-.2929.76773-.2929 1.06063 0l2.1 2.1c.2774.2773.3697.6401.3697.9428 0 .3097-.0934.6296-.276.9035l-.0412.0618-2.1525 2.1525c-.2929.2929-.7677.2929-1.06063 0-.29289-.2929-.29289-.7677 0-1.0606L11.9893 18.25l-2.01963-2.0197c-.29289-.2929-.29289-.7677 0-1.0606Z" clip-rule="evenodd"/>
</svg>
