<svg xmlns="http://www.w3.org/2000/svg" viewBox="0 0 24 24" fill="currentColor">
  <path d="M5.74999 11.45c.41422 0 .75.3358.75.75v6c0 .4142-.33578.75-.75.75-.41421 0-.75-.3358-.75-.75v-6c0-.4142.33579-.75.75-.75Z"/>
  <path d="m5.69999 12.4107 2.31966 2.3196c.29289.2929.76777.2929 1.06066 0s.29289-.7677 0-1.0606l-2.5-2.5c-.49289-.4929-1.26775-.4929-1.76064 0l-2.5 2.5c-.29289.2929-.29289.7677 0 1.0606.29289.2929.76777.2929 1.06066 0l2.31966-2.3196Z"/>
  <path d="M16.05 6.24994c.4142 0 .75.33579.75.75V18.1999c0 .4142-.3358.75-.75.75s-.75-.3358-.75-.75V6.99994c0-.41421.3358-.75.75-.75Z"/>
  <path d="M15.9774 6.55709c-.0181.00831-.0521.02825-.0971.07323l-4.5 4.49998c-.2929.2929-.7677.2929-1.0606 0-.2929-.2929-.2929-.7677 0-1.0606l4.5-4.50004c.3118-.31184.719-.51967 1.1803-.51967.4613 0 .8685.20783 1.1803.51967l4.5 4.50004c.2929.2929.2929.7677 0 1.0606-.2929.2929-.7677.2929-1.0606 0l-4.5-4.49998c-.045-.04498-.079-.06492-.0971-.07323-.0091-.00415-.0151-.0058-.018-.00645-.0029-.00064-.0042-.00065-.0046-.00065-.0004 0-.0017.00001-.0046.00065-.0029.00065-.0089.0023-.018.00645Z"/>
</svg>
