<svg xmlns="http://www.w3.org/2000/svg" viewBox="0 0 24 24" fill="currentColor">
  <path fill-rule="evenodd" d="M6.26248 11.9c0-.4142.33579-.75.75-.75H17.0125c.4142 0 .75.3358.75.75s-.3358.75-.75.75H7.01248c-.41421 0-.75-.3358-.75-.75Z" clip-rule="evenodd"/>
  <path fill-rule="evenodd" d="m7.74168 12.0682 3.78662 3.5873c.3007.2849.3135.7596.0287 1.0603-.2849.3007-.7596.3135-1.0603.0287l-3.80738-3.607-.00716-.0072c-.5929-.5929-.5929-1.5677 0-2.1606l.00707-.0071 3.80007-3.69996c.2967-.28896.7716-.28263 1.0605.01414.289.29678.2827.77161-.0141 1.06057L7.74228 12.0309c-.00135.0018-.00479.0073-.00479.0191 0 .0103.00262.0158.00419.0182Z" clip-rule="evenodd"/>
</svg>
