<svg xmlns="http://www.w3.org/2000/svg" viewBox="0 0 24 24" fill="currentColor">
  <path fill-rule="evenodd" d="M10.4197 11.5803c.2929.2929.7678.2929 1.0607 0 .2928-.2929.2928-.7677 0-1.0606L8.08035 7.11967c-.27051-.27051-.62964-.44467-1.03033-.44467-.40068 0-.75981.17416-1.03033.44467l-3.4 3.40003c-.29289.2929-.29289.7677 0 1.0606.2929.2929.76777.2929 1.06066 0l2.61968-2.61964V16.55c0 .4142.33579.75.75.75s.75-.3358.75-.75V8.96067l2.61967 2.61963ZM17.7 7.45001c0-.41421-.3358-.75-.75-.75s-.75.33579-.75.75v7.58939l-2.6197-2.6197c-.2928-.2929-.7677-.2929-1.0606 0-.2929.2929-.2929.7677 0 1.0606l3.4 3.4c.2705.2706.6296.4447 1.0303.4447.4007 0 .7598-.1741 1.0303-.4447l3.4-3.4c.2929-.2929.2929-.7677 0-1.0606-.2928-.2929-.7677-.2929-1.0606 0L17.7 15.0393V7.45001Z" clip-rule="evenodd"/>
</svg>
