<svg xmlns="http://www.w3.org/2000/svg" viewBox="0 0 24 24" fill="currentColor">
  <path fill-rule="evenodd" d="M9.828 14.9303c-.29289.2929-.76777.2929-1.06066 0l-3.4-3.4c-.27052-.2705-.44467-.6296-.44467-1.0303 0-.4007.17415-.75982.44467-1.03034l3.4-3.4c.29289-.29289.76777-.29289 1.06066 0 .2929.2929.2929.76777 0 1.06066L6.45833 10.5 9.828 13.8697c.2929.2929.2929.7677 0 1.0606Z" clip-rule="evenodd"/>
  <path fill-rule="evenodd" d="M18.3977 18.15c-.4142 0-.75-.3358-.75-.75h.75c-.75 0-.75-.0003-.75 0l-.0001-.008c-.0002-.0091-.0005-.0244-.0012-.0456-.0014-.0425-.0043-.1081-.0105-.1938-.0122-.1714-.0371-.4213-.0874-.7231-.1012-.6071-.3021-1.4051-.6966-2.1941-.393-.786-.9708-1.5492-1.8233-2.1176-.8479-.5653-2.0121-.9678-3.6309-.9678H5.60239l-.00004-1.50001h5.79535c1.8812 0 3.342.47251 4.4629 1.21971 1.1162.7441 1.8509 1.7309 2.3329 2.6949.4805.961.7171 1.913.8346 2.6183.0591.3545.0889.6515.104.8629.0076.1058.0115.1905.0135.2506.001.0301.0015.054.0018.0714l.0003.0212v.0092c0 .0004 0 .0018-.75.0018h.75c0 .4142-.3358.75-.75.75Z" clip-rule="evenodd"/>
</svg>
