<svg xmlns="http://www.w3.org/2000/svg" viewBox="0 0 24 24" fill="currentColor">
  <path d="M15 20.25c2.8858 0 5.25-2.3642 5.25-5.25V9c0-2.88579-2.3642-5.25-5.25-5.25H9C6.21421 3.75 3.75 6.21421 3.75 9v6c0 2.8858 2.36421 5.25 5.25 5.25h6ZM21.75 15c0 3.7142-3.0358 6.75-6.75 6.75H9c-3.71421 0-6.75-3.0358-6.75-6.75V9c0-3.61422 3.13579-6.75 6.75-6.75h6c3.7142 0 6.75 3.03579 6.75 6.75v6Z"/>
  <path d="M16.15 12c0 .4142-.3358.75-.75.75H8.79999c-.41421 0-.75-.3358-.75-.75s.33579-.75.75-.75H15.4c.4142 0 .75.3358.75.75Z"/>
  <path d="M11.9303 15.5303c-.2929.2929-.7677.2929-1.0606 0l-2.50004-2.5c-.49289-.4929-.49289-1.2677 0-1.7606l2.50004-2.50003c.2929-.29289.7677-.29289 1.0606 0 .2929.29289.2929.76777 0 1.06066L9.61065 12.15l2.31965 2.3197c.2929.2929.2929.7677 0 1.0606Z"/>
</svg>
