<svg xmlns="http://www.w3.org/2000/svg" viewBox="0 0 24 24" fill="currentColor">
  <path fill-rule="evenodd" d="M19.7 12c0 .4142-.3358.75-.75.75H5.05c-.41421 0-.75-.3358-.75-.75s.33579-.75.75-.75h13.9c.4142 0 .75.3358.75.75Z" clip-rule="evenodd"/>
  <path fill-rule="evenodd" d="M10.875 5.76434c.2958.28992.3006.76477.0107 1.0606L5.98037 11.8304c-.06384.0638-.08036.1248-.08036.1696 0 .0448.0165.1058.08033.1697l4.89996 4.9c.2929.2929.2929.7677 0 1.0606-.2929.2929-.7677.2929-1.06062 0l-4.9-4.9c-.69188-.6919-.69289-1.7646-.00302-2.4576l4.89769-4.99765c.28995-.29584.76475-.30063 1.06065-.01071Z" clip-rule="evenodd"/>
  <path fill-rule="evenodd" d="M18.95 5.25c.4142 0 .75.33579.75.75v12c0 .4142-.3358.75-.75.75s-.75-.3358-.75-.75V6c0-.41421.3358-.75.75-.75Z" clip-rule="evenodd"/>
</svg>
