<svg xmlns="http://www.w3.org/2000/svg" viewBox="0 0 24 25" fill="currentColor">
  <path fill-rule="evenodd" d="M6.25391 12.5c0-.4142.33578-.75.75-.75h9.99999c.4142 0 .75.3358.75.75s-.3358.75-.75.75H7.00391c-.41422 0-.75-.3358-.75-.75Z" clip-rule="evenodd"/>
  <path fill-rule="evenodd" d="m7.75323 12.5691 3.79337 3.6935c.2968.289.3032.7638.0142 1.0606-.289.2968-.7638.3031-1.0606.0142l-3.80714-3.707c-.59289-.5929-.59285-1.5678.00005-2.1607l.00707-.0071 3.80002-3.69995c.2968-.28897.7716-.28264 1.0606.01414.289.29677.2826.7716-.0142 1.06056L7.75323 12.5309c-.00136.0018-.00479.0073-.00479.0191 0 .0118.00343.0173.00479.0191Z" clip-rule="evenodd"/>
  <path fill-rule="evenodd" d="M6.99609 19.25c-.41421 0-.75-.3358-.75-.75v-12c0-.41421.33579-.75.75-.75.41422 0 .75.33579.75.75v12c0 .4142-.33578.75-.75.75Z" clip-rule="evenodd"/>
</svg>
