<svg xmlns="http://www.w3.org/2000/svg" viewBox="0 0 24 24" fill="currentColor">
  <path d="M8.01367 7.87227c.29289-.29289.76776-.29289 1.06066 0l7.07107 7.07103c.2929.2929.2929.7678 0 1.0607-.2929.2929-.7678.2929-1.0607 0L8.01367 8.93293c-.2929-.29289-.2929-.76776 0-1.06066Z"/>
  <path d="m8.94068 9.03716.14092 5.21414c.01119.4141-.3154.7588-.72946.77-.41406.0112-.7588-.3154-.76999-.7295l-.1417-5.24268v-.01013c0-.83848.68934-1.52782 1.52782-1.52782h.01l5.30333.07078c.4141.00552.7454.34576.7399.75993-.0055.41418-.3457.74546-.7599.73994l-5.29414-.07059c-.00218.00026-.00852.00174-.01687.01008-.00729.00729-.00934.01306-.00991.01585Z"/>
</svg>
