<svg xmlns="http://www.w3.org/2000/svg" viewBox="0 0 24 24" fill="currentColor">
  <path fill-rule="evenodd" d="M20.25 9c0-2.88579-2.3642-5.25-5.25-5.25H9C6.11421 3.75 3.75 6.11421 3.75 9v6c0 2.7858 2.46421 5.25 5.25 5.25h6c2.8858 0 5.25-2.3642 5.25-5.25V9ZM15 2.25c3.7142 0 6.75 3.03579 6.75 6.75v6c0 3.7142-3.0358 6.75-6.75 6.75H9c-3.61421 0-6.75-3.1358-6.75-6.75V9c0-3.71421 3.03579-6.75 6.75-6.75h6Zm-3 5.6c.4142 0 .75.33578.75.75v5.1893l1.7197-1.7196c.2929-.2929.7677-.2929 1.0606 0 .2929.2929.2929.7677 0 1.0606l-2.5 2.5c-.4929.4929-1.2677.4929-1.7606 0l-2.50003-2.5c-.29289-.2929-.29289-.7677 0-1.0606.29289-.2929.76777-.2929 1.06066 0L11.25 13.4893V8.6c0-.41422.3358-.75.75-.75Z" clip-rule="evenodd"/>
</svg>
