<svg xmlns="http://www.w3.org/2000/svg" viewBox="0 0 24 24" fill="currentColor">
  <path d="M3.54999 10.75c0-.6772.6388-1.54173 2.25017-2.28078C7.34423 7.76104 9.53304 7.3 12 7.3c2.4669 0 4.6558.46104 6.1998 1.16922C19.8112 9.20827 20.45 10.0728 20.45 10.75c0 .5429-.3672 1.1434-1.166 1.676-.3447.2297-.4378.6954-.208 1.04.2297.3447.6954.4378 1.04.208 1.0012-.6674 1.834-1.6669 1.834-2.924 0-1.62276-1.4112-2.85826-3.1248-3.64421C17.0442 6.28897 14.633 5.8 12 5.8c-2.63307 0-5.04425.48897-6.82518 1.30579-1.71364.78595-3.12483 2.02145-3.12483 3.64421 0 .8895.52914 1.635 1.2006 2.2113.68208.5854 1.61287 1.0885 2.6636 1.4996 1.62651.6365 3.633 1.0885 5.67661 1.2614l-1.3732 1.1534c-.31715.2664-.35829.7395-.0919 1.0567.2665.3172.7395.3583 1.0567.0919l2.5-2.1.0249-.0209.023-.0231c.1138-.1137.1989-.2381.2597-.3672.1002-.1276.16-.2883.16-.4631 0-.0867-.0147-.1699-.0418-.2473-.0173-.1797-.0673-.3479-.1374-.4881l-.0396-.0792-.0569-.0678-2.1-2.5c-.2664-.3172-.7395-.3583-1.0567-.0919-.3171.2664-.3583.7395-.0919 1.0567l1.3575 1.616c-2.00042-.1434-3.97014-.5769-5.52241-1.1843-.96177-.3764-1.72473-.8046-2.23328-1.241-.51917-.4456-.67752-.8126-.67752-1.0731Z"/>
</svg>
