<svg xmlns="http://www.w3.org/2000/svg" viewBox="0 0 24 24" fill="currentColor">
  <path fill-rule="evenodd" d="M3.75 15c0 2.8858 2.36421 5.25 5.25 5.25h6c2.8858 0 5.25-2.3642 5.25-5.25V9c0-2.78579-2.4642-5.25-5.25-5.25H9C6.11421 3.75 3.75 6.11421 3.75 9v6ZM9 21.75c-3.71421 0-6.75-3.0358-6.75-6.75V9c0-3.71421 3.03579-6.75 6.75-6.75h6c3.6142 0 6.75 3.13579 6.75 6.75v6c0 3.7142-3.0358 6.75-6.75 6.75H9Z" clip-rule="evenodd"/>
  <path fill-rule="evenodd" d="M12 16.15c-.4142 0-.75-.3358-.75-.75V8.8c0-.41421.3358-.75.75-.75s.75.33579.75.75v6.6c0 .4142-.3358.75-.75.75Z" clip-rule="evenodd"/>
  <path fill-rule="evenodd" d="M8.46967 11.9303c-.29289-.2929-.29289-.7677 0-1.0606l2.50003-2.50003c.4929-.49289 1.2677-.49289 1.7606 0l2.5 2.50003c.2929.2929.2929.7677 0 1.0606-.2929.2929-.7677.2929-1.0606 0L11.85 9.61066 9.53033 11.9303c-.29289.2929-.76777.2929-1.06066 0Z" clip-rule="evenodd"/>
</svg>
