<svg xmlns="http://www.w3.org/2000/svg" viewBox="0 0 24 24" fill="currentColor">
  <path d="M3.75 12c0 4.5563 3.69365 8.25 8.25 8.25 4.5563 0 8.25-3.6937 8.25-8.25 0-4.55635-3.6937-8.25-8.25-8.25-4.55635 0-8.25 3.69365-8.25 8.25ZM12 21.75c-5.38478 0-9.75-4.3652-9.75-9.75 0-5.38478 4.36522-9.75 9.75-9.75 5.3848 0 9.75 4.36522 9.75 9.75 0 5.3848-4.3652 9.75-9.75 9.75Z"/>
  <path d="M12 15.75c-.4142 0-.75-.3358-.75-.75V8.4c0-.41421.3358-.75.75-.75s.75.33579.75.75V15c0 .4142-.3358.75-.75.75Z"/>
  <path d="M8.46967 11.5303c-.29289-.2929-.29289-.7677 0-1.0606l2.50003-2.50003c.4929-.49289 1.2677-.49289 1.7606 0l2.5 2.50003c.2929.2929.2929.7677 0 1.0606-.2929.2929-.7677.2929-1.0606 0L11.85 9.21066 9.53033 11.5303c-.29289.2929-.76777.2929-1.06066 0Z"/>
</svg>
