<svg xmlns="http://www.w3.org/2000/svg" viewBox="0 0 24 24" fill="currentColor">
  <path d="M20.25 9c0-2.88579-2.3642-5.25-5.25-5.25H9C6.11421 3.75 3.75 6.11421 3.75 9v6c0 2.7858 2.46421 5.25 5.25 5.25h6c2.8858 0 5.25-2.3642 5.25-5.25V9ZM15 2.25c3.7142 0 6.75 3.03579 6.75 6.75v6c0 3.7142-3.0358 6.75-6.75 6.75H9c-3.61421 0-6.75-3.1358-6.75-6.75V9c0-3.71421 3.03579-6.75 6.75-6.75h6Z"/>
  <path d="M15.1375 14.7004c-.2929.2929-.7678.2929-1.0607 0l-4.66686-4.6669c-.29289-.29291-.29289-.76778 0-1.06067.2929-.2929.76776-.2929 1.06066 0l4.6669 4.66687c.2929.2929.2929.7678 0 1.0607Z"/>
  <path d="M9.65747 14.213c-.41421 0-.75-.3358-.75-.75V9.92742c0-.69705.54792-1.24497 1.24493-1.24497h3.5356c.4142 0 .75.33578.75.75 0 .41421-.3358.74995-.75.74995h-3.2805v3.2806c0 .4142-.3358.75-.75003.75Z"/>
</svg>
