<svg xmlns="http://www.w3.org/2000/svg" viewBox="0 0 24 24" fill="currentColor">
  <path fill-rule="evenodd" d="M9 3.75C6.11421 3.75 3.75 6.11421 3.75 9v6c0 2.8858 2.36421 5.25 5.25 5.25h6c2.7858 0 5.25-2.4642 5.25-5.25V9c0-2.88579-2.3642-5.25-5.25-5.25H9ZM2.25 9c0-3.71421 3.03579-6.75 6.75-6.75h6c3.7142 0 6.75 3.03579 6.75 6.75v6c0 3.6142-3.1358 6.75-6.75 6.75H9c-3.71421 0-6.75-3.0358-6.75-6.75V9Z" clip-rule="evenodd"/>
  <path fill-rule="evenodd" d="M9.14959 14.8375c-.29289-.2929-.29289-.7677 0-1.0606l4.66691-4.66694c.2929-.29289.7678-.29289 1.0607 0 .2929.29289.2929.76777 0 1.06064l-4.6669 4.6669c-.29294.2929-.76781.2929-1.06071 0Z" clip-rule="evenodd"/>
  <path fill-rule="evenodd" d="M9.63702 9.35745c0-.41421.33578-.75.74998-.75h3.5355c.6971 0 1.245.54792 1.245 1.24497V13.388c0 .4142-.3358.75-.75.75s-.75-.3358-.75-.75v-3.2806H10.387c-.4142 0-.74998-.33574-.74998-.74995Z" clip-rule="evenodd"/>
</svg>
