<svg xmlns="http://www.w3.org/2000/svg" viewBox="0 0 24 25" fill="currentColor">
  <path d="M16.7 4.25c.4142 0 .75.33579.75.75v14.9c0 .4142-.3358.75-.75.75s-.75-.3358-.75-.75V5c0-.41421.3358-.75.75-.75Z"/>
  <path d="m16.7303 5.73033-3.7 3.7c-.2928.29289-.7677.29289-1.0606 0-.2929-.2929-.2929-.76777 0-1.06066l3.7-3.7c.5915-.59152 1.5632-.59289 2.1565-.00411l3.797 3.69708c.2968.28897.3031.7638.0142 1.06057-.289.29677-.7638.3031-1.0606.01414l-3.8072-3.70697c-.0001-.00016-.0051-.00538-.0196-.00538-.0144 0-.0194.0051-.0197.00533Z"/>
  <path d="M12.0697 15.3697c.2929-.2929.7677-.2929 1.0606 0l3.7 3.7c.0002.0001.0052.0053.0197.0053.0144 0 .0195-.0051.0197-.0053l3.7-3.7c.2929-.2929.7677-.2929 1.0606 0 .2929.2929.2929.7677 0 1.0606l-3.7 3.7c-.5929.5929-1.5677.5929-2.1606 0l-3.7-3.7c-.2929-.2929-.2929-.7677 0-1.0606Z"/>
  <path d="M4.90001 5.25c-.68579 0-1.25.56421-1.25 1.25v2c0 .66207.43659 1.25 1.25 1.25h2c.68579 0 1.25-.56421 1.25-1.25v-2c0-.68579-.56421-1.25-1.25-1.25h-2Zm-2.75 1.25c0-1.51421 1.23579-2.75 2.75-2.75h2c1.51421 0 2.75 1.23579 2.75 2.75v2c0 1.5142-1.23579 2.75-2.75 2.75h-2c-1.78659 0-2.75-1.41207-2.75-2.75v-2Z"/>
  <path d="M4.90001 15.25c-.68579 0-1.25.5642-1.25 1.25v2c0 .3935.12411.7003.31142.9014.17935.1927.47164.3486.93858.3486h2c.68579 0 1.25-.5642 1.25-1.25v-2c0-.6858-.56421-1.25-1.25-1.25h-2Zm-2.75 1.25c0-1.5142 1.23579-2.75 2.75-2.75h2c1.51421 0 2.75 1.2358 2.75 2.75v2c0 1.5142-1.23579 2.75-2.75 2.75h-2c-.83307 0-1.54077-.2941-2.03642-.8264-.4877-.5239-.71358-1.2171-.71358-1.9236v-2Z"/>
</svg>
