<svg xmlns="http://www.w3.org/2000/svg" viewBox="0 0 24 24" fill="currentColor">
  <path d="M13.4803 2.61966c-.2929-.29289-.7678-.29289-1.0606 0-.2929.2929-.2929.76777 0 1.06066l2.6196 2.61967H7.44998c-.41421 0-.75.33578-.75.75 0 .41421.33579.75.75.75h7.58932l-2.6196 2.61971c-.2929.2929-.2929.7677 0 1.0606.2928.2929.7677.2929 1.0606 0l3.4-3.39998c.2705-.27051.4447-.62964.4447-1.03033 0-.40068-.1742-.75981-.4447-1.03033l-3.4-3.4ZM8.96064 16.2l2.61966-2.6197c.2929-.2929.2929-.7677 0-1.0606-.2929-.2929-.7677-.2929-1.0606 0l-3.40004 3.4c-.27052.2705-.44467.6296-.44467 1.0303 0 .4007.17415.7598.44467 1.0303l3.40004 3.4c.2929.2929.7677.2929 1.0606 0 .2929-.2929.2929-.7677 0-1.0606L8.96066 17.7H16.55c.4142 0 .75-.3358.75-.75s-.3358-.75-.75-.75H8.96064Z"/>
</svg>
