<svg xmlns="http://www.w3.org/2000/svg" viewBox="0 0 24 24" fill="currentColor">
  <path fill-rule="evenodd" d="M11.9 17.7375c-.4142 0-.75-.3358-.75-.75v-10c0-.41422.3358-.75.75-.75s.75.33578.75.75v10c0 .4142-.3358.75-.75.75Z" clip-rule="evenodd"/>
  <path fill-rule="evenodd" d="m12.0682 16.2583 3.5873-3.7866c.2849-.3007.7596-.3135 1.0603-.0287.3007.2849.3135.7596.0287 1.0603l-3.607 3.8074-.0072.0071c-.5929.5929-1.5677.5929-2.1606 0l-.0071-.007-3.69994-3.8001c-.28896-.2968-.28263-.7716.01414-1.0606.29677-.2889.7716-.2826 1.06056.0142l3.69364 3.7934c.0017.0014.0072.0048.019.0048.0103 0 .0158-.0026.0182-.0042Z" clip-rule="evenodd"/>
</svg>
