<svg xmlns="http://www.w3.org/2000/svg" viewBox="0 0 24 24" fill="currentColor">
  <path d="M12.1 6.2625c.4142 0 .75.33579.75.75v10c0 .4142-.3358.75-.75.75s-.75-.3358-.75-.75v-10c0-.41421.3358-.75.75-.75Z"/>
  <path d="m11.9318 7.7417-3.58735 3.7866c-.28487.3007-.75957.3135-1.06027.0287-.3007-.2849-.31353-.7596-.02866-1.0603l3.60698-3.80736.0072-.00717c.5929-.59289 1.5677-.59289 2.1606 0l.0071.00707 3.6999 3.80006c.289.2968.2827.7716-.0141 1.0606-.2968.2889-.7716.2826-1.0606-.0142L11.969 7.7423c-.0017-.00136-.0072-.0048-.019-.0048-.0103 0-.0158.00263-.0182.0042Z"/>
</svg>
