<svg xmlns="http://www.w3.org/2000/svg" viewBox="0 0 24 24" fill="currentColor">
  <path fill-rule="evenodd" d="M3.75 15c0 2.8858 2.36421 5.25 5.25 5.25h6c2.8858 0 5.25-2.3642 5.25-5.25V9c0-2.78579-2.4642-5.25-5.25-5.25H9C6.11421 3.75 3.75 6.11421 3.75 9v6ZM9 21.75c-3.71421 0-6.75-3.0358-6.75-6.75V9c0-3.71421 3.03579-6.75 6.75-6.75h6c3.6142 0 6.75 3.13579 6.75 6.75v6c0 3.7142-3.0358 6.75-6.75 6.75H9Z" clip-rule="evenodd"/>
  <path fill-rule="evenodd" d="M8.86246 9.29961c.29289-.2929.76777-.2929 1.06066 0L14.59 13.9665c.2929.2929.2929.7678 0 1.0607-.2929.2929-.7677.2929-1.0606 0l-4.66694-4.6669c-.29289-.2929-.29289-.7678 0-1.06069Z" clip-rule="evenodd"/>
  <path fill-rule="evenodd" d="M14.3426 9.78705c.4142 0 .75.33575.75.74995v3.5356c0 .697-.548 1.245-1.245 1.245h-3.5355c-.41426 0-.75005-.3358-.75005-.75 0-.4143.33579-.75.75005-.75h3.2805V10.537c0-.4142.3357-.74995.75-.74995Z" clip-rule="evenodd"/>
</svg>
