<svg xmlns="http://www.w3.org/2000/svg" viewBox="0 0 24 24" fill="currentColor">
  <path fill-rule="evenodd" d="M12 19.7c-.4142 0-.75-.3358-.75-.75V5.05c0-.41422.3358-.75.75-.75s.75.33578.75.75v13.9c0 .4142-.3358.75-.75.75Z" clip-rule="evenodd"/>
  <path fill-rule="evenodd" d="M18.2357 10.875c-.29.2958-.7648.3006-1.0606.0107l-5.0055-4.90534c-.0638-.06383-.1248-.08035-.1696-.08035-.0448 0-.1058.01649-.1697.08033L6.93034 10.8803c-.2929.2929-.76777.2929-1.06066 0-.2929-.2929-.2929-.7677 0-1.06062l4.90002-4.9c.6919-.69189 1.7646-.6929 2.4576-.00303l4.9977 4.8977c.2958.28995.3006.76475.0107 1.06065Z" clip-rule="evenodd"/>
  <path fill-rule="evenodd" d="M18.75 18.95c0 .4142-.3358.75-.75.75H6c-.41421 0-.75-.3358-.75-.75s.33579-.75.75-.75h12c.4142 0 .75.3358.75.75Z" clip-rule="evenodd"/>
</svg>
