<svg xmlns="http://www.w3.org/2000/svg" viewBox="0 0 24 24" fill="currentColor">
  <path d="M21.1282 18.0296c-.0403.1639-.1359.3152-.2822.4234-.0334.0247-.0683.0463-.1042.0647-.254.1964-.5582.2823-.8418.2823h-.0183l-.0182-.0009-4.1-.2c-.4138-.0202-.7328-.3719-.7126-.7857.0202-.4137.3719-.7327.7856-.7125l3.1916.1556-4.5882-6.2026c-.1-.0783-.2331-.0879-.3408-.0342l-2.4311 2.82-.0453.0526-.0542.0434c-.7913.633-1.86701.5355-2.44859-.2097L2.73605 6.44448c-.27307-.31146-.24194-.78531.06952-1.05838.31146-.27306.78531-.24194 1.05838.06952L10.264 12.7556l.0188.0215.0172.0229c.0215.0287.0543.0492.0996.0537.0356.0036.1013-.0013.1871-.0569l2.4452-2.8365.0531-.06154.065-.04876c.6761-.50705 1.697-.51369 2.3803.1697l.0395.0394.0332.0449 4.2258 5.7127.1221-2.5033c.0202-.4137.3719-.7327.7856-.7125.4138.0201.7328.3719.7126.7856l-.1992 4.0848c-.0028.2003-.0449.389-.1217.5583Z"/>
</svg>
