<svg xmlns="http://www.w3.org/2000/svg" viewBox="0 0 24 24" fill="currentColor">
  <path d="M7.35531 16.9303c-.29289.2929-.76777.2929-1.06066 0l-2.5-2.5c-.49289-.4929-.49289-1.2677 0-1.7606l2.5-2.5c.29289-.29293.76777-.29293 1.06066 0 .29289.2929.2929.7677 0 1.0606L5.03564 13.55l2.31967 2.3197c.2929.2929.29289.7677 0 1.0606Z"/>
  <path d="M20.575 10.6c0 2.1142-1.6358 3.75-3.75 3.75H4.22498c-.41421 0-.75-.3358-.75-.75s.33579-.75.75-.75H16.825c1.2858 0 2.25-.9642 2.25-2.25s-.9642-2.25001-2.25-2.25001h-4c-.4142 0-.75-.33579-.75-.75s.3358-.75.75-.75h4c2.1142 0 3.75 1.63579 3.75 3.75001Z"/>
</svg>
