<svg xmlns="http://www.w3.org/2000/svg" viewBox="0 0 24 24" fill="currentColor">
  <path fill-rule="evenodd" d="M14.172 9.06968c.2929-.2929.7678-.2929 1.0607 0l3.4 3.40002c.2705.2705.4446.6296.4446 1.0303 0 .4007-.1741.7598-.4446 1.0303l-3.4 3.4c-.2929.2929-.7678.2929-1.0607 0-.2929-.2929-.2929-.7677 0-1.0606L17.5417 13.5l-3.3697-3.3697c-.2929-.29286-.2929-.76773 0-1.06062Z" clip-rule="evenodd"/>
  <path fill-rule="evenodd" d="M5.60229 5.85001c.41422 0 .75.33578.75.75h-.75c.75 0 .75001.00031.75 0l.00012.00798c.00015.00909.00047.02444.00118.04564.00141.04243.00436.10812.01047.19372.01225.17147.03711.42132.08741.72311.10118.60713.30216 1.40517.69665 2.19414.39301.786.97075 1.5492 1.82333 2.1176.84787.5653 2.01205.9678 3.63085.9678h5.7953v1.5h-5.7953c-1.8812 0-3.34203-.4725-4.46291-1.2197-1.11617-.7441-1.85093-1.7309-2.33292-2.6949-.48051-.96102-.71703-1.91298-.8346-2.61834-.05907-.35447-.0889-.65149-.104-.86284-.00755-.1058-.01145-.1905-.01345-.25061-.001-.03007-.00153-.05403-.00181-.07143l-.00026-.02115-.00005-.0068V6.6018c0-.00042-.00001-.00179.74999-.00179h-.75c0-.41422.33579-.75.75-.75Z" clip-rule="evenodd"/>
</svg>
