<svg xmlns="http://www.w3.org/2000/svg" viewBox="0 0 24 24" fill="currentColor">
  <path fill-rule="evenodd" d="M12 4.3c.4142 0 .75.33579.75.75v13.9c0 .4142-.3358.75-.75.75s-.75-.3358-.75-.75V5.05c0-.41421.3358-.75.75-.75Z" clip-rule="evenodd"/>
  <path fill-rule="evenodd" d="M5.76434 13.125c.28992-.2958.76477-.3006 1.0606-.0107l5.00546 4.9053c.0638.0639.1248.0804.1696.0804.0448 0 .1058-.0165.1697-.0803l4.9-4.9c.2929-.2929.7677-.2929 1.0606 0 .2929.2929.2929.7677 0 1.0606l-4.9 4.9c-.6919.6919-1.7646.6929-2.4576.003l-4.99765-4.8976c-.29584-.29-.30063-.7648-.01071-1.0607Z" clip-rule="evenodd"/>
  <path fill-rule="evenodd" d="M5.25 5.05c0-.41421.33579-.75.75-.75h12c.4142 0 .75.33579.75.75 0 .41422-.3358.75-.75.75H6c-.41421 0-.75-.33578-.75-.75Z" clip-rule="evenodd"/>
</svg>
