<svg xmlns="http://www.w3.org/2000/svg" viewBox="0 0 24 24" fill="currentColor">
  <path d="M19.8288 8.18334 15.603 13.896l-.0332.0449-.0395.0394c-.6833.6834-1.7042.6767-2.3803.1697l-.065-.0488-.0531-.0615-2.4452-2.8365c-.0858-.0556-.1515-.0605-.1871-.0569-.0453.0045-.0781.025-.0996.0537l-.0172.0229-.0188.0215-6.40005 7.3c-.27307.3114-.74692.3426-1.05838.0695-.31146-.2731-.34259-.7469-.06952-1.0584l6.38386-7.2815c.58158-.74522 1.65729-.84269 2.44859-.2097l.0542.0434.0453.0526 2.4311 2.82c.1077.0537.2408.044.3408-.0342l4.5882-6.20264-3.1916.15567c-.4137.02018-.7654-.29885-.7856-.71257-.0202-.41372.2988-.76547.7126-.78565l4.1-.19998.0182-.00089H19.9c.2836 0 .5878.08585.8418.28226.0359.01841.0707.03997.1042.06473.1463.1082.2419.25949.2822.42336.0768.16928.1189.35797.1216.55831l.1993 4.0848c.0202.4137-.2988.7655-.7126.7856-.4137.0202-.7654-.2988-.7856-.7125l-.1221-2.50326Z"/>
</svg>
