<svg xmlns="http://www.w3.org/2000/svg" viewBox="0 0 24 25" fill="currentColor">
  <path fill-rule="evenodd" d="M12 6.75391c.4142 0 .75.33578.75.75v9.99999c0 .4142-.3358.75-.75.75s-.75-.3358-.75-.75V7.50391c0-.41422.3358-.75.75-.75Z" clip-rule="evenodd"/>
  <path fill-rule="evenodd" d="M11.931 8.25323 8.23737 12.0466c-.28897.2968-.7638.3032-1.06057.0142-.29677-.289-.3031-.7638-.01414-1.0606l3.70694-3.80714c.5929-.59289 1.5678-.59285 2.1607.00005l.0071.00707 3.7 3.80002c.2889.2968.2826.7716-.0142 1.0606-.2967.289-.7716.2826-1.0605-.0142l-3.6936-3.79337c-.0018-.00136-.0073-.00479-.0191-.00479-.0118 0-.0173.00343-.019.00479Z" clip-rule="evenodd"/>
  <path fill-rule="evenodd" d="M5.25 7.49609c0-.41421.33579-.75.75-.75h12c.4142 0 .75.33579.75.75 0 .41422-.3358.75-.75.75H6c-.41421 0-.75-.33578-.75-.75Z" clip-rule="evenodd"/>
</svg>
