<svg xmlns="http://www.w3.org/2000/svg" viewBox="0 0 24 24" fill="currentColor">
  <path d="M20.45 10.75c0-.6772-.6388-1.54173-2.2502-2.28078C16.6558 7.76104 14.4669 7.3 12 7.3c-2.46696 0-4.65577.46104-6.19984 1.16922-1.61137.73905-2.25017 1.60358-2.25017 2.28078 0 .5429.36716 1.1434 1.16602 1.676.34465.2297.43778.6954.20802 1.04-.22977.3447-.69542.4378-1.04007.208-1.00113-.6674-1.83397-1.6669-1.83397-2.924 0-1.62276 1.41119-2.85826 3.12483-3.64421C6.95575 6.28897 9.36693 5.8 12 5.8c2.633 0 5.0442.48897 6.8252 1.30579C20.5388 7.89174 21.95 9.12724 21.95 10.75c0 .8895-.5292 1.635-1.2006 2.2113-.6821.5854-1.6129 1.0885-2.6636 1.4996-1.6265.6365-3.633 1.0885-5.6766 1.2614l1.3732 1.1534c.3171.2664.3583.7395.0918 1.0567-.2664.3172-.7395.3583-1.0566.0919l-2.5-2.1-.025-.021-.023-.023c-.1137-.1137-.1988-.2381-.2596-.3672-.10024-.1275-.16001-.2883-.16001-.4631 0-.0867.0147-.1699.04174-.2473.01739-.1797.06732-.3479.13737-.4881l.0396-.0792.057-.0678 2.1-2.5c.2664-.3172.7395-.3583 1.0567-.0919.3171.2664.3583.7395.0918 1.0567l-1.3574 1.616c2.0004-.1434 3.9701-.5769 5.5224-1.1843.9618-.3764 1.7247-.8046 2.2333-1.241.5191-.4456.6775-.8126.6775-1.0731Z"/>
</svg>
