<svg xmlns="http://www.w3.org/2000/svg" viewBox="0 0 24 24" fill="currentColor">
  <path fill-rule="evenodd" d="m17.0394 8.8-2.6197 2.6197c-.2929.2929-.2929.7677 0 1.0606.2929.2929.7677.2929 1.0606 0l3.4-3.39996c.2706-.27052.4447-.62964.4447-1.03033s-.1741-.75981-.4447-1.03033l-3.4-3.4c-.2929-.29289-.7677-.29289-1.0606 0-.2929.29289-.2929.76777 0 1.06066L17.0393 7.3H5.45002c-.41421 0-.75.33579-.75.75 0 .41422.33579.75.75.75H17.0394ZM19.3 15.95c0 .4142-.3358.75-.75.75H6.96069l2.61966 2.6197c.29289.2929.29289.7677 0 1.0606-.2929.2929-.76777.2929-1.06066 0l-3.4-3.4c-.27052-.2705-.44467-.6296-.44467-1.0303 0-.4007.17415-.7598.44467-1.0303l3.4-3.4c.29289-.2929.76776-.2929 1.06066 0 .29289.2929.29289.7677 0 1.0606L6.96067 15.2H18.55c.4142 0 .75.3358.75.75Z" clip-rule="evenodd"/>
</svg>
