<svg xmlns="http://www.w3.org/2000/svg" viewBox="0 0 24 24" fill="currentColor">
  <path d="M7.35533 7.06966c-.2929-.29289-.76777-.29289-1.06066 0l-2.5 2.5c-.4929.49294-.4929 1.26774 0 1.76064l2.5 2.5c.29289.2929.76776.2929 1.06066 0 .29289-.2929.29289-.7677 0-1.0606L5.03566 10.45l2.31967-2.31968c.29289-.29289.29289-.76777 0-1.06066Z"/>
  <path d="M20.575 13.4c0-2.1142-1.6358-3.75001-3.75-3.75001h-12.6c-.41422 0-.75.33579-.75.75001 0 .4142.33578.75.75.75h12.6c1.2858 0 2.25.9642 2.25 2.25s-.9642 2.25-2.25 2.25h-4c-.4142 0-.75.3358-.75.75s.3358.75.75.75h4c2.1142 0 3.75-1.6358 3.75-3.75Z"/>
</svg>
