<svg xmlns="http://www.w3.org/2000/svg" viewBox="0 0 24 24" fill="currentColor">
  <path d="M16.6447 16.9303c.2929.2929.7678.2929 1.0606 0l2.5-2.5c.4929-.4929.4929-1.2677 0-1.7606l-2.5-2.5c-.2928-.29293-.7677-.29293-1.0606 0-.2929.2929-.2929.7677 0 1.0606l2.3197 2.3197-2.3197 2.3197c-.2929.2929-.2929.7677 0 1.0606Z"/>
  <path d="M3.42502 10.6c0 2.1142 1.63578 3.75 3.75 3.75H19.775c.4142 0 .75-.3358.75-.75s-.3358-.75-.75-.75H7.17502c-1.28579 0-2.25-.9642-2.25-2.25 0-1.28581.96421-2.25003 2.25-2.25003H11.175c.4142 0 .75-.33578.75-.75 0-.41421-.3358-.75-.75-.75H7.17502c-2.11422 0-3.75 1.63579-3.75 3.75003Z"/>
</svg>
