<svg xmlns="http://www.w3.org/2000/svg" viewBox="0 0 24 24" fill="currentColor">
  <path d="m8.79999 6.96064 2.61971 2.61968c.2929.29289.7677.29289 1.0606 0 .2929-.2929.2929-.76777 0-1.06066l-3.39998-3.4c-.27051-.27052-.62964-.44467-1.03033-.44467-.40068 0-.75981.17415-1.03033.44467l-3.4 3.4c-.29289.29289-.29289.76776 0 1.06066.2929.29289.76777.29289 1.06066 0l2.61967-2.61967V18.55c0 .4142.33578.75.75.75.41421 0 .75-.3358.75-.75V6.96064ZM15.95 4.7c.4142 0 .75.33578.75.75v11.5893l2.6197-2.6196c.2929-.2929.7677-.2929 1.0606 0 .2929.2929.2929.7677 0 1.0606l-3.4 3.4c-.2705.2705-.6296.4447-1.0303.4447-.4007 0-.7598-.1742-1.0303-.4447l-3.4-3.4c-.2929-.2929-.2929-.7677 0-1.0606.2929-.2929.7677-.2929 1.0606 0L15.2 17.0393V5.45c0-.41422.3358-.75.75-.75Z"/>
</svg>
