<svg xmlns="http://www.w3.org/2000/svg" viewBox="0 0 24 24" fill="currentColor">
  <path fill-rule="evenodd" d="M12 3.8c.4142 0 .75.33579.75.75v14.9c0 .4142-.3358.75-.75.75s-.75-.3358-.75-.75V4.55c0-.41421.3358-.75.75-.75Z" clip-rule="evenodd"/>
  <path fill-rule="evenodd" d="M16.8303 8.98033c-.2929.29289-.7677.29289-1.0606 0l-3.6536-3.65362c-.0665-.04142-.122-.05171-.1536-.05171-.018 0-.0274.00312-.0301.00418-.0008.0003-.0012.00051-.0015.00066L8.23736 9.07321c-.28897.29678-.7638.30311-1.06057.01414-.29677-.28896-.3031-.76379-.01414-1.06056l3.70695-3.80717c.6276-.62755 1.56-.53496 2.1804-.06962l.0426.03198 3.7377 3.73769c.2929.29289.2929.76777 0 1.06066Z" clip-rule="evenodd"/>
  <path fill-rule="evenodd" d="M16.7303 15.0197c.2929.2929.2929.7677 0 1.0606l-3.7 3.7c-.5929.5929-1.5677.5929-2.1606 0l-3.70003-3.7c-.2929-.2929-.2929-.7677 0-1.0606.29289-.2929.76777-.2929 1.06066 0l3.69997 3.7c.0003.0002.0053.0053.0197.0053s.0194-.0051.0197-.0053l3.7-3.7c.2929-.2929.7677-.2929 1.0606 0Z" clip-rule="evenodd"/>
</svg>
