<svg xmlns="http://www.w3.org/2000/svg" viewBox="0 0 24 24" fill="currentColor">
  <path d="M20.25 12c0-4.55635-3.6937-8.25-8.25-8.25-4.55635 0-8.25 3.69365-8.25 8.25 0 4.5563 3.69365 8.25 8.25 8.25 4.5563 0 8.25-3.6937 8.25-8.25ZM12 2.25c5.3848 0 9.75 4.36522 9.75 9.75 0 5.3848-4.3652 9.75-9.75 9.75-5.38478 0-9.75-4.3652-9.75-9.75 0-5.38478 4.36522-9.75 9.75-9.75Z"/>
  <path d="M12 8.25c.4142 0 .75.33579.75.75v6.6c0 .4142-.3358.75-.75.75s-.75-.3358-.75-.75V9c0-.41421.3358-.75.75-.75Z"/>
  <path d="M15.5303 12.4697c.2929.2929.2929.7677 0 1.0606l-2.5 2.5c-.4929.4929-1.2677.4929-1.7606 0l-2.50003-2.5c-.29289-.2929-.29289-.7677 0-1.0606.29289-.2929.76777-.2929 1.06066 0L12.15 14.7893l2.3197-2.3196c.2929-.2929.7677-.2929 1.0606 0Z"/>
</svg>
