<svg xmlns="http://www.w3.org/2000/svg" viewBox="0 0 24 24" fill="currentColor">
  <path fill-rule="evenodd" d="M12 3.75c-4.55635 0-8.25 3.69365-8.25 8.25 0 4.5563 3.69365 8.25 8.25 8.25 4.5563 0 8.25-3.6937 8.25-8.25 0-4.55635-3.6937-8.25-8.25-8.25ZM2.25 12c0-5.38478 4.36522-9.75 9.75-9.75 5.3848 0 9.75 4.36522 9.75 9.75 0 5.3848-4.3652 9.75-9.75 9.75-5.38478 0-9.75-4.3652-9.75-9.75Z" clip-rule="evenodd"/>
  <path fill-rule="evenodd" d="M8.25 12c0-.4142.33579-.75.75-.75h6.6c.4142 0 .75.3358.75.75s-.3358.75-.75.75H9c-.41421 0-.75-.3358-.75-.75Z" clip-rule="evenodd"/>
  <path fill-rule="evenodd" d="M12.4697 8.61967c.2929-.29289.7677-.29289 1.0606 0l2.5 2.50003c.4929.4929.4929 1.2677 0 1.7606l-2.5 2.5c-.2929.2929-.7677.2929-1.0606 0-.2929-.2929-.2929-.7677 0-1.0606L14.7893 12l-2.3196-2.31967c-.2929-.29289-.2929-.76777 0-1.06066Z" clip-rule="evenodd"/>
</svg>
