<svg xmlns="http://www.w3.org/2000/svg" viewBox="0 0 24 24" fill="currentColor">
  <path fill-rule="evenodd" d="M4.3 12c0-.4142.33578-.75.75-.75h13.9c.4142 0 .75.3358.75.75s-.3358.75-.75.75H5.05c-.41422 0-.75-.3358-.75-.75Z" clip-rule="evenodd"/>
  <path fill-rule="evenodd" d="M13.125 18.2357c-.2958-.29-.3006-.7648-.0107-1.0606l4.9053-5.0055c.0639-.0638.0804-.1248.0804-.1696 0-.0448-.0165-.1058-.0803-.1697l-4.9-4.89996c-.2929-.2929-.2929-.76777 0-1.06066.2928-.2929.7677-.2929 1.0606 0l4.9 4.90002c.6919.6919.6929 1.7646.003 2.4576l-4.8977 4.9977c-.2899.2958-.7647.3006-1.0606.0107Z" clip-rule="evenodd"/>
  <path fill-rule="evenodd" d="M5.05 18.75c-.41422 0-.75-.3358-.75-.75V6c0-.41421.33578-.75.75-.75.41421 0 .75.33579.75.75v12c0 .4142-.33579.75-.75.75Z" clip-rule="evenodd"/>
</svg>
