<svg xmlns="http://www.w3.org/2000/svg" viewBox="0 0 24 24" fill="currentColor">
  <path fill-rule="evenodd" d="M17.7983 6.20173c.2928.29289.2928.76776 0 1.06066L7.26236 17.7983c-.29289.2929-.76776.2929-1.06066 0-.29289-.2929-.29289-.7678 0-1.0607L16.7376 6.20173c.2929-.2929.7678-.2929 1.0607 0Z" clip-rule="evenodd"/>
  <path fill-rule="evenodd" d="M17.5508 13.2803c-.4142 0-.75-.3358-.75-.75V7.36333c-.0177-.07629-.0497-.12282-.072-.14514-.0127-.01272-.0216-.01718-.0242-.01832-.0008-.00034-.0013-.00051-.0016-.0006l-5.294.07059c-.4142.00552-.7544-.32576-.76-.73994-.0055-.41417.3258-.75441.74-.75993l5.3133-.07084c.8875 0 1.4813.72476 1.591 1.49253l.0075.05276v5.28586c0 .4142-.3358.75-.75.75Z" clip-rule="evenodd"/>
  <path fill-rule="evenodd" d="M13.2096 17.4801c0 .4142-.3358.75-.75.75H7.22701c-.83847 0-1.52781-.6894-1.52781-1.5278v-5.2326c0-.4142.33578-.75.75-.75.41421 0 .75.3358.75.75v5.2326c0 .0003-.00002.0075.01014.0176.01016.0102.01735.0102.01767.0102h5.23259c.4142 0 .75.3358.75.75Z" clip-rule="evenodd"/>
</svg>
