<svg xmlns="http://www.w3.org/2000/svg" fill="none" viewBox="0 0 24 24">
  <path fill="#000" d="M11.95 10.95c.3 0 .5.1.7.3.2.2.3.5.3.7 0 .3-.1.5-.3.7-.4.4-1 .4-1.4 0-.2-.1-.3-.4-.3-.7 0-.3.1-.5.3-.7.2-.2.5-.3.7-.3Z"/>
  <path fill="#000" fill-rule="evenodd" d="M9.099 5.159c-.892-.966-2.4-.998-3.419.021l-.51.51-.011.011c-.966.892-.998 2.4.021 3.419l9.711 9.71.01.011c.892.966 2.4.998 3.419-.021l.488-.49c.937-1.024.905-2.557.012-3.45L9.11 5.17l-.011-.011Zm1.091-1.03c-1.509-1.622-3.993-1.586-5.57-.01l-.49.49c-1.623 1.51-1.587 3.994-.01 5.571l9.69 9.69c1.509 1.622 3.993 1.587 5.57.01l.511-.51.01-.011c1.454-1.576 1.483-4.035-.02-5.54l-9.69-9.69Z" clip-rule="evenodd"/>
  <path fill="#000" fill-rule="evenodd" d="M18.299 5.159c-.892-.966-2.4-.998-3.419.021l-9.71 9.71-.011.011c-.966.892-.998 2.4.021 3.419l.5.5c.893.893 2.426.925 3.451-.012l9.7-9.699.01-.01c.966-.892.998-2.4-.021-3.419l-.51-.51-.011-.011Zm1.091-1.03c-1.509-1.622-3.993-1.586-5.57-.01l-9.69 9.69c-1.623 1.51-1.587 3.994-.01 5.571l.5.5c1.504 1.504 3.964 1.475 5.539.021l.01-.01 9.701-9.7c1.623-1.51 1.587-3.994.01-5.571l-.49-.49Z" clip-rule="evenodd"/>
</svg>
