<svg xmlns="http://www.w3.org/2000/svg" viewBox="0 0 24 24" fill="currentColor">
  <path d="M5.33423 10.3955c0-3.71421 3.03578-6.74999 6.74997-6.74999 3.7142 0 6.75 3.03578 6.75 6.74999 0 1.366-.4542 2.606-1.1215 3.6094-.7859 1.2316-2.021 2.2475-3.4996 2.7048-.6758.2244-1.3537.3358-2.1289.3358-.8667 0-1.6746-.1089-2.49542-.4606-.38073-.1632-.55709-.6041-.39392-.9848.16316-.3808.60407-.5571.98484-.394.5791.2483 1.1712.3394 1.9045.3394.6217 0 1.1414-.0877 1.6628-.2615l.0083-.0028.0083-.0025c1.115-.3431 2.075-1.1228 2.6879-2.0859l.0043-.0067.0044-.0066c.5303-.7955.874-1.753.874-2.784 0-2.88578-2.3642-5.24999-5.25-5.24999-2.88576 0-5.24997 2.36421-5.24997 5.24999 0 .9577.25986 1.8334.7056 2.6358.20116.3621.07071.8187-.29138 1.0198-.36209.2012-.81869.0707-1.01985-.2914-.55426-.9976-.89437-2.1219-.89437-3.3642Z"/>
  <path d="m7.28983 12.2296.46529.9306c.39779.7956 1.33268 1.591 2.41758 2.0431l1.0338.4307-.7167.7167c-.0122.0366-.0342.1004-.0634.1646-.0362.0797-.0999.1988-.2118.3106l-3.20001 3.2c-.34559.3456-.78433.2759-.99636.1911-.12106-.0485-.24585-.1262-.35075-.2392-.09914-.1068-.23321-.3054-.23321-.5822v-1.55H3.88428c-.32917 0-.7312-.171-.89637-.584-.08673-.2169-.0871-.4695.02239-.6994.07554-.1586.18729-.2743.30302-.3563l3.97651-3.9763Zm1.46121 3.9386-1.81677 1.8167v-1.6393H5.29495l1.67042-1.6704c.47861.5869 1.10563 1.0979 1.78567 1.493Zm-2.79711 2.7971c-.00016.0001.00016-.0002 0 0Z"/>
  <path d="M16.6539 13.0651c.2929-.2929.7677-.2929 1.0606 0l3.1001 3.1c.3456.3457.2758.7845.1909.9965-.0484.121-.1262.2458-.2391.3507-.1068.0991-.3054.2332-.5822.2332h-1.65v1.65c0 .3292-.1711.7312-.584.8963-.2169.0868-.4695.0872-.6994-.0223-.1586-.0756-.2743-.1873-.3563-.3031l-3.1406-3.1406-.2-.2c-.2929-.2929-.2929-.7678 0-1.0607.2929-.2929.7678-.2929 1.0607 0l2.4196 2.4197v-1.7393h1.7394l-2.1197-2.1197c-.2929-.2929-.2929-.7678 0-1.0607Z"/>
</svg>
