<svg width="24" height="24" viewBox="0 0 24 24" fill="none" xmlns="http://www.w3.org/2000/svg">
<path fill-rule="evenodd" clip-rule="evenodd" d="M10.1788 18.4939C10.2926 18.0956 10.7077 17.865 11.106 17.9788C11.7527 18.1635 12.2826 18.2499 12.9 18.2499C13.235 18.2499 13.5015 18.2422 13.6628 18.1884C14.0558 18.0574 14.4805 18.2698 14.6115 18.6627C14.7425 19.0557 14.5301 19.4804 14.1371 19.6114C13.7186 19.7509 13.2137 19.7503 12.9381 19.7499C12.9248 19.7499 12.9121 19.7499 12.9 19.7499C12.1173 19.7499 11.4472 19.6363 10.6939 19.421C10.2957 19.3072 10.065 18.8921 10.1788 18.4939Z" fill="black"/>
<path fill-rule="evenodd" clip-rule="evenodd" d="M12.15 3C12.15 2.58579 12.4858 2.25 12.9 2.25C17.7142 2.25 21.65 6.18579 21.65 11C21.65 13.9536 20.1223 16.6865 17.816 18.224C17.4714 18.4538 17.0058 18.3607 16.776 18.016C16.5462 17.6714 16.6394 17.2057 16.984 16.976C18.8778 15.7134 20.15 13.4464 20.15 11C20.15 7.01421 16.8858 3.75 12.9 3.75C12.4858 3.75 12.15 3.41421 12.15 3Z" fill="black"/>
<path fill-rule="evenodd" clip-rule="evenodd" d="M5 10.25C5.41421 10.25 5.75 10.5858 5.75 11C5.75 13.2598 6.83709 15.3546 8.48014 16.7238C8.79835 16.989 8.84134 17.4619 8.57617 17.7801C8.31099 18.0983 7.83807 18.1413 7.51986 17.8762C5.56291 16.2454 4.25 13.7402 4.25 11C4.25 10.5858 4.58579 10.25 5 10.25Z" fill="black"/>
<path fill-rule="evenodd" clip-rule="evenodd" d="M2.25 8C2.25 7.58579 2.58579 7.25 3 7.25C4.49819 7.25 5.17885 8.41484 5.46151 9.26283C5.57962 9.61715 5.64847 9.96465 5.68905 10.25H21C21.4142 10.25 21.75 10.5858 21.75 11C21.75 11.4142 21.4142 11.75 21 11.75H4.25V11.0005L4.2497 10.983C4.24934 10.9669 4.24857 10.941 4.24694 10.9068C4.24367 10.8381 4.23697 10.7368 4.22334 10.6141C4.19565 10.3649 4.14133 10.0457 4.03849 9.73717C3.82115 9.08516 3.50181 8.75 3 8.75C2.58579 8.75 2.25 8.41421 2.25 8ZM4.25 11.0005C4.25 11.0002 4.25 11 5 11L4.25 11.0005Z" fill="black"/>
<path fill-rule="evenodd" clip-rule="evenodd" d="M13 2.25C13.4142 2.25 13.75 2.58579 13.75 3V11C13.75 11.4142 13.4142 11.75 13 11.75C12.5858 11.75 12.25 11.4142 12.25 11V3C12.25 2.58579 12.5858 2.25 13 2.25Z" fill="black"/>
<path fill-rule="evenodd" clip-rule="evenodd" d="M9 17.75C8.30964 17.75 7.75 18.3096 7.75 19C7.75 19.6904 8.30964 20.25 9 20.25C9.69036 20.25 10.25 19.6904 10.25 19C10.25 18.3096 9.69036 17.75 9 17.75ZM6.25 19C6.25 17.4812 7.48122 16.25 9 16.25C10.5188 16.25 11.75 17.4812 11.75 19C11.75 20.5188 10.5188 21.75 9 21.75C7.48122 21.75 6.25 20.5188 6.25 19Z" fill="black"/>
<path fill-rule="evenodd" clip-rule="evenodd" d="M16 17.75C15.3096 17.75 14.75 18.3096 14.75 19C14.75 19.6904 15.3096 20.25 16 20.25C16.6904 20.25 17.25 19.6904 17.25 19C17.25 18.3096 16.6904 17.75 16 17.75ZM13.25 19C13.25 17.4812 14.4812 16.25 16 16.25C17.5188 16.25 18.75 17.4812 18.75 19C18.75 20.5188 17.5188 21.75 16 21.75C14.4812 21.75 13.25 20.5188 13.25 19Z" fill="black"/>
</svg>
