<svg width="24" height="24" viewBox="0 0 24 24" fill="none" xmlns="http://www.w3.org/2000/svg">
<path fill-rule="evenodd" clip-rule="evenodd" d="M10.9803 2.70734C11.2732 3.00023 11.2732 3.4751 10.9803 3.768L9.91064 4.83768L10.9803 5.90736C11.2732 6.20025 11.2732 6.67513 10.9803 6.96802C10.6874 7.26091 10.2125 7.26091 9.91964 6.96801L8.71965 5.768C8.71964 5.768 8.71964 5.768 8.71964 5.768C8.44717 5.49552 8.34998 5.13654 8.34998 4.83768C8.34998 4.53882 8.44717 4.17983 8.71964 3.90736C8.71964 3.90736 8.71964 3.90735 8.71965 3.90735L9.91964 2.70734C10.2125 2.41445 10.6874 2.41445 10.9803 2.70734ZM9.78031 4.96801L9.78031 4.96801C9.78031 4.96801 9.78031 4.96801 9.78031 4.96801Z" fill="black"/>
<path fill-rule="evenodd" clip-rule="evenodd" d="M13.0196 2.70734C13.3125 2.41445 13.7874 2.41445 14.0803 2.70734L15.2803 3.90735C15.2803 3.90735 15.2803 3.90736 15.2803 3.90736C15.5527 4.17983 15.6499 4.53882 15.6499 4.83768C15.6499 5.13654 15.5527 5.49552 15.2803 5.768C15.2803 5.768 15.2803 5.768 15.2803 5.768L14.0803 6.96801C13.7874 7.26091 13.3125 7.26091 13.0196 6.96802C12.7267 6.67513 12.7267 6.20025 13.0196 5.90736L14.0893 4.83768L13.0196 3.768C12.7267 3.4751 12.7267 3.00023 13.0196 2.70734ZM14.2196 4.70734L14.2196 4.70734C14.2196 4.70734 14.2196 4.70734 14.2196 4.70734Z" fill="black"/>
<path fill-rule="evenodd" clip-rule="evenodd" d="M6.18035 4.90705C6.47325 5.19994 6.47325 5.67481 6.18035 5.96771C2.97325 9.17481 2.97325 14.3999 6.18035 17.607C9.38746 20.8141 14.6126 20.8141 17.8197 17.607C21.0268 14.3999 21.0268 9.17481 17.8197 5.96771C17.5268 5.67481 17.5268 5.19994 17.8197 4.90705C18.1126 4.61415 18.5875 4.61415 18.8804 4.90705C22.6733 8.69994 22.6733 14.8748 18.8804 18.6677C15.0875 22.4606 8.91259 22.4606 5.11969 18.6677C1.3268 14.8748 1.3268 8.69994 5.11969 4.90705C5.41259 4.61415 5.88746 4.61415 6.18035 4.90705Z" fill="black"/>
<path fill-rule="evenodd" clip-rule="evenodd" d="M9.45004 11.5873C8.26427 11.5873 7.30005 12.5515 7.30005 13.7373V18.9373H5.80005V13.7373C5.80005 11.7231 7.43582 10.0873 9.45004 10.0873H14.55C16.5643 10.0873 18.2 11.7231 18.2 13.7373V18.9373H16.7V13.7373C16.7 12.5515 15.7358 11.5873 14.55 11.5873H9.45004Z" fill="black"/>
<path fill-rule="evenodd" clip-rule="evenodd" d="M9.44316 13.7844C9.7485 13.5045 10.2229 13.5252 10.5028 13.8305C11.2933 14.6928 12.6991 14.7275 13.6196 13.807C13.9125 13.5141 14.3874 13.5141 14.6803 13.807C14.9732 14.0998 14.9732 14.5747 14.6803 14.8676C13.2008 16.3471 10.8066 16.3818 9.39709 14.8441C9.1172 14.5387 9.13782 14.0643 9.44316 13.7844Z" fill="black"/>
</svg>
