<svg xmlns="http://www.w3.org/2000/svg" viewBox="0 0 24 24" fill="currentColor">
  <path d="M15.5738 4.07419c.2965-.28925.3024-.76409.0131-1.06058-.2892-.29649-.7641-.30235-1.0605-.01309l-3.7197 3.62894-1.15661-1.54211c-.24853-.33137-.71863-.39852-1.05-.15-.33137.24853-.39853.71863-.15 1.05l1.53198 2.04264.03773.03769c.2224.22248.5064.29467.7303.29467.2224 0 .5041-.07125.726-.29033l4.0977-3.99783ZM6.18035 5.66778c.2929-.29289.2929-.76777 0-1.06066-.29289-.29289-.76776-.29289-1.06066 0-3.79289 3.79289-3.79289 9.96768 0 13.76058 3.7929 3.7929 9.96781 3.7929 13.76071 0 3.7929-3.7929 3.7929-9.96769 0-13.76058-.2929-.29289-.7678-.29289-1.0607 0-.2929.29289-.2929.76777 0 1.06066 3.0749 3.07488 3.2017 8.00472.3803 11.23262v-3.463c0-2.0142-1.6357-3.65005-3.65-3.65005H9.45004c-2.01422 0-3.64999 1.63585-3.64999 3.65005v3.463c-2.82135-3.2278-2.69458-8.15773.3803-11.23262Zm1.1197 12.57672c2.81265 1.9572 6.58735 1.9572 9.39995-.0001v-4.807c0-1.1858-.9642-2.15-2.15-2.15H9.45004c-1.18577 0-2.14999.9642-2.14999 2.15v4.8071Zm2.14311-4.76c.30534-.2799.77974-.2593 1.05964.0461.7905.8623 2.1963.8969 3.1168-.0236.2929-.2929.7678-.2929 1.0607 0 .2929.2929.2929.7678 0 1.0607-1.4795 1.4795-3.8737 1.5141-5.28321-.0235-.27989-.3054-.25927-.7798.04607-1.0597Z"/>
</svg>
