<svg xmlns="http://www.w3.org/2000/svg" viewBox="0 0 24 24" fill="currentColor">
  <path d="M10.9803 2.70746c.2929.29289.2929.76776 0 1.06066L9.91064 4.8378l1.06966 1.06968c.2929.29289.2929.76777 0 1.06066s-.7678.29289-1.06066-.00001L8.71965 5.76812h-.00001c-.27247-.27248-.36966-.63146-.36966-.93032s.09719-.65785.36966-.93032h.00001l1.19999-1.20001c.29286-.2929.76776-.2929 1.06066-.00001ZM9.78031 4.96814v-.00001.00001Z"/>
  <path d="M13.0196 2.70746c.2929-.29289.7678-.29289 1.0607.00001l1.2 1.20001c.2724.27247.3696.63146.3696.93032s-.0972.65784-.3696.93032l-1.2 1.20001c-.2929.2929-.7678.2929-1.0607.00001-.2929-.29289-.2929-.76777 0-1.06066l1.0697-1.06968-1.0697-1.06968c-.2929-.2929-.2929-.76777 0-1.06066Zm1.2 2v.00001-.00001Z"/>
  <path d="M6.18035 4.90717c.2929.29289.2929.76777 0 1.06066-3.2071 3.20711-3.2071 8.43217 0 11.63927 3.20711 3.2071 8.43225 3.2071 11.63935 0 3.2071-3.2071 3.2071-8.43216 0-11.63927-.2929-.29289-.2929-.76777 0-1.06066s.7678-.29289 1.0607 0c3.7929 3.79289 3.7929 9.96773 0 13.76063-3.7929 3.7929-9.96781 3.7929-13.76071 0-3.79289-3.7929-3.79289-9.96774 0-13.76063.2929-.29289.76777-.29289 1.06066 0Z"/>
  <path d="M9.45004 11.5874c-1.18577 0-2.14999.9642-2.14999 2.15v5.2h-1.5v-5.2c0-2.0142 1.63577-3.65 3.64999-3.65H14.55c2.0143 0 3.65 1.6358 3.65 3.65v5.2h-1.5v-5.2c0-1.1858-.9642-2.15-2.15-2.15H9.45004Z"/>
  <path d="M9.44316 13.7845c.30534-.2799.77974-.2592 1.05964.0461.7905.8623 2.1963.897 3.1168-.0235.2929-.2929.7678-.2929 1.0607 0 .2929.2929.2929.7677 0 1.0606-1.4795 1.4795-3.8737 1.5142-5.28321-.0235-.27989-.3053-.25927-.7798.04607-1.0597Z"/>
</svg>
