<svg xmlns="http://www.w3.org/2000/svg" viewBox="0 0 24 24" fill="currentColor">
  <path d="M12 3.75c-4.58579 0-8.25 3.66421-8.25 8.25 0 2.0331.75197 3.9161 2 5.3682V13.9c0-2.0142 1.63581-3.65 3.65002-3.65H14.5c2.0142 0 3.65 1.6358 3.65 3.65v3.6223c1.3082-1.4579 2.1-3.3905 2.1-5.5223 0-4.58579-3.6642-8.25-8.25-8.25Zm0 16.5c-1.7732 0-3.40986-.5633-4.75-1.5144V13.9c0-1.1858.96424-2.15 2.15002-2.15H14.5c1.1858 0 2.15.9642 2.15 2.15v4.9323c-1.3206.896-2.9197 1.4177-4.65 1.4177ZM2.25 12c0-5.41421 4.33579-9.75 9.75-9.75 5.4142 0 9.75 4.33579 9.75 9.75 0 5.4142-4.3358 9.75-9.75 9.75-5.41962 0-9.75-4.4412-9.75-9.75Zm8.2028 1.9932c-.2799-.3053-.75435-.326-1.05969-.0461-.30534.2799-.32596.7544-.04607 1.0597 1.40956 1.5377 3.80366 1.503 5.28316.0235.2929-.2929.2929-.7677 0-1.0606-.2929-.2929-.7677-.2929-1.0606 0-.9206.9205-2.3264.8858-3.1168.0235Z"/>
</svg>
