<svg xmlns="http://www.w3.org/2000/svg" viewBox="0 0 24 24" fill="currentColor">
  <path d="M8.75 7c0-1.78579 1.4642-3.25 3.25-3.25.8718 0 1.6882.39887 2.2697.98034.5814.58148.9803 1.39782.9803 2.26966v.25h-6.5V7Zm-1.5.30946V7c0-2.61421 2.13579-4.75 4.75-4.75 1.3282 0 2.5118.60116 3.3303 1.41968C16.1488 4.48821 16.75 5.67184 16.75 7v.30946c2.2607.36187 4 2.33139 4 4.69054v6c0 2.1142-1.6358 3.75-3.75 3.75H7c-2.13037 0-3.75-1.7521-3.75-3.75v-6c0-2.35915 1.73934-4.32867 4-4.69054ZM4.75 12c0-1.7858 1.46421-3.25 3.25-3.25h8c1.7858 0 3.25 1.4642 3.25 3.25v6c0 1.2858-.9642 2.25-2.25 2.25H7c-1.26963 0-2.25-1.0479-2.25-2.25v-6Zm9.8802.2695c.2929.2929.2929.7677 0 1.0606l-1.6197 1.6197 1.6197 1.6197c.2929.2929.2929.7678 0 1.0607-.2929.2929-.7678.2929-1.0607 0l-1.6197-1.6197-1.6197 1.6197c-.2929.2929-.76773.2929-1.06063 0-.29289-.2929-.29289-.7678 0-1.0607l1.61973-1.6197-1.61973-1.6197c-.29289-.2929-.29289-.7677 0-1.0606.2929-.2929.76773-.2929 1.06063 0l1.6197 1.6197 1.6197-1.6197c.2929-.2929.7678-.2929 1.0607 0Z"/>
</svg>
