<svg xmlns="http://www.w3.org/2000/svg" viewBox="0 0 24 24" fill="currentColor">
  <path d="M12.05 1.7876c.4143 0 .75.33578.75.75v1.75h1.75c.4143 0 .75.33578.75.75 0 .41421-.3357.75-.75.75H12.8v1.75c0 .41421-.3357.75-.75.75-.4142 0-.75-.33579-.75-.75v-1.75H9.55005c-.41421 0-.75-.33579-.75-.75 0-.41422.33579-.75.75-.75H11.3v-1.75c0-.41422.3358-.75.75-.75ZM6.18048 5.60737c.29289.29289.29289.76776 0 1.06066-3.07485 3.07484-3.20166 8.00467-.38043 11.23247v-3.4629c0-2.0142 1.63581-3.65 3.65002-3.65H14.55c2.0143 0 3.6501 1.6358 3.6501 3.65v3.4631c2.8214-3.2278 2.6946-8.15777-.3803-11.23267-.2929-.2929-.2929-.76777 0-1.06066.2929-.2929.7678-.2929 1.0607 0 3.7929 3.79289 3.7929 9.96773 0 13.76063-3.7929 3.7929-9.96779 3.7929-13.76068 0-3.7929-3.7929-3.7929-9.96774 0-13.76063.29289-.2929.76776-.2929 1.06066 0ZM16.7001 19.2447c-2.8127 1.9573-6.5874 1.9572-9.40005-.0001v-4.807c0-1.1858.96424-2.15 2.15002-2.15H14.55c1.1858 0 2.1501.9642 2.1501 2.15v4.8071Zm-6.1973-4.7139c-.2799-.3053-.7543-.326-1.05964-.0461-.30534.2799-.32596.7544-.04607 1.0597 1.40951 1.5377 3.80371 1.503 5.28321.0235.2929-.2929.2929-.7677 0-1.0606-.2929-.2929-.7678-.2929-1.0607 0-.9205.9205-2.3263.8858-3.1168.0235Z"/>
</svg>
