<svg xmlns="http://www.w3.org/2000/svg" viewBox="0 0 24 24" fill="currentColor">
  <path d="M12 3.75c-1.7858 0-3.25 1.46421-3.25 3.25v.25h6.5V7c0-.87184-.3989-1.68818-.9803-2.26966C13.6882 4.14887 12.8718 3.75 12 3.75ZM7.25 7v.30946c-2.26066.36187-4 2.33139-4 4.69054v6c0 1.9979 1.61963 3.75 3.75 3.75h10c2.1142 0 3.75-1.6358 3.75-3.75v-6c0-2.35915-1.7393-4.32867-4-4.69054V7c0-1.32816-.6012-2.51179-1.4197-3.33032C14.5118 2.85116 13.3282 2.25 12 2.25 9.38579 2.25 7.25 4.38579 7.25 7ZM8 8.75c-1.78579 0-3.25 1.4642-3.25 3.25v6c0 1.2021.98037 2.25 2.25 2.25h10c1.2858 0 2.25-.9642 2.25-2.25v-6c0-1.7858-1.4642-3.25-3.25-3.25H8Zm0 7.5c-.41421 0-.75.3358-.75.75s.33579.75.75.75h8c.4142 0 .75-.3358.75-.75s-.3358-.75-.75-.75H8Z"/>
</svg>
