<svg xmlns="http://www.w3.org/2000/svg" viewBox="0 0 24 24" fill="currentColor">
  <path d="M14.2803 2.35737c.2929.29289.2929.76776 0 1.06066L13.0607 4.6377l1.2196 1.21967c.2929.29289.2929.76776 0 1.06066-.2929.29289-.7677.29289-1.0606 0L12 5.69836l-1.2197 1.21967c-.2929.29289-.7677.29289-1.06063 0-.29289-.2929-.29289-.76777 0-1.06066L10.9393 4.6377 9.71967 3.41803c-.29289-.2929-.29289-.76777 0-1.06066.29293-.2929.76773-.2929 1.06063 0L12 3.57703l1.2197-1.21966c.2929-.2929.7677-.2929 1.0606 0Zm-8.09995 2.8999c.2929.29289.2929.76776 0 1.06066-3.07488 3.07488-3.20165 8.00477-.3803 11.23267v-3.4631c0-2.0142 1.63581-3.65 3.65002-3.65H14.55c2.0143 0 3.6501 1.6358 3.6501 3.65v3.463c2.8213-3.2279 2.6945-8.15771-.3804-11.23257-.2929-.2929-.2929-.76777 0-1.06066.2929-.2929.7678-.2929 1.0607 0 3.7929 3.79289 3.7929 9.96773 0 13.76063-3.7929 3.7929-9.96781 3.7929-13.76071 0-3.79289-3.7929-3.79289-9.96774 0-13.76063.2929-.2929.76777-.2929 1.06066 0ZM16.7001 18.8946c-2.8126 1.9573-6.5874 1.9573-9.40005 0v-4.8071c0-1.1858.96424-2.15 2.15002-2.15H14.55c1.1858 0 2.1501.9642 2.1501 2.15v4.8071Zm-6.1973-4.7139c-.2799-.3053-.7543-.326-1.05964-.0461-.30534.2799-.32596.7544-.04607 1.0597 1.40951 1.5377 3.80371 1.503 5.28321.0235.2929-.2929.2929-.7677 0-1.0606-.2929-.2929-.7678-.2929-1.0607 0-.9205.9205-2.3263.8858-3.1168.0235Z"/>
</svg>
