<svg xmlns="http://www.w3.org/2000/svg" viewBox="0 0 24 24" fill="currentColor">
  <path d="M10.2804 4.00533c.8044-.8044 1.9392-.96631 2.8767-.48572L9.82021 6.9306c-.51158-.94656-.3582-2.10692.46019-2.92527Zm3.5393 3.53932c-.8297.82969-2.049.96304-2.9548.46309l3.3785-3.45355c.5548.958.4135 2.15322-.4237 2.99046ZM9.21969 2.94467c1.59291-1.59289 4.06781-1.59289 5.66071 0 1.5929 1.59289 1.5929 4.06774 0 5.66064-1.5771 1.57699-4.1614 1.61219-5.67121-.01055-1.58238-1.59325-1.57888-4.06071.0105-5.65009ZM6.18035 6.70513c.2929-.29289.2929-.76776 0-1.06066-.29289-.29289-.76776-.29289-1.06066 0-3.79289 3.7929-3.79289 9.96773 0 13.76063 3.7929 3.7929 9.96781 3.7929 13.76071 0 3.7929-3.7929 3.7929-9.96773 0-13.76063-.2929-.29289-.7678-.29289-1.0607 0-.2929.2929-.2929.76777 0 1.06066 3.0749 3.07487 3.2017 8.00467.3804 11.23257v-3.463c0-2.0142-1.6358-3.65-3.6501-3.65H9.45007c-2.01421 0-3.65002 1.6358-3.65002 3.65v3.4631c-2.82135-3.2279-2.69458-8.15778.3803-11.23267ZM16.7001 14.4747v4.8071c-2.8126 1.9573-6.5874 1.9573-9.40005 0v-4.8071c0-1.1858.96424-2.15 2.15002-2.15H14.55c1.1858 0 2.1501.9642 2.1501 2.15Zm-6.1973.0932c-.2799-.3053-.7543-.3259-1.05964-.0461-.30534.2799-.32596.7544-.04607 1.0597 1.40951 1.5377 3.80371 1.503 5.28321.0235.2929-.2929.2929-.7677 0-1.0606-.2929-.2929-.7678-.2929-1.0607 0-.9205.9205-2.3263.8858-3.1168.0235Z"/>
</svg>
