<svg xmlns="http://www.w3.org/2000/svg" viewBox="0 0 24 24" fill="currentColor">
  <path d="M8.75 7c0-1.78579 1.4642-3.25 3.25-3.25.8718 0 1.6882.39887 2.2697.98034.5814.58148.9803 1.39782.9803 2.26966v.25h-6.5V7Zm-1.5.30946V7c0-2.61421 2.13579-4.75 4.75-4.75 1.3282 0 2.5118.60116 3.3303 1.41968C16.1488 4.48821 16.75 5.67184 16.75 7v.30946c2.2607.36187 4 2.33139 4 4.69054v6c0 2.1142-1.6358 3.75-3.75 3.75H7c-2.13037 0-3.75-1.7521-3.75-3.75v-6c0-2.35915 1.73934-4.32867 4-4.69054ZM8 8.75c-1.78579 0-3.25 1.4642-3.25 3.25v6c0 1.2021.98037 2.25 2.25 2.25h10c1.2858 0 2.25-.9642 2.25-2.25v-6c0-1.7858-1.4642-3.25-3.25-3.25H8Zm2.9301 4.1802c.2929-.2929.2929-.7677 0-1.0606-.2928-.2929-.7677-.2929-1.06061 0l-1.20002 1.2c-.27247.2725-.36967.6314-.36967.9303 0 .2989.0972.6579.36967.9303l1.20002 1.2c.29291.2929.76781.2929 1.06061 0 .2929-.2928.2929-.7677 0-1.0606l-1.06963-1.0697 1.06963-1.0697Zm3.1-1.0606c-.2929-.2929-.7678-.2929-1.0607 0-.2929.2929-.2929.7677 0 1.0606l1.0697 1.0697-1.0697 1.0697c-.2929.2929-.2929.7678 0 1.0606.2929.2929.7678.2929 1.0607 0l1.2-1.2c.2725-.2724.3697-.6314.3697-.9303 0-.2989-.0972-.6578-.3697-.9303l-1.2-1.2Z"/>
</svg>
