<svg xmlns="http://www.w3.org/2000/svg" viewBox="0 0 24 24" fill="currentColor">
  <path d="M8.75 7c0-1.78579 1.4642-3.25 3.25-3.25.8718 0 1.6882.39887 2.2697.98034.5814.58148.9803 1.39782.9803 2.26966v.25h-6.5V7Zm-1.5.30946V7c0-2.61421 2.13579-4.75 4.75-4.75 1.3282 0 2.5118.60116 3.3303 1.41968C16.1488 4.48821 16.75 5.67184 16.75 7v.30946c2.2607.36187 4 2.33139 4 4.69054v6c0 2.1142-1.6358 3.75-3.75 3.75H7c-2.13037 0-3.75-1.7521-3.75-3.75v-6c0-2.35915 1.73934-4.32867 4-4.69054ZM8 8.75c-1.78579 0-3.25 1.4642-3.25 3.25v6c0 1.2021.98037 2.25 2.25 2.25h10c1.2858 0 2.25-.9642 2.25-2.25v-6c0-1.7858-1.4642-3.25-3.25-3.25H8Zm5.1072 3.1945c-.9374-.4807-2.0723-.3188-2.8768.4856-.81834.8184-.97171 1.9788-.46007 2.9254l3.33687-3.411Zm-2.2922 4.4881c.9059.4999 2.1251.3665 2.9547-.4632.8372-.8372.9785-2.0323.4238-2.9903l-3.3785 3.4535Zm4.0154-5.0631c-1.5929-1.59292-4.0677-1.59292-5.66063 0-1.58939 1.5894-1.59289 4.0568-.01051 5.6501 1.50974 1.6227 4.09414 1.5875 5.67114.0105 1.5929-1.5929 1.5929-4.0677 0-5.6606Z"/>
</svg>
