<svg xmlns="http://www.w3.org/2000/svg" viewBox="0 0 24 24" fill="currentColor">
  <path d="M18.8697 5.13023c-1.3071-1.3071-3.3322-1.3071-4.6393 0l-1.2239 1.22385 4.5983 4.68042 1.2649-1.26492c1.3071-1.3071 1.3071-3.33224 0-4.63935Zm-.733 7.49367 1.7936-1.7937c1.8929-1.89285 1.8929-4.86773 0-6.76063-1.8928-1.89289-4.8677-1.89289-6.7606 0L4.06969 13.1696c-1.89005 1.89-1.89288 4.8588-.0085 6.7521 1.80666 1.917 4.88897 1.8887 6.76921.0086l1.689-1.6891c.0053-.0051.0105-.0102.0157-.0155l.0059-.0061 5.5833-5.5833.0014-.0014c.0037-.0036.0074-.0073.011-.011Zm-1.5926-.5287-4.5983-4.68042-4.63093 4.63092 4.68043 4.5983 4.5488-4.5488Zm-11.41375 2.135 1.12382-1.1238 4.68043 4.5983-1.16491 1.1649c-1.31692 1.3169-3.42802 1.2915-4.62251.0174l-.00827-.0089-.00856-.0085c-1.3071-1.3071-1.3071-3.3323 0-4.6394Z"/>
</svg>
