<svg width="24" height="24" viewBox="0 0 24 24" fill="none" xmlns="http://www.w3.org/2000/svg">
<path fill-rule="evenodd" clip-rule="evenodd" d="M12.9136 3.37327L20.2194 7.07623L20.2565 7.10099C20.6987 7.39577 20.8364 7.90897 20.7306 8.33193C20.6172 8.78554 20.2149 9.17503 19.6405 9.17503H4.34051C3.77773 9.17503 3.33662 8.78875 3.25072 8.27333C3.16675 7.76953 3.43762 7.29015 3.90064 7.05645L11.1051 3.35416C11.664 3.07469 12.3418 3.01676 12.9136 3.37327ZM11.7791 4.69425L5.9787 7.67503H18.0829L12.1616 4.67382L12.1245 4.64906C12.1051 4.63613 12.0039 4.58287 11.7791 4.69425Z" fill="black"/>
<path fill-rule="evenodd" clip-rule="evenodd" d="M12.0405 10.175C12.4547 10.175 12.7905 10.5108 12.7905 10.925V17.725C12.7905 18.1393 12.4547 18.475 12.0405 18.475C11.6263 18.475 11.2905 18.1393 11.2905 17.725V10.925C11.2905 10.5108 11.6263 10.175 12.0405 10.175Z" fill="black"/>
<path fill-rule="evenodd" clip-rule="evenodd" d="M16.5405 10.175C16.9547 10.175 17.2905 10.5108 17.2905 10.925V17.725C17.2905 18.1393 16.9547 18.475 16.5405 18.475C16.1263 18.475 15.7905 18.1393 15.7905 17.725V10.925C15.7905 10.5108 16.1263 10.175 16.5405 10.175Z" fill="black"/>
<path fill-rule="evenodd" clip-rule="evenodd" d="M7.54051 10.175C7.95473 10.175 8.29051 10.5108 8.29051 10.925V17.725C8.29051 18.1393 7.95473 18.475 7.54051 18.475C7.1263 18.475 6.79051 18.1393 6.79051 17.725V10.925C6.79051 10.5108 7.1263 10.175 7.54051 10.175Z" fill="black"/>
<path fill-rule="evenodd" clip-rule="evenodd" d="M4.29051 20.125C4.29051 19.7108 4.6263 19.375 5.04051 19.375H19.0405C19.4547 19.375 19.7905 19.7108 19.7905 20.125C19.7905 20.5392 19.4547 20.875 19.0405 20.875H5.04051C4.6263 20.875 4.29051 20.5392 4.29051 20.125Z" fill="black"/>
</svg>
