<svg xmlns="http://www.w3.org/2000/svg" fill="none" viewBox="0 0 24 24">
  <path fill="#000" fill-rule="evenodd" d="M4 18.75a.75.75 0 0 1 .75.75v2a.75.75 0 0 1-1.5 0v-2a.75.75 0 0 1 .75-.75Zm0-17a.75.75 0 0 1 .75.75v7a.75.75 0 0 1-1.5 0v-7A.75.75 0 0 1 4 1.75Z" clip-rule="evenodd"/>
  <path fill="#000" d="M13 5.5v4H4v-5h8c.5 0 1 .4 1 1Z"/>
  <path fill="#000" fill-rule="evenodd" d="M3.25 3.75H12c.865 0 1.75.688 1.75 1.75v4.75H3.25v-6.5Zm1.5 1.5v3.5h7.5V5.5c0-.08-.03-.135-.074-.177A.27.27 0 0 0 12 5.25H4.75Z" clip-rule="evenodd"/>
  <path fill="#000" fill-rule="evenodd" d="M3.25 8.75H19c.865 0 1.75.688 1.75 1.75v3c0 .865-.688 1.75-1.75 1.75H3.25v-6.5Zm1.5 1.5v3.5H19c.08 0 .135-.03.177-.074a.27.27 0 0 0 .073-.176v-3c0-.08-.03-.135-.074-.177A.27.27 0 0 0 19 10.25H4.75Z" clip-rule="evenodd"/>
  <path fill="#000" d="M17 14.5v4c0 .5-.4 1-1 1H4v-5h13Z"/>
  <path fill="#000" fill-rule="evenodd" d="M3.25 13.75h14.5v4.75c0 .865-.688 1.75-1.75 1.75H3.25v-6.5Zm1.5 1.5v3.5H16c.08 0 .135-.03.177-.074a.27.27 0 0 0 .073-.176v-3.25H4.75Z" clip-rule="evenodd"/>
</svg>
