<svg xmlns="http://www.w3.org/2000/svg" fill="none" viewBox="0 0 24 24">
  <path fill="#000" fill-rule="evenodd" d="M10.305 4.805c-.015.016-.055.065-.055.195v14.25h3.5V5c0-.13-.04-.18-.055-.195-.016-.015-.065-.055-.195-.055h-3c-.13 0-.18.04-.195.055ZM15.25 6.25V5c0-.47-.16-.92-.495-1.255-.334-.335-.785-.495-1.255-.495h-3c-.47 0-.92.16-1.255.495C8.91 4.079 8.75 4.53 8.75 5v5.25H5.5c-.47 0-.92.16-1.255.495-.335.334-.495.785-.495 1.255v7.25H2.5a.75.75 0 0 0 0 1.5h19a.75.75 0 0 0 0-1.5h-1.25V8c0-.47-.16-.92-.495-1.255-.334-.335-.785-.495-1.255-.495h-3.25Zm0 1.5v11.5h3.5V8c0-.13-.04-.18-.055-.195-.016-.015-.065-.055-.195-.055h-3.25Zm-9.75 4h3.25v7.5h-3.5V12c0-.13.04-.18.055-.195.016-.015.065-.055.195-.055Z" clip-rule="evenodd"/>
</svg>
