<svg xmlns="http://www.w3.org/2000/svg" viewBox="0 0 24 24" fill="currentColor">
  <path d="M10.3053 4.80533c-.0154.01542-.0553.06511-.0553.19467v14.25h3.5V5c0-.12956-.0399-.17925-.0553-.19467-.0154-.01542-.0651-.05533-.1947-.05533h-3c-.1296 0-.1793.03991-.1947.05533ZM15.25 6.25V5c0-.47044-.1601-.92075-.4947-1.25533C14.4207 3.41009 13.9704 3.25 13.5 3.25h-3c-.4704 0-.92075.16009-1.25533.49467C8.91009 4.07925 8.75 4.52956 8.75 5v5.25H5.5c-.47044 0-.92075.1601-1.25533.4947C3.91009 11.0793 3.75 11.5296 3.75 12v7.25H2.5c-.41421 0-.75.3358-.75.75s.33579.75.75.75h19c.4142 0 .75-.3358.75-.75s-.3358-.75-.75-.75h-1.25V8c0-.47044-.1601-.92075-.4947-1.25533C19.4207 6.41009 18.9704 6.25 18.5 6.25h-3.25Zm0 1.5v11.5h3.5V8c0-.12956-.0399-.17925-.0553-.19467-.0154-.01542-.0651-.05533-.1947-.05533h-3.25Zm-9.75 4h3.25v7.5h-3.5V12c0-.1296.03991-.1793.05533-.1947.01542-.0154.06511-.0553.19467-.0553Z"/>
</svg>
