<svg xmlns="http://www.w3.org/2000/svg" fill="none" viewBox="0 0 24 24">
  <path fill="#000" fill-rule="evenodd" d="M18.75 20a.75.75 0 0 1 .75-.75h2a.75.75 0 0 1 0 1.5h-2a.75.75 0 0 1-.75-.75Zm-17 0a.75.75 0 0 1 .75-.75h2a.75.75 0 0 1 0 1.5h-2a.75.75 0 0 1-.75-.75Z" clip-rule="evenodd"/>
  <path fill="#000" d="M9.5 11v9h-5v-8c0-.5.4-1 1-1h4Z"/>
  <path fill="#000" fill-rule="evenodd" d="M5.323 11.824A.27.27 0 0 0 5.25 12v7.25h3.5v-7.5H5.5c-.08 0-.135.03-.177.074ZM3.75 12c0-.865.688-1.75 1.75-1.75h4.75v10.5h-6.5V12Z" clip-rule="evenodd"/>
  <path fill="#000" fill-rule="evenodd" d="M10.323 4.824A.27.27 0 0 0 10.25 5v14.25h3.5V5c0-.08-.03-.135-.074-.177a.27.27 0 0 0-.176-.073h-3c-.08 0-.135.03-.177.074ZM8.75 5c0-.865.688-1.75 1.75-1.75h3c.865 0 1.75.688 1.75 1.75v15.75h-6.5V5Z" clip-rule="evenodd"/>
  <path fill="#000" d="M19.5 8v12h-5V7h4c.5 0 1 .4 1 1Z"/>
  <path fill="#000" fill-rule="evenodd" d="M13.75 6.25h4.75c.865 0 1.75.688 1.75 1.75v12.75h-6.5V6.25Zm1.5 1.5v11.5h3.5V8c0-.08-.03-.135-.074-.177a.27.27 0 0 0-.176-.073h-3.25Z" clip-rule="evenodd"/>
</svg>
