<svg width="24" height="24" viewBox="0 0 24 24" fill="none" xmlns="http://www.w3.org/2000/svg">
<path fill-rule="evenodd" clip-rule="evenodd" d="M4 1.75C4.41421 1.75 4.75 2.08579 4.75 2.5V21.5C4.75 21.9142 4.41421 22.25 4 22.25C3.58579 22.25 3.25 21.9142 3.25 21.5V2.5C3.25 2.08579 3.58579 1.75 4 1.75Z" fill="black"/>
<path fill-rule="evenodd" clip-rule="evenodd" d="M3.25 3.75H12C12.4704 3.75 12.9207 3.91009 13.2553 4.24467C13.5899 4.57925 13.75 5.02956 13.75 5.5V10.25H3.25V3.75ZM4.75 5.25V8.75H12.25V5.5C12.25 5.37044 12.2101 5.32075 12.1947 5.30533C12.1793 5.28991 12.1296 5.25 12 5.25H4.75Z" fill="black"/>
<path fill-rule="evenodd" clip-rule="evenodd" d="M3.25 8.75H19C19.4704 8.75 19.9207 8.91009 20.2553 9.24467C20.5899 9.57925 20.75 10.0296 20.75 10.5V13.5C20.75 13.9704 20.5899 14.4207 20.2553 14.7553C19.9207 15.0899 19.4704 15.25 19 15.25H3.25V8.75ZM4.75 10.25V13.75H19C19.1296 13.75 19.1793 13.7101 19.1947 13.6947C19.2101 13.6793 19.25 13.6296 19.25 13.5V10.5C19.25 10.3704 19.2101 10.3207 19.1947 10.3053C19.1793 10.2899 19.1296 10.25 19 10.25H4.75Z" fill="black"/>
<path fill-rule="evenodd" clip-rule="evenodd" d="M3.25 13.75H17.75V18.5C17.75 18.9704 17.5899 19.4207 17.2553 19.7553C16.9207 20.0899 16.4704 20.25 16 20.25H3.25V13.75ZM4.75 15.25V18.75H16C16.1296 18.75 16.1793 18.7101 16.1947 18.6947C16.2101 18.6793 16.25 18.6296 16.25 18.5V15.25H4.75Z" fill="black"/>
</svg>
