<svg xmlns="http://www.w3.org/2000/svg" viewBox="0 0 24 24" fill="currentColor">
  <path d="M7 4.25c-1.78579 0-3.25 1.46421-3.25 3.25v6c0 1.7981 1.37646 3.25 3.25 3.25h1.48723c.00902-.0002.01804-.0002.02707 0h6.9716c.009-.0002.018-.0002.027 0H17c1.7858 0 3.25-1.4642 3.25-3.25v-6c0-1.78579-1.4642-3.25-3.25-3.25H7Zm9.9015 14H17c2.6142 0 4.75-2.1358 4.75-4.75v-6c0-2.61421-2.1358-4.75-4.75-4.75H7c-2.61421 0-4.75 2.13579-4.75 4.75v6c0 2.6019 2.02354 4.75 4.75 4.75h.09866l-1.22262 1.8339c-.22976.3447-.13663.8103.20801 1.0401.34465.2298.8103.1366 1.04007-.208l1.77732-2.666h6.19726l1.7773 2.666c.2298.3446.6955.4378 1.0401.208.3447-.2298.4378-.6954.208-1.0401L16.9015 18.25ZM13.2697 7.96967c.2929-.29289.7678-.29289 1.0607 0l1.4 1.39999c.2705.27052.4446.62965.4446 1.03034 0 .4007-.1741.7598-.4446 1.0303l-1.4 1.4c-.2929.2929-.7678.2929-1.0607 0-.2929-.2929-.2929-.7677 0-1.0606L14.6394 10.4l-1.3697-1.36967c-.2929-.29289-.2929-.76777 0-1.06066ZM10.6304 9.1303c.2929-.29289.2929-.76777 0-1.06066s-.76775-.29289-1.06064.00001l-1.39999 1.4-.00001.00001c-.27051.27051-.44466.62964-.44466 1.03034 0 .4007.17415.7598.44467 1.0303l1.39999 1.4c.29289.2929.76774.2929 1.06064 0 .2929-.2929.2929-.7678 0-1.0607L9.26076 10.5l1.36964-1.3697Z"/>
</svg>
