<svg xmlns="http://www.w3.org/2000/svg" viewBox="0 0 24 24" fill="currentColor">
  <path d="M7 4.25c-1.78579 0-3.25 1.46421-3.25 3.25v6c0 1.7981 1.37646 3.25 3.25 3.25h1.48723c.00902-.0002.01804-.0002.02707 0h6.9716c.009-.0002.018-.0002.027 0H17c1.7858 0 3.25-1.4642 3.25-3.25v-6c0-1.78579-1.4642-3.25-3.25-3.25H7Zm9.9015 14H17c2.6142 0 4.75-2.1358 4.75-4.75v-6c0-2.61421-2.1358-4.75-4.75-4.75H7c-2.61421 0-4.75 2.13579-4.75 4.75v6c0 2.6019 2.02354 4.75 4.75 4.75h.09866l-1.22262 1.8339c-.22976.3447-.13663.8103.20801 1.0401.34465.2298.8103.1366 1.04007-.208l1.77732-2.666h6.19726l1.7773 2.666c.2298.3446.6955.4378 1.0401.208.3447-.2298.4378-.6954.208-1.0401L16.9015 18.25Z"/>
</svg>
