<svg xmlns="http://www.w3.org/2000/svg" viewBox="0 0 24 24" fill="currentColor">
  <path d="M7 4.25c-1.78579 0-3.25 1.46421-3.25 3.25v6c0 1.7858 1.46421 3.25 3.25 3.25h1.48711c.00902-.0002.01804-.0002.02707 0h6.97152c.0091-.0002.0181-.0002.0271 0H17c1.7858 0 3.25-1.4642 3.25-3.25v-6c0-.41421.3358-.75.75-.75s.75.33579.75.75v6c0 2.6142-2.1358 4.75-4.75 4.75h-.0986l1.2226 1.8339c.2298.3447.1366.8103-.208 1.0401-.3447.2298-.8103.1366-1.0401-.208l-1.7773-2.666H8.90132L7.124 20.916c-.22977.3446-.69542.4378-1.04007.208-.34464-.2298-.43777-.6954-.20801-1.0401L7.09854 18.25H7c-2.61421 0-4.75-2.1358-4.75-4.75v-6c0-2.61421 2.13579-4.75 4.75-4.75.41421 0 .75.33579.75.75s-.33579.75-.75.75Zm6.4.5c.4142 0 .75.33579.75.75v1.65002h1.75c.4142 0 .75.33579.75.75 0 .41422-.3358.75-.75.75h-1.75V10.4c0 .4142-.3358.75-.75.75s-.75-.3358-.75-.75V8.65002H11c-.4142 0-.75-.33578-.75-.75 0-.41421.3358-.75.75-.75h1.65V5.5c0-.41421.3358-.75.75-.75Z"/>
</svg>
