<svg xmlns="http://www.w3.org/2000/svg" viewBox="0 0 24 24" fill="currentColor">
  <path d="M3.75 7.5c0-1.78579 1.46421-3.25 3.25-3.25h10c1.7858 0 3.25 1.46421 3.25 3.25v6c0 1.7858-1.4642 3.25-3.25 3.25h-1.4871a.607575.607575 0 0 0-.027 0H8.5143c-.00903-.0002-.01805-.0002-.02707 0H7c-1.87354 0-3.25-1.4519-3.25-3.25v-6ZM17 18.25h-.0985l1.2226 1.8339c.2298.3447.1367.8103-.208 1.0401-.3446.2298-.8103.1366-1.0401-.208l-1.7773-2.666H8.90144l-1.77732 2.666c-.22977.3446-.69542.4378-1.04007.208-.34464-.2298-.43777-.6954-.20801-1.0401L7.09866 18.25H7c-2.72646 0-4.75-2.1481-4.75-4.75v-6c0-2.61421 2.13579-4.75 4.75-4.75h10c2.6142 0 4.75 2.13579 4.75 4.75v6c0 2.6142-2.1358 4.75-4.75 4.75Zm-7.25-6.5502c0-.4142-.33579-.75-.75-.75s-.75.3358-.75.75v.8c0 .4142.33579.75.75.75s.75-.3358.75-.75v-.8ZM12 9.6499c.4142 0 .75.33579.75.75v2.1c0 .4142-.3358.75-.75.75s-.75-.3358-.75-.75v-2.1c0-.41421.3358-.75.75-.75Zm3.6499-.55005c0-.41421-.3358-.75-.75-.75s-.75.33579-.75.75v3.40005c0 .4142.3358.75.75.75s.75-.3358.75-.75V9.09985Z"/>
</svg>
