<svg xmlns="http://www.w3.org/2000/svg" viewBox="0 0 24 24" fill="currentColor">
  <path d="M7 4.25c-1.78579 0-3.25 1.46421-3.25 3.25v6c0 1.7858 1.46421 3.25 3.25 3.25h1.48723c.00902-.0002.01804-.0002.02707 0h6.9716c.009-.0002.018-.0002.027 0H17c1.7858 0 3.25-1.4642 3.25-3.25v-6c0-.41421.3358-.75.75-.75s.75.33579.75.75v6c0 2.6142-2.1358 4.75-4.75 4.75h-.0985l1.2226 1.8339c.2298.3447.1367.8103-.208 1.0401-.3446.2298-.8103.1366-1.0401-.208l-1.7773-2.666H8.90144l-1.77732 2.666c-.22977.3446-.69542.4378-1.04007.208-.34464-.2298-.43777-.6954-.20801-1.0401L7.09866 18.25H7c-2.61421 0-4.75-2.1358-4.75-4.75v-6c0-2.61421 2.13579-4.75 4.75-4.75.41421 0 .75.33579.75.75s-.33579.75-.75.75Zm7.7854 1.30394c-.9944-.58929-2.3277-.45103-3.2551.47634l-.0098.00982-.0102.00945c-.892.82826-1.0602 2.155-.4419 3.22144l3.717-3.71705Zm1.0462 1.07511-3.7148 3.71485c1.0185.5955 2.3994.4441 3.2336-.45426l.0189-.02036.0203-.0189c.892-.82823 1.0602-2.15491.442-3.22133Zm.6085-1.64963c-1.6052-1.71722-4.2818-1.68817-5.9607-.01956-1.71721 1.60521-1.68815 4.2818-.0195 5.96064 1.592 1.7026 4.3739 1.706 5.9707.0102 1.707-1.60629 1.6748-4.27567.0095-5.95128Z"/>
</svg>
