<svg xmlns="http://www.w3.org/2000/svg" viewBox="0 0 24 24" fill="currentColor">
  <path d="M7 4.25c-1.78579 0-3.25 1.46421-3.25 3.25v6c0 1.7858 1.46421 3.25 3.25 3.25h1.48711c.00902-.0002.01804-.0002.02707 0h6.97152c.0091-.0002.0181-.0002.0271 0H17c1.7858 0 3.25-1.4642 3.25-3.25v-6c0-.41421.3358-.75.75-.75s.75.33579.75.75v6c0 2.6142-2.1358 4.75-4.75 4.75h-.0986l1.2226 1.8339c.2298.3447.1366.8103-.208 1.0401-.3447.2298-.8103.1366-1.0401-.208l-1.7773-2.666H8.90132L7.124 20.916c-.22977.3446-.69542.4378-1.04007.208-.34464-.2298-.43777-.6954-.20801-1.0401L7.09854 18.25H7c-2.61421 0-4.75-2.1358-4.75-4.75v-6c0-2.61421 2.13579-4.75 4.75-4.75.41421 0 .75.33579.75.75s-.33579.75-.75.75Zm8.6303 1.41962c.2929.29289.2929.76777 0 1.06066l-1.1697 1.16967 1.1697 1.16966c.2929.2929.2929.76777 0 1.06069-.2929.2929-.7678.2929-1.0607 0l-1.1697-1.16969-1.1696 1.16969c-.2929.2929-.7678.2929-1.0607 0-.2929-.29292-.2929-.76779 0-1.06069l1.1697-1.16966-1.1697-1.16967c-.2929-.29289-.2929-.76777 0-1.06066s.7678-.29289 1.0607 0l1.1696 1.16967 1.1697-1.16967c.2929-.29289.7678-.29289 1.0607 0Z"/>
</svg>
