<svg xmlns="http://www.w3.org/2000/svg" fill="none" viewBox="0 0 24 24">
  <path fill="#000" d="M3 13.5v-6c0-2.2 1.8-4 4-4h10c2.2 0 4 1.8 4 4v6c0 2.2-1.8 4-4 4H7c-2.3 0-4-1.8-4-4Z"/>
  <path fill="#000" fill-rule="evenodd" d="M7 4.25A3.262 3.262 0 0 0 3.75 7.5v6c0 1.798 1.376 3.25 3.25 3.25h10a3.262 3.262 0 0 0 3.25-3.25v-6A3.262 3.262 0 0 0 17 4.25H7ZM2.25 7.5A4.762 4.762 0 0 1 7 2.75h10a4.762 4.762 0 0 1 4.75 4.75v6A4.762 4.762 0 0 1 17 18.25H7c-2.726 0-4.75-2.148-4.75-4.75v-6Z" clip-rule="evenodd"/>
  <path fill="#000" fill-rule="evenodd" d="M8.916 16.876a.75.75 0 0 1 .208 1.04l-2 3a.75.75 0 1 1-1.248-.832l2-3a.75.75 0 0 1 1.04-.208Zm6.168 0a.75.75 0 0 1 1.04.208l2 3a.75.75 0 1 1-1.248.832l-2-3a.75.75 0 0 1 .208-1.04Z" clip-rule="evenodd"/>
</svg>
