<svg xmlns="http://www.w3.org/2000/svg" fill="none" viewBox="0 0 24 24">
  <path fill="#000" fill-rule="evenodd" d="M7 4.25A3.262 3.262 0 0 0 3.75 7.5v6c0 1.798 1.376 3.25 3.25 3.25h10a3.262 3.262 0 0 0 3.25-3.25v-6A3.262 3.262 0 0 0 17 4.25H7Zm9.901 14H17a4.762 4.762 0 0 0 4.75-4.75v-6A4.762 4.762 0 0 0 17 2.75H7A4.762 4.762 0 0 0 2.25 7.5v6c0 2.602 2.024 4.75 4.75 4.75h.099l-1.223 1.834a.75.75 0 1 0 1.248.832l1.777-2.666H15.1l1.777 2.666a.75.75 0 1 0 1.248-.832l-1.223-1.834ZM13.27 7.97a.75.75 0 0 1 1.06 0l1.4 1.4c.27.27.445.63.445 1.03s-.174.76-.445 1.03l-1.4 1.4a.75.75 0 0 1-1.06-1.06l1.37-1.37-1.37-1.37a.75.75 0 0 1 0-1.06Zm-2.64 1.16a.75.75 0 1 0-1.06-1.06l-1.4 1.4c-.27.27-.445.63-.445 1.03s.174.76.445 1.03l1.4 1.4a.75.75 0 1 0 1.06-1.06L9.26 10.5l1.37-1.37Z" clip-rule="evenodd"/>
</svg>
