<svg width="24" height="24" viewBox="0 0 24 24" fill="none" xmlns="http://www.w3.org/2000/svg">
<path fill-rule="evenodd" clip-rule="evenodd" d="M3.75 7.49994C3.75 5.71415 5.21421 4.24994 7 4.24994H17C18.7858 4.24994 20.25 5.71415 20.25 7.49994V13.4999C20.25 15.2857 18.7858 16.7499 17 16.7499H15.5129C15.5039 16.7498 15.4949 16.7498 15.4859 16.7499H8.5143C8.50527 16.7498 8.49625 16.7498 8.48723 16.7499H7C5.12646 16.7499 3.75 15.2981 3.75 13.4999V7.49994ZM17 18.2499H16.9015L18.1241 20.0839C18.3539 20.4285 18.2608 20.8942 17.9161 21.1239C17.5715 21.3537 17.1058 21.2606 16.876 20.9159L15.0987 18.2499H8.90144L7.12412 20.9159C6.89435 21.2606 6.4287 21.3537 6.08405 21.1239C5.73941 20.8942 5.64628 20.4285 5.87604 20.0839L7.09866 18.2499H7C4.27354 18.2499 2.25 16.1018 2.25 13.4999V7.49994C2.25 4.88573 4.38579 2.74994 7 2.74994H17C19.6142 2.74994 21.75 4.88573 21.75 7.49994V13.4999C21.75 16.1142 19.6142 18.2499 17 18.2499ZM9.75 11.6998C9.75 11.2856 9.41421 10.9498 9 10.9498C8.58579 10.9498 8.25 11.2856 8.25 11.6998V12.4998C8.25 12.914 8.58579 13.2498 9 13.2498C9.41421 13.2498 9.75 12.914 9.75 12.4998V11.6998ZM12 9.64984C12.4142 9.64984 12.75 9.98563 12.75 10.3998V12.4998C12.75 12.9141 12.4142 13.2498 12 13.2498C11.5858 13.2498 11.25 12.9141 11.25 12.4998V10.3998C11.25 9.98563 11.5858 9.64984 12 9.64984ZM15.6499 9.09979C15.6499 8.68558 15.3141 8.34979 14.8999 8.34979C14.4857 8.34979 14.1499 8.68558 14.1499 9.09979V12.4998C14.1499 12.914 14.4857 13.2498 14.8999 13.2498C15.3141 13.2498 15.6499 12.914 15.6499 12.4998V9.09979Z" fill="black"/>
</svg>
