<svg xmlns="http://www.w3.org/2000/svg" fill="none" viewBox="0 0 24 24">
  <path fill="#000" fill-rule="evenodd" d="M3.75 7.5A3.262 3.262 0 0 1 7 4.25h10a3.262 3.262 0 0 1 3.25 3.25v6A3.262 3.262 0 0 1 17 16.75H7c-1.874 0-3.25-1.452-3.25-3.25v-6ZM17 18.25h-.099l1.223 1.834a.75.75 0 1 1-1.248.832l-1.777-2.666H8.9l-1.777 2.666a.75.75 0 1 1-1.248-.832l1.223-1.834H7c-2.726 0-4.75-2.148-4.75-4.75v-6A4.762 4.762 0 0 1 7 2.75h10a4.762 4.762 0 0 1 4.75 4.75v6A4.762 4.762 0 0 1 17 18.25ZM9.75 11.7a.75.75 0 0 0-1.5 0v.8a.75.75 0 0 0 1.5 0v-.8ZM12 9.65a.75.75 0 0 1 .75.75v2.1a.75.75 0 1 1-1.5 0v-2.1a.75.75 0 0 1 .75-.75Zm3.65-.55a.75.75 0 0 0-1.5 0v3.4a.75.75 0 0 0 1.5 0V9.1Z" clip-rule="evenodd"/>
</svg>
