<svg xmlns="http://www.w3.org/2000/svg" viewBox="0 0 24 24" fill="currentColor">
  <path d="M3.75 7.5c0-1.78579 1.46421-3.25 3.25-3.25.41421 0 .75-.33579.75-.75s-.33579-.75-.75-.75c-2.61421 0-4.75 2.13579-4.75 4.75v6c0 2.6142 2.13579 4.75 4.75 4.75h.09866l-1.22262 1.8339c-.22976.3447-.13663.8103.20801 1.0401.34465.2298.8103.1366 1.04007-.208l1.77732-2.666h6.19726l1.7773 2.666c.2298.3446.6955.4378 1.0401.208.3447-.2298.4378-.6954.208-1.0401L16.9015 18.25H17c2.6142 0 4.75-2.1358 4.75-4.75v-6c0-.41421-.3358-.75-.75-.75s-.75.33579-.75.75v6c0 1.7858-1.4642 3.25-3.25 3.25h-1.4871a.607575.607575 0 0 0-.027 0H8.5143c-.00903-.0002-.01805-.0002-.02707 0H7c-1.78579 0-3.25-1.4642-3.25-3.25v-6Zm12.3719-.86172c.2974-.28836.3047-.76317.0164-1.06054-.2884-.29736-.7632-.30466-1.0606-.01631l-2.8624 2.77571-.8155-1.08728c-.2485-.33137-.7186-.39853-1.0499-.15-.3314.24853-.39858.71863-.1501 1.05l1.232 1.64265.0377.03769c.2119.2119.4886.2947.7178.2947.116 0 .2954-.0209.4728-.13004.0961-.05915.1866-.14304.2562-.24804l3.2056-3.10854Z"/>
</svg>
