<svg xmlns="http://www.w3.org/2000/svg" fill="none" viewBox="0 0 24 24">
  <path fill="#000" fill-rule="evenodd" d="M8.8 5.55c-.686 0-1.25.564-1.25 1.25V19c0 .139.064.22.127.26a.216.216 0 0 0 .192.016l2.964-2.766.051-.034a1.658 1.658 0 0 1 1.832 0l.051.034 2.963 2.766a.216.216 0 0 0 .192-.017c.064-.038.128-.12.128-.259V6.8c0-.738-.615-1.25-1.25-1.25h-6ZM6.05 6.8A2.756 2.756 0 0 1 8.8 4.05h6c1.365 0 2.75 1.088 2.75 2.75V19c0 1.334-1.386 2.258-2.622 1.551l-.076-.043-2.999-2.8a.164.164 0 0 0-.106 0l-3 2.8-.075.043C7.436 21.258 6.05 20.334 6.05 19V6.8Z" clip-rule="evenodd"/>
  <path fill="#000" d="M16.8 6.8v3h-10v-3c0-1.1.9-2 2-2h6c1 0 2 .8 2 2Z"/>
  <path fill="#000" fill-rule="evenodd" d="M8.8 5.55c-.686 0-1.25.564-1.25 1.25v2.25h8.5V6.8c0-.738-.615-1.25-1.25-1.25h-6ZM6.05 6.8A2.756 2.756 0 0 1 8.8 4.05h6c1.365 0 2.75 1.088 2.75 2.75v3.75H6.05V6.8Z" clip-rule="evenodd"/>
</svg>
