<svg xmlns="http://www.w3.org/2000/svg" viewBox="0 0 24 24" fill="currentColor">
  <path d="M11 3.62752c-.6858 0-1.25.56422-1.25 1.25v.25H13c1.5142 0 2.75 1.23579 2.75 2.75v7.47088l2.1909 2.0157c.0298.0079.0822.0088.1562-.0344.0982-.0573.1529-.1504.1529-.2522V4.87752c0-.68578-.5642-1.25-1.25-1.25h-6Zm-2.75 1.25v.25H7c-.77044 0-1.47075.26009-1.98033.76967-.50958.50959-.76967 1.2099-.76967 1.98033V20.0775c0 1.3339 1.38608 2.2575 2.6221 1.5512l.07581-.0433L9.77159 18.95H10.1c.0403 0 .0798-.0032.1184-.0093l2.8337 2.6447.0758.0433c1.236.7063 2.6221-.2173 2.6221-1.5512v-2.6908l1.2853 1.1824.0487.0325c.584.3893 1.2727.3132 1.7689.0238.5018-.2928.8971-.8496.8971-1.5479V4.87752c0-1.51421-1.2358-2.75-2.75-2.75h-6c-1.51421 0-2.75 1.23579-2.75 2.75Zm6 15.19998V7.87752c0-.68578-.5642-1.25-1.25-1.25H7c-.42956 0-.72925.13992-.91967.33033-.19042.19042-.33033.49011-.33033.91967V20.0775c0 .139.06411.2208.12746.2594.04755.0289.11139.0449.19204.0165l2.96353-2.7659.05094-.034c.55193-.3679 1.28013-.3679 1.83203 0l.051.034 2.9635 2.7659c.0807.0284.1445.0124.192-.0165.0634-.0386.1275-.1204.1275-.2594Z"/>
</svg>
