<svg xmlns="http://www.w3.org/2000/svg" viewBox="0 0 24 24" fill="currentColor">
  <path d="M13.2195 3.74719c.2929-.29289.7678-.29289 1.0607 0l1.6197 1.61968 1.6197-1.61968c.2929-.29289.7678-.29289 1.0607 0 .2929.2929.2928.76777 0 1.06066l-1.6197 1.61967 1.6197 1.61967c.2928.29289.2929.76777 0 1.06066-.2929.2929-.7678.2929-1.0607.00001l-1.6197-1.61968-1.6197 1.61968c-.2929.29289-.7678.29289-1.0607-.00001-.2928-.29289-.2928-.76777.0001-1.06066l1.6196-1.61967-1.6196-1.61967c-.2929-.29289-.2929-.76776-.0001-1.06066Zm-5.26955-.01966c-1.51421 0-2.75 1.23579-2.75 2.75V18.6775c0 1.3339 1.38607 2.2575 2.62211 1.5512l.0758-.0433 2.99904-2.7991c.0336-.0117.0725-.0117.1061 0l2.999 2.7991.0758.0433c1.2361.7063 2.6222-.2173 2.6222-1.5512v-6.2c0-.4142-.3358-.75-.75-.75-.4143 0-.75.3358-.75.75v6.2c0 .139-.0642.2208-.1275.2594-.0476.0289-.1114.0449-.192.0165l-2.9636-2.7659-.0509-.034c-.5519-.368-1.2801-.368-1.8321 0l-.05092.034-2.96353 2.7659c-.08065.0284-.14449.0124-.19204-.0165-.06334-.0386-.12746-.1204-.12746-.2594V6.47753c0-.68578.56421-1.25 1.25-1.25H10.95c.4142 0 .75-.33578.75-.75 0-.41421-.3358-.75-.75-.75H7.94995Z"/>
</svg>
