<svg xmlns="http://www.w3.org/2000/svg" viewBox="0 0 24 24" fill="currentColor">
  <path d="M7.01967 4.3972C7.52925 3.88761 8.22956 3.62753 9 3.62753h6c1.5142 0 2.75 1.23578 2.75 2.75V18.5775c0 1.3339-1.3861 2.2575-2.6221 1.5512l-.0758-.0433-2.999-2.7991c-.0336-.0117-.0726-.0117-.1062 0l-2.99899 2.7991-.07581.0433c-1.23603.7063-2.6221-.2173-2.6221-1.5512V6.37753c0-.77044.26009-1.47075.76967-1.98033Zm1.06066 1.06066c-.19042.19041-.33033.4901-.33033.91967V18.5775c0 .1389.06411.2208.12746.2594.04755.0289.11139.0449.19203.0165l2.96351-2.7659.051-.034c.5519-.368 1.2801-.368 1.832 0l.051.034 2.9635 2.7659c.0807.0284.1445.0124.192-.0165.0634-.0386.1275-.1205.1275-.2594V6.37753c0-.68579-.5642-1.25-1.25-1.25H9c-.42956 0-.72925.13991-.91967.33033Z"/>
</svg>
