<svg xmlns="http://www.w3.org/2000/svg" viewBox="0 0 24 24" fill="currentColor">
  <path d="M7.75 6.37753c0-.68579.56421-1.25 1.25-1.25h6c.6354 0 1.25.51211 1.25 1.25v2.25h-8.5v-2.25Zm-1.5 3.74997V6.37753c0-1.51421 1.23579-2.75 2.75-2.75h6c1.3646 0 2.75 1.08789 2.75 2.75V18.5775c0 1.3339-1.3861 2.2575-2.6221 1.5512l-.0758-.0433-2.999-2.7991c-.0336-.0117-.0726-.0117-.1062 0l-2.99899 2.7991-.07581.0433c-1.23602.7063-2.6221-.2173-2.6221-1.5512v-8.45Zm10 0v8.45c0 .139-.0641.2208-.1275.2594-.0475.0289-.1113.0449-.192.0165l-2.9635-2.7659-.051-.034c-.5519-.368-1.2801-.368-1.832 0l-.051.034-2.9635 2.7659c-.08065.0284-.14449.0124-.19204-.0165-.06335-.0386-.12746-.1204-.12746-.2594v-8.45h8.5Z"/>
</svg>
