<svg width="24" height="24" fill="none" xmlns="http://www.w3.org/2000/svg"><path fill="#fff" d="M0 0h24v24H0z"/><path d="M9 6V5c0-1.1.9-2 2-2h6c1.1 0 2 .9 2 2v12.2c0 .8-.9 1.3-1.5.9L15 15.8M9.69995 18.2c0-.1 0 0 0 0H10.1" stroke="#000" stroke-width="1.5" stroke-miterlimit="10" stroke-linecap="round"/><path d="M5 8v12.2c0 .8.8 1.3 1.5.9l3-2.8c.3-.2.7-.2 1 0l3 2.8c.7.4 1.5-.1 1.5-.9V8c0-1.1-.9-2-2-2H7c-1.2 0-2 .8-2 2z" stroke="#000" stroke-width="1.5" stroke-miterlimit="10" stroke-linecap="round"/></svg>