<svg width="24" height="24" viewBox="0 0 24 24" fill="none" xmlns="http://www.w3.org/2000/svg">
<path d="M18.8 4.80005V17C18.8 17.8 18 18.3 17.3 17.9L14.8 15.6V7.80005C14.8 6.70005 13.9 5.80005 12.8 5.80005H8.79999V4.80005C8.79999 3.70005 9.69999 2.80005 10.8 2.80005H16.8C17.8 2.80005 18.8 3.60005 18.8 4.80005Z" fill="black"/>
<path fill-rule="evenodd" clip-rule="evenodd" d="M10.8 3.55005C10.1142 3.55005 9.54999 4.11426 9.54999 4.80005V5.05005H12.8C14.3142 5.05005 15.55 6.28584 15.55 7.80005V15.2709L17.7286 17.2753C17.8102 17.3046 17.8746 17.2886 17.9225 17.2594C17.9859 17.2208 18.05 17.139 18.05 17V4.80005C18.05 4.06216 17.4354 3.55005 16.8 3.55005H10.8ZM8.04999 4.80005C8.04999 3.28584 9.28577 2.05005 10.8 2.05005H16.8C18.1646 2.05005 19.55 3.13794 19.55 4.80005V17C19.55 18.3339 18.1639 19.2575 16.9279 18.5512L16.8544 18.5093L14.05 15.9292V7.80005C14.05 7.11426 13.4858 6.55005 12.8 6.55005H8.04999V4.80005Z" fill="black"/>
<path fill-rule="evenodd" clip-rule="evenodd" d="M8.75 17.9C8.75 17.4858 9.08579 17.15 9.5 17.15H9.9C10.3142 17.15 10.65 17.4858 10.65 17.9C10.65 18.3142 10.3142 18.65 9.9 18.65H9.5C9.08579 18.65 8.75 18.3142 8.75 17.9Z" fill="black"/>
<path fill-rule="evenodd" clip-rule="evenodd" d="M6.79999 6.55005C6.1142 6.55005 5.54999 7.11426 5.54999 7.80005V19.9C5.54999 20.039 5.6141 20.1208 5.67745 20.1594C5.725 20.1883 5.78884 20.2043 5.86948 20.1759L9.00437 17.25H9.17464C9.19962 17.2385 9.2298 17.2254 9.26164 17.2134C9.33323 17.1866 9.45213 17.15 9.59999 17.15H10.3106L10.4942 17.3336C10.5499 17.3613 10.6854 17.4288 10.8186 17.5582L13.7305 20.2759C13.8111 20.3043 13.875 20.2883 13.9225 20.2594C13.9859 20.2208 14.05 20.139 14.05 20V7.80005C14.05 7.06216 13.4354 6.55005 12.8 6.55005H6.79999ZM4.04999 7.80005C4.04999 6.28584 5.28577 5.05005 6.79999 5.05005H12.8C14.1646 5.05005 15.55 6.13794 15.55 7.80005V20C15.55 21.3339 14.1639 22.2575 12.9279 21.5512L12.8521 21.5079L9.80988 18.6685C9.80881 18.668 9.80771 18.6675 9.80658 18.6669C9.79752 18.6624 9.78627 18.6568 9.77321 18.65H9.72535C9.71229 18.6561 9.69778 18.6626 9.68237 18.6691L6.7479 21.4079L6.67209 21.4512C5.43606 22.1575 4.04999 21.2339 4.04999 19.9V7.80005Z" fill="black"/>
</svg>
