<svg xmlns="http://www.w3.org/2000/svg" viewBox="0 0 24 24" fill="currentColor">
  <path d="M8 3.62753c-1.51421 0-2.75 1.23579-2.75 2.75V18.5775c0 1.3339 1.38608 2.2575 2.6221 1.5512l.07581-.0433 2.99899-2.7991c.0336-.0117.0726-.0117.1062 0l2.999 2.7991.0758.0433c1.236.7063 2.6221-.2173 2.6221-1.5512v-6.2c0-.4142-.3358-.75-.75-.75s-.75.3358-.75.75v6.2c0 .139-.0641.2208-.1275.2594-.0475.0289-.1113.0449-.192.0165l-2.9635-2.7659-.051-.034c-.5519-.368-1.2801-.368-1.832 0l-.051.034-2.9635 2.7659c-.08065.0284-.14449.0124-.19204-.0165-.06335-.0386-.12746-.1204-.12746-.2594V6.37753c0-.68579.56421-1.25 1.25-1.25h3c.4142 0 .75-.33579.75-.75s-.3358-.75-.75-.75H8Zm6 3c-.4142 0-.75.33579-.75.75s.3358.75.75.75h4c.4142 0 .75-.33579.75-.75s-.3358-.75-.75-.75h-4Z"/>
</svg>
