<svg width="24" height="24" viewBox="0 0 24 24" fill="none" xmlns="http://www.w3.org/2000/svg">
<path fill-rule="evenodd" clip-rule="evenodd" d="M8.8 5.55005C8.11421 5.55005 7.55 6.11426 7.55 6.80005V19C7.55 19.139 7.61411 19.2208 7.67746 19.2594C7.72501 19.2883 7.78885 19.3043 7.86949 19.2759L10.833 16.51L10.884 16.476C11.4359 16.1081 12.1641 16.1081 12.716 16.476L12.767 16.51L15.7305 19.2759C15.8112 19.3043 15.875 19.2883 15.9225 19.2594C15.9859 19.2208 16.05 19.139 16.05 19V6.80005C16.05 6.06216 15.4354 5.55005 14.8 5.55005H8.8ZM6.05 6.80005C6.05 5.28584 7.28579 4.05005 8.8 4.05005H14.8C16.1646 4.05005 17.55 5.13794 17.55 6.80005V19C17.55 20.3339 16.1639 21.2575 14.9279 20.5512L14.8521 20.5079L11.8531 17.7089C11.8195 17.6971 11.7805 17.6971 11.7469 17.7089L8.74791 20.5079L8.6721 20.5512C7.43607 21.2575 6.05 20.3339 6.05 19V6.80005Z" fill="black"/>
<path d="M16.8 6.80005V9.80005H6.8V6.80005C6.8 5.70005 7.7 4.80005 8.8 4.80005H14.8C15.8 4.80005 16.8 5.60005 16.8 6.80005Z" fill="black"/>
<path fill-rule="evenodd" clip-rule="evenodd" d="M8.8 5.55005C8.11421 5.55005 7.55 6.11426 7.55 6.80005V9.05005H16.05V6.80005C16.05 6.06216 15.4354 5.55005 14.8 5.55005H8.8ZM6.05 6.80005C6.05 5.28584 7.28579 4.05005 8.8 4.05005H14.8C16.1646 4.05005 17.55 5.13794 17.55 6.80005V10.55H6.05V6.80005Z" fill="black"/>
</svg>
