<svg xmlns="http://www.w3.org/2000/svg" viewBox="0 0 24 24" fill="currentColor">
  <path d="M15.5 3.12753c.4142 0 .75.33578.75.75v2.25h2.25c.4142 0 .75.33578.75.75 0 .41421-.3358.75-.75.75h-2.25v2.25c0 .41417-.3358.74997-.75.74997s-.75-.3358-.75-.74997v-2.25H12.5c-.4142 0-.75-.33579-.75-.75 0-.41422.3358-.75.75-.75h2.25v-2.25c0-.41422.3358-.75.75-.75Zm-8 1c-1.51421 0-2.75 1.23578-2.75 2.75V19.0775c0 1.3339 1.38607 2.2575 2.6221 1.5512l.07581-.0433 2.99899-2.7991c.0336-.0117.0726-.0117.1062 0l2.999 2.7991.0758.0433c1.236.7063 2.6221-.2173 2.6221-1.5512v-6.2c0-.4142-.3358-.75-.75-.75s-.75.3358-.75.75v6.2c0 .1389-.0641.2208-.1275.2594-.0475.0289-.1113.0449-.192.0165l-2.9635-2.7659-.051-.034c-.5519-.368-1.2801-.368-1.83203 0l-.05094.034-2.96354 2.7659c-.08064.0284-.14448.0124-.19203-.0165-.06335-.0386-.12746-.1205-.12746-.2594V6.87753c0-.68579.56421-1.25 1.25-1.25h3c.4142 0 .75-.33579.75-.75 0-.41422-.3358-.75-.75-.75h-3Z"/>
</svg>
