<svg width="24" height="24" viewBox="0 0 24 24" fill="none" xmlns="http://www.w3.org/2000/svg">
<path d="M3 12C3 7 7 3 12 3C17 3 21 7 21 12C21 17 17 21 12 21C7 21 3 16.9 3 12Z" fill="black"/>
<path fill-rule="evenodd" clip-rule="evenodd" d="M12 3.75C7.41421 3.75 3.75 7.41421 3.75 12C3.75 16.4912 7.41962 20.25 12 20.25C16.5858 20.25 20.25 16.5858 20.25 12C20.25 7.41421 16.5858 3.75 12 3.75ZM2.25 12C2.25 6.58579 6.58579 2.25 12 2.25C17.4142 2.25 21.75 6.58579 21.75 12C21.75 17.4142 17.4142 21.75 12 21.75C6.58038 21.75 2.25 17.3088 2.25 12Z" fill="black"/>
<path d="M11 7.19995C11 6.89995 11.1 6.69995 11.3 6.49995C11.4 6.39995 11.5 6.29995 11.6 6.29995C11.7 6.19995 11.8 6.19995 12 6.19995C12.1 6.19995 12.3 6.19995 12.4 6.29995C12.5 6.39995 12.6 6.39995 12.7 6.49995C13.1 6.89995 13.1 7.49995 12.7 7.89995C12.6 7.99995 12.5 8.09995 12.4 8.09995C12.2 8.19995 12.1 8.19995 12 8.19995C11.7 8.19995 11.4 8.09995 11.3 7.89995C11.1 7.69995 11 7.49995 11 7.19995Z" fill="white"/>
<path d="M11 11.8999C11 11.5999 11.1 11.3999 11.3 11.1999C11.5 10.9999 11.7 10.8999 12 10.8999C12.3 10.8999 12.5 10.9999 12.7 11.1999C13.1 11.5999 13.1 12.1999 12.7 12.5999C12.5 12.7999 12.3 12.8999 12 12.8999C11.7 12.8999 11.5 12.7999 11.3 12.5999C11.1 12.4999 11 12.1999 11 11.8999Z" fill="white"/>
<path d="M15.1001 9.69995C15.1001 9.39995 15.2001 9.19995 15.4001 8.99995C15.6001 8.79995 15.8001 8.69995 16.1001 8.69995C16.4001 8.69995 16.6001 8.79995 16.8001 8.99995C17.2001 9.39995 17.2001 9.99995 16.8001 10.4C16.6001 10.6 16.4001 10.7 16.1001 10.7C15.8001 10.7 15.6001 10.6 15.4001 10.4C15.2001 10.2 15.1001 9.89995 15.1001 9.69995Z" fill="white"/>
</svg>
