<svg xmlns="http://www.w3.org/2000/svg" viewBox="0 0 24 24" fill="currentColor">
  <path d="M7 3.75C5.21421 3.75 3.75 5.21421 3.75 7v10c0 1.7858 1.46421 3.25 3.25 3.25.41421 0 .75.3358.75.75s-.33579.75-.75.75c-2.61421 0-4.75-2.1358-4.75-4.75V7c0-2.61421 2.13579-4.75 4.75-4.75h10c2.6142 0 4.75 2.13579 4.75 4.75v5c0 .4142-.3358.75-.75.75s-.75-.3358-.75-.75V7c0-1.78579-1.4642-3.25-3.25-3.25h-1.25V7.5c0 1.21421-1.0358 2.25-2.25 2.25h-3c-1.21421 0-2.25-1.03579-2.25-2.25V3.75H7Zm2.75 0V7.5c0 .38579.3642.75.75.75h3c.3858 0 .75-.36421.75-.75V3.75h-4.5ZM16.1499 16c0-.4142-.3358-.75-.75-.75s-.75.3358-.75.75v1.6499H13c-.4142 0-.75.3358-.75.75s.3358.75.75.75h1.6499V20.9c0 .4142.3358.75.75.75s.75-.3358.75-.75v-1.7501H17.9c.4142 0 .75-.3358.75-.75s-.3358-.75-.75-.75h-1.7501V16Z"/>
</svg>
