<svg width="24" height="24" viewBox="0 0 24 24" fill="none" xmlns="http://www.w3.org/2000/svg">
<path fill-rule="evenodd" clip-rule="evenodd" d="M14.3 3.05005C14.3 2.63584 14.6358 2.30005 15.05 2.30005H17.05C19.6643 2.30005 21.8 4.43584 21.8 7.05005V12.05C21.8 12.4643 21.4643 12.8 21.05 12.8C20.6358 12.8 20.3 12.4643 20.3 12.05V7.05005C20.3 5.26426 18.8358 3.80005 17.05 3.80005H15.05C14.6358 3.80005 14.3 3.46426 14.3 3.05005Z" fill="black"/>
<path fill-rule="evenodd" clip-rule="evenodd" d="M7.05005 3.80005C5.26426 3.80005 3.80005 5.26426 3.80005 7.05005V17.05C3.80005 18.8358 5.26426 20.3 7.05005 20.3C7.46426 20.3 7.80005 20.6358 7.80005 21.05C7.80005 21.4643 7.46426 21.8 7.05005 21.8C4.43584 21.8 2.30005 19.6643 2.30005 17.05V7.05005C2.30005 4.43584 4.43584 2.30005 7.05005 2.30005H9.05005C9.46426 2.30005 9.80005 2.63584 9.80005 3.05005C9.80005 3.46426 9.46426 3.80005 9.05005 3.80005H7.05005Z" fill="black"/>
<path d="M15.05 3.05005V7.55005C15.05 8.35005 14.35 9.05005 13.55 9.05005H10.55C9.75005 9.05005 9.05005 8.35005 9.05005 7.55005V3.05005H15.05Z" fill="black"/>
<path fill-rule="evenodd" clip-rule="evenodd" d="M8.30005 2.30005H15.8V7.55005C15.8 8.76426 14.7643 9.80005 13.55 9.80005H10.55C9.33584 9.80005 8.30005 8.76426 8.30005 7.55005V2.30005ZM9.80005 3.80005V7.55005C9.80005 7.93584 10.1643 8.30005 10.55 8.30005H13.55C13.9358 8.30005 14.3 7.93584 14.3 7.55005V3.80005H9.80005Z" fill="black"/>
<path fill-rule="evenodd" clip-rule="evenodd" d="M17.4004 15.5603C16.4077 14.4912 14.6988 14.4619 13.5803 15.5803L13.5705 15.5902L13.5603 15.5996C12.4912 16.5924 12.4619 18.3012 13.5803 19.4197L13.5902 19.4295L13.5996 19.4397C14.6029 20.5201 16.3971 20.5201 17.4004 19.4397L17.4193 19.4193L17.4397 19.4004C18.5088 18.4077 18.5381 16.6988 17.4197 15.5803L17.4099 15.5705L17.4004 15.5603ZM18.4901 14.5295C16.8849 12.8122 14.2084 12.8413 12.5295 14.5099C10.8122 16.1151 10.8413 18.7917 12.5099 20.4706C14.1019 22.1731 16.8839 22.1765 18.4806 20.4807C20.1876 18.8744 20.1554 16.2051 18.4901 14.5295Z" fill="black"/>
<path fill-rule="evenodd" clip-rule="evenodd" d="M12.5197 19.4197L17.4197 14.5197L18.4803 15.5803L13.5803 20.4803L12.5197 19.4197Z" fill="black"/>
</svg>
