<svg xmlns="http://www.w3.org/2000/svg" fill="none" viewBox="0 0 24 24">
  <path fill="#000" fill-rule="evenodd" d="M7 3.75A3.262 3.262 0 0 0 3.75 7v10A3.262 3.262 0 0 0 7 20.25a.75.75 0 0 1 0 1.5A4.762 4.762 0 0 1 2.25 17V7A4.762 4.762 0 0 1 7 2.25h10A4.762 4.762 0 0 1 21.75 7v5a.75.75 0 0 1-1.5 0V7A3.262 3.262 0 0 0 17 3.75h-1.25V7.5c0 1.214-1.036 2.25-2.25 2.25h-3c-1.214 0-2.25-1.036-2.25-2.25V3.75H7Zm2.75 0V7.5c0 .386.364.75.75.75h3c.386 0 .75-.364.75-.75V3.75h-4.5Zm7.88 13.48a.75.75 0 1 0-1.06-1.06l-1.17 1.17-1.17-1.17a.75.75 0 0 0-1.06 1.06l1.17 1.17-1.17 1.17a.75.75 0 1 0 1.06 1.06l1.17-1.17 1.17 1.17a.75.75 0 0 0 1.06-1.06l-1.17-1.17 1.17-1.17Z" clip-rule="evenodd"/>
</svg>
