<svg xmlns="http://www.w3.org/2000/svg" viewBox="0 0 24 24" fill="currentColor">
  <path d="M3.75 7c0-1.78579 1.46421-3.25 3.25-3.25h1.25V7.5c0 1.21421 1.03579 2.25 2.25 2.25h3c1.2142 0 2.25-1.03579 2.25-2.25V3.75H17c1.7858 0 3.25 1.46421 3.25 3.25v5c0 .4142.3358.75.75.75s.75-.3358.75-.75V7c0-2.61421-2.1358-4.75-4.75-4.75H7C4.38579 2.25 2.25 4.38579 2.25 7v10c0 2.6142 2.13579 4.75 4.75 4.75.41421 0 .75-.3358.75-.75s-.33579-.75-.75-.75c-1.78579 0-3.25-1.4642-3.25-3.25V7Zm6-3.25V7.5c0 .38579.3642.75.75.75h3c.3858 0 .75-.36421.75-.75V3.75h-4.5Zm7.0355 11.3042c-.9944-.5893-2.3278-.4511-3.2552.4763l-.0098.0098-.0102.0095c-.892.8283-1.0602 2.1551-.4419 3.2215l3.7171-3.7171Zm1.0462 1.0752-3.7149 3.7148c1.0185.5954 2.3994.444 3.2336-.4543l.0189-.0204.0203-.0189c.892-.8282 1.0602-2.1548.4421-3.2212Zm.6084-1.6497c-1.6052-1.7173-4.2818-1.6882-5.9607-.0196-1.7172 1.6052-1.6881 4.2818-.0195 5.9607 1.592 1.7025 4.3739 1.7059 5.9707.0101 1.707-1.6062 1.6748-4.2756.0095-5.9512Z"/>
</svg>
