<svg xmlns="http://www.w3.org/2000/svg" viewBox="0 0 24 24" fill="currentColor">
  <path d="M3.75 7c0-1.88579 1.36421-3.25 3.25-3.25h1.25V7.5c0 1.21421 1.03579 2.25 2.25 2.25h3c1.2142 0 2.25-1.03579 2.25-2.25V3.75H17c1.7858 0 3.25 1.46421 3.25 3.25v10c0 1.7858-1.4642 3.25-3.25 3.25H7c-1.78579 0-3.25-1.4642-3.25-3.25V7Zm10.5-3.25h-4.5V7.5c0 .38579.3642.75.75.75h3c.3858 0 .75-.36421.75-.75V3.75ZM7 2.25C4.28579 2.25 2.25 4.28579 2.25 7v10c0 2.6142 2.13579 4.75 4.75 4.75h10c2.6142 0 4.75-2.1358 4.75-4.75V7c0-2.61421-2.1358-4.75-4.75-4.75H7Zm8 9.4004c.4142 0 .75.3358.75.75v2.9894l.7197-.7197c.2928-.2929.7677-.2929 1.0606 0 .2929.2929.2929.7678 0 1.0607l-1.7 1.7c-.2319.2319-.5235.2947-.7428.2947-.2243 0-.4387-.0621-.6229-.1542l-.1089-.0545-1.7861-1.786c-.2928-.2929-.2928-.7678 0-1.0607.2929-.2929.7678-.2929 1.0607 0l.6197.6197v-2.8894c0-.4142.3358-.75.75-.75Z"/>
</svg>
