<svg xmlns="http://www.w3.org/2000/svg" viewBox="0 0 24 24" fill="currentColor">
  <path d="M3.75 7c0-1.88579 1.36421-3.25 3.25-3.25h1.25V7.5c0 1.21421 1.03579 2.25 2.25 2.25h3c1.2142 0 2.25-1.03579 2.25-2.25V3.75H17c1.7858 0 3.25 1.46421 3.25 3.25v10c0 1.7858-1.4642 3.25-3.25 3.25H7c-1.78579 0-3.25-1.4642-3.25-3.25V7Zm10.5-3.25h-4.5V7.5c0 .38579.3642.75.75.75h3c.3858 0 .75-.36421.75-.75V3.75ZM7 2.25C4.28579 2.25 2.25 4.28579 2.25 7v10c0 2.6142 2.13579 4.75 4.75 4.75h10c2.6142 0 4.75-2.1358 4.75-4.75V7c0-2.61421-2.1358-4.75-4.75-4.75H7Zm10.1303 10.3198c.2929.2929.2929.7677 0 1.0606l-2.0198 2.0198h.9894c.4142 0 .75.3358.75.75s-.3358.75-.75.75h-2.4c-.3788 0-.6536-.1976-.8107-.394-.1381-.1726-.2393-.4086-.2393-.656v-2.4c0-.4142.3358-.75.75-.75s.75.3358.75.75v.7893l1.9197-1.9197c.2929-.2929.7678-.2929 1.0607 0Z"/>
</svg>
