<svg width="24" height="24" viewBox="0 0 24 24" fill="none" xmlns="http://www.w3.org/2000/svg">
<path fill-rule="evenodd" clip-rule="evenodd" d="M3.75 7C3.75 5.11421 5.11421 3.75 7 3.75H8.25V7.5C8.25 8.71421 9.28579 9.75 10.5 9.75H13.5C14.7142 9.75 15.75 8.71421 15.75 7.5V3.75H17C18.7858 3.75 20.25 5.21421 20.25 7V17C20.25 18.7858 18.7858 20.25 17 20.25H7C5.21421 20.25 3.75 18.7858 3.75 17V7ZM14.25 3.75H9.75V7.5C9.75 7.88579 10.1142 8.25 10.5 8.25H13.5C13.8858 8.25 14.25 7.88579 14.25 7.5V3.75ZM7 2.25C4.28579 2.25 2.25 4.28579 2.25 7V17C2.25 19.6142 4.38579 21.75 7 21.75H17C19.6142 21.75 21.75 19.6142 21.75 17V7C21.75 4.38579 19.6142 2.25 17 2.25H7Z" fill="black"/>
</svg>
