<svg width="24" height="24" viewBox="0 0 24 24" fill="none" xmlns="http://www.w3.org/2000/svg">
<path fill-rule="evenodd" clip-rule="evenodd" d="M7.05005 3.80005C5.26426 3.80005 3.80005 5.26426 3.80005 7.05005V17.05C3.80005 18.8358 5.26426 20.3 7.05005 20.3H17.05C18.8358 20.3 20.3 18.8358 20.3 17.05V7.05005C20.3 5.17651 18.8482 3.80005 17.05 3.80005H15.8V7.55005C15.8 8.76426 14.7643 9.80005 13.55 9.80005H10.55C9.33584 9.80005 8.30005 8.76426 8.30005 7.55005V3.80005H7.05005ZM2.30005 7.05005C2.30005 4.43584 4.43584 2.30005 7.05005 2.30005H9.80005V7.55005C9.80005 7.93584 10.1643 8.30005 10.55 8.30005H13.55C13.9358 8.30005 14.3 7.93584 14.3 7.55005V2.30005H17.05C19.6519 2.30005 21.8 4.32359 21.8 7.05005V17.05C21.8 19.6643 19.6643 21.8 17.05 21.8H7.05005C4.43584 21.8 2.30005 19.6643 2.30005 17.05V7.05005Z" fill="black"/>
<path d="M15.05 3.05005V7.55005C15.05 8.35005 14.35 9.05005 13.55 9.05005H10.55C9.75005 9.05005 9.05005 8.35005 9.05005 7.55005V3.05005H15.05Z" fill="black"/>
<path fill-rule="evenodd" clip-rule="evenodd" d="M8.30005 2.30005H15.8V7.55005C15.8 8.76426 14.7643 9.80005 13.55 9.80005H10.55C9.33584 9.80005 8.30005 8.76426 8.30005 7.55005V2.30005ZM9.80005 3.80005V7.55005C9.80005 7.93584 10.1643 8.30005 10.55 8.30005H13.55C13.9358 8.30005 14.3 7.93584 14.3 7.55005V3.80005H9.80005Z" fill="black"/>
</svg>
