<svg xmlns="http://www.w3.org/2000/svg" viewBox="0 0 24 24" fill="currentColor">
  <path d="M4 2.05005c.41421 0 .75.33579.75.75V6.3501h2.53694C7.50285 5.04848 8.63895 4.05005 10 4.05005h8c1.5142 0 2.75 1.23579 2.75 2.75v1C20.75 9.31426 19.5142 10.55 18 10.55h-8c-1.4975 0-2.72268-1.2086-2.74955-2.6999H4.75V13.3c0 .6858.56421 1.25 1.25 1.25h1.26131c.12707-1.3979 1.30873-2.5 2.73869-2.5h8c1.5142 0 2.75 1.2358 2.75 2.75 0 .4143-.3358.75-.75.75s-.75-.3357-.75-.75c0-.6857-.5642-1.25-1.25-1.25h-8c-.68579 0-1.25.5643-1.25 1.25v1c0 .6858.56421 1.25 1.25 1.25.4142 0 .75.3358.75.75 0 .4143-.3358.75-.75.75-1.42996 0-2.61162-1.102-2.73869-2.5H6c-1.51421 0-2.75-1.2357-2.75-2.75V2.80005c0-.41421.33579-.75.75-.75ZM8.75 7.1001v.69995c0 .68579.56421 1.25 1.25 1.25h8c.6858 0 1.25-.56421 1.25-1.25v-1c0-.68579-.5642-1.25-1.25-1.25h-8c-.68579 0-1.25.56421-1.25 1.25v.30005Zm7.4 9.1999c0-.4142-.3358-.75-.75-.75s-.75.3358-.75.75v1.6501H13c-.4142 0-.75.3358-.75.75s.3358.75.75.75h1.65V21.2c0 .4143.3358.75.75.75s.75-.3357.75-.75v-1.7499h1.75c.4142 0 .75-.3358.75-.75s-.3358-.75-.75-.75h-1.75V16.3Z"/>
</svg>
