<svg xmlns="http://www.w3.org/2000/svg" viewBox="0 0 24 24" fill="currentColor">
  <path d="M4 2.44995c.41421 0 .75.33579.75.75V6.75h2.53694C7.50285 5.44838 8.63895 4.44995 10 4.44995h8c1.5142 0 2.75 1.23579 2.75 2.75v1C20.75 9.71416 19.5142 10.95 18 10.95h-8c-1.4975 0-2.72268-1.2087-2.74955-2.7H4.75v5.45c0 .6857.56421 1.25 1.25 1.25h1.26131c.12707-1.398 1.30873-2.5 2.73869-2.5h8c1.5142 0 2.75 1.2357 2.75 2.75 0 .4142-.3358.75-.75.75s-.75-.3358-.75-.75c0-.6858-.5642-1.25-1.25-1.25h-8c-.68579 0-1.25.5642-1.25 1.25v1c0 .6857.56421 1.25 1.25 1.25.4142 0 .75.3357.75.75 0 .4142-.3358.75-.75.75-1.42996 0-2.61162-1.1021-2.73869-2.5H6c-1.51421 0-2.75-1.2358-2.75-2.75V3.19995c0-.41421.33579-.75.75-.75ZM8.75 7.5v.69995c0 .68579.56421 1.25 1.25 1.25h8c.6858 0 1.25-.56421 1.25-1.25v-1c0-.68579-.5642-1.25-1.25-1.25h-8c-.68579 0-1.25.56421-1.25 1.25V7.5Zm8.8803 10.4302c.2929-.2929.2929-.7677 0-1.0606-.2929-.2929-.7678-.2929-1.0607 0L15.4 18.0392l-1.1697-1.1696c-.2929-.2929-.7678-.2929-1.0607 0-.2929.2929-.2929.7677 0 1.0606l1.1697 1.1697-1.1697 1.1697c-.2929.2929-.2929.7677 0 1.0606.2929.2929.7678.2929 1.0607 0L15.4 20.1606l1.1696 1.1696c.2929.2929.7678.2929 1.0607 0 .2929-.2929.2929-.7677 0-1.0606l-1.1697-1.1697 1.1697-1.1697Z"/>
</svg>
