<svg xmlns="http://www.w3.org/2000/svg" fill="none" viewBox="0 0 24 24">
  <path fill="#000" d="M18 11.5h-8c-1.1 0-2-.9-2-2v-1c0-1.1.9-2 2-2h8c1.1 0 2 .9 2 2v1c0 1.1-.9 2-2 2Z"/>
  <path fill="#000" fill-rule="evenodd" d="M10 7.25c-.686 0-1.25.564-1.25 1.25v1c0 .686.564 1.25 1.25 1.25h8c.686 0 1.25-.564 1.25-1.25v-1c0-.686-.564-1.25-1.25-1.25h-8ZM7.25 8.5A2.756 2.756 0 0 1 10 5.75h8a2.756 2.756 0 0 1 2.75 2.75v1A2.756 2.756 0 0 1 18 12.25h-8A2.756 2.756 0 0 1 7.25 9.5v-1Z" clip-rule="evenodd"/>
  <path fill="#000" d="M18 19.5h-8c-1.1 0-2-.9-2-2v-1c0-1.1.9-2 2-2h8c1.1 0 2 .9 2 2v1c0 1.1-.9 2-2 2Z"/>
  <path fill="#000" fill-rule="evenodd" d="M10 15.25c-.686 0-1.25.564-1.25 1.25v1c0 .686.564 1.25 1.25 1.25h8c.686 0 1.25-.564 1.25-1.25v-1c0-.686-.564-1.25-1.25-1.25h-8ZM7.25 16.5A2.756 2.756 0 0 1 10 13.75h8a2.756 2.756 0 0 1 2.75 2.75v1A2.756 2.756 0 0 1 18 20.25h-8a2.756 2.756 0 0 1-2.75-2.75v-1Z" clip-rule="evenodd"/>
  <path fill="#000" fill-rule="evenodd" d="M4 3.75a.75.75 0 0 1 .75.75V15c0 .686.564 1.25 1.25 1.25h2a.75.75 0 0 1 0 1.5H6A2.756 2.756 0 0 1 3.25 15V4.5A.75.75 0 0 1 4 3.75Z" clip-rule="evenodd"/>
  <path fill="#000" fill-rule="evenodd" d="M3.25 8.8A.75.75 0 0 1 4 8.05h4a.75.75 0 0 1 0 1.5H4a.75.75 0 0 1-.75-.75Z" clip-rule="evenodd"/>
</svg>
