<svg width="24" height="24" viewBox="0 0 24 24" fill="none" xmlns="http://www.w3.org/2000/svg">
<path fill-rule="evenodd" clip-rule="evenodd" d="M18.1384 16.8904C18.4267 17.1877 18.4194 17.6625 18.1221 17.9509L14.9164 21.0594C14.8469 21.1644 14.7564 21.2483 14.6602 21.3075C14.4829 21.4166 14.3035 21.4375 14.1875 21.4375C13.9582 21.4375 13.6815 21.3547 13.4696 21.1428L13.432 21.1051L12.2 19.4625C11.9514 19.1311 12.0186 18.661 12.35 18.4125C12.6813 18.1639 13.1514 18.2311 13.4 18.5625L14.2154 19.6497L17.0779 16.8741C17.3752 16.5857 17.85 16.593 18.1384 16.8904Z" fill="black"/>
<path d="M18 10.3125H10C8.9 10.3125 8 9.4125 8 8.3125V7.3125C8 6.2125 8.9 5.3125 10 5.3125H18C19.1 5.3125 20 6.2125 20 7.3125V8.3125C20 9.4125 19.1 10.3125 18 10.3125Z" fill="black"/>
<path fill-rule="evenodd" clip-rule="evenodd" d="M10 6.0625C9.31421 6.0625 8.75 6.62671 8.75 7.3125V8.3125C8.75 8.99829 9.31421 9.5625 10 9.5625H18C18.6858 9.5625 19.25 8.99829 19.25 8.3125V7.3125C19.25 6.62671 18.6858 6.0625 18 6.0625H10ZM7.25 7.3125C7.25 5.79829 8.48579 4.5625 10 4.5625H18C19.5142 4.5625 20.75 5.79829 20.75 7.3125V8.3125C20.75 9.82671 19.5142 11.0625 18 11.0625H10C8.48579 11.0625 7.25 9.82671 7.25 8.3125V7.3125Z" fill="black"/>
<path fill-rule="evenodd" clip-rule="evenodd" d="M10 14.0625C9.31421 14.0625 8.75 14.6267 8.75 15.3125V16.3125C8.75 16.9983 9.31421 17.5625 10 17.5625C10.4142 17.5625 10.75 17.8983 10.75 18.3125C10.75 18.7267 10.4142 19.0625 10 19.0625C8.48579 19.0625 7.25 17.8267 7.25 16.3125V15.3125C7.25 13.7983 8.48579 12.5625 10 12.5625H18C19.5142 12.5625 20.75 13.7983 20.75 15.3125C20.75 15.7267 20.4142 16.0625 20 16.0625C19.5858 16.0625 19.25 15.7267 19.25 15.3125C19.25 14.6267 18.6858 14.0625 18 14.0625H10Z" fill="black"/>
<path fill-rule="evenodd" clip-rule="evenodd" d="M4 2.5625C4.41421 2.5625 4.75 2.89829 4.75 3.3125V13.8125C4.75 14.4983 5.31421 15.0625 6 15.0625H8C8.41421 15.0625 8.75 15.3983 8.75 15.8125C8.75 16.2267 8.41421 16.5625 8 16.5625H6C4.48579 16.5625 3.25 15.3267 3.25 13.8125V3.3125C3.25 2.89829 3.58579 2.5625 4 2.5625Z" fill="black"/>
<path fill-rule="evenodd" clip-rule="evenodd" d="M3.25 7.61255C3.25 7.19834 3.58579 6.86255 4 6.86255H8C8.41421 6.86255 8.75 7.19834 8.75 7.61255C8.75 8.02676 8.41421 8.36255 8 8.36255H4C3.58579 8.36255 3.25 8.02676 3.25 7.61255Z" fill="black"/>
</svg>
