<svg xmlns="http://www.w3.org/2000/svg" fill="none" viewBox="0 0 24 24">
  <path fill="#000" fill-rule="evenodd" d="M17.63 16.87a.75.75 0 0 1 0 1.06l-3.4 3.4a.75.75 0 1 1-1.06-1.06l3.4-3.4a.75.75 0 0 1 1.06 0Z" clip-rule="evenodd"/>
  <path fill="#000" fill-rule="evenodd" d="M13.17 16.87a.75.75 0 0 1 1.06 0l3.4 3.4a.75.75 0 1 1-1.06 1.06l-3.4-3.4a.75.75 0 0 1 0-1.06Z" clip-rule="evenodd"/>
  <path fill="#000" d="M18 10.2h-8c-1.1 0-2-.9-2-2v-1c0-1.1.9-2 2-2h8c1.1 0 2 .9 2 2v1c0 1.1-.9 2-2 2Z"/>
  <path fill="#000" fill-rule="evenodd" d="M10 5.95c-.686 0-1.25.564-1.25 1.25v1c0 .686.564 1.25 1.25 1.25h8c.686 0 1.25-.564 1.25-1.25v-1c0-.686-.564-1.25-1.25-1.25h-8ZM7.25 7.2A2.756 2.756 0 0 1 10 4.45h8a2.756 2.756 0 0 1 2.75 2.75v1A2.756 2.756 0 0 1 18 10.95h-8A2.756 2.756 0 0 1 7.25 8.2v-1ZM10 13.95c-.686 0-1.25.564-1.25 1.25v1c0 .686.564 1.25 1.25 1.25a.75.75 0 1 1 0 1.5 2.756 2.756 0 0 1-2.75-2.75v-1A2.756 2.756 0 0 1 10 12.45h8a2.756 2.756 0 0 1 2.75 2.75.75.75 0 0 1-1.5 0c0-.686-.564-1.25-1.25-1.25h-8Z" clip-rule="evenodd"/>
  <path fill="#000" fill-rule="evenodd" d="M4 2.45a.75.75 0 0 1 .75.75v10.5c0 .686.564 1.25 1.25 1.25h2a.75.75 0 1 1 0 1.5H6a2.756 2.756 0 0 1-2.75-2.75V3.2A.75.75 0 0 1 4 2.45Z" clip-rule="evenodd"/>
  <path fill="#000" fill-rule="evenodd" d="M3.25 7.5A.75.75 0 0 1 4 6.75h4a.75.75 0 0 1 0 1.5H4a.75.75 0 0 1-.75-.75Z" clip-rule="evenodd"/>
</svg>
