<svg xmlns="http://www.w3.org/2000/svg" viewBox="0 0 24 24" fill="currentColor">
  <path d="M4 2.5625c.41421 0 .75.33579.75.75v3.55005h2.53694C7.50285 5.56093 8.63895 4.5625 10 4.5625h8c1.5142 0 2.75 1.23579 2.75 2.75v1c0 1.51421-1.2358 2.75-2.75 2.75h-8c-1.4975 0-2.72268-1.20865-2.74955-2.69995H4.75v5.44995c0 .6858.56421 1.25 1.25 1.25h1.26131c.12707-1.3979 1.30873-2.5 2.73869-2.5h8c1.5142 0 2.75 1.2358 2.75 2.75 0 .4142-.3358.75-.75.75s-.75-.3358-.75-.75c0-.6858-.5642-1.25-1.25-1.25h-8c-.68579 0-1.25.5642-1.25 1.25v1c0 .6858.56421 1.25 1.25 1.25.4142 0 .75.3358.75.75s-.3358.75-.75.75c-1.42996 0-2.61162-1.1021-2.73869-2.5H6c-1.51421 0-2.75-1.2358-2.75-2.75v-10.5c0-.41421.33579-.75.75-.75Zm4.75 5.05005v.69995c0 .68579.56421 1.25 1.25 1.25h8c.6858 0 1.25-.56421 1.25-1.25v-1c0-.68579-.5642-1.25-1.25-1.25h-8c-.68579 0-1.25.56421-1.25 1.25v.30005Zm9.3883 9.27795c.2884.2974.2811.7722-.0163 1.0605l-3.2057 3.1086c-.0695.105-.16.1889-.2562.248-.1773.1091-.3567.13-.4727.13-.2292 0-.506-.0828-.7178-.2947l-.0377-.0377-1.232-1.6426c-.2485-.3314-.1814-.8015.15-1.05.3314-.2485.8015-.1814 1.05.15l.8155 1.0873 2.8624-2.7757c.2974-.2884.7722-.2811 1.0605.0163Z"/>
</svg>
