<svg xmlns="http://www.w3.org/2000/svg" viewBox="0 0 24 24" fill="currentColor">
  <path d="M4 3.75c.41421 0 .75.33579.75.75v3.55005h2.53694C7.50285 6.74843 8.63895 5.75 10 5.75h8c1.5142 0 2.75 1.23579 2.75 2.75v1c0 1.5142-1.2358 2.75-2.75 2.75h-8c-1.4975 0-2.72268-1.2087-2.74955-2.69995H4.75V15c0 .6858.56421 1.25 1.25 1.25h1.26131c.12707-1.3979 1.30873-2.5 2.73869-2.5h8c1.5142 0 2.75 1.2358 2.75 2.75v1c0 1.5142-1.2358 2.75-2.75 2.75h-8c-1.42996 0-2.61162-1.1021-2.73869-2.5H6c-1.51421 0-2.75-1.2358-2.75-2.75V4.5c0-.41421.33579-.75.75-.75Zm4.75 5.05005V9.5c0 .6858.56421 1.25 1.25 1.25h8c.6858 0 1.25-.5642 1.25-1.25v-1c0-.68579-.5642-1.25-1.25-1.25h-8c-.68579 0-1.25.56421-1.25 1.25v.30005Zm0 8.69995v-1c0-.6858.56421-1.25 1.25-1.25h8c.6858 0 1.25.5642 1.25 1.25v1c0 .6858-.5642 1.25-1.25 1.25h-8c-.68579 0-1.25-.5642-1.25-1.25Z"/>
</svg>
