<svg xmlns="http://www.w3.org/2000/svg" fill="none" viewBox="0 0 24 24">
  <path fill="#000" fill-rule="evenodd" d="M4 2.45a.75.75 0 0 1 .75.75v3.55h2.537A2.758 2.758 0 0 1 10 4.45h8a2.756 2.756 0 0 1 2.75 2.75v1A2.756 2.756 0 0 1 18 10.95h-8a2.756 2.756 0 0 1-2.75-2.7h-2.5v5.45c0 .686.564 1.25 1.25 1.25h1.261A2.757 2.757 0 0 1 10 12.45h8a2.756 2.756 0 0 1 2.75 2.75.75.75 0 0 1-1.5 0c0-.686-.564-1.25-1.25-1.25h-8c-.686 0-1.25.564-1.25 1.25v1c0 .686.564 1.25 1.25 1.25a.75.75 0 1 1 0 1.5 2.757 2.757 0 0 1-2.739-2.5H6a2.756 2.756 0 0 1-2.75-2.75V3.2A.75.75 0 0 1 4 2.45ZM8.75 7.5v.7c0 .686.564 1.25 1.25 1.25h8c.686 0 1.25-.564 1.25-1.25v-1c0-.686-.564-1.25-1.25-1.25h-8c-.686 0-1.25.564-1.25 1.25v.3Zm8.88 10.43a.75.75 0 1 0-1.06-1.06l-1.17 1.17-1.17-1.17a.75.75 0 0 0-1.06 1.06l1.17 1.17-1.17 1.17a.75.75 0 1 0 1.06 1.06l1.17-1.17 1.17 1.17a.75.75 0 0 0 1.06-1.06l-1.17-1.17 1.17-1.17Z" clip-rule="evenodd"/>
</svg>
