<svg xmlns="http://www.w3.org/2000/svg" viewBox="0 0 24 24" fill="currentColor">
  <path d="M12 3.25c-3.44559 0-6.25 2.92287-6.25 6.65002V14.1c0 3.7272 2.8044 6.65 6.25 6.65 3.346 0 6.25-3.0232 6.25-6.65V9.90002C18.25 6.17287 15.4456 3.25 12 3.25Zm-7.74873 11c.07492 4.4048 3.4431 8 7.74873 8 4.2053 0 7.6698-3.6907 7.7486-8H21c.4142 0 .75-.3358.75-.75s-.3358-.75-.75-.75h-1.25v-1.5H21c.4142 0 .75-.3358.75-.75s-.3358-.75-.75-.75h-1.2513c-.0749-4.40475-3.4431-8-7.7487-8-4.30562 0-7.6738 3.59525-7.74872 8H3c-.41421 0-.75.3358-.75.75s.33579.75.75.75h1.25v1.5H3c-.41421 0-.75.3358-.75.75s.33579.75.75.75h1.25127ZM8.25 10c0-.41421.33579-.75.75-.75h6c.4142 0 .75.33579.75.75 0 .4142-.3358.75-.75.75H9c-.41421 0-.75-.3358-.75-.75ZM9 13.25c-.41421 0-.75.3358-.75.75s.33579.75.75.75h6c.4142 0 .75-.3358.75-.75s-.3358-.75-.75-.75H9Z"/>
</svg>
