<svg xmlns="http://www.w3.org/2000/svg" viewBox="0 0 24 24" fill="currentColor">
  <path d="M12 2.5c-4.31421 0-7.75 3.43579-7.75 7.75 0 2.2133.91534 4.1486 2.31778 5.5555-.13916.2894-.21768.6102-.21768.9445 0 1.2142 1.03578 2.25 2.25 2.25h.33453c.33267 1.4445 1.60997 2.5 3.16547 2.5s2.8328-1.0555 3.1655-2.5h.3345c1.2142 0 2.25-1.0358 2.25-2.25 0-.3868-.1051-.7554-.2876-1.0782C18.8911 14.2771 19.75 12.394 19.75 10.25c0-4.31421-3.4358-7.75-7.75-7.75ZM13.6888 19c-.2746.5975-.8733 1-1.5887 1s-1.3141-.4025-1.5887-1h3.1774Zm.9113-1.5h1c.3858 0 .75-.3642.75-.75s-.3642-.75-.75-.75h-7c-.38579 0-.75.3642-.75.75s.36421.75.75.75h6Zm-6-3c-.34842 0-.68216.0853-.98094.2356C6.4788 13.5869 5.75 12.026 5.75 10.25 5.75 6.76421 8.51421 4 12 4c3.4858 0 6.25 2.76421 6.25 6.25 0 1.7435-.7023 3.2795-1.8068 4.422-.2622-.1105-.5474-.172-.8431-.172h-7Zm.34985-5.85002c0-.88578.66423-1.55 1.55005-1.55.4142 0 .75-.33579.75-.75 0-.41422-.3358-.75-.75-.75-1.71424 0-3.05005 1.33577-3.05005 3.05 0 .41421.33579.75.75.75s.75-.33579.75-.75Z"/>
</svg>
