<svg xmlns="http://www.w3.org/2000/svg" viewBox="0 0 24 24" fill="currentColor">
  <path d="M12 3.75c-4.55635 0-8.25 3.69365-8.25 8.25 0 4.5563 3.69365 8.25 8.25 8.25 4.5563 0 8.25-3.6937 8.25-8.25 0-4.55635-3.6937-8.25-8.25-8.25ZM2.25 12c0-5.38478 4.36522-9.75 9.75-9.75 5.3848 0 9.75 4.36522 9.75 9.75 0 5.3848-4.3652 9.75-9.75 9.75-5.38478 0-9.75-4.3652-9.75-9.75ZM12 6.75c-2.8995 0-5.25 2.3505-5.25 5.25s2.3505 5.25 5.25 5.25 5.25-2.3505 5.25-5.25S14.8995 6.75 12 6.75ZM5.25 12c0-3.72792 3.02208-6.75 6.75-6.75 3.7279 0 6.75 3.02208 6.75 6.75 0 3.7279-3.0221 6.75-6.75 6.75-3.72792 0-6.75-3.0221-6.75-6.75Zm4.5 0c0-1.2426 1.0074-2.25 2.25-2.25s2.25 1.0074 2.25 2.25-1.0074 2.25-2.25 2.25S9.75 13.2426 9.75 12ZM12 8.25c-2.07107 0-3.75 1.67893-3.75 3.75 0 2.0711 1.67893 3.75 3.75 3.75 2.0711 0 3.75-1.6789 3.75-3.75 0-2.07107-1.6789-3.75-3.75-3.75Z"/>
</svg>
