<svg width="24" height="24" viewBox="0 0 24 24" fill="none" xmlns="http://www.w3.org/2000/svg">
<path fill-rule="evenodd" clip-rule="evenodd" d="M4.89999 9.19995C4.21421 9.19995 3.64999 9.76416 3.64999 10.45V17.15C3.64999 17.8357 4.21421 18.4 4.89999 18.4H19.1C19.7858 18.4 20.35 17.8357 20.35 17.15V10.45C20.35 9.78793 19.8099 9.19995 19 9.19995H4.89999ZM2.14999 10.45C2.14999 8.93574 3.38578 7.69995 4.89999 7.69995H19C20.59 7.69995 21.85 8.91197 21.85 10.45V17.15C21.85 18.6642 20.6142 19.9 19.1 19.9H4.89999C3.38578 19.9 2.14999 18.6642 2.14999 17.15V10.45Z" fill="black"/>
<path fill-rule="evenodd" clip-rule="evenodd" d="M6.89999 11.3C7.3142 11.3 7.64999 11.6358 7.64999 12.05C7.64999 13.5643 6.4142 14.8 4.89999 14.8C3.6291 14.8 2.68554 13.9475 2.29774 12.9134C2.1523 12.5256 2.34881 12.0932 2.73665 11.9478C3.12449 11.8024 3.5568 11.9989 3.70224 12.3867C3.91444 12.9526 4.37088 13.3 4.89999 13.3C5.58578 13.3 6.14999 12.7358 6.14999 12.05C6.14999 11.6358 6.48578 11.3 6.89999 11.3Z" fill="black"/>
<path fill-rule="evenodd" clip-rule="evenodd" d="M7 11.2C7.41421 11.2 7.75 11.5357 7.75 11.95V13.45C7.75 14.1357 8.31421 14.7 9 14.7C9.68579 14.7 10.25 14.1357 10.25 13.45V12.35C10.25 11.9357 10.5858 11.6 11 11.6C11.4142 11.6 11.75 11.9357 11.75 12.35V13.45C11.75 14.9642 10.5142 16.2 9 16.2C7.48579 16.2 6.25 14.9642 6.25 13.45V11.95C6.25 11.5357 6.58579 11.2 7 11.2Z" fill="black"/>
<path fill-rule="evenodd" clip-rule="evenodd" d="M11 11.5999C11.4142 11.5999 11.75 11.9356 11.75 12.3499C11.75 13.0356 12.3142 13.5999 13 13.5999C13.6858 13.5999 14.25 13.0356 14.25 12.3499C14.25 11.9356 14.5858 11.5999 15 11.5999C15.4142 11.5999 15.75 11.9356 15.75 12.3499C15.75 13.8641 14.5142 15.0999 13 15.0999C11.4858 15.0999 10.25 13.8641 10.25 12.3499C10.25 11.9356 10.5858 11.5999 11 11.5999Z" fill="black"/>
<path fill-rule="evenodd" clip-rule="evenodd" d="M15.1 11.5999C15.5142 11.5999 15.85 11.9356 15.85 12.3499V13.8499C15.85 14.5356 16.4142 15.0999 17.1 15.0999C17.7858 15.0999 18.35 14.5356 18.35 13.8499V12.9499C18.35 12.5356 18.6858 12.1999 19.1 12.1999C19.5142 12.1999 19.85 12.5356 19.85 12.9499V13.8499C19.85 15.3641 18.6142 16.5999 17.1 16.5999C15.5858 16.5999 14.35 15.3641 14.35 13.8499V12.3499C14.35 11.9356 14.6858 11.5999 15.1 11.5999Z" fill="black"/>
<path fill-rule="evenodd" clip-rule="evenodd" d="M19.0373 12.1179C19.4416 12.028 19.8423 12.283 19.9321 12.6873C20.0517 13.2255 20.5321 13.6 21.1 13.6C21.5142 13.6 21.85 13.9358 21.85 14.35C21.85 14.7642 21.5142 15.1 21.1 15.1C19.8679 15.1 18.7482 14.2745 18.4678 13.0127C18.378 12.6084 18.6329 12.2077 19.0373 12.1179Z" fill="black"/>
<path fill-rule="evenodd" clip-rule="evenodd" d="M7.69998 4.19995C8.1142 4.19995 8.44998 4.53574 8.44998 4.94995V8.44995C8.44998 8.86416 8.1142 9.19995 7.69998 9.19995C7.28577 9.19995 6.94998 8.86416 6.94998 8.44995V4.94995C6.94998 4.53574 7.28577 4.19995 7.69998 4.19995Z" fill="black"/>
<path fill-rule="evenodd" clip-rule="evenodd" d="M16.3 4.19995C16.7142 4.19995 17.05 4.53574 17.05 4.94995V8.44995C17.05 8.86416 16.7142 9.19995 16.3 9.19995C15.8858 9.19995 15.55 8.86416 15.55 8.44995V4.94995C15.55 4.53574 15.8858 4.19995 16.3 4.19995Z" fill="black"/>
</svg>
