<svg xmlns="http://www.w3.org/2000/svg" viewBox="0 0 60 60">
  <path d="M41.975 56.175h-23.95c-2.8028-.0329-5.4797-1.1694-7.45-3.1632C8.60468 51.0181 7.49981 48.328 7.5 45.525v-31.05c-.00019-2.803 1.10468-5.49312 3.075-7.48682 1.9703-1.99371 4.6472-3.13027 7.45-3.16317h23.95c2.8246 0 5.5334 1.12205 7.5307 3.11932 1.9972 1.99726 3.1193 4.70617 3.1193 7.53067v31.05c0 2.8246-1.1221 5.5334-3.1193 7.5307-1.9973 1.9973-4.7061 3.1193-7.5307 3.1193ZM18.025 8.82501c-1.4767.03268-2.8819.64234-3.9146 1.69839-1.0327 1.0561-1.6108 2.4745-1.6104 3.9516v31.05c0 1.4985.5953 2.9356 1.6548 3.9952 1.0596 1.0595 2.4967 1.6548 3.9952 1.6548H42.1c.742 0 1.4767-.1461 2.1622-.4301.6855-.2839 1.3083-.7001 1.833-1.2247.5246-.5247.9408-1.1475 1.2247-1.833.284-.6855.4301-1.4202.4301-2.1622v-31.05c0-1.4985-.5953-2.9356-1.6548-3.9951-1.0596-1.05962-2.4967-1.65489-3.9952-1.65489H18.025Z"/>
  <path d="M41.825 30.125h-23.65c-.663 0-1.2989-.2634-1.7677-.7322-.4689-.4689-.7323-1.1048-.7323-1.7678v-14.2c0-.6631.2634-1.2989.7323-1.7678.4688-.4688 1.1047-.7322 1.7677-.7322h23.65c.6631 0 1.299.2634 1.7678.7322.4689.4689.7322 1.1047.7322 1.7678v14.2c0 .663-.2633 1.2989-.7322 1.7678-.4688.4688-1.1047.7322-1.7678.7322Zm-21.15-5h18.65v-9.2h-18.65v9.2ZM39.8 32.3751h-3.05c-1.1184 0-2.025.9066-2.025 2.025v10.15c0 1.1183.9066 2.025 2.025 2.025h3.05c1.1183 0 2.025-.9067 2.025-2.025v-10.15c0-1.1184-.9067-2.025-2.025-2.025Zm-15.5499.85v4.275c0 .5-.775.875-1.725.875h-2.525c-.95 0-1.725-.375-1.725-.875v-4.275c0-.475.775-.85 1.725-.85h2.5c.975.125 1.75.375 1.75.85Zm0 8.1249v4.35c0 .475-.775.875-1.725.875h-2.525c-.95 0-1.725-.4-1.725-.875v-4.35c0-.475.775-.875 1.725-.875h2.5c.975 0 1.75.4 1.75.875Zm8.2499 0v4.35c0 .475-.775.875-1.75.875h-2.5c-.975 0-1.75-.4-1.75-.875v-4.35c0-.475.775-.875 1.75-.875h2.5c.85 0 1.75.4 1.75.875Zm0-8.1249v4.275c0 .5-.775.875-1.75.875h-2.5c-.975 0-1.75-.375-1.75-.875v-4.275c0-.475.775-.85 1.75-.85h2.5c.85.125 1.75.375 1.75.85Z"/>
</svg>
