<svg xmlns="http://www.w3.org/2000/svg" viewBox="0 0 24 24" fill="currentColor">
  <path d="M8.75 3c0-.41421-.33579-.75-.75-.75s-.75.33579-.75.75v1.30946c-2.26066.36187-4 2.33139-4 4.69054v8c0 2.6019 2.02354 4.75 4.75 4.75h8c2.6142 0 4.75-2.1358 4.75-4.75V9c0-2.35915-1.7393-4.32867-4-4.69054V3c0-.41421-.3358-.75-.75-.75s-.75.33579-.75.75v1.25h-6.5V3Zm6.5 4V5.75h-6.5V7c0 .41421-.33579.75-.75.75s-.75-.33579-.75-.75V5.83814C5.8219 6.17954 4.75 7.47206 4.75 9v8c0 1.7981 1.37646 3.25 3.25 3.25h8c1.7858 0 3.25-1.4642 3.25-3.25V9c0-1.52794-1.0719-2.82046-2.5-3.16186V7c0 .41421-.3358.75-.75.75s-.75-.33579-.75-.75ZM8 10.25c-.41421 0-.75.3358-.75.75s.33579.75.75.75h8c.4142 0 .75-.3358.75-.75s-.3358-.75-.75-.75H8Z"/>
</svg>
