<svg width="24" height="24" viewBox="0 0 24 24" fill="none" xmlns="http://www.w3.org/2000/svg">
<path d="M19.5 8.46252V9.46252H3.5V8.46252C3.5 6.26252 5.3 4.46252 7.5 4.46252H15.5C17.7 4.46252 19.5 6.16252 19.5 8.46252Z" fill="black"/>
<path fill-rule="evenodd" clip-rule="evenodd" d="M7.5 5.21252C5.71421 5.21252 4.25 6.67674 4.25 8.46252V8.71252H18.75V8.46252C18.75 6.58898 17.2981 5.21252 15.5 5.21252H7.5ZM2.75 8.46252C2.75 5.84831 4.88579 3.71252 7.5 3.71252H15.5C18.1019 3.71252 20.25 5.73607 20.25 8.46252V10.2125H2.75V8.46252Z" fill="black"/>
<path fill-rule="evenodd" clip-rule="evenodd" d="M3.5 8.71252C3.91421 8.71252 4.25 9.04831 4.25 9.46252V16.4625C4.25 18.2483 5.71421 19.7125 7.5 19.7125H11.5C11.9142 19.7125 12.25 20.0483 12.25 20.4625C12.25 20.8767 11.9142 21.2125 11.5 21.2125H7.5C4.88579 21.2125 2.75 19.0767 2.75 16.4625V9.46252C2.75 9.04831 3.08579 8.71252 3.5 8.71252Z" fill="black"/>
<path fill-rule="evenodd" clip-rule="evenodd" d="M19.5 8.71252C19.9142 8.71252 20.25 9.04831 20.25 9.46252V14.4625C20.25 14.8767 19.9142 15.2125 19.5 15.2125C19.0858 15.2125 18.75 14.8767 18.75 14.4625V9.46252C18.75 9.04831 19.0858 8.71252 19.5 8.71252Z" fill="black"/>
<path fill-rule="evenodd" clip-rule="evenodd" d="M7.5 1.71252C7.91421 1.71252 8.25 2.04831 8.25 2.46252V6.46252C8.25 6.87674 7.91421 7.21252 7.5 7.21252C7.08579 7.21252 6.75 6.87674 6.75 6.46252V2.46252C6.75 2.04831 7.08579 1.71252 7.5 1.71252Z" fill="black"/>
<path fill-rule="evenodd" clip-rule="evenodd" d="M15.5 1.71252C15.9142 1.71252 16.25 2.04831 16.25 2.46252V6.46252C16.25 6.87674 15.9142 7.21252 15.5 7.21252C15.0858 7.21252 14.75 6.87674 14.75 6.46252V2.46252C14.75 2.04831 15.0858 1.71252 15.5 1.71252Z" fill="black"/>
<path fill-rule="evenodd" clip-rule="evenodd" d="M21.0369 16.9388C21.3261 17.2353 21.3203 17.7101 21.0238 17.9994L16.926 21.9972C16.7042 22.2163 16.4224 22.2875 16.2 22.2875C15.9762 22.2875 15.6922 22.2153 15.4697 21.9929L15.432 21.9552L13.9 19.9125C13.6515 19.5812 13.7187 19.1111 14.05 18.8625C14.3814 18.614 14.8515 18.6812 15.1 19.0125L16.2566 20.5546L19.9763 16.9257C20.2728 16.6364 20.7476 16.6423 21.0369 16.9388Z" fill="black"/>
</svg>
