<svg xmlns="http://www.w3.org/2000/svg" viewBox="0 0 24 24" fill="currentColor">
  <path d="M8 2.25c.41421 0 .75.33579.75.75v1.25h6.5V3c0-.41421.3358-.75.75-.75s.75.33579.75.75v1.30946c2.2607.36187 4 2.33139 4 4.69054v8c0 2.6142-2.1358 4.75-4.75 4.75H8c-2.72646 0-4.75-2.1481-4.75-4.75V9c0-2.35915 1.73934-4.32867 4-4.69054V3c0-.41421.33579-.75.75-.75Zm7.25 3.5V7c0 .41421.3358.75.75.75s.75-.33579.75-.75V5.83814c1.4281.3414 2.5 1.63392 2.5 3.16186v8c0 1.7858-1.4642 3.25-3.25 3.25H8c-1.87354 0-3.25-1.4519-3.25-3.25V9c0-1.52794 1.0719-2.82046 2.5-3.16186V7c0 .41421.33579.75.75.75s.75-.33579.75-.75V5.75h6.5Zm-1.8804 4.8196c.2929-.2928.7677-.2928 1.0606 0l1.4 1.4c.2705.2706.4447.6297.4447 1.0304 0 .4007-.1742.7598-.4447 1.0303l-1.4 1.4c-.2929.2929-.7677.2929-1.0606 0-.2929-.2929-.2929-.7678 0-1.0607L14.7392 13l-1.3696-1.3697c-.2929-.2929-.2929-.7678 0-1.0607Zm-2.6393.1c.2929.2929.2929.7678 0 1.0607L9.36061 13.1l1.36969 1.3696c.2929.2929.2929.7678 0 1.0607-.2929.2929-.76778.2929-1.06068 0l-1.4-1.4c-.27052-.2705-.44467-.6297-.44467-1.0303 0-.4007.17415-.7599.44467-1.0304l1.4-1.4c.2929-.2929.76778-.2929 1.06068 0Zm-1.40002 2.4c-.01124-.0112-.01505-.0176-.0152-.0179l.00148.003c.0021.0047.00468.0123.00642.0222l.0073-.0073Z"/>
</svg>
