<svg xmlns="http://www.w3.org/2000/svg" fill="none" viewBox="0 0 24 24">
  <path fill="#000" fill-rule="evenodd" d="M8.75 3a.75.75 0 0 0-1.5 0v1.31c-2.26.361-4 2.33-4 4.69v8A4.762 4.762 0 0 0 8 21.75h4a.75.75 0 0 0 0-1.5H8A3.262 3.262 0 0 1 4.75 17v-6.25h14.5V15a.75.75 0 0 0 1.5 0V9c0-2.36-1.74-4.329-4-4.69V3a.75.75 0 0 0-1.5 0v1.25h-6.5V3Zm10.5 6.25V9a3.266 3.266 0 0 0-2.5-3.162V7a.75.75 0 0 1-1.5 0V5.75h-6.5V7a.75.75 0 0 1-1.5 0V5.838A3.266 3.266 0 0 0 4.75 9v.25h14.5ZM16.75 15a.75.75 0 0 0-1.5 0v2.25H13a.75.75 0 0 0 0 1.5h2.25V21a.75.75 0 0 0 1.5 0v-2.25H19a.75.75 0 0 0 0-1.5h-2.25V15Z" clip-rule="evenodd"/>
</svg>
