<svg xmlns="http://www.w3.org/2000/svg" viewBox="0 0 24 24" fill="currentColor">
  <path d="M8 2.25c.41421 0 .75.33579.75.75v1.25h6.5V3c0-.41421.3358-.75.75-.75s.75.33579.75.75v1.30946c2.2607.36187 4 2.33139 4 4.69054v8c0 2.6142-2.1358 4.75-4.75 4.75H8c-2.72646 0-4.75-2.1481-4.75-4.75V9c0-2.35915 1.73934-4.32867 4-4.69054V3c0-.41421.33579-.75.75-.75Zm7.75 18H16c1.7858 0 3.25-1.4642 3.25-3.25v-1.25h-3.5v4.5Zm-1.5-4.5v4.5h-4.5v-4.5h4.5Zm1.5-1.5h3.5v-3.5h-3.5v3.5Zm-1.5-3.5v3.5h-4.5v-3.5h4.5Zm.75-1.5h4.25V9c0-1.52794-1.0719-2.82046-2.5-3.16186V7c0 .41421-.3358.75-.75.75s-.75-.33579-.75-.75V5.75h-6.5V7c0 .41421-.33579.75-.75.75s-.75-.33579-.75-.75V5.83814C5.8219 6.17954 4.75 7.47206 4.75 9v.25H15Zm-6.75 11v-4.5h-3.5V17c0 1.7981 1.37646 3.25 3.25 3.25h.25Zm0-6v-3.5h-3.5v3.5h3.5Z"/>
</svg>
