<svg width="24" height="24" fill="none" xmlns="http://www.w3.org/2000/svg"><path fill="#fff" d="M0 0h24v24H0z"/><path d="M4 17V9c0-2.2 1.8-4 4-4h8c2.2 0 4 1.8 4 4v8c0 2.2-1.8 4-4 4H8c-2.3 0-4-1.8-4-4z" stroke="#000" stroke-width="1.5" stroke-miterlimit="10"/><path d="M8 7V3M16 7V3" stroke="#000" stroke-width="1.5" stroke-miterlimit="10" stroke-linecap="round"/><path d="M8.5 13c.82843 0 1.5-.6716 1.5-1.5S9.32843 10 8.5 10 7 10.6716 7 11.5 7.67157 13 8.5 13z" stroke="#000" stroke-width="1.5" stroke-miterlimit="10"/></svg>