<svg xmlns="http://www.w3.org/2000/svg" fill="none" viewBox="0 0 24 24">
  <path fill="#000" fill-rule="evenodd" d="M8 2.25a.75.75 0 0 1 .75.75v1.25h6.5V3a.75.75 0 0 1 1.5 0v1.31c2.26.361 4 2.33 4 4.69v8A4.762 4.762 0 0 1 16 21.75H8c-2.726 0-4.75-2.148-4.75-4.75V9c0-2.36 1.74-4.329 4-4.69V3A.75.75 0 0 1 8 2.25ZM19.25 9v.25H4.75V9a3.266 3.266 0 0 1 2.5-3.162V7a.75.75 0 0 0 1.5 0V5.75h6.5V7a.75.75 0 0 0 1.5 0V5.838A3.266 3.266 0 0 1 19.25 9Zm0 1.75H4.75V17c0 1.798 1.376 3.25 3.25 3.25h8A3.262 3.262 0 0 0 19.25 17v-6.25Zm-11 3.75a.75.75 0 1 1 1.5 0 .75.75 0 0 1-1.5 0ZM9 12.25a2.25 2.25 0 1 0 0 4.5 2.25 2.25 0 0 0 0-4.5Z" clip-rule="evenodd"/>
</svg>
