<svg xmlns="http://www.w3.org/2000/svg" viewBox="0 0 24 24" fill="currentColor">
  <path d="M8.20007 2.45001c0-.41421-.33578-.75-.75-.75-.41421 0-.75.33579-.75.75v1.30946c-2.26065.36187-4 2.3314-4 4.69054V16.45c0 2.6142 2.13579 4.75 4.75 4.75h4.00003c.4142 0 .75-.3358.75-.75s-.3358-.75-.75-.75H7.45007c-1.78578 0-3.25-1.4642-3.25-3.25V10.2H18.7001v4.25c0 .4142.3358.75.75.75s.75-.3358.75-.75V8.45001c0-2.35914-1.7394-4.32867-4-4.69054V2.45001c0-.41421-.3358-.75-.75-.75s-.75.33579-.75.75v1.25H8.20007v-1.25Zm10.50003 6.25v-.25c0-1.52793-1.0719-2.82046-2.5-3.16186v1.16186c0 .41422-.3358.75-.75.75s-.75-.33578-.75-.75v-1.25H8.20007v1.25c0 .41422-.33578.75-.75.75-.41421 0-.75-.33578-.75-.75V5.28815c-1.42809.3414-2.5 1.63393-2.5 3.16186v.25H18.7001Zm2.3802 9.08029c.2929-.2929.2929-.7678 0-1.0607-.2929-.2929-.7678-.2929-1.0606 0L18.4 18.3393l-1.6197-1.6197c-.2929-.2929-.7677-.2929-1.0606 0-.2929.2929-.2929.7678 0 1.0607L17.3393 19.4l-1.6196 1.6197c-.2929.2929-.2929.7677 0 1.0606.2929.2929.7677.2929 1.0606 0L18.4 20.4606l1.6197 1.6197c.2928.2929.7677.2929 1.0606 0 .2929-.2929.2929-.7677 0-1.0606L19.4606 19.4l1.6197-1.6197Z"/>
</svg>
