<svg xmlns="http://www.w3.org/2000/svg" fill="none" viewBox="0 0 24 24">
  <path fill="#000" fill-rule="evenodd" d="M16 14.25a.75.75 0 0 1 .75.75v6a.75.75 0 0 1-1.5 0v-6a.75.75 0 0 1 .75-.75Z" clip-rule="evenodd"/>
  <path fill="#000" fill-rule="evenodd" d="M12.25 18a.75.75 0 0 1 .75-.75h6a.75.75 0 0 1 0 1.5h-6a.75.75 0 0 1-.75-.75Z" clip-rule="evenodd"/>
  <path fill="#000" d="M20 9v1H4V9c0-2.2 1.8-4 4-4h8c2.2 0 4 1.7 4 4Z"/>
  <path fill="#000" fill-rule="evenodd" d="M8 5.75A3.262 3.262 0 0 0 4.75 9v.25h14.5V9c0-1.874-1.452-3.25-3.25-3.25H8ZM3.25 9A4.762 4.762 0 0 1 8 4.25h8c2.602 0 4.75 2.024 4.75 4.75v1.75H3.25V9Z" clip-rule="evenodd"/>
  <path fill="#000" fill-rule="evenodd" d="M4 9.25a.75.75 0 0 1 .75.75v7A3.262 3.262 0 0 0 8 20.25h4a.75.75 0 0 1 0 1.5H8A4.762 4.762 0 0 1 3.25 17v-7A.75.75 0 0 1 4 9.25Zm16 0a.75.75 0 0 1 .75.75v5a.75.75 0 0 1-1.5 0v-5a.75.75 0 0 1 .75-.75Zm-12-7a.75.75 0 0 1 .75.75v4a.75.75 0 0 1-1.5 0V3A.75.75 0 0 1 8 2.25Zm8 0a.75.75 0 0 1 .75.75v4a.75.75 0 0 1-1.5 0V3a.75.75 0 0 1 .75-.75Z" clip-rule="evenodd"/>
</svg>
