<svg xmlns="http://www.w3.org/2000/svg" viewBox="0 0 24 24" fill="currentColor">
  <path d="M8.75 3c0-.41421-.33579-.75-.75-.75s-.75.33579-.75.75v1.30946c-2.26066.36187-4 2.33139-4 4.69054v8c0 2.6019 2.02354 4.75 4.75 4.75h8c2.6142 0 4.75-2.1358 4.75-4.75V9c0-2.35915-1.7393-4.32867-4-4.69054V3c0-.41421-.3358-.75-.75-.75s-.75.33579-.75.75v1.25h-6.5V3Zm6.5 4V5.75h-6.5V7c0 .41421-.33579.75-.75.75s-.75-.33579-.75-.75V5.83814C5.8219 6.17954 4.75 7.47206 4.75 9v8c0 1.7981 1.37646 3.25 3.25 3.25h8c1.7858 0 3.25-1.4642 3.25-3.25V9c0-1.52794-1.0719-2.82046-2.5-3.16186V7c0 .41421-.3358.75-.75.75s-.75-.33579-.75-.75Zm-3.5014 4.3267.2513-.4177.2514.4177c.2793.464.7348.795 1.2624.9172l.4749.1099-.3196.3682c-.355.4089-.529.9444-.4822 1.484l.0422.4856-.4489-.1901c-.4986-.2113-1.0617-.2113-1.5603 0l-.4489.1901.0422-.4856c.0468-.5396-.1272-1.0751-.4822-1.484l-.3196-.3682.4749-.1099c.5276-.1222.9831-.4532 1.2624-.9172Zm-.1771-2.61485c.1944-.32291.6625-.32291.8569 0l1.1081 1.84135c.0698.1161.1837.1988.3156.2293l2.0937.4849c.3672.0851.5118.5303.2648.8149l-1.4088 1.623c-.0888.1022-.1323.2361-.1206.371l.1858 2.1411c.0326.3754-.3461.6506-.6931.5036l-1.9789-.8384c-.1247-.0528-.2654-.0528-.3901 0l-1.97887.8384c-.34702.147-.72576-.1282-.69317-.5036l.18582-2.1411c.0117-.1349-.03179-.2688-.12055-.371l-1.40883-1.623c-.24705-.2846-.10239-.7298.26477-.8149l2.09373-.4849c.1319-.0305.2458-.1132.3156-.2293l1.1081-1.84135Z"/>
</svg>
