<svg width="24" height="24" viewBox="0 0 24 24" fill="none" xmlns="http://www.w3.org/2000/svg">
<rect width="24" height="24" fill="white"/>
<path d="M4 17V9C4 6.8 5.8 5 8 5H16C18.2 5 20 6.8 20 9V17C20 19.2 18.2 21 16 21H8C5.7 21 4 19.2 4 17Z" stroke="black" stroke-width="1.5" stroke-miterlimit="10"/>
<path d="M8 7V3" stroke="black" stroke-width="1.5" stroke-miterlimit="10" stroke-linecap="round"/>
<path d="M16 7V3" stroke="black" stroke-width="1.5" stroke-miterlimit="10" stroke-linecap="round"/>
<path d="M20 10H4" stroke="black" stroke-width="1.5" stroke-miterlimit="10" stroke-linecap="round"/>
<path d="M9 16C9.82843 16 10.5 15.3284 10.5 14.5C10.5 13.6716 9.82843 13 9 13C8.17157 13 7.5 13.6716 7.5 14.5C7.5 15.3284 8.17157 16 9 16Z" stroke="black" stroke-width="1.5" stroke-miterlimit="10"/>
<path d="M15 16C15.8284 16 16.5 15.3284 16.5 14.5C16.5 13.6716 15.8284 13 15 13C14.1716 13 13.5 13.6716 13.5 14.5C13.5 15.3284 14.1716 16 15 16Z" stroke="black" stroke-width="1.5" stroke-miterlimit="10"/>
</svg>
