<svg xmlns="http://www.w3.org/2000/svg" viewBox="0 0 24 24" fill="currentColor">
  <path d="M7.5 1.71252c.41421 0 .75.33579.75.75v1.25h6.5v-1.25c0-.41421.3358-.75.75-.75s.75.33579.75.75v1.30946c2.2607.36187 4 2.3314 4 4.69054v5.99998c0 .4142-.3358.75-.75.75s-.75-.3358-.75-.75v-4.25H4.25v6.25c0 1.7858 1.46421 3.25 3.25 3.25h4c.4142 0 .75.3358.75.75s-.3358.75-.75.75h-4c-2.61421 0-4.75-2.1358-4.75-4.75V8.46252c0-2.35914 1.73934-4.32867 4-4.69054V2.46252c0-.41421.33579-.75.75-.75Zm11.25 6.75v.25H4.25v-.25c0-1.52793 1.0719-2.82045 2.5-3.16185v1.16185c0 .41422.33579.75.75.75s.75-.33578.75-.75v-1.25h6.5v1.25c0 .41422.3358.75.75.75s.75-.33578.75-.75V5.30067c1.4281.3414 2.5 1.63392 2.5 3.16185Zm2.2737 9.53688c.2965-.2893.3024-.7641.0131-1.0606-.2892-.2965-.7641-.3024-1.0606-.0131l-3.7196 3.6289L15.1 19.0125c-.2485-.3313-.7186-.3985-1.05-.15-.3314.2486-.3985.7187-.15 1.05l1.532 2.0427.0377.0377c.2224.2224.5065.2946.7303.2946.2224 0 .5041-.0712.726-.2903l4.0977-3.9978Z"/>
</svg>
