<svg width="24" height="24" viewBox="0 0 24 24" fill="none" xmlns="http://www.w3.org/2000/svg">
<path fill-rule="evenodd" clip-rule="evenodd" d="M16 14.25C16.4142 14.25 16.75 14.5858 16.75 15V21C16.75 21.4142 16.4142 21.75 16 21.75C15.5858 21.75 15.25 21.4142 15.25 21V15C15.25 14.5858 15.5858 14.25 16 14.25Z" fill="black"/>
<path fill-rule="evenodd" clip-rule="evenodd" d="M12.25 18C12.25 17.5858 12.5858 17.25 13 17.25H19C19.4142 17.25 19.75 17.5858 19.75 18C19.75 18.4142 19.4142 18.75 19 18.75H13C12.5858 18.75 12.25 18.4142 12.25 18Z" fill="black"/>
<path d="M20 9V10H4V9C4 6.8 5.8 5 8 5H16C18.2 5 20 6.7 20 9Z" fill="black"/>
<path fill-rule="evenodd" clip-rule="evenodd" d="M8 5.75C6.21421 5.75 4.75 7.21421 4.75 9V9.25H19.25V9C19.25 7.12646 17.7981 5.75 16 5.75H8ZM3.25 9C3.25 6.38579 5.38579 4.25 8 4.25H16C18.6019 4.25 20.75 6.27354 20.75 9V10.75H3.25V9Z" fill="black"/>
<path fill-rule="evenodd" clip-rule="evenodd" d="M4 9.25C4.41421 9.25 4.75 9.58579 4.75 10V17C4.75 18.7858 6.21421 20.25 8 20.25H12C12.4142 20.25 12.75 20.5858 12.75 21C12.75 21.4142 12.4142 21.75 12 21.75H8C5.38579 21.75 3.25 19.6142 3.25 17V10C3.25 9.58579 3.58579 9.25 4 9.25Z" fill="black"/>
<path fill-rule="evenodd" clip-rule="evenodd" d="M20 9.25C20.4142 9.25 20.75 9.58579 20.75 10V15C20.75 15.4142 20.4142 15.75 20 15.75C19.5858 15.75 19.25 15.4142 19.25 15V10C19.25 9.58579 19.5858 9.25 20 9.25Z" fill="black"/>
<path fill-rule="evenodd" clip-rule="evenodd" d="M8 2.25C8.41421 2.25 8.75 2.58579 8.75 3V7C8.75 7.41421 8.41421 7.75 8 7.75C7.58579 7.75 7.25 7.41421 7.25 7V3C7.25 2.58579 7.58579 2.25 8 2.25Z" fill="black"/>
<path fill-rule="evenodd" clip-rule="evenodd" d="M16 2.25C16.4142 2.25 16.75 2.58579 16.75 3V7C16.75 7.41421 16.4142 7.75 16 7.75C15.5858 7.75 15.25 7.41421 15.25 7V3C15.25 2.58579 15.5858 2.25 16 2.25Z" fill="black"/>
</svg>
