<svg xmlns="http://www.w3.org/2000/svg" viewBox="0 0 24 24" fill="currentColor">
  <path d="M8 2.25c.41421 0 .75.33579.75.75v1.25h6.5V3c0-.41421.3358-.75.75-.75s.75.33579.75.75v1.30946c2.2607.36187 4 2.33139 4 4.69054v8c0 2.6142-2.1358 4.75-4.75 4.75H8c-2.72646 0-4.75-2.1481-4.75-4.75V9c0-2.35915 1.73934-4.32867 4-4.69054V3c0-.41421.33579-.75.75-.75Zm7.25 3.5V7c0 .41421.3358.75.75.75s.75-.33579.75-.75V5.83814c1.4281.3414 2.5 1.63392 2.5 3.16186v8c0 1.7858-1.4642 3.25-3.25 3.25H8c-1.87354 0-3.25-1.4519-3.25-3.25V9c0-1.52794 1.0719-2.82046 2.5-3.16186V7c0 .41421.33579.75.75.75s.75-.33579.75-.75V5.75h6.5Zm-5.9804 4.5196c.29289-.2929.7678-.2929 1.0607 0l1.6196 1.6197 1.6197-1.6197c.2929-.2929.7678-.2929 1.0606 0 .2929.2929.2929.7678 0 1.0607l-1.6196 1.6196 1.6196 1.6197c.2929.2929.2929.7678 0 1.0606-.2928.2929-.7677.2929-1.0606 0l-1.6197-1.6196-1.6196 1.6196c-.2929.2929-.76781.2929-1.0607 0-.2929-.2928-.2929-.7677 0-1.0606l1.6197-1.6197-1.6197-1.6196c-.2929-.2929-.2929-.7678 0-1.0607Z"/>
</svg>
