<svg xmlns="http://www.w3.org/2000/svg" fill="none" viewBox="0 0 24 24">
  <path fill="#000" d="M19.5 8.463v1h-16v-1c0-2.2 1.8-4 4-4h8c2.2 0 4 1.7 4 4Z"/>
  <path fill="#000" fill-rule="evenodd" d="M7.5 5.213a3.262 3.262 0 0 0-3.25 3.25v.25h14.5v-.25c0-1.874-1.452-3.25-3.25-3.25h-8Zm-4.75 3.25a4.762 4.762 0 0 1 4.75-4.75h8c2.602 0 4.75 2.023 4.75 4.75v1.75H2.75v-1.75Z" clip-rule="evenodd"/>
  <path fill="#000" fill-rule="evenodd" d="M3.5 8.713a.75.75 0 0 1 .75.75v7a3.262 3.262 0 0 0 3.25 3.25h4a.75.75 0 0 1 0 1.5h-4a4.762 4.762 0 0 1-4.75-4.75v-7a.75.75 0 0 1 .75-.75Zm16 0a.75.75 0 0 1 .75.75v5a.75.75 0 0 1-1.5 0v-5a.75.75 0 0 1 .75-.75Zm-12-7a.75.75 0 0 1 .75.75v4a.75.75 0 1 1-1.5 0v-4a.75.75 0 0 1 .75-.75Zm8 0a.75.75 0 0 1 .75.75v4a.75.75 0 0 1-1.5 0v-4a.75.75 0 0 1 .75-.75Zm5.537 15.226a.75.75 0 0 1-.013 1.06l-4.098 3.998a1.03 1.03 0 0 1-.726.29c-.224 0-.508-.072-.73-.294l-.038-.038-1.532-2.042a.75.75 0 0 1 1.2-.9l1.157 1.542 3.72-3.63a.75.75 0 0 1 1.06.014Z" clip-rule="evenodd"/>
</svg>
