<svg width="24" height="24" fill="none" xmlns="http://www.w3.org/2000/svg"><path fill="#fff" d="M0 0h24v24H0z"/><path d="M4 17V9c0-2.2 1.8-4 4-4h8c2.2 0 4 1.8 4 4v8c0 2.2-1.8 4-4 4H8c-2.3 0-4-1.8-4-4z" stroke="#000" stroke-width="1.5" stroke-miterlimit="10"/><path d="M8 7V3M16 7V3M20 10H4" stroke="#000" stroke-width="1.5" stroke-miterlimit="10" stroke-linecap="round"/><path d="M9 16c.82843 0 1.5-.6716 1.5-1.5S9.82843 13 9 13s-1.5.6716-1.5 1.5S8.17157 16 9 16zM15 16c.8284 0 1.5-.6716 1.5-1.5S15.8284 13 15 13s-1.5.6716-1.5 1.5.6716 1.5 1.5 1.5z" stroke="#000" stroke-width="1.5" stroke-miterlimit="10"/></svg>