<svg xmlns="http://www.w3.org/2000/svg" viewBox="0 0 24 24" fill="currentColor">
  <path d="M8.80002 4.19995c-.5858 0-1.05002.46422-1.05002 1.04999v1.30011c0 .41421-.33579.75-.75.75-1.78579 0-3.25 1.46421-3.25 3.24995v6c0 1.7858 1.46421 3.25 3.25 3.25h10c1.7858 0 3.25-1.4642 3.25-3.25v-6c0-1.78574-1.4642-3.24995-3.25-3.24995-.4142 0-.75-.33579-.75-.75 0-.01682.0006-.03351.0016-.05005-.001-.01654-.0016-.03323-.0016-.05005V5.24994c0-.58579-.4642-1.04999-1.05-1.04999H8.80002ZM6.25 5.24994v.60957c-2.26066.36187-4 2.33139-4 4.69049v6c0 2.6143 2.13579 4.75 4.75 4.75h10c2.6142 0 4.75-2.1357 4.75-4.75v-6c0-2.3591-1.7393-4.32862-4-4.69049v-.60957c0-1.41421-1.1358-2.54999-2.55-2.54999H8.80002c-1.4142 0-2.55002 1.13576-2.55002 2.54999ZM9.75 13.55c0-1.2426 1.0074-2.25 2.25-2.25s2.25 1.0074 2.25 2.25c0 1.2427-1.0074 2.25-2.25 2.25s-2.25-1.0073-2.25-2.25ZM12 9.80005c-2.07107 0-3.75 1.67895-3.75 3.74995 0 2.0711 1.67893 3.75 3.75 3.75 2.0711 0 3.75-1.6789 3.75-3.75 0-2.071-1.6789-3.74995-3.75-3.74995Z"/>
</svg>
