<svg width="24" height="24" viewBox="0 0 24 24" fill="none" xmlns="http://www.w3.org/2000/svg">
<path fill-rule="evenodd" clip-rule="evenodd" d="M5.75002 12.55C4.66423 12.55 3.80002 13.4143 3.80002 14.5V18.5C3.80002 19.5858 4.66423 20.45 5.75002 20.45H12.45C13.5358 20.45 14.4 19.5858 14.4 18.5V16.9C14.4 16.4858 14.7358 16.15 15.15 16.15C15.5642 16.15 15.9 16.4858 15.9 16.9V18.5C15.9 20.4143 14.3642 21.95 12.45 21.95H5.75002C3.8358 21.95 2.30002 20.4143 2.30002 18.5V14.5C2.30002 12.5858 3.8358 11.05 5.75002 11.05C6.16423 11.05 6.50002 11.3858 6.50002 11.8C6.50002 12.2143 6.16423 12.55 5.75002 12.55Z" fill="black"/>
<path fill-rule="evenodd" clip-rule="evenodd" d="M6.95002 10.45C6.66423 10.45 6.50002 10.6142 6.50002 10.9V11.7C6.50002 12.1142 6.16423 12.45 5.75002 12.45C5.3358 12.45 5.00002 12.1142 5.00002 11.7V10.9C5.00002 9.78574 5.8358 8.94995 6.95002 8.94995H9.15002C9.56423 8.94995 9.90002 9.28574 9.90002 9.69995C9.90002 10.1142 9.56423 10.45 9.15002 10.45H6.95002Z" fill="black"/>
<path fill-rule="evenodd" clip-rule="evenodd" d="M9.05002 15.25C8.35966 15.25 7.80002 15.8096 7.80002 16.5C7.80002 17.1904 8.35966 17.75 9.05002 17.75C9.74037 17.75 10.3 17.1904 10.3 16.5C10.3 15.8096 9.74037 15.25 9.05002 15.25ZM6.30002 16.5C6.30002 14.9812 7.53124 13.75 9.05002 13.75C10.5688 13.75 11.8 14.9812 11.8 16.5C11.8 18.0188 10.5688 19.25 9.05002 19.25C7.53124 19.25 6.30002 18.0188 6.30002 16.5Z" fill="black"/>
<path d="M20.95 5.10005V14.6C20.95 15.9 19.95 16.9 18.65 16.9H15.15V14.4C15.15 12.9 13.95 11.7 12.45 11.7V10.9C12.45 10.2 11.95 9.70005 11.25 9.70005H9.05002V5.10005C9.05002 3.80005 10.05 2.80005 11.35 2.80005H18.55C19.85 2.90005 20.95 3.90005 20.95 5.10005Z" fill="black"/>
<path fill-rule="evenodd" clip-rule="evenodd" d="M11.35 3.55005C10.4642 3.55005 9.80002 4.21426 9.80002 5.10005V8.95005H11.25C12.3642 8.95005 13.2 9.78584 13.2 10.9V11.0308C14.7501 11.3706 15.9 12.7436 15.9 14.4V16.15H18.65C19.5358 16.15 20.2 15.4858 20.2 14.6V5.10005C20.2 4.38725 19.5095 3.63849 18.5191 3.55005H11.35ZM8.30002 5.10005C8.30002 3.38584 9.63581 2.05005 11.35 2.05005H18.5788L18.6075 2.05226C20.2029 2.17498 21.7 3.41921 21.7 5.10005V14.6C21.7 16.3143 20.3642 17.65 18.65 17.65H14.4V14.4C14.4 13.3143 13.5358 12.45 12.45 12.45H11.7V10.9C11.7 10.6143 11.5358 10.45 11.25 10.45H8.30002V5.10005Z" fill="black"/>
</svg>
