<svg width="24" height="24" viewBox="0 0 24 24" fill="none" xmlns="http://www.w3.org/2000/svg">
<path fill-rule="evenodd" clip-rule="evenodd" d="M7 7.30005C5.21421 7.30005 3.75 8.76426 3.75 10.55V16.55C3.75 18.3358 5.21421 19.8 7 19.8H17C18.7858 19.8 20.25 18.3358 20.25 16.55V10.55C20.25 8.76426 18.7858 7.30005 17 7.30005C16.5858 7.30005 16.25 6.96426 16.25 6.55005C16.25 6.13584 16.5858 5.80005 17 5.80005C19.6142 5.80005 21.75 7.93584 21.75 10.55V16.55C21.75 19.1643 19.6142 21.3 17 21.3H7C4.38579 21.3 2.25 19.1643 2.25 16.55V10.55C2.25 7.93584 4.38579 5.80005 7 5.80005C7.41421 5.80005 7.75 6.13584 7.75 6.55005C7.75 6.96426 7.41421 7.30005 7 7.30005Z" fill="black"/>
<path fill-rule="evenodd" clip-rule="evenodd" d="M8.8 4.19995C8.21421 4.19995 7.75 4.66416 7.75 5.24995V6.54995C7.75 6.96416 7.41421 7.29995 7 7.29995C6.58579 7.29995 6.25 6.96416 6.25 6.54995V5.24995C6.25 3.83574 7.38579 2.69995 8.8 2.69995H15.2C16.6142 2.69995 17.75 3.83574 17.75 5.24995V6.44995C17.75 6.86416 17.4142 7.19995 17 7.19995C16.5858 7.19995 16.25 6.86416 16.25 6.44995V5.24995C16.25 4.66416 15.7858 4.19995 15.2 4.19995H8.8Z" fill="black"/>
<path d="M12 17.55C13.6569 17.55 15 16.2069 15 14.55C15 12.8932 13.6569 11.55 12 11.55C10.3431 11.55 9 12.8932 9 14.55C9 16.2069 10.3431 17.55 12 17.55Z" fill="black"/>
<path fill-rule="evenodd" clip-rule="evenodd" d="M12 12.3C10.7574 12.3 9.75 13.3074 9.75 14.55C9.75 15.7927 10.7574 16.8 12 16.8C13.2426 16.8 14.25 15.7927 14.25 14.55C14.25 13.3074 13.2426 12.3 12 12.3ZM8.25 14.55C8.25 12.479 9.92893 10.8 12 10.8C14.0711 10.8 15.75 12.479 15.75 14.55C15.75 16.6211 14.0711 18.3 12 18.3C9.92893 18.3 8.25 16.6211 8.25 14.55Z" fill="black"/>
<path fill-rule="evenodd" clip-rule="evenodd" d="M9.25 8.55005C9.25 8.13584 9.58579 7.80005 10 7.80005H14C14.4142 7.80005 14.75 8.13584 14.75 8.55005C14.75 8.96426 14.4142 9.30005 14 9.30005H10C9.58579 9.30005 9.25 8.96426 9.25 8.55005Z" fill="black"/>
</svg>
