<svg xmlns="http://www.w3.org/2000/svg" fill="none" viewBox="0 0 24 24">
  <path fill="#000" fill-rule="evenodd" d="M16.25 6.55A.75.75 0 0 1 17 5.8a4.762 4.762 0 0 1 4.75 4.75.75.75 0 1 1-1.5 0A3.262 3.262 0 0 0 17 7.3a.75.75 0 0 1-.75-.75Zm-14 4A4.762 4.762 0 0 1 7 5.8a.75.75 0 0 1 0 1.5 3.262 3.262 0 0 0-3.25 3.25v6A3.262 3.262 0 0 0 7 19.8h10a3.262 3.262 0 0 0 3.25-3.25.75.75 0 0 1 1.5 0A4.762 4.762 0 0 1 17 21.3H7a4.762 4.762 0 0 1-4.75-4.75v-6Z" clip-rule="evenodd"/>
  <path fill="#000" fill-rule="evenodd" d="M8.8 4.2c-.586 0-1.05.464-1.05 1.05v1.3a.75.75 0 0 1-1.5 0v-1.3A2.543 2.543 0 0 1 8.8 2.7h6.4a2.543 2.543 0 0 1 2.55 2.55v1.2a.75.75 0 0 1-1.5 0v-1.2c0-.586-.464-1.05-1.05-1.05H8.8Z" clip-rule="evenodd"/>
  <path fill="#000" d="M12 17.55a3 3 0 1 0 0-6 3 3 0 0 0 0 6Z"/>
  <path fill="#000" fill-rule="evenodd" d="M12 12.3a2.25 2.25 0 1 0 0 4.5 2.25 2.25 0 0 0 0-4.5Zm-3.75 2.25a3.75 3.75 0 1 1 7.5 0 3.75 3.75 0 0 1-7.5 0Zm1-6A.75.75 0 0 1 10 7.8h4a.75.75 0 0 1 0 1.5h-4a.75.75 0 0 1-.75-.75Z" clip-rule="evenodd"/>
  <path fill="#000" d="M21 10.55v6h-1.1c-1 0-1.9-.9-1.9-1.9v-2.3c0-1 .8-1.9 1.9-1.9H21v.1Z"/>
  <path fill="#000" fill-rule="evenodd" d="M19.9 11.2c-.66 0-1.15.538-1.15 1.15v2.3c0 .586.564 1.15 1.15 1.15h.35v-4.6h-.35Zm-2.65 1.15c0-1.388 1.11-2.65 2.65-2.65h1.85v7.6H19.9c-1.414 0-2.65-1.236-2.65-2.65v-2.3Z" clip-rule="evenodd"/>
</svg>
