<svg xmlns="http://www.w3.org/2000/svg" viewBox="0 0 24 24" fill="currentColor">
  <path d="M7.75 5.25018c0-.58578.46421-1.04998 1.05-1.04998h6.4c.5858 0 1.05.4642 1.05 1.04998V6.4502c0 .01673.0005.03334.0016.0498-.0011.01646-.0016.03307-.0016.0498 0 .41422.3358.75.75.75 1.5279 0 2.8205 1.07191 3.1619 2.5H19.9c-1.4142 0-2.65 1.2358-2.65 2.65v2.2c0 1.4142 1.2358 2.65 2.65 2.65h.2619c-.3414 1.4281-1.634 2.5-3.1619 2.5H7c-1.52794 0-2.82046-1.0719-3.16186-2.5h.26185c1.41421 0 2.65001-1.2358 2.65001-2.65v-2.2c0-1.4142-1.23579-2.65-2.65001-2.65h-.26185c.33981-1.42145 1.62192-2.49002 3.14056-2.49993L7 7.30017c.41421 0 .75-.33579.75-.75V5.25018Zm-5.5 5.29962c0-2.35914 1.73934-4.32867 4-4.69054v-.60908c0-1.41422 1.1358-2.54998 2.55-2.54998h6.4c1.4142 0 2.55 1.13576 2.55 2.54998v.60908c2.2607.36187 4 2.3314 4 4.69054v6c0 2.6142-2.1358 4.75-4.75 4.75H7c-2.61421 0-4.75-2.1358-4.75-4.75v-6Zm1.5 5.25v-4.5h.34999c.58578 0 1.15001.5642 1.15001 1.15v2.2c0 .5858-.56422 1.15-1.15001 1.15H3.75Zm16.15-4.5h.35v4.5h-.35c-.5858 0-1.15-.5642-1.15-1.15v-2.2c0-.5858.5642-1.15 1.15-1.15Zm-7.9 1c-1.2426 0-2.25 1.0074-2.25 2.25s1.0074 2.25 2.25 2.25 2.25-1.0074 2.25-2.25-1.0074-2.25-2.25-2.25Zm-3.75 2.25c0-2.0711 1.67893-3.75 3.75-3.75 2.0711 0 3.75 1.6789 3.75 3.75s-1.6789 3.75-3.75 3.75c-2.07107 0-3.75-1.6789-3.75-3.75Zm1.75-6.75c-.41421 0-.75.33579-.75.75 0 .41422.33579.75.75.75h4c.4142 0 .75-.33578.75-.75 0-.41421-.3358-.75-.75-.75h-4Z"/>
</svg>
