<svg xmlns="http://www.w3.org/2000/svg" viewBox="0 0 24 24" fill="currentColor">
  <path d="M7.75 5.25018c0-.58577.46422-1.04998 1.05002-1.04998H15.2c.5858 0 1.05.4642 1.05 1.04998V6.4502c0 .01673.0005.03334.0016.0498-.0011.01646-.0016.03307-.0016.0498 0 .41422.3358.75.75.75 1.7858 0 3.25 1.46422 3.25 3.25v6c0 1.7858-1.4642 3.25-3.25 3.25H7c-1.78579 0-3.25-1.4642-3.25-3.25v-6c0-1.77868 1.45258-3.23834 3.2287-3.24993L7 7.30017c.41421 0 .75-.33579.75-.75V5.25018Zm-1.5.60908v-.60908c0-1.41423 1.13582-2.54998 2.55002-2.54998H15.2c1.4142 0 2.55 1.13577 2.55 2.54998v.60908c2.2607.36187 4 2.3314 4 4.69054v6c0 2.6142-2.1358 4.75-4.75 4.75H7c-2.61421 0-4.75-2.1358-4.75-4.75v-6c0-2.35914 1.73934-4.32867 4-4.69054ZM12 12.2998c-1.2426 0-2.25 1.0074-2.25 2.25s1.0074 2.25 2.25 2.25 2.25-1.0074 2.25-2.25-1.0074-2.25-2.25-2.25Zm-3.75 2.25c0-2.0711 1.67893-3.75 3.75-3.75 2.0711 0 3.75 1.6789 3.75 3.75s-1.6789 3.75-3.75 3.75c-2.07107 0-3.75-1.6789-3.75-3.75Zm1.75-6.75c-.41421 0-.75.33579-.75.75 0 .41422.33579.75.75.75h4c.4142 0 .75-.33578.75-.75 0-.41421-.3358-.75-.75-.75h-4Z"/>
</svg>
