<svg xmlns="http://www.w3.org/2000/svg" fill="none" viewBox="0 0 24 24">
  <path fill="#000" fill-rule="evenodd" d="M7.75 5.25c0-.586.464-1.05 1.05-1.05h6.4c.586 0 1.05.464 1.05 1.05v1.2c0 .017 0 .034.002.05a.75.75 0 0 0 .748.8 3.262 3.262 0 0 1 3.25 3.25v6A3.262 3.262 0 0 1 17 19.8H7a3.262 3.262 0 0 1-3.25-3.25v-6A3.262 3.262 0 0 1 6.979 7.3H7a.75.75 0 0 0 .75-.75v-1.3Zm-1.5.61v-.61A2.542 2.542 0 0 1 8.8 2.7h6.4a2.542 2.542 0 0 1 2.55 2.55v.61c2.26.361 4 2.33 4 4.69v6A4.762 4.762 0 0 1 17 21.3H7a4.762 4.762 0 0 1-4.75-4.75v-6c0-2.36 1.74-4.329 4-4.69ZM12 12.3a2.25 2.25 0 1 0 0 4.5 2.25 2.25 0 0 0 0-4.5Zm-3.75 2.25a3.75 3.75 0 1 1 7.5 0 3.75 3.75 0 0 1-7.5 0ZM10 7.8a.75.75 0 0 0 0 1.5h4a.75.75 0 0 0 0-1.5h-4Z" clip-rule="evenodd"/>
</svg>
