<svg xmlns="http://www.w3.org/2000/svg" viewBox="0 0 24 24" fill="currentColor">
  <path d="M8.8 4.2002c-.58579 0-1.05.4642-1.05 1.04998v1.29999c0 .41421-.33579.75-.75.75l-.0213-.0003C5.20258 7.31146 3.75 8.77112 3.75 10.5498v6c0 1.7858 1.46421 3.25 3.25 3.25h10c1.5279 0 2.8205-1.0719 3.1619-2.5H19.9c-1.4142 0-2.65-1.2358-2.65-2.65v-2.2c0-1.4142 1.2358-2.65 2.65-2.65h.2619c-.3414-1.42809-1.634-2.5-3.1619-2.5-.4142 0-.75-.33578-.75-.75 0-.01673.0005-.03334.0016-.0498-.0011-.01646-.0016-.03307-.0016-.0498V5.25018c0-.58578-.4642-1.04998-1.05-1.04998H8.8Zm11.45 7.0996h-.35c-.5858 0-1.15.5642-1.15 1.15v2.2c0 .5858.5642 1.15 1.15 1.15h.35v-4.5Zm1.5 5.25v-6c0-2.35914-1.7393-4.32867-4-4.69054v-.60908c0-1.41422-1.1358-2.54998-2.55-2.54998H8.8c-1.4142 0-2.55 1.13576-2.55 2.54998v.60908c-2.26066.36187-4 2.3314-4 4.69054v6c0 2.6142 2.13579 4.75 4.75 4.75h10c2.6142 0 4.75-2.1358 4.75-4.75Zm-12-2c0-1.2426 1.0074-2.25 2.25-2.25s2.25 1.0074 2.25 2.25-1.0074 2.25-2.25 2.25-2.25-1.0074-2.25-2.25Zm2.25-3.75c-2.07107 0-3.75 1.6789-3.75 3.75s1.67893 3.75 3.75 3.75c2.0711 0 3.75-1.6789 3.75-3.75s-1.6789-3.75-3.75-3.75Zm-2.75-2.25c0-.41421.33579-.75.75-.75h4c.4142 0 .75.33579.75.75 0 .41422-.3358.75-.75.75h-4c-.41421 0-.75-.33578-.75-.75Z"/>
</svg>
