<svg width="24" height="24" viewBox="0 0 24 24" fill="none" xmlns="http://www.w3.org/2000/svg">
<path fill-rule="evenodd" clip-rule="evenodd" d="M8.2163 15.7558C7.0943 14.6461 5.35641 14.3834 4.0646 15.0293C3.61299 15.2551 3.36942 15.6828 3.29893 16.0823C3.22906 16.4782 3.30902 16.9698 3.66968 17.3305L6.66968 20.3305C7.03035 20.6911 7.52196 20.7711 7.91785 20.7012C8.31731 20.6307 8.74503 20.3872 8.97083 19.9355L8.97704 19.9231L8.98279 19.9105C9.58679 18.5817 9.49406 16.9177 8.2163 15.7558ZM4.80069 16.3402L7.65745 19.1969C8.00274 18.3578 7.88142 17.4724 7.19829 16.8576L7.18363 16.8444L7.16968 16.8305C6.51188 16.1727 5.5021 16.0281 4.80069 16.3402Z" fill="black"/>
<path fill-rule="evenodd" clip-rule="evenodd" d="M16.0822 3.39896C16.4781 3.3291 16.9697 3.40906 17.3304 3.76972L20.3304 6.76972C20.691 7.13038 20.771 7.62199 20.7011 8.01789C20.6306 8.41735 20.387 8.84507 19.9354 9.07087C18.6436 9.71678 16.9057 9.4541 15.7837 8.34434C14.506 7.18246 14.4132 5.51851 15.0172 4.1897L15.023 4.17706L15.0292 4.16464C15.255 3.71303 15.6827 3.46946 16.0822 3.39896ZM16.3426 4.90328L19.1993 7.76003C18.4979 8.07204 17.4882 7.92752 16.8304 7.26972L16.8164 7.25577L16.8017 7.24258C16.1186 6.62776 15.9973 5.7424 16.3426 4.90328Z" fill="black"/>
<path d="M16.8 13.4001L13.4 16.8001C12.1 18.1001 10 18.1001 8.70001 16.8001L7.20001 15.3001C5.90001 14.0001 5.90001 11.9001 7.20001 10.6001L10.6 7.2001C11.9 5.9001 14 5.9001 15.3 7.2001L16.8 8.7001C18.1 10.0001 18.1 12.1001 16.8 13.4001Z" fill="black"/>
<path fill-rule="evenodd" clip-rule="evenodd" d="M14.7697 7.73043C13.7626 6.72332 12.1374 6.72332 11.1303 7.73043L7.73034 11.1304C6.72323 12.1375 6.72323 13.7627 7.73034 14.7698L9.23034 16.2698C10.2374 17.2769 11.8626 17.2769 12.8697 16.2698L16.2697 12.8698C17.2768 11.8627 17.2768 10.2375 16.2697 9.23043L14.7697 7.73043ZM10.0697 6.66977C11.6626 5.07687 14.2374 5.07687 15.8303 6.66977L17.3303 8.16977C18.9232 9.76266 18.9232 12.3375 17.3303 13.9304L13.9303 17.3304C12.3374 18.9233 9.76257 18.9233 8.16968 17.3304L6.66968 15.8304C5.07678 14.2375 5.07678 11.6627 6.66968 10.0698L10.0697 6.66977Z" fill="black"/>
</svg>
