<svg width="24" height="24" viewBox="0 0 24 24" fill="none" xmlns="http://www.w3.org/2000/svg">
<path d="M20.25 10.95V17.45C20.25 18.65 19.25 19.55 18.15 19.55C17.55 19.55 17.05 19.35 16.65 18.95C16.25 18.55 16.05 18.05 16.05 17.45C16.05 17.35 15.95 17.35 15.95 17.35H8.45002C8.35002 17.35 8.35002 17.45 8.35002 17.45C8.35002 18.05 8.15002 18.55 7.75002 18.95C7.35002 19.35 6.85002 19.55 6.25002 19.55C5.65002 19.55 5.15002 19.35 4.75002 18.95C4.35002 18.55 4.15002 18.05 4.15002 17.45V10.95H20.25Z" fill="black" stroke="black" stroke-width="1.5" stroke-miterlimit="10" stroke-linecap="round"/>
<path d="M7.54999 13.95H9.04999" stroke="white" stroke-width="1.5" stroke-miterlimit="10" stroke-linecap="round"/>
<path d="M15.25 13.95H16.65" stroke="white" stroke-width="1.5" stroke-miterlimit="10" stroke-linecap="round"/>
<path d="M19.05 10.95H5.24998C4.64998 10.95 4.24998 10.35 4.44998 9.84995L5.74998 5.94995C5.94998 5.04995 6.74998 4.44995 7.64998 4.44995H16.55C17.45 4.44995 18.35 5.04995 18.65 5.94995L19.95 9.84995C20.05 10.35 19.65 10.95 19.05 10.95Z" stroke="black" stroke-width="1.5" stroke-miterlimit="10" stroke-linecap="round"/>
<path d="M4.05 10.9499L2.75 9.6499" stroke="black" stroke-width="1.5" stroke-miterlimit="10" stroke-linecap="round"/>
<path d="M19.95 10.6499L21.25 9.34985" stroke="black" stroke-width="1.5" stroke-miterlimit="10" stroke-linecap="round"/>
</svg>
