<svg width="24" height="24" viewBox="0 0 24 24" fill="none" xmlns="http://www.w3.org/2000/svg">
<path d="M21 7V10H3V7C3 5.9 3.9 5 5 5H19C20 5 21 5.9 21 7Z" fill="black"/>
<path fill-rule="evenodd" clip-rule="evenodd" d="M5 5.75C4.31421 5.75 3.75 6.31421 3.75 7V9.25H20.25V7C20.25 6.33798 19.61 5.75 19 5.75H5ZM2.25 7C2.25 5.48579 3.48579 4.25 5 4.25H19C20.39 4.25 21.75 5.46202 21.75 7V10.75H2.25V7Z" fill="black"/>
<path fill-rule="evenodd" clip-rule="evenodd" d="M21 9.25C21.4142 9.25 21.75 9.58579 21.75 10V12C21.75 12.4142 21.4142 12.75 21 12.75C20.5858 12.75 20.25 12.4142 20.25 12V10C20.25 9.58579 20.5858 9.25 21 9.25Z" fill="black"/>
<path fill-rule="evenodd" clip-rule="evenodd" d="M3 9.25C3.41421 9.25 3.75 9.58579 3.75 10V17C3.75 17.6858 4.31421 18.25 5 18.25H12C12.4142 18.25 12.75 18.5858 12.75 19C12.75 19.4142 12.4142 19.75 12 19.75H5C3.48579 19.75 2.25 18.5142 2.25 17V10C2.25 9.58579 2.58579 9.25 3 9.25Z" fill="black"/>
<path fill-rule="evenodd" clip-rule="evenodd" d="M17.8 13.35C18.2143 13.35 18.55 13.6858 18.55 14.1V19C18.55 19.4142 18.2143 19.75 17.8 19.75C17.3858 19.75 17.05 19.4142 17.05 19V14.1C17.05 13.6858 17.3858 13.35 17.8 13.35Z" fill="black"/>
<path fill-rule="evenodd" clip-rule="evenodd" d="M14.55 16.6C14.55 16.1858 14.8858 15.85 15.3 15.85H20.2C20.6143 15.85 20.95 16.1858 20.95 16.6C20.95 17.0142 20.6143 17.35 20.2 17.35H15.3C14.8858 17.35 14.55 17.0142 14.55 16.6Z" fill="black"/>
</svg>
