<svg xmlns="http://www.w3.org/2000/svg" fill="none" viewBox="0 0 24 24">
  <path fill="#000" fill-rule="evenodd" d="M5 5.75c-.686 0-1.25.564-1.25 1.25v10c0 .686.564 1.25 1.25 1.25h7a.75.75 0 0 1 0 1.5H5A2.756 2.756 0 0 1 2.25 17V7A2.756 2.756 0 0 1 5 4.25h14A2.756 2.756 0 0 1 21.75 7v5a.75.75 0 0 1-1.5 0V7c0-.686-.564-1.25-1.25-1.25H5Z" clip-rule="evenodd"/>
  <path fill="#000" fill-rule="evenodd" d="M3 9.25h18v1.5H3v-1.5Zm14.8 4.1a.75.75 0 0 1 .75.75V19a.75.75 0 1 1-1.5 0v-4.9a.75.75 0 0 1 .75-.75Z" clip-rule="evenodd"/>
  <path fill="#000" fill-rule="evenodd" d="M14.55 16.6a.75.75 0 0 1 .75-.75h4.9a.75.75 0 1 1 0 1.5h-4.9a.75.75 0 0 1-.75-.75Z" clip-rule="evenodd"/>
</svg>
