<svg width="24" height="24" viewBox="0 0 24 24" fill="none" xmlns="http://www.w3.org/2000/svg">
<path fill-rule="evenodd" clip-rule="evenodd" d="M10.85 10.2502C10.5697 10.2502 10.3551 10.3558 10.1803 10.5306C9.87317 10.8377 9.87317 11.4628 10.1803 11.7699L10.3803 11.9699L12.1 13.6896L13.9802 11.8093C14.2239 11.475 14.3 11.2495 14.3 11.1002C14.3 10.9442 14.2144 10.7253 14.0196 10.5306C13.7125 10.2235 13.0874 10.2235 12.7803 10.5306L11.3 12.0109V10.4009C11.1029 10.2893 10.9569 10.2502 10.85 10.2502ZM12.1293 9.14842C11.7578 8.92374 11.3264 8.75024 10.85 8.75024C10.1302 8.75024 9.54483 9.04471 9.11962 9.46991C8.22673 10.3628 8.22673 11.9377 9.11962 12.8306L9.31962 13.0306L11.078 14.7889C11.3195 15.1029 11.6794 15.2752 12.0625 15.2752C12.4577 15.2752 12.8155 15.0954 13.0803 14.8306L15.118 12.7929L15.15 12.7502C15.4823 12.3072 15.8 11.745 15.8 11.1002C15.8 10.4563 15.4855 9.87517 15.0803 9.46991C14.3119 8.70156 13.0386 8.59439 12.1293 9.14842ZM11.9992 13.7871C11.9992 13.787 11.9997 13.7867 12.0008 13.7861L11.9992 13.7871Z" fill="black"/>
<path fill-rule="evenodd" clip-rule="evenodd" d="M9.05 3.65015C6.77435 3.65015 5 5.50415 5 7.70015V16.3001C5 18.5758 6.854 20.3501 9.05 20.3501H14.95C17.146 20.3501 19 18.5758 19 16.3001V7.70015C19 5.4245 17.146 3.65015 14.95 3.65015H9.05ZM3.5 7.70015C3.5 4.69614 5.92565 2.15015 9.05 2.15015H14.95C17.954 2.15015 20.5 4.5758 20.5 7.70015V16.3001C20.5 19.4245 17.954 21.8501 14.95 21.8501H9.05C6.046 21.8501 3.5 19.4245 3.5 16.3001V7.70015Z" fill="black"/>
</svg>
