<svg width="24" height="24" viewBox="0 0 24 24" fill="none" xmlns="http://www.w3.org/2000/svg">
<path fill-rule="evenodd" clip-rule="evenodd" d="M3.75 7C3.75 6.31421 4.31421 5.75 5 5.75H19C19.6858 5.75 20.25 6.31421 20.25 7V9.25H3.75V7ZM3.75 10.75V17C3.75 17.7108 4.2388 18.25 5 18.25H19C19.6858 18.25 20.25 17.6858 20.25 17V10.75H3.75ZM5 4.25C3.48579 4.25 2.25 5.48579 2.25 7V17C2.25 18.4892 3.3612 19.75 5 19.75H19C20.5142 19.75 21.75 18.5142 21.75 17V7C21.75 5.48579 20.5142 4.25 19 4.25H5Z" fill="black"/>
</svg>
