<svg xmlns="http://www.w3.org/2000/svg" fill="none" viewBox="0 0 24 24">
  <path fill="#000" d="M21 7v3H3V7c0-1.1.9-2 2-2h14c1 0 2 .9 2 2Z"/>
  <path fill="#000" fill-rule="evenodd" d="M5 5.75c-.686 0-1.25.564-1.25 1.25v2.25h16.5V7c0-.662-.64-1.25-1.25-1.25H5ZM2.25 7A2.756 2.756 0 0 1 5 4.25h14c1.39 0 2.75 1.212 2.75 2.75v3.75H2.25V7Z" clip-rule="evenodd"/>
  <path fill="#000" fill-rule="evenodd" d="M21 9.25a.75.75 0 0 1 .75.75v2a.75.75 0 0 1-1.5 0v-2a.75.75 0 0 1 .75-.75Zm-18 0a.75.75 0 0 1 .75.75v7c0 .686.564 1.25 1.25 1.25h7a.75.75 0 0 1 0 1.5H5A2.756 2.756 0 0 1 2.25 17v-7A.75.75 0 0 1 3 9.25Zm14 4.1a.75.75 0 0 1 .75.75v4a.75.75 0 0 1-1.5 0v-4a.75.75 0 0 1 .75-.75Z" clip-rule="evenodd"/>
  <path fill="#000" fill-rule="evenodd" d="m17.05 14.51 1.42 1.42a.75.75 0 0 0 1.06-1.06l-1.786-1.786-.109-.055a1.404 1.404 0 0 0-.623-.154c-.219 0-.51.063-.742.295l-1.7 1.7a.75.75 0 0 0 1.06 1.06l1.42-1.42Z" clip-rule="evenodd"/>
</svg>
