<svg width="24" height="24" viewBox="0 0 24 24" fill="none" xmlns="http://www.w3.org/2000/svg">
<path fill-rule="evenodd" clip-rule="evenodd" d="M3.83814 8.25C4.17954 6.8219 5.47206 5.75 7 5.75H17C18.5279 5.75 19.8205 6.8219 20.1619 8.25H3.83814ZM3.75 9.75V15C3.75 16.7981 5.12646 18.25 7 18.25H17C18.7858 18.25 20.25 16.7858 20.25 15V9.75H3.75ZM7 4.25C4.38579 4.25 2.25 6.38579 2.25 9V15C2.25 17.6019 4.27354 19.75 7 19.75H17C19.6142 19.75 21.75 17.6142 21.75 15V9C21.75 6.38579 19.6142 4.25 17 4.25H7Z" fill="black"/>
</svg>
