<svg width="24" height="24" viewBox="0 0 24 24" fill="none" xmlns="http://www.w3.org/2000/svg">
<path fill-rule="evenodd" clip-rule="evenodd" d="M5 5.75C4.31421 5.75 3.75 6.31421 3.75 7V9.25H20.25V7C20.25 6.26211 19.6354 5.75 19 5.75H5ZM2.25 7C2.25 5.48579 3.48579 4.25 5 4.25H19C20.3646 4.25 21.75 5.33789 21.75 7V10.75H2.25V7Z" fill="black"/>
<path d="M21 10V17C21 18.1 20.1 19 19 19H5C3.9 19 3 18.1 3 17V10H21Z" fill="black"/>
<path fill-rule="evenodd" clip-rule="evenodd" d="M2.25 9.25H21.75V17C21.75 18.5142 20.5142 19.75 19 19.75H5C3.48579 19.75 2.25 18.5142 2.25 17V9.25ZM3.75 10.75V17C3.75 17.6858 4.31421 18.25 5 18.25H19C19.6858 18.25 20.25 17.6858 20.25 17V10.75H3.75Z" fill="black"/>
</svg>
