<svg xmlns="http://www.w3.org/2000/svg" fill="none" viewBox="0 0 24 24">
  <path fill="#000" d="M21 9H3c0-2.2 1.8-4 4-4h10c2.2 0 4 1.7 4 4Z"/>
  <path fill="#000" fill-rule="evenodd" d="M3.838 8.25h16.33c-.328-1.48-1.62-2.5-3.168-2.5H7a3.266 3.266 0 0 0-3.162 2.5ZM2.25 9A4.762 4.762 0 0 1 7 4.25h10c2.602 0 4.75 2.024 4.75 4.75v.75H2.25V9Z" clip-rule="evenodd"/>
  <path fill="#000" fill-rule="evenodd" d="M2.25 8.25h19.5V15A4.762 4.762 0 0 1 17 19.75H7A4.762 4.762 0 0 1 2.25 15V8.25Zm1.5 1.5V15A3.262 3.262 0 0 0 7 18.25h10A3.262 3.262 0 0 0 20.25 15V9.75H3.75Z" clip-rule="evenodd"/>
</svg>
