<svg xmlns="http://www.w3.org/2000/svg" fill="none" viewBox="0 0 24 24">
  <path fill="#000" d="M21 7v3H3V7c0-1.1.9-2 2-2h14c1 0 2 .8 2 2Z"/>
  <path fill="#000" fill-rule="evenodd" d="M5 5.75c-.686 0-1.25.564-1.25 1.25v2.25h16.5V7c0-.738-.615-1.25-1.25-1.25H5ZM2.25 7A2.756 2.756 0 0 1 5 4.25h14c1.365 0 2.75 1.088 2.75 2.75v3.75H2.25V7Z" clip-rule="evenodd"/>
  <path fill="#000" fill-rule="evenodd" d="M21 9.25a.75.75 0 0 1 .75.75v2a.75.75 0 0 1-1.5 0v-2a.75.75 0 0 1 .75-.75Zm-18 0a.75.75 0 0 1 .75.75v7c0 .686.564 1.25 1.25 1.25h7a.75.75 0 0 1 0 1.5H5A2.756 2.756 0 0 1 2.25 17v-7A.75.75 0 0 1 3 9.25Zm15.97 5.12a.75.75 0 0 1 1.06 0l1.2 1.2-.53.53-.4.4m-1.33-2.13a.75.75 0 0 0 0 1.06v-1.06Zm0 1.06 1.074 1.075-1.074-1.075Zm1.074 1.075L18.95 17.69a.75.75 0 1 0 1.102 1.018l1.192-1.292c.263-.27.357-.623.357-.917 0-.299-.097-.658-.37-.93l-.53.53M16.83 14.47a.75.75 0 0 1 0 1.06l-1.07 1.07 1.07 1.07a.75.75 0 1 1-1.06 1.06l-1.2-1.2a1.316 1.316 0 0 1-.37-.93c0-.299.097-.658.37-.93l.53.53-.53-.53 1.2-1.2a.75.75 0 0 1 1.06 0Z" clip-rule="evenodd"/>
</svg>
