<svg width="24" height="24" viewBox="0 0 24 24" fill="none" xmlns="http://www.w3.org/2000/svg">
<path fill-rule="evenodd" clip-rule="evenodd" d="M9.05 3.65015C6.77435 3.65015 5 5.50415 5 7.70015V16.3001C5 18.5758 6.854 20.3501 9.05 20.3501H14.95C17.146 20.3501 19 18.5758 19 16.3001V7.70015C19 5.4245 17.146 3.65015 14.95 3.65015H9.05ZM3.5 7.70015C3.5 4.69614 5.92565 2.15015 9.05 2.15015H14.95C17.954 2.15015 20.5 4.5758 20.5 7.70015V16.3001C20.5 19.4245 17.954 21.8501 14.95 21.8501H9.05C6.046 21.8501 3.5 19.4245 3.5 16.3001V7.70015Z" fill="black"/>
<path fill-rule="evenodd" clip-rule="evenodd" d="M11.9501 10.2502C11.9053 10.2502 11.8443 10.2667 11.7804 10.3306L10.1804 11.9306C10.1166 11.9944 10.1001 12.0554 10.1001 12.1002C10.1001 12.1451 10.1166 12.2061 10.1804 12.2699L11.7804 13.8699C11.8274 13.9169 11.9058 13.9502 11.9876 13.9502C12.0281 13.9502 12.0496 13.9432 12.0585 13.939L12.0821 13.9076L13.7198 12.2699C13.7836 12.2061 13.8001 12.1451 13.8001 12.1002C13.8001 12.0554 13.7836 11.9944 13.7198 11.9306L12.1198 10.3306C12.0559 10.2667 11.9949 10.2502 11.9501 10.2502ZM10.7198 9.26991C11.4127 8.57702 12.4875 8.57702 13.1804 9.26991L14.7804 10.8699C15.4733 11.5628 15.4733 12.6377 14.7804 13.3306L13.2114 14.8997C12.8874 15.2949 12.4097 15.4502 11.9876 15.4502C11.5444 15.4502 11.0728 15.2836 10.7198 14.9306L9.11977 13.3306C8.42687 12.6377 8.42687 11.5628 9.11977 10.8699L10.7198 9.26991Z" fill="black"/>
</svg>
