<svg xmlns="http://www.w3.org/2000/svg" viewBox="0 0 24 25" fill="currentColor">
  <path d="M11.9894 13.6625c.3191 0 .5486.1629.6803.2947l3.8448 3.8447c.1501.1101.2689.2645.3317.4531.0785.2355.0529.4722-.0299.6654-.171.3988-.5675.6171-.9769.6171h-7.7c-.31848 0-.66794-.1498-.87404-.459-.1129-.1693-.18391-.3937-.15063-.6432.03275-.2457.15612-.4399.29434-.5781l3.90003-3.9c.1317-.1318.3612-.2947.6803-.2947Zm0 1.7357-2.63934 2.6393h5.27864l-2.6393-2.6393Z"/>
  <path d="M11.9519 5.4625c.2292 0 .506.0828.7178.29467l3.8448 3.84474c.1501.11011.2689.26454.3317.45309.0785.2355.0529.4722-.0299.6654-.171.3988-.5675.6171-.9769.6171H8.13939c-.51804 0-.80092-.3816-.90185-.6171-.05685-.1326-.09286-.2896-.08669-.456.00585-.1579.05516-.40417.25821-.60723l3.80874-3.80872c.0702-.1087.1628-.19531.2613-.25594.1774-.10915.3568-.13001.4728-.13001Zm.0375 1.73566L9.35005 9.8375h5.27865l-2.6393-2.63934Z"/>
</svg>
