<svg xmlns="http://www.w3.org/2000/svg" viewBox="0 0 24 25" fill="currentColor">
  <path d="M7.95113 5.4125h7.87707c.3185 0 .6679.14982.874.45897.1129.16934.1839.39373.1507.64327-.0328.24569-.1562.43987-.2944.57809l-3.8087 3.80877c-.0702.1087-.1628.1953-.2614.2559-.1773.1091-.3567.13-.4727.13-.2276 0-.502-.0816-.7132-.2901L7.31403 7.11125l-.05667-.11334c-.14724-.29448-.15668-.62517-.03104-.91834.1192-.27815.33689-.47311.56645-.58789l.15836-.07918Zm1.30834 1.5 2.71383 2.64424 2.6442-2.64424H9.25947Z"/>
  <path d="M7.24486 14.2521c.16809-.3362.50727-.5396.88333-.5396h7.70001c.3185 0 .6679.1498.874.459.1129.1693.1839.3937.1507.6432-.0328.2457-.1562.4399-.2944.5781l-3.8087 3.8088c-.0702.1087-.1628.1953-.2614.2559-.1773.1091-.3567.13-.4727.13-.2293 0-.506-.0828-.7178-.2947l-3.9861-3.986-.05443-.1089c-.13836-.2767-.17168-.6275-.01251-.9458Zm2.09399.9604 2.63935 2.6393 2.6393-2.6393H9.33885Z"/>
</svg>
