<svg xmlns="http://www.w3.org/2000/svg" viewBox="0 0 24 25" fill="currentColor">
  <path fill-rule="evenodd" d="M17.3572 7.93028c.2045-.20448.6464-.47514 1.1407-.22799.4505.22526.5396.69181.5396.95832v7.69999c0 .3185-.1498.6679-.459.874-.1693.1129-.3937.1839-.6432.1507-.2457-.0328-.4399-.1561-.5781-.2944l-3.8087-3.8087c-.1087-.0702-.1954-.1628-.256-.2613-.1091-.1774-.13-.3568-.13-.4728 0-.2292.0828-.506.2947-.7178l3.9-3.90002Zm.1803 1.94099-2.6393 2.63933 2.6393 2.6393V9.87127Z" clip-rule="evenodd"/>
  <path fill-rule="evenodd" d="M9.15718 7.93027c.20448-.20447.64646-.47512 1.14072-.22799.4505.22527.5396.69181.5396.95833v7.69999c0 .3185-.1498.6679-.459.874-.1693.1129-.3937.1839-.64324.1507-.24568-.0328-.43986-.1561-.57808-.2944l-3.80873-3.8087c-.1087-.0702-.1953-.1628-.25593-.2613-.10915-.1774-.13001-.3568-.13001-.4728 0-.2292.0828-.506.29467-.7178l3.9-3.90003Zm.18033 1.94099L6.69817 12.5106l2.63934 2.6393V9.87126Z" clip-rule="evenodd"/>
</svg>
