<svg xmlns="http://www.w3.org/2000/svg" viewBox="0 0 24 25" fill="currentColor">
  <path fill-rule="evenodd" d="M6.06474 7.64714c.24569.03275.43986.15612.57808.29434l3.80868 3.80872c.1087.0702.1953.1628.256.2613.1091.1774.13.3568.13.4728 0 .2293-.0828.506-.2947.7178l-3.98604 3.9861-.10886.0544c-.27672.1384-.62747.1717-.94583.0125-.33618-.1681-.53958-.5072-.53958-.8833V8.67181c0-.31847.14982-.66793.45897-.87404.16934-.11289.39374-.18391.64328-.15063Zm.39775 2.23533 2.63933 2.63933-2.63933 2.6393V9.88247Z" clip-rule="evenodd"/>
  <path fill-rule="evenodd" d="M14.2647 7.64714c.2457.03275.4399.15612.5781.29434l3.8087 3.80872c.1087.0702.1953.1628.256.2613.1091.1774.13.3568.13.4728 0 .2293-.0828.506-.2947.7178l-3.9 3.9c-.2031.2031-.4493.2524-.6073.2583-.1664.0061-.3233-.0299-.456-.0867-.2355-.101-.617-.3839-.617-.9019V8.67181c0-.31847.1498-.66793.4589-.87404.1694-.11289.3938-.18391.6433-.15063Zm.3978 2.23533v5.27863l2.6393-2.6393-2.6393-2.63933Z" clip-rule="evenodd"/>
</svg>
