<svg xmlns="http://www.w3.org/2000/svg" fill="none" viewBox="0 0 24 24">
  <path fill="#000" fill-rule="evenodd" d="M9.5 17.55a.75.75 0 0 1 .75-.75h6.5a.75.75 0 0 1 0 1.5h-6.5a.75.75 0 0 1-.75-.75ZM5.551 7.1H18.75c1.434 0 2.629 1.293 2.338 2.785l-.999 5.89a.75.75 0 0 1-1.479-.25l1.002-5.911.003-.011c.1-.502-.303-1.003-.865-1.003H7.349l1.239 6.816a.75.75 0 1 1-1.476.268L5.552 7.1Z" clip-rule="evenodd"/>
  <path fill="#000" fill-rule="evenodd" d="M7.85 14.8a.75.75 0 0 1 .75.75v.1a.75.75 0 1 1-1.5 0v-.1a.75.75 0 0 1 .75-.75ZM2.5 4.45a.75.75 0 0 1 .75-.75c1.358 0 2.267.51 2.835 1.062.277.27.465.54.585.747a2.893 2.893 0 0 1 .18.373l.004.01.002.005v.002s.001.001-.706.251l.707-.25.02.059.312 1.76a.75.75 0 1 1-1.478.261l-.285-1.616a1.97 1.97 0 0 0-.386-.526C4.733 5.54 4.192 5.2 3.25 5.2a.75.75 0 0 1-.75-.75Z" clip-rule="evenodd"/>
  <path fill="#000" fill-rule="evenodd" d="M8.25 16.3a1.25 1.25 0 1 0 0 2.5 1.25 1.25 0 0 0 0-2.5ZM5.5 17.55a2.75 2.75 0 1 1 5.5 0 2.75 2.75 0 0 1-5.5 0Zm13.25-1.25a1.25 1.25 0 1 0 0 2.5 1.25 1.25 0 0 0 0-2.5ZM16 17.55a2.75 2.75 0 1 1 5.5 0 2.75 2.75 0 0 1-5.5 0Z" clip-rule="evenodd"/>
</svg>
