<svg xmlns="http://www.w3.org/2000/svg" fill="none" viewBox="0 0 24 24">
  <path fill="#000" d="M3 17V7c0-2.2 1.8-4 4-4h10c2.2 0 4 1.8 4 4v10c0 2.2-1.8 4-4 4H7c-2.3 0-4-1.8-4-4Z"/>
  <path fill="#000" fill-rule="evenodd" d="M7 3.75A3.262 3.262 0 0 0 3.75 7v10c0 1.798 1.376 3.25 3.25 3.25h10A3.262 3.262 0 0 0 20.25 17V7A3.262 3.262 0 0 0 17 3.75H7ZM2.25 7A4.762 4.762 0 0 1 7 2.25h10A4.762 4.762 0 0 1 21.75 7v10A4.762 4.762 0 0 1 17 21.75H7c-2.726 0-4.75-2.148-4.75-4.75V7Z" clip-rule="evenodd"/>
  <path fill="#fff" fill-rule="evenodd" d="M8 13.25a.75.75 0 0 1 .75.75v2.3a.75.75 0 0 1-1.5 0V14a.75.75 0 0 1 .75-.75Zm4-3.2a.75.75 0 0 1 .75.75v5.5a.75.75 0 1 1-1.5 0v-5.5a.75.75 0 0 1 .75-.75Zm4-3.3a.75.75 0 0 1 .75.75v8.8a.75.75 0 0 1-1.5 0V7.5a.75.75 0 0 1 .75-.75Z" clip-rule="evenodd"/>
</svg>
