<svg xmlns="http://www.w3.org/2000/svg" fill="none" viewBox="0 0 24 24">
  <path fill="#000" fill-rule="evenodd" d="M3.75 7A3.262 3.262 0 0 1 7 3.75h10A3.262 3.262 0 0 1 20.25 7v10A3.262 3.262 0 0 1 17 20.25H7c-1.874 0-3.25-1.452-3.25-3.25V7ZM7 2.25A4.762 4.762 0 0 0 2.25 7v10c0 2.602 2.024 4.75 4.75 4.75h10A4.762 4.762 0 0 0 21.75 17V7A4.762 4.762 0 0 0 17 2.25H7ZM8.75 14a.75.75 0 0 0-1.5 0v2.3a.75.75 0 0 0 1.5 0V14ZM12 10.05a.75.75 0 0 1 .75.75v5.5a.75.75 0 1 1-1.5 0v-5.5a.75.75 0 0 1 .75-.75Zm4.75-2.55a.75.75 0 0 0-1.5 0v8.8a.75.75 0 0 0 1.5 0V7.5Z" clip-rule="evenodd"/>
</svg>
