<svg xmlns="http://www.w3.org/2000/svg" viewBox="0 0 24 24" fill="currentColor">
  <path d="M3.75 7c0-1.78579 1.46421-3.25 3.25-3.25h10c1.7858 0 3.25 1.46421 3.25 3.25v10c0 1.7858-1.4642 3.25-3.25 3.25H7c-1.87354 0-3.25-1.4519-3.25-3.25V7ZM7 2.25C4.38579 2.25 2.25 4.38579 2.25 7v10c0 2.6019 2.02354 4.75 4.75 4.75h10c2.6142 0 4.75-2.1358 4.75-4.75V7c0-2.61421-2.1358-4.75-4.75-4.75H7ZM8.75 14c0-.4142-.33579-.75-.75-.75s-.75.3358-.75.75v2.3c0 .4142.33579.75.75.75s.75-.3358.75-.75V14ZM12 10.05c.4142 0 .75.3358.75.75v5.5c0 .4143-.3358.75-.75.75s-.75-.3357-.75-.75v-5.5c0-.4142.3358-.75.75-.75Zm4.75-2.55c0-.41421-.3358-.75-.75-.75s-.75.33579-.75.75v8.8c0 .4142.3358.75.75.75s.75-.3358.75-.75V7.5Z"/>
</svg>
