<svg width="24" height="24" viewBox="0 0 24 24" fill="none" xmlns="http://www.w3.org/2000/svg">
<path d="M3 17V7C3 4.8 4.8 3 7 3H17C19.2 3 21 4.8 21 7V17C21 19.2 19.2 21 17 21H7C4.7 21 3 19.2 3 17Z" fill="black"/>
<path fill-rule="evenodd" clip-rule="evenodd" d="M7 3.75C5.21421 3.75 3.75 5.21421 3.75 7V17C3.75 18.7981 5.12646 20.25 7 20.25H17C18.7858 20.25 20.25 18.7858 20.25 17V7C20.25 5.21421 18.7858 3.75 17 3.75H7ZM2.25 7C2.25 4.38579 4.38579 2.25 7 2.25H17C19.6142 2.25 21.75 4.38579 21.75 7V17C21.75 19.6142 19.6142 21.75 17 21.75H7C4.27354 21.75 2.25 19.6019 2.25 17V7Z" fill="black"/>
<path fill-rule="evenodd" clip-rule="evenodd" d="M8 13.25C8.41421 13.25 8.75 13.5858 8.75 14V16.3C8.75 16.7142 8.41421 17.05 8 17.05C7.58579 17.05 7.25 16.7142 7.25 16.3V14C7.25 13.5858 7.58579 13.25 8 13.25Z" fill="white"/>
<path fill-rule="evenodd" clip-rule="evenodd" d="M12 10.05C12.4142 10.05 12.75 10.3858 12.75 10.8V16.3C12.75 16.7143 12.4142 17.05 12 17.05C11.5858 17.05 11.25 16.7143 11.25 16.3V10.8C11.25 10.3858 11.5858 10.05 12 10.05Z" fill="white"/>
<path fill-rule="evenodd" clip-rule="evenodd" d="M16 6.75C16.4142 6.75 16.75 7.08579 16.75 7.5V16.3C16.75 16.7142 16.4142 17.05 16 17.05C15.5858 17.05 15.25 16.7142 15.25 16.3V7.5C15.25 7.08579 15.5858 6.75 16 6.75Z" fill="white"/>
</svg>
