<svg width="24" height="24" viewBox="0 0 24 24" fill="none" xmlns="http://www.w3.org/2000/svg">
<path d="M14.8 20.8H8.8C5.5 20.8 2.8 18.1 2.8 14.8V8.80005C2.8 5.50005 5.5 2.80005 8.8 2.80005H14.8C18.1 2.80005 20.8 5.50005 20.8 8.80005V14.8C20.8 18.1 18.1 20.8 14.8 20.8Z" fill="black"/>
<path fill-rule="evenodd" clip-rule="evenodd" d="M8.8 3.55005C5.91422 3.55005 3.55 5.91426 3.55 8.80005V14.8C3.55 17.6858 5.91422 20.05 8.8 20.05H14.8C17.6858 20.05 20.05 17.6858 20.05 14.8V8.80005C20.05 5.91426 17.6858 3.55005 14.8 3.55005H8.8ZM2.05 8.80005C2.05 5.08584 5.08579 2.05005 8.8 2.05005H14.8C18.5142 2.05005 21.55 5.08584 21.55 8.80005V14.8C21.55 18.5143 18.5142 21.55 14.8 21.55H8.8C5.08579 21.55 2.05 18.5143 2.05 14.8V8.80005Z" fill="black"/>
<path fill-rule="evenodd" clip-rule="evenodd" d="M16.2354 8.57484C16.5254 8.87051 16.5209 9.34536 16.2253 9.63545L10.9274 14.8333C10.7456 15.0142 10.4671 15.2001 10.1 15.2001C9.73093 15.2001 9.45142 15.0122 9.26967 14.8304L9.23523 14.796L7.20553 12.1574C6.95298 11.8291 7.0144 11.3582 7.34272 11.1056C7.67103 10.8531 8.14192 10.9145 8.39447 11.2428L10.1367 13.5077L15.1747 8.56474C15.4704 8.27465 15.9453 8.27917 16.2354 8.57484Z" fill="white"/>
</svg>
