<svg xmlns="http://www.w3.org/2000/svg" viewBox="0 0 24 24" fill="currentColor">
  <path d="M12 3.75c-4.58579 0-8.25 3.66421-8.25 8.25 0 4.5858 3.66421 8.25 8.25 8.25 4.4858 0 8.25-3.7642 8.25-8.25 0-4.58579-3.6642-8.25-8.25-8.25ZM2.25 12c0-5.41421 4.33579-9.75 9.75-9.75 5.4142 0 9.75 4.33579 9.75 9.75 0 5.3142-4.4358 9.75-9.75 9.75-5.41421 0-9.75-4.3358-9.75-9.75Z"/>
  <path d="M16.4354 8.77473c.29.29567.2855.77052-.0101 1.06061l-5.2979 5.19796c-.1819.1808-.4603.3667-.8274.3667-.36909 0-.6486-.1879-.83035-.3697l-.03444-.0344-2.0297-2.6386c-.25255-.3283-.19113-.7992.13718-1.0517.32831-.2526.7992-.1912 1.05175.1371l1.74226 2.2649 5.038-4.94297c.2957-.29009.7706-.28557 1.0607.0101Z"/>
</svg>
