<svg xmlns="http://www.w3.org/2000/svg" fill="none" viewBox="0 0 24 24">
  <path fill="#000" d="M11.8 20.8c-5 0-9-4-9-9s4-9 9-9 9 4 9 9c0 4.9-4.1 9-9 9Z"/>
  <path fill="#000" fill-rule="evenodd" d="M11.8 3.55a8.213 8.213 0 0 0-8.25 8.25 8.213 8.213 0 0 0 8.25 8.25c4.486 0 8.25-3.764 8.25-8.25a8.213 8.213 0 0 0-8.25-8.25ZM2.05 11.8a9.713 9.713 0 0 1 9.75-9.75 9.713 9.713 0 0 1 9.75 9.75c0 5.314-4.436 9.75-9.75 9.75a9.713 9.713 0 0 1-9.75-9.75Z" clip-rule="evenodd"/>
  <path fill="#fff" fill-rule="evenodd" d="M16.235 8.575a.75.75 0 0 1-.01 1.06l-5.298 5.198c-.181.181-.46.367-.827.367-.37 0-.649-.188-.83-.37l-.035-.034-2.03-2.639a.75.75 0 0 1 1.19-.914l1.742 2.265 5.038-4.943a.75.75 0 0 1 1.06.01Z" clip-rule="evenodd"/>
</svg>
