<svg xmlns="http://www.w3.org/2000/svg" viewBox="0 0 24 24" fill="currentColor">
  <path d="M3.75 9c0-2.88579 2.36421-5.25 5.25-5.25h6c2.8858 0 5.25 2.36421 5.25 5.25v6c0 2.8858-2.3642 5.25-5.25 5.25H9c-2.88579 0-5.25-2.3642-5.25-5.25V9ZM9 2.25C5.28579 2.25 2.25 5.28579 2.25 9v6c0 3.7142 3.03579 6.75 6.75 6.75h6c3.7142 0 6.75-3.0358 6.75-6.75V9c0-3.71421-3.0358-6.75-6.75-6.75H9Zm7.4253 7.58528c.2956-.29009.3001-.76494.0101-1.06061-.2901-.29567-.765-.30019-1.0607-.0101l-5.038 4.94303-1.74226-2.2649c-.25255-.3283-.72343-.3898-1.05175-.1372-.32831.2526-.38973.7234-.13718 1.0517l2.0297 2.6386.03444.0345c.18175.1817.46126.3696.83035.3696.3671 0 .6455-.1859.8274-.3667l5.2979-5.19792Z"/>
</svg>
