<svg width="24" height="24" viewBox="0 0 24 24" fill="none" xmlns="http://www.w3.org/2000/svg">
<path d="M11.8 20.8C6.8 20.8 2.8 16.8 2.8 11.8C2.8 6.80005 6.8 2.80005 11.8 2.80005C16.8 2.80005 20.8 6.80005 20.8 11.8C20.8 16.7 16.7 20.8 11.8 20.8Z" fill="black"/>
<path fill-rule="evenodd" clip-rule="evenodd" d="M11.8 3.55005C7.21422 3.55005 3.55 7.21426 3.55 11.8C3.55 16.3858 7.21422 20.05 11.8 20.05C16.2858 20.05 20.05 16.2858 20.05 11.8C20.05 7.21426 16.3858 3.55005 11.8 3.55005ZM2.05 11.8C2.05 6.38584 6.38579 2.05005 11.8 2.05005C17.2142 2.05005 21.55 6.38584 21.55 11.8C21.55 17.1143 17.1142 21.55 11.8 21.55C6.38579 21.55 2.05 17.2143 2.05 11.8Z" fill="black"/>
<path fill-rule="evenodd" clip-rule="evenodd" d="M16.2354 8.57484C16.5255 8.87051 16.5209 9.34536 16.2253 9.63545L10.9274 14.8333C10.7456 15.0142 10.4671 15.2001 10.1 15.2001C9.73094 15.2001 9.45143 15.0122 9.26968 14.8304L9.23524 14.796L7.20554 12.1574C6.95299 11.8291 7.01441 11.3582 7.34273 11.1056C7.67104 10.8531 8.14193 10.9145 8.39448 11.2428L10.1367 13.5077L15.1748 8.56474C15.4704 8.27465 15.9453 8.27917 16.2354 8.57484Z" fill="white"/>
</svg>
