<svg xmlns="http://www.w3.org/2000/svg" viewBox="0 0 24 25" fill="currentColor">
  <path fill-rule="evenodd" d="M10.6389 14.0036s-.0006-.0001-.0018-.0005l.0018.0005Zm-.1402-.0023H6.08683c-.41422 0-.75-.3358-.75-.75s.33578-.75.75-.75h4.52547c.3745 0 .7547.1258 1.0341.4053.2709.2708.4036.6472.3523 1.04v4.4666c0 .4142-.3358.75-.75.75s-.75-.3358-.75-.75v-4.4119Z" clip-rule="evenodd"/>
  <path fill-rule="evenodd" d="M14.8815 9.76098c0 .00003-.0006-.0001-.0018-.00047l.0018.00047Zm-.1402-.00232h-4.4118c-.41425 0-.75004-.33578-.75004-.75 0-.41421.33579-.75.75004-.75h4.5254c.3745 0 .7547.12583 1.0342.40528.2708.27086.4035.64719.3522 1.04003v4.46653c0 .4143-.3357.75-.75.75-.4142 0-.75-.3357-.75-.75V9.75866Z" clip-rule="evenodd"/>
</svg>
