<svg xmlns="http://www.w3.org/2000/svg" viewBox="0 0 24 24" fill="currentColor">
  <path fill-rule="evenodd" d="M20.25 12c0-4.55635-3.6937-8.25-8.25-8.25-4.55635 0-8.25 3.69365-8.25 8.25 0 4.5563 3.69365 8.25 8.25 8.25 4.5563 0 8.25-3.6937 8.25-8.25ZM12 2.25c5.3848 0 9.75 4.36522 9.75 9.75 0 5.3848-4.3652 9.75-9.75 9.75-5.38478 0-9.75-4.3652-9.75-9.75 0-5.38478 4.36522-9.75 9.75-9.75Z" clip-rule="evenodd"/>
  <path fill-rule="evenodd" d="M12.1007 11.0257c.0001 0-.0005.0004-.0015.0009l.0015-.0009ZM12 11.1232l-3.11966 3.1196c-.29289.2929-.76777.2929-1.06066 0-.2929-.2929-.2929-.7677-.00001-1.0606l3.20003-3.20003c.2648-.2648.6226-.44467 1.0178-.44467.383 0 .7429.1723.9845.4863l3.1583 3.1584c.2929.2929.2929.7677 0 1.0606-.2929.2929-.7677.2929-1.0606 0L12 11.1232Z" clip-rule="evenodd"/>
</svg>
