<svg xmlns="http://www.w3.org/2000/svg" viewBox="0 0 24 24" fill="currentColor">
  <path d="M20.25 12c0-4.55635-3.6937-8.25-8.25-8.25-4.55635 0-8.25 3.69365-8.25 8.25 0 4.5563 3.69365 8.25 8.25 8.25 4.5563 0 8.25-3.6937 8.25-8.25ZM12 2.25c5.3848 0 9.75 4.36522 9.75 9.75 0 5.3848-4.3652 9.75-9.75 9.75-5.38478 0-9.75-4.3652-9.75-9.75 0-5.38478 4.36522-9.75 9.75-9.75Z"/>
  <path d="M7.81968 9.75717c.29289-.29289.76776-.29289 1.06066 0L12 12.8768l3.1197-3.11963c.2929-.29289.7677-.29289 1.0606 0 .2929.29293.2929.76773 0 1.06063l-3.2 3.2c-.2648.2648-.6226.4447-1.0178.4447-.383 0-.743-.1723-.9845-.4863l-3.15832-3.1584c-.2929-.2929-.2929-.7677 0-1.06063Zm4.07962 3.21713c-.0001 0 .0005-.0004.0015-.0009l-.0015.0009Z"/>
</svg>
