<svg xmlns="http://www.w3.org/2000/svg" viewBox="0 0 24 25" fill="currentColor">
  <path fill-rule="evenodd" d="M11.296 5.87227c.4141.00658.7445.34765.738.76181l-.0707 4.44972c-.0015.3722-.1275.7495-.4052 1.0273-.2693.2692-.6427.4019-1.0329.3532l-4.39113.0697c-.41416.0065-.75523-.3239-.76181-.738-.00657-.4142.32385-.7553.73801-.7618l4.35473-.0692.0691-4.35473c.0066-.41416.3477-.74457.7619-.738Zm-.835 5.23123s.0001-.0006.0005-.0017l-.0005.0017Z" clip-rule="evenodd"/>
  <path fill-rule="evenodd" d="M15.5386 10.1149c.4142.0066.7446.3477.738.7618l-.0706 4.4497c-.0016.3723-.1276.7496-.4053 1.0273-.2692.2692-.6426.4019-1.0329.3532l-4.3911.0697c-.41415.0066-.75522-.3238-.7618-.738-.00657-.4142.32384-.7552.738-.7618l4.3548-.0691.0691-4.3548c.0066-.4141.3476-.7446.7618-.738Zm-.8349 5.2313c-.0001-.0001.0001-.0007.0004-.0018l-.0004.0018Z" clip-rule="evenodd"/>
</svg>
