<svg xmlns="http://www.w3.org/2000/svg" viewBox="0 0 24 24" fill="currentColor">
  <path d="M20.25 12c0-4.55635-3.6937-8.25-8.25-8.25-4.55635 0-8.25 3.69365-8.25 8.25 0 4.5563 3.69365 8.25 8.25 8.25 4.5563 0 8.25-3.6937 8.25-8.25ZM12 2.25c5.3848 0 9.75 4.36522 9.75 9.75 0 5.3848-4.3652 9.75-9.75 9.75-5.38478 0-9.75-4.3652-9.75-9.75 0-5.38478 4.36522-9.75 9.75-9.75Z"/>
  <path d="M9.75718 7.81967c.29292-.29289.76772-.29289 1.06062 0l3.2 3.20003c.2648.2648.4447.6226.4447 1.0178 0 .3831-.1723.743-.4863.9845l-3.1584 3.1583c-.2929.2929-.7677.2929-1.06062 0-.2929-.2929-.2929-.7677-.00001-1.0606L12.8768 12 9.75717 8.88033c-.29289-.29289-.29289-.76777.00001-1.06066Zm3.21712 4.28113s-.0004-.0006-.0009-.0016l.0009.0016Z"/>
</svg>
