<svg xmlns="http://www.w3.org/2000/svg" viewBox="0 0 24 24" fill="currentColor">
  <path fill-rule="evenodd" d="M17.2428 7.81967c.2929.29289.2929.76777 0 1.06066L14.1232 12l3.1196 3.1197c.2929.2929.2929.7677 0 1.0606-.2929.2929-.7677.2929-1.0606 0l-3.2-3.2c-.2648-.2648-.4447-.6226-.4447-1.0178 0-.3831.1723-.743.4863-.9845l3.1584-3.15833c.2929-.29289.7677-.29289 1.0606 0Zm-3.2171 4.07953s.0004.0006.0009.0016l-.0009-.0016Z" clip-rule="evenodd"/>
  <path fill-rule="evenodd" d="M11.2428 7.81967c.2929.29289.2929.76777 0 1.06066L8.12316 12l3.11964 3.1197c.2929.2929.2929.7677 0 1.0606-.2929.2929-.7677.2929-1.0606 0l-3.20003-3.2c-.2648-.2648-.44467-.6226-.44467-1.0178 0-.3831.1723-.743.48633-.9845l3.15837-3.15833c.2929-.29289.7677-.29289 1.0606 0ZM8.02568 11.8992c.00003 0 .00037.0006.00092.0016l-.00092-.0016Z" clip-rule="evenodd"/>
</svg>
