<svg xmlns="http://www.w3.org/2000/svg" viewBox="0 0 24 24" fill="currentColor">
  <path fill-rule="evenodd" d="M20.25 12c0-4.55635-3.6937-8.25-8.25-8.25-4.55635 0-8.25 3.69365-8.25 8.25 0 4.5563 3.69365 8.25 8.25 8.25 4.5563 0 8.25-3.6937 8.25-8.25ZM12 2.25c5.3848 0 9.75 4.36522 9.75 9.75 0 5.3848-4.3652 9.75-9.75 9.75-5.38478 0-9.75-4.3652-9.75-9.75 0-5.38478 4.36522-9.75 9.75-9.75Z" clip-rule="evenodd"/>
  <path fill-rule="evenodd" d="M14.2428 7.81967c.2929.2929.2929.76777 0 1.06066L11.1232 12l3.1196 3.1197c.2929.2929.2929.7677 0 1.0606-.2929.2929-.7677.2929-1.0606 0l-3.20004-3.2.53034-.5303m0 0-.53034.5303c-.2648-.2648-.44467-.6226-.44467-1.0178 0-.3831.1723-.743.48631-.9845l3.1584-3.15833c.2929-.29289.7677-.29289 1.0606 0m-3.2171 4.07953s.0003.0006.0009.0016l-.0009-.0016Z" clip-rule="evenodd"/>
</svg>
