<svg xmlns="http://www.w3.org/2000/svg" viewBox="0 0 24 24" fill="currentColor">
  <path d="M12.1008 14.0257s-.0006.0004-.0016.0009l.0016-.0009ZM12 14.1232l-3.11967 3.1196c-.29289.2929-.76777.2929-1.06066 0s-.29289-.7677 0-1.0606l3.20003-3.2c.2648-.2648.6226-.4447 1.0178-.4447.383 0 .7429.1723.9845.4863l3.1583 3.1584c.2929.2929.2929.7677 0 1.0606-.2929.2929-.7677.2929-1.0606 0L12 14.1232Z"/>
  <path d="M12.1008 8.02568c0 .00003-.0006.00037-.0016.00092l.0016-.00092ZM12 8.12316 8.88033 11.2428c-.29289.2929-.76777.2929-1.06066 0s-.29289-.7677 0-1.0606l3.20003-3.20003c.2648-.2648.6226-.44467 1.0178-.44467.383 0 .7429.1723.9845.48633l3.1583 3.15837c.2929.2929.2929.7677 0 1.0606-.2929.2929-.7677.2929-1.0606 0L12 8.12316Z"/>
</svg>
