<svg xmlns="http://www.w3.org/2000/svg" viewBox="0 0 24 24" fill="currentColor">
  <path d="M16.8803 5.86969c.2929.2929.2929.76777 0 1.06066l-4.8999 4.89995L11.45 11.3l.5304.5303c-.0639.0639-.0804.1249-.0804.1697 0 .0448.0165.1058.0804.1697L11.45 12.7l.5304-.5303 4.8999 4.9c.2929.2929.2929.7677 0 1.0606-.2929.2929-.7678.2929-1.0606 0l-4.9-4.9c-.6929-.6929-.6929-1.7677 0-2.4606l4.9-4.9c.2928-.2929.7677-.2929 1.0606-.00001Z"/>
  <path d="M7.65002 5.25c.41422 0 .75.33579.75.75v12c0 .4142-.33578.75-.75.75-.41421 0-.75-.3358-.75-.75V6c0-.41421.33579-.75.75-.75Z"/>
</svg>
