<svg xmlns="http://www.w3.org/2000/svg" viewBox="0 0 24 25" fill="currentColor">
  <path d="M12.7513 5.83682c.4142 0 .75.33579.75.75v4.41188h4.4119c.4142 0 .75.3358.75.75s-.3358.75-.75.75h-4.5255c-.3745 0-.7547-.1258-1.0341-.4053-.2709-.2708-.4036-.6472-.3523-1.04V6.58682c0-.41421.3358-.75.75-.75Zm.6098 5.15958s.0007.0001.0018.0005l-.0018-.0005Z"/>
  <path d="M8.50866 10.0795c.41421 0 .75.3357.75.75v4.4118h4.41184c.4143 0 .75.3358.75.75 0 .4143-.3357.75-.75.75H9.14506c-.37449 0-.75469-.1258-1.03415-.4052-.27085-.2709-.40351-.6472-.35225-1.0401v-4.4665c0-.4143.33579-.75.75-.75Zm.60982 5.1595c.00002 0 .00063.0001.00178.0005l-.00178-.0005Z"/>
</svg>
