<svg xmlns="http://www.w3.org/2000/svg" viewBox="0 0 24 24" fill="currentColor">
  <path fill-rule="evenodd" d="M9 3.75C6.10602 3.75 3.75 6.02236 3.75 9v6c0 2.8858 2.36421 5.25 5.25 5.25h6c2.8858 0 5.25-2.3642 5.25-5.25V9c0-2.88579-2.3642-5.25-5.25-5.25H9ZM2.25 9c0-3.82236 3.04398-6.75 6.75-6.75h6c3.7142 0 6.75 3.03579 6.75 6.75v6c0 3.7142-3.0358 6.75-6.75 6.75H9c-3.71421 0-6.75-3.0358-6.75-6.75V9Z" clip-rule="evenodd"/>
  <path fill-rule="evenodd" d="M12.1007 11.0257c.0001 0-.0005.0003-.0015.0009l.0015-.0009ZM12 11.1232l-3.11966 3.1196c-.29289.2929-.76777.2929-1.06066 0-.2929-.2929-.2929-.7677-.00001-1.0606l3.20003-3.20003c.2648-.2648.6226-.44467 1.0178-.44467.383 0 .7429.1723.9845.4863l3.1583 3.1584c.2929.2929.2929.7677 0 1.0606-.2929.2929-.7677.2929-1.0606 0L12 11.1232Z" clip-rule="evenodd"/>
</svg>
