<svg xmlns="http://www.w3.org/2000/svg" viewBox="0 0 24 24" fill="currentColor">
  <path fill-rule="evenodd" d="M18.1303 16.8803c-.2929.2929-.7678.2929-1.0607 0l-4.8999-4.8999.5303-.5304-.5303.5304c-.0639-.0639-.1249-.0804-.1697-.0804-.0448 0-.1058.0165-.1697.0804L11.3 11.45l.5303.5304-4.89998 4.8999c-.29289.2929-.76777.2929-1.06066 0s-.29289-.7678 0-1.0606l4.90004-4.9c.6929-.6929 1.7677-.6929 2.4606 0l4.9 4.9c.2929.2928.2929.7677 0 1.0606Z" clip-rule="evenodd"/>
  <path fill-rule="evenodd" d="M18.75 7.65002c0 .41422-.3358.75-.75.75H6c-.41421 0-.75-.33578-.75-.75 0-.41421.33579-.75.75-.75h12c.4142 0 .75.33579.75.75Z" clip-rule="evenodd"/>
</svg>
