<svg xmlns="http://www.w3.org/2000/svg" viewBox="0 0 24 25" fill="currentColor">
  <path fill-rule="evenodd" d="M18.6632 13.2513c0 .4142-.3358.75-.75.75h-4.4119v4.4119c0 .4142-.3358.75-.75.75s-.75-.3358-.75-.75v-4.5255c0-.3745.1258-.7547.4053-1.0341.2708-.2709.6472-.4036 1.04-.3523h4.4666c.4142 0 .75.3358.75.75Zm-5.1596.6098c.0001 0-.0001.0007-.0004.0018l.0004-.0018Z" clip-rule="evenodd"/>
  <path fill-rule="evenodd" d="M14.4205 9.00866c0 .41421-.3357.75-.75.75H9.25866v4.41184c0 .4143-.33578.75-.75.75-.41421 0-.75-.3357-.75-.75V9.64506c0-.37449.12583-.75469.40529-1.03415.27086-.27085.64719-.40351 1.04003-.35225h4.46652c.4143 0 .75.33579.75.75Zm-5.15952.60982c.00003.00002-.0001.00063-.00047.00178l.00047-.00178Z" clip-rule="evenodd"/>
</svg>
