<svg xmlns="http://www.w3.org/2000/svg" viewBox="0 0 24 24" fill="currentColor">
  <path fill-rule="evenodd" d="M6.81566 7.81132c.2975-.28821.77231-.28067 1.06052.01683l3.09642 3.19635c.2622.2643.4399.6202.4399 1.013 0 .3807-.1702.7386-.4806.9801l-3.05572 3.1542c-.28821.2976-.76302.3051-1.06052.0169-.29751-.2882-.30505-.763-.01684-1.0605L9.82922 12l-3.0304-3.12815c-.28821-.29751-.28067-.77232.01684-1.06053Zm3.10867 4.28948c-.00004 0-.00038-.0006-.00093-.0016l.00093.0016Z" clip-rule="evenodd"/>
  <path fill-rule="evenodd" d="M12.8157 7.81132c.2975-.28821.7723-.28067 1.0605.01683l3.0964 3.19635c.2622.2643.4399.6202.4399 1.013 0 .3807-.1702.7386-.4806.9801l-3.0557 3.1542c-.2882.2976-.763.3051-1.0605.0169s-.3051-.763-.0169-1.0605L15.8292 12l-3.0304-3.12815c-.2882-.29751-.2806-.77232.0169-1.06053Zm3.1086 4.28948s-.0004-.0006-.0009-.0016l.0009.0016Z" clip-rule="evenodd"/>
</svg>
