<svg xmlns="http://www.w3.org/2000/svg" viewBox="0 0 24 24" fill="currentColor">
  <path d="M9 3.75C6.11421 3.75 3.75 6.11421 3.75 9v6c0 2.8858 2.36421 5.25 5.25 5.25h6c2.8858 0 5.25-2.3642 5.25-5.25V9c0-2.88579-2.3642-5.25-5.25-5.25H9ZM2.25 9c0-3.71421 3.03579-6.75 6.75-6.75h6c3.7142 0 6.75 3.03579 6.75 6.75v6c0 3.7142-3.0358 6.75-6.75 6.75H9c-3.71421 0-6.75-3.0358-6.75-6.75V9Z"/>
  <path d="M7.81968 9.75717c.29289-.29289.76776-.29289 1.06066 0L12 12.8768l3.1197-3.11963c.2929-.29289.7677-.29289 1.0606 0 .2929.29293.2929.76773 0 1.06063l-3.2 3.2c-.2648.2648-.6226.4447-1.0178.4447-.383 0-.743-.1723-.9845-.4863l-3.15832-3.1584c-.2929-.2929-.2929-.7677 0-1.06063Zm4.07962 3.21713c-.0001 0 .0005-.0004.0015-.0009l-.0015.0009Z"/>
</svg>
