<svg xmlns="http://www.w3.org/2000/svg" viewBox="0 0 24 24" fill="currentColor">
  <path fill-rule="evenodd" d="M9 3.75C6.11421 3.75 3.75 6.11421 3.75 9v6c0 2.8858 2.36421 5.25 5.25 5.25h6c2.8858 0 5.25-2.3642 5.25-5.25V9c0-2.97764-2.356-5.25-5.25-5.25H9ZM2.25 9c0-3.71421 3.03579-6.75 6.75-6.75h6c3.706 0 6.75 2.92764 6.75 6.75v6c0 3.7142-3.0358 6.75-6.75 6.75H9c-3.71421 0-6.75-3.0358-6.75-6.75V9Z" clip-rule="evenodd"/>
  <path fill-rule="evenodd" d="M9.75718 7.81967c.29292-.2929.76772-.29289 1.06062 0l3.2 3.20003c.2648.2648.4447.6226.4447 1.0178 0 .383-.1723.743-.4863.9845l-3.1584 3.1583c-.2929.2929-.7677.2929-1.06062 0-.2929-.2929-.2929-.7677-.00001-1.0606L12.8768 12 9.75717 8.88033c-.29289-.2929-.29289-.76777.00001-1.06066Zm3.21712 4.28113s-.0004-.0006-.0009-.0016l.0009.0016Z" clip-rule="evenodd"/>
</svg>
