<svg xmlns="http://www.w3.org/2000/svg" viewBox="0 0 24 24" fill="currentColor">
  <path d="M9 3.75C6.11421 3.75 3.75 6.11421 3.75 9v6c0 2.8858 2.36421 5.25 5.25 5.25h6c2.8858 0 5.25-2.3642 5.25-5.25V9c0-2.88579-2.3642-5.25-5.25-5.25H9ZM2.25 9c0-3.71421 3.03579-6.75 6.75-6.75h6c3.7142 0 6.75 3.03579 6.75 6.75v6c0 3.7142-3.0358 6.75-6.75 6.75H9c-3.71421 0-6.75-3.0358-6.75-6.75V9Z"/>
  <path d="M14.2428 7.81967c.2929.29289.2929.76777 0 1.06066L11.1232 12l3.1196 3.1197c.2929.2929.2929.7677 0 1.0606-.2929.2929-.7677.2929-1.0606 0l-3.20004-3.2.53034-.5303m0 0-.53034.5303c-.2648-.2648-.44467-.6226-.44467-1.0178 0-.3831.1723-.743.48631-.9845l3.1584-3.15833c.2929-.2929.7677-.29289 1.0606 0m-3.2171 4.07953s.0003.0006.0009.0016l-.0009-.0016Z"/>
</svg>
