<svg xmlns="http://www.w3.org/2000/svg" viewBox="0 0 24 24" fill="currentColor">
  <path fill-rule="evenodd" d="M7.11968 18.1303c-.29289-.2929-.29289-.7678 0-1.0607l4.89992-4.8999.5304.5303-.5304-.5303c.0639-.0639.0804-.1249.0804-.1697 0-.0448-.0165-.1058-.0804-.1697L12.55 11.3l-.5304.5303-4.89992-4.89998c-.29289-.29289-.29289-.76777 0-1.06066.2929-.29289.76777-.29289 1.06066 0l4.89996 4.90004c.6929.6929.6929 1.7677 0 2.4606l-4.89996 4.9c-.29289.2929-.76776.2929-1.06066 0Z" clip-rule="evenodd"/>
  <path fill-rule="evenodd" d="M16.35 18.75c-.4142 0-.75-.3358-.75-.75V6c0-.41421.3358-.75.75-.75s.75.33579.75.75v12c0 .4142-.3358.75-.75.75Z" clip-rule="evenodd"/>
</svg>
