<svg xmlns="http://www.w3.org/2000/svg" viewBox="0 0 24 24" fill="currentColor">
  <path fill-rule="evenodd" d="M5.86969 7.11968c.2929-.29289.76777-.29289 1.06066 0l4.89995 4.89992-.5303.5304.5303-.5304c.0639.0639.1249.0804.1697.0804.0448 0 .1058-.0165.1697-.0804l.5303.5304-.5303-.5304 4.9-4.89992c.2929-.29289.7677-.29289 1.0606 0 .2929.2929.2929.76777 0 1.06066l-4.9 4.89996c-.6929.6929-1.7677.6929-2.4606 0l-4.9-4.89996c-.2929-.29289-.2929-.76776-.00001-1.06066Z" clip-rule="evenodd"/>
  <path fill-rule="evenodd" d="M5.25 16.35c0-.4142.33579-.75.75-.75h12c.4142 0 .75.3358.75.75s-.3358.75-.75.75H6c-.41421 0-.75-.3358-.75-.75Z" clip-rule="evenodd"/>
</svg>
