<svg xmlns="http://www.w3.org/2000/svg" viewBox="0 0 24 24" fill="currentColor">
  <path fill-rule="evenodd" d="M7.81967 6.75717c.29289-.29289.76777-.29289 1.06066 0L12 9.87684l3.1197-3.11967c.2929-.29289.7677-.29289 1.0606 0 .2929.29289.2929.76777 0 1.06066l-3.2 3.19997c-.2648.2648-.6226.4447-1.0178.4447-.3831 0-.743-.1723-.9845-.4863L7.81967 7.81783c-.29289-.29289-.29289-.76777 0-1.06066Zm4.07953 3.21715c0-.00003.0006-.00037.0016-.00092l-.0016.00092Z" clip-rule="evenodd"/>
  <path fill-rule="evenodd" d="M7.81967 12.7572c.29289-.2929.76777-.2929 1.06066 0L12 15.8768l3.1197-3.1196c.2929-.2929.7677-.2929 1.0606 0 .2929.2929.2929.7677 0 1.0606l-3.2 3.2c-.2648.2648-.6226.4447-1.0178.4447-.3831 0-.743-.1723-.9845-.4863l-3.15833-3.1584c-.29289-.2929-.29289-.7677 0-1.0606Zm4.07953 3.2171s.0006-.0004.0016-.0009l-.0016.0009Z" clip-rule="evenodd"/>
</svg>
