<svg xmlns="http://www.w3.org/2000/svg" viewBox="0 0 24 24" fill="currentColor">
  <path d="M10.75 3.5c0-.41421-.3358-.75-.75-.75-.41421 0-.75.33579-.75.75v1.75H9C6.88579 5.25 5.25 6.88579 5.25 9v.25H3.5c-.41421 0-.75.33579-.75.75 0 .4142.33579.75.75.75h1.75v2.5H3.5c-.41421 0-.75.3358-.75.75s.33579.75.75.75h1.75V15c0 1.9979 1.61963 3.75 3.75 3.75h.25v1.75c0 .4142.33579.75.75.75.4142 0 .75-.3358.75-.75v-1.75h2.5v1.75c0 .4142.3358.75.75.75s.75-.3358.75-.75v-1.75H15c2.1142 0 3.75-1.6358 3.75-3.75v-.25h1.75c.4142 0 .75-.3358.75-.75s-.3358-.75-.75-.75h-1.75v-2.5h1.75c.4142 0 .75-.3358.75-.75 0-.41421-.3358-.75-.75-.75h-1.75V9c0-2.11421-1.6358-3.75-3.75-3.75h-.25V3.5c0-.41421-.3358-.75-.75-.75s-.75.33579-.75.75v1.75h-2.5V3.5Zm6.5 10.5V9c0-1.28579-.9642-2.25-2.25-2.25H9c-1.28579 0-2.25.96421-2.25 2.25v6c0 1.2021.98037 2.25 2.25 2.25h6c1.2858 0 2.25-.9642 2.25-2.25v-1Z"/>
</svg>
