<svg xmlns="http://www.w3.org/2000/svg" viewBox="0 0 24 24" fill="currentColor">
  <path d="M12 3.75c-.8179 0-1.6064.11655-2.3501.3341V11.25H20.217c-.374-4.22888-3.8842-7.5-8.217-7.5Zm8.217 9H9.6499v7.1579c.7439.2223 1.5325.3421 2.3501.3421 4.3328 0 7.843-3.2711 8.217-7.5ZM3.75 12c0-3.19154 1.77482-5.9367 4.3999-7.31094V19.2914C5.52636 17.895 3.75 15.1248 3.75 12Zm-1.5 0c0-5.41421 4.33579-9.75 9.75-9.75 5.4142 0 9.75 4.33579 9.75 9.75 0 5.4142-4.3358 9.75-9.75 9.75-5.41962 0-9.75-4.4412-9.75-9.75Z"/>
</svg>
