<svg xmlns="http://www.w3.org/2000/svg" viewBox="0 0 24 24" fill="currentColor">
  <path d="M3.75 12c0-4.55635 3.69365-8.25 8.25-8.25 4.5563 0 8.25 3.69365 8.25 8.25 0 1.5546-.43 3.0087-1.1775 4.25H4.92749C4.17998 15.0087 3.75 13.5546 3.75 12Zm.21779 5.5284C5.72636 20.0786 8.66799 21.75 12 21.75c5.3848 0 9.75-4.3652 9.75-9.75 0-5.38478-4.3652-9.75-9.75-9.75-5.38478 0-9.75 4.36522-9.75 9.75 0 1.9493.57207 3.7651 1.55748 5.2885.03766.0903.09245.1716.16031.2399Zm2.11612.2216H17.9161c-1.499 1.542-3.5957 2.5-5.9161 2.5-2.32042 0-4.41709-.958-5.91609-2.5Z"/>
</svg>
