<svg xmlns="http://www.w3.org/2000/svg" viewBox="0 0 24 24" fill="currentColor">
  <path d="M4.68906 8.1499C6.0633 5.52482 8.80846 3.75 12 3.75c3.1915 0 5.9367 1.77482 7.3109 4.3999H4.68906Zm-.60496 1.5C3.86655 10.3936 3.75 11.1821 3.75 12c0 .7449.09667 1.4654.27827 2.1499H11.25v-4.5H4.0841Zm7.1659 6H4.58773c1.23401 2.5232 3.71564 4.3065 6.66227 4.5671v-4.5671Zm1.5.009 6.6187.0788c-1.2482 2.4767-3.7063 4.2217-6.6187 4.4793v-4.5581Zm7.1961-1.4145-7.1961-.0857V9.6499h7.1659c.2175.7437.3341 1.5322.3341 2.3501 0 .7792-.1058 1.5319-.3039 2.2444ZM12 2.25c-5.41421 0-9.75 4.33579-9.75 9.75 0 5.4142 4.33579 9.75 9.75 9.75 5.4142 0 9.75-4.3358 9.75-9.75 0-5.41421-4.3358-9.75-9.75-9.75Z"/>
</svg>
