<svg width="24" height="24" viewBox="0 0 24 24" fill="none" xmlns="http://www.w3.org/2000/svg">
<path fill-rule="evenodd" clip-rule="evenodd" d="M12 3.75C11.1821 3.75 10.3936 3.86655 9.6499 4.0841V11.25H20.217C19.843 7.02112 16.3328 3.75 12 3.75ZM20.217 12.75H9.6499V19.9079C10.3938 20.1302 11.1824 20.25 12 20.25C16.3328 20.25 19.843 16.9789 20.217 12.75ZM3.75 12C3.75 8.80846 5.52482 6.0633 8.1499 4.68906V19.2914C5.52636 17.895 3.75 15.1248 3.75 12ZM2.25 12C2.25 6.58579 6.58579 2.25 12 2.25C17.4142 2.25 21.75 6.58579 21.75 12C21.75 17.4142 17.4142 21.75 12 21.75C6.58038 21.75 2.25 17.3088 2.25 12Z" fill="black"/>
</svg>
