<svg xmlns="http://www.w3.org/2000/svg" viewBox="0 0 24 24" fill="currentColor">
  <path d="M3.78299 11.25C4.13521 7.26801 7.26801 4.13521 11.25 3.78299V11.25H3.78299Zm.00131 1.5c.35888 3.909 3.49261 7.1055 7.4657 7.4661V12.75H3.7843Zm8.9657 0v7.467c3.982-.3522 7.1148-3.485 7.467-7.467H12.75Zm7.467-1.5c-.3522-3.98199-3.485-7.11479-7.467-7.46701V11.25h7.467ZM2.25 12c0-5.41421 4.33579-9.75 9.75-9.75 5.4142 0 9.75 4.33579 9.75 9.75 0 5.4142-4.3358 9.75-9.75 9.75-5.41962 0-9.75-4.4412-9.75-9.75Z"/>
</svg>
