<svg xmlns="http://www.w3.org/2000/svg" viewBox="0 0 24 24" fill="currentColor">
  <path d="M4.68906 8.1499C6.0633 5.52482 8.80846 3.75 12 3.75c3.1915 0 5.9367 1.77482 7.3109 4.3999H4.68906Zm-.60496 1.5C3.86655 10.3936 3.75 11.1821 3.75 12c0 2.8116 1.37736 5.2767 3.5 6.7634V9.6499H4.0841ZM12 20.25c-1.1566 0-2.25463-.2331-3.25-.6553V9.6499h6.5v9.9448c-.9954.4222-2.0934.6553-3.25.6553Zm4.75-1.4866c2.1226-1.4867 3.5-3.9518 3.5-6.7634 0-.8179-.1166-1.6064-.3341-2.3501H16.75v9.1135ZM12 2.25c-5.41421 0-9.75 4.33579-9.75 9.75 0 5.4142 4.33579 9.75 9.75 9.75 5.4142 0 9.75-4.3358 9.75-9.75 0-5.41421-4.3358-9.75-9.75-9.75Z"/>
</svg>
