<svg xmlns="http://www.w3.org/2000/svg" viewBox="0 0 24 24" fill="currentColor">
  <path d="M7.3501 18.8324C5.17267 17.355 3.75249 14.8599 3.75 12.0075c.05907-2.83299 1.47574-5.30713 3.6001-6.79074V18.8324Zm1.5.804c.9687.3958 2.0319.6136 3.1499.6136 4.5858 0 8.25-3.6642 8.25-8.25 0-4.58579-3.6642-8.25-8.25-8.25-1.1136 0-2.17787.22632-3.1499.63725V19.6364ZM12 2.25c-5.3223 0-9.64197 4.34079-9.74985 9.735l-.00015.0075V12c0 5.4142 4.33579 9.75 9.75 9.75 5.4142 0 9.75-4.3358 9.75-9.75 0-5.41421-4.3358-9.75-9.75-9.75Z"/>
</svg>
