<svg xmlns="http://www.w3.org/2000/svg" viewBox="0 0 24 24" fill="currentColor">
  <path d="M3.75 12.0075C3.75399 16.5898 7.41671 20.25 12 20.25c1.1955 0 2.3284-.249 3.3501-.6985V9.6499H4.12771c-.22941.7455-.36059 1.5365-.37771 2.3576Zm13.1001-2.3576v9.0422C18.9158 17.1987 20.25 14.7671 20.25 12c0-.8179-.1166-1.6064-.3341-2.3501h-3.0658Zm-12.09808-1.5H19.3109C17.9367 5.52482 15.1915 3.75 12 3.75c-3.11519 0-5.84444 1.77112-7.24798 4.3999ZM2.25015 11.985C2.35803 6.59079 6.6777 2.25 12 2.25c5.4142 0 9.75 4.33579 9.75 9.75 0 5.4142-4.3358 9.75-9.75 9.75-5.41421 0-9.75-4.3358-9.75-9.75v-.0075l.00015-.0075Z"/>
</svg>
