<svg width="24" height="24" viewBox="0 0 24 24" fill="none" xmlns="http://www.w3.org/2000/svg">
<path d="M8.9 3.5V20.4C7.6 19.9 6.5 19.2 5.6 18.3C4 16.7 3 14.4 3 11.9C3 8 5.4 4.7 8.9 3.5Z" fill="black"/>
<path fill-rule="evenodd" clip-rule="evenodd" d="M9.65 2.45001V21.492L8.63077 21.1C7.24214 20.5659 6.05063 19.8113 5.06967 18.8303C3.32874 17.0894 2.25 14.5985 2.25 11.9C2.25 7.68354 4.84985 4.09578 8.65676 2.79055L9.65 2.45001ZM8.15 4.62704C5.50281 5.95806 3.75 8.70147 3.75 11.9C3.75 14.2015 4.67126 16.3106 6.13033 17.7697C6.70781 18.3472 7.37946 18.8383 8.15 19.2411V4.62704Z" fill="black"/>
<path fill-rule="evenodd" clip-rule="evenodd" d="M9.75 4.05875V19.9438C10.4453 20.1331 11.1946 20.25 12 20.25C14.2973 20.25 16.4029 19.3321 17.8617 17.8777C19.3404 16.3029 20.25 14.2851 20.25 12C20.25 9.72589 19.2496 7.61093 17.8688 6.13006C16.2953 4.65623 14.2808 3.75 12 3.75C11.2688 3.75 10.4677 3.86865 9.75 4.05875ZM8.76283 2.78849C9.7312 2.4657 10.9113 2.25 12 2.25C14.7109 2.25 17.09 3.33717 18.914 5.05385L18.9311 5.06993L18.9472 5.08704C20.5581 6.80537 21.75 9.28288 21.75 12C21.75 14.7109 20.6628 17.09 18.9462 18.914L18.9384 18.9223L18.9303 18.9303C17.1894 20.6713 14.6985 21.75 12 21.75C10.8073 21.75 9.72696 21.5329 8.76283 21.2115L8.25 21.0406V2.95943L8.76283 2.78849Z" fill="black"/>
<path fill-rule="evenodd" clip-rule="evenodd" d="M8.8999 11.25H20.9999V12.75H8.8999V11.25Z" fill="black"/>
</svg>
