<svg xmlns="http://www.w3.org/2000/svg" viewBox="0 0 24 24" fill="currentColor">
  <path d="M7.25 5.23665C5.12736 6.7233 3.75 9.18844 3.75 12c0 2.8116 1.37736 5.2767 3.5 6.7634V5.23665Zm1.5-.83136V19.5947c.99537.4222 2.0934.6553 3.25.6553 1.1475 0 2.2478-.2463 3.25-.6881V4.40529C14.2546 3.9831 13.1566 3.75 12 3.75s-2.25463.2331-3.25.65529ZM20.25 12c0 2.7314-1.3956 5.1953-3.5 6.7047V5.23665C18.8726 6.7233 20.25 9.18844 20.25 12Zm-18 0c0-5.41421 4.33579-9.75 9.75-9.75 5.4142 0 9.75 4.33579 9.75 9.75 0 5.3142-4.4358 9.75-9.75 9.75-5.41421 0-9.75-4.3358-9.75-9.75Z"/>
</svg>
