<svg xmlns="http://www.w3.org/2000/svg" viewBox="0 0 24 24" fill="currentColor">
  <path d="M5.66007 6.72068C4.46748 8.1513 3.75 9.99186 3.75 12c0 1.9826.69935 3.8019 1.86481 5.2245L10.8894 11.95 5.66007 6.72068Zm1.06067-1.06066L11.95 10.8893l5.2745-5.27449C15.8019 4.44935 13.9826 3.75 12 3.75c-2.00811 0-3.84865.71746-5.27926 1.91002ZM11.95 13.0106l-5.2836 5.2837C8.1046 19.5142 9.96637 20.25 12 20.25c2.0081 0 3.8487-.7175 5.2793-1.9101L11.95 13.0106Zm6.39 4.2687L13.0107 11.95l5.2836-5.2836C19.5142 8.1046 20.25 9.96637 20.25 12c0 2.0081-.7175 3.8486-1.91 5.2793ZM2.25 12c0-5.38478 4.36522-9.75 9.75-9.75 5.3848 0 9.75 4.36522 9.75 9.75 0 5.3848-4.3652 9.75-9.75 9.75-5.38478 0-9.75-4.3652-9.75-9.75Z"/>
</svg>
