<svg xmlns="http://www.w3.org/2000/svg" viewBox="0 0 24 24" fill="currentColor">
  <path d="M12 20.25c-1.118 0-2.1812-.2178-3.1499-.6136v-3.9865h10.5622C18.0749 18.3845 15.272 20.25 12 20.25Zm7.9717-6.1001H8.8501v-4.5h11.0658c.2175.7437.3341 1.5322.3341 2.3501 0 .7449-.0967 1.4654-.2783 2.1499Zm1.1284 1.3789c.42-1.0926.6499-2.2821.6499-3.5288 0-5.41421-4.3358-9.75-9.75-9.75-5.3223 0-9.64197 4.34079-9.74985 9.735l-.00015.0075V12c0 5.4142 4.33579 9.75 9.75 9.75 4.1213 0 7.6177-2.5123 9.0526-6.1001h.0475v-.1211Zm-13.75-5.8789v9.1825C5.17267 17.355 3.75249 14.8599 3.75 12.0075c.01712-.8211.1483-1.6121.37771-2.3576H7.3501Zm11.9608-1.5H4.75202C6.15556 5.52112 8.88481 3.75 12 3.75c3.1915 0 5.9367 1.77482 7.3109 4.3999Z"/>
</svg>
