<svg xmlns="http://www.w3.org/2000/svg" viewBox="0 0 24 24" fill="currentColor">
  <path d="M12 3.75c-3.19154 0-5.9367 1.77482-7.31094 4.3999H19.3109C17.9367 5.52482 15.1915 3.75 12 3.75ZM3.75 12c0-.8179.11655-1.6064.3341-2.3501H7.25v9.1135C5.12736 17.2767 3.75 14.8116 3.75 12Zm5 7.5947c.99537.4222 2.0934.6553 3.25.6553 4.5858 0 8.25-3.6642 8.25-8.25 0-.8179-.1166-1.6064-.3341-2.3501H8.75v9.9448ZM2.25 12c0-5.41421 4.33579-9.75 9.75-9.75 5.4142 0 9.75 4.33579 9.75 9.75 0 5.4142-4.3358 9.75-9.75 9.75-5.41421 0-9.75-4.3358-9.75-9.75Z"/>
</svg>
