<svg xmlns="http://www.w3.org/2000/svg" fill="none" viewBox="0 0 24 24">
  <path fill="#000" fill-rule="evenodd" d="M12 20.25a8.307 8.307 0 0 1-3.15-.614V15.65h10.562A8.212 8.212 0 0 1 12 20.25Zm7.972-6.1H8.85v-4.5h11.066A8.36 8.36 0 0 1 20.25 12c0 .745-.097 1.465-.278 2.15Zm1.128 1.379c.42-1.093.65-2.282.65-3.529A9.713 9.713 0 0 0 12 2.25c-5.322 0-9.642 4.34-9.75 9.735V12A9.713 9.713 0 0 0 12 21.75a9.71 9.71 0 0 0 9.053-6.1h.047v-.121ZM7.35 9.649v9.183a8.215 8.215 0 0 1-3.6-6.825 8.616 8.616 0 0 1 .378-2.357H7.35Zm11.96-1.5H4.753C6.156 5.522 8.885 3.75 12 3.75a8.212 8.212 0 0 1 7.31 4.4Z" clip-rule="evenodd"/>
</svg>
