<svg xmlns="http://www.w3.org/2000/svg" fill="none" viewBox="0 0 24 24">
  <path fill="#000" fill-rule="evenodd" d="M8.75 2.746v18.408l-1.055-.469C6.693 20.24 5.818 19.58 5.07 18.83c-1.741-1.74-2.82-4.23-2.82-6.93 0-2.71 1.087-5.09 2.804-6.914l.027-.03.03-.025c.722-.619 1.587-1.273 2.584-1.716l1.055-.47ZM6.119 6.043C4.652 7.615 3.75 9.625 3.75 11.9c0 2.301.921 4.41 2.38 5.87.352.351.725.67 1.12.945V5.175c-.394.264-.77.56-1.131.868Z" clip-rule="evenodd"/>
  <path fill="#000" d="M21 12c0 2.5-1 4.7-2.6 6.4C16.8 20 14.5 21 12 21c-1.4 0-2.8-.3-4-.9V3.9c1.2-.6 2.6-.9 4-.9 4.9 0 9 4 9 9Z"/>
  <path fill="#000" fill-rule="evenodd" d="M8.75 4.38v15.24c.99.416 2.114.63 3.25.63 2.297 0 4.403-.918 5.862-2.372C19.34 16.303 20.25 14.285 20.25 12c0-4.58-3.759-8.25-8.25-8.25-1.136 0-2.26.214-3.25.63ZM7.665 3.23c1.315-.66 2.833-.98 4.335-.98 5.309 0 9.75 4.33 9.75 9.75 0 2.71-1.087 5.09-2.804 6.914l-.008.008-.008.008c-1.74 1.741-4.232 2.82-6.93 2.82-1.502 0-3.02-.321-4.335-.98l-.415-.206V3.436l.415-.207Z" clip-rule="evenodd"/>
</svg>
