<svg xmlns="http://www.w3.org/2000/svg" viewBox="0 0 24 24" fill="currentColor">
  <path d="M3.75 9c0-2.88579 2.36421-5.25 5.25-5.25h6c2.8858 0 5.25 2.36421 5.25 5.25v6c0 2.8858-2.3642 5.25-5.25 5.25H9c-2.88579 0-5.25-2.3642-5.25-5.25V9ZM9 2.25C5.28579 2.25 2.25 5.28579 2.25 9v6c0 3.7142 3.03579 6.75 6.75 6.75h6c3.7142 0 6.75-3.0358 6.75-6.75V9c0-3.71421-3.0358-6.75-6.75-6.75H9ZM12.75 7c0-.41421-.3358-.75-.75-.75s-.75.33579-.75.75v5.2c0 .7052.2835 1.3942.8197 1.9303l2.4 2.4c.2929.2929.7677.2929 1.0606 0 .2929-.2929.2929-.7677 0-1.0606l-2.4-2.4c-.2638-.2639-.3803-.5749-.3803-.8697V7Z"/>
</svg>
