<svg xmlns="http://www.w3.org/2000/svg" viewBox="0 0 24 24" fill="currentColor">
  <path d="M3.75 12c0-4.55635 3.69365-8.25 8.25-8.25 4.5563 0 8.25 3.69365 8.25 8.25 0 4.5563-3.6937 8.25-8.25 8.25-4.55635 0-8.25-3.6937-8.25-8.25ZM12 2.25c-5.38478 0-9.75 4.36522-9.75 9.75 0 5.3848 4.36522 9.75 9.75 9.75 5.3848 0 9.75-4.3652 9.75-9.75 0-5.38478-4.3652-9.75-9.75-9.75ZM12.75 6c0-.41421-.3358-.75-.75-.75s-.75.33579-.75.75v5.2c0 .7052.2835 1.3942.8197 1.9303l2.4 2.4c.2929.2929.7677.2929 1.0606 0 .2929-.2929.2929-.7677 0-1.0606l-2.4-2.4c-.2638-.2639-.3803-.5749-.3803-.8697V6Z"/>
</svg>
