<svg width="24" height="24" viewBox="0 0 24 24" fill="none" xmlns="http://www.w3.org/2000/svg">
<path fill-rule="evenodd" clip-rule="evenodd" d="M11.3 7.44995C9.21419 7.44995 7.54998 9.11416 7.54998 11.2V11.95H6.79998C6.0119 11.95 5.29913 12.2615 4.73031 12.8303C4.16149 13.3991 3.84998 14.1119 3.84998 14.9C3.84998 16.4857 5.11419 17.75 6.69998 17.75H15.8C16.5881 17.75 17.3008 17.4384 17.8696 16.8696C18.4385 16.3008 18.75 15.588 18.75 14.8C18.75 13.2276 17.4993 11.95 15.8 11.95H15.05V11.2C15.05 9.11416 13.3858 7.44995 11.3 7.44995ZM6.09472 10.5064C6.43086 7.92385 8.62101 5.94995 11.3 5.94995C13.9774 5.94995 16.1666 7.92158 16.5047 10.502C18.6574 10.8242 20.25 12.6057 20.25 14.8C20.25 16.0119 19.7615 17.0991 18.9303 17.9303C18.0991 18.7615 17.0119 19.25 15.8 19.25H6.69998C4.28577 19.25 2.34998 17.3142 2.34998 14.9C2.34998 13.688 2.83847 12.6008 3.66965 11.7696C4.336 11.1033 5.16692 10.6572 6.09472 10.5064Z" fill="black"/>
<path fill-rule="evenodd" clip-rule="evenodd" d="M12.8856 6.7699C13.7195 5.57866 15.1442 4.75 16.8 4.75C19.4023 4.75 21.65 6.87395 21.65 9.6C21.65 11.2693 20.8102 12.6836 19.5411 13.6066C19.2061 13.8502 18.7371 13.7761 18.4934 13.4411C18.2498 13.1061 18.3239 12.6371 18.6589 12.3934C19.5898 11.7164 20.15 10.7307 20.15 9.6C20.15 7.72605 18.5977 6.25 16.8 6.25C15.6558 6.25 14.6806 6.82134 14.1144 7.6301C13.8769 7.96943 13.4092 8.05196 13.0699 7.81442C12.7306 7.57689 12.648 7.10924 12.8856 6.7699Z" fill="black"/>
</svg>
