<svg xmlns="http://www.w3.org/2000/svg" viewBox="0 0 24 24" fill="currentColor">
  <path d="M7.75 10c0-2.38579 1.86421-4.25 4.25-4.25 2.3858 0 4.25 1.86421 4.25 4.25 0 .4142.3358.75.75.75 1.7858 0 3.25 1.4642 3.25 3.25 0 .9148-.3286 1.6972-.9439 2.2356l-.0188.0164-.0176.0177c-.5815.5814-1.3979.9803-2.2697.9803H7c-1.78579 0-3.25-1.4642-3.25-3.25 0-.9148.32864-1.6972.94388-2.2356l.01879-.0164.01766-.0177C5.3118 11.1489 6.12815 10.75 7 10.75c.41421 0 .75-.3358.75-.75Zm-1.46017-.69247C6.62391 6.42901 9.02047 4.25 12 4.25c2.978 0 5.3737 2.17682 5.7097 5.05318C19.9899 9.64795 21.75 11.6268 21.75 14c0 1.277-.4653 2.4872-1.4372 3.3478-.8179.8096-1.9941 1.4022-3.3128 1.4022H7c-2.61421 0-4.75-2.1358-4.75-4.75 0-1.277.46533-2.4872 1.43724-3.3478.66779-.66106 1.5745-1.17743 2.60259-1.34467Z"/>
</svg>
