<svg xmlns="http://www.w3.org/2000/svg" fill="none" viewBox="0 0 24 24">
  <g fill="#000" clip-path="url(#cloud-circleB_svg__a)">
    <path d="M14.95 11.15c1.3 0 2.4 1.1 2.4 2.4 0 .6-.3 1.2-.7 1.7-.4.4-1 .7-1.7.7h-5.9c-1.3 0-2.4-1.1-2.4-2.4 0-.6.3-1.2.7-1.7.4-.4 1-.7 1.7-.7"/>
    <path fill-rule="evenodd" d="M7.909 12.353c.272-.26.675-.453 1.141-.453a.75.75 0 0 0 0-1.5c-.917 0-1.703.393-2.23.92l-.03.03-.026.032c-.453.566-.864 1.329-.864 2.168 0 1.714 1.436 3.15 3.15 3.15h5.9c.917 0 1.703-.393 2.23-.92l.03-.029.026-.032c.453-.567.864-1.33.864-2.169 0-1.714-1.436-3.15-3.15-3.15a.75.75 0 0 0 0 1.5c.886 0 1.65.764 1.65 1.65 0 .351-.18.775-.509 1.197-.272.26-.675.453-1.141.453h-5.9c-.886 0-1.65-.764-1.65-1.65 0-.351.18-.775.509-1.197Z" clip-rule="evenodd"/>
    <path d="M9.05 11.15c0-1.6 1.3-2.9 2.9-2.9 1.6 0 2.9 1.3 2.9 2.9"/>
    <path fill-rule="evenodd" d="M11.95 9c-1.186 0-2.15.964-2.15 2.15a.75.75 0 0 1-1.5 0 3.652 3.652 0 0 1 3.65-3.65 3.652 3.652 0 0 1 3.65 3.65.75.75 0 0 1-1.5 0c0-1.186-.964-2.15-2.15-2.15Z" clip-rule="evenodd"/>
    <path fill-rule="evenodd" d="M12.05 3.8a8.25 8.25 0 1 0 0 16.5 8.25 8.25 0 0 0 0-16.5ZM2.3 12.05c0-5.385 4.365-9.75 9.75-9.75s9.75 4.365 9.75 9.75-4.365 9.75-9.75 9.75-9.75-4.365-9.75-9.75Z" clip-rule="evenodd"/>
  </g>
  <defs>
    <clipPath id="cloud-circleB_svg__a">
      <path fill="#fff" d="M2.25 2.25h19.5v19.5H2.25z"/>
    </clipPath>
  </defs>
</svg>
