<svg xmlns="http://www.w3.org/2000/svg" viewBox="0 0 24 24" fill="currentColor">
  <path d="M7.011 3.74327c-1.78579-.00238-3.25195 1.45988-3.25433 3.24566l-.01333 9.99997c-.00239 1.7982 1.37213 3.2519 3.24567 3.2544l9.99999.0133c1.7858.0024 3.2519-1.4599 3.2543-3.2457l.0134-9.99998c.0023-1.78578-1.4599-3.25195-3.2457-3.25433l-10-.01332ZM2.25667 6.98693C2.26015 4.37272 4.39879 2.23978 7.013 2.24327l10 .01332c2.6142.00349 4.7471 2.14212 4.7437 4.75633l-.0134 9.99998c-.0035 2.6142-2.1421 4.7472-4.7563 4.7437l-9.99999-.0133c-2.72645-.0037-4.74713-2.1545-4.74367-4.7564l.01333-9.99997ZM13.273 9.47131c.2933-.29251.7682-.29188 1.0607.00141l1.3981 1.40188c.2702.2709.4439.6302.4433 1.0309-.0005.4007-.1751.7596-.446 1.0297l-1.4019 1.3982c-.2933.2925-.7681.2918-1.0606-.0014-.2926-.2933-.2919-.7682.0014-1.0607l1.3715-1.3678-1.3679-1.3715c-.2925-.2933-.2919-.76819.0014-1.06069Zm-2.6409 1.15709c.2933-.2925.294-.76734.0015-1.06062-.2926-.29328-.76742-.29392-1.06071-.00141L8.17103 10.9645c-.27088.2702-.44551.6291-.44605 1.0297-.00053.4007.17315.7601.4433 1.031l1.39814 1.4018c.2925.2933.76738.2939 1.06068.0014.2933-.2925.2939-.7673.0014-1.0606l-1.36786-1.3715 1.37146-1.3679Z"/>
</svg>
