<svg xmlns="http://www.w3.org/2000/svg" viewBox="0 0 24 24" fill="currentColor">
  <path d="M9.49989 2.94995c-1.69093 0-3.2088.96112-4.12404 2.33398l-.01277.01915-2.51125 4.31936c-.83586 1.43326-.83551 3.32216.00023 4.75546l2.5 4.3c.83048 1.4236 2.37339 2.3721 4.14783 2.3721h5.00001c1.6909 0 3.2088-.9612 4.124-2.334l.0128-.0192 2.5112-4.3192c.836-1.4335.836-3.3221-.0002-4.75555l-2.4994-4.29906-.0006-.00094c-.8305-1.42369-2.3734-2.3721-4.1478-2.3721H9.49989ZM4.14773 10.3779l2.48849-4.28026c.68538-1.0164 1.76122-1.64769 2.86367-1.64769h5.00001c1.2253 0 2.2826.65186 2.8522 1.6279l2.5 4.30005c.5637.9664.5637 2.2777 0 3.2442l-2.4885 4.2802c-.6854 1.0164-1.7613 1.6477-2.8637 1.6477H9.49989c-1.22531 0-2.28257-.6519-2.85216-1.6279L4.14827 13.623l-.00054-.0009c-.56378-.9665-.56378-2.2778 0-3.2442Zm7.75217-1.11714-1.3696 1.36964c-.2929.2929-.7678.2929-1.06069 0-.29289-.2929-.29289-.76775 0-1.06064l1.39999-1.39999c.2705-.27052.6296-.44467 1.0303-.44467.4007 0 .7598.17415 1.0304.44467l1.4 1.39999c.2929.29289.2929.76774 0 1.06064-.2929.2929-.7678.2929-1.0607 0l-1.3697-1.36964ZM9.56958 13.2697c.29289-.2929.76772-.2929 1.06062 0l1.3697 1.3697 1.3697-1.3697c.2929-.2929.7678-.2929 1.0606 0 .2929.2929.2929.7678 0 1.0607l-1.3999 1.4c-.2706.2705-.6297.4446-1.0304.4446-.4007 0-.7598-.1741-1.0303-.4446l-1.40001-1.4c-.2929-.2929-.2929-.7678-.00001-1.0607Z"/>
</svg>
