<svg xmlns="http://www.w3.org/2000/svg" viewBox="0 0 24 24" fill="currentColor">
  <path d="m18.6969 5.36309-4.319-2.51102c-1.4333-.83574-3.3225-.83586-4.75579 0l-4.3 2.5c-1.42369.83048-2.3721 2.37338-2.3721 4.14783v5c0 1.6909.96112 3.2088 2.33398 4.124l.01915.0128 4.31897 2.511c1.43349.8362 3.32229.8361 4.75579 0l4.319-2.511.0191-.0128c1.3729-.9152 2.334-2.4331 2.334-4.124v-5c0-1.69093-.9611-3.2088-2.334-4.12404l-.0191-.01277Zm-8.319-1.21535c.9665-.56378 2.2777-.56378 3.2442 0l.0009.00054 4.2793 2.48795c1.0164.68538 1.6477 1.76122 1.6477 2.86367v5c0 1.1025-.6313 2.1783-1.6477 2.8637l-4.2802 2.4885c-.9665.5637-2.2777.5637-3.2442 0l-4.28019-2.4885c-1.01641-.6854-1.6477-1.7612-1.6477-2.8637v-5c0-1.22539.6518-2.2826 1.62791-2.85216l4.29998-2.5Zm2.8918 5.32169c.2929-.2929.7678-.2929 1.0607 0l1.4 1.39997c.2705.2705.4446.6297.4446 1.0303 0 .4007-.1741.7599-.4446 1.0304l-1.4 1.4c-.2929.2929-.7678.2929-1.0607 0-.2929-.2929-.2929-.7678 0-1.0607l1.3697-1.3697-1.3697-1.3696c-.2929-.2929-.2929-.76778 0-1.06067Zm-2.6393.09997c.2929.29289.2929.7678 0 1.0607l-1.3697 1.3696 1.3697 1.3697c.2929.2929.2929.7678 0 1.0607-.2929.2928-.76781.2928-1.0607 0l-1.39999-1.4c-.27052-.2706-.44467-.6297-.44467-1.0304 0-.4007.17415-.7598.44467-1.0303l1.39999-1.4c.29289-.29289.7678-.29289 1.0607 0Z"/>
</svg>
