<svg xmlns="http://www.w3.org/2000/svg" viewBox="0 0 24 24" fill="currentColor">
  <path d="M11.9923 3.75C7.41014 3.75408 3.75 7.41677 3.75 12c0 4.5858 3.66421 8.25 8.25 8.25 4.5858 0 8.25-3.6642 8.25-8.25 0-4.46972-3.7494-8.15392-8.2577-8.25ZM2.25 12c0-5.41421 4.33579-9.75 9.75-9.75h.0077l.0076.00016C17.3037 2.35808 21.75 6.67224 21.75 12c0 5.4142-4.3358 9.75-9.75 9.75-5.41421 0-9.75-4.3358-9.75-9.75Zm7.31964 1.3698c.29289-.2929.76776-.2929 1.06066 0L12 14.7395l1.3696-1.3697c.2929-.2929.7678-.2929 1.0607 0 .2929.2929.2929.7678 0 1.0607l-1.4 1.4c-.2705.2705-.6296.4446-1.0303.4446-.4007 0-.7598-.1741-1.0303-.4446l-1.40005-1.4c-.2929-.2929-.2929-.7678-.00001-1.0607Zm.96066-2.6393L11.9 9.36086l1.3697 1.36964c.2929.2929.7677.2929 1.0606 0 .2929-.2929.2929-.76775 0-1.06064l-1.4-1.39999c-.2705-.27052-.6296-.44467-1.0303-.44467-.4007 0-.7598.17415-1.0303.44467L9.46967 9.66986c-.29289.29289-.29289.76774 0 1.06064.29289.2929.76773.2929 1.06063 0Z"/>
</svg>
