<svg xmlns="http://www.w3.org/2000/svg" viewBox="0 0 24 24" fill="currentColor">
  <path d="M7 3.75C5.11421 3.75 3.75 5.11421 3.75 7v10c0 1.7858 1.46421 3.25 3.25 3.25h10c1.7858 0 3.25-1.4642 3.25-3.25V7c0-1.78579-1.4642-3.25-3.25-3.25H7ZM2.25 7c0-2.71421 2.03579-4.75 4.75-4.75h10c2.6142 0 4.75 2.13579 4.75 4.75v10c0 2.6142-2.1358 4.75-4.75 4.75H7c-2.61421 0-4.75-2.1358-4.75-4.75V7Zm7.31964 6.2697c.2929-.2929.76776-.2929 1.06066 0L12 14.6394l1.3696-1.3697c.2929-.2929.7678-.2929 1.0607 0 .2929.2929.2929.7678 0 1.0607l-1.4 1.4c-.2705.2705-.6296.4446-1.0303.4446-.4007 0-.7598-.1741-1.0304-.4446l-1.39995-1.4c-.2929-.2929-.2929-.7678-.00001-1.0607Zm.96066-2.6393L11.9 9.26076l1.3697 1.36964c.2929.2929.7677.2929 1.0606 0 .2929-.2929.2929-.76775 0-1.06064l-1.4-1.39999c-.2705-.27052-.6296-.44467-1.0303-.44467-.4007 0-.7598.17415-1.0303.44467L9.46967 9.56976c-.29289.29289-.29289.76774 0 1.06064.29289.2929.76773.2929 1.06063 0Z"/>
</svg>
