<svg xmlns="http://www.w3.org/2000/svg" viewBox="0 0 24 24" fill="currentColor">
  <path d="M3.75 12.0075C3.75399 16.5898 7.41671 20.25 12 20.25c4.5858 0 8.25-3.6642 8.25-8.25 0-4.58579-3.6642-8.25-8.25-8.25-4.47527 0-8.15404 3.65524-8.25 8.2575Zm-1.49985-.0225C2.35803 6.59079 6.6777 2.25 12 2.25c5.4142 0 9.75 4.33579 9.75 9.75 0 5.4142-4.3358 9.75-9.75 9.75-5.41421 0-9.75-4.3358-9.75-9.75v-.0075l.00015-.0075ZM13.3698 9.46967c.2929-.29289.7678-.29289 1.0607 0l1.4 1.40003c.2705.2705.4446.6296.4446 1.0303 0 .4007-.1741.7598-.4446 1.0303l-1.4 1.4c-.2929.2929-.7678.2929-1.0607 0-.2929-.2929-.2929-.7677 0-1.0606L14.7395 11.9l-1.3697-1.3697c-.2929-.2929-.2929-.76774 0-1.06063Zm-2.6394 1.16063c.2929-.2929.2929-.76776 0-1.06066-.2929-.29289-.76777-.29289-1.06066.00001l-1.4 1.39995c-.27051.2706-.44467.6297-.44467 1.0304 0 .4007.17416.7598.44467 1.0303l1.4 1.4c.29289.2929.76776.2929 1.06066 0 .2929-.2929.2929-.7678 0-1.0607L9.36073 12l1.36967-1.3697Z"/>
</svg>
