<svg xmlns="http://www.w3.org/2000/svg" viewBox="0 0 24 24" fill="currentColor">
  <path d="M17.0825 6.05139C18.9753 5.96909 20.4 7.34831 20.4 9.10214v5.79996c0 1.6371-1.4138 3.05-3.35 3.05H6.94998c-1.84855 0-3.35-1.4243-3.35-3.05V9.10214c0-1.63707 1.41377-3.05004 3.35-3.05004H17.0663l.0162-.00071ZM21.9 9.10214c0-2.64065-2.1664-4.65862-4.8657-4.55004H6.94998c-2.66376 0-4.85 1.98712-4.85 4.55004v5.79996c0 2.5743 2.29856 4.55 4.85 4.55H17.05c2.6637 0 4.85-1.987 4.85-4.55V9.10214ZM6.5 10.1022c0-.68581.56421-1.25003 1.25-1.25003h2.7c.6858 0 1.25.56422 1.25 1.25003v3.6999c0 .6858-.5642 1.25-1.25 1.25h-2.7c-.68579 0-1.25-.5642-1.25-1.25v-3.6999Zm1.25-2.75003C6.23579 7.35217 5 8.58796 5 10.1022v3.6999c0 1.5142 1.23579 2.75 2.75 2.75h2.7c1.5142 0 2.75-1.2358 2.75-2.75v-3.6999c0-1.51424-1.2358-2.75003-2.75-2.75003h-2.7Zm7.1696 5.21963c.2929-.2929.7678-.2929 1.0607 0l.8196.8197.8197-.8197c.2929-.2929.7678-.2929 1.0607 0 .2929.2929.2929.7678 0 1.0607l-1 1c-.4929.4929-1.2678.4929-1.7607 0l-1-1c-.2929-.2929-.2929-.7678 0-1.0607Zm2.6-1.6393-.8196-.8197-.8197.8197c-.2929.2929-.7678.2929-1.0607 0-.2928-.2929-.2928-.7678 0-1.06069l1-1c.4929-.4929 1.2678-.4929 1.7607 0l1 1c.2929.29289.2929.76779 0 1.06069-.2929.2929-.7678.2929-1.0607 0Z"/>
</svg>
