<svg xmlns="http://www.w3.org/2000/svg" viewBox="0 0 24 24" fill="currentColor">
  <path d="M7 5.75C5.21421 5.75 3.75 7.21421 3.75 9v6c0 1.7981 1.37646 3.25 3.25 3.25h10c1.7858 0 3.25-1.4642 3.25-3.25V9c0-1.78579-1.4642-3.25-3.25-3.25H7ZM2.25 9c0-2.61421 2.13579-4.75 4.75-4.75h10c2.6142 0 4.75 2.13579 4.75 4.75v6c0 2.6142-2.1358 4.75-4.75 4.75H7c-2.72646 0-4.75-2.1481-4.75-4.75V9Zm11.0196.46967c.2929-.29289.7678-.2929 1.0607 0l1.4 1.40003c.2705.2705.4447.6296.4447 1.0303 0 .4007-.1742.7598-.4447 1.0303l-1.4 1.4c-.2929.2929-.7678.2929-1.0607 0-.2929-.2929-.2929-.7677 0-1.0606L14.6393 11.9l-1.3697-1.3697c-.2929-.2929-.2929-.76773 0-1.06063Zm-2.6393 1.16063c.2929-.2929.2929-.76775 0-1.06065-.2929-.2929-.76773-.2929-1.06063-.00001L8.16965 10.9696c-.27052.2706-.44467.6297-.44467 1.0304 0 .4007.17415.7598.44467 1.0303l1.40002 1.4c.2929.2929.76773.2929 1.06063 0 .2929-.2929.2929-.7678 0-1.0607L9.26064 12l1.36966-1.3697Z"/>
</svg>
