<svg xmlns="http://www.w3.org/2000/svg" viewBox="0 0 24 24" fill="currentColor">
  <path d="M6.04785 6.95001c0-1.84856 1.42431-3.35003 3.04999-3.35003h5.80006c1.637 0 3.0499 1.41377 3.0499 3.35003V17.0663l.0008.0163c.0823 1.8928-1.2969 3.3174-3.0507 3.3174H9.09784c-1.63705 0-3.04999-1.4138-3.04999-3.35V6.95001Zm3.04999-4.85003c-2.57432 0-4.54999 2.2986-4.54999 4.85003V17.05c0 2.6637 1.98704 4.85 4.54999 4.85h5.80006c2.6406 0 4.6585-2.1664 4.5499-4.8657V6.95001c0-2.66374-1.987-4.85003-4.5499-4.85003H9.09784ZM8.94788 7.75c0-.68579.56421-1.25 1.25002-1.25h3.7c.6858 0 1.25.56421 1.25 1.25v2.7c0 .6858-.5642 1.25-1.25 1.25h-3.7c-.68581 0-1.25002-.5642-1.25002-1.25v-2.7ZM10.1979 5C8.68366 5 7.44788 6.23579 7.44788 7.75v2.7c0 1.5142 1.23578 2.75 2.75002 2.75h3.7c1.5142 0 2.75-1.2358 2.75-2.75v-2.7c0-1.51421-1.2358-2.75-2.75-2.75h-3.7Zm1.2302 9.9197c.2929.2929.2929.7677 0 1.0606l-.8196.8197.8196.8197c.2929.2929.2929.7678 0 1.0607-.2929.2928-.7677.2928-1.0606 0l-1.00003-1c-.49289-.4929-.49289-1.2678 0-1.7607l1.00003-1c.2929-.2929.7677-.2929 1.0606 0Zm2.7-.1001c-.2929-.2928-.7678-.2928-1.0607 0-.2928.2929-.2928.7678 0 1.0607l.8197.8197-.8197.8197c-.2928.2929-.2928.7677 0 1.0606.2929.2929.7678.2929 1.0607 0l1-1c.4929-.4929.4929-1.2678 0-1.7607l-1-1Z"/>
</svg>
