<svg xmlns="http://www.w3.org/2000/svg" viewBox="0 0 24 24" fill="currentColor">
  <path d="M8.39999 3.84999C5.60592 3.84999 3.25 6.12247 3.25 9.00002c0 1.83338.91932 3.41748 2.29396 4.34588.48388-1.8319 1.73561-3.3238 3.4061-4.21303-.00005-.01095-.00008-.02191-.00008-.03288 0-1.81417.72646-3.45866 1.90432-4.65846-.7317-.38976-1.58591-.59154-2.45431-.59154Zm.75735 6.90411c-1.29707.8665-2.1546 2.2116-2.30736 3.7811v.4642C6.84998 17.877 9.20591 20.15 12 20.15c2.5914 0 4.818-2.0457 5.1161-4.5736-.487.1136-.9945.1736-1.5161.1736-3.1017 0-5.70735-2.1234-6.44266-4.9959Zm8.64606 3.0021c-.14.018-.2678.0747-.3726.1589-.5688.2164-1.186.3349-1.8308.3349-2.8443 0-5.15-2.3057-5.15-5.15001C10.45 6.25572 12.7557 3.95 15.6 3.95c2.8442 0 5.15 2.30573 5.15 5.14999 0 2.05591-1.2047 3.83041-2.9466 4.65621Zm.8466 1.2547c2.1383-1.1057 3.6-3.3376 3.6-5.91091 0-3.6727-2.9773-6.64999-6.65-6.64999-1.2837 0-2.4825.36372-3.4988.99374-1.0876-.73692-2.40445-1.09375-3.70121-1.09375-3.60592 0-6.64999 2.92757-6.64999 6.65003 0 2.62618 1.47456 4.86428 3.59998 5.97368V15c0 3.7225 3.04411 6.65 6.65002 6.65 3.6106 0 6.6439-3.0297 6.65-6.6391Z"/>
</svg>
