<svg xmlns="http://www.w3.org/2000/svg" viewBox="0 0 24 24" fill="currentColor">
  <path d="M3.75 12c0-4.55635 3.69365-8.25 8.25-8.25 4.5563 0 8.25 3.69365 8.25 8.25 0 4.5563-3.6937 8.25-8.25 8.25-4.55635 0-8.25-3.6937-8.25-8.25ZM12 2.25c-5.38478 0-9.75 4.36522-9.75 9.75 0 5.3848 4.36522 9.75 9.75 9.75 5.3848 0 9.75-4.3652 9.75-9.75 0-5.38478-4.3652-9.75-9.75-9.75ZM7.75 12c0-2.34721 1.90279-4.25 4.25-4.25 2.3472 0 4.25 1.90279 4.25 4.25 0 2.3472-1.9028 4.25-4.25 4.25-2.34721 0-4.25-1.9028-4.25-4.25ZM12 6.25c-3.17564 0-5.75 2.57436-5.75 5.75 0 3.1756 2.57436 5.75 5.75 5.75 3.1756 0 5.75-2.5744 5.75-5.75 0-3.17564-2.5744-5.75-5.75-5.75Z"/>
</svg>
