<svg width="24" height="24" viewBox="0 0 24 24" fill="none" xmlns="http://www.w3.org/2000/svg">
<path fill-rule="evenodd" clip-rule="evenodd" d="M8.60001 3.44995C5.80593 3.44995 3.45001 5.72241 3.45001 8.59995C3.45001 10.7903 4.76226 12.6249 6.59545 13.4106C6.97617 13.5738 7.15254 14.0147 6.98937 14.3954C6.8262 14.7761 6.38529 14.9525 6.00457 14.7893C3.63776 13.775 1.95001 11.4096 1.95001 8.59995C1.95001 4.87749 4.99409 1.94995 8.60001 1.94995C10.0465 1.94995 11.5181 2.39396 12.6685 3.3143C12.992 3.57306 13.0444 4.04503 12.7857 4.36847C12.5269 4.69192 12.0549 4.74436 11.7315 4.4856C10.8819 3.80594 9.75348 3.44995 8.60001 3.44995Z" fill="black"/>
<path d="M15.8 14.5999C19.0585 14.5999 21.7 11.9584 21.7 8.69993C21.7 5.44145 19.0585 2.79993 15.8 2.79993C12.5415 2.79993 9.90002 5.44145 9.90002 8.69993C9.90002 11.9584 12.5415 14.5999 15.8 14.5999Z" fill="black"/>
<path fill-rule="evenodd" clip-rule="evenodd" d="M15.8 3.54993C12.9558 3.54993 10.65 5.85566 10.65 8.69993C10.65 11.5442 12.9558 13.8499 15.8 13.8499C18.6443 13.8499 20.95 11.5442 20.95 8.69993C20.95 5.85566 18.6443 3.54993 15.8 3.54993ZM9.15002 8.69993C9.15002 5.02723 12.1273 2.04993 15.8 2.04993C19.4727 2.04993 22.45 5.02723 22.45 8.69993C22.45 12.3726 19.4727 15.3499 15.8 15.3499C12.1273 15.3499 9.15002 12.3726 9.15002 8.69993Z" fill="black"/>
<path fill-rule="evenodd" clip-rule="evenodd" d="M10.5964 8.92136C10.7502 9.30595 10.5631 9.74243 10.1786 9.89626C8.45724 10.5848 7.236 12.2224 7.05002 14.1351V14.5993C7.05002 17.4769 9.40594 19.7499 12.2 19.7499C14.9858 19.7499 17.35 17.3857 17.35 14.5999V14.1005C17.35 13.6863 17.6858 13.3499 18.1 13.3499C18.5142 13.3499 18.85 13.6857 18.85 14.0999V14.5999C18.85 18.2141 15.8142 21.2499 12.2 21.2499C8.5941 21.2499 5.55002 18.3224 5.55002 14.5999V14.0659L5.5531 14.032C5.77795 11.5587 7.35261 9.4111 9.62148 8.50355C10.0061 8.34971 10.4425 8.53678 10.5964 8.92136Z" fill="black"/>
</svg>
