<svg xmlns="http://www.w3.org/2000/svg" fill="none" viewBox="0 0 24 24">
  <path fill="#000" fill-rule="evenodd" d="M15.95 7.737v1.73l-1.44-1.442c-.335-.244-.56-.32-.71-.32a.907.907 0 0 0-.67.28c-.307.308-.307.933 0 1.24l.2.2 1.72 1.72 1.88-1.88c.244-.335.32-.56.32-.71a.907.907 0 0 0-.28-.67c-.245-.244-.693-.294-1.02-.148Zm-1 3.505Zm.048-4.686c.913-.612 2.24-.523 3.032.27a2.4 2.4 0 0 1 .72 1.73c0 .644-.318 1.206-.65 1.65l-.032.042-2.038 2.038a1.45 1.45 0 0 1-1.018.444c-.383 0-.742-.172-.984-.486l-1.758-1.758-.2-.2c-.893-.893-.893-2.468 0-3.36a2.406 2.406 0 0 1 1.73-.72c.442 0 .845.149 1.198.35Z" clip-rule="evenodd"/>
  <path fill="#000" fill-rule="evenodd" d="M2.25 7.155A4.762 4.762 0 0 1 7 2.405h5a.75.75 0 0 1 0 1.5H7a3.262 3.262 0 0 0-3.25 3.25v7A3.262 3.262 0 0 0 7 17.405h2.5a.75.75 0 0 1 0 1.5H7a4.762 4.762 0 0 1-4.75-4.75v-7ZM21 9.405a.75.75 0 0 1 .75.75v4a4.762 4.762 0 0 1-4.75 4.75h-3a.75.75 0 0 1 0-1.5h3a3.262 3.262 0 0 0 3.25-3.25v-4a.75.75 0 0 1 .75-.75Z" clip-rule="evenodd"/>
  <path fill="#000" fill-rule="evenodd" d="M9.018 17.581a.75.75 0 0 1 1.056.092l1.903 2.265 1.399-2.099a.75.75 0 1 1 1.248.832l-1.641 2.462-.053.053c-.217.217-.53.376-.868.404a1.165 1.165 0 0 1-1.057-.477l-2.08-2.475a.75.75 0 0 1 .093-1.057Z" clip-rule="evenodd"/>
</svg>
