<svg width="24" height="24" viewBox="0 0 24 24" fill="none" xmlns="http://www.w3.org/2000/svg">
<path fill-rule="evenodd" clip-rule="evenodd" d="M4.59998 5.79999C4.59998 4.5142 5.56419 3.54999 6.84998 3.54999H13.15C14.4196 3.54999 15.4 4.59785 15.4 5.79999V14.2C15.4 15.4858 14.4358 16.45 13.15 16.45H6.84998C5.56419 16.45 4.59998 15.4858 4.59998 14.2V5.79999ZM6.84998 2.04999C4.73576 2.04999 3.09998 3.68577 3.09998 5.79999V14.2C3.09998 16.3142 4.73576 17.95 6.84998 17.95H7.09998V18.2C7.09998 20.3142 8.73576 21.95 10.85 21.95H17.15C19.2642 21.95 20.9 20.3142 20.9 18.2V9.79999C20.9 7.68577 19.2642 6.04999 17.15 6.04999H16.9V5.79999C16.9 3.80212 15.2803 2.04999 13.15 2.04999H6.84998ZM16.9 7.54999V14.2C16.9 16.3142 15.2642 17.95 13.15 17.95H8.59998V18.2C8.59998 19.4858 9.56419 20.45 10.85 20.45H17.15C18.4358 20.45 19.4 19.4858 19.4 18.2V9.79999C19.4 8.5142 18.4358 7.54999 17.15 7.54999H16.9Z" fill="black"/>
</svg>
