<svg xmlns="http://www.w3.org/2000/svg" fill="none" viewBox="0 0 24 24">
  <path fill="#000" fill-rule="evenodd" d="M6.5 4.25c-1.286 0-2.25.964-2.25 2.25v6c0 1.286.964 2.25 2.25 2.25h6c1.186 0 2.25-1.064 2.25-2.25v-6c0-1.286-.964-2.25-2.25-2.25h-6ZM2.75 6.5c0-2.114 1.636-3.75 3.75-3.75h6c2.114 0 3.75 1.636 3.75 3.75v6c0 2.014-1.736 3.75-3.75 3.75h-6c-2.114 0-3.75-1.636-3.75-3.75v-6Z" clip-rule="evenodd"/>
  <path fill="#000" fill-rule="evenodd" d="M11.5 9.25c-1.286 0-2.25.964-2.25 2.25v6c0 1.286.964 2.25 2.25 2.25h6c1.186 0 2.25-1.064 2.25-2.25v-6c0-1.286-.964-2.25-2.25-2.25h-6ZM7.75 11.5c0-2.114 1.636-3.75 3.75-3.75h6c2.114 0 3.75 1.636 3.75 3.75v6c0 2.014-1.736 3.75-3.75 3.75h-6c-2.114 0-3.75-1.636-3.75-3.75v-6Z" clip-rule="evenodd"/>
</svg>
