<svg xmlns="http://www.w3.org/2000/svg" fill="none" viewBox="0 0 24 24">
  <path fill="#000" d="M16.1 5.85v8.4c0 1.7-1.3 3-3 3H6.9c-1.7 0-3-1.3-3-3v-8.4c0-1.7 1.3-3 3-3h6.2c1.7 0 3 1.3 3 3Z"/>
  <path fill="#000" fill-rule="evenodd" d="M6.9 3.6c-1.286 0-2.25.964-2.25 2.25v8.4c0 1.286.964 2.25 2.25 2.25h6.2c1.286 0 2.25-.964 2.25-2.25v-8.4c0-1.286-.964-2.25-2.25-2.25H6.9ZM3.15 5.85c0-2.114 1.636-3.75 3.75-3.75h6.2c2.114 0 3.75 1.636 3.75 3.75v8.4c0 2.114-1.636 3.75-3.75 3.75H6.9c-2.114 0-3.75-1.636-3.75-3.75v-8.4Z" clip-rule="evenodd"/>
  <path fill="#000" fill-rule="evenodd" d="M20.1 9.1a.75.75 0 0 1 .75.75v8.4c0 2.114-1.636 3.75-3.75 3.75h-6.2a.75.75 0 0 1 0-1.5h6.2c1.286 0 2.25-.964 2.25-2.25v-8.4a.75.75 0 0 1 .75-.75Z" clip-rule="evenodd"/>
</svg>
