<svg xmlns="http://www.w3.org/2000/svg" viewBox="0 0 24 24" fill="currentColor">
  <path d="M4.59998 5.79999c0-1.28579.96421-2.25 2.25-2.25H13.15c1.2696 0 2.25 1.04786 2.25 2.25V14.2c0 1.2858-.9642 2.25-2.25 2.25H6.84998c-1.28579 0-2.25-.9642-2.25-2.25V5.79999Zm2.25-3.75c-2.11422 0-3.75 1.63578-3.75 3.75V14.2c0 2.1142 1.63578 3.75 3.75 3.75H13.15c2.1142 0 3.75-1.6358 3.75-3.75V5.79999c0-1.99787-1.6196-3.75-3.75-3.75H6.84998ZM20.9 9.79999c0-.41422-.3358-.75-.75-.75s-.75.33578-.75.75V18.2c0 1.2858-.9642 2.25-2.25 2.25h-6.3c-.4142 0-.75.3358-.75.75s.3358.75.75.75h6.3c2.1142 0 3.75-1.6358 3.75-3.75V9.79999Z"/>
</svg>
