<svg xmlns="http://www.w3.org/2000/svg" fill="none" viewBox="0 0 24 24">
  <path fill="#000" fill-rule="evenodd" d="M6.9 3.6c-1.286 0-2.25.964-2.25 2.25v8.4c0 1.286.964 2.25 2.25 2.25h6.2c1.286 0 2.25-.964 2.25-2.25v-8.4c0-1.286-.964-2.25-2.25-2.25H6.9ZM3.15 5.85c0-2.114 1.636-3.75 3.75-3.75h6.2c2.114 0 3.75 1.636 3.75 3.75v8.4c0 2.114-1.636 3.75-3.75 3.75H6.9c-2.114 0-3.75-1.636-3.75-3.75v-8.4Z" clip-rule="evenodd"/>
  <path fill="#000" d="M20.1 9.85v8.4c0 1.7-1.3 3-3 3h-6.2c-1.7 0-3-1.3-3-3v-1h5.2c1.7 0 3-1.3 3-3v-7.4h1c1.7 0 3 1.3 3 3Z"/>
  <path fill="#000" fill-rule="evenodd" d="M15.35 6.1h1.75c2.114 0 3.75 1.636 3.75 3.75v8.4c0 2.114-1.636 3.75-3.75 3.75h-6.2c-2.114 0-3.75-1.636-3.75-3.75V16.5h5.95c1.286 0 2.25-.964 2.25-2.25V6.1Zm1.5 1.5v6.65c0 2.114-1.636 3.75-3.75 3.75H8.65v.25c0 1.286.964 2.25 2.25 2.25h6.2c1.286 0 2.25-.964 2.25-2.25v-8.4c0-1.286-.964-2.25-2.25-2.25h-.25Z" clip-rule="evenodd"/>
</svg>
