<svg xmlns="http://www.w3.org/2000/svg" viewBox="0 0 24 24" fill="currentColor">
  <path d="M4.60001 5.79999c0-1.28579.96421-2.25 2.25-2.25H13.15c1.2696 0 2.25 1.04786 2.25 2.25v.25h-4.55c-2.11421 0-3.74999 1.63578-3.74999 3.75V16.45h-.25c-1.28579 0-2.25-.9642-2.25-2.25V5.79999Zm2.5 12.15001h-.25c-2.11422 0-3.75-1.6358-3.75-3.75V5.79999c0-2.11422 1.63578-3.75 3.75-3.75H13.15c2.1304 0 3.75 1.75213 3.75 3.75v.25h.25c2.1304 0 3.75 1.75213 3.75 3.75V18.2c0 2.1142-1.6358 3.75-3.75 3.75h-6.3c-2.11421 0-3.74999-1.6358-3.74999-3.75v-.25ZM16.9 7.54999h.25c1.2696 0 2.25 1.04786 2.25 2.25V18.2c0 1.2858-.9642 2.25-2.25 2.25h-6.3c-1.28578 0-2.24999-.9642-2.24999-2.25v-.25H13.15c2.1142 0 3.75-1.6358 3.75-3.75V7.54999Zm-1.5 0V14.2c0 1.2858-.9642 2.25-2.25 2.25H8.60001V9.79999c0-1.28579.96421-2.25 2.24999-2.25h4.55Z"/>
</svg>
