<svg xmlns="http://www.w3.org/2000/svg" viewBox="0 0 24 24" fill="currentColor">
  <path d="M12 3c5 0 9 4 9 9s-4 9-9 9-9-4-9-9c.1-5 4.1-9 9-9Z"/>
  <path d="M18.1001 18.7c-.1-.1-.2-.2-.4-.3-1.6-1.6-2.6-3.9-2.6-6.4 0-2.5 1-4.69996 2.6-6.39996.1-.1.2-.20005.4-.30005"/>
  <path d="M6.1001 5.20001c1.8 1.6 3 4.00001 3 6.69999 0 2.5-1.00001 4.7-2.60001 6.4-.1.1-.19999.2-.39999.3"/>
  <path d="M8.1001 12h2"/>
  <path d="M7.1001 8.40002 9.00009 7.5"/>
  <path d="m17.0001 8.40002-1.9-.90002"/>
  <path d="m17.0001 15.5-1.9.9"/>
  <path d="m7.1001 15.5 1.89999.9"/>
  <path d="M14.1001 12h2"/>
</svg>
