<svg width="24" height="24" fill="none" xmlns="http://www.w3.org/2000/svg"><path fill="#fff" d="M0 0h24v24H0z"/><path d="M12 3c5 0 9 4 9 9s-4 9-9 9-9-4-9-9c.1-5 4.1-9 9-9z" stroke="#000" stroke-width="1.5" stroke-miterlimit="10"/><path d="M18.1001 18.7c-.1-.1-.2-.2-.4-.3-1.6-1.6-2.6-3.9-2.6-6.4 0-2.5 1-4.69996 2.6-6.39996.1-.1.2-.20005.4-.30005M6.1001 5.20001c1.8 1.6 3 4.00001 3 6.69999 0 2.5-1.00001 4.7-2.60001 6.4-.1.1-.19999.2-.39999.3" stroke="#000" stroke-width="1.5" stroke-miterlimit="10"/><path d="M8.1001 12h2M7.1001 8.40002L9.00009 7.5M17.0001 8.40002l-1.9-.90002M17.0001 15.5l-1.9.9M7.1001 15.5l1.89999.9M14.1001 12h2" stroke="#000" stroke-width="1.5" stroke-miterlimit="10" stroke-linecap="round"/></svg>