<svg xmlns="http://www.w3.org/2000/svg" viewBox="0 0 24 24" fill="currentColor">
  <path d="M7.15546 18.6961C8.51217 19.6753 10.1838 20.25 12 20.25c1.8427 0 3.5366-.5916 4.9037-1.597-.4696-.5107-.8852-1.0785-1.2375-1.6912l-.245.116c-.3743.1773-.8215.0176-.9988-.3567-.1774-.3743-.0177-.8216.3567-.9989l.2413-.1143c-.3466-.8968-.5681-1.8591-.6426-2.8579h-.2777c-.4142 0-.75-.3358-.75-.75s.3358-.75.75-.75h.2779c.078-1.0375.3164-2.02077.6876-2.93645l-.2865-.13575c-.3744-.17732-.5341-.62453-.3567-.99887.1773-.37434.6245-.53405.9988-.35673l.3111.14735c.3406-.57509.7364-1.11557 1.1788-1.61715C15.5427 4.34377 13.846 3.75 12 3.75c-1.7614 0-3.39936.56621-4.7441 1.53353.45898.49485.87015 1.04246 1.22257 1.6337l.2006-.09503c.37434-.17732.82155-.01761.99888.35673.17732.37434.01761.82155-.35673.99887l-.17601.08338c.37487.92929.6133 1.93442.68325 2.98882h.27164c.4142 0 .75.3358.75.75s-.3358.75-.75.75h-.28619c-.08668 1.0156-.32731 1.9785-.69576 2.876l.20307.0962c.37434.1773.53405.6246.35673.9989-.17733.3743-.62454.534-.99888.3567l-.23335-.1105c-.36971.6184-.80345 1.1965-1.29026 1.7288ZM15.8827 12.75h.2174c.4142 0 .75-.3358.75-.75s-.3358-.75-.75-.75h-.217c.0714-.8047.2571-1.57181.5408-2.29306l.2552.12088c.3743.17733.8215.01762.9988-.35672.1774-.37434.0177-.82155-.3567-.99887l-.2267-.10738c.274-.44638.5882-.86918.9376-1.26581C19.4104 7.821 20.25 9.80492 20.25 12c0 2.1983-.842 4.1848-2.2239 5.6574-.375-.405-.7105-.8546-.9992-1.3402l.2943-.1394c.3744-.1773.5341-.6245.3567-.9989-.1773-.3743-.6245-.534-.9988-.3567l-.2988.1415c-.2588-.6971-.4298-1.4412-.4976-2.2137Zm-7.57531 0c-.07906.783-.26644 1.5299-.5471 2.2328l-.33907-.1606c-.37433-.1773-.82154-.0176-.99887.3567-.17732.3744-.01761.8216.35673.9989l.30377.1439c-.30592.4931-.66111.9572-1.05872 1.3887-1.41011-1.4761-2.27219-3.4811-2.27413-5.7029.04678-2.24329.94479-4.26158 2.37137-5.74123.37007.39393.70415.8283.99431 1.29651l-.3366.15945c-.37434.17732-.53405.62453-.35673.99887.17733.37434.62454.53405.99887.35672l.36554-.17315c.2865.73315.47299 1.52093.53775 2.34533H8.1001c-.41422 0-.75.3358-.75.75s.33578.75.75.75h.20729Zm-6.05724-.765C2.35803 6.59079 6.6777 2.25 12 2.25c5.4142 0 9.75 4.33579 9.75 9.75 0 5.4142-4.3358 9.75-9.75 9.75-5.41421 0-9.75-4.3358-9.75-9.75v-.0075l.00015-.0075Z"/>
</svg>
