<svg width="24" height="24" viewBox="0 0 24 24" fill="none" xmlns="http://www.w3.org/2000/svg">
<path fill-rule="evenodd" clip-rule="evenodd" d="M15.5335 4.62719C15.7407 4.4232 16.0636 4.42424 16.2697 4.63031L18.6697 7.03031C18.8768 7.23741 18.8768 7.56254 18.6697 7.76965L15.2697 11.1696C14.9768 11.4625 14.9768 11.9374 15.2697 12.2303C15.5626 12.5232 16.0374 12.5232 16.3303 12.2303L19.7303 8.83031C20.5232 8.03741 20.5232 6.76254 19.7303 5.96965L17.3303 3.56965C16.5374 2.77675 15.2626 2.77675 14.4697 3.56965L11.1618 6.97762C10.8733 7.27485 10.8804 7.74967 11.1777 8.03816C11.4749 8.32665 11.9497 8.31956 12.2382 8.02233L15.5335 4.62719Z" fill="black"/>
<path fill-rule="evenodd" clip-rule="evenodd" d="M8.03034 11.0696C8.32323 11.3625 8.32323 11.8374 8.03034 12.1303L4.63034 15.5303C4.42323 15.7374 4.42323 16.0625 4.63034 16.2696L7.03034 18.6696C7.23744 18.8768 7.56257 18.8768 7.76968 18.6696L11.1697 15.2696C11.4626 14.9768 11.9374 14.9768 12.2303 15.2696C12.5232 15.5625 12.5232 16.0374 12.2303 16.3303L8.83034 19.7303C8.03744 20.5232 6.76257 20.5232 5.96968 19.7303L3.56968 17.3303C2.77678 16.5374 2.77678 15.2625 3.56968 14.4696L6.96968 11.0696C7.26257 10.7768 7.73744 10.7768 8.03034 11.0696Z" fill="black"/>
<path fill-rule="evenodd" clip-rule="evenodd" d="M15.2697 11.1696C15.5626 10.8767 16.0374 10.8767 16.3303 11.1696L19.7303 14.5696C20.5232 15.3625 20.5232 16.6374 19.7303 17.4303L17.3303 19.8303C16.5374 20.6232 15.2626 20.6232 14.4697 19.8303L11.0697 16.4303C10.7768 16.1374 10.7768 15.6625 11.0697 15.3696C11.3626 15.0767 11.8374 15.0767 12.1303 15.3696L15.5303 18.7696C15.7374 18.9767 16.0626 18.9767 16.2697 18.7696L18.6697 16.3696C18.8768 16.1625 18.8768 15.8374 18.6697 15.6303L15.2697 12.2303C14.9768 11.9374 14.9768 11.4625 15.2697 11.1696Z" fill="black"/>
<path fill-rule="evenodd" clip-rule="evenodd" d="M7.76968 4.63031C7.56257 4.4232 7.23744 4.4232 7.03034 4.63031L4.63034 7.03031C4.42323 7.23741 4.42323 7.56254 4.63034 7.76965L8.03034 11.1696C8.32323 11.4625 8.32323 11.9374 8.03034 12.2303C7.73744 12.5232 7.26257 12.5232 6.96968 12.2303L3.56968 8.83031C2.77678 8.03741 2.77678 6.76254 3.56968 5.96965L5.96968 3.56965C6.76257 2.77675 8.03744 2.77675 8.83034 3.56965L12.2303 6.96965C12.5232 7.26254 12.5232 7.73741 12.2303 8.03031C11.9374 8.3232 11.4626 8.3232 11.1697 8.03031L7.76968 4.63031Z" fill="black"/>
</svg>
