<svg xmlns="http://www.w3.org/2000/svg" viewBox="0 0 24 24" fill="currentColor">
  <path d="M9 3.75C6.11421 3.75 3.75 6.11421 3.75 9v6c0 2.8858 2.36421 5.25 5.25 5.25h6c2.8858 0 5.25-2.3642 5.25-5.25V9c0-2.88579-2.3642-5.25-5.25-5.25H9ZM2.25 9c0-3.71421 3.03579-6.75 6.75-6.75h6c3.7142 0 6.75 3.03579 6.75 6.75v6c0 3.7142-3.0358 6.75-6.75 6.75H9c-3.71421 0-6.75-3.0358-6.75-6.75V9Zm7.0196.26966c.29289-.2929.7678-.2929 1.0607 0l1.6196 1.61964 1.6197-1.61964c.2929-.2929.7678-.2929 1.0606 0 .2929.29289.2929.76774 0 1.06064L13.0106 11.95l1.6196 1.6197c.2929.2929.2929.7677 0 1.0606-.2928.2929-.7677.2929-1.0606 0l-1.6197-1.6197-1.6196 1.6197c-.2929.2929-.76781.2929-1.0607 0-.2929-.2929-.2929-.7677 0-1.0606l1.6197-1.6197-1.6197-1.6197c-.2929-.2929-.2929-.76775 0-1.06064Z"/>
</svg>
