<svg width="24" height="24" viewBox="0 0 24 24" fill="none" xmlns="http://www.w3.org/2000/svg">
<path d="M19.2 8.29998L15.8 11.7L11.7 7.49998L15 4.09998C15.5 3.59998 16.3 3.59998 16.8 4.09998L19.2 6.49998C19.7 6.99998 19.7 7.79998 19.2 8.29998Z" fill="black"/>
<path fill-rule="evenodd" clip-rule="evenodd" d="M15.5335 4.62719L12.7467 7.49847L15.8064 10.6329L18.6697 7.76965C18.8768 7.56254 18.8768 7.23741 18.6697 7.03031L16.2697 4.63031C16.0636 4.42424 15.7407 4.4232 15.5335 4.62719ZM14.4697 3.56965C15.2626 2.77675 16.5375 2.77675 17.3304 3.56965L19.7304 5.96965C20.5232 6.76254 20.5232 8.03741 19.7304 8.83031L15.7936 12.7671L10.6534 7.50148L14.4697 3.56965Z" fill="black"/>
<path d="M11.7 15.8L8.30001 19.2C7.80001 19.7 7.00001 19.7 6.50001 19.2L4.10001 16.8C3.60001 16.3 3.60001 15.5 4.10001 15L7.50001 11.6L11.7 15.8Z" fill="black"/>
<path fill-rule="evenodd" clip-rule="evenodd" d="M7.50001 10.5393L12.7607 15.8L8.83034 19.7303C8.03744 20.5232 6.76257 20.5232 5.96968 19.7303L3.56968 17.3303C2.77678 16.5374 2.77678 15.2625 3.56968 14.4696L7.50001 10.5393ZM7.50001 12.6606L4.63034 15.5303C4.42323 15.7374 4.42323 16.0625 4.63034 16.2696L7.03034 18.6696C7.23744 18.8767 7.56257 18.8767 7.76968 18.6696L10.6393 15.8L7.50001 12.6606Z" fill="black"/>
<path d="M19.2 16.9L16.8 19.3C16.3 19.8 15.5 19.8 15 19.3L11.6 15.9L15.8 11.7L19.2 15.1C19.7 15.5 19.7 16.4 19.2 16.9Z" fill="black"/>
<path fill-rule="evenodd" clip-rule="evenodd" d="M15.8 10.6393L19.7053 14.5446C20.147 14.9192 20.325 15.4683 20.325 15.9624C20.325 16.4741 20.1376 17.023 19.7303 17.4303L17.3303 19.8303C16.5374 20.6232 15.2626 20.6232 14.4697 19.8303L10.5393 15.8999L15.8 10.6393ZM12.6607 15.8999L15.5303 18.7696C15.7374 18.9767 16.0626 18.9767 16.2697 18.7696L18.6697 16.3696C18.7624 16.2769 18.825 16.1258 18.825 15.9624C18.825 15.795 18.7629 15.7107 18.7315 15.6856L18.699 15.6596L15.8 12.7606L12.6607 15.8999Z" fill="black"/>
<path d="M11.64 7.50182L7.46814 11.6737L11.64 15.8456L15.8119 11.6737L11.64 7.50182Z" fill="black"/>
<path fill-rule="evenodd" clip-rule="evenodd" d="M6.4075 11.6737L11.64 6.44117L16.8726 11.6737L11.64 16.9062L6.4075 11.6737ZM8.5288 11.6737L11.64 14.7849L14.7513 11.6737L11.64 8.56247L8.5288 11.6737Z" fill="black"/>
<path d="M11.7 7.49998L7.50001 11.7L4.10001 8.29998C3.60001 7.79998 3.60001 6.99998 4.10001 6.49998L6.50001 4.09998C7.00001 3.59998 7.80001 3.59998 8.30001 4.09998L11.7 7.49998Z" fill="black"/>
<path fill-rule="evenodd" clip-rule="evenodd" d="M7.76968 4.63031C7.56257 4.4232 7.23744 4.4232 7.03034 4.63031L4.63034 7.03031C4.42323 7.23741 4.42323 7.56254 4.63034 7.76965L7.50001 10.6393L10.6393 7.49998L7.76968 4.63031ZM5.96968 3.56965C6.76257 2.77675 8.03744 2.77675 8.83034 3.56965L12.7607 7.49998L7.50001 12.7606L3.56968 8.83031C2.77678 8.03741 2.77678 6.76254 3.56968 5.96965L5.96968 3.56965Z" fill="black"/>
</svg>
