<svg width="24" height="24" viewBox="0 0 24 24" fill="none" xmlns="http://www.w3.org/2000/svg">
<path fill-rule="evenodd" clip-rule="evenodd" d="M18.6303 6.26972C18.9232 6.56261 18.9232 7.03749 18.6303 7.33038L7.33033 18.6304C7.03744 18.9233 6.56256 18.9233 6.26967 18.6304C5.97678 18.3375 5.97678 17.8626 6.26967 17.5697L17.5697 6.26972C17.8626 5.97683 18.3374 5.97683 18.6303 6.26972Z" fill="black"/>
<path fill-rule="evenodd" clip-rule="evenodd" d="M6.26967 6.26972C6.56256 5.97683 7.03744 5.97683 7.33033 6.26972L18.6303 17.5697C18.9232 17.8626 18.9232 18.3375 18.6303 18.6304C18.3374 18.9233 17.8626 18.9233 17.5697 18.6304L6.26967 7.33038C5.97678 7.03749 5.97678 6.56261 6.26967 6.26972Z" fill="black"/>
</svg>
