<svg xmlns="http://www.w3.org/2000/svg" fill="none" viewBox="0 0 24 24">
  <path fill="#000" d="m19.2 8.3-3.4 3.4-4.1-4.2L15 4.1c.5-.5 1.3-.5 1.8 0l2.4 2.4c.5.5.5 1.3 0 1.8Z"/>
  <path fill="#000" fill-rule="evenodd" d="m15.534 4.627-2.787 2.871 3.06 3.135L18.67 7.77a.518.518 0 0 0 0-.74l-2.4-2.4a.517.517 0 0 0-.736-.003ZM14.47 3.57a2.018 2.018 0 0 1 2.86 0l2.4 2.4a2.018 2.018 0 0 1 0 2.86l-3.936 3.937-5.14-5.266L14.47 3.57Z" clip-rule="evenodd"/>
  <path fill="#000" d="m11.7 15.8-3.4 3.4c-.5.5-1.3.5-1.8 0l-2.4-2.4c-.5-.5-.5-1.3 0-1.8l3.4-3.4 4.2 4.2Z"/>
  <path fill="#000" fill-rule="evenodd" d="m7.5 10.54 5.26 5.26-3.93 3.93a2.017 2.017 0 0 1-2.86 0l-2.4-2.4a2.018 2.018 0 0 1 0-2.86l3.93-3.93Zm0 2.12-2.87 2.87a.518.518 0 0 0 0 .74l2.4 2.4a.518.518 0 0 0 .74 0l2.87-2.87-3.14-3.14Z" clip-rule="evenodd"/>
  <path fill="#000" d="m19.2 16.9-2.4 2.4c-.5.5-1.3.5-1.8 0l-3.4-3.4 4.2-4.2 3.4 3.4c.5.4.5 1.3 0 1.8Z"/>
  <path fill="#000" fill-rule="evenodd" d="m15.8 10.64 3.905 3.905c.442.374.62.923.62 1.417a2.08 2.08 0 0 1-.595 1.468l-2.4 2.4a2.017 2.017 0 0 1-2.86 0l-3.93-3.93 5.26-5.26Zm-3.14 5.26 2.87 2.87a.518.518 0 0 0 .74 0l2.4-2.4a.586.586 0 0 0 .155-.408c0-.167-.062-.251-.093-.276l-.033-.026-2.899-2.9-3.14 3.14Z" clip-rule="evenodd"/>
  <path fill="#000" d="m11.64 7.502-4.172 4.172 4.172 4.172 4.172-4.172-4.172-4.172Z"/>
  <path fill="#000" fill-rule="evenodd" d="M6.407 11.674 11.64 6.44l5.233 5.233-5.233 5.232-5.233-5.232Zm2.122 0 3.111 3.11 3.111-3.11-3.111-3.112-3.111 3.112Z" clip-rule="evenodd"/>
  <path fill="#000" d="m11.7 7.5-4.2 4.2-3.4-3.4c-.5-.5-.5-1.3 0-1.8l2.4-2.4c.5-.5 1.3-.5 1.8 0l3.4 3.4Z"/>
  <path fill="#000" fill-rule="evenodd" d="M7.77 4.63a.518.518 0 0 0-.74 0l-2.4 2.4a.518.518 0 0 0 0 .74l2.87 2.87 3.14-3.14-2.87-2.87Zm-1.8-1.06a2.017 2.017 0 0 1 2.86 0l3.93 3.93-5.26 5.26-3.93-3.93a2.017 2.017 0 0 1 0-2.86l2.4-2.4Z" clip-rule="evenodd"/>
</svg>
