<svg width="24" height="24" viewBox="0 0 24 24" fill="none" xmlns="http://www.w3.org/2000/svg">
<path d="M12.1031 13.5125C12.4031 13.5125 12.6032 13.6125 12.8032 13.8125C13.0032 14.0125 13.1031 14.2125 13.1031 14.5125C13.1031 14.8125 13.0032 15.0125 12.8032 15.2125C12.4032 15.6125 11.8031 15.6125 11.4031 15.2125C11.2031 15.0125 11.1031 14.8125 11.1031 14.5125C11.1031 14.2125 11.2031 14.0125 11.4031 13.8125C11.6031 13.6125 11.8031 13.5125 12.1031 13.5125Z" fill="black"/>
<path fill-rule="evenodd" clip-rule="evenodd" d="M12.0869 5.81145L14.2259 10.535L14.2324 10.5479C14.6315 11.3462 15.633 11.5854 16.3096 11.1429L20.3547 8.59272L18.6626 17.993L18.6607 18.0064C18.6154 18.324 18.3432 18.5625 18.0032 18.5625H6.00318C5.66316 18.5625 5.39101 18.324 5.34564 18.0064L5.34372 17.993L3.65973 8.63747L7.63316 11.166L7.66777 11.1833C8.01457 11.3567 8.42706 11.414 8.80893 11.3122C9.18259 11.2125 9.55089 10.9451 9.70214 10.4927L12.0869 5.81145ZM11.0791 4.49647C11.576 3.75118 12.6304 3.75118 13.1272 4.49647L13.1612 4.54738L15.5591 9.84282L20.2048 6.91402L20.3213 6.88489C20.6735 6.79684 21.0949 6.82054 21.4433 7.04225C21.6252 7.15797 21.7915 7.3329 21.8876 7.57047C21.9804 7.80002 21.9884 8.0407 21.9378 8.26491L20.1435 18.2334C19.9825 19.308 19.0583 20.0625 18.0032 20.0625H6.00318C4.94804 20.0625 4.02384 19.308 3.86289 18.2334L2.03113 8.05695L2.09167 7.87533C2.20419 7.53776 2.45679 7.24836 2.75028 7.07717C3.05066 6.90194 3.54526 6.77781 4.01104 7.08307L8.34931 9.84378L11.0548 4.53297L11.0791 4.49647Z" fill="black"/>
</svg>
