<svg width="24" height="24" viewBox="0 0 24 24" fill="none" xmlns="http://www.w3.org/2000/svg">
<path fill-rule="evenodd" clip-rule="evenodd" d="M10.2046 1.31067C11.0932 0.929811 12.1068 0.929811 12.9954 1.31067L13.0376 1.32875L19.7721 5.24884C19.773 5.24937 19.774 5.2499 19.7749 5.25043C20.7094 5.78572 21.25 6.73489 21.25 7.80002V15.5C21.25 16.5769 20.703 17.491 19.8359 18.1103L19.8075 18.1306L13.0953 22.0377C12.2294 22.6029 11.1312 22.5674 10.2279 22.0512L10.2227 22.0482L3.5279 18.1512C3.52693 18.1507 3.52596 18.1501 3.525 18.1495C2.59055 17.6143 2.05 16.6651 2.05 15.6V7.80002C2.05 6.74638 2.57774 5.81348 3.38398 5.27599L3.40297 5.26332L10.1624 1.32875L10.2046 1.31067ZM10.8345 2.67314L4.19913 6.53551C3.8145 6.80001 3.55 7.26152 3.55 7.80002V15.6C3.55 16.1338 3.80834 16.5838 4.27211 16.8488L4.27732 16.8518L10.9721 20.7488C10.9729 20.7493 10.9737 20.7498 10.9745 20.7502C11.4632 21.0284 11.9536 20.9962 12.284 20.776L12.303 20.7633L18.9906 16.8705C19.5054 16.4928 19.75 16.0144 19.75 15.5V7.80002C19.75 7.26622 19.4917 6.81622 19.0279 6.55121L19.0227 6.54823L12.3655 2.67314C11.8766 2.47565 11.3234 2.47565 10.8345 2.67314Z" fill="black"/>
<path fill-rule="evenodd" clip-rule="evenodd" d="M10.854 12.9616L3.37304 17.2506L2.62697 15.9494L10.1455 11.6387L10.1646 11.6292C10.6218 11.4006 11.0405 11.25 11.6 11.25C12.1595 11.25 12.5782 11.4006 13.0354 11.6292L13.0545 11.6387L20.573 15.9494L19.827 17.2506L12.3461 12.9616C12.0152 12.7977 11.8362 12.75 11.6 12.75C11.3639 12.75 11.1848 12.7977 10.854 12.9616Z" fill="black"/>
<path fill-rule="evenodd" clip-rule="evenodd" d="M2.62697 7.35061L3.37304 6.04932L10.8721 10.3488C10.8719 10.3487 10.8723 10.3489 10.8721 10.3488C11.3614 10.6282 11.8532 10.5965 12.184 10.3759L12.205 10.3619L19.727 6.04932L20.473 7.35061L12.9931 11.6391C12.1275 12.2028 11.0304 12.1669 10.1279 11.6511L2.62697 7.35061Z" fill="black"/>
<path fill-rule="evenodd" clip-rule="evenodd" d="M12.35 12V21.6H10.85V12H12.35Z" fill="black"/>
</svg>
