<svg xmlns="http://www.w3.org/2000/svg" fill="none" viewBox="0 0 24 24">
  <path fill="#000" fill-rule="evenodd" d="M10.205 1.31a3.551 3.551 0 0 1 2.79 0l.043.019 6.734 3.92.003.001A2.894 2.894 0 0 1 21.25 7.8v7.7c0 1.077-.547 1.991-1.414 2.61l-.028.02-6.713 3.908c-.866.565-1.964.53-2.867.013l-.005-.003-6.695-3.897A2.894 2.894 0 0 1 2.05 15.6V7.8c0-1.054.528-1.987 1.334-2.524l.019-.013 6.76-3.934.042-.018Zm.63 1.363L4.199 6.536A1.525 1.525 0 0 0 3.55 7.8v7.8c0 .534.258.984.722 1.249l.005.003 6.695 3.897.003.001c.488.278.979.246 1.309.026l.019-.013 6.688-3.893c.514-.377.759-.856.759-1.37V7.8c0-.534-.258-.984-.722-1.249l-.005-.003-6.657-3.875a2.052 2.052 0 0 0-1.531 0Z" clip-rule="evenodd"/>
  <path fill="#000" fill-rule="evenodd" d="M10.854 12.962 3.373 17.25l-.746-1.302 7.519-4.31.019-.01c.457-.228.876-.379 1.435-.379.56 0 .978.15 1.435.38l.02.009 7.518 4.31-.746 1.302-7.48-4.29c-.332-.163-.51-.211-.747-.211-.236 0-.415.048-.746.212Z" clip-rule="evenodd"/>
  <path fill="#000" fill-rule="evenodd" d="m2.627 7.35.746-1.3 7.5 4.299c-.001 0 0 0 0 0 .488.28.98.248 1.311.027l.021-.014 7.522-4.313.746 1.302-7.48 4.288c-.866.564-1.963.528-2.865.012l-7.501-4.3Z" clip-rule="evenodd"/>
  <path fill="#000" fill-rule="evenodd" d="M12.35 12v9.6h-1.5V12h1.5Z" clip-rule="evenodd"/>
</svg>
