<svg xmlns="http://www.w3.org/2000/svg" viewBox="0 0 24 24" fill="currentColor">
  <path d="M6 5.75c-1.28579 0-2.25.96421-2.25 2.25v.25H8c.49392 0 .92507.23941 1.21783.53217S9.75 9.50608 9.75 10v5c0 .4939-.23941.9251-.53217 1.2178-.29276.2928-.72391.5322-1.21783.5322H5.91066c1.09127.9375 2.51689 1.5 4.08934 1.5 2.6866 0 4.9085-1.6057 5.7987-3.9157.2746-.7332.4513-1.5425.4513-2.3343V8c0-1.28579-.9642-2.25-2.25-2.25H6ZM3.73052 16.5849C5.13379 18.5102 7.40841 19.75 10 19.75c3.04 0 5.6293-1.6788 6.8931-4.1877.3501.1092.7378.1877 1.1069.1877 2.1142 0 3.75-1.6358 3.75-3.75 0-2.13037-1.7521-3.75-3.75-3.75-.0814 0-.1653.00485-.25.01345V8c0-2.11421-1.6358-3.75-3.75-3.75H6C3.88579 4.25 2.25 5.88579 2.25 8v4c0 1.5656.45244 3.0155 1.23512 4.2275.04522.1422.13171.266.2454.3574Zm.91281-1.3349H8c.00608 0 .07493-.0106.15717-.0928.08224-.0823.09283-.1511.09283-.1572v-5c0-.00608-.01059-.07493-.09283-.15717C8.07493 9.76059 8.00608 9.75 8 9.75H3.75V12c0 1.1957.32526 2.3065.89333 3.25ZM17.75 9.77742V12c0 .7432-.1214 1.4769-.3154 2.1584.2003.0562.3995.0916.5654.0916 1.2858 0 2.25-.9642 2.25-2.25 0-1.2696-1.0479-2.25-2.25-2.25-.0673 0-.1535.00995-.25.02742Z"/>
</svg>
