<svg xmlns="http://www.w3.org/2000/svg" viewBox="0 0 24 24" fill="currentColor">
  <path d="M2.25 8.5V8c0-2.11421 1.63579-3.75 3.75-3.75h8c1.8742 0 3.3724 1.2854 3.6884 3.05002C19.979 7.63568 21.75 9.61948 21.75 12c0 2.3836-1.7756 4.3695-4.0706 4.7013C17.3351 18.4009 15.7757 19.75 14 19.75H6c-2.11421 0-3.75-1.6358-3.75-3.75V8.5Zm1.5 6.25v-5.5H8c.00608 0 .07493.01059.15717.09283.08224.08224.09283.15109.09283.15717v5c0 .0061-.01059.0749-.09283.1572-.08224.0822-.15109.0928-.15717.0928H3.75Zm.0124 1.5c.11617 1.1588 1.03661 2 2.2376 2h8c1.1858 0 2.25-1.0642 2.25-2.25V8c0-1.28579-.9642-2.25-2.25-2.25H6c-1.20099 0-2.12143.84123-2.2376 2H8c.49392 0 .92507.23941 1.21783.53217S9.75 9.00608 9.75 9.5v5c0 .4939-.23941.9251-.53217 1.2178-.29276.2928-.72391.5322-1.21783.5322H3.7624ZM20.25 12c0-1.5279-1.0719-2.82046-2.5-3.16186v6.32376c1.4281-.3414 2.5-1.634 2.5-3.1619Z"/>
</svg>
