<svg xmlns="http://www.w3.org/2000/svg" fill="none" viewBox="0 0 24 24">
  <path fill="#000" fill-rule="evenodd" d="M3.812 7.8H8.05c1.062 0 1.75.885 1.75 1.75v5c0 .865-.688 1.75-1.75 1.75H3.812c.117 1.159 1.037 2 2.238 2h8c1.286 0 2.25-.964 2.25-2.25v-8c0-1.27-1.048-2.25-2.25-2.25h-8c-1.201 0-2.121.841-2.238 2ZM2.3 8.05c0-2.114 1.636-3.75 3.75-3.75h8c1.998 0 3.75 1.62 3.75 3.75v8c0 2.114-1.636 3.75-3.75 3.75h-8c-2.114 0-3.75-1.636-3.75-3.75V14.8h5.75c.08 0 .135-.03.177-.074a.27.27 0 0 0 .073-.176v-5a.27.27 0 0 0-.073-.176.228.228 0 0 0-.177-.074H2.3V8.05Z" clip-rule="evenodd"/>
  <path fill="#000" fill-rule="evenodd" d="M16.3 8.05a.75.75 0 0 1 .75-.75 4.762 4.762 0 0 1 4.75 4.75 4.762 4.762 0 0 1-4.75 4.75.75.75 0 1 1 0-1.5 3.262 3.262 0 0 0 3.25-3.25 3.262 3.262 0 0 0-3.25-3.25.75.75 0 0 1-.75-.75Z" clip-rule="evenodd"/>
  <path fill="#000" d="M9.05 9.55v5c0 .5-.4 1-1 1h-5v-7h5c.5 0 1 .4 1 1Z"/>
  <path fill="#000" fill-rule="evenodd" d="M2.3 7.8h5.75c.865 0 1.75.688 1.75 1.75v5c0 .865-.688 1.75-1.75 1.75H2.3V7.8Zm1.5 1.5v5.5h4.25c.08 0 .135-.03.177-.074a.27.27 0 0 0 .073-.176v-5c0-.08-.03-.135-.074-.177A.27.27 0 0 0 8.05 9.3H3.8Z" clip-rule="evenodd"/>
</svg>
