<svg width="24" height="24" viewBox="0 0 24 24" fill="none" xmlns="http://www.w3.org/2000/svg">
<path d="M17.05 8.05005V12.05C17.05 12.95 16.85 13.85 16.55 14.65C15.55 17.25 12.95 19.05 10.05 19.05C6.14999 19.05 3.04999 15.95 3.04999 12.05V8.05005C3.04999 6.35005 4.34999 5.05005 6.04999 5.05005H14.05C15.65 5.05005 17.05 6.35005 17.05 8.05005Z" fill="black"/>
<path fill-rule="evenodd" clip-rule="evenodd" d="M6.04999 5.80005C4.7642 5.80005 3.79999 6.76426 3.79999 8.05005V12.05C3.79999 15.5358 6.5642 18.3 10.05 18.3C12.6431 18.3 14.9611 16.6883 15.8489 14.3837C16.1234 13.6507 16.3 12.8416 16.3 12.05V8.05005C16.3 6.78042 15.2521 5.80005 14.05 5.80005H6.04999ZM2.29999 8.05005C2.29999 5.93584 3.93577 4.30005 6.04999 4.30005H14.05C16.0479 4.30005 17.8 5.91967 17.8 8.05005V12.05C17.8 13.0574 17.5771 14.0472 17.2522 14.9134L17.25 14.9193L17.25 14.9193C16.137 17.8131 13.2558 19.8 10.05 19.8C5.73577 19.8 2.29999 16.3643 2.29999 12.05V8.05005Z" fill="black"/>
<path fill-rule="evenodd" clip-rule="evenodd" d="M17.8 9.72737V12.05C17.8 12.7969 17.6774 13.5341 17.4816 14.2186C17.6619 14.2693 17.8502 14.3 18.05 14.3C19.3358 14.3 20.3 13.3357 20.3 12.05C20.3 10.7969 19.2659 9.79055 18.0292 9.70025C17.9653 9.70202 17.8868 9.71165 17.8 9.72737ZM16.8128 8.43844C17.1336 8.33152 17.6264 8.19995 18.05 8.19995H18.0734L18.0968 8.20141C20.0486 8.3234 21.8 9.9118 21.8 12.05C21.8 14.1642 20.1642 15.8 18.05 15.8C17.28 15.8 16.657 15.542 16.2146 15.3208L15.6107 15.0188L15.8477 14.3866C16.1229 13.6528 16.3 12.8426 16.3 12.05V8.60938L16.8128 8.43844Z" fill="black"/>
</svg>
