<svg xmlns="http://www.w3.org/2000/svg" viewBox="0 0 24 24" fill="currentColor">
  <path d="M3.75 8c0-1.28579.96421-2.25 2.25-2.25h8c1.2858 0 2.25.96421 2.25 2.25v4c0 .7918-.1767 1.6011-.4513 2.3343-.8902 2.31-3.1121 3.9157-5.7987 3.9157-3.48579 0-6.25-2.7642-6.25-6.25V8Zm13.1431 7.5623C15.6293 18.0712 13.04 19.75 10 19.75c-4.31421 0-7.75-3.4358-7.75-7.75V8c0-2.11421 1.63579-3.75 3.75-3.75h8c2.1142 0 3.75 1.63579 3.75 3.75v.26345c.0847-.0086.1686-.01345.25-.01345 1.9979 0 3.75 1.61963 3.75 3.75 0 2.1142-1.6358 3.75-3.75 3.75-.3691 0-.7568-.0785-1.1069-.1877ZM17.75 12V9.77742c.0965-.01747.1827-.02742.25-.02742 1.2021 0 2.25.9804 2.25 2.25 0 1.2858-.9642 2.25-2.25 2.25-.1659 0-.3651-.0354-.5654-.0916.194-.6815.3154-1.4152.3154-2.1584Z"/>
</svg>
