<svg xmlns="http://www.w3.org/2000/svg" viewBox="0 0 24 24" fill="currentColor">
  <path d="M3.75 8c0-1.28579.96421-2.25 2.25-2.25h8c1.2858 0 2.25.96421 2.25 2.25v8c0 1.1858-1.0642 2.25-2.25 2.25H6c-1.28579 0-2.25-.9642-2.25-2.25V8Zm13.9294 8.7013C17.3351 18.4009 15.7757 19.75 14 19.75H6c-2.11421 0-3.75-1.6358-3.75-3.75V8c0-2.11421 1.63579-3.75 3.75-3.75h8c1.8742 0 3.3724 1.2854 3.6884 3.05002C19.979 7.63568 21.75 9.61948 21.75 12c0 2.3836-1.7756 4.3695-4.0706 4.7013Zm.0706-7.86316c1.4281.3414 2.5 1.63396 2.5 3.16186 0 1.5279-1.0719 2.8205-2.5 3.1619V8.83814Z"/>
</svg>
