<svg xmlns="http://www.w3.org/2000/svg" fill="none" viewBox="0 0 24 24">
  <path fill="#000" d="M17.05 8.05v8c0 1.7-1.3 3-3 3h-8c-1.7 0-3-1.3-3-3v-8c0-1.7 1.3-3 3-3h8c1.6 0 3 1.3 3 3Z"/>
  <path fill="#000" fill-rule="evenodd" d="M6.05 5.8c-1.286 0-2.25.964-2.25 2.25v8c0 1.286.964 2.25 2.25 2.25h8c1.286 0 2.25-.964 2.25-2.25v-8c0-1.27-1.048-2.25-2.25-2.25h-8ZM2.3 8.05c0-2.114 1.636-3.75 3.75-3.75h8c1.998 0 3.75 1.62 3.75 3.75v8c0 2.114-1.636 3.75-3.75 3.75h-8c-2.114 0-3.75-1.636-3.75-3.75v-8Z" clip-rule="evenodd"/>
  <path fill="#000" fill-rule="evenodd" d="M16.3 7.3h.75c2.602 0 4.75 2.024 4.75 4.75a4.762 4.762 0 0 1-4.75 4.75h-.75V7.3Zm1.5 1.583v6.329a3.266 3.266 0 0 0 2.5-3.162c0-1.604-1.065-2.844-2.5-3.167Z" clip-rule="evenodd"/>
</svg>
