<svg xmlns="http://www.w3.org/2000/svg" fill="none" viewBox="0 0 24 24">
  <path fill="#000" fill-rule="evenodd" d="M6.848 7.002c-1.29.915-1.998 2.11-1.998 3.348 0 1.239.707 2.433 1.998 3.348C8.136 14.61 9.956 15.2 12 15.2s3.864-.589 5.152-1.502c1.29-.915 1.998-2.11 1.998-3.348 0-1.239-.707-2.433-1.998-3.348C15.864 6.09 14.044 5.5 12 5.5s-3.864.589-5.152 1.502ZM5.98 5.778C7.55 4.665 9.681 4 12 4c2.319 0 4.45.665 6.02 1.778 1.569 1.112 2.63 2.718 2.63 4.572s-1.061 3.46-2.63 4.572C16.45 16.035 14.319 16.7 12 16.7c-2.319 0-4.45-.665-6.02-1.778-1.569-1.112-2.63-2.718-2.63-4.572s1.061-3.46 2.63-4.572Z" clip-rule="evenodd"/>
  <path fill="#000" d="M19.9 10.35v3.3c0 3.1-3.5 5.6-7.9 5.6s-7.9-2.5-7.9-5.6v-3.3c0 3.1 3.5 5.6 7.9 5.6s7.9-2.4 7.9-5.6Z"/>
  <path fill="#000" fill-rule="evenodd" d="M3.35 10.35v3.3c0 1.854 1.049 3.46 2.616 4.574C7.533 19.337 9.664 20 12 20c2.335 0 4.467-.663 6.034-1.776 1.567-1.113 2.616-2.72 2.616-4.574v-3.3h-1.5c0 1.3-.705 2.491-1.98 3.386-1.28.898-3.099 1.464-5.17 1.464-2.064 0-3.883-.588-5.166-1.499-1.283-.912-1.984-2.106-1.984-3.351h-1.5Zm15.78 3.667a7.119 7.119 0 0 1-1.1.947C16.46 16.066 14.33 16.7 12 16.7c-2.336 0-4.467-.662-6.034-1.776a7.277 7.277 0 0 1-1.1-.956c.108 1.13.795 2.2 1.968 3.033C8.117 17.912 9.936 18.5 12 18.5c2.064 0 3.883-.588 5.166-1.499 1.156-.822 1.84-1.872 1.964-2.984Z" clip-rule="evenodd"/>
  <path fill="#000" fill-rule="evenodd" d="M9.05 9.091c-.738.424-1 .897-1 1.259 0 .362.262.835 1 1.259.718.412 1.76.691 2.95.691 1.19 0 2.232-.279 2.95-.691.738-.424 1-.897 1-1.259 0-.362-.262-.835-1-1.259C14.232 8.68 13.19 8.4 12 8.4c-1.19 0-2.232.279-2.95.691Zm-.747-1.3C9.286 7.226 10.595 6.9 12 6.9c1.405 0 2.713.326 3.697.89.963.554 1.753 1.431 1.753 2.56s-.79 2.006-1.753 2.56c-.983.565-2.292.89-3.697.89-1.405 0-2.714-.325-3.697-.89-.963-.554-1.753-1.431-1.753-2.56s.79-2.006 1.753-2.56Z" clip-rule="evenodd"/>
</svg>
