<svg width="24" height="24" viewBox="0 0 24 24" fill="none" xmlns="http://www.w3.org/2000/svg">
<path d="M12.3 9.80005C16.9944 9.80005 20.8 8.4569 20.8 6.80005C20.8 5.14319 16.9944 3.80005 12.3 3.80005C7.60557 3.80005 3.79999 5.14319 3.79999 6.80005C3.79999 8.4569 7.60557 9.80005 12.3 9.80005Z" fill="black"/>
<path fill-rule="evenodd" clip-rule="evenodd" d="M4.94848 6.20816C4.60789 6.49237 4.54999 6.6959 4.54999 6.80005C4.54999 6.90419 4.60789 7.10773 4.94848 7.39193C5.28484 7.67262 5.81643 7.95903 6.5392 8.21413C7.97797 8.72193 10.0147 9.05005 12.3 9.05005C14.5853 9.05005 16.622 8.72193 18.0608 8.21413C18.7835 7.95903 19.3151 7.67262 19.6515 7.39193C19.9921 7.10773 20.05 6.90419 20.05 6.80005C20.05 6.6959 19.9921 6.49237 19.6515 6.20816C19.3151 5.92748 18.7835 5.64107 18.0608 5.38597C16.622 4.87817 14.5853 4.55005 12.3 4.55005C10.0147 4.55005 7.97797 4.87817 6.5392 5.38597C5.81643 5.64107 5.28484 5.92748 4.94848 6.20816ZM6.03997 3.97149C7.67759 3.3935 9.89088 3.05005 12.3 3.05005C14.7091 3.05005 16.9224 3.3935 18.56 3.97149C19.3754 4.25928 20.0887 4.61931 20.6125 5.05646C21.1322 5.49009 21.55 6.07577 21.55 6.80005C21.55 7.52433 21.1322 8.11001 20.6125 8.54363C20.0887 8.98078 19.3754 9.34081 18.56 9.62861C16.9224 10.2066 14.7091 10.55 12.3 10.55C9.89088 10.55 7.67759 10.2066 6.03997 9.62861C5.22454 9.34081 4.51132 8.98078 3.98744 8.54363C3.46778 8.11001 3.04999 7.52433 3.04999 6.80005C3.04999 6.07577 3.46778 5.49009 3.98744 5.05646C4.51132 4.61931 5.22454 4.25928 6.03997 3.97149Z" fill="black"/>
<path fill-rule="evenodd" clip-rule="evenodd" d="M4.94848 17.2082C4.60789 17.4924 4.54999 17.6959 4.54999 17.8C4.54999 17.9042 4.60789 18.1077 4.94848 18.3919C5.28484 18.6726 5.81643 18.959 6.5392 19.2141C7.97797 19.7219 10.0147 20.05 12.3 20.05C14.5853 20.05 16.622 19.7219 18.0608 19.2141C18.7836 18.959 19.3151 18.6726 19.6515 18.3919C19.9921 18.1077 20.05 17.9042 20.05 17.8C20.05 17.6959 19.9921 17.4924 19.6515 17.2082C19.3151 16.9275 18.7836 16.6411 18.0608 16.386C16.622 15.8782 14.5853 15.55 12.3 15.55C10.0147 15.55 7.97797 15.8782 6.5392 16.386C5.81643 16.6411 5.28484 16.9275 4.94848 17.2082ZM6.03997 14.9715C7.67759 14.3935 9.89088 14.05 12.3 14.05C14.7091 14.05 16.9224 14.3935 18.56 14.9715C19.3754 15.2593 20.0887 15.6193 20.6125 16.0565C21.1322 16.4901 21.55 17.0758 21.55 17.8C21.55 18.5243 21.1322 19.11 20.6125 19.5436C20.0887 19.9808 19.3754 20.3408 18.56 20.6286C16.9224 21.2066 14.7091 21.55 12.3 21.55C9.89088 21.55 7.67759 21.2066 6.03997 20.6286C5.22454 20.3408 4.51132 19.9808 3.98744 19.5436C3.46778 19.11 3.04999 18.5243 3.04999 17.8C3.04999 17.0758 3.46778 16.4901 3.98744 16.0565C4.51132 15.6193 5.22454 15.2593 6.03997 14.9715Z" fill="black"/>
<path fill-rule="evenodd" clip-rule="evenodd" d="M3.79999 6.05005C4.2142 6.05005 4.54999 6.38584 4.54999 6.80005V17.8C4.54999 18.2143 4.2142 18.55 3.79999 18.55C3.38577 18.55 3.04999 18.2143 3.04999 17.8V6.80005C3.04999 6.38584 3.38577 6.05005 3.79999 6.05005Z" fill="black"/>
<path fill-rule="evenodd" clip-rule="evenodd" d="M20.8 6.05005C21.2142 6.05005 21.55 6.38584 21.55 6.80005V17.8C21.55 18.2143 21.2142 18.55 20.8 18.55C20.3858 18.55 20.05 18.2143 20.05 17.8V6.80005C20.05 6.38584 20.3858 6.05005 20.8 6.05005Z" fill="black"/>
</svg>
