<svg xmlns="http://www.w3.org/2000/svg" viewBox="0 0 24 24" fill="currentColor">
  <path d="M4.25 6.5c0-.10415.0579-.30768.39849-.59188.33637-.28069.86795-.5671 1.59072-.8222C7.67798 4.57812 9.71468 4.25 12 4.25c2.2853 0 4.322.32812 5.7608.83592.7228.2551 1.2543.54151 1.5907.8222.3406.2842.3985.48773.3985.59188 0 .10415-.0579.30768-.3985.59188-.3364.28069-.8679.5671-1.5907.8222C16.322 8.42188 14.2853 8.75 12 8.75c-2.28532 0-4.32202-.32812-5.76079-.83592-.72277-.2551-1.25435-.54151-1.59072-.8222C4.3079 6.80768 4.25 6.60415 4.25 6.5Zm15.5 2.14235c-.4316.26293-.9373.49116-1.49.68621-1.6376.57799-3.8509.92144-6.26.92144-2.4091 0-4.6224-.34345-6.26002-.92144-.55265-.19505-1.05835-.42328-1.48998-.68621v6.71535c.43163-.263.93733-.4912 1.48998-.6863C7.3776 14.0935 9.5909 13.75 12 13.75s4.6224.3435 6.26.9214c.5527.1951 1.0584.4233 1.49.6863V8.64235ZM21.25 17.5v-11c0-.72428-.4178-1.30996-.9375-1.74359-.5238-.43714-1.237-.79718-2.0525-1.08497C16.6224 3.09345 14.4091 2.75 12 2.75c-2.4091 0-4.6224.34345-6.26002.92144-.81543.28779-1.52865.64783-2.05252 1.08497C3.1678 5.19004 2.75 5.77572 2.75 6.5v11c0 .7243.4178 1.31.93746 1.7436.52387.4371 1.23709.7972 2.05252 1.085C7.3776 20.9065 9.5909 21.25 12 21.25s4.6224-.3435 6.26-.9214c.8155-.2878 1.5287-.6479 2.0525-1.085.5197-.4336.9375-1.0193.9375-1.7436Zm-1.5 0c0-.1041-.0579-.3077-.3985-.5919-.3364-.2807-.8679-.5671-1.5907-.8222C16.322 15.5781 14.2853 15.25 12 15.25c-2.28532 0-4.32202.3281-5.76079.8359-.72277.2551-1.25435.5415-1.59072.8222-.34059.2842-.39849.4878-.39849.5919 0 .1041.0579.3077.39849.5919.33637.2807.86795.5671 1.59072.8222 1.43877.5078 3.47547.8359 5.76079.8359 2.2853 0 4.322-.3281 5.7608-.8359.7228-.2551 1.2543-.5415 1.5907-.8222.3406-.2842.3985-.4878.3985-.5919Z"/>
</svg>
