<svg xmlns="http://www.w3.org/2000/svg" fill="none" viewBox="0 0 24 24">
  <path fill="#000" d="M12.3 9.8c4.694 0 8.5-1.343 8.5-3s-3.806-3-8.5-3-8.5 1.343-8.5 3 3.806 3 8.5 3Z"/>
  <path fill="#000" fill-rule="evenodd" d="M4.948 6.208c-.34.284-.398.488-.398.592 0 .104.058.308.398.592.337.28.868.567 1.591.822 1.439.508 3.476.836 5.761.836s4.322-.328 5.76-.836c.724-.255 1.255-.541 1.591-.822.341-.284.399-.488.399-.592 0-.104-.058-.308-.399-.592-.336-.28-.867-.567-1.59-.822-1.439-.508-3.476-.836-5.761-.836s-4.322.328-5.76.836c-.724.255-1.255.541-1.592.822ZM6.04 3.971c1.638-.578 3.85-.92 6.26-.92 2.41-.001 4.622.342 6.26.92.815.288 1.529.648 2.053 1.085.52.434.937 1.02.937 1.744s-.418 1.31-.938 1.744c-.523.437-1.237.797-2.052 1.085-1.638.578-3.85.921-6.26.921-2.41 0-4.622-.343-6.26-.921-.815-.288-1.529-.648-2.053-1.085-.52-.434-.937-1.02-.937-1.744s.418-1.31.937-1.744c.524-.437 1.238-.797 2.053-1.085ZM4.948 17.208c-.34.284-.398.488-.398.592 0 .104.058.308.398.592.337.28.868.567 1.591.822 1.439.508 3.476.836 5.761.836s4.322-.328 5.76-.836c.724-.255 1.255-.541 1.591-.822.341-.284.399-.488.399-.592 0-.104-.058-.308-.399-.592-.336-.28-.867-.567-1.59-.822-1.439-.508-3.476-.836-5.761-.836s-4.322.328-5.76.836c-.724.255-1.255.541-1.592.822Zm1.092-2.236c1.638-.579 3.85-.922 6.26-.922 2.41 0 4.622.343 6.26.921.815.288 1.529.648 2.053 1.085.52.434.937 1.02.937 1.744s-.418 1.31-.938 1.744c-.523.437-1.237.797-2.052 1.085-1.638.578-3.85.921-6.26.921-2.41 0-4.622-.343-6.26-.921-.815-.288-1.529-.648-2.053-1.085-.52-.434-.937-1.02-.937-1.744s.418-1.31.937-1.744c.524-.437 1.238-.797 2.053-1.085Z" clip-rule="evenodd"/>
  <path fill="#000" fill-rule="evenodd" d="M3.8 6.05a.75.75 0 0 1 .75.75v11a.75.75 0 1 1-1.5 0v-11a.75.75 0 0 1 .75-.75Zm17 0a.75.75 0 0 1 .75.75v11a.75.75 0 1 1-1.5 0v-11a.75.75 0 0 1 .75-.75Z" clip-rule="evenodd"/>
</svg>
