<svg xmlns="http://www.w3.org/2000/svg" viewBox="0 0 24 24" fill="currentColor">
  <path d="M4.25 6.5c0-.10415.0579-.30768.39849-.59188.33637-.28069.86795-.5671 1.59072-.8222C7.67798 4.57812 9.71468 4.25 12 4.25c2.2853 0 4.322.32812 5.7608.83592.7228.2551 1.2543.54151 1.5907.8222.3406.2842.3985.48773.3985.59188 0 .10415-.0579.30768-.3985.59188-.3364.28069-.8679.5671-1.5907.8222C16.322 8.42188 14.2853 8.75 12 8.75c-2.28532 0-4.32202-.32812-5.76079-.83592-.72277-.2551-1.25435-.54151-1.59072-.8222C4.3079 6.80768 4.25 6.60415 4.25 6.5Zm15.5 2.14235c-.4316.26293-.9373.49116-1.49.68621-1.6376.57799-3.8509.92144-6.26.92144-2.4091 0-4.6224-.34345-6.26002-.92144-.55265-.19505-1.05835-.42328-1.48998-.68621V17.5c0 .1207.06393.3297.39958.6117.33435.2808.86352.5654 1.58543.8178C7.67222 19.432 9.70908 19.75 12 19.75c2.2909 0 4.3278-.318 5.765-.8205.7219-.2524 1.2511-.537 1.5854-.8178.3357-.282.3996-.491.3996-.6117V8.64235ZM21.25 17.5v-11c0-.72428-.4178-1.30996-.9375-1.74359-.5238-.43714-1.237-.79718-2.0525-1.08497C16.6224 3.09345 14.4091 2.75 12 2.75c-2.4091 0-4.6224.34345-6.26002.92144-.81543.28779-1.52865.64783-2.05252 1.08497C3.1678 5.19004 2.75 5.77572 2.75 6.5v11c0 .7293.41107 1.3203.93479 1.7602.52503.441 1.23961.8002 2.0552 1.0853C7.37778 20.918 9.59092 21.25 12 21.25c2.4091 0 4.6222-.332 6.26-.9045.8156-.2851 1.5302-.6443 2.0552-1.0853.5237-.4399.9348-1.0309.9348-1.7602Z"/>
</svg>
