<svg xmlns="http://www.w3.org/2000/svg" viewBox="0 0 24 24" fill="currentColor">
  <path d="M10.098 2.43557C10.7138 2.31375 11.3498 2.25 12 2.25c.6502 0 1.2862.06375 1.902.18557.4063.08038.6706.47495.5902.88129-.0804.40634-.475.67057-.8813.59019C13.0905 3.8041 12.5519 3.75 12 3.75c-.5519 0-1.0905.0541-1.6109.15705-.40635.08038-.80091-.18385-.8813-.59019-.08039-.40634.18385-.80091.5902-.88129Zm6.2793 1.6631c.2304-.3442.6963-.43642 1.0405-.20599 1.0629.71162 1.9779 1.62661 2.6895 2.68954.2304.3442.1382.81003-.206 1.04046-.3442.23044-.81.13822-1.0404-.20598-.6026-.9-1.3776-1.67503-2.2776-2.27756-.3442-.23044-.4364-.69627-.206-1.04047Zm-8.75462 0c.23044.3442.13822.81003-.20598 1.04047-.9.60253-1.67503 1.37756-2.27756 2.27756-.23044.3442-.69627.43642-1.04047.20599-.3442-.23044-.43642-.69627-.20599-1.04047.71162-1.06293 1.62661-1.97792 2.68954-2.68953.3442-.23044.81003-.13822 1.04046.20598ZM3.31686 9.5078c.40634.08039.67057.47495.59019.8813C3.8041 10.9095 3.75 11.4481 3.75 12c0 .5519.0541 1.0905.15705 1.6109.08038.4063-.18385.8009-.59019.8813-.40634.0804-.80091-.1839-.88129-.5902C2.31375 13.2862 2.25 12.6502 2.25 12c0-.6502.06375-1.2862.18557-1.902.08038-.40635.47495-.67059.88129-.5902Zm17.36624 0c.4064-.08039.8009.18385.8813.5902.1219.6158.1856 1.2518.1856 1.902 0 .6502-.0637 1.2862-.1856 1.902-.0804.4063-.4749.6706-.8813.5902-.4063-.0804-.6705-.475-.5901-.8813.1029-.5204.157-1.059.157-1.6109 0-.5519-.0541-1.0905-.157-1.6109-.0804-.40635.1838-.80091.5901-.8813Zm-.7818 6.8695c.3442.2304.4365.6963.206 1.0405-.7116 1.0629-1.6266 1.9779-2.6895 2.6895-.3442.2304-.8101.1382-1.0405-.206-.2304-.3442-.1382-.81.206-1.0404.9-.6026 1.675-1.3776 2.2776-2.2776.2304-.3442.6962-.4364 1.0404-.206Zm-15.80263 0c.3442-.2304.81003-.1382 1.04047.206.60253.9 1.37756 1.675 2.27756 2.2776.3442.2304.43642.6962.20599 1.0404-.23044.3442-.69627.4365-1.04047.206-1.06293-.7116-1.97792-1.6266-2.68953-2.6895-.23044-.3442-.13822-.8101.20598-1.0405Zm5.40913 4.3058c.08039-.4063.47495-.6705.8813-.5901.5204.1029 1.059.157 1.6109.157.5519 0 1.0905-.0541 1.6109-.157.4063-.0804.8009.1838.8813.5901.0804.4064-.1839.8009-.5902.8813-.6158.1219-1.2518.1856-1.902.1856-.6502 0-1.2862-.0637-1.902-.1856-.40635-.0804-.67059-.4749-.5902-.8813Z"/>
</svg>
