<svg xmlns="http://www.w3.org/2000/svg" viewBox="0 0 24 24" fill="currentColor">
  <path d="M7 3.75c-.43959 0-.85837.08831-1.24077.24787-.38226.15951-.82146-.02107-.98097-.40333-.15952-.38227.02106-.82147.40333-.98098C5.74279 2.37938 6.35761 2.25 7 2.25h1.25c.41421 0 .75.33579.75.75s-.33579.75-.75.75H7ZM10 3c0-.41421.3358-.75.75-.75h2.5c.4142 0 .75.33579.75.75s-.3358.75-.75.75h-2.5c-.4142 0-.75-.33579-.75-.75Zm5 0c0-.41421.3358-.75.75-.75H17c.6424 0 1.2572.12938 1.8184.36356.3823.15951.5629.59871.4033.98098-.1595.38226-.5987.56284-.9809.40333C17.8584 3.83831 17.4396 3.75 17 3.75h-1.25c-.4142 0-.75-.33579-.75-.75Zm5.4055 1.77826c.3822-.15952.8214.02106.9809.40333.2342.5612.3636 1.17602.3636 1.81841v1.25c0 .41421-.3358.75-.75.75s-.75-.33579-.75-.75V7c0-.43959-.0883-.85837-.2479-1.24077-.1595-.38226.0211-.82146.4034-.98097Zm-16.81096 0c.38226.15951.56284.59871.40333.98097C3.83831 6.14163 3.75 6.56041 3.75 7v1.25c0 .41421-.33579.75-.75.75s-.75-.33579-.75-.75V7c0-.64239.12938-1.25721.36356-1.81841.15951-.38227.59871-.56285.98098-.40333ZM3 10c.41421 0 .75.3358.75.75v2.5c0 .4142-.33579.75-.75.75s-.75-.3358-.75-.75v-2.5c0-.4142.33579-.75.75-.75Zm18 0c.4142 0 .75.3358.75.75v2.5c0 .4142-.3358.75-.75.75s-.75-.3358-.75-.75v-2.5c0-.4142.3358-.75.75-.75ZM3 15c.41421 0 .75.3358.75.75V17c0 .4396.08831.8584.24787 1.2408.15951.3822-.02107.8214-.40333.9809-.38227.1596-.82147-.021-.98098-.4033C2.37938 18.2572 2.25 17.6424 2.25 17v-1.25c0-.4142.33579-.75.75-.75Zm18 0c.4142 0 .75.3358.75.75V17c0 .6424-.1294 1.2572-.3636 1.8184-.1595.3823-.5987.5629-.9809.4033-.3823-.1595-.5629-.5987-.4034-.9809.1596-.3824.2479-.8012.2479-1.2408v-1.25c0-.4142.3358-.75.75-.75ZM4.77826 20.4055c.15951-.3823.59871-.5629.98097-.4034.3824.1596.80118.2479 1.24077.2479h1.25c.41421 0 .75.3358.75.75s-.33579.75-.75.75H7c-.64239 0-1.25721-.1294-1.81841-.3636-.38227-.1595-.56285-.5987-.40333-.9809Zm14.44344 0c.1596.3822-.021.8214-.4033.9809-.5612.2342-1.176.3636-1.8184.3636h-1.25c-.4142 0-.75-.3358-.75-.75s.3358-.75.75-.75H17c.4396 0 .8584-.0883 1.2408-.2479.3822-.1595.8214.0211.9809.4034ZM10 21c0-.4142.3358-.75.75-.75h2.5c.4142 0 .75.3358.75.75s-.3358.75-.75.75h-2.5c-.4142 0-.75-.3358-.75-.75Z"/>
</svg>
