<svg xmlns="http://www.w3.org/2000/svg" viewBox="0 0 24 24" fill="currentColor">
  <path d="M9 3.75C6.11421 3.75 3.75 6.11421 3.75 9v6c0 .209.01186.4153.03498.618 1.2309-1.4707 3.10595-2.368 5.21505-2.368h2.68927l2.7804-2.7803c.2929-.2929.7677-.2929 1.0606 0 .2929.2929.2929.7677 0 1.0606L13.8107 13.25H15c2.0725 0 3.9428.9286 5.2067 2.4232.0285-.2205.0433-.4452.0433-.6732V9c0-2.88579-2.3642-5.25-5.25-5.25H9Zm3 11H9.00003c-2.07373 0-3.80381 1.0828-4.6524 2.7115C5.21233 19.1189 6.93687 20.25 9 20.25h6c1.9987 0 3.7473-1.1342 4.6334-2.7902C18.6946 15.8151 16.9591 14.75 15 14.75h-3ZM2.25 9c0-3.71421 3.03579-6.75 6.75-6.75h6c3.7142 0 6.75 3.03579 6.75 6.75v6c0 3.7142-3.0358 6.75-6.75 6.75H9c-3.82236 0-6.75-3.044-6.75-6.75V9Z"/>
</svg>
