<svg xmlns="http://www.w3.org/2000/svg" viewBox="0 0 24 24" fill="currentColor">
  <path d="M12 3.75c-4.55635 0-8.25 3.69365-8.25 8.25 0 1.5694.43822 3.0365 1.19898 4.2855 1.68133-1.7797 4.08134-2.9444 6.73522-3.0304l2.7855-2.7854c.2929-.2929.7677-.2929 1.0606 0 .2929.2929.2929.7677 0 1.0606l-1.8636 1.8637c2.1111.3681 3.9935 1.4195 5.3843 2.8916.7608-1.249 1.199-2.7161 1.199-4.2856 0-4.55635-3.6937-8.25-8.25-8.25Zm0 16.5c-2.43802 0-4.62904-1.0575-6.13936-2.7389C7.3386 15.8386 9.55285 14.75 11.9999 14.75c2.4471 0 4.6614 1.0887 6.1394 2.7612C16.629 19.1925 14.438 20.25 12 20.25ZM2.25 12c0-5.38478 4.36522-9.75 9.75-9.75 5.3848 0 9.75 4.36522 9.75 9.75 0 5.3848-4.3652 9.75-9.75 9.75-5.38478 0-9.75-4.3652-9.75-9.75Z"/>
</svg>
