<svg width="24" height="24" viewBox="0 0 24 24" fill="none" xmlns="http://www.w3.org/2000/svg">
<path fill-rule="evenodd" clip-rule="evenodd" d="M6.4 3.65002C5.91421 3.65002 5.55 4.01424 5.55 4.50002V7.40002C5.55 7.91758 5.94528 8.25002 6.3 8.25002H9.2C9.66276 8.25002 10.0735 7.89935 10.15 7.35372V4.50002C10.15 4.01424 9.78578 3.65002 9.3 3.65002H6.4ZM4.05 4.50002C4.05 3.18581 5.08578 2.15002 6.4 2.15002H9.3C10.6142 2.15002 11.65 3.18581 11.65 4.50002V7.44156L11.6454 7.48285C11.5083 8.71639 10.527 9.75002 9.2 9.75002H6.3C5.05471 9.75002 4.05 8.68247 4.05 7.40002V4.50002Z" fill="black"/>
<path fill-rule="evenodd" clip-rule="evenodd" d="M6.3 12.55C5.81421 12.55 5.45 12.9143 5.45 13.4V19.3C5.45 19.7858 5.81421 20.15 6.3 20.15H9.2C9.68578 20.15 10.05 19.7858 10.05 19.3V13.4C10.05 12.9143 9.68578 12.55 9.2 12.55H6.3ZM3.95 13.4C3.95 12.0858 4.98578 11.05 6.3 11.05H9.2C10.5142 11.05 11.55 12.0858 11.55 13.4V19.3C11.55 20.6143 10.5142 21.65 9.2 21.65H6.3C4.98578 21.65 3.95 20.6143 3.95 19.3V13.4Z" fill="black"/>
<path fill-rule="evenodd" clip-rule="evenodd" d="M14.45 16.4462V19.3C14.45 19.7858 14.8142 20.15 15.3 20.15H18.2C18.6858 20.15 19.05 19.7858 19.05 19.3V16.4C19.05 15.9143 18.6858 15.55 18.2 15.55H15.3C14.9612 15.55 14.5299 15.8729 14.45 16.4462ZM12.9546 16.3172C13.0883 15.1134 14.0459 14.05 15.3 14.05H18.2C19.5142 14.05 20.55 15.0858 20.55 16.4V19.3C20.55 20.6143 19.5142 21.65 18.2 21.65H15.3C13.9858 21.65 12.95 20.6143 12.95 19.3V16.3585L12.9546 16.3172Z" fill="black"/>
<path fill-rule="evenodd" clip-rule="evenodd" d="M14.45 4.35365V10.3C14.45 10.7858 14.8142 11.15 15.3 11.15H18.2C18.6858 11.15 19.05 10.7858 19.05 10.3V4.40005C19.05 3.91426 18.6858 3.55005 18.2 3.55005H15.3C14.9405 3.55005 14.5276 3.89447 14.45 4.35365ZM12.9558 4.20702C13.0959 3.08577 14.0697 2.05005 15.3 2.05005H18.2C19.5142 2.05005 20.55 3.08584 20.55 4.40005V10.3C20.55 11.6143 19.5142 12.65 18.2 12.65H15.3C13.9858 12.65 12.95 11.6143 12.95 10.3V4.25336L12.9558 4.20702Z" fill="black"/>
</svg>
