<svg width="24" height="24" viewBox="0 0 24 24" fill="none" xmlns="http://www.w3.org/2000/svg">
<path d="M20.9 14.8C20.9 15.9 20.7 16.9 20.4 17.9H3.3C2.9 16.9 2.8 15.9 2.8 14.8C2.8 9.79995 6.9 5.69995 11.9 5.69995C16.8 5.79995 20.9 9.79995 20.9 14.8Z" fill="black"/>
<path fill-rule="evenodd" clip-rule="evenodd" d="M11.8924 6.44995C7.31003 6.45414 3.55 10.2167 3.55 14.8C3.55 15.6668 3.61528 16.4232 3.83217 17.15H19.8312C20.0298 16.3803 20.15 15.6167 20.15 14.8C20.15 10.225 16.3951 6.54593 11.8924 6.44995ZM2.05 14.8C2.05 9.38574 6.48579 4.94995 11.9 4.94995H11.9077L11.9153 4.95011C17.2091 5.05814 21.65 9.37749 21.65 14.8C21.65 15.9947 21.432 17.07 21.1184 18.1155L20.958 18.65H2.79223L2.60365 18.1785C2.1532 17.0524 2.05 15.9443 2.05 14.8Z" fill="black"/>
<path fill-rule="evenodd" clip-rule="evenodd" d="M9.17791 9.47998C9.5203 9.24686 9.98684 9.33544 10.22 9.67783L13.42 14.3778C13.6531 14.7202 13.5645 15.1868 13.2221 15.4199C12.8797 15.653 12.4132 15.5644 12.1801 15.222L8.98005 10.522C8.74694 10.1796 8.83552 9.71309 9.17791 9.47998Z" fill="white"/>
</svg>
