<svg xmlns="http://www.w3.org/2000/svg" viewBox="0 0 24 24" fill="currentColor">
  <path d="M6.72848 5.84239C5.3605 6.52639 4.79993 7.33255 4.79993 8c0 .66745.56057 1.47361 1.92855 2.1576 1.32313.6616 3.20349 1.0924 5.32142 1.0924 2.118 0 3.9983-.4308 5.3215-1.0924.3053-.1527.5704-.31142.7981-.47336.0282-.06084.0652-.11888.111-.17232.104-.12136.2384-.20131.3823-.23825.4417-.43711.6371-.87957.6371-1.27367 0-.66745-.5605-1.47361-1.9285-2.15761C16.0482 5.18083 14.1679 4.75 12.0499 4.75c-2.11793 0-3.99829.43083-5.32142 1.09239ZM18.0422 11.4992c.272-.136.5347-.2856.7826-.4485.2642.3448.3752.6719.3752.9493 0 .4044-.2357.9142-.8381 1.4306-1.2144 1.0408-3.6123 1.8194-6.4119 1.8194-2.60302 0-4.85869-.673-6.13874-1.6041-.02519-.0469-.05579-.0919-.09188-.134-.09411-.1098-.21306-.1857-.34142-.2265-.48456-.466-.67801-.919-.67801-1.2854 0-.3008.13039-.66.4452-1.0368.2854.1971.59243.376.91251.536 1.57231.7862 3.69194 1.2508 5.99224 1.2508 2.3004 0 4.42-.4646 5.9923-1.2508ZM4.04703 14.0598c-.51486-.5941-.84708-1.2959-.84708-2.0598 0-.7576.3268-1.4542.83447-2.04519C3.57822 9.38779 3.29993 8.73324 3.29993 8c0-1.54169 1.23029-2.73553 2.75773-3.49925C7.62997 3.7146 9.7496 3.25 12.0499 3.25c2.3004 0 4.42.4646 5.9923 1.25075C19.5696 5.26447 20.7999 6.45831 20.7999 8c0 .78561-.3194 1.4809-.8349 2.075.4504.5644.735 1.2181.735 1.925 0 .7132-.2897 1.3724-.7472 1.9402.5149.5941.8471 1.2959.8471 2.0598 0 1.539-1.2377 2.7324-2.7646 3.4958-1.5738.787-3.6932 1.2542-5.9854 1.2542-2.29217 0-4.41154-.4672-5.98538-1.2542C4.53761 18.7324 3.29993 17.539 3.29993 16c0-.7132.28962-1.3723.7471-1.9402Zm1.1389.9769c-.27205.3499-.386.6821-.386.9633 0 .661.56232 1.4676 1.93541 2.1542 1.32615.6631 3.20678 1.0958 5.31456 1.0958 2.1078 0 3.9885-.4327 5.3146-1.0958 1.3731-.6866 1.9354-1.4932 1.9354-2.1542 0-.3045-.1335-.6687-.4567-1.0505-1.6363 1.1307-4.184 1.8005-6.8932 1.8005-2.639 0-5.12463-.6354-6.76407-1.7133Z"/>
</svg>
