<svg width="24" height="24" viewBox="0 0 24 24" fill="none" xmlns="http://www.w3.org/2000/svg">
<path d="M14.1 21.6H9.09999C7.89999 21.6 6.99999 20.7 6.79999 19.5L5.79999 7.40005C5.69999 6.50005 6.39999 5.80005 7.29999 5.80005H16C16.9 5.80005 17.6 6.60005 17.5 7.50005L16.3 19.7C16.3 20.7 15.3 21.6 14.1 21.6Z" fill="black"/>
<path fill-rule="evenodd" clip-rule="evenodd" d="M7.29999 6.55005C6.79662 6.55005 6.50016 6.9101 6.5454 7.31723L6.54657 7.32774L7.5447 19.4052C7.70415 20.294 8.33868 20.85 9.09999 20.85H14.1C14.983 20.85 15.55 20.1949 15.55 19.7V19.6633L16.7545 7.41722C16.8065 6.94891 16.4404 6.55005 16 6.55005H7.29999ZM5.05333 7.47139C4.90588 6.08428 6.00692 5.05005 7.29999 5.05005H16C17.3578 5.05005 18.3907 6.24809 18.246 7.57772L17.0496 19.7403C17.0244 21.2256 15.6034 22.35 14.1 22.35H9.09999C7.46938 22.35 6.3093 21.118 6.06019 19.6233L6.05509 19.5927L5.05333 7.47139Z" fill="black"/>
<path fill-rule="evenodd" clip-rule="evenodd" d="M6.95001 2.80005C6.95001 2.38584 7.2858 2.05005 7.70001 2.05005H15.7C16.1142 2.05005 16.45 2.38584 16.45 2.80005C16.45 3.21426 16.1142 3.55005 15.7 3.55005H7.70001C7.2858 3.55005 6.95001 3.21426 6.95001 2.80005Z" fill="black"/>
</svg>
