<svg xmlns="http://www.w3.org/2000/svg" fill="none" viewBox="0 0 24 24">
  <path fill="#000" d="M14.1 21.6h-5c-1.2 0-2.1-.9-2.3-2.1l-1-12.1c-.1-.9.6-1.6 1.5-1.6H16c.9 0 1.6.8 1.5 1.7l-1.2 12.2c0 1-1 1.9-2.2 1.9Z"/>
  <path fill="#000" fill-rule="evenodd" d="M7.3 6.55c-.503 0-.8.36-.755.767l.002.01.998 12.078c.16.889.794 1.445 1.555 1.445h5c.883 0 1.45-.655 1.45-1.15v-.037l1.204-12.246A.776.776 0 0 0 16 6.55H7.3Zm-2.247.921C4.906 6.084 6.007 5.05 7.3 5.05H16c1.358 0 2.39 1.198 2.246 2.528L17.05 19.74c-.026 1.486-1.447 2.61-2.95 2.61h-5c-1.63 0-2.79-1.232-3.04-2.727l-.005-.03L5.053 7.47ZM6.95 2.8a.75.75 0 0 1 .75-.75h8a.75.75 0 0 1 0 1.5h-8a.75.75 0 0 1-.75-.75Z" clip-rule="evenodd"/>
</svg>
