<svg xmlns="http://www.w3.org/2000/svg" viewBox="0 0 24 24" fill="currentColor">
  <path d="M7.60004 6.29999c-.44041 0-.80662.39887-.75459.86719l.00117.01051.99814 12.07751c.15944.8887.79398 1.4448 1.55528 1.4448H14.4c.8383 0 1.4906-.6297 1.5531-1.3179l.0005-.0055 1.201-12.20943c.052-.46832-.3141-.86718-.7546-.86718H7.60004Zm-2.24667 1.0213c-.14073-1.32708.89101-2.5213 2.24667-2.5213H16.4c1.3579 0 2.3908 1.19806 2.246 2.52769L17.4467 19.5209C17.3077 21.0313 15.9608 22.2 14.4 22.2H9.40004c-1.6306 0-2.79068-1.232-3.0398-2.7267l-.0051-.0306L5.35337 7.32129Z"/>
  <path d="M7.25006 2.54999c0-.41422.33579-.75.75-.75h8.00004c.4142 0 .75.33578.75.75 0 .41421-.3358.75-.75.75H8.00006c-.41421 0-.75-.33579-.75-.75Z"/>
</svg>
