<svg xmlns="http://www.w3.org/2000/svg" viewBox="0 0 24 24" fill="currentColor">
  <path d="M9.25 4.19743c0-.48579.46421-.95.95-.95h3.7c.4858 0 .95.46421.95.95v.55h-5.6v-.55Zm-1.5.55v-.55c0-1.31421 1.13579-2.45 2.45-2.45h3.7c1.3142 0 2.45 1.13579 2.45 2.45v.55H20c.4142 0 .75.33579.75.75s-.3358.75-.75.75h-1.25V18.4974c0 2.1304-1.7521 3.75-3.75 3.75H9.11975c-2.25823.1135-3.86975-1.667-3.86975-3.75V6.24743H4c-.41421 0-.75-.33579-.75-.75s.33579-.75.75-.75h3.75Zm-1 1.5h10.5V18.4974c0 1.2697-1.0479 2.25-2.25 2.25H9.07918l-.02078.0012c-1.33032.0739-2.3084-.9408-2.3084-2.2512V6.24743Zm3.25 2.6c.4142 0 .75.33579.75.75v7.99997c0 .4142-.3358.75-.75.75-.41421 0-.75-.3358-.75-.75V9.59743c0-.41421.33579-.75.75-.75Zm4.75.75c0-.41421-.3358-.75-.75-.75s-.75.33579-.75.75v7.99997c0 .4142.3358.75.75.75s.75-.3358.75-.75V9.59743Z"/>
</svg>
