<svg xmlns="http://www.w3.org/2000/svg" viewBox="0 0 24 24" fill="currentColor">
  <path d="M4.75 4c0-.41421-.33579-.75-.75-.75s-.75.33579-.75.75v16c0 .4142.33579.75.75.75s.75-.3358.75-.75V4ZM9 4.75c-.68579 0-1.25.56421-1.25 1.25v2c0 .68579.56421 1.25 1.25 1.25h5c.6858 0 1.25-.56421 1.25-1.25V6c0-.68579-.5642-1.25-1.25-1.25H9ZM6.25 6c0-1.51421 1.23579-2.75 2.75-2.75h5c1.5142 0 2.75 1.23579 2.75 2.75v2c0 1.51421-1.2358 2.75-2.75 2.75H9c-1.51421 0-2.75-1.23579-2.75-2.75V6ZM9 14.75c-.68579 0-1.25.5642-1.25 1.25v2c0 .6858.56421 1.25 1.25 1.25h9c.6858 0 1.25-.5642 1.25-1.25v-2c0-.6858-.5642-1.25-1.25-1.25H9ZM6.25 16c0-1.5142 1.23579-2.75 2.75-2.75h9c1.5142 0 2.75 1.2358 2.75 2.75v2c0 1.5142-1.2358 2.75-2.75 2.75H9c-1.51421 0-2.75-1.2358-2.75-2.75v-2Z"/>
</svg>
