<svg xmlns="http://www.w3.org/2000/svg" fill="none" viewBox="0 0 24 24">
  <path fill="#000" d="M15 10H9c-1.1 0-2-.9-2-2V6c0-1.1.9-2 2-2h6c1.1 0 2 .9 2 2v2c0 1.1-.9 2-2 2Z"/>
  <path fill="#000" fill-rule="evenodd" d="M9 4.75c-.686 0-1.25.564-1.25 1.25v2c0 .686.564 1.25 1.25 1.25h6c.686 0 1.25-.564 1.25-1.25V6c0-.686-.564-1.25-1.25-1.25H9ZM6.25 6A2.756 2.756 0 0 1 9 3.25h6A2.756 2.756 0 0 1 17.75 6v2A2.756 2.756 0 0 1 15 10.75H9A2.756 2.756 0 0 1 6.25 8V6Z" clip-rule="evenodd"/>
  <path fill="#000" d="M18 20H6c-1.1 0-2-.9-2-2v-2c0-1.1.9-2 2-2h12c1.1 0 2 .9 2 2v2c0 1.1-.9 2-2 2Z"/>
  <path fill="#000" fill-rule="evenodd" d="M6 14.75c-.686 0-1.25.564-1.25 1.25v2c0 .686.564 1.25 1.25 1.25h12c.686 0 1.25-.564 1.25-1.25v-2c0-.686-.564-1.25-1.25-1.25H6ZM3.25 16A2.756 2.756 0 0 1 6 13.25h12A2.756 2.756 0 0 1 20.75 16v2A2.756 2.756 0 0 1 18 20.75H6A2.756 2.756 0 0 1 3.25 18v-2Z" clip-rule="evenodd"/>
  <path fill="#000" fill-rule="evenodd" d="M12 9.25a.75.75 0 0 1 .75.75v4a.75.75 0 0 1-1.5 0v-4a.75.75 0 0 1 .75-.75Z" clip-rule="evenodd"/>
</svg>
