<svg xmlns="http://www.w3.org/2000/svg" viewBox="0 0 24 24" fill="currentColor">
  <path d="M9 4.75c-.68579 0-1.25.56421-1.25 1.25v2c0 .68579.56421 1.25 1.25 1.25h6c.6858 0 1.25-.56421 1.25-1.25V6c0-.68579-.5642-1.25-1.25-1.25H9Zm3.75 6H15c1.5142 0 2.75-1.23579 2.75-2.75V6c0-1.51421-1.2358-2.75-2.75-2.75H9C7.48579 3.25 6.25 4.48579 6.25 6v2c0 1.51421 1.23579 2.75 2.75 2.75h2.25v2.5H6c-1.51421 0-2.75 1.2358-2.75 2.75v2c0 1.5142 1.23579 2.75 2.75 2.75h12c1.5142 0 2.75-1.2358 2.75-2.75v-2c0-1.5142-1.2358-2.75-2.75-2.75h-5.25v-2.5Zm-.75 4H6c-.68579 0-1.25.5642-1.25 1.25v2c0 .6858.56421 1.25 1.25 1.25h12c.6858 0 1.25-.5642 1.25-1.25v-2c0-.6858-.5642-1.25-1.25-1.25h-6Z"/>
</svg>
