<svg xmlns="http://www.w3.org/2000/svg" viewBox="0 0 24 24" fill="currentColor">
  <path d="M5.08033 5.08033C4.88991 5.27075 4.75 5.57044 4.75 6v2c0 .68579.56421 1.25 1.25 1.25h9c.6858 0 1.25-.56421 1.25-1.25V6c0-.68579-.5642-1.25-1.25-1.25H6c-.42956 0-.72925.13991-.91967.33033ZM4.01967 4.01967C4.52925 3.51009 5.22956 3.25 6 3.25h9c1.5142 0 2.75 1.23579 2.75 2.75v2c0 1.51421-1.2358 2.75-2.75 2.75H6c-1.51421 0-2.75-1.23579-2.75-2.75V6c0-.77044.26009-1.47075.76967-1.98033ZM9.08033 15.0803c-.19042.1904-.33033.4901-.33033.9197v2c0 .6858.56421 1.25 1.25 1.25h5c.6858 0 1.25-.5642 1.25-1.25v-2c0-.6858-.5642-1.25-1.25-1.25h-5c-.42956 0-.72925.1399-.91967.3303Zm-1.06066-1.0606C8.52925 13.5101 9.22956 13.25 10 13.25h5c1.5142 0 2.75 1.2358 2.75 2.75v2c0 1.5142-1.2358 2.75-2.75 2.75h-5c-1.51421 0-2.75-1.2358-2.75-2.75v-2c0-.7704.26009-1.4707.76967-1.9803ZM20.75 4c0-.41421-.3358-.75-.75-.75s-.75.33579-.75.75v16c0 .4142.3358.75.75.75s.75-.3358.75-.75V4Z"/>
</svg>
