<svg width="24" height="24" viewBox="0 0 24 24" fill="none" xmlns="http://www.w3.org/2000/svg">
<path fill-rule="evenodd" clip-rule="evenodd" d="M9 4.75C8.31421 4.75 7.75 5.31421 7.75 6V8C7.75 8.68579 8.31421 9.25 9 9.25H12H15C15.6858 9.25 16.25 8.68579 16.25 8V6C16.25 5.31421 15.6858 4.75 15 4.75H9ZM12.75 10.75H15C16.5142 10.75 17.75 9.51421 17.75 8V6C17.75 4.48579 16.5142 3.25 15 3.25H9C7.48579 3.25 6.25 4.48579 6.25 6V8C6.25 9.51421 7.48579 10.75 9 10.75H11.25V13.25H6C4.48579 13.25 3.25 14.4858 3.25 16V18C3.25 19.5142 4.48579 20.75 6 20.75H18C19.5142 20.75 20.75 19.5142 20.75 18V16C20.75 14.4858 19.5142 13.25 18 13.25H12.75V10.75ZM12 14.75H6C5.31421 14.75 4.75 15.3142 4.75 16V18C4.75 18.6858 5.31421 19.25 6 19.25H18C18.6858 19.25 19.25 18.6858 19.25 18V16C19.25 15.3142 18.6858 14.75 18 14.75H12Z" fill="black"/>
</svg>
