<svg xmlns="http://www.w3.org/2000/svg" fill="none" viewBox="0 0 24 24">
  <path fill="#000" fill-rule="evenodd" d="M17.49 13.47a.75.75 0 0 1 1.06 0l1.2 1.2c.273.272.37.631.37.93 0 .299-.097.658-.37.93l-1.2 1.2a.75.75 0 1 1-1.06-1.06l1.07-1.07-1.07-1.07a.75.75 0 0 1 0-1.06Zm-2.14.1a.75.75 0 0 1 0 1.06l-1.069 1.07 1.07 1.07a.75.75 0 1 1-1.06 1.06l-1.2-1.2a1.316 1.316 0 0 1-.37-.93c0-.299.097-.658.37-.93l.53.53-.53-.53 1.2-1.2a.75.75 0 0 1 1.06 0Z" clip-rule="evenodd"/>
  <path fill="#000" fill-rule="evenodd" d="M5.165 4.134c.346-.66 1.109-1.084 1.855-1.084h10c.832 0 1.428.504 1.8 1l.023.03 2.62 4.334c.448.746.455 1.69-.157 2.455a.75.75 0 0 1-1.171-.937c.188-.235.195-.491.043-.745L17.6 4.923c-.22-.283-.417-.373-.58-.373h-10c-.242 0-.467.162-.529.285l-.013.027L3.837 9.23l-.03.039a.346.346 0 0 0-.09.263c.01.096.058.236.19.4l.006.008 7.6 9.8a.75.75 0 1 1-1.185.92L2.73 10.864c-.267-.335-.466-.744-.507-1.196A1.838 1.838 0 0 1 2.6 8.375l2.564-4.24Z" clip-rule="evenodd"/>
</svg>
