<svg xmlns="http://www.w3.org/2000/svg" fill="none" viewBox="0 0 24 24">
  <path fill="#000" fill-rule="evenodd" d="M5.165 4.134c.346-.66 1.109-1.084 1.855-1.084h10c.832 0 1.428.504 1.8 1l.023.03 2.62 4.334c.448.746.455 1.69-.157 2.455a.75.75 0 0 1-1.171-.937c.188-.235.195-.491.043-.745L17.6 4.923c-.22-.283-.417-.373-.58-.373h-10c-.242 0-.467.162-.529.285l-.013.027L3.837 9.23l-.03.039a.346.346 0 0 0-.09.263c.01.096.058.236.19.4l.006.008 7.6 9.8a.75.75 0 1 1-1.185.92L2.73 10.864c-.267-.335-.466-.744-.507-1.196A1.838 1.838 0 0 1 2.6 8.375l2.564-4.24Z" clip-rule="evenodd"/>
  <path fill="#000" fill-rule="evenodd" d="M16.19 13.53c-.707-.707-1.732-.707-2.44 0-.702.703-.706 1.719-.013 2.426.71.625 1.757.625 2.467 0 .693-.707.689-1.723-.014-2.426Zm-3.5-1.06c1.293-1.293 3.268-1.293 4.56 0 1.294 1.293 1.294 3.267 0 4.56l-.013.014-.015.014a3.356 3.356 0 0 1-4.503 0l-.015-.014-.014-.014c-1.293-1.293-1.293-3.267 0-4.56Z" clip-rule="evenodd"/>
  <path fill="#000" fill-rule="evenodd" d="m12.69 15.97 3.5-3.5 1.06 1.06-3.5 3.5-1.06-1.06Z" clip-rule="evenodd"/>
</svg>
