<svg width="24" height="24" viewBox="0 0 24 24" fill="none" xmlns="http://www.w3.org/2000/svg">
<path d="M15 21H9C5.7 21 3 18.3 3 15V9C3 5.7 5.7 3 9 3H15C18.3 3 21 5.7 21 9V15C21 18.3 18.3 21 15 21Z" fill="black"/>
<path fill-rule="evenodd" clip-rule="evenodd" d="M9 3.75C6.11421 3.75 3.75 6.11421 3.75 9V15C3.75 17.8858 6.11421 20.25 9 20.25H15C17.8858 20.25 20.25 17.8858 20.25 15V9C20.25 6.11421 17.8858 3.75 15 3.75H9ZM2.25 9C2.25 5.28579 5.28579 2.25 9 2.25H15C18.7142 2.25 21.75 5.28579 21.75 9V15C21.75 18.7142 18.7142 21.75 15 21.75H9C5.28579 21.75 2.25 18.7142 2.25 15V9Z" fill="black"/>
<path d="M9.6001 12.8999C9.3001 12.8999 9.1001 12.7999 8.9001 12.5999C8.8001 12.4999 8.7001 12.3999 8.7001 12.2999C8.7001 12.1999 8.6001 11.9999 8.6001 11.8999C8.6001 11.7999 8.6001 11.5999 8.7001 11.4999C8.7001 11.3999 8.8001 11.2999 8.9001 11.1999C9.3001 10.7999 9.9001 10.7999 10.3001 11.1999C10.4001 11.2999 10.5001 11.3999 10.5001 11.4999C10.6001 11.5999 10.6001 11.7999 10.6001 11.8999C10.6001 12.1999 10.5001 12.3999 10.3001 12.5999C10.1001 12.7999 9.8001 12.8999 9.6001 12.8999Z" fill="white"/>
<path d="M14.3 12.8999C14 12.8999 13.8 12.7999 13.6 12.5999C13.4 12.3999 13.3 12.1999 13.3 11.8999C13.3 11.5999 13.4 11.3999 13.6 11.1999C14 10.7999 14.6 10.7999 15 11.1999C15.2 11.3999 15.3 11.5999 15.3 11.8999C15.3 12.1999 15.2 12.3999 15 12.5999C14.8 12.7999 14.6 12.8999 14.3 12.8999Z" fill="white"/>
</svg>
