<svg width="24" height="24" viewBox="0 0 24 24" fill="none" xmlns="http://www.w3.org/2000/svg">
<path fill-rule="evenodd" clip-rule="evenodd" d="M16.2 16.6499C15.9198 16.6499 15.7052 16.7554 15.5304 16.9302C15.2233 17.2373 15.2233 17.8625 15.5304 18.1696L15.7304 18.3696L17.45 20.0892L19.3303 18.209C19.574 17.8747 19.65 17.6492 19.65 17.4999C19.65 17.2498 19.5942 17.0319 19.5145 16.8809C19.1927 16.6241 18.6201 16.6405 18.3304 16.9302L17.6 17.6606L16.9091 16.9696C16.5748 16.726 16.3493 16.6499 16.2 16.6499ZM17.581 15.6116C17.1873 15.357 16.7206 15.1499 16.2 15.1499C15.4803 15.1499 14.8949 15.4444 14.4697 15.8696C13.5768 16.7625 13.5768 18.3373 14.4697 19.2302C14.4697 19.2302 14.4697 19.2302 14.4697 19.2302L14.6697 19.4302L16.4281 21.1886C16.6696 21.5026 17.0295 21.6749 17.4125 21.6749C17.8078 21.6749 18.1656 21.495 18.4304 21.2302L20.4681 19.1925L20.5 19.1499C20.8324 18.7068 21.15 18.1446 21.15 17.4999C21.15 16.9886 21.0245 16.4345 20.7241 15.9839L20.6829 15.9221L20.6304 15.8696C19.8339 15.0731 18.4947 14.9871 17.581 15.6116ZM17.3493 20.1867C17.3493 20.1867 17.3498 20.1864 17.3509 20.1858L17.3493 20.1867Z" fill="black"/>
<path fill-rule="evenodd" clip-rule="evenodd" d="M9 3.75C6.11421 3.75 3.75 6.11421 3.75 9V15C3.75 17.8858 6.11421 20.25 9 20.25H12C12.4142 20.25 12.75 20.5858 12.75 21C12.75 21.4142 12.4142 21.75 12 21.75H9C5.28579 21.75 2.25 18.7142 2.25 15V9C2.25 5.28579 5.28579 2.25 9 2.25H15C18.7142 2.25 21.75 5.28579 21.75 9V13.7C21.75 14.1142 21.4142 14.45 21 14.45C20.5858 14.45 20.25 14.1142 20.25 13.7V9C20.25 6.11421 17.8858 3.75 15 3.75H9Z" fill="black"/>
<path d="M9.39995 16C9.19995 16.2 8.89995 16.3 8.69995 16.3C8.59995 16.3 8.39995 16.3 8.29995 16.2C8.19995 16.2 8.09995 16.1 7.99995 16C7.89995 15.9 7.79995 15.8 7.79995 15.7C7.79995 15.6 7.69995 15.4 7.69995 15.3C7.69995 14.8 8.19995 14.3 8.69995 14.3C8.79995 14.3 8.99995 14.3 9.09995 14.4C9.19995 14.5 9.29995 14.5 9.39995 14.6C9.59995 14.8 9.69995 15 9.69995 15.3C9.69995 15.6 9.59995 15.8 9.39995 16Z" fill="black"/>
<path d="M12.7 12.7C12.5 12.9 12.3 13 12 13C11.7 13 11.5 12.9 11.3 12.7C11.1 12.5 11 12.2 11 12C11 11.5 11.5 11 12 11C12.3 11 12.5 11.1 12.7 11.3C12.9 11.5 13 11.7 13 12C13 12.2 12.9 12.5 12.7 12.7Z" fill="black"/>
<path d="M16.0999 9.3001C15.8999 9.5001 15.6999 9.6001 15.3999 9.6001C15.0999 9.6001 14.8999 9.5001 14.6999 9.3001C14.4999 9.1001 14.3999 8.8001 14.3999 8.6001C14.3999 8.1001 14.8999 7.6001 15.3999 7.6001C15.6999 7.6001 15.8999 7.7001 16.0999 7.9001C16.2999 8.1001 16.3999 8.3001 16.3999 8.6001C16.3999 8.9001 16.2999 9.1001 16.0999 9.3001Z" fill="black"/>
</svg>
