<svg width="24" height="24" viewBox="0 0 24 24" fill="none" xmlns="http://www.w3.org/2000/svg">
<path fill-rule="evenodd" clip-rule="evenodd" d="M9 3.75C6.11421 3.75 3.75 6.11421 3.75 9V15C3.75 17.8858 6.11421 20.25 9 20.25H15C17.8858 20.25 20.25 17.8858 20.25 15V9C20.25 6.11421 17.8858 3.75 15 3.75H9ZM2.25 9C2.25 5.28579 5.28579 2.25 9 2.25H15C18.7142 2.25 21.75 5.28579 21.75 9V15C21.75 18.7142 18.7142 21.75 15 21.75H9C5.28579 21.75 2.25 18.7142 2.25 15V9Z" fill="black"/>
<path d="M8.6 9.5C8.3 9.5 8.1 9.4 7.9 9.2C7.8 9.1 7.7 9 7.6 8.9C7.6 8.8 7.5 8.6 7.5 8.5C7.5 8.4 7.5 8.2 7.6 8.1C7.7 8 7.7 7.9 7.8 7.8C8.2 7.4 8.8 7.4 9.2 7.8C9.3 7.9 9.4 8 9.4 8.1C9.6 8.2 9.6 8.4 9.6 8.5C9.6 8.8 9.5 9 9.3 9.2C9.1 9.4 8.8 9.5 8.6 9.5Z" fill="black"/>
<path d="M15.3 9.5C15 9.5 14.8 9.4 14.6 9.2C14.4 9 14.3 8.8 14.3 8.5C14.3 8.2 14.4 8 14.6 7.8C15 7.4 15.6 7.4 16 7.8C16.2 8 16.3 8.2 16.3 8.5C16.3 8.8 16.2 9 16 9.2C15.8 9.4 15.6 9.5 15.3 9.5Z" fill="black"/>
<path d="M8.59998 16.3999C8.29998 16.3999 8.09998 16.2999 7.89998 16.0999C7.79998 15.9999 7.69998 15.8999 7.69998 15.7999C7.69998 15.6999 7.59998 15.4999 7.59998 15.3999C7.59998 15.2999 7.59998 15.0999 7.69998 14.9999C7.79998 14.8999 7.79998 14.7999 7.89998 14.6999C8.29998 14.2999 8.89998 14.2999 9.29998 14.6999C9.39998 14.7999 9.49998 14.8999 9.49998 14.9999C9.59998 15.0999 9.59998 15.2999 9.59998 15.3999C9.59998 15.6999 9.49998 15.8999 9.29998 16.0999C9.09998 16.2999 8.79998 16.3999 8.59998 16.3999Z" fill="black"/>
<path d="M15.3 16.3999C15 16.3999 14.8 16.2999 14.6 16.0999C14.4 15.8999 14.3 15.6999 14.3 15.3999C14.3 15.0999 14.4 14.8999 14.6 14.6999C15 14.2999 15.6 14.2999 16 14.6999C16.2 14.8999 16.3 15.0999 16.3 15.3999C16.3 15.6999 16.2 15.8999 16 16.0999C15.8 16.2999 15.6 16.3999 15.3 16.3999Z" fill="black"/>
</svg>
