<svg width="24" height="24" viewBox="0 0 24 24" fill="none" xmlns="http://www.w3.org/2000/svg">
<path fill-rule="evenodd" clip-rule="evenodd" d="M9 3.75C6.11421 3.75 3.75 6.11421 3.75 9V15C3.75 17.8858 6.11421 20.25 9 20.25H12C12.4142 20.25 12.75 20.5858 12.75 21C12.75 21.4142 12.4142 21.75 12 21.75H9C5.28579 21.75 2.25 18.7142 2.25 15V9C2.25 5.28579 5.28579 2.25 9 2.25H15C18.7142 2.25 21.75 5.28579 21.75 9V13.7C21.75 14.1142 21.4142 14.45 21 14.45C20.5858 14.45 20.25 14.1142 20.25 13.7V9C20.25 6.11421 17.8858 3.75 15 3.75H9Z" fill="black"/>
<path d="M9.39995 16C9.19995 16.2 8.89995 16.3 8.69995 16.3C8.59995 16.3 8.39995 16.3 8.29995 16.2C8.19995 16.2 8.09995 16.1 7.99995 16C7.89995 15.9 7.79995 15.8 7.79995 15.7C7.79995 15.6 7.69995 15.4 7.69995 15.3C7.69995 14.8 8.19995 14.3 8.69995 14.3C8.79995 14.3 8.99995 14.3 9.09995 14.4C9.19995 14.5 9.29995 14.5 9.39995 14.6C9.59995 14.8 9.69995 15 9.69995 15.3C9.69995 15.6 9.59995 15.8 9.39995 16Z" fill="black"/>
<path d="M12.7 12.7C12.5 12.9 12.3 13 12 13C11.7 13 11.5 12.9 11.3 12.7C11.1 12.5 11 12.2 11 12C11 11.5 11.5 11 12 11C12.3 11 12.5 11.1 12.7 11.3C12.9 11.5 13 11.7 13 12C13 12.2 12.9 12.5 12.7 12.7Z" fill="black"/>
<path d="M16.1 9.3001C15.9 9.5001 15.7 9.6001 15.4 9.6001C15.1 9.6001 14.9 9.5001 14.7 9.3001C14.5 9.1001 14.4 8.8001 14.4 8.6001C14.4 8.1001 14.9 7.6001 15.4 7.6001C15.7 7.6001 15.9 7.7001 16.1 7.9001C16.3 8.1001 16.4 8.3001 16.4 8.6001C16.4 8.9001 16.3 9.1001 16.1 9.3001Z" fill="black"/>
<path fill-rule="evenodd" clip-rule="evenodd" d="M18.6303 15.5698C18.9232 15.8627 18.9232 16.3375 18.6303 16.6304L15.2303 20.0304C14.9374 20.3233 14.4625 20.3233 14.1696 20.0304C13.8767 19.7375 13.8767 19.2627 14.1696 18.9698L17.5696 15.5698C17.8625 15.2769 18.3374 15.2769 18.6303 15.5698Z" fill="black"/>
<path fill-rule="evenodd" clip-rule="evenodd" d="M14.1696 15.5698C14.4625 15.2769 14.9374 15.2769 15.2303 15.5698L18.6303 18.9698C18.9232 19.2627 18.9232 19.7375 18.6303 20.0304C18.3374 20.3233 17.8625 20.3233 17.5696 20.0304L14.1696 16.6304C13.8767 16.3375 13.8767 15.8627 14.1696 15.5698Z" fill="black"/>
</svg>
