<svg width="24" height="24" viewBox="0 0 24 24" fill="none" xmlns="http://www.w3.org/2000/svg">
<path fill-rule="evenodd" clip-rule="evenodd" d="M13.7851 4.56923C12.7374 5.48153 11.2174 5.53805 10.2077 4.57077C9.79659 4.27276 9.27414 4.23851 8.82971 4.41958C8.37697 4.60402 8.0745 4.97915 8.04528 5.44679L8.0444 5.46073L8.04302 5.47463C7.9075 6.82983 6.82656 7.91076 5.47136 8.04628L5.45746 8.04767L5.44352 8.04855C4.97588 8.07777 4.60076 8.38024 4.41631 8.83298C4.23245 9.28426 4.2706 9.816 4.58148 10.2299C5.42106 11.2278 5.37739 12.7091 4.59674 13.75L4.58351 13.7676L4.56928 13.7845C3.84235 14.6436 4.39778 15.8899 5.44078 15.9513L5.4561 15.9522L5.47136 15.9537C6.82403 16.089 7.90346 17.1662 8.04225 18.5178C8.17989 19.6566 9.39705 20.1154 10.2107 19.4288C11.2087 18.5752 12.7003 18.6152 13.7467 19.4L13.7644 19.4132L13.7812 19.4275C14.6403 20.1544 15.8867 19.599 15.948 18.556L15.9489 18.5406L15.9505 18.5254C16.0857 17.1727 17.1629 16.0933 18.5145 15.9545C19.6533 15.8168 20.1121 14.5997 19.4255 13.786C18.572 12.788 18.6119 11.2964 19.3967 10.25L19.41 10.2324L19.4242 10.2155C20.1511 9.35646 19.5957 8.11006 18.5527 8.04871L18.5374 8.04781L18.5221 8.04628C17.1694 7.91102 16.09 6.83385 15.9512 5.4822C15.8137 4.34456 14.5988 3.88552 13.7851 4.56923ZM12.8123 3.42747C14.5973 1.91706 17.1761 3.05582 17.4416 5.31237L17.4431 5.32537L17.443 5.32538C17.5071 5.96599 18.0198 6.48249 18.6588 6.55241C20.9942 6.70343 22.0308 9.42732 20.5858 11.1648C20.1828 11.7154 20.2246 12.4134 20.5662 12.8119L20.5693 12.8155L20.5693 12.8155C22.0797 14.6006 20.9409 17.1794 18.6844 17.4449L18.6714 17.4464L18.6714 17.4463C18.0307 17.5103 17.5142 18.0231 17.4443 18.6621C17.2933 20.9975 14.5694 22.034 12.832 20.5891C12.2814 20.1861 11.5833 20.2279 11.1848 20.5694L11.1812 20.5726L11.1812 20.5725C9.39617 22.083 6.81735 20.9442 6.55187 18.6876L6.55035 18.6746L6.55046 18.6746C6.4864 18.034 5.97365 17.5175 5.33467 17.4476C2.99923 17.2966 1.96272 14.5727 3.40767 12.8353C3.81065 12.2846 3.76886 11.5866 3.42729 11.1881L3.41437 11.173L3.40227 11.1573C2.72206 10.273 2.66292 9.16109 3.02717 8.26703C3.39094 7.37415 4.20956 6.62953 5.33341 6.55255C5.96921 6.48358 6.48031 5.97248 6.54928 5.33668C6.62626 4.21283 7.37088 3.3942 8.26376 3.03044C9.15782 2.66619 10.2697 2.72533 11.154 3.40554L11.1926 3.43523L11.2271 3.46968C11.6162 3.85883 12.2651 3.90611 12.8029 3.43557L12.8122 3.42739L12.8123 3.42747Z" fill="black"/>
<path d="M9.79678 14.2C9.49678 13.9 9.49678 13.4 9.79678 13L12.9968 9.79995C13.2968 9.49995 13.7968 9.49995 14.1968 9.79995C14.4968 10.1 14.4968 10.6 14.1968 11L10.9968 14.2C10.5968 14.5 10.0968 14.5 9.79678 14.2Z" fill="black"/>
<path d="M13.5966 15C13.3966 14.8 13.2966 14.6 13.2966 14.3C13.2966 14 13.3966 13.8 13.5966 13.6C13.7966 13.4 14.0966 13.3 14.2966 13.3C14.7966 13.3 15.2966 13.8 15.2966 14.3C15.2966 14.6 15.1966 14.8 14.9966 15C14.7966 15.2 14.5966 15.3 14.2966 15.3C13.9966 15.3 13.6966 15.2 13.5966 15Z" fill="black"/>
<path d="M8.99678 10.4C8.79678 10.2 8.69678 9.99995 8.69678 9.69995C8.69678 9.39995 8.79678 9.19995 8.99678 8.99995C9.19678 8.79995 9.39678 8.69995 9.69678 8.69995C10.1968 8.69995 10.6968 9.19995 10.6968 9.69995C10.6968 9.99995 10.5968 10.2 10.3968 10.4C10.1968 10.6 9.89678 10.7 9.69678 10.7C9.39678 10.7 9.19678 10.6 8.99678 10.4Z" fill="black"/>
</svg>
