<svg width="24" height="24" viewBox="0 0 24 24" fill="none" xmlns="http://www.w3.org/2000/svg">
<path d="M8.99999 4.80005V14.9H4.19999C3.39999 14.9 2.79999 14.3 2.79999 13.5V6.20005C2.79999 5.40005 3.39999 4.80005 4.19999 4.80005H8.99999Z" fill="black"/>
<path fill-rule="evenodd" clip-rule="evenodd" d="M4.19999 5.55005C3.8142 5.55005 3.54999 5.81426 3.54999 6.20005V13.5C3.54999 13.8858 3.8142 14.15 4.19999 14.15H8.24999V5.55005H4.19999ZM2.04999 6.20005C2.04999 4.98584 2.98577 4.05005 4.19999 4.05005H9.74999V15.65H4.19999C2.98577 15.65 2.04999 14.7143 2.04999 13.5V6.20005Z" fill="black"/>
<path fill-rule="evenodd" clip-rule="evenodd" d="M8.25 4.05005H17.5C18.7848 4.05005 19.8036 5.04006 19.8485 6.31237L21.85 15.5195V15.6C21.85 16.9143 20.8142 17.95 19.5 17.95H13.4C13.2638 17.95 13.1693 17.9954 13.1189 18.0395C13.0763 18.0767 13.05 18.1233 13.05 18.2V18.2375L13.0463 18.2747C12.9873 18.864 12.8311 19.3855 12.4846 19.8414C12.1472 20.2854 11.6808 20.5982 11.1354 20.8709C9.85024 21.5135 8.25 20.5726 8.25 19.1V4.05005ZM9.75 5.55005V19.1C9.75 19.2554 9.8339 19.4022 9.98923 19.4965C10.1459 19.5916 10.3222 19.6004 10.4646 19.5292C10.9192 19.3019 11.1528 19.1147 11.2904 18.9337C11.4156 18.7689 11.5079 18.5476 11.5505 18.1564C11.5747 17.0779 12.4951 16.45 13.4 16.45H19.5C19.9625 16.45 20.3147 16.12 20.3475 15.6692L18.35 6.48063V6.40005C18.35 5.91426 17.9858 5.55005 17.5 5.55005H9.75Z" fill="black"/>
</svg>
