<svg xmlns="http://www.w3.org/2000/svg" fill="none" viewBox="0 0 24 24">
  <path fill="#000" fill-rule="evenodd" d="M4.2 5.55c-.386 0-.65.264-.65.65v7.3c0 .386.264.65.65.65h4.05v-8.6H4.2Zm-2.15.65c0-1.214.936-2.15 2.15-2.15h5.55v11.6H4.2a2.117 2.117 0 0 1-2.15-2.15V6.2Z" clip-rule="evenodd"/>
  <path fill="#000" fill-rule="evenodd" d="M8.25 4.05h9.25c1.285 0 2.304.99 2.349 2.262l2.001 9.207v.081a2.33 2.33 0 0 1-2.35 2.35h-6.1a.427.427 0 0 0-.281.09.195.195 0 0 0-.069.16v.038l-.004.037c-.059.589-.215 1.11-.561 1.566-.338.444-.804.757-1.35 1.03-1.285.643-2.885-.298-2.885-1.771V4.05Zm1.5 1.5V19.1c0 .155.084.302.24.396a.49.49 0 0 0 .475.033c.454-.227.688-.414.825-.595.126-.165.218-.386.26-.778.025-1.078.945-1.706 1.85-1.706h6.1c.462 0 .815-.33.848-.78L18.35 6.48V6.4a.83.83 0 0 0-.85-.85H9.75Z" clip-rule="evenodd"/>
</svg>
