<svg width="24" height="24" viewBox="0 0 24 24" fill="none" xmlns="http://www.w3.org/2000/svg">
<path fill-rule="evenodd" clip-rule="evenodd" d="M16.2697 4.63031C16.0626 4.4232 15.7374 4.4232 15.5303 4.63031L4.63034 15.5303C4.42323 15.7374 4.42323 16.0625 4.63034 16.2696L7.03034 18.6696C7.23744 18.8768 7.56257 18.8768 7.76968 18.6696L18.6697 7.76965C18.8768 7.56254 18.8768 7.23741 18.6697 7.03031L16.2697 4.63031ZM14.4697 3.56965C15.2626 2.77675 16.5374 2.77675 17.3303 3.56965L19.7303 5.96965C20.5232 6.76254 20.5232 8.03741 19.7303 8.83031L8.83034 19.7303C8.03744 20.5232 6.76257 20.5232 5.96968 19.7303L3.56968 17.3303C2.77678 16.5374 2.77678 15.2625 3.56968 14.4696L14.4697 3.56965Z" fill="black"/>
</svg>
