<svg width="24" height="24" viewBox="0 0 24 24" fill="none" xmlns="http://www.w3.org/2000/svg">
<path fill-rule="evenodd" clip-rule="evenodd" d="M8.79999 3.55005C7.0142 3.55005 5.54999 5.01426 5.54999 6.80005V16.8C5.54999 18.5858 7.0142 20.05 8.79999 20.05H14.8C16.5858 20.05 18.05 18.5858 18.05 16.8V6.80005C18.05 5.01426 16.5858 3.55005 14.8 3.55005H8.79999ZM4.04999 6.80005C4.04999 4.18584 6.18577 2.05005 8.79999 2.05005H14.8C17.4142 2.05005 19.55 4.18584 19.55 6.80005V16.8C19.55 19.4143 17.4142 21.55 14.8 21.55H8.79999C6.18577 21.55 4.04999 19.4143 4.04999 16.8V6.80005Z" fill="black"/>
<path d="M14.8 12.8001C14.5 12.8001 14.3 12.7001 14.1 12.5001C14 12.4001 13.9 12.3001 13.9 12.2001C13.8 12.0001 13.8 11.9001 13.8 11.8001C13.8 11.5001 13.9 11.2001 14 11.0001C14.4 10.6001 15 10.6001 15.4 11.0001C15.6 11.2001 15.7 11.4001 15.7 11.7001C15.7 11.8001 15.7 12.0001 15.6 12.1001C15.5 12.2001 15.5 12.3001 15.4 12.4001C15.3 12.6001 15 12.8001 14.8 12.8001Z" fill="black"/>
</svg>
