<svg xmlns="http://www.w3.org/2000/svg" fill="none" viewBox="0 0 24 24">
  <path fill="#000" fill-rule="evenodd" d="M8.8 3.55A3.262 3.262 0 0 0 5.55 6.8v10a3.262 3.262 0 0 0 3.25 3.25h6a3.262 3.262 0 0 0 3.25-3.25v-10a3.262 3.262 0 0 0-3.25-3.25h-6ZM4.05 6.8A4.762 4.762 0 0 1 8.8 2.05h6a4.762 4.762 0 0 1 4.75 4.75v10a4.762 4.762 0 0 1-4.75 4.75h-6a4.762 4.762 0 0 1-4.75-4.75v-10Z" clip-rule="evenodd"/>
  <path fill="#000" d="M14.8 12.8c-.3 0-.5-.1-.7-.3-.1-.1-.2-.2-.2-.3-.1-.2-.1-.3-.1-.4 0-.3.1-.6.2-.8.4-.4 1-.4 1.4 0 .2.2.3.4.3.7 0 .1 0 .3-.1.4-.1.1-.1.2-.2.3-.1.2-.4.4-.6.4Z"/>
</svg>
