<svg xmlns="http://www.w3.org/2000/svg" fill="none" viewBox="0 0 24 24">
  <path fill="#000" fill-rule="evenodd" d="M10.73 4.621a.75.75 0 0 1 .999.36l6.3 13.4a.75.75 0 0 1-1.358.638l-6.3-13.4a.75.75 0 0 1 .36-.998Z" clip-rule="evenodd"/>
  <path fill="#000" d="M12.95 19.3c.3 0 .5-.1.7-.3.2-.2.3-.4.3-.7 0-.3-.1-.5-.3-.7-.4-.4-1-.4-1.4 0-.2.2-.3.4-.3.7 0 .3.1.5.3.7.1.2.4.3.7.3Zm-3 0c.3 0 .5-.1.7-.3.2-.2.3-.4.3-.7 0-.3-.1-.5-.3-.7-.4-.4-1-.4-1.4 0-.2.2-.3.4-.3.7 0 .3.1.5.3.7.2.2.4.3.7.3Zm-3 0c.3 0 .5-.1.7-.3.2-.2.3-.4.3-.7 0-.3-.1-.5-.3-.7-.4-.4-1-.4-1.4 0-.2.2-.3.4-.3.7 0 .3.1.5.3.7.2.2.4.3.7.3Z"/>
</svg>
