<svg xmlns="http://www.w3.org/2000/svg" fill="none" viewBox="0 0 24 24">
  <path fill="#000" fill-rule="evenodd" d="M11.95 5.05a.75.75 0 0 1 .75.75v7a.75.75 0 1 1-1.5 0v-7a.75.75 0 0 1 .75-.75Z" clip-rule="evenodd"/>
  <path fill="#000" fill-rule="evenodd" d="M15.89 9.979a.75.75 0 0 1-.019 1.06l-2.996 2.897a1.317 1.317 0 0 1-.925.364c-.299 0-.658-.097-.93-.37l-2.9-2.9a.75.75 0 1 1 1.06-1.06l2.772 2.771 2.877-2.78a.75.75 0 0 1 1.06.018Zm4.71 2.374a.75.75 0 0 1 .75.75v2.5c0 2.13-1.752 3.75-3.75 3.75H6.4a.75.75 0 0 1 0-1.5h11.2c1.202 0 2.25-.98 2.25-2.25v-2.5a.75.75 0 0 1 .75-.75Z" clip-rule="evenodd"/>
  <path fill="#000" fill-rule="evenodd" d="M3.4 12.353a.75.75 0 0 1 .75.75v2.5c0 1.27 1.048 2.25 2.25 2.25h11.2a.75.75 0 0 1 0 1.5H6.4c-1.998 0-3.75-1.62-3.75-3.75v-2.5a.75.75 0 0 1 .75-.75Z" clip-rule="evenodd"/>
</svg>
