<svg width="24" height="24" viewBox="0 0 24 24" fill="none" xmlns="http://www.w3.org/2000/svg">
<path fill-rule="evenodd" clip-rule="evenodd" d="M11.95 5.05005C12.3642 5.05005 12.7 5.38584 12.7 5.80005V12.8C12.7 13.2143 12.3642 13.55 11.95 13.55C11.5358 13.55 11.2 13.2143 11.2 12.8V5.80005C11.2 5.38584 11.5358 5.05005 11.95 5.05005Z" fill="black"/>
<path fill-rule="evenodd" clip-rule="evenodd" d="M15.8892 9.97873C16.1771 10.2765 16.1691 10.7514 15.8713 11.0392L12.8748 13.9359C12.603 14.2041 12.2468 14.3 11.95 14.3C11.6511 14.3 11.2922 14.2028 11.0197 13.9303L8.11967 11.0303C7.82678 10.7374 7.82678 10.2626 8.11967 9.96967C8.41256 9.67678 8.88744 9.67678 9.18033 9.96967L11.9521 12.7415L14.8287 9.96076C15.1265 9.67287 15.6014 9.68092 15.8892 9.97873Z" fill="black"/>
<path fill-rule="evenodd" clip-rule="evenodd" d="M20.6 12.3529C21.0142 12.3529 21.35 12.6887 21.35 13.1029V15.6029C21.35 17.7333 19.5979 19.3529 17.6 19.3529H6.4C5.98579 19.3529 5.65 19.0171 5.65 18.6029C5.65 18.1887 5.98579 17.8529 6.4 17.8529H17.6C18.8021 17.8529 19.85 16.8725 19.85 15.6029V13.1029C19.85 12.6887 20.1858 12.3529 20.6 12.3529Z" fill="black"/>
<path fill-rule="evenodd" clip-rule="evenodd" d="M3.4 12.3529C3.81422 12.3529 4.15 12.6887 4.15 13.1029V15.6029C4.15 16.8725 5.19787 17.8529 6.4 17.8529H17.6C18.0142 17.8529 18.35 18.1887 18.35 18.6029C18.35 19.0171 18.0142 19.3529 17.6 19.3529H6.4C4.40214 19.3529 2.65 17.7333 2.65 15.6029V13.1029C2.65 12.6887 2.98579 12.3529 3.4 12.3529Z" fill="black"/>
</svg>
