<svg xmlns="http://www.w3.org/2000/svg" fill="none" viewBox="0 0 24 24">
  <path fill="#000" fill-rule="evenodd" d="M6.85 3.75C5.064 3.75 3.7 5.114 3.7 6.9v10.2c0 1.786 1.364 3.15 3.15 3.15h10.3c1.786 0 3.15-1.364 3.15-3.15V6.9c0-1.64-1.42-3.058-3.268-3.15H6.85ZM2.2 6.9c0-2.614 2.036-4.65 4.65-4.65h10.234c2.544.116 4.716 2.095 4.716 4.65v10.2c0 2.614-2.036 4.65-4.65 4.65H6.85c-2.614 0-4.65-2.036-4.65-4.65V6.9Z" clip-rule="evenodd"/>
  <path fill="#000" fill-rule="evenodd" d="M21.05 12.85h-18v-1.5h18v1.5ZM8.4 2.35h7.3V4.9c0 .814-.636 1.45-1.45 1.45h-4.4c-.814 0-1.45-.636-1.45-1.45V2.35Zm1.5 1.5v1h4.3v-1H9.9Z" clip-rule="evenodd"/>
  <path fill="#000" fill-rule="evenodd" d="M9.9 13.85V12.1H8.4v1.8c0 .814.636 1.45 1.45 1.45h4.4c.814 0 1.45-.636 1.45-1.45v-1.8h-1.5v1.75H9.9Z" clip-rule="evenodd"/>
</svg>
