<svg xmlns="http://www.w3.org/2000/svg" fill="none" viewBox="0 0 24 24">
  <path fill="#000" fill-rule="evenodd" d="M2.25 11.3h7.6v2.5h4.3v-2.5h7.6v5.85c0 2.627-2.148 4.65-4.65 4.65H6.9c-2.627 0-4.65-2.148-4.65-4.65V11.3Zm1.5 1.5v4.35c0 1.698 1.377 3.15 3.15 3.15h10.2c1.698 0 3.15-1.377 3.15-3.15V12.8h-4.6v1.05c0 .814-.636 1.45-1.45 1.45H9.8c-.814 0-1.45-.636-1.45-1.45V12.8h-4.6Z" clip-rule="evenodd"/>
  <path fill="#000" fill-rule="evenodd" d="M6.9 3.7c-1.686 0-3.15 1.464-3.15 3.15v4.35h16.5V6.85c0-1.66-1.439-3.05-3.15-3.05h-1.45v.95c0 .814-.636 1.45-1.45 1.45H9.8c-.814 0-1.45-.636-1.45-1.45V3.7H6.9ZM2.25 6.85c0-2.514 2.136-4.65 4.65-4.65h2.95v2.5h4.3V2.3h2.95c2.489 0 4.65 2.01 4.65 4.55v5.85H2.25V6.85Z" clip-rule="evenodd"/>
  <path fill="#000" fill-rule="evenodd" d="M8.35 2.3h7.3v2.55c0 .814-.636 1.45-1.45 1.45H9.8c-.814 0-1.45-.636-1.45-1.45V2.3Zm1.5 1.5v1h4.3v-1h-4.3Z" clip-rule="evenodd"/>
  <path fill="#000" d="M9 12.05h5.8v1.8c0 .4-.3.7-.7.7H9.8c-.4 0-.7-.3-.7-.7v-1.8H9Z"/>
  <path fill="#000" fill-rule="evenodd" d="M9 12.05v-.75h6.55v2.55c0 .814-.636 1.45-1.45 1.45H9.8c-.814 0-1.45-.636-1.45-1.45v-1.8H9Zm.85.75v1h4.2v-1h-4.2Z" clip-rule="evenodd"/>
  <path fill="#000" d="M14.9 3.05v1.8c0 .4-.3.7-.7.7H9.8c-.4 0-.7-.3-.7-.7v-1.8h5.8Z"/>
  <path fill="#000" fill-rule="evenodd" d="M8.35 2.3h7.3v2.55c0 .814-.636 1.45-1.45 1.45H9.8c-.814 0-1.45-.636-1.45-1.45V2.3Zm1.5 1.5v1h4.3v-1h-4.3Z" clip-rule="evenodd"/>
</svg>
