<svg width="24" height="24" viewBox="0 0 24 24" fill="none" xmlns="http://www.w3.org/2000/svg">
<path fill-rule="evenodd" clip-rule="evenodd" d="M17.8196 4.23033C17.5125 3.92322 16.9874 3.92322 16.6803 4.23033L16.4803 4.43033C16.1732 4.73744 16.1732 5.26256 16.4803 5.56967L18.4803 7.56967C18.7874 7.87678 19.3125 7.87678 19.6196 7.56967L19.8196 7.36967C20.1267 7.06256 20.1267 6.53744 19.8196 6.23033L17.8196 4.23033ZM15.6196 3.16967C16.5125 2.27678 17.9874 2.27678 18.8803 3.16967L20.8803 5.16967C21.7732 6.06256 21.7732 7.53744 20.8803 8.43033L20.6803 8.63033C20.4551 8.85547 20.193 9.02384 19.9125 9.13544C20.5613 10.0298 20.4562 11.2544 19.6803 12.0303L19.4803 12.2303C18.5885 13.1221 17.1161 13.1232 16.2229 12.2336L15.6435 11.6671L11.6106 15.7L12.1803 16.2697C13.054 17.1434 13.0728 18.4786 12.2366 19.3721L12.0328 19.6778L11.9803 19.7303C11.186 20.5246 9.93118 20.6123 9.03517 19.9935C8.92638 20.2202 8.77541 20.4352 8.58028 20.6303L8.38028 20.8303C7.48739 21.7232 6.01251 21.7232 5.11962 20.8303L3.11962 18.8303C2.22673 17.9374 2.22673 16.4626 3.11962 15.5697L3.31962 15.3697C3.5176 15.1717 3.7442 15.0176 3.98671 14.9074C3.44561 14.0208 3.55658 12.8327 4.31962 12.0697L4.51962 11.8697C5.41251 10.9768 6.88739 10.9768 7.78028 11.8697L8.34995 12.4393L12.3462 8.44307L11.7196 7.83036C10.8267 6.93747 10.8267 5.46256 11.7196 4.56967L11.9196 4.36967C12.7283 3.56098 14.0144 3.48472 14.9131 4.14089C15.0247 3.85911 15.1936 3.59574 15.4196 3.36967L15.6196 3.16967ZM13.4188 9.49181L9.41061 13.5L10.55 14.6393L14.5709 10.6184L13.4188 9.49181ZM8.87927 17.7687C8.80371 17.6451 8.71698 17.5258 8.61939 17.4119L8.60065 17.39L6.58028 15.3697C6.44325 15.2326 6.29252 15.1166 6.13228 15.0217L5.38028 14.2697C5.07317 13.9626 5.07317 13.4374 5.38028 13.1303L5.58028 12.9303C5.88739 12.6232 6.41251 12.6232 6.71962 12.9303L11.1196 17.3303C11.4267 17.6374 11.4267 18.0626 11.1196 18.3697L11.0671 18.4222L10.8742 18.7116C10.5629 18.9761 10.0727 18.9621 9.78028 18.6697L8.87927 17.7687ZM5.24166 16.2524C4.95269 16.1442 4.60705 16.2036 4.38028 16.4303L4.18028 16.6303C3.87317 16.9374 3.87317 17.4626 4.18028 17.7697L6.18028 19.7697C6.48739 20.0768 7.01251 20.0768 7.31962 19.7697L7.51962 19.5697C7.74279 19.3465 7.8249 19.0232 7.67119 18.6819L5.24166 16.2524ZM14.1196 5.43033C13.8125 5.12322 13.2874 5.12322 12.9803 5.43033L12.7803 5.63033C12.474 5.93661 12.4732 6.45975 12.7778 6.76719L17.2803 11.1696C17.5874 11.4767 18.1125 11.4768 18.4196 11.1697L18.6196 10.9697C18.9182 10.6711 18.9222 10.1783 18.5619 9.86944L18.54 9.8507L14.1196 5.43033Z" fill="black"/>
</svg>
