<svg xmlns="http://www.w3.org/2000/svg" fill="none" viewBox="0 0 24 24">
  <path fill="#000" fill-rule="evenodd" d="M7.2 13.15a3.55 3.55 0 1 0 0 7.1 3.55 3.55 0 0 0 0-7.1ZM2.15 16.7a5.05 5.05 0 1 1 10.1 0 5.05 5.05 0 0 1-10.1 0ZM16.7 3.65a3.55 3.55 0 1 0 0 7.1 3.55 3.55 0 0 0 0-7.1ZM11.65 7.2a5.05 5.05 0 1 1 10.1 0 5.05 5.05 0 0 1-10.1 0Z" clip-rule="evenodd"/>
  <path fill="#000" fill-rule="evenodd" d="m10.57 14.57 4-4 1.06 1.06-4 4-1.06-1.06Zm-2.2-2.3 3.9-3.9 1.06 1.06-3.9 3.9-1.06-1.06Z" clip-rule="evenodd"/>
</svg>
