<svg width="24" height="24" viewBox="0 0 24 24" fill="none" xmlns="http://www.w3.org/2000/svg">
<path fill-rule="evenodd" clip-rule="evenodd" d="M12 3.75C7.44365 3.75 3.75 7.44365 3.75 12C3.75 16.5563 7.44365 20.25 12 20.25C16.5563 20.25 20.25 16.5563 20.25 12C20.25 7.44365 16.5563 3.75 12 3.75ZM2.25 12C2.25 6.61522 6.61522 2.25 12 2.25C17.3848 2.25 21.75 6.61522 21.75 12C21.75 17.3848 17.3848 21.75 12 21.75C6.61522 21.75 2.25 17.3848 2.25 12Z" fill="black"/>
<path fill-rule="evenodd" clip-rule="evenodd" d="M4.42661 7.84957C4.4267 7.84956 4.4268 7.84956 4.40004 7.10004C4.37327 6.35052 4.37342 6.35051 4.37359 6.3505L4.37534 6.35044L4.37945 6.35031L4.39365 6.34986L4.44507 6.34849C4.48925 6.34744 4.55281 6.34621 4.63301 6.34539C4.79328 6.34375 5.02063 6.34377 5.29289 6.35025C5.83472 6.36315 6.56654 6.40192 7.3061 6.50758C8.03245 6.61134 8.82718 6.78759 9.46045 7.10422C10.0821 7.41504 10.75 7.97473 10.75 8.90004C10.75 9.49306 10.6048 10.1993 10.4685 10.8506C10.4605 10.8887 10.4525 10.9269 10.4445 10.9649C10.309 11.6115 10.1765 12.2434 10.122 12.8429C10.0638 13.4822 10.1053 13.9917 10.2675 14.3702C10.4126 14.7088 10.6784 15.0022 11.2372 15.1885C12.9314 15.7533 14.1678 16.9522 14.9637 17.9603C15.3657 18.4696 15.6669 18.9447 15.8684 19.294C15.9694 19.469 16.046 19.6136 16.0983 19.7164C16.1244 19.7678 16.1445 19.8089 16.1586 19.8382L16.1752 19.8732L16.1801 19.8838L16.1818 19.8874L16.1824 19.8887C16.1825 19.8889 16.1828 19.8897 15.5 20.2C14.8173 20.5104 14.8174 20.5106 14.8174 20.5108L14.8161 20.5078L14.8063 20.4873C14.797 20.4678 14.7819 20.437 14.7612 20.3962C14.7197 20.3146 14.6557 20.1935 14.5691 20.0436C14.3957 19.7429 14.1343 19.3305 13.7864 18.8898C13.0823 17.9979 12.0687 17.0468 10.7629 16.6116C9.82172 16.2978 9.21246 15.7163 8.8888 14.9611C8.58227 14.2459 8.56123 13.4429 8.62812 12.7071C8.69086 12.017 8.84057 11.3041 8.97205 10.678C8.98158 10.6326 8.99102 10.5877 9.00032 10.5433C9.14525 9.85081 9.25004 9.30702 9.25004 8.90004C9.25004 8.82535 9.21798 8.66003 8.78963 8.44586C8.37289 8.23749 7.76762 8.08874 7.09397 7.9925C6.43353 7.89815 5.76535 7.86192 5.25718 7.84983C5.00444 7.84381 4.79429 7.84382 4.64831 7.84531C4.57538 7.84606 4.51863 7.84717 4.48078 7.84807L4.43856 7.84919L4.42874 7.8495L4.42661 7.84957Z" fill="black"/>
<path fill-rule="evenodd" clip-rule="evenodd" d="M14.072 2.98988C14.0722 2.98967 14.0723 2.98947 14.7 3.3999C15.3277 3.81034 15.3279 3.81016 15.328 3.80999L15.327 3.81158L15.3172 3.82709C15.3078 3.84206 15.293 3.8661 15.2738 3.89843C15.2354 3.9632 15.1796 4.06071 15.1147 4.18484C14.9842 4.43455 14.8207 4.78453 14.6865 5.18707C14.4083 6.02176 14.3047 6.93218 14.6708 7.66449C15.1899 8.70254 15.6025 9.48281 16.3649 9.92677C17.0953 10.3521 18.3274 10.5549 20.694 9.87876L21.1061 11.321C18.5726 12.0449 16.8547 11.9478 15.6101 11.223C14.4275 10.5344 13.8396 9.35717 13.365 8.40701C13.353 8.38296 13.3411 8.35906 13.3292 8.33531C12.6954 7.06763 12.9417 5.67805 13.2635 4.71273C13.4293 4.21528 13.6284 3.79026 13.7854 3.48996C13.8642 3.3391 13.9334 3.21786 13.984 3.13262C14.0094 3.08996 14.0301 3.05619 14.0452 3.03209L14.0634 3.00326L14.0691 2.99445L14.071 2.99148L14.072 2.98988ZM15.3285 3.80914C15.3286 3.80903 15.3281 3.80979 15.328 3.80999L15.3285 3.80914Z" fill="black"/>
</svg>
