<svg width="24" height="24" viewBox="0 0 24 24" fill="none" xmlns="http://www.w3.org/2000/svg">
<g clip-path="url(#clip0_991_5264)">
<path fill-rule="evenodd" clip-rule="evenodd" d="M16.5823 4.04309C15.754 3.30226 14.5206 3.34004 13.8303 4.03033L13.5607 4.3L16.3 7.03934L16.5697 6.76967C17.3725 5.96681 17.3768 4.84926 16.5823 4.04309ZM12.7697 2.96967C14.0757 1.66363 16.2329 1.69813 17.6045 2.94505L17.6177 2.95705L17.6303 2.96967C19.0232 4.36257 19.0232 6.43744 17.6303 7.83033L16.3 9.16066L11.4393 4.3L12.7697 2.96967Z" fill="black"/>
<path fill-rule="evenodd" clip-rule="evenodd" d="M12.493 3.34631L17.3678 8.09283L13.3303 12.1303C13.2068 12.2539 13.0596 12.344 12.9596 12.4011C12.8538 12.4616 12.7379 12.5195 12.6439 12.5665L12.542 12.6175L8.77726 13.3297C8.32727 13.454 7.9215 13.2777 7.67307 12.9938C7.44513 12.7333 7.35001 12.3973 7.35001 12.0999V12.0296L8.0526 8.31593C8.07596 7.93586 8.25428 7.58501 8.46968 7.36962L12.493 3.34631ZM12.507 5.45359L9.55125 8.40937C9.55075 8.41059 9.55034 8.4117 9.55001 8.41266V8.47027L8.92475 11.7752L12.0573 11.1826C12.1188 11.1514 12.1704 11.1245 12.2154 11.0988C12.247 11.0807 12.2674 11.0677 12.2795 11.0593C12.2801 11.0589 12.2807 11.0585 12.2812 11.0581L15.2322 8.10707L12.507 5.45359Z" fill="black"/>
<path fill-rule="evenodd" clip-rule="evenodd" d="M8.8 3.65002C5.91422 3.65002 3.55 6.01424 3.55 8.90002V14.9C3.55 17.7858 5.91422 20.15 8.8 20.15H14.8C17.6858 20.15 20.05 17.7858 20.05 14.9V8.90002C20.05 8.48581 20.3858 8.15002 20.8 8.15002C21.2142 8.15002 21.55 8.48581 21.55 8.90002V14.9C21.55 18.6142 18.5142 21.65 14.8 21.65H8.8C5.08579 21.65 2.05 18.6142 2.05 14.9V8.90002C2.05 5.18581 5.08579 2.15002 8.8 2.15002C9.21422 2.15002 9.55 2.48581 9.55 2.90002C9.55 3.31424 9.21422 3.65002 8.8 3.65002Z" fill="black"/>
</g>
<defs>
<clipPath id="clip0_991_5264">
<rect width="24" height="24" fill="white"/>
</clipPath>
</defs>
</svg>
