<svg xmlns="http://www.w3.org/2000/svg" fill="none" viewBox="0 0 20 20">
  <g fill="#000" clip-path="url(#edit-square-varB_svg__a)">
    <path d="m15.1 5.3-.8.8-3.8-3.8.8-.8c1-1 2.7-1 3.8 0 1.1 1.1 1.1 2.7 0 3.8Z"/>
    <path fill-rule="evenodd" d="M14.582 2.043c-.828-.74-2.061-.703-2.752-.013l-.27.27 2.74 2.74.27-.27c.803-.803.807-1.92.012-2.727ZM10.77.97c1.306-1.306 3.463-1.272 4.835-.025l.013.012.012.013c1.393 1.393 1.393 3.467 0 4.86L14.3 7.16 9.44 2.3 10.77.97Z" clip-rule="evenodd"/>
    <path fill-rule="evenodd" d="m10.493 1.346 4.875 4.747-4.038 4.037c-.123.124-.27.214-.37.271-.106.06-.222.119-.316.165l-.102.051-3.765.713a1.07 1.07 0 0 1-1.104-.336 1.368 1.368 0 0 1-.323-.894v-.07l.703-3.714c.023-.38.201-.731.417-.946l4.023-4.024Zm.014 2.108L7.551 6.409a.06.06 0 0 0-.001.004v.057l-.625 3.305 3.132-.592a3.626 3.626 0 0 0 .223-.124h.001l2.951-2.952-2.725-2.653Z" clip-rule="evenodd"/>
    <path fill-rule="evenodd" d="M6.8 1.65c-2.886 0-5.25 2.364-5.25 5.25v6c0 2.886 2.364 5.25 5.25 5.25h6c2.886 0 5.25-2.364 5.25-5.25v-6a.75.75 0 0 1 1.5 0v6c0 3.714-3.036 6.75-6.75 6.75h-6c-3.714 0-6.75-3.036-6.75-6.75v-6C.05 3.186 3.086.15 6.8.15a.75.75 0 0 1 0 1.5Z" clip-rule="evenodd"/>
  </g>
  <defs>
    <clipPath id="edit-square-varB_svg__a">
      <path fill="#fff" d="M0 0h19.5v19.7H0z"/>
    </clipPath>
  </defs>
</svg>
