<svg xmlns="http://www.w3.org/2000/svg" fill="none" viewBox="0 0 24 24">
  <g fill="#000" fill-rule="evenodd" clip-path="url(#edit-square_svg__a)" clip-rule="evenodd">
    <path d="M16.582 4.043c-.828-.74-2.061-.703-2.752-.013l-.27.27 2.74 2.74.27-.27c.802-.803.807-1.92.012-2.727ZM12.77 2.97c1.306-1.306 3.463-1.272 4.835-.025l.013.012.012.013c1.393 1.393 1.393 3.467 0 4.86L16.3 9.16 11.44 4.3l1.33-1.33Z"/>
    <path d="m12.493 3.346 4.875 4.747-4.038 4.037c-.123.124-.27.214-.37.271-.106.06-.222.119-.316.165l-.102.051-3.765.713a1.07 1.07 0 0 1-1.104-.336 1.368 1.368 0 0 1-.323-.894v-.07l.703-3.714c.023-.38.201-.731.417-.946l4.023-4.024Zm.014 2.108L9.551 8.409a.06.06 0 0 0-.001.004v.057l-.625 3.305 3.132-.592a3.703 3.703 0 0 0 .223-.124h.001l2.951-2.952-2.725-2.653Z"/>
    <path d="M8.8 3.65c-2.886 0-5.25 2.364-5.25 5.25v6c0 2.886 2.364 5.25 5.25 5.25h6c2.886 0 5.25-2.364 5.25-5.25v-6a.75.75 0 0 1 1.5 0v6c0 3.714-3.036 6.75-6.75 6.75h-6c-3.714 0-6.75-3.036-6.75-6.75v-6c0-3.714 3.036-6.75 6.75-6.75a.75.75 0 1 1 0 1.5Z"/>
  </g>
  <defs>
    <clipPath id="edit-square_svg__a">
      <path fill="#fff" d="M0 0h24v24H0z"/>
    </clipPath>
  </defs>
</svg>
