<svg width="20" height="20" viewBox="0 0 20 20" fill="none" xmlns="http://www.w3.org/2000/svg">
<g clip-path="url(#clip0_991_5132)">
<path d="M15.1 5.3L14.3 6.1L10.5 2.3L11.3 1.5C12.3 0.5 14 0.5 15.1 1.5C16.2 2.6 16.2 4.2 15.1 5.3Z" fill="black"/>
<path fill-rule="evenodd" clip-rule="evenodd" d="M14.5823 2.04309C13.754 1.30226 12.5206 1.34004 11.8303 2.03033L11.5607 2.3L14.3 5.03934L14.5697 4.76967C15.3725 3.96681 15.3767 2.84926 14.5823 2.04309ZM10.7697 0.969674C12.0757 -0.336366 14.2329 -0.301865 15.6045 0.945049L15.6177 0.957054L15.6303 0.969674C17.0232 2.36257 17.0232 4.43744 15.6303 5.83033L14.3 7.16066L9.43933 2.3L10.7697 0.969674Z" fill="black"/>
<path fill-rule="evenodd" clip-rule="evenodd" d="M10.493 1.34631L15.3678 6.09283L11.3303 10.1303C11.2068 10.2539 11.0596 10.344 10.9596 10.4011C10.8538 10.4616 10.7379 10.5195 10.6439 10.5665L10.542 10.6175L6.77726 11.3297C6.32727 11.454 5.9215 11.2777 5.67307 10.9938C5.44513 10.7333 5.35001 10.3973 5.35001 10.0999V10.0296L6.0526 6.31593C6.07596 5.93586 6.25428 5.58501 6.46968 5.36962L10.493 1.34631ZM10.507 3.45359L7.55125 6.40937C7.55075 6.41059 7.55034 6.4117 7.55001 6.41266V6.47027L6.92475 9.77521L10.0573 9.18256C10.1188 9.15143 10.1704 9.12447 10.2154 9.09877C10.247 9.08073 10.2674 9.06769 10.2795 9.05927C10.2801 9.05885 10.2807 9.05846 10.2812 9.05809L13.2322 6.10707L10.507 3.45359Z" fill="black"/>
<path fill-rule="evenodd" clip-rule="evenodd" d="M6.79999 1.65002C3.9142 1.65002 1.54999 4.01424 1.54999 6.90002V12.9C1.54999 15.7858 3.9142 18.15 6.79999 18.15H12.8C15.6858 18.15 18.05 15.7858 18.05 12.9V6.90002C18.05 6.48581 18.3858 6.15002 18.8 6.15002C19.2142 6.15002 19.55 6.48581 19.55 6.90002V12.9C19.55 16.6142 16.5142 19.65 12.8 19.65H6.79999C3.08577 19.65 0.0499878 16.6142 0.0499878 12.9V6.90002C0.0499878 3.18581 3.08577 0.150024 6.79999 0.150024C7.2142 0.150024 7.54999 0.485811 7.54999 0.900024C7.54999 1.31424 7.2142 1.65002 6.79999 1.65002Z" fill="black"/>
</g>
<defs>
<clipPath id="clip0_991_5132">
<rect width="19.5" height="19.7" fill="white"/>
</clipPath>
</defs>
</svg>
