<svg xmlns="http://www.w3.org/2000/svg" fill="none" viewBox="0 0 24 24">
  <path fill="#000" fill-rule="evenodd" d="M3.75 8.5a1.25 1.25 0 1 1 2.5 0 1.25 1.25 0 0 1-2.5 0ZM5 5.75a2.75 2.75 0 1 0 0 5.5 2.75 2.75 0 0 0 0-5.5Zm5.75 2.75a1.25 1.25 0 1 1 2.5 0 1.25 1.25 0 0 1-2.5 0ZM12 5.75a2.75 2.75 0 1 0 0 5.5 2.75 2.75 0 0 0 0-5.5Zm7 1.5a1.25 1.25 0 1 0 0 2.5 1.25 1.25 0 0 0 0-2.5ZM16.25 8.5a2.75 2.75 0 1 1 5.5 0 2.75 2.75 0 0 1-5.5 0Zm-12.5 7a1.25 1.25 0 1 1 2.5 0 1.25 1.25 0 0 1-2.5 0ZM5 12.75a2.75 2.75 0 1 0 0 5.5 2.75 2.75 0 0 0 0-5.5Zm7 1.5a1.25 1.25 0 1 0 0 2.5 1.25 1.25 0 0 0 0-2.5ZM9.25 15.5a2.75 2.75 0 1 1 5.5 0 2.75 2.75 0 0 1-5.5 0Zm8.5 0a1.25 1.25 0 1 1 2.5 0 1.25 1.25 0 0 1-2.5 0ZM19 12.75a2.75 2.75 0 1 0 0 5.5 2.75 2.75 0 0 0 0-5.5Z" clip-rule="evenodd"/>
</svg>
