<svg xmlns="http://www.w3.org/2000/svg" fill="none" viewBox="0 0 24 24">
  <path fill="#000" fill-rule="evenodd" d="M8.5 3.75a1.25 1.25 0 1 0 0 2.5 1.25 1.25 0 0 0 0-2.5ZM5.75 5a2.75 2.75 0 1 1 5.5 0 2.75 2.75 0 0 1-5.5 0Zm1.5 7a1.25 1.25 0 1 1 2.5 0 1.25 1.25 0 0 1-2.5 0ZM8.5 9.25a2.75 2.75 0 1 0 0 5.5 2.75 2.75 0 0 0 0-5.5ZM7.25 19a1.25 1.25 0 1 1 2.5 0 1.25 1.25 0 0 1-2.5 0Zm1.25-2.75a2.75 2.75 0 1 0 0 5.5 2.75 2.75 0 0 0 0-5.5ZM14.25 19a1.25 1.25 0 1 1 2.5 0 1.25 1.25 0 0 1-2.5 0Zm1.25-2.75a2.75 2.75 0 1 0 0 5.5 2.75 2.75 0 0 0 0-5.5Zm0-5.5a1.25 1.25 0 1 0 0 2.5 1.25 1.25 0 0 0 0-2.5ZM12.75 12a2.75 2.75 0 1 1 5.5 0 2.75 2.75 0 0 1-5.5 0Zm1.5-7a1.25 1.25 0 1 1 2.5 0 1.25 1.25 0 0 1-2.5 0Zm1.25-2.75a2.75 2.75 0 1 0 0 5.5 2.75 2.75 0 0 0 0-5.5Z" clip-rule="evenodd"/>
</svg>
