<svg width="24" height="24" viewBox="0 0 24 24" fill="none" xmlns="http://www.w3.org/2000/svg">
<path d="M8.5 7.59998C9.32843 7.59998 10 6.9284 10 6.09998C10 5.27155 9.32843 4.59998 8.5 4.59998C7.67157 4.59998 7 5.27155 7 6.09998C7 6.9284 7.67157 7.59998 8.5 7.59998Z" fill="black"/>
<path fill-rule="evenodd" clip-rule="evenodd" d="M8.5 5.09998C7.94772 5.09998 7.5 5.54769 7.5 6.09998C7.5 6.65226 7.94772 7.09998 8.5 7.09998C9.05228 7.09998 9.5 6.65226 9.5 6.09998C9.5 5.54769 9.05228 5.09998 8.5 5.09998ZM6.5 6.09998C6.5 4.99541 7.39543 4.09998 8.5 4.09998C9.60457 4.09998 10.5 4.99541 10.5 6.09998C10.5 7.20455 9.60457 8.09998 8.5 8.09998C7.39543 8.09998 6.5 7.20455 6.5 6.09998Z" fill="black"/>
<path d="M8.5 13.5C9.32843 13.5 10 12.8284 10 12C10 11.1716 9.32843 10.5 8.5 10.5C7.67157 10.5 7 11.1716 7 12C7 12.8284 7.67157 13.5 8.5 13.5Z" fill="black"/>
<path fill-rule="evenodd" clip-rule="evenodd" d="M8.5 11C7.94772 11 7.5 11.4477 7.5 12C7.5 12.5523 7.94772 13 8.5 13C9.05228 13 9.5 12.5523 9.5 12C9.5 11.4477 9.05228 11 8.5 11ZM6.5 12C6.5 10.8954 7.39543 10 8.5 10C9.60457 10 10.5 10.8954 10.5 12C10.5 13.1046 9.60457 14 8.5 14C7.39543 14 6.5 13.1046 6.5 12Z" fill="black"/>
<path d="M8.5 19.4C9.32843 19.4 10 18.7285 10 17.9C10 17.0716 9.32843 16.4 8.5 16.4C7.67157 16.4 7 17.0716 7 17.9C7 18.7285 7.67157 19.4 8.5 19.4Z" fill="black"/>
<path fill-rule="evenodd" clip-rule="evenodd" d="M8.5 16.9C7.94772 16.9 7.5 17.3477 7.5 17.9C7.5 18.4523 7.94772 18.9 8.5 18.9C9.05228 18.9 9.5 18.4523 9.5 17.9C9.5 17.3477 9.05228 16.9 8.5 16.9ZM6.5 17.9C6.5 16.7955 7.39543 15.9 8.5 15.9C9.60457 15.9 10.5 16.7955 10.5 17.9C10.5 19.0046 9.60457 19.9 8.5 19.9C7.39543 19.9 6.5 19.0046 6.5 17.9Z" fill="black"/>
<path d="M15.5 7.59998C16.3284 7.59998 17 6.9284 17 6.09998C17 5.27155 16.3284 4.59998 15.5 4.59998C14.6716 4.59998 14 5.27155 14 6.09998C14 6.9284 14.6716 7.59998 15.5 7.59998Z" fill="black"/>
<path fill-rule="evenodd" clip-rule="evenodd" d="M15.5 5.09998C14.9477 5.09998 14.5 5.54769 14.5 6.09998C14.5 6.65226 14.9477 7.09998 15.5 7.09998C16.0523 7.09998 16.5 6.65226 16.5 6.09998C16.5 5.54769 16.0523 5.09998 15.5 5.09998ZM13.5 6.09998C13.5 4.99541 14.3954 4.09998 15.5 4.09998C16.6046 4.09998 17.5 4.99541 17.5 6.09998C17.5 7.20455 16.6046 8.09998 15.5 8.09998C14.3954 8.09998 13.5 7.20455 13.5 6.09998Z" fill="black"/>
<path d="M15.5 13.5C16.3284 13.5 17 12.8284 17 12C17 11.1716 16.3284 10.5 15.5 10.5C14.6716 10.5 14 11.1716 14 12C14 12.8284 14.6716 13.5 15.5 13.5Z" fill="black"/>
<path fill-rule="evenodd" clip-rule="evenodd" d="M15.5 11C14.9477 11 14.5 11.4477 14.5 12C14.5 12.5523 14.9477 13 15.5 13C16.0523 13 16.5 12.5523 16.5 12C16.5 11.4477 16.0523 11 15.5 11ZM13.5 12C13.5 10.8954 14.3954 10 15.5 10C16.6046 10 17.5 10.8954 17.5 12C17.5 13.1046 16.6046 14 15.5 14C14.3954 14 13.5 13.1046 13.5 12Z" fill="black"/>
<path d="M15.5 19.4C16.3284 19.4 17 18.7285 17 17.9C17 17.0716 16.3284 16.4 15.5 16.4C14.6716 16.4 14 17.0716 14 17.9C14 18.7285 14.6716 19.4 15.5 19.4Z" fill="black"/>
<path fill-rule="evenodd" clip-rule="evenodd" d="M15.5 16.9C14.9477 16.9 14.5 17.3477 14.5 17.9C14.5 18.4523 14.9477 18.9 15.5 18.9C16.0523 18.9 16.5 18.4523 16.5 17.9C16.5 17.3477 16.0523 16.9 15.5 16.9ZM13.5 17.9C13.5 16.7955 14.3954 15.9 15.5 15.9C16.6046 15.9 17.5 16.7955 17.5 17.9C17.5 19.0046 16.6046 19.9 15.5 19.9C14.3954 19.9 13.5 19.0046 13.5 17.9Z" fill="black"/>
</svg>
