<svg xmlns="http://www.w3.org/2000/svg" fill="none" viewBox="0 0 24 24">
  <path fill="#000" fill-rule="evenodd" d="M12 3.75A8.213 8.213 0 0 0 3.75 12 8.213 8.213 0 0 0 12 20.25c4.486 0 8.25-3.764 8.25-8.25A8.213 8.213 0 0 0 12 3.75ZM2.25 12A9.713 9.713 0 0 1 12 2.25 9.713 9.713 0 0 1 21.75 12c0 5.314-4.436 9.75-9.75 9.75A9.713 9.713 0 0 1 2.25 12Z" clip-rule="evenodd"/>
  <path fill="#000" d="M7.2 12.9c-.3 0-.5-.1-.7-.3-.1-.1-.2-.2-.2-.3-.1-.1-.1-.2-.1-.4 0-.1 0-.3.1-.4 0-.1.1-.2.2-.3.4-.4 1-.4 1.4 0 .1.1.2.2.2.3.1.2.1.3.1.4 0 .3-.1.5-.3.7-.2.2-.4.3-.7.3Zm4.7 0c-.3 0-.5-.1-.7-.3-.1-.1-.3-.4-.3-.7 0-.2.2-.5.3-.7.4-.4 1-.4 1.4 0 .2.2.3.4.3.7 0 .3-.1.5-.3.7-.1.2-.4.3-.7.3Zm4.8 0c-.3 0-.5-.1-.7-.3-.2-.2-.3-.4-.3-.7 0-.3.1-.5.3-.7.4-.4 1-.4 1.4 0 .2.2.3.4.3.7 0 .3-.1.5-.3.7-.2.2-.4.3-.7.3Z"/>
</svg>
