<svg xmlns="http://www.w3.org/2000/svg" viewBox="0 0 24 24" fill="currentColor">
  <path d="M8.5 3.75c-.69036 0-1.25.55964-1.25 1.25s.55964 1.25 1.25 1.25S9.75 5.69036 9.75 5 9.19036 3.75 8.5 3.75ZM5.75 5c0-1.51878 1.23122-2.75 2.75-2.75 1.5188 0 2.75 1.23122 2.75 2.75S10.0188 7.75 8.5 7.75C6.98122 7.75 5.75 6.51878 5.75 5Zm1.5 7c0-.6904.55964-1.25 1.25-1.25s1.25.5596 1.25 1.25-.55964 1.25-1.25 1.25-1.25-.5596-1.25-1.25ZM8.5 9.25c-1.51878 0-2.75 1.2312-2.75 2.75s1.23122 2.75 2.75 2.75c1.5188 0 2.75-1.2312 2.75-2.75S10.0188 9.25 8.5 9.25ZM7.25 19c0-.6904.55964-1.25 1.25-1.25s1.25.5596 1.25 1.25-.55964 1.25-1.25 1.25-1.25-.5596-1.25-1.25Zm1.25-2.75c-1.51878 0-2.75 1.2312-2.75 2.75s1.23122 2.75 2.75 2.75c1.5188 0 2.75-1.2312 2.75-2.75s-1.2312-2.75-2.75-2.75ZM14.25 19c0-.6904.5596-1.25 1.25-1.25s1.25.5596 1.25 1.25-.5596 1.25-1.25 1.25-1.25-.5596-1.25-1.25Zm1.25-2.75c-1.5188 0-2.75 1.2312-2.75 2.75s1.2312 2.75 2.75 2.75 2.75-1.2312 2.75-2.75-1.2312-2.75-2.75-2.75Zm0-5.5c-.6904 0-1.25.5596-1.25 1.25s.5596 1.25 1.25 1.25 1.25-.5596 1.25-1.25-.5596-1.25-1.25-1.25ZM12.75 12c0-1.5188 1.2312-2.75 2.75-2.75s2.75 1.2312 2.75 2.75-1.2312 2.75-2.75 2.75-2.75-1.2312-2.75-2.75Zm1.5-7c0-.69036.5596-1.25 1.25-1.25s1.25.55964 1.25 1.25-.5596 1.25-1.25 1.25-1.25-.55964-1.25-1.25Zm1.25-2.75c-1.5188 0-2.75 1.23122-2.75 2.75s1.2312 2.75 2.75 2.75S18.25 6.51878 18.25 5s-1.2312-2.75-2.75-2.75Z"/>
</svg>
