<svg width="24" height="24" viewBox="0 0 24 24" fill="none" xmlns="http://www.w3.org/2000/svg">
<path fill-rule="evenodd" clip-rule="evenodd" d="M9 3.75C6.11421 3.75 3.75 6.11421 3.75 9V15C3.75 17.8858 6.11421 20.25 9 20.25H15C17.8858 20.25 20.25 17.8858 20.25 15V9C20.25 6.11421 17.8858 3.75 15 3.75H9ZM2.25 9C2.25 5.28579 5.28579 2.25 9 2.25H15C18.7142 2.25 21.75 5.28579 21.75 9V15C21.75 18.7142 18.7142 21.75 15 21.75H9C5.28579 21.75 2.25 18.7142 2.25 15V9Z" fill="black"/>
<path d="M7.20001 12.9C6.90001 12.9 6.70001 12.8 6.50001 12.6C6.40001 12.5 6.30001 12.4 6.30001 12.3C6.20001 12.2 6.20001 12.1 6.20001 11.9C6.20001 11.8 6.20001 11.6 6.30001 11.5C6.30001 11.4 6.40001 11.3 6.50001 11.2C6.90001 10.8 7.50001 10.8 7.90001 11.2C8.00001 11.3 8.10001 11.4 8.10001 11.5C8.20001 11.7 8.20001 11.8 8.20001 11.9C8.20001 12.2 8.10001 12.4 7.90001 12.6C7.70001 12.8 7.50001 12.9 7.20001 12.9Z" fill="black"/>
<path d="M11.9 12.9C11.6 12.9 11.4 12.8 11.2 12.6C11.1 12.5 10.9 12.2 10.9 11.9C10.9 11.7 11.1 11.4 11.2 11.2C11.6 10.8 12.2 10.8 12.6 11.2C12.8 11.4 12.9 11.6 12.9 11.9C12.9 12.2 12.8 12.4 12.6 12.6C12.5 12.8 12.2 12.9 11.9 12.9Z" fill="black"/>
<path d="M16.7 12.9C16.4 12.9 16.2 12.8 16 12.6C15.8 12.4 15.7 12.2 15.7 11.9C15.7 11.6 15.8 11.4 16 11.2C16.4 10.8 17 10.8 17.4 11.2C17.6 11.4 17.7 11.6 17.7 11.9C17.7 12.2 17.6 12.4 17.4 12.6C17.2 12.8 17 12.9 16.7 12.9Z" fill="black"/>
</svg>
