<svg width="24" height="24" viewBox="0 0 24 24" fill="none" xmlns="http://www.w3.org/2000/svg">
<path d="M15 18H9C5.7 18 3 15.3 3 12C3 8.7 5.7 6 9 6H15C18.3 6 21 8.7 21 12C21 15.3 18.3 18 15 18Z" fill="black"/>
<path fill-rule="evenodd" clip-rule="evenodd" d="M9 6.75C6.11421 6.75 3.75 9.11421 3.75 12C3.75 14.8858 6.11421 17.25 9 17.25H15C17.8858 17.25 20.25 14.8858 20.25 12C20.25 9.11421 17.8858 6.75 15 6.75H9ZM2.25 12C2.25 8.28579 5.28579 5.25 9 5.25H15C18.7142 5.25 21.75 8.28579 21.75 12C21.75 15.7142 18.7142 18.75 15 18.75H9C5.28579 18.75 2.25 15.7142 2.25 12Z" fill="black"/>
<path d="M7.20001 12.9C6.90001 12.9 6.70001 12.8 6.50001 12.6C6.40001 12.6 6.30001 12.4 6.30001 12.3C6.20001 12.2 6.20001 12.1 6.20001 11.9C6.20001 11.8 6.20001 11.6 6.30001 11.5C6.30001 11.4 6.40001 11.3 6.50001 11.2C6.90001 10.8 7.50001 10.8 7.90001 11.2C8.00001 11.3 8.10001 11.4 8.10001 11.5C8.20001 11.7 8.20001 11.8 8.20001 11.9C8.20001 12.2 8.10001 12.5 7.90001 12.6C7.70001 12.8 7.50001 12.9 7.20001 12.9Z" fill="white"/>
<path d="M11.9 12.9C11.7 12.9 11.4 12.8 11.2 12.6C11.1 12.5 10.9 12.2 10.9 11.9C10.9 11.7 11.1 11.4 11.2 11.2C11.6 10.8 12.2 10.8 12.6 11.2C12.8 11.4 12.9 11.6 12.9 11.9C12.9 12.2 12.8 12.4 12.6 12.6C12.5 12.8 12.2 12.9 11.9 12.9Z" fill="white"/>
<path d="M16.7 12.9C16.4 12.9 16.2 12.8 16 12.6C15.8 12.4 15.7 12.2 15.7 11.9C15.7 11.6 15.8 11.4 16 11.2C16.4 10.8 17 10.8 17.4 11.2C17.6 11.4 17.7 11.6 17.7 11.9C17.7 12.2 17.6 12.4 17.4 12.6C17.2 12.8 17 12.9 16.7 12.9Z" fill="white"/>
</svg>
