<svg xmlns="http://www.w3.org/2000/svg" viewBox="0 0 24 24" fill="currentColor">
  <path d="M10.4923 4.66489 6.77706 10.3884l-.07034.0645c-.86232.7904-.89697 2.1962.02354 3.1168l.05579.0557 3.70625 5.7097c.7817.8055 2.1191.8389 3.0244-.014l3.7061-5.7095.0703-.0645c.8623-.7904.897-2.1963-.0235-3.1168l-.0558-.0558-3.6971-5.69556c-.9053-.85296-2.2427-.81951-3.0244-.01405ZM9.34708 3.6932c1.40952-1.53768 3.80372-1.50303 5.28322-.02354l.0558.0558 3.7022 5.70353c1.3988 1.45921 1.4349 3.75621-.0082 5.15471l-3.694 5.6908-.0558.0558c-1.4795 1.4795-3.8737 1.5142-5.28322-.0235l-.04221-.0461-3.69336-5.6897c-1.39873-1.4592-1.43484-3.7562.00825-5.15472l3.68511-5.67704.04221-.04604Z"/>
</svg>
