<svg width="24" height="24" viewBox="0 0 24 24" fill="none" xmlns="http://www.w3.org/2000/svg">
<path d="M14.5 4.60002L18.2 10.3C19.4 11.5 19.4 13.4 18.2 14.5L14.5 20.2C13.3 21.4 11.4 21.4 10.3 20.2L6.6 14.5C5.4 13.3 5.4 11.4 6.6 10.3L10.3 4.60002C11.5 3.50002 13.4 3.50002 14.5 4.60002Z" fill="black"/>
<path fill-rule="evenodd" clip-rule="evenodd" d="M10.8735 5.09401L7.17713 10.7884L7.10679 10.8529C6.24447 11.6434 6.20982 13.0492 7.13033 13.9697L7.18612 14.0255L10.8924 19.7351C11.6741 20.5406 13.0115 20.574 13.9167 19.7211L17.6229 14.0116L17.6932 13.9472C18.5555 13.1567 18.5902 11.7509 17.6697 10.8304L17.6139 10.7746L13.9175 5.08011C13.1323 4.35242 11.7807 4.32297 10.8735 5.09401ZM9.79321 4.04716C11.2668 2.69638 13.6254 2.66474 15.0303 4.0697L15.0861 4.12549L18.7884 9.82903C20.1872 11.2882 20.2233 13.5853 18.7802 14.9837L15.0861 20.6746L15.0303 20.7304C13.5508 22.2098 11.1567 22.2445 9.74714 20.7068L9.70493 20.6608L6.01158 14.971C4.61285 13.5119 4.57674 11.2148 6.01983 9.81632L9.72287 4.11164L9.79321 4.04716Z" fill="black"/>
</svg>
