<svg width="24" height="24" viewBox="0 0 24 24" fill="none" xmlns="http://www.w3.org/2000/svg">
<path d="M15.2 3.80005H9.09999C8.79999 3.80005 8.59999 3.90005 8.39999 4.00005L3.99999 8.40005C3.89999 8.60005 3.79999 8.80005 3.79999 9.10005V15.2C3.79999 15.5 3.89999 15.7 4.09999 15.9L8.39999 20.2001C8.59999 20.4001 8.79999 20.5 9.09999 20.5H15.2C15.5 20.5 15.7 20.4001 15.9 20.2001L20.2 15.9C20.4 15.7 20.5 15.5 20.5 15.2V9.10005C20.5 8.80005 20.4 8.60005 20.2 8.40005L16 4.00005C15.8 3.90005 15.5 3.80005 15.2 3.80005Z" fill="black"/>
<path fill-rule="evenodd" clip-rule="evenodd" d="M8.08131 3.32085C8.28859 3.21702 8.62195 3.05005 9.09999 3.05005H15.2C15.6492 3.05005 16.0652 3.19413 16.3354 3.32923L16.4523 3.38767L20.737 7.87645C20.8789 8.0194 21.0141 8.19148 21.1103 8.40795C21.2095 8.63108 21.25 8.86254 21.25 9.10005V15.2C21.25 15.4376 21.2095 15.669 21.1103 15.8922C21.0126 16.112 20.8746 16.2861 20.7303 16.4304L16.4303 20.7304C16.286 20.8747 16.112 21.0127 15.8921 21.1104C15.669 21.2096 15.4375 21.25 15.2 21.25H9.09999C8.86247 21.25 8.63102 21.2096 8.40788 21.1104C8.18801 21.0127 8.01393 20.8747 7.86966 20.7304L3.56966 16.4304C3.42538 16.2861 3.28735 16.112 3.18963 15.8922C3.09046 15.669 3.04999 15.4376 3.04999 15.2V9.10005C3.04999 8.62201 3.21696 8.28865 3.32079 8.08137C3.32363 8.0757 3.32643 8.07012 3.32917 8.06464L3.3836 7.95578L7.95572 3.38366L8.06458 3.32923C8.07006 3.32649 8.07564 3.32369 8.08131 3.32085ZM8.84213 4.61856L4.6185 8.84219C4.59822 8.88526 4.58476 8.91745 4.574 8.94972C4.55929 8.99385 4.54999 9.03878 4.54999 9.10005V15.2C4.54999 15.2605 4.55891 15.2798 4.56024 15.2827C4.56252 15.2878 4.57459 15.314 4.63032 15.3697L8.93032 19.6697C8.98604 19.7254 9.01196 19.7374 9.01709 19.7397C9.01997 19.741 9.03952 19.75 9.09999 19.75H15.2C15.2625 19.75 15.281 19.7405 15.2829 19.7397C15.288 19.7374 15.3139 19.7254 15.3697 19.6697L19.6697 15.3697C19.7254 15.314 19.7374 15.2881 19.7396 15.2829C19.741 15.2801 19.75 15.2605 19.75 15.2V9.10005C19.75 9.03958 19.7411 9.02026 19.7397 9.01739C19.7375 9.01226 19.7254 8.9861 19.6697 8.93038L19.6635 8.92421L15.5598 4.62515C15.4459 4.58176 15.3135 4.55005 15.2 4.55005H9.09999C9.03872 4.55005 8.99379 4.55935 8.94966 4.57406C8.91739 4.58482 8.8852 4.59828 8.84213 4.61856Z" fill="black"/>
<path d="M12.2 13.9C11.8 13.9 11.4 13.6 11.4 13.1V8.10005C11.4 7.70005 11.7 7.30005 12.2 7.30005C12.7 7.30005 13 7.60005 13 8.10005V13.1C12.9 13.6 12.6 13.9 12.2 13.9Z" fill="white"/>
<path d="M12.2 16.9C12 16.9 11.8 16.8 11.7 16.7C11.6 16.6 11.6 16.6 11.5 16.5C11.5 16.4 11.4 16.3 11.4 16.2C11.4 16.1 11.4 16 11.5 15.9C11.5 15.8 11.6 15.7 11.7 15.7C11.9 15.5 12.2 15.4 12.5 15.5C12.6 15.5 12.7 15.6 12.7 15.7C12.8 15.8 12.8 15.8 12.9 15.9C12.9 16 13 16.1 13 16.2C13 16.3 13 16.4 12.9 16.5C12.9 16.6 12.8 16.7 12.7 16.7C12.6 16.7 12.6 16.8 12.5 16.9C12.4 16.9 12.3 16.9 12.2 16.9Z" fill="white"/>
</svg>
