<svg width="24" height="24" viewBox="0 0 24 24" fill="none" xmlns="http://www.w3.org/2000/svg">
<path d="M12.4 14.2C12 14.2 11.6 13.9 11.6 13.4V8.39995C11.6 7.99995 12 7.69995 12.4 7.69995C12.8 7.69995 13.2 7.99995 13.2 8.49995V13.5C13.1 13.9 12.8 14.2 12.4 14.2Z" fill="black"/>
<path d="M12.4 17.2C12.2 17.2 12 17.1 11.9 17C11.8 16.9 11.8 16.9 11.7 16.8C11.7 16.7 11.6 16.6 11.6 16.5C11.6 16.4 11.6 16.3 11.7 16.2C11.7 16.1 11.8 16 11.9 16C12.1 15.8 12.4 15.7 12.7 15.8C12.8 15.8 12.9 15.9 12.9 16C13 16.1 13 16.1 13.1 16.2C13.1 16.3 13.2 16.4 13.2 16.5C13.2 16.6 13.2 16.7 13.1 16.8C13.1 16.9 13 17 12.9 17C12.8 17 12.8 17.1 12.7 17.2C12.6 17.2 12.5 17.2 12.4 17.2Z" fill="black"/>
<path fill-rule="evenodd" clip-rule="evenodd" d="M8.6079 3.38964C8.83103 3.29047 9.06249 3.25 9.3 3.25H15.4C15.8489 3.25 16.3579 3.39719 16.7303 3.76967L16.7365 3.77584L20.937 8.1764C21.0789 8.31936 21.2142 8.49143 21.3104 8.7079C21.4095 8.93103 21.45 9.16249 21.45 9.4V15.5C21.45 15.7375 21.4095 15.969 21.3104 16.1921C21.2126 16.412 21.0746 16.5861 20.9303 16.7303L16.6303 21.0303C16.4861 21.1746 16.312 21.3126 16.0921 21.4104C15.869 21.5095 15.6375 21.55 15.4 21.55H9.3C9.06248 21.55 8.83103 21.5095 8.60789 21.4104C8.38802 21.3126 8.21394 21.1746 8.06967 21.0303L3.76967 16.7303C3.62539 16.5861 3.48736 16.412 3.38964 16.1921C3.29047 15.969 3.25 15.7375 3.25 15.5V9.4C3.25 8.92196 3.41698 8.58861 3.5208 8.38132C3.52364 8.37565 3.52644 8.37007 3.52918 8.36459L3.58361 8.25573L8.06967 3.76967C8.21394 3.62539 8.38802 3.48736 8.6079 3.38964ZM9.2171 4.76036C9.21198 4.76264 9.18605 4.77461 9.13033 4.83033L4.81852 9.14214C4.79823 9.18521 4.78477 9.2174 4.77401 9.24967C4.7593 9.2938 4.75 9.33873 4.75 9.4V15.5C4.75 15.5605 4.75892 15.5798 4.76025 15.5827C4.76253 15.5878 4.77461 15.6139 4.83033 15.6697L9.13033 19.9697C9.18606 20.0254 9.21198 20.0374 9.21711 20.0396C9.21897 20.0405 9.23751 20.05 9.3 20.05H15.4C15.4605 20.05 15.4798 20.0411 15.4827 20.0398C15.4878 20.0375 15.5139 20.0254 15.5697 19.9697L19.8697 15.6697C19.9254 15.6139 19.9374 15.588 19.9396 15.5829C19.9405 15.581 19.95 15.5625 19.95 15.5V9.4C19.95 9.33953 19.9411 9.32021 19.9397 9.31734C19.9375 9.31221 19.9254 9.28605 19.8697 9.23033L19.8635 9.22416L15.6665 4.82734C15.6357 4.79916 15.5458 4.75 15.4 4.75H9.3C9.23954 4.75 9.21999 4.75903 9.2171 4.76036C9.21716 4.76033 9.21701 4.7604 9.2171 4.76036Z" fill="black"/>
</svg>
