<svg width="24" height="24" viewBox="0 0 24 24" fill="none" xmlns="http://www.w3.org/2000/svg">
<path d="M11.8 20.8C16.7706 20.8 20.8 16.7706 20.8 11.8C20.8 6.82949 16.7706 2.80005 11.8 2.80005C6.82944 2.80005 2.8 6.82949 2.8 11.8C2.8 16.7706 6.82944 20.8 11.8 20.8Z" fill="black"/>
<path fill-rule="evenodd" clip-rule="evenodd" d="M11.8 3.55005C7.24365 3.55005 3.55 7.2437 3.55 11.8C3.55 16.3564 7.24365 20.05 11.8 20.05C16.3563 20.05 20.05 16.3564 20.05 11.8C20.05 7.2437 16.3563 3.55005 11.8 3.55005ZM2.05 11.8C2.05 6.41527 6.41522 2.05005 11.8 2.05005C17.1848 2.05005 21.55 6.41527 21.55 11.8C21.55 17.1848 17.1848 21.55 11.8 21.55C6.41522 21.55 2.05 17.1848 2.05 11.8Z" fill="black"/>
<path d="M11.8 14.5C11.4 14.5 11 14.2 11 13.7V7.7C11 7.3 11.3 7 11.8 7C12.3 7 12.6 7.3 12.6 7.8V13.8C12.5 14.2 12.2 14.5 11.8 14.5Z" fill="white"/>
<path d="M11.8 17.5001C11.7 17.5001 11.6 17.5001 11.5 17.4001C11.4 17.4001 11.3 17.3001 11.3 17.2001C11.3 17.1001 11.1 17.1001 11.1 17.0001C11 16.9001 11 16.8001 11 16.8001C11 16.7001 11 16.6001 11.1 16.5001C11.1 16.4001 11.2 16.3001 11.3 16.3001C11.4 16.2001 11.5 16.2001 11.5 16.1001C11.8 16.0001 12.1 16.0001 12.3 16.3001C12.4 16.4001 12.4 16.4001 12.5 16.5001C12.5 16.6001 12.6 16.7001 12.6 16.8001C12.6 17.0001 12.5 17.2001 12.4 17.3001C12.1 17.4001 12 17.5001 11.8 17.5001Z" fill="white"/>
</svg>
