<svg width="24" height="24" viewBox="0 0 24 24" fill="none" xmlns="http://www.w3.org/2000/svg">
<path d="M11.9 15.1C15.3242 15.1 18.1 12.3241 18.1 8.89995C18.1 5.47579 15.3242 2.69995 11.9 2.69995C8.47585 2.69995 5.70001 5.47579 5.70001 8.89995C5.70001 12.3241 8.47585 15.1 11.9 15.1Z" fill="black"/>
<path fill-rule="evenodd" clip-rule="evenodd" d="M11.9 3.44995C8.89006 3.44995 6.45001 5.89 6.45001 8.89995C6.45001 11.9099 8.89006 14.35 11.9 14.35C14.91 14.35 17.35 11.9099 17.35 8.89995C17.35 5.89 14.91 3.44995 11.9 3.44995ZM4.95001 8.89995C4.95001 5.06157 8.06163 1.94995 11.9 1.94995C15.7384 1.94995 18.85 5.06157 18.85 8.89995C18.85 12.7383 15.7384 15.85 11.9 15.85C8.06163 15.85 4.95001 12.7383 4.95001 8.89995Z" fill="black"/>
<path fill-rule="evenodd" clip-rule="evenodd" d="M11.9 14.35C12.3142 14.35 12.65 14.6858 12.65 15.1V20.9C12.65 21.3142 12.3142 21.65 11.9 21.65C11.4858 21.65 11.15 21.3142 11.15 20.9V15.1C11.15 14.6858 11.4858 14.35 11.9 14.35Z" fill="black"/>
<path fill-rule="evenodd" clip-rule="evenodd" d="M8.55002 18C8.55002 17.5858 8.8858 17.25 9.30002 17.25H14.6C15.0142 17.25 15.35 17.5858 15.35 18C15.35 18.4142 15.0142 18.75 14.6 18.75H9.30002C8.8858 18.75 8.55002 18.4142 8.55002 18Z" fill="black"/>
</svg>
