<svg width="24" height="24" viewBox="0 0 24 24" fill="none" xmlns="http://www.w3.org/2000/svg">
<path fill-rule="evenodd" clip-rule="evenodd" d="M6.75002 3.75C5.96424 3.75 5.40002 4.31421 5.40002 5.1V18.9C5.40002 19.6858 5.96424 20.25 6.75002 20.25H17.25C18.0358 20.25 18.6 19.6858 18.6 18.9V10.45H15.35C13.2358 10.45 11.5 8.71421 11.5 6.6V3.75H6.75002ZM3.90002 5.1C3.90002 3.48579 5.13581 2.25 6.75002 2.25H13V6.6C13 7.88579 14.0642 8.95 15.35 8.95H20.1V18.9C20.1 20.5142 18.8642 21.75 17.25 21.75H6.75002C5.13581 21.75 3.90002 20.5142 3.90002 18.9V5.1Z" fill="black"/>
<path fill-rule="evenodd" clip-rule="evenodd" d="M11.6 2.3501H12.65C14.3595 2.3501 15.9474 3.03683 17.1803 4.26977L18.1682 5.25762C19.4318 6.41422 20.1 8.11768 20.1 9.8001V10.5501H15.45C13.3358 10.5501 11.6 8.81431 11.6 6.7001V2.3501ZM13.1 3.87113V6.7001C13.1 7.98588 14.1642 9.0501 15.45 9.0501H18.5426C18.3829 8.00962 17.8949 7.03637 17.1455 6.35505L17.1323 6.34305L16.1196 5.33043C15.2659 4.47665 14.221 3.97657 13.1 3.87113Z" fill="black"/>
<path fill-rule="evenodd" clip-rule="evenodd" d="M9.95007 12.55C10.3643 12.55 10.7001 12.8858 10.7001 13.3V17.4C10.7001 17.8143 10.3643 18.15 9.95007 18.15C9.53586 18.15 9.20007 17.8143 9.20007 17.4V13.3C9.20007 12.8858 9.53586 12.55 9.95007 12.55Z" fill="black"/>
<path fill-rule="evenodd" clip-rule="evenodd" d="M10 13.7106L11.4197 15.1303C11.7126 15.4232 12.1875 15.4232 12.4804 15.1303C12.7733 14.8374 12.7733 14.3625 12.4804 14.0696L10.6943 12.2836L10.5855 12.2291C10.4012 12.137 10.1868 12.075 9.96255 12.075C9.74323 12.075 9.45161 12.1377 9.21972 12.3696L7.51972 14.0696C7.22683 14.3625 7.22683 14.8374 7.51972 15.1303C7.81261 15.4232 8.28749 15.4232 8.58038 15.1303L10 13.7106Z" fill="black"/>
</svg>
