<svg width="24" height="24" viewBox="0 0 24 24" fill="none" xmlns="http://www.w3.org/2000/svg">
<path fill-rule="evenodd" clip-rule="evenodd" d="M6.45001 4.29999C6.45001 2.95328 7.51906 2.04999 8.70001 2.04999H13.45V5.39999C13.45 6.18577 14.1142 6.84999 14.9 6.84999H18.45V14.1C18.45 14.4699 18.2921 14.8929 18.1708 15.1354C17.9856 15.5059 17.5351 15.656 17.1646 15.4708C16.7941 15.2856 16.644 14.8351 16.8292 14.4646C16.8592 14.4045 16.8936 14.3198 16.9191 14.2345C16.9316 14.1929 16.9401 14.1574 16.9452 14.1297C16.9491 14.109 16.9499 14.0984 16.95 14.097V8.34999H14.9C13.2858 8.34999 11.95 7.0142 11.95 5.39999V3.54999H8.70001C8.28096 3.54999 7.95001 3.8467 7.95001 4.29999V5.29999C7.95001 5.7142 7.61423 6.04999 7.20001 6.04999C6.7858 6.04999 6.45001 5.7142 6.45001 5.29999V4.29999Z" fill="black"/>
<path fill-rule="evenodd" clip-rule="evenodd" d="M11.95 2.04999H12.9C14.1952 2.04999 15.3871 2.52643 16.3303 3.46966L17.0137 4.15297C17.9984 5.02677 18.45 6.34451 18.45 7.59999V8.34999H14.9C13.2858 8.34999 11.95 7.0142 11.95 5.39999V2.04999ZM13.45 3.59183V5.39999C13.45 6.18577 14.1142 6.84999 14.9 6.84999H16.8745C16.7428 6.21112 16.4427 5.64645 16.0061 5.26442L15.9873 5.24798L15.2697 4.53032C14.7491 4.00977 14.1335 3.69854 13.45 3.59183Z" fill="black"/>
<path fill-rule="evenodd" clip-rule="evenodd" d="M4.25 6.00001C4.25 5.24856 4.82569 4.45001 5.8 4.45001H7.77705L7.93541 4.52919C7.94167 4.53232 7.95553 4.53853 7.99381 4.55168C7.99882 4.55341 8.00717 4.5562 8.01781 4.55974C8.05382 4.57176 8.11602 4.59252 8.16334 4.61027C8.32513 4.67094 8.52855 4.76896 8.72736 4.96672L19.0834 15.1236C19.6371 15.5381 19.75 16.221 19.75 16.6V20C19.75 21.154 18.7732 21.95 17.8 21.95H6.2C5.04597 21.95 4.25 20.9733 4.25 20V6.00001ZM5.755 5.97471C5.75141 5.98407 5.75 5.99316 5.75 6.00001V20C5.75 20.0962 5.79303 20.215 5.88276 20.31C5.9667 20.3989 6.07472 20.45 6.2 20.45H17.8C17.8962 20.45 18.015 20.407 18.11 20.3173C18.1989 20.2333 18.25 20.1253 18.25 20V16.6C18.25 16.5258 18.2366 16.4443 18.2125 16.3817C18.1973 16.3422 18.1844 16.326 18.1805 16.3218L18.1252 16.2849L7.66965 6.03037C7.66962 6.03035 7.66963 6.03041 7.66965 6.03037C7.66986 6.0299 7.67091 6.0276 7.63666 6.01476C7.61484 6.00658 7.60095 6.00199 7.579 5.99473C7.56202 5.98912 7.54022 5.98191 7.50619 5.97021C7.48899 5.9643 7.4699 5.95761 7.44927 5.95001H5.8C5.78771 5.95001 5.77981 5.95122 5.77555 5.95211C5.77128 5.953 5.76922 5.95387 5.76867 5.95412C5.76864 5.95413 5.7687 5.95411 5.76867 5.95412C5.76819 5.95433 5.76728 5.95472 5.76537 5.95681C5.76277 5.95964 5.75853 5.9655 5.755 5.97471Z" fill="black"/>
</svg>
