<svg xmlns="http://www.w3.org/2000/svg" viewBox="0 0 60 60">
  <path d="M25.2 56.175H7.22498c-.66305 0-1.29893-.2634-1.76777-.7322-.46884-.4689-.73223-1.1047-.73223-1.7678V6.32501c0-.66304.26339-1.29892.73223-1.76776.46884-.46885 1.10472-.73224 1.76777-.73224H25.2c.663 0 1.2989.26339 1.7677.73224.4689.46884.7323 1.10472.7323 1.76776V53.675c0 .6631-.2634 1.2989-.7323 1.7678-.4688.4688-1.1047.7322-1.7677.7322Zm-15.47502-5H22.7V8.82501H9.72498V51.175Zm43.05002 5H34.8c-.663 0-1.2989-.2634-1.7677-.7322-.4689-.4689-.7323-1.1047-.7323-1.7678V6.32501c0-.66304.2634-1.29892.7323-1.76776.4688-.46885 1.1047-.73224 1.7677-.73224h17.975c.6631 0 1.299.26339 1.7678.73224.4689.46884.7322 1.10472.7322 1.76776V53.675c0 .6631-.2633 1.2989-.7322 1.7678-.4688.4688-1.1047.7322-1.7678.7322Zm-15.475-5h12.975V8.82501H37.3V51.175Z"/>
  <path d="M25 17.9H9.34998c-.66305 0-1.29893-.2634-1.76777-.7322-.46884-.4688-.73223-1.1047-.73223-1.7678 0-.663.26339-1.2989.73223-1.7677.46884-.4689 1.10472-.7323 1.76777-.7323H25c.663 0 1.2989.2634 1.7677.7323.4689.4688.7323 1.1047.7323 1.7677 0 .6631-.2634 1.299-.7323 1.7678-.4688.4688-1.1047.7322-1.7677.7322Zm26.95 15.2H35.375c-.663 0-1.2989-.2634-1.7678-.7323-.4688-.4688-.7322-1.1047-.7322-1.7677 0-.6631.2634-1.2989.7322-1.7678.4689-.4688 1.1048-.7322 1.7678-.7322H51.95c.663 0 1.2989.2634 1.7678.7322.4688.4689.7322 1.1047.7322 1.7678 0 .663-.2634 1.2989-.7322 1.7677-.4689.4689-1.1048.7323-1.7678.7323ZM16.2 44.325c-.3251.0039-.6478-.0555-.95-.175-.6008-.2687-1.0814-.7493-1.35-1.35-.1228-.3101-.1823-.6416-.175-.975.0027-.6559.2631-1.2844.725-1.75.2886-.2927.6449-.5097 1.0373-.6318.3925-.1221.809-.1455 1.2127-.0682l.475.15.325.225c.1362.0946.2619.2036.375.325.471.4615.7406 1.0905.75 1.75-.0007.3351-.0687.6666-.2.975-.1293.3-.3162.5718-.55.8-.447.4441-1.0453.703-1.675.725Zm27.5999.0001c-.3334.0073-.6649-.0522-.975-.175-.6007-.2686-1.0814-.7493-1.35-1.35-.1228-.3101-.1823-.6416-.175-.975.0028-.6558.2631-1.2843.725-1.75.2218-.2413.4953-.4293.8-.55.4577-.1929.9625-.2452 1.45-.15l.475.15.425.225c.1412.0882.2677.1978.375.325.471.4616.7406 1.0906.75 1.75-.0006.3351-.0686.6667-.2.975-.1293.3-.3161.5718-.55.8-.4656.4619-1.0941.7222-1.75.725Z"/>
</svg>
