<svg xmlns="http://www.w3.org/2000/svg" fill="none" viewBox="0 0 24 24">
  <path fill="#000" d="M19.35 9.8v9.1c0 1.2-.9 2.1-2.1 2.1H6.75c-1.2 0-2.1-.9-2.1-2.1V5.1c0-1.2.9-2.1 2.1-2.1h5.5v3.6c0 1.7 1.4 3.1 3.1 3.1h4v.1Z"/>
  <path fill="#000" fill-rule="evenodd" d="M6.75 3.75c-.786 0-1.35.564-1.35 1.35v13.8c0 .786.564 1.35 1.35 1.35h10.5c.786 0 1.35-.564 1.35-1.35v-8.45h-3.25A3.866 3.866 0 0 1 11.5 6.6V3.75H6.75ZM3.9 5.1c0-1.614 1.236-2.85 2.85-2.85H13V6.6a2.366 2.366 0 0 0 2.35 2.35h4.75v9.95c0 1.614-1.236 2.85-2.85 2.85H6.75c-1.614 0-2.85-1.236-2.85-2.85V5.1Z" clip-rule="evenodd"/>
  <path fill="#000" fill-rule="evenodd" d="M11.6 2.35h1.05c1.682 0 3.386.668 4.542 1.932l.976.976C19.432 6.414 20.1 8.118 20.1 9.8v.75h-4.65A3.866 3.866 0 0 1 11.6 6.7V2.35Zm1.5 1.52V6.7a2.366 2.366 0 0 0 2.35 2.35h3.093c-.16-1.04-.648-2.014-1.398-2.695l-.013-.012-1.025-1.025-.012-.013c-.746-.821-1.843-1.329-2.995-1.434Z" clip-rule="evenodd"/>
  <path fill="#fff" fill-rule="evenodd" d="M9.95 12.55a.75.75 0 0 1 .75.75v4.1a.75.75 0 1 1-1.5 0v-4.1a.75.75 0 0 1 .75-.75Z" clip-rule="evenodd"/>
  <path fill="#fff" fill-rule="evenodd" d="m10 13.71 1.42 1.42a.75.75 0 1 0 1.06-1.06l-1.786-1.786-.109-.055a1.404 1.404 0 0 0-.623-.154c-.219 0-.51.063-.742.295l-1.7 1.7a.75.75 0 0 0 1.06 1.06L10 13.71Z" clip-rule="evenodd"/>
</svg>
