<svg xmlns="http://www.w3.org/2000/svg" fill="none" viewBox="0 0 24 24">
  <path fill="#000" fill-rule="evenodd" d="M5.25 5c0-.13.04-.18.055-.195.016-.015.065-.055.195-.055h8c.13 0 .18.04.195.055.015.016.055.065.055.195v4c0 .13-.04.18-.055.195-.016.015-.065.055-.195.055h-1.626a.746.746 0 0 0-.748 0H5.25V5Zm5.5 5.75h-5.5V20a.75.75 0 0 1-1.5 0V5c0-.47.16-.92.495-1.255.334-.335.785-.495 1.255-.495h8c.47 0 .92.16 1.255.495.335.334.495.785.495 1.255v1.55h3.25c.47 0 .92.16 1.255.495.335.334.495.785.495 1.255v3.6c0 .47-.16.92-.495 1.255-.334.335-.785.495-1.255.495h-6c-.47 0-.92-.16-1.255-.495-.335-.334-.495-.784-.495-1.255v-1.15Zm1.5 0v1.15c0 .13.04.18.055.195.016.015.065.055.195.055h6c.13 0 .18-.04.195-.055.015-.016.055-.065.055-.195V8.3c0-.13-.04-.18-.055-.195-.016-.015-.065-.055-.195-.055h-3.25V9c0 .47-.16.92-.495 1.255-.334.335-.785.495-1.255.495h-1.25Z" clip-rule="evenodd"/>
</svg>
