<svg xmlns="http://www.w3.org/2000/svg" fill="none" viewBox="0 0 24 24">
  <path fill="#000" d="M19 6v6c0 1.1-.9 2-2 2H5V6c0-1.1.9-2 2-2h10c1.1 0 2 .8 2 2Z"/>
  <path fill="#000" fill-rule="evenodd" d="M7 4.75c-.686 0-1.25.564-1.25 1.25v7.25H17c.686 0 1.25-.564 1.25-1.25V6c0-.761-.54-1.25-1.25-1.25H7ZM4.25 6A2.756 2.756 0 0 1 7 3.25h10c1.49 0 2.75 1.111 2.75 2.75v6A2.756 2.756 0 0 1 17 14.75H4.25V6Z" clip-rule="evenodd"/>
  <path fill="#000" fill-rule="evenodd" d="M5 13.25a.75.75 0 0 1 .75.75v6a.75.75 0 0 1-1.5 0v-6a.75.75 0 0 1 .75-.75Z" clip-rule="evenodd"/>
</svg>
