<svg xmlns="http://www.w3.org/2000/svg" fill="none" viewBox="0 0 24 24">
  <path fill="#000" d="m16.713 10.62-9.8 4.6V4.32c0-.2.2-.3.3-.2l9.5 5.4c.5.2.5.9 0 1.1Z"/>
  <path fill="#000" fill-rule="evenodd" d="M7.663 5.238v8.8l8.48-3.98-8.48-4.82Zm-.024-1.739c-.341-.253-.753-.183-1-.035a.992.992 0 0 0-.476.855V16.4l10.852-5.093c1.086-.456 1.097-1.982.031-2.46L7.64 3.5Z" clip-rule="evenodd"/>
  <path fill="#000" fill-rule="evenodd" d="M7.013 14.47a.75.75 0 0 1 .75.75v4.7a.75.75 0 0 1-1.5 0v-4.7a.75.75 0 0 1 .75-.75Z" clip-rule="evenodd"/>
</svg>
