<svg xmlns="http://www.w3.org/2000/svg" viewBox="0 0 24 24" fill="currentColor">
  <path d="M5.25 5c0-.12956.03991-.17925.05533-.19467C5.32075 4.78991 5.37044 4.75 5.5 4.75h8c.1296 0 .1793.03991.1947.05533.0154.01542.0553.06511.0553.19467v4c0 .12956-.0399.17925-.0553.19467-.0154.01542-.0651.05533-.1947.05533h-1.6257c-.1101-.06358-.238-.09996-.3743-.09996-.1363 0-.2642.03638-.3743.09996H5.25V5Zm5.5 5.75h-5.5V20c0 .4142-.33579.75-.75.75s-.75-.3358-.75-.75V5c0-.47044.16009-.92075.49467-1.25533C4.57925 3.41009 5.02956 3.25 5.5 3.25h8c.4704 0 .9207.16009 1.2553.49467.3346.33458.4947.78489.4947 1.25533v1.55005h3.25c.4704 0 .9207.16008 1.2553.49467.3346.33458.4947.78489.4947 1.25533V11.9c0 .4705-.1601.9208-.4947 1.2554-.3346.3346-.7849.4946-1.2553.4946h-6c-.4704 0-.9207-.16-1.2553-.4946-.3346-.3346-.4947-.7849-.4947-1.2554v-1.15Zm1.5 0v1.15c0 .1296.0399.1793.0553.1947.0154.0154.0651.0553.1947.0553h6c.1296 0 .1793-.0399.1947-.0553.0154-.0154.0553-.0651.0553-.1947V8.30005c0-.12957-.0399-.17926-.0553-.19467-.0154-.01542-.0651-.05533-.1947-.05533h-3.25V9c0 .47044-.1601.92075-.4947 1.2553-.3346.3346-.7849.4947-1.2553.4947h-1.25Z"/>
</svg>
