<svg width="24" height="24" viewBox="0 0 24 24" fill="none" xmlns="http://www.w3.org/2000/svg">
<path d="M16.7 5.4499L15.4 10.5499L14 16.0499H5.8L8.7 5.0499C8.7 4.8499 9 4.6499 9.3 4.6499H16.1C16.5 4.6499 16.8 5.0499 16.7 5.4499Z" fill="black"/>
<path fill-rule="evenodd" clip-rule="evenodd" d="M9.30232 5.3999H9.3C9.30113 5.3999 9.30192 5.39982 9.30232 5.3999C9.30235 5.39986 9.30227 5.39995 9.30232 5.3999ZM9.38335 5.3999H15.9388L13.417 15.2999H6.77335L9.38335 5.3999ZM8.47147 4.15086C8.70047 3.9982 8.99407 3.8999 9.3 3.8999H16.1C17.0192 3.8999 17.6382 4.78927 17.4276 5.6318L17.4268 5.63516L14.583 16.7999H4.82664L7.95832 4.92112C8.0103 4.52446 8.29375 4.26935 8.47147 4.15086Z" fill="black"/>
<path fill-rule="evenodd" clip-rule="evenodd" d="M5.99734 15.3264C6.39696 15.4353 6.63256 15.8477 6.52357 16.2473L5.62357 19.5473C5.51459 19.9469 5.10228 20.1825 4.70266 20.0735C4.30304 19.9645 4.06744 19.5522 4.17643 19.1526L5.07643 15.8526C5.18541 15.453 5.59772 15.2174 5.99734 15.3264Z" fill="black"/>
<path fill-rule="evenodd" clip-rule="evenodd" d="M14.0973 15.3264C14.497 15.4353 14.7326 15.8477 14.6236 16.2473L13.7236 19.5473C13.6146 19.9469 13.2023 20.1825 12.8027 20.0735C12.403 19.9645 12.1674 19.5522 12.2764 19.1526L13.1764 15.8526C13.2854 15.453 13.6977 15.2174 14.0973 15.3264Z" fill="black"/>
<path fill-rule="evenodd" clip-rule="evenodd" d="M15.0027 9.86133C15.3829 9.69712 15.8243 9.87227 15.9885 10.2525L19.7885 19.0525C19.9528 19.4328 19.7776 19.8742 19.3973 20.0384C19.017 20.2026 18.5757 20.0275 18.4114 19.6472L14.6114 10.8472C14.4472 10.4669 14.6224 10.0255 15.0027 9.86133Z" fill="black"/>
<path fill-rule="evenodd" clip-rule="evenodd" d="M7.42511 15.3521C7.81049 15.2003 8.24599 15.3896 8.39781 15.775L9.69781 19.075C9.84963 19.4604 9.66028 19.8959 9.27489 20.0477C8.88951 20.1995 8.45401 20.0102 8.30219 19.6248L7.00219 16.3248C6.85037 15.9394 7.03972 15.5039 7.42511 15.3521Z" fill="black"/>
</svg>
