<svg xmlns="http://www.w3.org/2000/svg" fill="none" viewBox="0 0 24 24">
  <path fill="#000" fill-rule="evenodd" d="M15.25 6.95A.75.75 0 0 1 16 6.2h1a4.762 4.762 0 0 1 4.75 4.75v6a.75.75 0 0 1-1.5 0v-6A3.262 3.262 0 0 0 17 7.7h-1a.75.75 0 0 1-.75-.75ZM3 6.2a.75.75 0 0 1 .75.75v10A3.262 3.262 0 0 0 7 20.2a.75.75 0 1 1 0 1.5 4.762 4.762 0 0 1-4.75-4.75v-10A.75.75 0 0 1 3 6.2Z" clip-rule="evenodd"/>
  <path fill="#000" d="M16 6.95H3v-2.8c0-.7.6-1.2 1.2-1.2h8.1c1 0 2 .6 2.4 1.5l1.3 2.5Z"/>
  <path fill="#000" fill-rule="evenodd" d="M3.89 3.833a.427.427 0 0 0-.14.317V6.2h11.015l-.741-1.424-.01-.021C13.747 4.15 13.033 3.7 12.3 3.7H4.2a.47.47 0 0 0-.31.133Zm-1.64.317c0-1.154.977-1.95 1.95-1.95h8.1c1.26 0 2.538.74 3.075 1.923l1.86 3.577H2.25V4.15Zm15.38 12.07a.75.75 0 0 1 0 1.06l-4.3 4.3a.75.75 0 1 1-1.06-1.06l4.3-4.3a.75.75 0 0 1 1.06 0Z" clip-rule="evenodd"/>
  <path fill="#000" fill-rule="evenodd" d="M12.27 16.22a.75.75 0 0 1 1.06 0l4.3 4.3a.75.75 0 1 1-1.06 1.06l-4.3-4.3a.75.75 0 0 1 0-1.06Z" clip-rule="evenodd"/>
</svg>
