<svg xmlns="http://www.w3.org/2000/svg" viewBox="0 0 24 24" fill="currentColor">
  <path d="M3.75 4.20001c0-.28578.16423-.45001.45001-.45001H12.3c.7315 0 1.446.45006 1.7147 1.0546l.0093.02101.7407 1.42439H3.75V4.20001ZM2.25 6.25V4.20001C2.25 3.0858 3.0858 2.25 4.20001 2.25H12.3c1.2605 0 2.5379.74054 3.0753 1.9229l1.08 2.0771H17c2.6142 0 4.75 2.13579 4.75 4.75v6c0 .4142-.3358.75-.75.75s-.75-.3358-.75-.75v-6c0-1.78579-1.4642-3.25-3.25-3.25H3.75V17c0 1.7858 1.46421 3.25 3.25 3.25.41421 0 .75.3358.75.75s-.33579.75-.75.75c-2.61421 0-4.75-2.1358-4.75-4.75V6.25Zm12.5354 8.8042c-.9944-.5893-2.3277-.451-3.2551.4763l-.0098.0098-.0102.0095c-.892.8282-1.0602 2.155-.4419 3.2214l3.717-3.717Zm-2.6686 4.79c1.0185.5954 2.3994.444 3.2336-.4543l.0189-.0204.0203-.0189c.892-.8282 1.0602-2.1549.442-3.2213l-3.7148 3.7149Zm-1.6374-5.3841c1.6789-1.6686 4.3555-1.6977 5.9607.0196 1.6653 1.6756 1.6975 4.345-.0095 5.9512-1.5968 1.6958-4.3787 1.6924-5.9707-.0101-1.66865-1.6789-1.69771-4.3555.0195-5.9607Z"/>
</svg>
