<svg xmlns="http://www.w3.org/2000/svg" fill="none" viewBox="0 0 24 24">
  <path fill="#000" fill-rule="evenodd" d="M12.6 16.15a.907.907 0 0 0-.67.28c-.297.297-.306.891-.03 1.208l.393.294 1.757 1.757 1.72-1.72.16-.16c.244-.334.32-.56.32-.71a.907.907 0 0 0-.28-.669c-.308-.307-.933-.307-1.24 0l-.73.73-.691-.69c-.334-.244-.56-.32-.709-.32Zm1.38-1.038c-.393-.255-.86-.462-1.38-.462-.72 0-1.305.294-1.73.72-.893.893-.893 2.467 0 3.36l.037.038.4.3 1.721 1.72c.242.315.601.487.984.487.396 0 .753-.18 1.018-.445l2.038-2.037.032-.043c.332-.443.65-1.005.65-1.65 0-.72-.294-1.305-.72-1.73-.796-.797-2.135-.883-3.05-.258Zm-.03 4.675v-.001Z" clip-rule="evenodd"/>
  <path fill="#000" fill-rule="evenodd" d="M2.25 6.25H17A4.762 4.762 0 0 1 21.75 11v6a.75.75 0 0 1-1.5 0v-6A3.262 3.262 0 0 0 17 7.75H3.75V17A3.262 3.262 0 0 0 7 20.25a.75.75 0 0 1 0 1.5A4.762 4.762 0 0 1 2.25 17V6.25Z" clip-rule="evenodd"/>
  <path fill="#000" fill-rule="evenodd" d="M4.2 3.75c-.286 0-.45.164-.45.45v2.05h11.015l-.741-1.424-.01-.021C13.747 4.2 13.033 3.75 12.3 3.75H4.2Zm-1.95.45c0-1.114.836-1.95 1.95-1.95h8.1c1.26 0 2.538.74 3.075 1.923l1.86 3.577H2.25V4.2Z" clip-rule="evenodd"/>
</svg>
