<svg xmlns="http://www.w3.org/2000/svg" fill="none" viewBox="0 0 24 24">
  <path fill="#000" fill-rule="evenodd" d="M3.75 4.15c0-.286.164-.45.45-.45h8.1c.731 0 1.446.45 1.715 1.054l.009.021.74 1.425H3.75V4.15ZM2.25 6.2V4.15c0-1.115.836-1.95 1.95-1.95h8.1c1.26 0 2.538.74 3.075 1.923l1.08 2.077H17a4.762 4.762 0 0 1 4.75 4.75v6a.75.75 0 0 1-1.5 0v-6A3.262 3.262 0 0 0 17 7.7H3.75v9.25A3.262 3.262 0 0 0 7 20.2a.75.75 0 0 1 0 1.5 4.762 4.762 0 0 1-4.75-4.75V6.2Zm15.38 10.02a.75.75 0 0 1 0 1.06l-1.62 1.62 1.62 1.62a.75.75 0 1 1-1.06 1.06l-1.62-1.62-1.62 1.62a.75.75 0 1 1-1.06-1.06l1.62-1.62-1.62-1.62a.75.75 0 1 1 1.06-1.06l1.62 1.62 1.62-1.62a.75.75 0 0 1 1.06 0Z" clip-rule="evenodd"/>
</svg>
