<svg xmlns="http://www.w3.org/2000/svg" fill="none" viewBox="0 0 24 24">
  <path fill="#000" fill-rule="evenodd" d="M15.25 7a.75.75 0 0 1 .75-.75h1A4.762 4.762 0 0 1 21.75 11v6a.75.75 0 0 1-1.5 0v-6A3.262 3.262 0 0 0 17 7.75h-1a.75.75 0 0 1-.75-.75ZM3 6.25a.75.75 0 0 1 .75.75v10A3.262 3.262 0 0 0 7 20.25a.75.75 0 0 1 0 1.5A4.762 4.762 0 0 1 2.25 17V7A.75.75 0 0 1 3 6.25Z" clip-rule="evenodd"/>
  <path fill="#000" d="M16 7H3V4.2C3 3.5 3.6 3 4.2 3h8.1c1 0 2 .6 2.4 1.5L16 7Z"/>
  <path fill="#000" fill-rule="evenodd" d="M3.89 3.883a.427.427 0 0 0-.14.317v2.05h11.015l-.741-1.424-.01-.021C13.747 4.2 13.033 3.75 12.3 3.75H4.2a.47.47 0 0 0-.31.133ZM2.25 4.2c0-1.154.977-1.95 1.95-1.95h8.1c1.26 0 2.538.74 3.075 1.923l1.86 3.577H2.25V4.2ZM14 14.25a.75.75 0 0 1 .75.75v6a.75.75 0 0 1-1.5 0v-6a.75.75 0 0 1 .75-.75Z" clip-rule="evenodd"/>
  <path fill="#000" fill-rule="evenodd" d="M10.25 18a.75.75 0 0 1 .75-.75h6a.75.75 0 0 1 0 1.5h-6a.75.75 0 0 1-.75-.75Z" clip-rule="evenodd"/>
</svg>
