<svg width="24" height="24" viewBox="0 0 24 24" fill="none" xmlns="http://www.w3.org/2000/svg">
<path fill-rule="evenodd" clip-rule="evenodd" d="M15.25 7C15.25 6.58579 15.5858 6.25 16 6.25H17C19.6142 6.25 21.75 8.38579 21.75 11V17C21.75 17.4142 21.4142 17.75 21 17.75C20.5858 17.75 20.25 17.4142 20.25 17V11C20.25 9.21421 18.7858 7.75 17 7.75H16C15.5858 7.75 15.25 7.41421 15.25 7Z" fill="black"/>
<path fill-rule="evenodd" clip-rule="evenodd" d="M3 6.25C3.41421 6.25 3.75 6.58579 3.75 7V17C3.75 18.7858 5.21421 20.25 7 20.25C7.41421 20.25 7.75 20.5858 7.75 21C7.75 21.4142 7.41421 21.75 7 21.75C4.38579 21.75 2.25 19.6142 2.25 17V7C2.25 6.58579 2.58579 6.25 3 6.25Z" fill="black"/>
<path d="M16 7H3V4.2C3 3.5 3.6 3 4.2 3H12.3C13.3 3 14.3 3.6 14.7 4.5L16 7Z" fill="black"/>
<path fill-rule="evenodd" clip-rule="evenodd" d="M3.88997 3.88276C3.80109 3.9667 3.75 4.07472 3.75 4.2V6.25H14.7647L14.024 4.82561L14.0146 4.8046C13.746 4.20006 13.0315 3.75 12.3 3.75H4.2C4.10383 3.75 3.98498 3.79303 3.88997 3.88276ZM2.25 4.2C2.25 3.04597 3.22675 2.25 4.2 2.25H12.3C13.5605 2.25 14.8379 2.99053 15.3752 4.17289L17.2353 7.75H2.25V4.2Z" fill="black"/>
<path fill-rule="evenodd" clip-rule="evenodd" d="M14 14.25C14.4142 14.25 14.75 14.5858 14.75 15V21C14.75 21.4142 14.4142 21.75 14 21.75C13.5858 21.75 13.25 21.4142 13.25 21V15C13.25 14.5858 13.5858 14.25 14 14.25Z" fill="black"/>
<path fill-rule="evenodd" clip-rule="evenodd" d="M10.25 18C10.25 17.5858 10.5858 17.25 11 17.25H17C17.4142 17.25 17.75 17.5858 17.75 18C17.75 18.4142 17.4142 18.75 17 18.75H11C10.5858 18.75 10.25 18.4142 10.25 18Z" fill="black"/>
</svg>
