<svg xmlns="http://www.w3.org/2000/svg" viewBox="0 0 24 24" fill="currentColor">
  <path d="M3.75 4.2c0-.28578.16422-.45.45001-.45H12.3c.7315 0 1.446.45007 1.7147 1.0546l.0093.02101.7407 1.42439H3.75V4.2Zm-1.5 2.05V4.2c0-1.11422.83581-1.95 1.95001-1.95H12.3c1.2605 0 2.5379.74053 3.0753 1.9229l1.08 2.0771H17c2.6142 0 4.75 2.13579 4.75 4.75v6c0 2.6142-2.1358 4.75-4.75 4.75H7c-2.72646 0-4.75-2.1481-4.75-4.75V6.25Zm1.5 1.5V17c0 1.7981 1.37646 3.25 3.25 3.25h10c1.7858 0 3.25-1.4642 3.25-3.25v-6c0-1.78579-1.4642-3.25-3.25-3.25H3.75Z"/>
</svg>
