<svg width="24" height="24" viewBox="0 0 24 24" fill="none" xmlns="http://www.w3.org/2000/svg">
<path d="M10.05 4.25001V6.55001H4.14999V4.25001C4.14999 3.55001 4.74999 2.95001 5.44999 2.95001H8.74999C9.44999 3.05001 10.05 3.55001 10.05 4.25001Z" fill="black"/>
<path fill-rule="evenodd" clip-rule="evenodd" d="M5.44999 3.70001C5.16421 3.70001 4.89999 3.96423 4.89999 4.25001V5.80001H9.29999V4.25001C9.29999 4.13014 9.25319 4.02038 9.14669 3.91948C9.0415 3.81982 8.88168 3.73588 8.68969 3.70001H5.44999ZM3.39999 4.25001C3.39999 3.1358 4.33578 2.20001 5.44999 2.20001H8.80329L8.85606 2.20755C9.79013 2.34099 10.8 3.05462 10.8 4.25001V7.30001H3.39999V4.25001Z" fill="black"/>
<path fill-rule="evenodd" clip-rule="evenodd" d="M3.29999 5.90002H10.8V19.75C10.8 20.8642 9.8642 21.8 8.74999 21.8H5.34999C4.23577 21.8 3.29999 20.8642 3.29999 19.75V5.90002ZM4.79999 7.40002V19.75C4.79999 20.0358 5.0642 20.3 5.34999 20.3H8.74999C9.03577 20.3 9.29999 20.0358 9.29999 19.75V7.40002H4.79999Z" fill="black"/>
<path d="M19.95 12.05V19.75C19.95 20.45 19.35 21.05 18.65 21.05H15.35C14.65 21.05 14.05 20.45 14.05 19.75V12.05H19.95Z" fill="black"/>
<path fill-rule="evenodd" clip-rule="evenodd" d="M13.3 11.3H20.7V19.75C20.7 20.8642 19.7642 21.8 18.65 21.8H15.35C14.2358 21.8 13.3 20.8642 13.3 19.75V11.3ZM14.8 12.8V19.75C14.8 20.0358 15.0642 20.3 15.35 20.3H18.65C18.9358 20.3 19.2 20.0358 19.2 19.75V12.8H14.8Z" fill="black"/>
<path fill-rule="evenodd" clip-rule="evenodd" d="M15.35 3.70001C15.0642 3.70001 14.8 3.96423 14.8 4.25001V11.2H19.2V4.25001C19.2 4.0896 19.1475 3.98323 19.0697 3.90534C18.9893 3.82501 18.8423 3.73756 18.5985 3.70001H15.35ZM13.3 4.25001C13.3 3.1358 14.2358 2.20001 15.35 2.20001H18.6967L18.743 2.2058C19.2743 2.27221 19.7651 2.47948 20.1303 2.84468C20.5024 3.2168 20.7 3.71043 20.7 4.25001V12.7H13.3V4.25001Z" fill="black"/>
<path d="M17.05 8.65002C16.75 8.65002 16.55 8.55002 16.35 8.35002C16.15 8.15002 16.05 7.95002 16.05 7.65002C16.05 7.35002 16.15 7.15002 16.35 6.95002C16.75 6.55002 17.35 6.55002 17.75 6.95002C17.95 7.15002 18.05 7.35002 18.05 7.65002C18.05 7.95002 17.95 8.15002 17.75 8.35002C17.55 8.55002 17.25 8.65002 17.05 8.65002Z" fill="black"/>
<path d="M7.04999 17.15C6.74999 17.15 6.54999 17.05 6.34999 16.85C6.14999 16.65 6.04999 16.45 6.04999 16.15C6.04999 15.85 6.14999 15.65 6.34999 15.45C6.74999 15.05 7.34999 15.05 7.74999 15.45C7.94999 15.65 8.04999 15.85 8.04999 16.15C8.04999 16.45 7.94999 16.65 7.74999 16.85C7.54999 17.05 7.34999 17.15 7.04999 17.15Z" fill="black"/>
</svg>
