<svg xmlns="http://www.w3.org/2000/svg" viewBox="0 0 24 24" fill="currentColor">
  <path d="M4.20001 3.7124c-.28579 0-.45001.16423-.45001.45v2.05h11.0147l-.7407-1.42438-.0093-.02101C13.746 4.16247 13.0315 3.7124 12.3 3.7124H4.20001Zm-1.95001.45v12.8c0 2.6142 2.13579 4.75 4.75 4.75.41421 0 .75-.3358.75-.75s-.33579-.75-.75-.75c-1.78579 0-3.25-1.4642-3.25-3.25v-9.25H17c1.7858 0 3.25 1.46422 3.25 3.25v6c0 .4142.3358.75.75.75s.75-.3358.75-.75v-6c0-2.61421-2.1358-4.75-4.75-4.75h-.5447l-1.08-2.0771c-.5374-1.18237-1.8148-1.9229-3.0753-1.9229H4.20001c-1.1142 0-1.95001.83578-1.95001 1.95Zm15.2737 13.3368c.2965-.2892.3024-.7641.0131-1.0605-.2892-.2965-.7641-.3024-1.0606-.0131l-3.7196 3.6289L11.6 18.5124c-.2485-.3314-.7186-.3985-1.05-.15-.3314.2485-.3985.7186-.15 1.05l1.532 2.0426.0377.0377c.2224.2225.5065.2947.7303.2947.2224 0 .5041-.0712.7259-.2903l4.0978-3.9979Z"/>
</svg>
