<svg width="24" height="24" viewBox="0 0 24 24" fill="none" xmlns="http://www.w3.org/2000/svg">
<path fill-rule="evenodd" clip-rule="evenodd" d="M5.3 3.70001C5.01421 3.70001 4.75 3.96423 4.75 4.25001V19.75C4.75 20.0358 5.01421 20.3 5.3 20.3H8.7C8.95 20.3 9.25 20.0725 9.25 19.65V4.25001C9.25 3.96423 8.98579 3.70001 8.7 3.70001H5.3ZM3.25 4.25001C3.25 3.1358 4.18579 2.20001 5.3 2.20001H8.7C9.81421 2.20001 10.75 3.1358 10.75 4.25001V19.65C10.75 20.8275 9.85 21.8 8.7 21.8H5.3C4.18579 21.8 3.25 20.8642 3.25 19.75V4.25001Z" fill="black"/>
<path fill-rule="evenodd" clip-rule="evenodd" d="M15.3 3.70001C15.0142 3.70001 14.75 3.96423 14.75 4.25001V19.75C14.75 20.0358 15.0142 20.3 15.3 20.3H18.7C18.8172 20.3 18.9207 20.2559 19.0175 20.1483C19.1172 20.0376 19.2112 19.8531 19.25 19.5987V4.25001C19.25 3.96423 18.9858 3.70001 18.7 3.70001H15.3ZM13.25 4.25001C13.25 3.1358 14.1858 2.20001 15.3 2.20001H18.7C19.8142 2.20001 20.75 3.1358 20.75 4.25001V19.6967L20.7442 19.743C20.6175 20.7569 19.921 21.8 18.7 21.8H15.3C14.1858 21.8 13.25 20.8642 13.25 19.75V4.25001Z" fill="black"/>
<path fill-rule="evenodd" clip-rule="evenodd" d="M10 7.40002H4.10001V5.90002H10V7.40002Z" fill="black"/>
<path fill-rule="evenodd" clip-rule="evenodd" d="M14 11.3H19.9V12.8H14V11.3Z" fill="black"/>
<path d="M17 8.65002C16.7 8.65002 16.5 8.55002 16.3 8.35002C16.1 8.15002 16 7.95002 16 7.65002C16 7.35002 16.1 7.15002 16.3 6.95002C16.7 6.55002 17.3 6.55002 17.7 6.95002C17.9 7.15002 18 7.35002 18 7.65002C18 7.95002 17.9 8.15002 17.7 8.35002C17.5 8.55002 17.2 8.65002 17 8.65002Z" fill="black"/>
<path d="M7 17.15C6.7 17.15 6.5 17.05 6.3 16.85C6.1 16.65 6 16.45 6 16.15C6 15.85 6.1 15.65 6.3 15.45C6.7 15.05 7.3 15.05 7.7 15.45C7.9 15.65 8 15.85 8 16.15C8 16.45 7.9 16.65 7.7 16.85C7.5 17.05 7.3 17.15 7 17.15Z" fill="black"/>
</svg>
