<svg xmlns="http://www.w3.org/2000/svg" viewBox="0 0 24 24" fill="currentColor">
  <path d="M3.75 4.2c0-.28578.16422-.45.45001-.45H12.3c.7315 0 1.446.45007 1.7147 1.0546l.0093.02101.7407 1.42439H3.75V4.2Zm-1.5 2.05V4.2c0-1.11422.83581-1.95 1.95001-1.95H12.3c1.2605 0 2.5379.74053 3.0753 1.9229l1.08 2.0771H17c2.6142 0 4.75 2.13579 4.75 4.75v6c0 .4142-.3358.75-.75.75s-.75-.3358-.75-.75v-6c0-1.78579-1.4642-3.25-3.25-3.25H3.75V17c0 1.7858 1.46421 3.25 3.25 3.25.41421 0 .75.3358.75.75s-.33579.75-.75.75c-2.61421 0-4.75-2.1358-4.75-4.75V6.25Zm11.75 8c.4142 0 .75.3358.75.75v2.25H17c.4142 0 .75.3358.75.75s-.3358.75-.75.75h-2.25V21c0 .4142-.3358.75-.75.75s-.75-.3358-.75-.75v-2.25H11c-.4142 0-.75-.3358-.75-.75s.3358-.75.75-.75h2.25V15c0-.4142.3358-.75.75-.75Z"/>
</svg>
