<svg xmlns="http://www.w3.org/2000/svg" viewBox="0 0 24 24" fill="currentColor">
  <path d="M3.75 4.14971c0-.28578.16422-.45.45001-.45H12.3c.7315 0 1.446.45007 1.7147 1.0546l.0093.02101.7407 1.42439H3.75v-2.05Zm-1.5 2.05v-2.05c0-1.11423.83581-1.95 1.95001-1.95H12.3c1.2605 0 2.5379.74053 3.0753 1.9229l1.08 2.0771H17c2.6142 0 4.75 2.13578 4.75 4.74999v6c0 .4142-.3358.75-.75.75s-.75-.3358-.75-.75v-6c0-1.78578-1.4642-3.24999-3.25-3.24999H3.75v9.24999c0 1.7858 1.46421 3.25 3.25 3.25.41421 0 .75.3358.75.75s-.33579.75-.75.75c-2.61421 0-4.75-2.1358-4.75-4.75V6.19971ZM17.6304 16.2197c.2929.2929.2929.7677 0 1.0606L16.0107 18.9l1.6197 1.6197c.2929.2929.2929.7677 0 1.0606-.2929.2929-.7678.2929-1.0607 0L14.95 19.9607l-1.6197 1.6196c-.2929.2929-.7678.2929-1.0606 0-.2929-.2929-.2929-.7677 0-1.0606L13.8893 18.9l-1.6196-1.6197c-.2929-.2929-.2929-.7677 0-1.0606.2928-.2929.7677-.2929 1.0606 0l1.6197 1.6196 1.6197-1.6196c.2929-.2929.7678-.2929 1.0607 0Z"/>
</svg>
