<svg width="24" height="24" fill="none" xmlns="http://www.w3.org/2000/svg"><path fill="#fff" d="M0 0h24v24H0z"/><path d="M21 8v8c0 1.7-1.3 3-3 3H6c-1.7 0-3-1.3-3-3V8c0-1.7 1.3-3 3-3h12c1.6 0 3 1.3 3 3z" stroke="#000" stroke-width="1.5" stroke-miterlimit="10" stroke-linecap="round"/><path d="M7 10v4c0 .6-.4 1-1 1H3V9h3c.5 0 1 .4 1 1zM21 9v6h-3c-.6 0-1-.4-1-1v-4c0-.6.4-1 1-1h3zM12 14c1.1046 0 2-.8954 2-2s-.8954-2-2-2-2 .8954-2 2 .8954 2 2 2zM12 5v5M12 14v5" stroke="#000" stroke-width="1.5" stroke-miterlimit="10" stroke-linecap="round"/></svg>