<svg xmlns="http://www.w3.org/2000/svg" viewBox="0 0 24 24" fill="currentColor">
  <path d="M3.75 8c0-1.28579.96421-2.25 2.25-2.25h5.25v3.60352c-1.1543.32646-2 1.38768-2 2.64648s.8457 2.32 2 2.6465V18.25H6c-1.28579 0-2.25-.9642-2.25-2.25v-.25H6c.47044 0 .92075-.1601 1.25533-.4947.33458-.3346.49467-.7849.49467-1.2553v-4c0-1.06211-.88536-1.75-1.75-1.75H3.75V8Zm9 10.25v-3.6035c1.1543-.3265 2-1.3877 2-2.6465 0-1.2588-.8457-2.32002-2-2.64648V5.75H18c1.2021 0 2.25.98037 2.25 2.25v.25H18c-.4704 0-.9207.16009-1.2553.49467-.3346.33458-.4947.78489-.4947 1.25533v4c0 .4704.1601.9207.4947 1.2553.3346.3346.7849.4947 1.2553.4947h2.25V16c0 1.2858-.9642 2.25-2.25 2.25h-5.25Zm-.75 1.5h6c2.1142 0 3.75-1.6358 3.75-3.75V8c0-2.13037-1.7521-3.75-3.75-3.75H6C3.88579 4.25 2.25 5.88579 2.25 8v8c0 2.1142 1.63579 3.75 3.75 3.75h6Zm0-6.5c.6904 0 1.25-.5596 1.25-1.25s-.5596-1.25-1.25-1.25-1.25.5596-1.25 1.25.5596 1.25 1.25 1.25Zm6-3.5h2.25v4.5H18c-.1296 0-.1793-.0399-.1947-.0553-.0154-.0154-.0553-.0651-.0553-.1947v-4c0-.12956.0399-.17925.0553-.19467.0154-.01542.0651-.05533.1947-.05533Zm-14.25 0v4.5H6c.12956 0 .17925-.0399.19467-.0553.01542-.0154.05533-.0651.05533-.1947v-4c0-.07937-.02914-.13461-.07424-.17671C6.12315 9.77419 6.05465 9.75 6 9.75H3.75Z"/>
</svg>
