<svg width="24" height="24" viewBox="0 0 24 24" fill="none" xmlns="http://www.w3.org/2000/svg">
<path fill-rule="evenodd" clip-rule="evenodd" d="M6.04999 5.8C4.7642 5.8 3.79999 6.76422 3.79999 8.05V8.3H6.04999C6.54391 8.3 6.97506 8.53941 7.26782 8.83217C7.56058 9.12493 7.79999 9.55608 7.79999 10.05V14.05C7.79999 14.5439 7.56058 14.9751 7.26782 15.2678C6.97506 15.5606 6.54391 15.8 6.04999 15.8H3.79999V16.05C3.79999 17.3358 4.7642 18.3 6.04999 18.3H11.3V14.6957C10.1481 14.3677 9.29999 13.3044 9.29999 12.05C9.29999 10.7956 10.1481 9.73227 11.3 9.40431V5.8H6.04999ZM2.29999 8.05C2.29999 5.93579 3.93577 4.3 6.04999 4.3H12.8V10.8H12.05C11.3642 10.8 10.8 11.3642 10.8 12.05C10.8 12.7358 11.3642 13.3 12.05 13.3H12.8V19.8H6.04999C3.93577 19.8 2.29999 18.1642 2.29999 16.05V14.3H6.04999C6.05606 14.3 6.12492 14.2894 6.20716 14.2072C6.2894 14.1249 6.29999 14.0561 6.29999 14.05V10.05C6.29999 10.0439 6.2894 9.97507 6.20716 9.89283C6.12492 9.81059 6.05606 9.8 6.04999 9.8H2.29999V8.05Z" fill="black"/>
<path fill-rule="evenodd" clip-rule="evenodd" d="M11.3 4.3H18.05C20.1642 4.3 21.8 5.93579 21.8 8.05V9.8H18.05C18.0439 9.8 17.9751 9.81059 17.8928 9.89283C17.8106 9.97507 17.8 10.0439 17.8 10.05V14.05C17.8 14.0561 17.8106 14.1249 17.8928 14.2072C17.9751 14.2894 18.0439 14.3 18.05 14.3H21.8V16.05C21.8 18.0642 20.0642 19.8 18.05 19.8H11.3V13.3H12.05C12.7358 13.3 13.3 12.7358 13.3 12.05C13.3 11.3642 12.7358 10.8 12.05 10.8H11.3V4.3ZM12.8 5.8V9.40431C13.9519 9.73227 14.8 10.7956 14.8 12.05C14.8 13.3044 13.9519 14.3677 12.8 14.6957V18.3H18.05C19.2358 18.3 20.3 17.2358 20.3 16.05V15.8H18.05C17.5561 15.8 17.1249 15.5606 16.8322 15.2678C16.5394 14.9751 16.3 14.5439 16.3 14.05V10.05C16.3 9.55608 16.5394 9.12493 16.8322 8.83217C17.1249 8.53941 17.5561 8.3 18.05 8.3H20.3V8.05C20.3 6.76422 19.3358 5.8 18.05 5.8H12.8Z" fill="black"/>
<path d="M21.05 15.05H18.05C17.55 15.05 17.05 14.55 17.05 14.05V10.05C17.05 9.55 17.55 9.05 18.05 9.05H21.05V15.05Z" fill="black"/>
<path fill-rule="evenodd" clip-rule="evenodd" d="M17.8928 9.89283C17.8106 9.97507 17.8 10.0439 17.8 10.05V14.05C17.8 14.0561 17.8106 14.1249 17.8928 14.2072C17.9751 14.2894 18.0439 14.3 18.05 14.3H20.3V9.8H18.05C18.0439 9.8 17.9751 9.81059 17.8928 9.89283ZM16.8322 8.83217C17.1249 8.53941 17.5561 8.3 18.05 8.3H21.8V15.8H18.05C17.5561 15.8 17.1249 15.5606 16.8322 15.2678C16.5394 14.9751 16.3 14.5439 16.3 14.05V10.05C16.3 9.55608 16.5394 9.12493 16.8322 8.83217Z" fill="black"/>
<path d="M6.04999 15.05H3.04999V9.05H6.04999C6.54999 9.05 7.04999 9.55 7.04999 10.05V14.05C7.04999 14.55 6.54999 15.05 6.04999 15.05Z" fill="black"/>
<path fill-rule="evenodd" clip-rule="evenodd" d="M2.29999 8.3H6.04999C6.54391 8.3 6.97506 8.53941 7.26782 8.83217C7.56058 9.12493 7.79999 9.55608 7.79999 10.05V14.05C7.79999 14.5439 7.56058 14.9751 7.26782 15.2678C6.97506 15.5606 6.54391 15.8 6.04999 15.8H2.29999V8.3ZM3.79999 9.8V14.3H6.04999C6.05606 14.3 6.12492 14.2894 6.20716 14.2072C6.2894 14.1249 6.29999 14.0561 6.29999 14.05V10.05C6.29999 10.0439 6.2894 9.97507 6.20716 9.89283C6.12492 9.81059 6.05606 9.8 6.04999 9.8H3.79999Z" fill="black"/>
<path d="M12.05 14.05C13.1546 14.05 14.05 13.1546 14.05 12.05C14.05 10.9454 13.1546 10.05 12.05 10.05C10.9454 10.05 10.05 10.9454 10.05 12.05C10.05 13.1546 10.9454 14.05 12.05 14.05Z" fill="black"/>
<path fill-rule="evenodd" clip-rule="evenodd" d="M12.05 10.8C11.3596 10.8 10.8 11.3596 10.8 12.05C10.8 12.7404 11.3596 13.3 12.05 13.3C12.7403 13.3 13.3 12.7404 13.3 12.05C13.3 11.3596 12.7403 10.8 12.05 10.8ZM9.29999 12.05C9.29999 10.5312 10.5312 9.3 12.05 9.3C13.5688 9.3 14.8 10.5312 14.8 12.05C14.8 13.5688 13.5688 14.8 12.05 14.8C10.5312 14.8 9.29999 13.5688 9.29999 12.05Z" fill="black"/>
</svg>
