<svg xmlns="http://www.w3.org/2000/svg" viewBox="0 0 24 24" fill="currentColor">
  <path d="M5.75 6c0-1.28579.96421-2.25 2.25-2.25h.25V6c0 .47044.16009.92075.49467 1.25533C9.07925 7.58991 9.52956 7.75 10 7.75h4c.4939 0 .9251-.23941 1.2178-.53217.2928-.29276.5322-.72391.5322-1.21783V3.75H16c1.2858 0 2.25.96421 2.25 2.25v5.25h-3.6035c-.3265-1.1543-1.3877-2-2.6465-2-1.2588 0-2.32002.8457-2.64648 2H5.75V6Zm-1.5 6v6c0 2.1142 1.63579 3.75 3.75 3.75h8c2.0142 0 3.75-1.7358 3.75-3.75V6c0-2.11421-1.6358-3.75-3.75-3.75H8C5.88579 2.25 4.25 3.88579 4.25 6v6Zm1.5.75h3.60352c.32646 1.1543 1.38768 2 2.64648 2s2.32-.8457 2.6465-2H18.25V18c0 1.1858-1.0642 2.25-2.25 2.25h-.25V18c0-.4704-.1601-.9207-.4947-1.2553-.3346-.3346-.7849-.4947-1.2553-.4947h-4c-.47044 0-.92075.1601-1.25533.4947C8.41009 17.0793 8.25 17.5296 8.25 18v2.25H8c-1.28579 0-2.25-.9642-2.25-2.25v-5.25Zm5-.75c0 .6904.5596 1.25 1.25 1.25s1.25-.5596 1.25-1.25-.5596-1.25-1.25-1.25-1.25.5596-1.25 1.25Zm3.5 6v2.25h-4.5V18c0-.1296.03991-.1793.05533-.1947.01542-.0154.06511-.0553.19467-.0553h4c.1296 0 .1793.0399.1947.0553.0154.0154.0553.0651.0553.1947Zm0-14.25h-4.5V6c0 .12956.03991.17925.05533.19467.01542.01542.06511.05533.19467.05533h4c.0061 0 .0749-.01059.1572-.09283.0822-.08224.0928-.15109.0928-.15717V3.75Z"/>
</svg>
