<svg width="24" height="24" fill="none" xmlns="http://www.w3.org/2000/svg"><path fill="#fff" d="M0 0h24v24H0z"/><path d="M16 21H8c-1.7 0-3-1.3-3-3V6c0-1.7 1.3-3 3-3h8c1.7 0 3 1.3 3 3v12c0 1.6-1.4 3-3 3z" stroke="#000" stroke-width="1.5" stroke-miterlimit="10" stroke-linecap="round"/><path d="M14 7h-4c-.6 0-1-.4-1-1V3h6v3c0 .5-.5 1-1 1zM15 21H9v-3c0-.6.4-1 1-1h4c.6 0 1 .4 1 1v3zM12 14c1.1046 0 2-.8954 2-2s-.8954-2-2-2-2 .8954-2 2 .8954 2 2 2zM19 12h-5M10 12H5" stroke="#000" stroke-width="1.5" stroke-miterlimit="10" stroke-linecap="round"/></svg>