<svg xmlns="http://www.w3.org/2000/svg" viewBox="0 0 24 24" fill="currentColor">
  <path d="M0 0h24v24H0z"/>
  <path stroke="#000" stroke-linecap="round" stroke-miterlimit="10" stroke-width="1.5" d="M16 21H8c-1.7 0-3-1.3-3-3V6c0-1.7 1.3-3 3-3h8c1.7 0 3 1.3 3 3v12c0 1.6-1.4 3-3 3Z"/>
  <path stroke="#000" stroke-linecap="round" stroke-miterlimit="10" stroke-width="1.5" d="M14 7h-4c-.6 0-1-.4-1-1V3h6v3c0 .5-.5 1-1 1Z"/>
  <path stroke="#000" stroke-linecap="round" stroke-miterlimit="10" stroke-width="1.5" d="M15 21H9v-3c0-.6.4-1 1-1h4c.6 0 1 .4 1 1v3Z"/>
  <path stroke="#000" stroke-linecap="round" stroke-miterlimit="10" stroke-width="1.5" d="M12 14c1.1046 0 2-.8954 2-2s-.8954-2-2-2-2 .8954-2 2 .8954 2 2 2Z"/>
  <path stroke="#000" stroke-linecap="round" stroke-miterlimit="10" stroke-width="1.5" d="M19 12h-5"/>
  <path stroke="#000" stroke-linecap="round" stroke-miterlimit="10" stroke-width="1.5" d="M10 12H5"/>
</svg>
