<svg xmlns="http://www.w3.org/2000/svg" fill="none" viewBox="0 0 24 24">
  <path fill="#000" d="M12 20.4c-.8 0-1.4-.6-1.4-1.3V16c0-.7.6-1.3 1.3-1.3h.1c.7 0 1.3.6 1.3 1.3v3.1c0 .8-.5 1.3-1.3 1.3Z"/>
  <path fill="#000" fill-rule="evenodd" d="M11.9 15.45a.575.575 0 0 0-.55.55v3.1c0 .25.228.55.65.55.242 0 .362-.072.42-.13.058-.058.13-.178.13-.42V16a.575.575 0 0 0-.55-.55h-.1ZM9.85 16c0-1.114.936-2.05 2.05-2.05h.1c1.114 0 2.05.936 2.05 2.05v3.1c0 .558-.178 1.088-.57 1.48-.392.393-.922.57-1.48.57-1.178 0-2.15-.9-2.15-2.05V16Z" clip-rule="evenodd"/>
  <path fill="#000" fill-rule="evenodd" d="M12 2.85a.75.75 0 0 1 .75.75v11.1a.75.75 0 0 1-1.5 0V3.6a.75.75 0 0 1 .75-.75Z" clip-rule="evenodd"/>
  <path fill="#000" fill-rule="evenodd" d="M8.7 2.85a.75.75 0 0 1 .75.75v2.2c0 1.386 1.164 2.55 2.55 2.55s2.55-1.164 2.55-2.55V3.6a.75.75 0 0 1 1.5 0v2.2c0 2.214-1.836 4.05-4.05 4.05-2.214 0-4.05-1.836-4.05-4.05V3.6a.75.75 0 0 1 .75-.75Z" clip-rule="evenodd"/>
</svg>
