<svg width="24" height="24" viewBox="0 0 24 24" fill="none" xmlns="http://www.w3.org/2000/svg">
<path d="M5.09999 18.9999C4.49999 18.3999 4.49999 17.5999 5.09999 17.0999L7.19999 14.8999C7.69999 14.3999 8.49999 14.3999 8.99999 14.8999C9.49999 15.3999 9.49999 16.1999 8.99999 16.6999L6.89999 18.9999C6.39999 19.4999 5.59999 19.4999 5.09999 18.9999Z" fill="black"/>
<path fill-rule="evenodd" clip-rule="evenodd" d="M7.73523 15.4254L5.61298 17.6487L5.58013 17.6761C5.43958 17.7932 5.39999 17.9121 5.39999 18.0124C5.39999 18.1207 5.44802 18.2873 5.63032 18.4696C5.83425 18.6735 6.15259 18.6766 6.36003 18.479L8.45762 16.1816L8.46966 16.1696C8.67677 15.9625 8.67677 15.6373 8.46966 15.4302C8.26418 15.2248 7.94253 15.2231 7.73523 15.4254ZM6.66966 14.3696C7.46256 13.5767 8.73743 13.5767 9.53032 14.3696C10.3188 15.158 10.3232 16.423 9.54364 17.2168L7.44237 19.5182L7.43032 19.5302C6.63743 20.3231 5.36256 20.3231 4.56966 19.5302C4.15197 19.1125 3.89999 18.5791 3.89999 18.0124C3.89999 17.4528 4.14687 16.9346 4.58396 16.5543L6.6635 14.3757L6.66966 14.3696Z" fill="black"/>
<path fill-rule="evenodd" clip-rule="evenodd" d="M17.5303 6.46967C17.8232 6.76256 17.8232 7.23744 17.5303 7.53033L9.63032 15.4303C9.33743 15.7232 8.86255 15.7232 8.56966 15.4303C8.27677 15.1374 8.27677 14.6626 8.56966 14.3697L16.4697 6.46967C16.7626 6.17678 17.2374 6.17678 17.5303 6.46967Z" fill="black"/>
<path fill-rule="evenodd" clip-rule="evenodd" d="M15.1303 4.16962C15.4232 4.46251 15.4232 4.93739 15.1303 5.23028L13.5303 6.83028C12.5232 7.83739 12.5232 9.46251 13.5303 10.4696C14.5374 11.4767 16.1626 11.4767 17.1697 10.4696L18.7697 8.86962C19.0626 8.57673 19.5374 8.57673 19.8303 8.86962C20.1232 9.16251 20.1232 9.63739 19.8303 9.93028L18.2303 11.5303C16.6374 13.1232 14.0626 13.1232 12.4697 11.5303C10.8768 9.93739 10.8768 7.36251 12.4697 5.76962L14.0697 4.16962C14.3626 3.87673 14.8374 3.87673 15.1303 4.16962Z" fill="black"/>
</svg>
