<svg xmlns="http://www.w3.org/2000/svg" fill="none" viewBox="0 0 24 24">
  <path fill="#000" fill-rule="evenodd" d="M9.531 3.214c1.274-1.019 3.164-1.019 4.438 0l.012.01 3.12 2.717 1.896 1.697c.947.83 1.553 2.03 1.553 3.362v7.1a2.97 2.97 0 0 1-2.95 2.95h-2.05V15.7c0-.386-.264-.65-.65-.65H8.7c-.386 0-.65.264-.65.65v5.35H6a2.97 2.97 0 0 1-2.95-2.95V11c0-1.285.471-2.502 1.455-3.364h.001l5.012-4.41.013-.012Zm.95 1.162L5.495 8.763l-.001.002c-.615.538-.944 1.32-.944 2.235v7.1c0 .786.664 1.45 1.45 1.45h.55V15.7c0-1.214.936-2.15 2.15-2.15h6.2c1.214 0 2.15.936 2.15 2.15v3.85h.55a1.47 1.47 0 0 0 1.45-1.45V11c0-.866-.393-1.666-1.044-2.235L18 8.759l-1.896-1.697-3.084-2.685c-.722-.569-1.816-.57-2.539-.001ZM11.8 8.05c-.686 0-1.25.564-1.25 1.25s.564 1.25 1.25 1.25c.61 0 1.25-.588 1.25-1.25 0-.686-.564-1.25-1.25-1.25ZM9.05 9.3a2.756 2.756 0 0 1 2.75-2.75 2.756 2.756 0 0 1 2.75 2.75c0 1.538-1.36 2.75-2.75 2.75A2.756 2.756 0 0 1 9.05 9.3Z" clip-rule="evenodd"/>
  <path fill="#000" fill-rule="evenodd" d="M16.6 2.05a.75.75 0 0 1 .75.75v3.7a.75.75 0 0 1-1.5 0V2.8a.75.75 0 0 1 .75-.75Z" clip-rule="evenodd"/>
  <path fill="#000" d="M16.3 15.7v4.6h-9v-4.6c0-.8.6-1.4 1.4-1.4h6.2c.7 0 1.4.6 1.4 1.4Z"/>
  <path fill="#000" fill-rule="evenodd" d="M8.7 15.05c-.386 0-.65.264-.65.65v3.85h7.5V15.7c0-.352-.33-.65-.65-.65H8.7Zm-2.15.65c0-1.214.936-2.15 2.15-2.15h6.2c1.08 0 2.15.902 2.15 2.15v5.35H6.55V15.7Z" clip-rule="evenodd"/>
  <path fill="#000" d="M11.8 11.3a2 2 0 1 0 0-4 2 2 0 0 0 0 4Z"/>
  <path fill="#000" fill-rule="evenodd" d="M11.8 8.05a1.25 1.25 0 1 0 0 2.5 1.25 1.25 0 0 0 0-2.5ZM9.05 9.3a2.75 2.75 0 1 1 5.5 0 2.75 2.75 0 0 1-5.5 0Z" clip-rule="evenodd"/>
</svg>
