<svg width="24" height="24" viewBox="0 0 24 24" fill="none" xmlns="http://www.w3.org/2000/svg">
<path fill-rule="evenodd" clip-rule="evenodd" d="M11.6 5.25C7.65116 5.25 4.45 8.45116 4.45 12.4C4.45 16.3488 7.65116 19.55 11.6 19.55C15.5488 19.55 18.75 16.3488 18.75 12.4C18.75 8.45116 15.5488 5.25 11.6 5.25ZM2.95 12.4C2.95 7.62274 6.82273 3.75 11.6 3.75C16.3773 3.75 20.25 7.62274 20.25 12.4C20.25 17.1773 16.3773 21.05 11.6 21.05C6.82273 21.05 2.95 17.1773 2.95 12.4Z" fill="black"/>
<path fill-rule="evenodd" clip-rule="evenodd" d="M11.1 7.75C11.5142 7.75 11.85 8.08579 11.85 8.5V12.5C11.85 12.6561 11.9356 12.8749 12.1303 13.0697L14.0303 14.9697C14.3232 15.2626 14.3232 15.7374 14.0303 16.0303C13.7374 16.3232 13.2626 16.3232 12.9697 16.0303L11.0697 14.1303C10.6644 13.7251 10.35 13.1439 10.35 12.5V8.5C10.35 8.08579 10.6858 7.75 11.1 7.75Z" fill="black"/>
<path fill-rule="evenodd" clip-rule="evenodd" d="M5.83033 3.26972C6.12323 3.56261 6.12323 4.03749 5.83033 4.33038L4.33033 5.83038C4.03744 6.12327 3.56257 6.12327 3.26967 5.83038C2.97678 5.53749 2.97678 5.06261 3.26967 4.76972L4.76967 3.26972C5.06257 2.97683 5.53744 2.97683 5.83033 3.26972Z" fill="black"/>
<path fill-rule="evenodd" clip-rule="evenodd" d="M7.44714 18.5871C7.73044 18.8893 7.71513 19.364 7.41295 19.6473L5.81295 21.1473C5.51076 21.4306 5.03614 21.4152 4.75284 21.1131C4.46954 20.8109 4.48485 20.3362 4.78703 20.0529L6.38703 18.5529C6.68922 18.2696 7.16385 18.285 7.44714 18.5871Z" fill="black"/>
<path fill-rule="evenodd" clip-rule="evenodd" d="M17.3528 3.2871C17.6361 2.98491 18.1108 2.9696 18.413 3.2529L20.013 4.7529C20.3151 5.0362 20.3304 5.51082 20.0471 5.81301C19.7639 6.11519 19.2892 6.1305 18.987 5.8472L17.387 4.3472C17.0849 4.06391 17.0695 3.58928 17.3528 3.2871Z" fill="black"/>
<path fill-rule="evenodd" clip-rule="evenodd" d="M15.7528 18.5871C16.0361 18.285 16.5108 18.2696 16.8129 18.5529L18.4129 20.0529C18.7151 20.3362 18.7304 20.8109 18.4471 21.1131C18.1638 21.4152 17.6892 21.4306 17.387 21.1473L15.787 19.6473C15.4849 19.364 15.4695 18.8893 15.7528 18.5871Z" fill="black"/>
</svg>
