<svg width="24" height="24" viewBox="0 0 24 24" fill="none" xmlns="http://www.w3.org/2000/svg">
<path d="M16.8 19.8C18.4568 19.8 19.8 18.4569 19.8 16.8C19.8 15.1432 18.4568 13.8 16.8 13.8C15.1431 13.8 13.8 15.1432 13.8 16.8C13.8 18.4569 15.1431 19.8 16.8 19.8Z" fill="black"/>
<path fill-rule="evenodd" clip-rule="evenodd" d="M16.8 14.55C15.5573 14.55 14.55 15.5574 14.55 16.8C14.55 18.0427 15.5573 19.05 16.8 19.05C18.0426 19.05 19.05 18.0427 19.05 16.8C19.05 15.5574 18.0426 14.55 16.8 14.55ZM13.05 16.8C13.05 14.729 14.7289 13.05 16.8 13.05C18.8711 13.05 20.55 14.729 20.55 16.8C20.55 18.8711 18.8711 20.55 16.8 20.55C14.7289 20.55 13.05 18.8711 13.05 16.8Z" fill="black"/>
<path d="M7.79999 19.8C9.45684 19.8 10.8 18.4569 10.8 16.8C10.8 15.1432 9.45684 13.8 7.79999 13.8C6.14313 13.8 4.79999 15.1432 4.79999 16.8C4.79999 18.4569 6.14313 19.8 7.79999 19.8Z" fill="black"/>
<path fill-rule="evenodd" clip-rule="evenodd" d="M7.79999 14.55C6.55735 14.55 5.54999 15.5574 5.54999 16.8C5.54999 18.0427 6.55735 19.05 7.79999 19.05C9.04263 19.05 10.05 18.0427 10.05 16.8C10.05 15.5574 9.04263 14.55 7.79999 14.55ZM4.04999 16.8C4.04999 14.729 5.72892 13.05 7.79999 13.05C9.87106 13.05 11.55 14.729 11.55 16.8C11.55 18.8711 9.87106 20.55 7.79999 20.55C5.72892 20.55 4.04999 18.8711 4.04999 16.8Z" fill="black"/>
<path d="M7.79999 10.8C9.45684 10.8 10.8 9.4569 10.8 7.80005C10.8 6.14319 9.45684 4.80005 7.79999 4.80005C6.14313 4.80005 4.79999 6.14319 4.79999 7.80005C4.79999 9.4569 6.14313 10.8 7.79999 10.8Z" fill="black"/>
<path fill-rule="evenodd" clip-rule="evenodd" d="M7.79999 5.55005C6.55735 5.55005 5.54999 6.55741 5.54999 7.80005C5.54999 9.04269 6.55735 10.05 7.79999 10.05C9.04263 10.05 10.05 9.04269 10.05 7.80005C10.05 6.55741 9.04263 5.55005 7.79999 5.55005ZM4.04999 7.80005C4.04999 5.72898 5.72892 4.05005 7.79999 4.05005C9.87106 4.05005 11.55 5.72898 11.55 7.80005C11.55 9.87112 9.87106 11.55 7.79999 11.55C5.72892 11.55 4.04999 9.87112 4.04999 7.80005Z" fill="black"/>
<path fill-rule="evenodd" clip-rule="evenodd" d="M13.05 7.80005C13.05 7.38584 13.3858 7.05005 13.8 7.05005H19.8C20.2142 7.05005 20.55 7.38584 20.55 7.80005C20.55 8.21426 20.2142 8.55005 19.8 8.55005H13.8C13.3858 8.55005 13.05 8.21426 13.05 7.80005Z" fill="black"/>
<path fill-rule="evenodd" clip-rule="evenodd" d="M16.8 4.05005C17.2142 4.05005 17.55 4.38584 17.55 4.80005V10.8C17.55 11.2143 17.2142 11.55 16.8 11.55C16.3858 11.55 16.05 11.2143 16.05 10.8V4.80005C16.05 4.38584 16.3858 4.05005 16.8 4.05005Z" fill="black"/>
</svg>
