<svg width="24" height="24" viewBox="0 0 24 24" fill="none" xmlns="http://www.w3.org/2000/svg">
<path fill-rule="evenodd" clip-rule="evenodd" d="M13.15 18.3H14.65V18.6732C14.7662 20.4045 13.4168 21.75 11.8 21.75C10.1858 21.75 8.84998 20.4143 8.84998 18.8V18.4H10.35V18.8C10.35 19.5858 11.0142 20.25 11.8 20.25C12.5736 20.25 13.2179 19.6115 13.1522 18.7576L13.15 18.7289V18.3Z" fill="black"/>
<path d="M19.8 16.5C19.8 17.1 19.5 17.7 19.1 18.1C18.7 18.5 18.1 18.8 17.5 18.8H5.99999C4.79999 18.8 3.79999 17.8 3.79999 16.6C3.79999 16 4.09999 15.4 4.49999 15C4.59999 14.9 4.79999 14.8 4.89999 14.7C4.79999 14.3 4.69999 13.9 4.69999 13.5V9.90005C4.69999 6.00005 7.89999 2.80005 11.8 2.80005C13.8 2.80005 15.5 3.60005 16.8 4.90005C18.1 6.20005 18.9 8.00005 18.9 9.90005V13.5C18.9 13.9 18.8 14.3 18.7 14.7C19.3 15 19.8 15.7 19.8 16.5Z" fill="black"/>
<path fill-rule="evenodd" clip-rule="evenodd" d="M11.8 3.55005C8.3142 3.55005 5.44999 6.41426 5.44999 9.90005V13.5C5.44999 13.7916 5.5232 14.1006 5.62759 14.5181L5.73059 14.9301L5.43032 15.2304C5.36526 15.2954 5.29828 15.3468 5.25049 15.3816C5.20351 15.4158 5.15497 15.4481 5.12036 15.4712L5.11601 15.4741C5.07583 15.5009 5.05151 15.5172 5.03174 15.5316C5.02726 15.5349 5.02394 15.5374 5.02164 15.5391C4.74003 15.8252 4.54999 16.2379 4.54999 16.6C4.54999 17.3858 5.2142 18.05 5.99999 18.05H17.5C17.8659 18.05 18.2833 17.8561 18.5697 17.5697C18.856 17.2833 19.05 16.8659 19.05 16.5C19.05 16.0024 18.7272 15.5522 18.3646 15.3709L17.8265 15.1018L17.9724 14.5181C18.0768 14.1006 18.15 13.7916 18.15 13.5V9.90005C18.15 8.21009 17.4371 6.5978 16.2697 5.43038C15.098 4.25872 13.5843 3.55005 11.8 3.55005ZM3.94999 9.90005C3.94999 5.58583 7.48577 2.05005 11.8 2.05005C14.0157 2.05005 15.902 2.94138 17.3303 4.36972C18.7629 5.8023 19.65 7.79 19.65 9.90005V13.5C19.65 13.8025 19.6051 14.0987 19.5487 14.3696C20.1329 14.8638 20.55 15.635 20.55 16.5C20.55 17.3342 20.1439 18.1168 19.6303 18.6304C19.1167 19.144 18.3341 19.55 17.5 19.55H5.99999C4.38577 19.55 3.04999 18.2143 3.04999 16.6C3.04999 15.7659 3.45603 14.9833 3.96966 14.4697C3.99863 14.4407 4.02798 14.4145 4.05584 14.3912C3.99726 14.1145 3.94999 13.8105 3.94999 13.5V9.90005Z" fill="black"/>
</svg>
