<svg width="24" height="24" viewBox="0 0 24 24" fill="none" xmlns="http://www.w3.org/2000/svg">
<path d="M16.8 6.80005C17.9046 6.80005 18.8 5.90462 18.8 4.80005C18.8 3.69548 17.9046 2.80005 16.8 2.80005C15.6954 2.80005 14.8 3.69548 14.8 4.80005C14.8 5.90462 15.6954 6.80005 16.8 6.80005Z" fill="black"/>
<path fill-rule="evenodd" clip-rule="evenodd" d="M16.8 3.55005C16.1096 3.55005 15.55 4.10969 15.55 4.80005C15.55 5.4904 16.1096 6.05005 16.8 6.05005C17.4903 6.05005 18.05 5.4904 18.05 4.80005C18.05 4.10969 17.4903 3.55005 16.8 3.55005ZM14.05 4.80005C14.05 3.28127 15.2812 2.05005 16.8 2.05005C18.3188 2.05005 19.55 3.28127 19.55 4.80005C19.55 6.31883 18.3188 7.55005 16.8 7.55005C15.2812 7.55005 14.05 6.31883 14.05 4.80005Z" fill="black"/>
<path fill-rule="evenodd" clip-rule="evenodd" d="M8.84998 18.3H10.35V18.7001H8.84998V18.3Z" fill="black"/>
<path fill-rule="evenodd" clip-rule="evenodd" d="M14.75 18.8H13.25V18.4H14.75V18.8Z" fill="black"/>
<path fill-rule="evenodd" clip-rule="evenodd" d="M18.9 9.15002C19.3142 9.15002 19.65 9.48581 19.65 9.90002V13.5C19.65 13.9934 19.5306 14.4705 19.4361 14.8477C19.4333 14.8592 19.4304 14.8706 19.4276 14.8819C19.3271 15.2838 18.9199 15.5281 18.5181 15.4276C18.1162 15.3272 17.8719 14.92 17.9724 14.5181C18.0768 14.1005 18.15 13.7916 18.15 13.5V9.90002C18.15 9.48581 18.4858 9.15002 18.9 9.15002Z" fill="black"/>
<path fill-rule="evenodd" clip-rule="evenodd" d="M11.8 3.55005C8.3142 3.55005 5.44998 6.41426 5.44998 9.90005V13.4C5.44998 13.6916 5.52319 14.0006 5.62759 14.4181C5.72805 14.82 5.48373 15.2272 5.08188 15.3277C4.68004 15.4281 4.27284 15.1838 4.17237 14.782C4.16955 14.7706 4.16669 14.7592 4.16382 14.7477C4.06939 14.3705 3.94998 13.8935 3.94998 13.4V9.90005C3.94998 5.58583 7.48577 2.05005 11.8 2.05005C12.2142 2.05005 12.55 2.38584 12.55 2.80005C12.55 3.21426 12.2142 3.55005 11.8 3.55005Z" fill="black"/>
<path d="M14 18.8C14 20 13 21 11.8 21C10.6 21 9.59998 20 9.59998 18.8H14Z" fill="black"/>
<path fill-rule="evenodd" clip-rule="evenodd" d="M8.84998 18.05H14.75V18.8C14.75 20.4143 13.4142 21.75 11.8 21.75C10.1858 21.75 8.84998 20.4143 8.84998 18.8V18.05ZM10.5664 19.55C10.8245 19.9662 11.2863 20.25 11.8 20.25C12.3137 20.25 12.7754 19.9662 13.0336 19.55H10.5664Z" fill="black"/>
<path fill-rule="evenodd" clip-rule="evenodd" d="M5.57081 14.2646C5.75605 14.6351 5.60588 15.0856 5.2354 15.2708C5.18156 15.2978 5.14113 15.324 5.06601 15.3741C5.06392 15.3755 5.06179 15.3769 5.05964 15.3783C5.01019 15.4113 4.94634 15.4539 4.86758 15.4995C4.67515 15.7327 4.54999 16.0917 4.54999 16.5C4.54999 17.2858 5.2142 17.95 5.99999 17.95H9.59999C10.0142 17.95 10.35 18.2858 10.35 18.7C10.35 19.1142 10.0142 19.45 9.59999 19.45H5.99999C4.38577 19.45 3.04999 18.1142 3.04999 16.5C3.04999 15.7512 3.29718 14.9422 3.86966 14.3697L3.95572 14.2836L4.06458 14.2292C4.11842 14.2023 4.15884 14.1761 4.23396 14.126C4.23606 14.1246 4.23818 14.1232 4.24033 14.1217C4.31501 14.0719 4.42251 14.0002 4.56458 13.9292C4.93506 13.744 5.38557 13.8941 5.57081 14.2646Z" fill="black"/>
<path fill-rule="evenodd" clip-rule="evenodd" d="M17.9488 14.228C18.1543 13.8684 18.6125 13.7434 18.9721 13.9489C19.9083 14.4839 20.45 15.4339 20.45 16.5001C20.45 17.3255 20.0511 18.082 19.7 18.5501L19.668 18.5927L19.6303 18.6304C19.0579 19.2029 18.2489 19.4501 17.5 19.4501H14C13.5858 19.4501 13.25 19.1143 13.25 18.7001C13.25 18.2859 13.5858 17.9501 14 17.9501H17.5C17.9284 17.9501 18.3026 17.8123 18.5341 17.6036C18.767 17.2775 18.95 16.8575 18.95 16.5001C18.95 15.9663 18.6917 15.5163 18.2279 15.2513C17.8683 15.0458 17.7433 14.5876 17.9488 14.228Z" fill="black"/>
</svg>
