<svg width="24" height="24" viewBox="0 0 24 24" fill="none" xmlns="http://www.w3.org/2000/svg">
<path d="M7.65002 20.5C8.75459 20.5 9.65002 19.6046 9.65002 18.5C9.65002 17.3954 8.75459 16.5 7.65002 16.5C6.54545 16.5 5.65002 17.3954 5.65002 18.5C5.65002 19.6046 6.54545 20.5 7.65002 20.5Z" fill="black"/>
<path fill-rule="evenodd" clip-rule="evenodd" d="M7.65002 17.25C6.95967 17.25 6.40002 17.8096 6.40002 18.5C6.40002 19.1904 6.95967 19.75 7.65002 19.75C8.34038 19.75 8.90002 19.1904 8.90002 18.5C8.90002 17.8096 8.34038 17.25 7.65002 17.25ZM4.90002 18.5C4.90002 16.9812 6.13124 15.75 7.65002 15.75C9.16881 15.75 10.4 16.9812 10.4 18.5C10.4 20.0188 9.16881 21.25 7.65002 21.25C6.13124 21.25 4.90002 20.0188 4.90002 18.5Z" fill="black"/>
<path d="M16.75 7.5C17.8546 7.5 18.75 6.60457 18.75 5.5C18.75 4.39543 17.8546 3.5 16.75 3.5C15.6454 3.5 14.75 4.39543 14.75 5.5C14.75 6.60457 15.6454 7.5 16.75 7.5Z" fill="black"/>
<path fill-rule="evenodd" clip-rule="evenodd" d="M16.75 4.25C16.0596 4.25 15.5 4.80964 15.5 5.5C15.5 6.19036 16.0596 6.75 16.75 6.75C17.4404 6.75 18 6.19036 18 5.5C18 4.80964 17.4404 4.25 16.75 4.25ZM14 5.5C14 3.98122 15.2312 2.75 16.75 2.75C18.2688 2.75 19.5 3.98122 19.5 5.5C19.5 7.01878 18.2688 8.25 16.75 8.25C15.2312 8.25 14 7.01878 14 5.5Z" fill="black"/>
<path fill-rule="evenodd" clip-rule="evenodd" d="M7.65002 4.75C8.06424 4.75 8.40002 5.08579 8.40002 5.5V15.5C8.40002 15.9142 8.06424 16.25 7.65002 16.25C7.23581 16.25 6.90002 15.9142 6.90002 15.5V5.5C6.90002 5.08579 7.23581 4.75 7.65002 4.75Z" fill="black"/>
<path fill-rule="evenodd" clip-rule="evenodd" d="M16.75 6.75C17.1642 6.75 17.5 7.08579 17.5 7.5H16.75C17.5 7.5 17.5 7.50068 17.5 7.50138L17.5 7.50288L17.5 7.50623L17.4999 7.51434L17.4994 7.53611C17.4989 7.55305 17.498 7.57481 17.4965 7.60107C17.4933 7.65357 17.4874 7.72424 17.4763 7.81049C17.4541 7.98279 17.4112 8.21864 17.3277 8.49676C17.1605 9.05431 16.8303 9.78191 16.1825 10.5017C14.8716 11.9583 12.3872 13.25 7.75 13.25C7.33579 13.25 7 12.9142 7 12.5C7 12.0858 7.33579 11.75 7.75 11.75C12.1128 11.75 14.1284 10.5417 15.0675 9.49828C15.5447 8.96809 15.777 8.44569 15.891 8.06574C15.9482 7.87511 15.9755 7.72034 15.9885 7.6192C15.995 7.56873 15.9979 7.53198 15.9991 7.51123C15.9997 7.50128 16 7.49506 16 7.49283C16 7.49274 16 7.49266 16 7.49258C16.0001 7.49213 16.0001 7.4919 16.0001 7.49191C16.0001 7.49191 16.0001 7.49224 16 7.49291L16 7.4956L16 7.49758L16 7.49874" fill="black"/>
<path fill-rule="evenodd" clip-rule="evenodd" d="M7.75 5.06062L9.71967 7.03029C10.0126 7.32318 10.4874 7.32318 10.7803 7.03029C11.0732 6.73739 11.0732 6.26252 10.7803 5.96963L8.62782 3.81711L8.56603 3.77592C8.08096 3.45254 7.35714 3.33216 6.81967 3.86963L4.71967 5.96963C4.42678 6.26252 4.42678 6.73739 4.71967 7.03029C5.01256 7.32318 5.48744 7.32318 5.78033 7.03029L7.75 5.06062Z" fill="black"/>
</svg>
