<svg width="24" height="24" viewBox="0 0 24 24" fill="none" xmlns="http://www.w3.org/2000/svg">
<path d="M17.8 5.79993V18.7999C17.8 20.4999 16.4 21.7999 14.8 21.7999H8.8C7.1 21.7999 5.8 20.3999 5.8 18.7999V5.79993H17.8Z" fill="black"/>
<path fill-rule="evenodd" clip-rule="evenodd" d="M5.05 5.04993H18.55V18.7999C18.55 20.9303 16.7979 22.5499 14.8 22.5499H8.8C6.66963 22.5499 5.05 20.7978 5.05 18.7999V5.04993ZM6.55 6.54993V18.7999C6.55 20.0021 7.53038 21.0499 8.8 21.0499H14.8C16.0021 21.0499 17.05 20.0696 17.05 18.7999V6.54993H6.55Z" fill="black"/>
<path fill-rule="evenodd" clip-rule="evenodd" d="M17.05 5.79993C17.05 5.38571 17.3858 5.04993 17.8 5.04993H19.8C20.2142 5.04993 20.55 5.38571 20.55 5.79993C20.55 6.21414 20.2142 6.54993 19.8 6.54993H17.8C17.3858 6.54993 17.05 6.21414 17.05 5.79993Z" fill="black"/>
<path fill-rule="evenodd" clip-rule="evenodd" d="M3.05 5.79993C3.05 5.38571 3.38579 5.04993 3.8 5.04993H5.8C6.21422 5.04993 6.55 5.38571 6.55 5.79993C6.55 6.21414 6.21422 6.54993 5.8 6.54993H3.8C3.38579 6.54993 3.05 6.21414 3.05 5.79993Z" fill="black"/>
<path fill-rule="evenodd" clip-rule="evenodd" d="M10 3.44995C9.51422 3.44995 9.05 3.91416 9.05 4.39995V4.94995H14.55V4.39995C14.55 3.96972 14.1392 3.53145 13.6468 3.44995H10ZM7.55 4.39995C7.55 3.08574 8.68579 1.94995 10 1.94995H13.7467L13.793 1.95574C14.8832 2.09202 16.05 3.04174 16.05 4.39995V6.44995H7.55V4.39995Z" fill="black"/>
<path fill-rule="evenodd" clip-rule="evenodd" d="M9.8 9.04993C10.2142 9.04993 10.55 9.38571 10.55 9.79993V17.7999C10.55 18.2141 10.2142 18.5499 9.8 18.5499C9.38579 18.5499 9.05 18.2141 9.05 17.7999V9.79993C9.05 9.38571 9.38579 9.04993 9.8 9.04993Z" fill="white"/>
<path fill-rule="evenodd" clip-rule="evenodd" d="M13.8 9.04993C14.2142 9.04993 14.55 9.38571 14.55 9.79993V17.7999C14.55 18.2141 14.2142 18.5499 13.8 18.5499C13.3858 18.5499 13.05 18.2141 13.05 17.7999V9.79993C13.05 9.38571 13.3858 9.04993 13.8 9.04993Z" fill="white"/>
</svg>
