<svg width="24" height="24" viewBox="0 0 24 24" fill="none" xmlns="http://www.w3.org/2000/svg">
<path d="M12.05 21.05C17.0206 21.05 21.05 17.0206 21.05 12.05C21.05 7.07949 17.0206 3.05005 12.05 3.05005C7.07942 3.05005 3.04999 7.07949 3.04999 12.05C3.04999 17.0206 7.07942 21.05 12.05 21.05Z" fill="black"/>
<path fill-rule="evenodd" clip-rule="evenodd" d="M12.05 3.80005C7.49364 3.80005 3.79999 7.4937 3.79999 12.05C3.79999 16.6064 7.49364 20.3 12.05 20.3C16.6063 20.3 20.3 16.6064 20.3 12.05C20.3 7.4937 16.6063 3.80005 12.05 3.80005ZM2.29999 12.05C2.29999 6.66527 6.66521 2.30005 12.05 2.30005C17.4348 2.30005 21.8 6.66527 21.8 12.05C21.8 17.4348 17.4348 21.8 12.05 21.8C6.66521 21.8 2.29999 17.4348 2.29999 12.05Z" fill="black"/>
<path fill-rule="evenodd" clip-rule="evenodd" d="M15.5803 8.51972C15.8732 8.81261 15.8732 9.28749 15.5803 9.58038L12.5803 12.5804C12.2874 12.8733 11.8126 12.8733 11.5197 12.5804C11.2268 12.2875 11.2268 11.8126 11.5197 11.5197L14.5197 8.51972C14.8126 8.22683 15.2874 8.22683 15.5803 8.51972Z" fill="white"/>
</svg>
