<svg width="24" height="24" viewBox="0 0 24 24" fill="none" xmlns="http://www.w3.org/2000/svg">
<path d="M19.8 11.5V18.6C19.8 19.8 18.8 20.8 17.6 20.8H16.3V16.2C16.3 15.4 15.7 14.8 14.9 14.8H8.6C7.8 14.8 7.2 15.4 7.2 16.2V20.8H6C4.8 20.8 3.8 19.8 3.8 18.6V11.5C3.8 10.5 4.2 9.49998 5 8.79998L10 4.39998C11 3.49998 12.5 3.49998 13.5 4.39998L18.5 8.79998C19.3 9.49998 19.8 10.5 19.8 11.5Z" fill="black"/>
<path fill-rule="evenodd" clip-rule="evenodd" d="M12.9983 4.95745C12.2835 4.31415 11.2165 4.31415 10.5017 4.95745L10.4955 4.96305L5.49547 9.36301L5.49388 9.36441C4.87109 9.90935 4.55 10.6963 4.55 11.5V18.6C4.55 19.3858 5.21422 20.05 6 20.05H6.45V16.2C6.45 14.9858 7.38579 14.05 8.6 14.05H14.9C16.1142 14.05 17.05 14.9858 17.05 16.2V20.05H17.6C18.3858 20.05 19.05 19.3858 19.05 18.6V11.5C19.05 10.7448 18.6662 9.94194 18.0061 9.36441L18.0045 9.36301L12.9983 4.95745ZM13.9984 3.83952C12.7143 2.68679 10.7857 2.68679 9.50157 3.83955L4.50612 8.23554C4.50586 8.23578 4.50559 8.23601 4.50533 8.23624C3.52865 9.09126 3.05 10.304 3.05 11.5V18.6C3.05 20.2142 4.38579 21.55 6 21.55H7.95V16.2C7.95 15.8142 8.21422 15.55 8.6 15.55H14.9C15.2858 15.55 15.55 15.8142 15.55 16.2V21.55H17.6C19.2142 21.55 20.55 20.2142 20.55 18.6V11.5C20.55 10.2555 19.9342 9.05871 18.9947 8.23626C18.9944 8.23602 18.9942 8.23578 18.9939 8.23554L13.9984 3.83952Z" fill="black"/>
<path fill-rule="evenodd" clip-rule="evenodd" d="M8.7 15.5499C8.31422 15.5499 8.05 15.8141 8.05 16.1999V20.0499H15.55V16.1999C15.55 16.1071 15.5014 15.9668 15.3453 15.818C15.2014 15.681 15.0129 15.585 14.8378 15.5499H8.7ZM6.55 16.1999C6.55 14.9857 7.48579 14.0499 8.7 14.0499H14.9533L15.0061 14.0575C15.5191 14.1308 16.0107 14.3804 16.3797 14.7318C16.7486 15.0831 17.05 15.5928 17.05 16.1999V21.5499H6.55V16.1999Z" fill="black"/>
<path fill-rule="evenodd" clip-rule="evenodd" d="M6.55 17.9C6.55 17.4858 6.88579 17.15 7.3 17.15H16.3C16.7142 17.15 17.05 17.4858 17.05 17.9C17.05 18.3142 16.7142 18.65 16.3 18.65H7.3C6.88579 18.65 6.55 18.3142 6.55 17.9Z" fill="black"/>
</svg>
