<svg width="24" height="24" viewBox="0 0 24 24" fill="none" xmlns="http://www.w3.org/2000/svg">
<path fill-rule="evenodd" clip-rule="evenodd" d="M12 5.04993C8.05117 5.04993 4.85001 8.25109 4.85001 12.1999C4.85001 16.1488 8.05117 19.3499 12 19.3499C15.9488 19.3499 19.15 16.1488 19.15 12.1999C19.15 8.25109 15.9488 5.04993 12 5.04993ZM3.35001 12.1999C3.35001 7.42266 7.22274 3.54993 12 3.54993C16.7773 3.54993 20.65 7.42266 20.65 12.1999C20.65 16.9772 16.7773 20.8499 12 20.8499C7.22274 20.8499 3.35001 16.9772 3.35001 12.1999Z" fill="black"/>
<path fill-rule="evenodd" clip-rule="evenodd" d="M6.23034 3.06965C6.52324 3.36254 6.52324 3.83741 6.23034 4.13031L4.73034 5.63031C4.43745 5.9232 3.96258 5.9232 3.66968 5.63031C3.37679 5.33741 3.37679 4.86254 3.66968 4.56965L5.16968 3.06965C5.46258 2.77675 5.93745 2.77675 6.23034 3.06965Z" fill="black"/>
<path fill-rule="evenodd" clip-rule="evenodd" d="M7.84717 18.3871C8.13047 18.6893 8.11515 19.1639 7.81297 19.4472L6.21297 20.9472C5.91079 21.2305 5.43616 21.2152 5.15286 20.913C4.86956 20.6108 4.88487 20.1362 5.18706 19.8529L6.78706 18.3529C7.08924 18.0696 7.56387 18.0849 7.84717 18.3871Z" fill="black"/>
<path fill-rule="evenodd" clip-rule="evenodd" d="M17.7528 3.08702C18.0361 2.78484 18.5108 2.76953 18.8129 3.05283L20.4129 4.55283C20.7151 4.83612 20.7304 5.31075 20.4471 5.61293C20.1638 5.91512 19.6892 5.93043 19.387 5.64713L17.787 4.14713C17.4849 3.86383 17.4695 3.38921 17.7528 3.08702Z" fill="black"/>
<path fill-rule="evenodd" clip-rule="evenodd" d="M16.1529 18.3871C16.4362 18.0849 16.9108 18.0696 17.213 18.3529L18.813 19.8529C19.1152 20.1362 19.1305 20.6108 18.8472 20.913C18.5639 21.2152 18.0892 21.2305 17.7871 20.9472L16.1871 19.4472C15.8849 19.1639 15.8696 18.6893 16.1529 18.3871Z" fill="black"/>
<path fill-rule="evenodd" clip-rule="evenodd" d="M12 9.15002C12.4142 9.15002 12.75 9.48581 12.75 9.90002V15.2C12.75 15.6142 12.4142 15.95 12 15.95C11.5858 15.95 11.25 15.6142 11.25 15.2V9.90002C11.25 9.48581 11.5858 9.15002 12 9.15002Z" fill="black"/>
<path fill-rule="evenodd" clip-rule="evenodd" d="M12 10.1607L10.0303 12.1303C9.73744 12.4232 9.26256 12.4232 8.96967 12.1303C8.67678 11.8374 8.67678 11.3626 8.96967 11.0697L11.1697 8.86967C11.3983 8.64106 11.7097 8.5 12.0375 8.5C12.3334 8.5 12.6749 8.62441 12.8902 8.92955L15.0303 11.0697C15.3232 11.3626 15.3232 11.8374 15.0303 12.1303C14.7374 12.4232 14.2626 12.4232 13.9697 12.1303L12 10.1607Z" fill="black"/>
</svg>
