<svg xmlns="http://www.w3.org/2000/svg" fill="none" viewBox="0 0 24 24">
  <path fill="#000" d="M11.5 15.3a3.8 3.8 0 1 0 0-7.6 3.8 3.8 0 0 0 0 7.6Z"/>
  <path fill="#000" fill-rule="evenodd" d="M11.5 8.45a3.05 3.05 0 1 0 0 6.1 3.05 3.05 0 0 0 0-6.1ZM6.95 11.5a4.55 4.55 0 1 1 9.1 0 4.55 4.55 0 0 1-9.1 0Z" clip-rule="evenodd"/>
  <path fill="#000" fill-rule="evenodd" d="M13.77 13.77a.75.75 0 0 1 1.06 0l1.5 1.5a.75.75 0 0 1-1.06 1.06l-1.5-1.5a.75.75 0 0 1 0-1.06Z" clip-rule="evenodd"/>
  <path fill="#000" fill-rule="evenodd" d="M8.8 3.55c-2.886 0-5.25 2.364-5.25 5.25v6c0 2.886 2.364 5.25 5.25 5.25h6c2.886 0 5.25-2.364 5.25-5.25v-6c0-2.886-2.364-5.25-5.25-5.25h-6ZM2.05 8.8c0-3.714 3.036-6.75 6.75-6.75h6c3.714 0 6.75 3.036 6.75 6.75v6c0 3.714-3.036 6.75-6.75 6.75h-6c-3.714 0-6.75-3.036-6.75-6.75v-6Z" clip-rule="evenodd"/>
</svg>
