<svg xmlns="http://www.w3.org/2000/svg" fill="none" viewBox="0 0 24 24">
  <path fill="#000" fill-rule="evenodd" d="M3.8 5.75A.75.75 0 0 1 4.55 5h15a.75.75 0 1 1 0 1.5h-15a.75.75 0 0 1-.75-.75Zm0 4A.75.75 0 0 1 4.55 9h15a.75.75 0 1 1 0 1.5h-15a.75.75 0 0 1-.75-.75Zm0 4a.75.75 0 0 1 .75-.75h7a.75.75 0 1 1 0 1.5h-7a.75.75 0 0 1-.75-.75Zm0 4a.75.75 0 0 1 .75-.75h6a.75.75 0 1 1 0 1.5h-6a.75.75 0 0 1-.75-.75Z" clip-rule="evenodd"/>
  <path fill="#000" d="m18.45 14.95-2.5-1.5c-.7-.4-1.5.1-1.5.9v2.9c0 .8.8 1.3 1.5.9l2.5-1.5c.7-.4.7-1.3 0-1.7Z"/>
  <path fill="#000" fill-rule="evenodd" d="M13.7 14.35c0-1.334 1.386-2.258 2.622-1.551l.007.004 2.5 1.5c.568.328.896.892.896 1.497 0 .604-.328 1.17-.895 1.497l-2.501 1.5-.007.004c-1.236.707-2.622-.217-2.622-1.551v-2.9Zm1.627-.26c-.063.04-.127.121-.127.26v2.9c0 .139.064.22.127.26.058.034.14.05.246-.008l2.498-1.5.007-.003c.128-.073.147-.156.147-.199 0-.043-.02-.126-.147-.199l-.007-.004-2.498-1.499c-.107-.059-.188-.042-.246-.007Z" clip-rule="evenodd"/>
</svg>
