<svg width="24" height="24" viewBox="0 0 24 24" fill="none" xmlns="http://www.w3.org/2000/svg">
<path d="M17.5 20.9H6C4.8 20.9 3.8 19.9 3.8 18.7V11.5C3.8 10.5 4.3 9.49998 5 8.79998L10 4.39998C11 3.49998 12.5 3.49998 13.5 4.39998L18.5 8.79998C19.3 9.49998 19.7 10.5 19.7 11.5V18.6C19.8 19.9 18.8 20.9 17.5 20.9Z" fill="black"/>
<path fill-rule="evenodd" clip-rule="evenodd" d="M12.9983 4.95745C12.2835 4.31415 11.2165 4.31415 10.5017 4.95745L10.4955 4.96305L5.51431 9.34644C4.93351 9.93492 4.55 10.745 4.55 11.5V18.7C4.55 19.4858 5.21422 20.15 6 20.15H17.5C18.3973 20.15 19.0161 19.4885 18.9522 18.6575L18.95 18.6288V11.5C18.95 10.6963 18.6289 9.90935 18.0061 9.36441L18.0045 9.36301L12.9983 4.95745ZM13.9984 3.83952C12.7143 2.68679 10.7857 2.68679 9.50157 3.83955L4.48658 8.25274L4.46967 8.26965C3.65943 9.07989 3.05 10.2618 3.05 11.5V18.7C3.05 20.3142 4.38579 21.65 6 21.65H17.5C19.1928 21.65 20.5679 20.3269 20.45 18.5731V11.5C20.45 10.304 19.9714 9.09128 18.9947 8.23626C18.9944 8.23602 18.9942 8.23578 18.9939 8.23554L13.9984 3.83952Z" fill="black"/>
</svg>
