<svg width="24" height="24" viewBox="0 0 24 24" fill="none" xmlns="http://www.w3.org/2000/svg">
<path fill-rule="evenodd" clip-rule="evenodd" d="M9.53147 3.21442C10.8054 2.19529 12.6946 2.19529 13.9685 3.21442L13.9808 3.22422L17.1001 5.94109L18.9971 7.63849C19.9442 8.46874 20.55 9.66766 20.55 11.0001V18.1001C20.55 19.7143 19.2142 21.0501 17.6 21.0501H13.05V15.7001C13.05 15.4158 13.0008 15.1911 12.9462 15.0501H10.6538C10.5992 15.1911 10.55 15.4158 10.55 15.7001V21.0501H5.99999C4.38578 21.0501 3.04999 19.7143 3.04999 18.1001V11.0001C3.04999 9.71521 3.52109 8.49797 4.50531 7.63634C4.50558 7.63611 4.50584 7.63587 4.50611 7.63564L9.51773 3.22541L9.53147 3.21442ZM10.4811 4.37571L5.49546 8.76311L5.49387 8.76451C4.87863 9.30284 4.54999 10.0853 4.54999 11.0001V18.1001C4.54999 18.8859 5.2142 19.5501 5.99999 19.5501H9.04999V15.7001C9.04999 15.2147 9.13974 14.7563 9.30355 14.3923C9.38472 14.2119 9.4979 14.024 9.65534 13.8701C9.8108 13.7181 10.0636 13.5501 10.4 13.5501H13.2C13.5364 13.5501 13.7892 13.7181 13.9446 13.8701C14.1021 14.024 14.2153 14.2119 14.2964 14.3923C14.4602 14.7563 14.55 15.2147 14.55 15.7001V19.5501H17.6C18.3858 19.5501 19.05 18.8859 19.05 18.1001V11.0001C19.05 10.134 18.6571 9.33416 18.0061 8.76451L17.9999 8.75904L16.1036 7.06233L13.0202 4.3768C12.2982 3.80819 11.2037 3.80783 10.4811 4.37571ZM11.8 8.05007C11.1142 8.05007 10.55 8.61429 10.55 9.30007C10.55 9.98586 11.1142 10.5501 11.8 10.5501C12.4099 10.5501 13.05 9.9621 13.05 9.30007C13.05 8.61429 12.4858 8.05007 11.8 8.05007ZM9.04999 9.30007C9.04999 7.78586 10.2858 6.55007 11.8 6.55007C13.3142 6.55007 14.55 7.78586 14.55 9.30007C14.55 10.8381 13.19 12.0501 11.8 12.0501C10.2858 12.0501 9.04999 10.8143 9.04999 9.30007Z" fill="black"/>
<path d="M13.8 15.7V20.3H9.79999V15.7C9.79999 14.9 10.1 14.3 10.4 14.3H13.2C13.5 14.3 13.8 14.9 13.8 15.7Z" fill="black"/>
<path fill-rule="evenodd" clip-rule="evenodd" d="M10.6538 15.05C10.5992 15.1911 10.55 15.4158 10.55 15.7V19.55H13.05V15.7C13.05 15.4158 13.0008 15.1911 12.9462 15.05H10.6538ZM9.65534 13.87C9.8108 13.718 10.0636 13.55 10.4 13.55H13.2C13.5364 13.55 13.7892 13.718 13.9446 13.87C14.1021 14.024 14.2153 14.2119 14.2964 14.3923C14.4602 14.7563 14.55 15.2147 14.55 15.7V21.05H9.04999V15.7C9.04999 15.2147 9.13974 14.7563 9.30355 14.3923C9.38472 14.2119 9.4979 14.024 9.65534 13.87Z" fill="black"/>
<path fill-rule="evenodd" clip-rule="evenodd" d="M16.6 2.05005C17.0142 2.05005 17.35 2.38584 17.35 2.80005V6.50005C17.35 6.91426 17.0142 7.25005 16.6 7.25005C16.1858 7.25005 15.85 6.91426 15.85 6.50005V2.80005C15.85 2.38584 16.1858 2.05005 16.6 2.05005Z" fill="black"/>
<path d="M11.8 11.3C12.9046 11.3 13.8 10.4046 13.8 9.30005C13.8 8.19548 12.9046 7.30005 11.8 7.30005C10.6954 7.30005 9.79999 8.19548 9.79999 9.30005C9.79999 10.4046 10.6954 11.3 11.8 11.3Z" fill="black"/>
<path fill-rule="evenodd" clip-rule="evenodd" d="M11.8 8.05005C11.1096 8.05005 10.55 8.60969 10.55 9.30005C10.55 9.9904 11.1096 10.55 11.8 10.55C12.4903 10.55 13.05 9.9904 13.05 9.30005C13.05 8.60969 12.4903 8.05005 11.8 8.05005ZM9.04999 9.30005C9.04999 7.78127 10.2812 6.55005 11.8 6.55005C13.3188 6.55005 14.55 7.78127 14.55 9.30005C14.55 10.8188 13.3188 12.05 11.8 12.05C10.2812 12.05 9.04999 10.8188 9.04999 9.30005Z" fill="black"/>
</svg>
