<svg xmlns="http://www.w3.org/2000/svg" viewBox="0 0 24 24" fill="currentColor">
  <path d="M4.25 6.5c0-1.28579.96421-2.25 2.25-2.25h6c1.2858 0 2.25.96421 2.25 2.25v1.25H11.5c-2.11421 0-3.75 1.63579-3.75 3.75v3.25H6.5c-1.28579 0-2.25-.9642-2.25-2.25v-6Zm3.5 9.75H6.5c-2.11421 0-3.75-1.6358-3.75-3.75v-6c0-2.11421 1.63579-3.75 3.75-3.75h6c2.1142 0 3.75 1.63579 3.75 3.75v1.25h1.25c2.1142 0 3.75 1.63579 3.75 3.75v6c0 2.0142-1.7358 3.75-3.75 3.75h-6c-2.11421 0-3.75-1.6358-3.75-3.75v-1.25Zm8.5-7h1.25c1.2858 0 2.25.9642 2.25 2.25v6c0 1.1858-1.0642 2.25-2.25 2.25h-6c-1.2858 0-2.25-.9642-2.25-2.25v-1.25h3.25c2.0142 0 3.75-1.7358 3.75-3.75V9.25Zm-1.5 0v3.25c0 1.1858-1.0642 2.25-2.25 2.25H9.25V11.5c0-1.2858.9642-2.25 2.25-2.25h3.25Z"/>
</svg>
