<svg width="24" height="24" viewBox="0 0 24 24" fill="none" xmlns="http://www.w3.org/2000/svg">
<path d="M17.5 20.3001H6C4.8 20.3001 3.8 19.3001 3.8 18.1001V11.0001C3.8 10.0001 4.3 9.0001 5 8.3001L10 3.9001C11 3.0001 12.5 3.0001 13.5 3.9001L18.5 8.3001C19.3 9.0001 19.7 10.0001 19.7 11.0001V18.1001C19.8 19.3001 18.8 20.3001 17.5 20.3001Z" fill="black"/>
<path fill-rule="evenodd" clip-rule="evenodd" d="M12.9983 4.45757C12.2835 3.81427 11.2165 3.81427 10.5017 4.45757L10.4955 4.46317L5.5143 8.84656C4.93351 9.43504 4.55 10.2452 4.55 11.0001V18.1001C4.55 18.8859 5.21421 19.5501 6 19.5501H17.5C18.4238 19.5501 19.0112 18.8651 18.9526 18.1624L18.95 18.1313V11.0001C18.95 10.1964 18.6289 9.40947 18.0061 8.86453L18.0045 8.86313L12.9983 4.45757ZM13.9984 3.33965C12.7143 2.18691 10.7857 2.18692 9.50157 3.33967L4.48658 7.75286L4.46967 7.76977C3.65942 8.58001 3.05 9.76196 3.05 11.0001V18.1001C3.05 19.7143 4.38579 21.0501 6 21.0501H17.5C19.1652 21.0501 20.5702 19.7523 20.45 18.0713V11.0001C20.45 9.80413 19.9714 8.5914 18.9947 7.73638C18.9944 7.73614 18.9942 7.7359 18.9939 7.73567L13.9984 3.33965Z" fill="black"/>
<path fill-rule="evenodd" clip-rule="evenodd" d="M16.6 2.05005C17.0142 2.05005 17.35 2.38584 17.35 2.80005V6.50005C17.35 6.91426 17.0142 7.25005 16.6 7.25005C16.1858 7.25005 15.85 6.91426 15.85 6.50005V2.80005C15.85 2.38584 16.1858 2.05005 16.6 2.05005Z" fill="black"/>
</svg>
