<svg width="24" height="24" viewBox="0 0 24 24" fill="none" xmlns="http://www.w3.org/2000/svg">
<path fill-rule="evenodd" clip-rule="evenodd" d="M13.9984 3.83952L18.9939 8.23554C18.9941 8.23578 18.9944 8.23602 18.9947 8.23626C19.9342 9.05871 20.55 10.2555 20.55 11.5V18.6C20.55 20.2142 19.2142 21.55 17.6 21.55H15.55V18.55H8.04999V21.55H5.99999C4.38577 21.55 3.04999 20.2142 3.04999 18.6V11.5C3.04999 10.304 3.52864 9.09126 4.50531 8.23624C4.50558 8.23601 4.50584 8.23578 4.50611 8.23554L9.50156 3.83955C10.7857 2.68679 12.7143 2.68679 13.9984 3.83952ZM12.9983 4.95745C12.2835 4.31415 11.2165 4.31415 10.5017 4.95745L10.4955 4.96305L5.49546 9.36301L5.49387 9.36441C4.87108 9.90935 4.54999 10.6963 4.54999 11.5V18.6C4.54999 19.3858 5.2142 20.05 5.99999 20.05H6.54999V17.05H17.05V20.05H17.6C18.3858 20.05 19.05 19.3858 19.05 18.6V11.5C19.05 10.7448 18.6661 9.94194 18.0061 9.36441L18.0045 9.36301L12.9983 4.95745ZM11.8 8.64998C11.1142 8.64998 10.55 9.21419 10.55 9.89998C10.55 10.5858 11.1142 11.15 11.8 11.15C12.4858 11.15 13.05 10.5858 13.05 9.89998C13.05 9.21419 12.4858 8.64998 11.8 8.64998ZM9.04999 9.89998C9.04999 8.38576 10.2858 7.14998 11.8 7.14998C13.3142 7.14998 14.55 8.38576 14.55 9.89998C14.55 11.4142 13.3142 12.65 11.8 12.65C10.2858 12.65 9.04999 11.4142 9.04999 9.89998Z" fill="black"/>
<path d="M16.3 17.9H7.29999V20.9H16.3V17.9Z" fill="black"/>
<path fill-rule="evenodd" clip-rule="evenodd" d="M6.54999 17.15H17.05V21.65H6.54999V17.15ZM8.04999 18.65V20.15H15.55V18.65H8.04999Z" fill="black"/>
<path fill-rule="evenodd" clip-rule="evenodd" d="M8.69999 15.65C8.3142 15.65 8.04999 15.9142 8.04999 16.3V17.9C8.04999 18.3142 7.7142 18.65 7.29999 18.65C6.88577 18.65 6.54999 18.3142 6.54999 17.9V16.3C6.54999 15.0858 7.48577 14.15 8.69999 14.15H14.9C16.1142 14.15 17.05 15.0858 17.05 16.3V17.9C17.05 18.3142 16.7142 18.65 16.3 18.65C15.8858 18.65 15.55 18.3142 15.55 17.9V16.3C15.55 15.9142 15.2858 15.65 14.9 15.65H8.69999Z" fill="black"/>
<path d="M11.8 11.9C12.9046 11.9 13.8 11.0046 13.8 9.90002C13.8 8.79545 12.9046 7.90002 11.8 7.90002C10.6954 7.90002 9.79999 8.79545 9.79999 9.90002C9.79999 11.0046 10.6954 11.9 11.8 11.9Z" fill="black"/>
<path fill-rule="evenodd" clip-rule="evenodd" d="M11.8 8.65002C11.1096 8.65002 10.55 9.20967 10.55 9.90002C10.55 10.5904 11.1096 11.15 11.8 11.15C12.4903 11.15 13.05 10.5904 13.05 9.90002C13.05 9.20967 12.4903 8.65002 11.8 8.65002ZM9.04999 9.90002C9.04999 8.38124 10.2812 7.15002 11.8 7.15002C13.3188 7.15002 14.55 8.38124 14.55 9.90002C14.55 11.4188 13.3188 12.65 11.8 12.65C10.2812 12.65 9.04999 11.4188 9.04999 9.90002Z" fill="black"/>
</svg>
