<svg width="24" height="24" viewBox="0 0 24 24" fill="none" xmlns="http://www.w3.org/2000/svg">
<path d="M12.7 4.09998L13.9 3.09998C14.8 2.29998 16.2 2.89998 16.3 4.09998L16.4 5.69998C16.5 6.39998 17.1 6.99998 17.8 6.99998L19.4 7.09998C20.6 7.19998 21.2 8.59998 20.4 9.49998L19.4 10.7C18.9 11.3 18.9 12.1 19.4 12.6L20.4 13.8C21.2 14.7 20.6 16.1 19.4 16.2L17.8 16.3C17.1 16.4 16.5 16.9 16.4 17.7L16.3 19.3C16.2 20.5 14.8 21.1 13.9 20.3L12.7 19.3C12.1 18.8 11.3 18.8 10.8 19.3L9.60001 20.3C8.70001 21.1 7.30001 20.5 7.20001 19.3L7.00001 17.8C6.90001 17.1 6.40001 16.5 5.60001 16.4L4.00001 16.3C2.80001 16.2 2.20001 14.8 3.00001 13.9L4.00001 12.7C4.50001 12.1 4.50001 11.3 4.00001 10.8L3.00001 9.59998C2.20001 8.69998 2.80001 7.29998 4.00001 7.19998L5.70001 6.99998C6.40001 6.99998 7.00001 6.39998 7.00001 5.69998L7.10001 4.09998C7.20001 2.89998 8.60001 2.29998 9.50001 3.09998L10.7 4.09998C11.3 4.59998 12.2 4.59998 12.7 4.09998Z" fill="black"/>
<path fill-rule="evenodd" clip-rule="evenodd" d="M7.84798 4.15574L7.74983 5.72618C7.73553 6.81246 6.83289 7.72261 5.74913 7.7494L4.07498 7.94636L4.06228 7.94742C3.43786 7.99945 3.1978 8.69363 3.56056 9.10173L3.56851 9.11068L4.55671 10.2965C5.34549 11.1133 5.27652 12.3397 4.57617 13.1801L3.56851 14.3893L3.56056 14.3983C3.19908 14.8049 3.43618 15.4957 4.0557 15.552L5.66997 15.6529L5.69303 15.6558C6.87061 15.803 7.60089 16.7029 7.74246 17.6939L7.74345 17.7009L7.94587 19.2193L7.94741 19.2377C7.99944 19.8621 8.69362 20.1022 9.10173 19.7395L9.11067 19.7315L10.2965 18.7433C11.1133 17.9545 12.3397 18.0235 13.1801 18.7238L14.3893 19.7315L14.3983 19.7395C14.8049 20.1009 15.4957 19.8638 15.552 19.2443L15.6529 17.63L15.6558 17.607C15.803 16.4294 16.7029 15.6991 17.6939 15.5575L17.7235 15.5533L19.3443 15.452C19.9638 15.3957 20.2009 14.705 19.8394 14.2983L19.8315 14.2893L18.8433 13.1035C18.0545 12.2867 18.1235 11.0603 18.8238 10.2199L19.8315 9.01068L19.8394 9.00173C20.2009 8.59506 19.9638 7.90431 19.3443 7.84799L17.7739 7.74984C16.6551 7.73561 15.8005 6.80689 15.6575 5.80607L15.6533 5.77655L15.552 4.15571C15.4957 3.53618 14.8049 3.29908 14.3983 3.66056L14.3893 3.66851L13.2032 4.65694C12.3842 5.44548 11.0602 5.37646 10.2199 4.67617L9.01067 3.66851L9.00173 3.66056C8.59505 3.29908 7.90431 3.53619 7.84798 4.15574ZM9.98849 2.5308C8.59653 1.3067 6.50021 2.2663 6.35259 4.03772L6.35195 4.04547L6.25 5.67659V5.70001C6.25 5.98579 5.98579 6.25001 5.7 6.25001H5.65603L3.92381 6.4538C2.16128 6.61119 1.2099 8.70019 2.4308 10.0885L3.44561 11.3063L3.46967 11.3303C3.65307 11.5137 3.71577 11.8695 3.42383 12.2199L2.43079 13.4115C1.2067 14.8035 2.1663 16.8998 3.93772 17.0474L3.94546 17.0481L5.52686 17.1469C5.93682 17.2064 6.19872 17.502 6.2571 17.903L6.45436 19.3825C6.61618 21.141 8.70183 22.0886 10.0885 20.8692L11.3063 19.8544L11.3303 19.8303C11.5137 19.6469 11.8695 19.5842 12.2199 19.8762L13.4115 20.8692C14.8035 22.0933 16.8998 21.1337 17.0474 19.3623L17.0481 19.3545L17.1469 17.7731C17.2052 17.371 17.4909 17.1113 17.8803 17.0464L19.4545 16.9481L19.4623 16.9474C21.2337 16.7998 22.1933 14.7035 20.9692 13.3115L19.9544 12.0937L19.9303 12.0697C19.7469 11.8863 19.6842 11.5305 19.9762 11.1801L20.9692 9.98848C22.1933 8.59653 21.2337 6.50021 19.4623 6.3526L19.4545 6.35195L17.8234 6.25001H17.8C17.5373 6.25001 17.2124 5.99643 17.1464 5.61858L17.0481 4.04547L17.0474 4.03772C16.8998 2.2663 14.8035 1.30671 13.4115 2.5308L12.1937 3.54562L12.1697 3.56968C11.9863 3.75307 11.5305 3.81577 11.1801 3.52384L9.98849 2.5308Z" fill="black"/>
</svg>
