<svg width="24" height="24" viewBox="0 0 24 24" fill="none" xmlns="http://www.w3.org/2000/svg">
<path fill-rule="evenodd" clip-rule="evenodd" d="M12.9983 4.95745C12.2835 4.31415 11.2165 4.31415 10.5017 4.95745L10.4955 4.96305L5.49546 9.36301L5.49387 9.36441C4.87108 9.90935 4.54999 10.6963 4.54999 11.5V18.6C4.54999 19.3858 5.2142 20.05 5.99999 20.05H6.44999V16.2C6.44999 14.9858 7.38577 14.05 8.59999 14.05H14.9C16.1142 14.05 17.05 14.9858 17.05 16.2V20.05H17.6C18.3858 20.05 19.05 19.3858 19.05 18.6V11.5C19.05 10.7448 18.6661 9.94194 18.0061 9.36441L18.0045 9.36301L12.9983 4.95745ZM13.9984 3.83952C12.7143 2.68679 10.7857 2.68679 9.50156 3.83955L4.50611 8.23554C4.50584 8.23578 4.50558 8.23601 4.50531 8.23624C3.52864 9.09126 3.04999 10.304 3.04999 11.5V18.6C3.04999 20.2142 4.38577 21.55 5.99999 21.55H7.94999V16.2C7.94999 15.8142 8.2142 15.55 8.59999 15.55H14.9C15.2858 15.55 15.55 15.8142 15.55 16.2V21.55H17.6C19.2142 21.55 20.55 20.2142 20.55 18.6V11.5C20.55 10.2555 19.9342 9.05871 18.9947 8.23626C18.9944 8.23602 18.9941 8.23578 18.9939 8.23554L13.9984 3.83952Z" fill="black"/>
<path d="M16.3 16.1999V20.7999H7.29999V16.1999C7.29999 15.3999 7.89999 14.7999 8.69999 14.7999H14.9C15.6 14.8999 16.3 15.4999 16.3 16.1999Z" fill="black"/>
<path fill-rule="evenodd" clip-rule="evenodd" d="M8.69999 15.5499C8.3142 15.5499 8.04999 15.8141 8.04999 16.1999V20.0499H15.55V16.1999C15.55 16.1071 15.5014 15.9668 15.3452 15.818C15.2014 15.681 15.0129 15.585 14.8378 15.5499H8.69999ZM6.54999 16.1999C6.54999 14.9857 7.48577 14.0499 8.69999 14.0499H14.9533L15.0061 14.0575C15.5191 14.1308 16.0107 14.3804 16.3797 14.7318C16.7486 15.0831 17.05 15.5928 17.05 16.1999V21.5499H6.54999V16.1999Z" fill="black"/>
</svg>
