<svg width="24" height="24" viewBox="0 0 24 24" fill="none" xmlns="http://www.w3.org/2000/svg">
<path d="M11.5 15.3001C13.5987 15.3001 15.3 13.5988 15.3 11.5001C15.3 9.40139 13.5987 7.70007 11.5 7.70007C9.40132 7.70007 7.7 9.40139 7.7 11.5001C7.7 13.5988 9.40132 15.3001 11.5 15.3001Z" fill="black"/>
<path fill-rule="evenodd" clip-rule="evenodd" d="M11.5 8.45007C9.81554 8.45007 8.45 9.8156 8.45 11.5001C8.45 13.1845 9.81554 14.5501 11.5 14.5501C13.1845 14.5501 14.55 13.1845 14.55 11.5001C14.55 9.8156 13.1845 8.45007 11.5 8.45007ZM6.95 11.5001C6.95 8.98718 8.98711 6.95007 11.5 6.95007C14.0129 6.95007 16.05 8.98718 16.05 11.5001C16.05 14.013 14.0129 16.0501 11.5 16.0501C8.98711 16.0501 6.95 14.013 6.95 11.5001Z" fill="black"/>
<path fill-rule="evenodd" clip-rule="evenodd" d="M13.7697 13.7697C14.0626 13.4768 14.5374 13.4768 14.8303 13.7697L16.3303 15.2697C16.6232 15.5626 16.6232 16.0375 16.3303 16.3304C16.0374 16.6233 15.5626 16.6233 15.2697 16.3304L13.7697 14.8304C13.4768 14.5375 13.4768 14.0626 13.7697 13.7697Z" fill="black"/>
<path fill-rule="evenodd" clip-rule="evenodd" d="M8.8 3.55005C5.91422 3.55005 3.55 5.91426 3.55 8.80005V14.8C3.55 17.6858 5.91422 20.05 8.8 20.05H14.8C17.6858 20.05 20.05 17.6858 20.05 14.8V8.80005C20.05 5.91426 17.6858 3.55005 14.8 3.55005H8.8ZM2.05 8.80005C2.05 5.08584 5.08579 2.05005 8.8 2.05005H14.8C18.5142 2.05005 21.55 5.08584 21.55 8.80005V14.8C21.55 18.5143 18.5142 21.55 14.8 21.55H8.8C5.08579 21.55 2.05 18.5143 2.05 14.8V8.80005Z" fill="black"/>
</svg>
