<svg width="24" height="24" viewBox="0 0 24 24" fill="none" xmlns="http://www.w3.org/2000/svg">
<path d="M13.5 4.2C14.8 3.1 16.7 3.9 16.9 5.6C17 6.6 17.8 7.4 18.8 7.5C20.5 7.6 21.3 9.6 20.2 10.9C19.6 11.7 19.6 12.8 20.2 13.5C21.3 14.8 20.5 16.7 18.8 16.9C17.8 17 17 17.8 16.9 18.8C16.8 20.5 14.8 21.3 13.5 20.2C12.7 19.6 11.6 19.6 10.9 20.2C9.6 21.3 7.7 20.5 7.5 18.8C7.4 17.8 6.6 17 5.6 16.9C3.9 16.8 3.1 14.8 4.2 13.5C4.8 12.7 4.8 11.6 4.2 10.9C3.2 9.6 4 7.6 5.6 7.5C6.6 7.4 7.4 6.6 7.5 5.6C7.6 4 9.6 3.2 10.9 4.2C11.6 4.9 12.7 4.9 13.5 4.2Z" fill="black"/>
<path fill-rule="evenodd" clip-rule="evenodd" d="M13.9884 4.76918C12.9407 5.68149 11.4206 5.738 10.411 4.77072C9.99987 4.47272 9.47741 4.43846 9.03299 4.61953C8.58025 4.80398 8.27778 5.1791 8.24855 5.64674L8.24768 5.66068L8.24629 5.67458C8.11077 7.02978 7.02983 8.11072 5.67464 8.24623L5.66074 8.24762L5.6468 8.2485C5.17916 8.27772 4.80403 8.58019 4.61958 9.03293C4.43573 9.48421 4.47388 10.016 4.78476 10.4299C5.62434 11.4277 5.58067 12.9091 4.80001 13.95L4.78679 13.9676L4.77255 13.9844C4.04563 14.8435 4.60106 16.0899 5.64406 16.1513L5.65937 16.1522L5.67464 16.1537C7.0273 16.2889 8.10674 17.3661 8.24552 18.7177C8.38317 19.8565 9.60033 20.3153 10.414 19.6287C11.4119 18.7752 12.9036 18.8151 13.95 19.6L13.9676 19.6132L13.9845 19.6274C14.8436 20.3543 16.09 19.7989 16.1513 18.7559L16.1522 18.7406L16.1537 18.7253C16.289 17.3727 17.3662 16.2932 18.7178 16.1544C19.8566 16.0168 20.3154 14.7996 19.6288 13.9859C18.7752 12.988 18.8152 11.4964 19.6 10.45L19.6132 10.4323L19.6275 10.4155C20.3544 9.55641 19.799 8.31002 18.756 8.24866L18.7407 8.24776L18.7254 8.24623C17.3727 8.11097 16.2933 7.0338 16.1545 5.68215C16.017 4.54451 14.8021 4.08547 13.9884 4.76918ZM13.0156 3.62742C14.8006 2.11701 17.3794 3.25577 17.6449 5.51233L17.6464 5.52532L17.6463 5.52533C17.7104 6.16595 18.2231 6.68244 18.8621 6.75236C21.1975 6.90338 22.234 9.62727 20.7891 11.3647C20.3861 11.9153 20.4279 12.6134 20.7695 13.0119L20.7726 13.0155L20.7726 13.0155C22.283 14.8005 21.1442 17.3793 18.8876 17.6448L18.8747 17.6463L18.8746 17.6462C18.234 17.7103 17.7175 18.223 17.6476 18.862C17.4966 21.1975 14.7727 22.234 13.0353 20.789C12.4846 20.386 11.7866 20.4278 11.3881 20.7694L11.3845 20.7725L11.3845 20.7725C9.59945 22.2829 7.02063 21.1441 6.75515 18.8876L6.75362 18.8746L6.75374 18.8746C6.68968 18.234 6.17692 17.7175 5.53795 17.6475C3.2025 17.4965 2.166 14.7726 3.61094 13.0352C4.01393 12.4846 3.97214 11.7865 3.63057 11.3881L3.61765 11.373L3.60555 11.3572C2.92534 10.473 2.8662 9.36104 3.23045 8.46698C3.59421 7.5741 4.41284 6.82948 5.53669 6.7525C6.17249 6.68353 6.68359 6.17243 6.75256 5.53663C6.82954 4.41278 7.57416 3.59416 8.46704 3.23039C9.3611 2.86614 10.473 2.92528 11.3573 3.60549L11.3959 3.63519L11.4303 3.66963C11.8195 4.05878 12.4684 4.10606 13.0061 3.63552L13.0155 3.62734L13.0156 3.62742Z" fill="black"/>
</svg>
