<svg xmlns="http://www.w3.org/2000/svg" fill="none" viewBox="0 0 24 24">
  <path fill="#000" d="M19.8 11.5v7.1c0 1.2-1 2.2-2.2 2.2h-1.3v-4.6c0-.8-.6-1.4-1.4-1.4H8.6c-.8 0-1.4.6-1.4 1.4v4.6H6c-1.2 0-2.2-1-2.2-2.2v-7.1c0-1 .4-2 1.2-2.7l5-4.4c1-.9 2.5-.9 3.5 0l5 4.4c.8.7 1.3 1.7 1.3 2.7Z"/>
  <path fill="#000" fill-rule="evenodd" d="M12.998 4.957a1.856 1.856 0 0 0-2.496 0l-.007.006-5 4.4-.001.001A2.822 2.822 0 0 0 4.55 11.5v7.1c0 .786.664 1.45 1.45 1.45h.45V16.2c0-1.214.936-2.15 2.15-2.15h6.3c1.214 0 2.15.936 2.15 2.15v3.85h.55a1.47 1.47 0 0 0 1.45-1.45v-7.1c0-.755-.384-1.558-1.044-2.136l-.002-.001-5.006-4.406Zm1-1.117a3.356 3.356 0 0 0-4.496 0L4.506 8.236c-.977.855-1.456 2.068-1.456 3.264v7.1A2.97 2.97 0 0 0 6 21.55h1.95V16.2c0-.386.264-.65.65-.65h6.3c.386 0 .65.264.65.65v5.35h2.05a2.97 2.97 0 0 0 2.95-2.95v-7.1c0-1.245-.616-2.441-1.555-3.264h-.001L13.998 3.84Z" clip-rule="evenodd"/>
  <path fill="#000" fill-rule="evenodd" d="M8.7 15.55c-.386 0-.65.264-.65.65v3.85h7.5V16.2c0-.093-.049-.233-.205-.382a1.068 1.068 0 0 0-.507-.268H8.7Zm-2.15.65c0-1.214.936-2.15 2.15-2.15h6.253l.053.007a2.551 2.551 0 0 1 1.374.675c.369.351.67.86.67 1.468v5.35H6.55V16.2Z" clip-rule="evenodd"/>
  <path fill="#000" fill-rule="evenodd" d="M6.55 17.9a.75.75 0 0 1 .75-.75h9a.75.75 0 0 1 0 1.5h-9a.75.75 0 0 1-.75-.75Z" clip-rule="evenodd"/>
</svg>
