<svg width="24" height="24" viewBox="0 0 24 24" fill="none" xmlns="http://www.w3.org/2000/svg">
<path fill-rule="evenodd" clip-rule="evenodd" d="M14.6394 9.49836C14.1542 8.95244 13.2559 8.90485 12.6303 9.53041L12.5926 9.5681L11.6296 10.2904L10.8697 9.53041C10.7315 9.39223 10.5598 9.27383 10.392 9.20194C10.2192 9.12788 10.1028 9.12437 10.0471 9.13552L9.97425 9.15008H9.89998C9.4585 9.15008 9.0746 9.29642 8.84515 9.5159C8.31755 10.1256 8.31826 10.9777 8.84728 11.5867L11.5812 14.3207C11.6389 14.3541 11.7135 14.3751 11.7875 14.3751C11.8435 14.3751 11.871 14.3642 11.8788 14.3606L14.3697 11.8698L14.6387 11.6007C14.9327 11.2237 15.05 10.892 15.05 10.5001C15.05 10.1668 14.9078 9.76854 14.6697 9.53041L14.6541 9.51483L14.6394 9.49836ZM15.7461 8.48565C14.6851 7.30987 12.9256 7.29838 11.7498 8.30316C11.5238 8.11059 11.2622 7.94292 10.9829 7.82322C10.6516 7.68124 10.2483 7.58744 9.83183 7.65076C9.10237 7.66534 8.32481 7.9146 7.76965 8.46975L7.75407 8.48534L7.73942 8.50181C6.68683 9.68597 6.68683 11.4142 7.73942 12.5984L7.75407 12.6148L10.6073 15.4681L10.65 15.5001C10.9898 15.7549 11.4006 15.8751 11.7875 15.8751C12.1681 15.8751 12.6046 15.7562 12.9303 15.4304L15.7597 12.601L15.7856 12.5686C16.2737 11.9585 16.55 11.2975 16.55 10.5001C16.55 9.83959 16.297 9.04667 15.7461 8.48565Z" fill="black"/>
<path fill-rule="evenodd" clip-rule="evenodd" d="M8.79999 3.55005C5.9142 3.55005 3.54999 5.91426 3.54999 8.80005V14.8C3.54999 17.6858 5.9142 20.05 8.79999 20.05H14.8C17.6858 20.05 20.05 17.6858 20.05 14.8V8.80005C20.05 5.91426 17.6858 3.55005 14.8 3.55005H8.79999ZM2.04999 8.80005C2.04999 5.08584 5.08577 2.05005 8.79999 2.05005H14.8C18.5142 2.05005 21.55 5.08584 21.55 8.80005V14.8C21.55 18.5143 18.5142 21.55 14.8 21.55H8.79999C5.08577 21.55 2.04999 18.5143 2.04999 14.8V8.80005Z" fill="black"/>
</svg>
