<svg width="24" height="24" viewBox="0 0 24 24" fill="none" xmlns="http://www.w3.org/2000/svg">
<path fill-rule="evenodd" clip-rule="evenodd" d="M12.9983 4.45757C12.2835 3.81427 11.2165 3.81427 10.5017 4.45757L10.4955 4.46317L5.5143 8.84656C4.93351 9.43504 4.55 10.2452 4.55 11.0001V18.1001C4.55 18.8859 5.21421 19.5501 6 19.5501H17.5C18.4238 19.5501 19.0112 18.8651 18.9526 18.1624L18.95 18.1313V11.0001C18.95 10.1964 18.6289 9.40947 18.0061 8.86453L18.0045 8.86313L12.9983 4.45757ZM13.9984 3.33965C12.7143 2.18691 10.7857 2.18692 9.50157 3.33967L4.48658 7.75286L4.46967 7.76977C3.65942 8.58001 3.05 9.76196 3.05 11.0001V18.1001C3.05 19.7143 4.38579 21.0501 6 21.0501H17.5C19.1652 21.0501 20.5702 19.7523 20.45 18.0713V11.0001C20.45 9.80413 19.9714 8.5914 18.9947 7.73638C18.9944 7.73614 18.9942 7.7359 18.9939 7.73567L13.9984 3.33965Z" fill="black"/>
<path d="M11.8 13.8C12.9046 13.8 13.8 12.9046 13.8 11.8C13.8 10.6955 12.9046 9.80005 11.8 9.80005C10.6954 9.80005 9.8 10.6955 9.8 11.8C9.8 12.9046 10.6954 13.8 11.8 13.8Z" fill="black"/>
<path fill-rule="evenodd" clip-rule="evenodd" d="M11.8 10.55C11.1096 10.55 10.55 11.1097 10.55 11.8C10.55 12.4904 11.1096 13.05 11.8 13.05C12.4904 13.05 13.05 12.4904 13.05 11.8C13.05 11.1097 12.4904 10.55 11.8 10.55ZM9.05 11.8C9.05 10.2813 10.2812 9.05005 11.8 9.05005C13.3188 9.05005 14.55 10.2813 14.55 11.8C14.55 13.3188 13.3188 14.55 11.8 14.55C10.2812 14.55 9.05 13.3188 9.05 11.8Z" fill="black"/>
<path fill-rule="evenodd" clip-rule="evenodd" d="M16.6 2.05005C17.0142 2.05005 17.35 2.38584 17.35 2.80005V6.50005C17.35 6.91426 17.0142 7.25005 16.6 7.25005C16.1858 7.25005 15.85 6.91426 15.85 6.50005V2.80005C15.85 2.38584 16.1858 2.05005 16.6 2.05005Z" fill="black"/>
</svg>
