<svg width="24" height="24" viewBox="0 0 24 24" fill="none" xmlns="http://www.w3.org/2000/svg">
<path fill-rule="evenodd" clip-rule="evenodd" d="M19.8 10.05C20.2142 10.05 20.55 10.3858 20.55 10.8V14.8C20.55 17.4143 18.4142 19.55 15.8 19.55H14.2C13.7858 19.55 13.45 19.2143 13.45 18.8C13.45 18.3858 13.7858 18.05 14.2 18.05H15.8C17.5858 18.05 19.05 16.5858 19.05 14.8V10.8C19.05 10.3858 19.3858 10.05 19.8 10.05Z" fill="black"/>
<path fill-rule="evenodd" clip-rule="evenodd" d="M3.05 10.8C3.05 5.98584 6.98579 2.05005 11.8 2.05005C12.2142 2.05005 12.55 2.38584 12.55 2.80005C12.55 3.21426 12.2142 3.55005 11.8 3.55005C7.81422 3.55005 4.55 6.81426 4.55 10.8V14.8C4.55 16.5858 6.01422 18.05 7.8 18.05H9.4C9.81422 18.05 10.15 18.3858 10.15 18.8C10.15 19.2143 9.81422 19.55 9.4 19.55H7.8C5.18579 19.55 3.05 17.4143 3.05 14.8V10.8Z" fill="black"/>
<path d="M14.3 19.3C14.3 20.7 13.2 21.8 11.8 21.8C10.4 21.8 9.3 20.7 9.3 19.3C9.3 19.1 9.3 19 9.3 18.8H14.2C14.2 18.9 14.3 19.1 14.3 19.3Z" fill="black"/>
<path fill-rule="evenodd" clip-rule="evenodd" d="M8.55 18.05H14.95V18.7339C14.9509 18.7369 14.9519 18.7402 14.9529 18.7437C14.957 18.7578 14.9626 18.7766 14.9711 18.8065C14.9982 18.9011 15.05 19.0876 15.05 19.3C15.05 21.1143 13.6142 22.55 11.8 22.55C9.98579 22.55 8.55 21.1143 8.55 19.3V18.05ZM10.0667 19.55C10.1836 20.4121 10.8993 21.05 11.8 21.05C12.7007 21.05 13.4164 20.4121 13.5333 19.55H10.0667Z" fill="black"/>
<path d="M17.8 6.80005C18.9046 6.80005 19.8 5.90462 19.8 4.80005C19.8 3.69548 18.9046 2.80005 17.8 2.80005C16.6954 2.80005 15.8 3.69548 15.8 4.80005C15.8 5.90462 16.6954 6.80005 17.8 6.80005Z" fill="black"/>
<path fill-rule="evenodd" clip-rule="evenodd" d="M17.8 3.55005C17.1096 3.55005 16.55 4.10969 16.55 4.80005C16.55 5.4904 17.1096 6.05005 17.8 6.05005C18.4904 6.05005 19.05 5.49041 19.05 4.80005C19.05 4.10969 18.4904 3.55005 17.8 3.55005ZM15.05 4.80005C15.05 3.28127 16.2812 2.05005 17.8 2.05005C19.3188 2.05005 20.55 3.28127 20.55 4.80005C20.55 6.31883 19.3188 7.55005 17.8 7.55005C16.2812 7.55005 15.05 6.31883 15.05 4.80005Z" fill="black"/>
</svg>
