<svg xmlns="http://www.w3.org/2000/svg" fill="none" viewBox="0 0 24 24">
  <path fill="#000" fill-rule="evenodd" d="M9.531 3.214c1.274-1.019 3.164-1.019 4.438 0l.012.01 3.12 2.717 1.896 1.697c.947.83 1.553 2.03 1.553 3.362v7.1a2.97 2.97 0 0 1-2.95 2.95h-4.55V15.7c0-.284-.05-.509-.104-.65h-2.292a1.86 1.86 0 0 0-.104.65v5.35H6a2.97 2.97 0 0 1-2.95-2.95V11c0-1.285.471-2.502 1.455-3.364h.001l5.012-4.41.013-.012Zm.95 1.162L5.495 8.763l-.001.002c-.615.538-.944 1.32-.944 2.235v7.1c0 .786.664 1.45 1.45 1.45h3.05V15.7c0-.485.09-.944.254-1.308.08-.18.194-.368.351-.522a1.07 1.07 0 0 1 .745-.32h2.8c.336 0 .59.168.745.32.157.154.27.342.351.522.164.364.254.823.254 1.308v3.85h3.05a1.47 1.47 0 0 0 1.45-1.45V11c0-.866-.393-1.666-1.044-2.235L18 8.759l-1.896-1.697-3.084-2.685c-.722-.569-1.816-.57-2.539-.001ZM11.8 8.05c-.686 0-1.25.564-1.25 1.25s.564 1.25 1.25 1.25c.61 0 1.25-.588 1.25-1.25 0-.686-.564-1.25-1.25-1.25ZM9.05 9.3a2.756 2.756 0 0 1 2.75-2.75 2.756 2.756 0 0 1 2.75 2.75c0 1.538-1.36 2.75-2.75 2.75A2.756 2.756 0 0 1 9.05 9.3Z" clip-rule="evenodd"/>
  <path fill="#000" d="M13.8 15.7v4.6h-4v-4.6c0-.8.3-1.4.6-1.4h2.8c.3 0 .6.6.6 1.4Z"/>
  <path fill="#000" fill-rule="evenodd" d="M10.654 15.05a1.86 1.86 0 0 0-.104.65v3.85h2.5V15.7c0-.284-.05-.509-.104-.65h-2.292Zm-.999-1.18a1.07 1.07 0 0 1 .745-.32h2.8c.336 0 .59.168.745.32.157.154.27.342.351.522.164.364.254.823.254 1.308v5.35h-5.5V15.7c0-.485.09-.944.254-1.308.08-.18.194-.368.351-.522ZM16.6 2.05a.75.75 0 0 1 .75.75v3.7a.75.75 0 0 1-1.5 0V2.8a.75.75 0 0 1 .75-.75Z" clip-rule="evenodd"/>
  <path fill="#000" d="M11.8 11.3a2 2 0 1 0 0-4 2 2 0 0 0 0 4Z"/>
  <path fill="#000" fill-rule="evenodd" d="M11.8 8.05a1.25 1.25 0 1 0 0 2.5 1.25 1.25 0 0 0 0-2.5ZM9.05 9.3a2.75 2.75 0 1 1 5.5 0 2.75 2.75 0 0 1-5.5 0Z" clip-rule="evenodd"/>
</svg>
