<svg width="24" height="24" viewBox="0 0 24 24" fill="none" xmlns="http://www.w3.org/2000/svg">
<path fill-rule="evenodd" clip-rule="evenodd" d="M12.9983 4.95745C12.2835 4.31415 11.2165 4.31415 10.5017 4.95745L10.4955 4.96305L5.49547 9.36301L5.49388 9.36441C4.87109 9.90935 4.55 10.6963 4.55 11.5V18.6C4.55 19.3858 5.21422 20.05 6 20.05H6.45V16.2C6.45 14.9858 7.38579 14.05 8.6 14.05H14.9C16.1142 14.05 17.05 14.9858 17.05 16.2V20.05H17.6C18.3858 20.05 19.05 19.3858 19.05 18.6V11.5C19.05 10.7448 18.6662 9.94194 18.0061 9.36441L18.0045 9.36301L12.9983 4.95745ZM13.9984 3.83952C12.7143 2.68679 10.7857 2.68679 9.50157 3.83955L4.50612 8.23554C4.50586 8.23578 4.50559 8.23601 4.50533 8.23624C3.52865 9.09126 3.05 10.304 3.05 11.5V18.6C3.05 20.2142 4.38579 21.55 6 21.55H7.95V16.2C7.95 15.8142 8.21422 15.55 8.6 15.55H14.9C15.2858 15.55 15.55 15.8142 15.55 16.2V21.55H17.6C19.2142 21.55 20.55 20.2142 20.55 18.6V11.5C20.55 10.2555 19.9342 9.05871 18.9947 8.23626C18.9944 8.23602 18.9942 8.23578 18.9939 8.23554L13.9984 3.83952Z" fill="black"/>
<path fill-rule="evenodd" clip-rule="evenodd" d="M6.55 17.15H17.05V21.65H6.55V17.15ZM8.05 18.65V20.15H15.55V18.65H8.05Z" fill="black"/>
<path d="M16.3 16.3V17.9H7.3V16.3C7.3 15.5 7.9 14.9 8.7 14.9H14.9C15.6 14.9 16.3 15.5 16.3 16.3Z" fill="black"/>
<path fill-rule="evenodd" clip-rule="evenodd" d="M8.7 15.65C8.31422 15.65 8.05 15.9142 8.05 16.3V17.15H15.55V16.3C15.55 15.9483 15.2207 15.65 14.9 15.65H8.7ZM6.55 16.3C6.55 15.0858 7.48579 14.15 8.7 14.15H14.9C15.9793 14.15 17.05 15.0517 17.05 16.3V18.65H6.55V16.3Z" fill="black"/>
<path fill-rule="evenodd" clip-rule="evenodd" d="M8.05 10.2999C8.05 9.88571 8.38579 9.54993 8.8 9.54993H14.8C15.2142 9.54993 15.55 9.88571 15.55 10.2999C15.55 10.7141 15.2142 11.0499 14.8 11.0499H8.8C8.38579 11.0499 8.05 10.7141 8.05 10.2999Z" fill="black"/>
</svg>
