<svg xmlns="http://www.w3.org/2000/svg" fill="none" viewBox="0 0 24 24">
  <path fill="#000" fill-rule="evenodd" d="M12.998 4.957a1.856 1.856 0 0 0-2.496 0l-.007.006-4.98 4.383c-.581.589-.965 1.399-.965 2.154v7.2c0 .786.664 1.45 1.45 1.45h11.5c.897 0 1.516-.662 1.452-1.492l-.002-.03V11.5c0-.804-.321-1.59-.944-2.136l-.002-.001-5.006-4.406Zm1-1.117a3.356 3.356 0 0 0-4.496 0L4.487 8.253l-.017.017c-.81.81-1.42 1.992-1.42 3.23v7.2A2.97 2.97 0 0 0 6 21.65h11.5c1.693 0 3.068-1.323 2.95-3.077V11.5c0-1.196-.479-2.409-1.455-3.264h-.001L13.998 3.84Z" clip-rule="evenodd"/>
  <path fill="#000" d="M11.8 14.3a2 2 0 1 0 0-4 2 2 0 0 0 0 4Z"/>
  <path fill="#000" fill-rule="evenodd" d="M11.8 11.05a1.25 1.25 0 1 0 0 2.5 1.25 1.25 0 0 0 0-2.5ZM9.05 12.3a2.75 2.75 0 1 1 5.5 0 2.75 2.75 0 0 1-5.5 0Z" clip-rule="evenodd"/>
</svg>
