<svg xmlns="http://www.w3.org/2000/svg" fill="none" viewBox="0 0 24 24">
  <path fill="#000" d="M18.8 4.8c0 .7-.3 1.3-.8 1.6-.3.3-.7.4-1.2.4-1.1 0-2-.9-2-2 0-.4.1-.8.4-1.2.4-.5 1-.8 1.6-.8 1 0 2 .8 2 2Z"/>
  <path fill="#000" fill-rule="evenodd" d="M15.793 4.06a1.172 1.172 0 0 0-.243.74c0 .686.564 1.25 1.25 1.25.409 0 .572-.082.67-.18l.065-.066.08-.047c.225-.135.435-.458.435-.957 0-.738-.615-1.25-1.25-1.25-.352 0-.739.18-1.007.51Zm-1.179-.928c.532-.665 1.341-1.082 2.186-1.082 1.365 0 2.75 1.088 2.75 2.75 0 .871-.364 1.72-1.087 2.195-.49.447-1.098.555-1.663.555a2.756 2.756 0 0 1-2.75-2.75c0-.542.141-1.105.55-1.65l.007-.01.007-.008Z" clip-rule="evenodd"/>
  <path fill="#000" d="M14 18.8c0 1.2-1 2.2-2.2 2.2-1.2 0-2.2-1-2.2-2.2H14Z"/>
  <path fill="#000" fill-rule="evenodd" d="M8.85 18.05h5.9v.75a2.97 2.97 0 0 1-2.95 2.95 2.97 2.97 0 0 1-2.95-2.95v-.75Zm1.716 1.5c.258.416.72.7 1.234.7s.975-.284 1.234-.7h-2.468Z" clip-rule="evenodd"/>
  <path fill="#000" fill-rule="evenodd" d="M8.85 18.3h1.5v.4h-1.5v-.4Zm5.9.5h-1.5v-.4h1.5v.4Zm2.764-13.043a.75.75 0 0 1 1.03.257c.68 1.134 1.006 2.472 1.006 3.886v3.6c0 .493-.12.97-.214 1.348l-.008.034a.75.75 0 1 1-1.456-.364c.105-.418.178-.726.178-1.018V9.9c0-1.186-.274-2.248-.793-3.114a.75.75 0 0 1 .257-1.03ZM11.8 3.55c-3.486 0-6.35 2.864-6.35 6.35v3.5c0 .292.073.6.178 1.018a.75.75 0 0 1-1.456.364l-.008-.034c-.095-.377-.214-.854-.214-1.348V9.9c0-4.314 3.536-7.85 7.85-7.85 1.32 0 2.656.33 3.786 1.007a.75.75 0 0 1-.772 1.286c-.87-.522-1.934-.793-3.014-.793Z" clip-rule="evenodd"/>
  <path fill="#000" fill-rule="evenodd" d="M5.57 14.265a.75.75 0 0 1-.335 1.006 1.5 1.5 0 0 0-.175.107c-.05.033-.114.076-.192.121-.193.234-.318.593-.318 1.001 0 .786.664 1.45 1.45 1.45h3.6a.75.75 0 0 1 0 1.5H6a2.97 2.97 0 0 1-2.95-2.95c0-.749.247-1.558.82-2.13l.086-.086.109-.055c.053-.027.094-.053.169-.103l.006-.004c.075-.05.183-.122.325-.193a.75.75 0 0 1 1.006.336Zm12.379-.037a.75.75 0 0 1 1.023-.28A2.894 2.894 0 0 1 20.45 16.5c0 .826-.399 1.582-.75 2.05l-.032.043-.038.037c-.572.573-1.381.82-2.13.82H14a.75.75 0 0 1 0-1.5h3.5c.428 0 .803-.138 1.034-.346.233-.326.416-.746.416-1.104 0-.534-.258-.984-.722-1.249a.75.75 0 0 1-.28-1.023Z" clip-rule="evenodd"/>
</svg>
