<svg width="24" height="24" viewBox="0 0 24 24" fill="none" xmlns="http://www.w3.org/2000/svg">
<path fill-rule="evenodd" clip-rule="evenodd" d="M11.6 5.25C7.65117 5.25 4.45 8.45116 4.45 12.4C4.45 16.3488 7.65117 19.55 11.6 19.55C15.5488 19.55 18.75 16.3488 18.75 12.4C18.75 8.45116 15.5488 5.25 11.6 5.25ZM2.95 12.4C2.95 7.62274 6.82274 3.75 11.6 3.75C16.3773 3.75 20.25 7.62274 20.25 12.4C20.25 17.1773 16.3773 21.05 11.6 21.05C6.82274 21.05 2.95 17.1773 2.95 12.4Z" fill="black"/>
<path fill-rule="evenodd" clip-rule="evenodd" d="M5.83033 3.26972C6.12322 3.56261 6.12322 4.03749 5.83033 4.33038L4.33033 5.83038C4.03744 6.12327 3.56256 6.12327 3.26967 5.83038C2.97678 5.53749 2.97678 5.06261 3.26967 4.76972L4.76967 3.26972C5.06256 2.97683 5.53744 2.97683 5.83033 3.26972Z" fill="black"/>
<path fill-rule="evenodd" clip-rule="evenodd" d="M7.44715 18.5871C7.73045 18.8893 7.71514 19.364 7.41296 19.6473L5.81296 21.1473C5.51077 21.4306 5.03615 21.4152 4.75285 21.1131C4.46955 20.8109 4.48486 20.3362 4.78705 20.0529L6.38705 18.5529C6.68923 18.2696 7.16386 18.285 7.44715 18.5871Z" fill="black"/>
<path fill-rule="evenodd" clip-rule="evenodd" d="M17.3528 3.2871C17.6361 2.98491 18.1108 2.9696 18.413 3.2529L20.013 4.7529C20.3151 5.0362 20.3305 5.51082 20.0472 5.81301C19.7639 6.11519 19.2892 6.1305 18.987 5.8472L17.387 4.3472C17.0849 4.06391 17.0695 3.58928 17.3528 3.2871Z" fill="black"/>
<path fill-rule="evenodd" clip-rule="evenodd" d="M15.7528 18.5871C16.0361 18.285 16.5108 18.2696 16.813 18.5529L18.413 20.0529C18.7151 20.3362 18.7305 20.8109 18.4472 21.1131C18.1639 21.4152 17.6892 21.4306 17.387 21.1473L15.787 19.6473C15.4849 19.364 15.4696 18.8893 15.7528 18.5871Z" fill="black"/>
<path fill-rule="evenodd" clip-rule="evenodd" d="M13.938 10.1775C14.2266 10.4746 14.2197 10.9494 13.9226 11.238L10.4226 14.638C10.1255 14.9267 9.65066 14.9198 9.36204 14.6227C9.07342 14.3256 9.08031 13.8507 9.37741 13.5621L12.8774 10.1621C13.1745 9.8735 13.6493 9.88038 13.938 10.1775Z" fill="black"/>
<path fill-rule="evenodd" clip-rule="evenodd" d="M9.36204 10.1775C9.65066 9.88038 10.1255 9.8735 10.4226 10.1621L13.9226 13.5621C14.2197 13.8507 14.2266 14.3256 13.938 14.6227C13.6493 14.9198 13.1745 14.9267 12.8774 14.638L9.37741 11.238C9.08031 10.9494 9.07342 10.4746 9.36204 10.1775Z" fill="black"/>
</svg>
