<svg xmlns="http://www.w3.org/2000/svg" fill="none" viewBox="0 0 24 24">
  <path fill="#000" d="M13.5 4.2c1.3-1.1 3.2-.3 3.4 1.4.1 1 .9 1.8 1.9 1.9 1.7.1 2.5 2.1 1.4 3.4-.6.8-.6 1.9 0 2.6 1.1 1.3.3 3.2-1.4 3.4-1 .1-1.8.9-1.9 1.9-.1 1.7-2.1 2.5-3.4 1.4-.8-.6-1.9-.6-2.6 0-1.3 1.1-3.2.3-3.4-1.4-.1-1-.9-1.8-1.9-1.9-1.7-.1-2.5-2.1-1.4-3.4.6-.8.6-1.9 0-2.6-1-1.3-.2-3.3 1.4-3.4 1-.1 1.8-.9 1.9-1.9.1-1.6 2.1-2.4 3.4-1.4.7.7 1.8.7 2.6 0Z"/>
  <path fill="#000" fill-rule="evenodd" d="M13.988 4.77c-1.047.911-2.567.968-3.577 0a1.425 1.425 0 0 0-1.378-.15c-.453.184-.755.56-.784 1.027l-.001.014-.002.014a2.88 2.88 0 0 1-2.571 2.571l-.014.002h-.014c-.468.03-.843.332-1.027.785-.184.451-.146.983.165 1.397.84.998.796 2.48.015 3.52l-.013.018-.014.016c-.727.86-.172 2.106.871 2.167l.015.001.016.002a2.88 2.88 0 0 1 2.57 2.564c.138 1.139 1.355 1.597 2.169.91.998-.853 2.49-.813 3.536-.028l.018.013.017.014c.859.727 2.105.172 2.166-.871l.001-.015.002-.016a2.88 2.88 0 0 1 2.564-2.57c1.139-.138 1.597-1.355.91-2.17-.853-.997-.813-2.489-.028-3.535l.013-.018.015-.017c.726-.859.171-2.105-.872-2.166l-.015-.001-.016-.002a2.88 2.88 0 0 1-2.57-2.564c-.138-1.137-1.353-1.597-2.167-.913Zm-.972-1.143c1.785-1.51 4.363-.371 4.629 1.885l.001.013a1.38 1.38 0 0 0 1.216 1.227c2.336.151 3.372 2.875 1.927 4.613-.403.55-.361 1.248-.02 1.647l.004.003c1.51 1.785.371 4.364-1.885 4.63l-.013.001a1.38 1.38 0 0 0-1.227 1.216c-.151 2.336-2.875 3.372-4.613 1.927-.55-.403-1.248-.361-1.647-.02l-.004.004c-1.785 1.51-4.363.371-4.629-1.885l-.001-.013a1.38 1.38 0 0 0-1.216-1.227c-2.336-.151-3.372-2.875-1.927-4.613.403-.55.361-1.248.02-1.647l-.013-.015-.012-.016a2.923 2.923 0 0 1-.376-2.89c.364-.893 1.183-1.638 2.307-1.715a1.38 1.38 0 0 0 1.216-1.215c.077-1.124.821-1.943 1.714-2.307.894-.364 2.006-.305 2.89.375l.039.03.034.035c.39.389 1.038.436 1.576-.034l.01-.009Z" clip-rule="evenodd"/>
</svg>
