<svg xmlns="http://www.w3.org/2000/svg" fill="none" viewBox="0 0 24 24">
  <path fill="#000" fill-rule="evenodd" d="M4.737 6.723a4.384 4.384 0 0 0 0 6.054l6.293 6.293a1.302 1.302 0 0 0 1.84 0l5.582-5.583.713-.815.033-.03c.823-.74 1.252-1.827 1.252-2.942 0-.995-.417-2.109-1.188-2.976a4.384 4.384 0 0 0-6.039.013l-1.189 1.19-1.362-1.192-.03-.033C9.903 5.879 8.816 5.45 7.7 5.45c-.996 0-2.103.417-2.963 1.273ZM3.67 5.67C4.809 4.53 6.299 3.95 7.7 3.95c1.47 0 2.968.56 4.026 1.714l.24.21.21-.211.008-.007a5.884 5.884 0 0 1 8.133 0l.02.02.02.022c1.017 1.13 1.593 2.606 1.593 4.002 0 1.47-.56 2.968-1.714 4.026l-.688.787-5.618 5.617a2.802 2.802 0 0 1-3.96 0l-6.307-6.306-.007-.008a5.884 5.884 0 0 1 0-8.133l.007-.007.007-.006Z" clip-rule="evenodd"/>
</svg>
