<svg width="24" height="24" viewBox="0 0 24 24" fill="none" xmlns="http://www.w3.org/2000/svg">
<path fill-rule="evenodd" clip-rule="evenodd" d="M12.9983 4.95745C12.2835 4.31415 11.2165 4.31415 10.5017 4.95745L10.4955 4.96305L5.51429 9.34644C4.9335 9.93492 4.54999 10.745 4.54999 11.5V18.7C4.54999 19.4858 5.2142 20.15 5.99999 20.15H17.5C18.3973 20.15 19.0161 19.4885 18.9522 18.6575L18.95 18.6288V11.5C18.95 10.6963 18.6289 9.90935 18.0061 9.36441L18.0045 9.36301L12.9983 4.95745ZM13.9984 3.83952C12.7143 2.68679 10.7857 2.68679 9.50156 3.83955L4.48657 8.25274L4.46966 8.26965C3.65941 9.07989 3.04999 10.2618 3.04999 11.5V18.7C3.04999 20.3142 4.38577 21.65 5.99999 21.65H17.5C19.1928 21.65 20.5679 20.3269 20.45 18.5731V11.5C20.45 10.304 19.9713 9.09128 18.9947 8.23626C18.9944 8.23602 18.9941 8.23578 18.9939 8.23554L13.9984 3.83952Z" fill="black"/>
<path d="M11.8 14.2999C12.9046 14.2999 13.8 13.4045 13.8 12.2999C13.8 11.1954 12.9046 10.2999 11.8 10.2999C10.6954 10.2999 9.79999 11.1954 9.79999 12.2999C9.79999 13.4045 10.6954 14.2999 11.8 14.2999Z" fill="black"/>
<path fill-rule="evenodd" clip-rule="evenodd" d="M11.8 11.0499C11.1096 11.0499 10.55 11.6096 10.55 12.2999C10.55 12.9903 11.1096 13.5499 11.8 13.5499C12.4903 13.5499 13.05 12.9903 13.05 12.2999C13.05 11.6096 12.4903 11.0499 11.8 11.0499ZM9.04999 12.2999C9.04999 10.7811 10.2812 9.54993 11.8 9.54993C13.3188 9.54993 14.55 10.7811 14.55 12.2999C14.55 13.8187 13.3188 15.0499 11.8 15.0499C10.2812 15.0499 9.04999 13.8187 9.04999 12.2999Z" fill="black"/>
</svg>
