<svg width="24" height="24" viewBox="0 0 24 24" fill="none" xmlns="http://www.w3.org/2000/svg">
<path d="M15.8 18.8H7.79999C5.59999 18.8 3.79999 17 3.79999 14.8V10.8C3.79999 6.40005 7.39999 2.80005 11.8 2.80005C16.2 2.80005 19.8 6.40005 19.8 10.8V14.8C19.8 17 18 18.8 15.8 18.8Z" fill="black"/>
<path fill-rule="evenodd" clip-rule="evenodd" d="M11.8 3.55005C7.8142 3.55005 4.54999 6.81426 4.54999 10.8V14.8C4.54999 16.5858 6.0142 18.05 7.79999 18.05H15.8C17.5858 18.05 19.05 16.5858 19.05 14.8V10.8C19.05 6.81426 15.7858 3.55005 11.8 3.55005ZM3.04999 10.8C3.04999 5.98584 6.98577 2.05005 11.8 2.05005C16.6142 2.05005 20.55 5.98584 20.55 10.8V14.8C20.55 17.4143 18.4142 19.55 15.8 19.55H7.79999C5.18577 19.55 3.04999 17.4143 3.04999 14.8V10.8Z" fill="black"/>
<path fill-rule="evenodd" clip-rule="evenodd" d="M10.051 19.1945C10.0501 19.2179 10.05 19.2463 10.05 19.3C10.05 20.2858 10.8142 21.05 11.8 21.05C12.7783 21.05 13.5384 20.2974 13.5499 19.3224C13.5475 19.3149 13.5439 19.3035 13.5385 19.2872C13.5374 19.2839 13.5362 19.2803 13.5349 19.2766C13.5079 19.196 13.45 19.0235 13.45 18.8H14.95C14.95 18.782 14.9462 18.7656 14.9464 18.7655C14.9466 18.7655 14.9499 18.778 14.9615 18.8128C14.9626 18.8162 14.9638 18.8197 14.965 18.8234C14.9921 18.904 15.05 19.0766 15.05 19.3C15.05 21.1142 13.6142 22.55 11.8 22.55C9.98578 22.55 8.54999 21.1142 8.54999 19.3C8.54999 19.2945 8.54998 19.2887 8.54998 19.2827C8.54985 19.1965 8.54967 19.0649 8.5727 18.9267C8.60042 18.7603 8.65479 18.6134 8.72917 18.4646L10.0708 19.1354C10.0595 19.158 10.0542 19.171 10.052 19.1768C10.0517 19.1802 10.0513 19.1859 10.051 19.1945Z" fill="black"/>
</svg>
