<svg width="24" height="24" viewBox="0 0 24 24" fill="none" xmlns="http://www.w3.org/2000/svg">
<path fill-rule="evenodd" clip-rule="evenodd" d="M18.95 10.8001C18.95 9.14327 18.4919 7.70968 17.6055 6.55739L18.7944 5.64282C19.9081 7.09053 20.45 8.85695 20.45 10.8001V14.8001C20.45 17.4143 18.3142 19.5501 15.7 19.5501H14.1V18.0501H15.7C17.4858 18.0501 18.95 16.5859 18.95 14.8001V10.8001Z" fill="black"/>
<path fill-rule="evenodd" clip-rule="evenodd" d="M11.8 3.55005C7.8142 3.55005 4.54999 6.81426 4.54999 10.8V14.8C4.54999 16.5858 6.0142 18.05 7.79999 18.05H9.29999V19.55H7.79999C5.18577 19.55 3.04999 17.4143 3.04999 14.8V10.8C3.04999 5.98584 6.98577 2.05005 11.8 2.05005C13.1194 2.05005 14.4339 2.3785 15.5354 2.92923L14.8646 4.27087C13.966 3.8216 12.8806 3.55005 11.8 3.55005Z" fill="black"/>
<path d="M14.3 19.3C14.3 20.7 13.2 21.8 11.8 21.8C10.4 21.8 9.29999 20.7 9.29999 19.3C9.29999 19.1 9.29999 19 9.29999 18.8H14.2C14.2 18.9 14.3 19.1 14.3 19.3Z" fill="black"/>
<path fill-rule="evenodd" clip-rule="evenodd" d="M8.54999 18.05H14.95V18.7339C14.9509 18.7369 14.9518 18.7402 14.9529 18.7437C14.957 18.7578 14.9626 18.7766 14.9711 18.8065C14.9982 18.9011 15.05 19.0876 15.05 19.3C15.05 21.1143 13.6142 22.55 11.8 22.55C9.98577 22.55 8.54999 21.1143 8.54999 19.3V18.05ZM10.0667 19.55C10.1836 20.4121 10.8993 21.05 11.8 21.05C12.7007 21.05 13.4164 20.4121 13.5333 19.55H10.0667Z" fill="black"/>
<path d="M16.8 6.80005C17.9046 6.80005 18.8 5.90462 18.8 4.80005C18.8 3.69548 17.9046 2.80005 16.8 2.80005C15.6954 2.80005 14.8 3.69548 14.8 4.80005C14.8 5.90462 15.6954 6.80005 16.8 6.80005Z" fill="black"/>
<path fill-rule="evenodd" clip-rule="evenodd" d="M16.8 3.55005C16.1096 3.55005 15.55 4.10969 15.55 4.80005C15.55 5.4904 16.1096 6.05005 16.8 6.05005C17.4903 6.05005 18.05 5.4904 18.05 4.80005C18.05 4.10969 17.4903 3.55005 16.8 3.55005ZM14.05 4.80005C14.05 3.28127 15.2812 2.05005 16.8 2.05005C18.3188 2.05005 19.55 3.28127 19.55 4.80005C19.55 6.31883 18.3188 7.55005 16.8 7.55005C15.2812 7.55005 14.05 6.31883 14.05 4.80005Z" fill="black"/>
</svg>
