<svg width="24" height="24" viewBox="0 0 24 24" fill="none" xmlns="http://www.w3.org/2000/svg">
<path d="M20.3001 17.0501H3.6001V6.85007C3.6001 5.25007 4.9001 3.95007 6.5001 3.95007H17.5001C19.1001 3.95007 20.4001 5.25007 20.4001 6.85007V17.0501H20.3001Z" fill="black"/>
<path fill-rule="evenodd" clip-rule="evenodd" d="M6.5001 4.70007C5.31431 4.70007 4.3501 5.66429 4.3501 6.85007V16.3001H19.6501V6.85007C19.6501 5.66429 18.6859 4.70007 17.5001 4.70007H6.5001ZM2.8501 6.85007C2.8501 4.83586 4.48588 3.20007 6.5001 3.20007H17.5001C19.5143 3.20007 21.1501 4.83586 21.1501 6.85007V17.8001H2.8501V6.85007Z" fill="black"/>
<path fill-rule="evenodd" clip-rule="evenodd" d="M3.5 17.8C3.11421 17.8 2.75 18.1643 2.75 18.55C2.75 18.9358 3.11421 19.3 3.5 19.3H20.5C20.8858 19.3 21.25 18.9358 21.25 18.55C21.25 18.1643 20.8858 17.8 20.5 17.8H3.5ZM1.25 18.55C1.25 17.3358 2.28579 16.3 3.5 16.3H20.5C21.7142 16.3 22.75 17.3358 22.75 18.55C22.75 19.7643 21.7142 20.8 20.5 20.8H3.5C2.28579 20.8 1.25 19.7643 1.25 18.55Z" fill="black"/>
<path fill-rule="evenodd" clip-rule="evenodd" d="M15.1385 9.12792C15.4269 9.42528 15.4196 9.9001 15.1222 10.1885L11.9165 13.297C11.847 13.402 11.7565 13.4859 11.6604 13.545C11.483 13.6542 11.3036 13.675 11.1876 13.675C10.9583 13.675 10.6816 13.5922 10.4698 13.3804L10.4321 13.3427L9.20009 11.7C8.95156 11.3687 9.01872 10.8986 9.35009 10.65C9.68146 10.4015 10.1516 10.4687 10.4001 10.8L11.2155 11.8873L14.078 9.1116C14.3753 8.82325 14.8502 8.83055 15.1385 9.12792Z" fill="white"/>
</svg>
