<svg width="24" height="24" viewBox="0 0 24 24" fill="none" xmlns="http://www.w3.org/2000/svg">
<path d="M21.2 9.69995C21.2 11 20.7 12.3 19.7 13.2L19 14L13.4 19.6C12.6 20.4 11.3 20.4 10.5 19.6L4.90002 14L4.20002 13.3C2.30002 11.3 2.30002 8.19995 4.20002 6.19995C5.20002 5.19995 6.50002 4.69995 7.70002 4.69995C9.00002 4.69995 10.3 5.19995 11.2 6.19995L12 6.89995L12.7 6.19995C14.7 4.29995 17.8 4.29995 19.8 6.19995C20.7 7.19995 21.2 8.49995 21.2 9.69995Z" fill="black"/>
<path fill-rule="evenodd" clip-rule="evenodd" d="M4.73716 6.7235C3.12089 8.432 3.12098 11.0683 4.73743 12.7767L11.0304 19.0696C11.5375 19.5767 12.3626 19.5767 12.8697 19.0696L18.452 13.4873L19.1651 12.6724L19.1983 12.6425C20.0211 11.902 20.45 10.8145 20.45 9.69995C20.45 8.70472 20.0333 7.59122 19.2621 6.72357C17.5533 5.12083 14.9269 5.12542 13.2233 6.73735L12.0342 7.92643L10.6725 6.73493L10.6426 6.70167C9.90202 5.87886 8.81462 5.44995 7.70002 5.44995C6.70382 5.44995 5.59715 5.86712 4.73716 6.7235ZM3.66969 5.66962C4.80874 4.53057 6.29885 3.94995 7.70002 3.94995C9.17087 3.94995 10.6684 4.5099 11.7262 5.66379L11.9658 5.87347L12.1765 5.66282L12.1835 5.6562C14.4729 3.4812 18.0271 3.4812 20.3166 5.6562L20.3379 5.67641L20.3575 5.69823C21.3738 6.82747 21.95 8.30358 21.95 9.69995C21.95 11.1708 21.3901 12.6683 20.2362 13.7261L19.548 14.5126L13.9304 20.1303C12.8375 21.2232 11.0626 21.2232 9.96969 20.1303L3.6629 13.8235L3.65627 13.8165C1.48127 11.527 1.48127 7.97286 3.65627 5.68339L3.6629 5.67642L3.66969 5.66962Z" fill="black"/>
</svg>
