<svg width="24" height="24" viewBox="0 0 24 24" fill="none" xmlns="http://www.w3.org/2000/svg">
<path fill-rule="evenodd" clip-rule="evenodd" d="M13.9984 3.83952L18.9939 8.23554C18.9942 8.23578 18.9944 8.23602 18.9947 8.23626C19.9342 9.05871 20.55 10.2555 20.55 11.5V18.6C20.55 20.2142 19.2142 21.55 17.6 21.55H13.05V16.2C13.05 15.9157 13.0008 15.691 12.9462 15.55H10.6538C10.5992 15.691 10.55 15.9157 10.55 16.2V21.55H6C4.38579 21.55 3.05 20.2142 3.05 18.6V11.5C3.05 10.304 3.52865 9.09126 4.50533 8.23624C4.50559 8.23601 4.50586 8.23578 4.50612 8.23554L9.50157 3.83955C10.7857 2.68679 12.7143 2.68679 13.9984 3.83952ZM12.9983 4.95745C12.2835 4.31415 11.2165 4.31415 10.5017 4.95745L10.4955 4.96305L5.49547 9.36301L5.49388 9.36441C4.87109 9.90935 4.55 10.6963 4.55 11.5V18.6C4.55 19.3858 5.21422 20.05 6 20.05H9.05V16.2C9.05 15.7146 9.13975 15.2562 9.30356 14.8922C9.38474 14.7118 9.49792 14.5239 9.65535 14.37C9.81082 14.218 10.0636 14.05 10.4 14.05H13.2C13.5364 14.05 13.7892 14.218 13.9447 14.37C14.1021 14.5239 14.2153 14.7118 14.2964 14.8922C14.4603 15.2562 14.55 15.7146 14.55 16.2V20.05H17.6C18.3858 20.05 19.05 19.3858 19.05 18.6V11.5C19.05 10.7448 18.6662 9.94194 18.0061 9.36441L18.0045 9.36301L12.9983 4.95745ZM11.8 8.64998C11.1142 8.64998 10.55 9.21419 10.55 9.89998C10.55 10.5858 11.1142 11.15 11.8 11.15C12.41 11.15 13.05 10.562 13.05 9.89998C13.05 9.21419 12.4858 8.64998 11.8 8.64998ZM9.05 9.89998C9.05 8.38576 10.2858 7.14998 11.8 7.14998C13.3142 7.14998 14.55 8.38576 14.55 9.89998C14.55 11.438 13.19 12.65 11.8 12.65C10.2858 12.65 9.05 11.4142 9.05 9.89998Z" fill="black"/>
<path d="M13.8 16.3V20.9H9.8V16.3C9.8 15.5 10.1 14.9 10.4 14.9H13.2C13.5 14.9 13.8 15.5 13.8 16.3Z" fill="black"/>
<path fill-rule="evenodd" clip-rule="evenodd" d="M10.6538 15.65C10.5992 15.791 10.55 16.0157 10.55 16.3V20.15H13.05V16.3C13.05 16.0157 13.0008 15.791 12.9462 15.65H10.6538ZM9.65535 14.47C9.81082 14.318 10.0636 14.15 10.4 14.15H13.2C13.5364 14.15 13.7892 14.318 13.9447 14.47C14.1021 14.624 14.2153 14.8119 14.2964 14.9923C14.4603 15.3563 14.55 15.8146 14.55 16.3V21.65H9.05V16.3C9.05 15.8146 9.13975 15.3563 9.30356 14.9923C9.38474 14.8119 9.49792 14.624 9.65535 14.47Z" fill="black"/>
<path d="M11.8 11.9C12.9046 11.9 13.8 11.0046 13.8 9.90002C13.8 8.79545 12.9046 7.90002 11.8 7.90002C10.6954 7.90002 9.8 8.79545 9.8 9.90002C9.8 11.0046 10.6954 11.9 11.8 11.9Z" fill="black"/>
<path fill-rule="evenodd" clip-rule="evenodd" d="M11.8 8.65002C11.1096 8.65002 10.55 9.20967 10.55 9.90002C10.55 10.5904 11.1096 11.15 11.8 11.15C12.4904 11.15 13.05 10.5904 13.05 9.90002C13.05 9.20967 12.4904 8.65002 11.8 8.65002ZM9.05 9.90002C9.05 8.38124 10.2812 7.15002 11.8 7.15002C13.3188 7.15002 14.55 8.38124 14.55 9.90002C14.55 11.4188 13.3188 12.65 11.8 12.65C10.2812 12.65 9.05 11.4188 9.05 9.90002Z" fill="black"/>
</svg>
