<svg width="24" height="24" viewBox="0 0 24 24" fill="none" xmlns="http://www.w3.org/2000/svg">
<path fill-rule="evenodd" clip-rule="evenodd" d="M11.6 5.25C7.65116 5.25 4.45 8.45116 4.45 12.4C4.45 16.3488 7.65116 19.55 11.6 19.55C15.5488 19.55 18.75 16.3488 18.75 12.4C18.75 8.45116 15.5488 5.25 11.6 5.25ZM2.95 12.4C2.95 7.62274 6.82273 3.75 11.6 3.75C16.3773 3.75 20.25 7.62274 20.25 12.4C20.25 17.1773 16.3773 21.05 11.6 21.05C6.82273 21.05 2.95 17.1773 2.95 12.4Z" fill="black"/>
<path fill-rule="evenodd" clip-rule="evenodd" d="M5.83033 3.26972C6.12323 3.56261 6.12323 4.03749 5.83033 4.33038L4.33033 5.83038C4.03744 6.12327 3.56257 6.12327 3.26967 5.83038C2.97678 5.53749 2.97678 5.06261 3.26967 4.76972L4.76967 3.26972C5.06257 2.97683 5.53744 2.97683 5.83033 3.26972Z" fill="black"/>
<path fill-rule="evenodd" clip-rule="evenodd" d="M7.44714 18.5871C7.73044 18.8893 7.71513 19.364 7.41295 19.6473L5.81295 21.1473C5.51076 21.4306 5.03614 21.4152 4.75284 21.1131C4.46954 20.8109 4.48485 20.3362 4.78703 20.0529L6.38703 18.5529C6.68922 18.2696 7.16385 18.285 7.44714 18.5871Z" fill="black"/>
<path fill-rule="evenodd" clip-rule="evenodd" d="M17.3528 3.2871C17.6361 2.98491 18.1108 2.9696 18.413 3.2529L20.013 4.7529C20.3151 5.0362 20.3304 5.51082 20.0471 5.81301C19.7639 6.11519 19.2892 6.1305 18.987 5.8472L17.387 4.3472C17.0849 4.06391 17.0695 3.58928 17.3528 3.2871Z" fill="black"/>
<path fill-rule="evenodd" clip-rule="evenodd" d="M15.7528 18.5871C16.0361 18.285 16.5108 18.2696 16.8129 18.5529L18.4129 20.0529C18.7151 20.3362 18.7304 20.8109 18.4471 21.1131C18.1638 21.4152 17.6892 21.4306 17.387 21.1473L15.787 19.6473C15.4849 19.364 15.4695 18.8893 15.7528 18.5871Z" fill="black"/>
<path fill-rule="evenodd" clip-rule="evenodd" d="M7.95 12.4C7.95 11.9858 8.28578 11.65 8.7 11.65H14C14.4142 11.65 14.75 11.9858 14.75 12.4C14.75 12.8142 14.4142 13.15 14 13.15H8.7C8.28578 13.15 7.95 12.8142 7.95 12.4Z" fill="black"/>
<path fill-rule="evenodd" clip-rule="evenodd" d="M11.6697 9.36969C11.9626 9.0768 12.4374 9.0768 12.7303 9.36969L14.9303 11.5697C15.1589 11.7983 15.3 12.1097 15.3 12.4375C15.3 12.7305 15.178 13.0681 14.8795 13.2838L12.742 15.5184C12.4557 15.8178 11.9809 15.8283 11.6816 15.542C11.3823 15.2557 11.3717 14.7809 11.658 14.4816L13.6443 12.405L11.6697 10.4304C11.3768 10.1375 11.3768 9.66259 11.6697 9.36969Z" fill="black"/>
</svg>
