<svg width="24" height="24" viewBox="0 0 24 24" fill="none" xmlns="http://www.w3.org/2000/svg">
<path fill-rule="evenodd" clip-rule="evenodd" d="M2.69998 9.75H20.7V11.7144L20.6994 11.7288C20.5904 14.5642 19.1714 17.0805 16.9801 18.6144C16.6407 18.852 16.1731 18.7694 15.9356 18.4301C15.698 18.0908 15.7805 17.6231 16.1199 17.3856C17.925 16.122 19.1049 14.044 19.2 11.6852V11.25H4.19998V11.3C4.19998 13.8402 5.46897 16.0267 7.29998 17.4C7.63135 17.6485 7.69851 18.1186 7.44998 18.45C7.20145 18.7814 6.73135 18.8485 6.39998 18.6C4.23099 16.9733 2.69998 14.3598 2.69998 11.3V9.75Z" fill="black"/>
<path fill-rule="evenodd" clip-rule="evenodd" d="M16.0393 18.7499H7.34998C7.29629 18.7499 7.26784 18.75 7.24443 18.7509C7.2364 18.7513 7.23093 18.7516 7.22744 18.7519C7.18077 18.7887 7.15239 18.8236 7.13531 18.8528C7.11593 18.8861 7.09998 18.9303 7.09998 18.9999V19.1999C7.09998 19.2546 7.12417 19.3231 7.17327 19.3757C7.21536 19.4208 7.27061 19.4499 7.34998 19.4499H16.15C16.2046 19.4499 16.2731 19.4257 16.3257 19.3766C16.3708 19.3345 16.4 19.2793 16.4 19.1999V18.9999C16.4 18.9505 16.3927 18.9211 16.3876 18.9062C16.3827 18.8919 16.3776 18.8846 16.3738 18.8801C16.3672 18.8721 16.3408 18.8457 16.2681 18.8275L16.0665 18.7772L16.0393 18.7499ZM16.7952 17.4211C16.5133 17.243 16.2208 17.2475 16.0843 17.2496C16.0714 17.2498 16.0599 17.2499 16.05 17.2499H7.34998C7.34444 17.2499 7.33866 17.2499 7.33267 17.2499C7.24647 17.2498 7.11484 17.2496 6.97668 17.2726C6.81031 17.3004 6.66332 17.3547 6.51457 17.4291L6.4728 17.45L6.43395 17.4759C5.96109 17.7911 5.59998 18.309 5.59998 18.9999V19.1999C5.59998 20.0646 6.28786 20.9499 7.34998 20.9499H16.15C17.0146 20.9499 17.9 20.262 17.9 19.1999V18.9999C17.9 18.5922 17.7743 18.2176 17.5261 17.9198C17.3234 17.6765 17.065 17.5154 16.7952 17.4211Z" fill="black"/>
<path fill-rule="evenodd" clip-rule="evenodd" d="M7.94998 6.05005C5.8642 6.05005 4.19998 7.71426 4.19998 9.80005C4.19998 9.86507 4.20986 9.92466 4.23212 10.0249C4.23388 10.0328 4.23603 10.0421 4.23847 10.0526C4.259 10.1414 4.29998 10.3188 4.29998 10.5C4.29998 10.9143 3.9642 11.25 3.54998 11.25C3.13577 11.25 2.79998 10.9143 2.79998 10.5C2.79998 10.5004 2.8 10.5006 2.79998 10.5006C2.79985 10.5006 2.79762 10.4843 2.76784 10.3502C2.74011 10.2254 2.69998 10.035 2.69998 9.80005C2.69998 6.88584 5.03577 4.55005 7.94998 4.55005C9.2276 4.55005 10.4011 5.01318 11.2381 5.73061C11.5526 6.00017 11.589 6.47365 11.3194 6.78814C11.0499 7.10264 10.5764 7.13906 10.2619 6.86949C9.69889 6.38692 8.87236 6.05005 7.94998 6.05005Z" fill="black"/>
<path fill-rule="evenodd" clip-rule="evenodd" d="M11.4078 6.66159C11.0474 7.38878 10.8 8.16331 10.8 8.99995C10.8 9.51489 10.8853 9.94897 10.9776 10.318C11.0781 10.7199 10.8337 11.1271 10.4319 11.2276C10.03 11.328 9.62284 11.0837 9.52238 10.6819C9.41465 10.2509 9.29999 9.68502 9.29999 8.99995C9.29999 7.84666 9.64656 6.82976 10.0792 5.96454L10.092 5.93878L10.1069 5.91408C11.1286 4.21115 13.0608 2.94995 15.25 2.94995H15.2625L15.275 2.95037C18.6374 3.06245 21.4 5.65486 21.4 8.99995C21.4 10.1532 21.0534 11.1701 20.6208 12.0354C20.4356 12.4058 19.9851 12.556 19.6146 12.3708C19.2441 12.1855 19.0939 11.735 19.2792 11.3645C19.6466 10.6298 19.9 9.84666 19.9 8.99995C19.9 6.54896 17.8691 4.54385 15.2376 4.44997C13.6417 4.45474 12.1877 5.38039 11.4078 6.66159Z" fill="black"/>
</svg>
