<svg xmlns="http://www.w3.org/2000/svg" viewBox="0 0 24 24" fill="currentColor">
  <path d="M16.75 4.25c-.6904 0-1.25.55964-1.25 1.25s.5596 1.25 1.25 1.25S18 6.19036 18 5.5s-.5596-1.25-1.25-1.25ZM19.5 5.5c0 1.29017-.8885 2.37283-2.0869 2.66953-.0223.10052-.0502.21013-.0854.32723-.1672.55755-.4974 1.28515-1.1452 2.00494-1.2384 1.376-3.524 2.6049-7.6825 2.7366V15.5c0 .1195-.02796.2325-.07768.3328C9.61611 16.1327 10.5 17.2131 10.5 18.5c0 1.5188-1.23122 2.75-2.75 2.75S5 20.0188 5 18.5c0-1.2869.88389-2.3673 2.07768-2.6672C7.02796 15.7325 7 15.6195 7 15.5V5.81062L5.78033 7.03029c-.29289.29289-.76777.29289-1.06066 0-.29289-.2929-.29289-.76777 0-1.06066l2.1-2.1c.53747-.53747 1.26129-.41709 1.74636-.09371l.06179.04119 2.15248 2.15252c.2929.29289.2929.76776 0 1.06066-.2929.29289-.7677.29289-1.06063 0L8.5 5.81061v5.92699c3.8475-.13 5.684-1.2576 6.5675-2.23932.4594-.51044.6919-1.01365.8103-1.38949C14.7865 7.74411 14 6.71391 14 5.5c0-1.51878 1.2312-2.75 2.75-2.75S19.5 3.98122 19.5 5.5ZM7.75 17.25c-.69036 0-1.25.5596-1.25 1.25s.55964 1.25 1.25 1.25S9 19.1904 9 18.5s-.55964-1.25-1.25-1.25Z"/>
</svg>
