<svg xmlns="http://www.w3.org/2000/svg" fill="none" viewBox="0 0 24 24">
  <path fill="#000" fill-rule="evenodd" d="M16.75 4.25a1.25 1.25 0 1 0 0 2.5 1.25 1.25 0 0 0 0-2.5ZM19.5 5.5c0 1.29-.889 2.373-2.087 2.67-.022.1-.05.21-.085.327a5.26 5.26 0 0 1-1.145 2.005c-1.239 1.376-3.524 2.605-7.683 2.736V15.5c0 .12-.028.232-.078.333a2.751 2.751 0 1 1-1.344 0A.747.747 0 0 1 7 15.5V5.81L5.78 7.03a.75.75 0 0 1-1.06-1.06l2.1-2.1c.537-.538 1.261-.417 1.746-.094l.062.041L10.78 5.97a.75.75 0 1 1-1.06 1.06L8.5 5.81v5.928c3.848-.13 5.684-1.258 6.568-2.24a3.78 3.78 0 0 0 .81-1.39A2.751 2.751 0 1 1 19.5 5.5ZM7.75 17.25a1.25 1.25 0 1 0 0 2.5 1.25 1.25 0 0 0 0-2.5Z" clip-rule="evenodd"/>
</svg>
