<svg xmlns="http://www.w3.org/2000/svg" viewBox="0 0 24 24" fill="currentColor">
  <path d="M7.5 4.25c-.69036 0-1.25.55964-1.25 1.25s.55964 1.25 1.25 1.25 1.25-.55964 1.25-1.25-.55964-1.25-1.25-1.25Zm2.75 1.25c0 1.25878-.84575 2.32002-2 2.64648v3.59112c3.8475-.13 5.684-1.2576 6.5675-2.23932.4594-.51044.6919-1.01365.8103-1.38949C14.5365 7.74411 13.75 6.71391 13.75 5.5c0-1.51878 1.2312-2.75 2.75-2.75s2.75 1.23122 2.75 2.75c0 1.29017-.8885 2.37283-2.0869 2.66953-.0223.10052-.0502.21013-.0854.32723-.1672.55755-.4974 1.28515-1.1452 2.00494-1.2384 1.376-3.524 2.6049-7.6825 2.7366v2.6152c1.15425.3265 2 1.3877 2 2.6465 0 1.5188-1.23122 2.75-2.75 2.75s-2.75-1.2312-2.75-2.75c0-1.2588.84575-2.32 2-2.6465V8.14648c-1.15425-.32646-2-1.3877-2-2.64648 0-1.51878 1.23122-2.75 2.75-2.75s2.75 1.23122 2.75 2.75Zm6.25 1.25c.6904 0 1.25-.55964 1.25-1.25s-.5596-1.25-1.25-1.25-1.25.55964-1.25 1.25.5596 1.25 1.25 1.25ZM6.25 18.5c0-.6904.55964-1.25 1.25-1.25s1.25.5596 1.25 1.25-.55964 1.25-1.25 1.25-1.25-.5596-1.25-1.25Z"/>
</svg>
