<svg width="24" height="24" viewBox="0 0 24 24" fill="none" xmlns="http://www.w3.org/2000/svg">
<path fill-rule="evenodd" clip-rule="evenodd" d="M6.29615 4.50143C6.26308 4.53656 6.22246 4.60385 6.24246 4.74384L6.24542 4.76455L7.44634 18.6752C7.51235 19.237 7.92925 19.5999 8.4 19.5999H15.6C16.0925 19.5999 16.4923 19.2137 16.5542 18.7691L17.7553 4.75608L17.7602 4.7266C17.778 4.61973 17.6738 4.3999 17.4 4.3999H6.6C6.42824 4.3999 6.33597 4.45912 6.29615 4.50143ZM5.20385 3.47338C5.56403 3.09068 6.07176 2.8999 6.6 2.8999H17.4C18.5147 2.8999 19.4036 3.86008 19.2451 4.93962L18.046 18.9285L18.0442 18.9429C17.9004 20.0932 16.903 21.0999 15.6 21.0999H8.4C7.07301 21.0999 6.09165 20.0663 5.95459 18.8327L5.95357 18.8236L4.75438 4.9329C4.68196 4.38135 4.84196 3.85789 5.20385 3.47338Z" fill="black"/>
</svg>
