<svg xmlns="http://www.w3.org/2000/svg" fill="none" viewBox="0 0 24 24">
  <path fill="#000" d="m17.9 11.75-.6 7c-.1.9-.8 1.6-1.7 1.6H8.4c-.9 0-1.6-.7-1.7-1.6l-.6-7h11.8Z"/>
  <path fill="#000" fill-rule="evenodd" d="M5.283 11h13.434l-.67 7.823-.002.01c-.137 1.233-1.118 2.267-2.445 2.267H8.4c-1.327 0-2.308-1.034-2.445-2.267l-.001-.01L5.283 11Zm1.634 1.5.53 6.175c.065.562.482.925.953.925h7.2c.47 0 .888-.363.954-.925l.529-6.175H6.917Z" clip-rule="evenodd"/>
  <path fill="#000" fill-rule="evenodd" d="M6.296 4.501c-.033.036-.074.103-.054.243l.004.026.452 6.23h10.514l.543-6.236.003-.02a.247.247 0 0 0-.076-.226.417.417 0 0 0-.282-.118H6.6c-.172 0-.264.06-.304.101ZM5.204 3.473c.36-.382.868-.573 1.396-.573h10.8c.94 0 2.009.79 1.846 2.033l-.658 7.567H5.302l-.548-7.573c-.07-.55.09-1.07.45-1.454Z" clip-rule="evenodd"/>
</svg>
