<svg width="24" height="24" viewBox="0 0 24 24" fill="none" xmlns="http://www.w3.org/2000/svg">
<path fill-rule="evenodd" clip-rule="evenodd" d="M14.1303 8.41962C14.4232 8.71251 14.4232 9.18739 14.1303 9.48028L11.1303 12.4803C10.8374 12.7732 10.3625 12.7732 10.0696 12.4803C9.77675 12.1874 9.77675 11.7125 10.0696 11.4196L13.0696 8.41962C13.3625 8.12673 13.8374 8.12673 14.1303 8.41962Z" fill="black"/>
<path fill-rule="evenodd" clip-rule="evenodd" d="M5.36969 9.31965C5.66259 9.02675 6.13746 9.02675 6.43035 9.31965L8.53035 11.4196C8.82325 11.7125 8.82325 12.1874 8.53035 12.4803C8.23746 12.7732 7.76259 12.7732 7.46969 12.4803L5.36969 10.3803C5.0768 10.0874 5.0768 9.61254 5.36969 9.31965Z" fill="black"/>
<path fill-rule="evenodd" clip-rule="evenodd" d="M15.2458 8.48882C15.611 8.29322 16.0655 8.43064 16.2611 8.79576L19.2611 14.3958C19.4567 14.7609 19.3193 15.2154 18.9542 15.411C18.589 15.6066 18.1345 15.4692 17.9389 15.1041L14.9389 9.50409C14.7433 9.13897 14.8807 8.68442 15.2458 8.48882Z" fill="black"/>
<path d="M4.60002 10.4499C5.53891 10.4499 6.30002 9.68881 6.30002 8.74993C6.30002 7.81104 5.53891 7.04993 4.60002 7.04993C3.66114 7.04993 2.90002 7.81104 2.90002 8.74993C2.90002 9.68881 3.66114 10.4499 4.60002 10.4499Z" fill="black"/>
<path fill-rule="evenodd" clip-rule="evenodd" d="M4.60002 7.79993C4.07535 7.79993 3.65002 8.22526 3.65002 8.74993C3.65002 9.2746 4.07535 9.69993 4.60002 9.69993C5.12469 9.69993 5.55002 9.2746 5.55002 8.74993C5.55002 8.22526 5.12469 7.79993 4.60002 7.79993ZM2.15002 8.74993C2.15002 7.39683 3.24693 6.29993 4.60002 6.29993C5.95312 6.29993 7.05002 7.39683 7.05002 8.74993C7.05002 10.103 5.95312 11.1999 4.60002 11.1999C3.24693 11.1999 2.15002 10.103 2.15002 8.74993Z" fill="black"/>
<path d="M9.29998 14.85C10.2389 14.85 11 14.0888 11 13.15C11 12.2111 10.2389 11.45 9.29998 11.45C8.36109 11.45 7.59998 12.2111 7.59998 13.15C7.59998 14.0888 8.36109 14.85 9.29998 14.85Z" fill="black"/>
<path fill-rule="evenodd" clip-rule="evenodd" d="M9.29998 12.2C8.77531 12.2 8.34998 12.6253 8.34998 13.15C8.34998 13.6746 8.77531 14.1 9.29998 14.1C9.82465 14.1 10.25 13.6746 10.25 13.15C10.25 12.6253 9.82465 12.2 9.29998 12.2ZM6.84998 13.15C6.84998 11.7969 7.94688 10.7 9.29998 10.7C10.6531 10.7 11.75 11.7969 11.75 13.15C11.75 14.503 10.6531 15.6 9.29998 15.6C7.94688 15.6 6.84998 14.503 6.84998 13.15Z" fill="black"/>
<path d="M14.8 9.44993C15.7389 9.44993 16.5 8.68881 16.5 7.74993C16.5 6.81104 15.7389 6.04993 14.8 6.04993C13.8611 6.04993 13.1 6.81104 13.1 7.74993C13.1 8.68881 13.8611 9.44993 14.8 9.44993Z" fill="black"/>
<path fill-rule="evenodd" clip-rule="evenodd" d="M14.8 6.79993C14.2753 6.79993 13.85 7.22526 13.85 7.74993C13.85 8.2746 14.2753 8.69993 14.8 8.69993C15.3246 8.69993 15.75 8.2746 15.75 7.74993C15.75 7.22526 15.3246 6.79993 14.8 6.79993ZM12.35 7.74993C12.35 6.39683 13.4469 5.29993 14.8 5.29993C16.1531 5.29993 17.25 6.39683 17.25 7.74993C17.25 9.10302 16.1531 10.1999 14.8 10.1999C13.4469 10.1999 12.35 9.10302 12.35 7.74993Z" fill="black"/>
<path d="M19.4001 17.9499C20.339 17.9499 21.1001 17.1888 21.1001 16.2499C21.1001 15.311 20.339 14.5499 19.4001 14.5499C18.4612 14.5499 17.7001 15.311 17.7001 16.2499C17.7001 17.1888 18.4612 17.9499 19.4001 17.9499Z" fill="black"/>
<path fill-rule="evenodd" clip-rule="evenodd" d="M19.4001 15.2999C18.8754 15.2999 18.4501 15.7253 18.4501 16.2499C18.4501 16.7746 18.8754 17.1999 19.4001 17.1999C19.9247 17.1999 20.3501 16.7746 20.3501 16.2499C20.3501 15.7253 19.9247 15.2999 19.4001 15.2999ZM16.9501 16.2499C16.9501 14.8968 18.047 13.7999 19.4001 13.7999C20.7532 13.7999 21.8501 14.8968 21.8501 16.2499C21.8501 17.603 20.7532 18.6999 19.4001 18.6999C18.047 18.6999 16.9501 17.603 16.9501 16.2499Z" fill="black"/>
</svg>
