<svg xmlns="http://www.w3.org/2000/svg" viewBox="0 0 20 20" fill="currentColor">
  <path d="M6.80002 2.19995c-.5858 0-1.05002.46422-1.05002 1.04999v1.30011c0 .41421-.33579.75-.75.75-1.78579 0-3.25 1.46421-3.25 3.25V14.55c0 1.7858 1.46421 3.25 3.25 3.25h10c1.7858 0 3.25-1.4642 3.25-3.25V8.55005c0-1.78579-1.4642-3.25-3.25-3.25-.4142 0-.75-.33579-.75-.75 0-.01682.0006-.03351.0016-.05005-.001-.01654-.0016-.03323-.0016-.05005V3.24994c0-.58579-.4642-1.04999-1.05-1.04999H6.80002ZM4.25 3.24994v.60957c-2.26066.36187-4 2.33139-4 4.69054V14.55c0 2.6143 2.13579 4.75 4.75 4.75h10c2.6142 0 4.75-2.1357 4.75-4.75V8.55005c0-2.35915-1.7393-4.32867-4-4.69054v-.60957c0-1.41421-1.1358-2.549989-2.55-2.549989H6.80002C5.38582.699951 4.25 1.83571 4.25 3.24994ZM7.75 11.55c0-1.2426 1.00736-2.24995 2.25-2.24995 1.2426 0 2.25 1.00735 2.25 2.24995 0 1.2427-1.0074 2.25-2.25 2.25-1.24264 0-2.25-1.0073-2.25-2.25ZM10 7.80005c-2.07107 0-3.75 1.67893-3.75 3.74995 0 2.0711 1.67893 3.75 3.75 3.75 2.0711 0 3.75-1.6789 3.75-3.75 0-2.07102-1.6789-3.74995-3.75-3.74995Z"/>
</svg>
