<svg xmlns="http://www.w3.org/2000/svg" fill="none" viewBox="0 0 24 24">
  <path fill="#000" d="M6.9 17.15c-.2-.2-.3-.5-.3-.7 0-.3.1-.5.3-.7.2-.2.5-.3.7-.3.5 0 1 .5 1 1 0 .3-.1.5-.3.7-.2.2-.5.3-.7.3-.2-.1-.5-.2-.7-.3Zm8.7-8.8c-.2-.2-.3-.5-.3-.7 0-.3.1-.5.3-.7.2-.2.5-.3.7-.3.5 0 1 .5 1 1 0 .3-.1.5-.3.7-.2.2-.5.3-.7.3-.2 0-.5-.1-.7-.3Z"/>
  <path fill="#000" fill-rule="evenodd" d="M5.35 11.175c-.015 0-.02.005-.02.005l-1.2 1.2c-.907.907-.907 2.433 0 3.34l4.2 4.2c.907.907 2.432.907 3.34 0l1.2-1.2a.388.388 0 0 0-.044-.084L6.27 12.08l-.9-.9s-.006-.005-.02-.005Zm1.08-1.055 7.538 7.537.032.043c.219.292.375.646.375 1.038 0 .406-.169.766-.445 1.042l-1.2 1.2c-1.493 1.493-3.967 1.493-5.46 0l-4.2-4.2c-1.493-1.493-1.493-3.967 0-5.46l1.2-1.2a1.535 1.535 0 0 1 2.16 0Zm9.24-6.04c-.907-.907-2.433-.907-3.34 0l-1.2 1.2s-.005.006-.005.02c0 .015.005.02.005.02l.004.004 6.598 6.698.898.898s.006.005.02.005c.015 0 .02-.005.02-.005l1.2-1.2c.893-.893.925-2.426-.012-3.45L15.67 4.08Zm-4.4-1.06c1.493-1.493 3.967-1.493 5.46 0l4.21 4.21.011.011c1.454 1.576 1.483 4.035-.02 5.54l-1.2 1.2a1.535 1.535 0 0 1-2.161 0l-.904-.905-6.599-6.698a1.535 1.535 0 0 1 .003-2.158l1.2-1.2Z" clip-rule="evenodd"/>
  <path fill="#000" fill-rule="evenodd" d="m5.644 11.545 5.87-5.869 6.787 6.789-5.869 5.869-6.788-6.789Zm2.122 0 4.666 4.667 3.748-3.747-4.667-4.667-3.747 3.747Z" clip-rule="evenodd"/>
</svg>
