<svg width="24" height="24" viewBox="0 0 24 24" fill="none" xmlns="http://www.w3.org/2000/svg">
<path d="M11.8 20.8C16.7706 20.8 20.8 16.7706 20.8 11.8C20.8 6.82949 16.7706 2.80005 11.8 2.80005C6.82942 2.80005 2.79999 6.82949 2.79999 11.8C2.79999 16.7706 6.82942 20.8 11.8 20.8Z" fill="black"/>
<path fill-rule="evenodd" clip-rule="evenodd" d="M11.8 3.55005C7.24364 3.55005 3.54999 7.2437 3.54999 11.8C3.54999 16.3564 7.24364 20.05 11.8 20.05C16.3563 20.05 20.05 16.3564 20.05 11.8C20.05 7.2437 16.3563 3.55005 11.8 3.55005ZM2.04999 11.8C2.04999 6.41527 6.41521 2.05005 11.8 2.05005C17.1848 2.05005 21.55 6.41527 21.55 11.8C21.55 17.1848 17.1848 21.55 11.8 21.55C6.41521 21.55 2.04999 17.1848 2.04999 11.8Z" fill="black"/>
<path fill-rule="evenodd" clip-rule="evenodd" d="M9.99994 6.65002C10.4142 6.65002 10.7499 6.98581 10.7499 7.40002V16.1C10.7499 16.5142 10.4142 16.85 9.99994 16.85C9.58573 16.85 9.24994 16.5142 9.24994 16.1V7.40002C9.24994 6.98581 9.58573 6.65002 9.99994 6.65002Z" fill="white"/>
<path fill-rule="evenodd" clip-rule="evenodd" d="M13.4999 6.65002C13.9142 6.65002 14.2499 6.98581 14.2499 7.40002V16.1C14.2499 16.5142 13.9142 16.85 13.4999 16.85C13.0857 16.85 12.7499 16.5142 12.7499 16.1V7.40002C12.7499 6.98581 13.0857 6.65002 13.4999 6.65002Z" fill="white"/>
<path fill-rule="evenodd" clip-rule="evenodd" d="M6.64996 10C6.64996 9.58579 6.98575 9.25 7.39996 9.25H16.1C16.5142 9.25 16.85 9.58579 16.85 10C16.85 10.4142 16.5142 10.75 16.1 10.75H7.39996C6.98575 10.75 6.64996 10.4142 6.64996 10Z" fill="white"/>
<path fill-rule="evenodd" clip-rule="evenodd" d="M6.64996 13.5C6.64996 13.0858 6.98575 12.75 7.39996 12.75H16.1C16.5142 12.75 16.85 13.0858 16.85 13.5C16.85 13.9142 16.5142 14.25 16.1 14.25H7.39996C6.98575 14.25 6.64996 13.9142 6.64996 13.5Z" fill="white"/>
</svg>
