<svg width="24" height="24" viewBox="0 0 24 24" fill="none" xmlns="http://www.w3.org/2000/svg">
<path fill-rule="evenodd" clip-rule="evenodd" d="M8.79999 3.05005C9.2142 3.05005 9.54999 3.38584 9.54999 3.80005V20.5C9.54999 20.9143 9.2142 21.25 8.79999 21.25C8.38577 21.25 8.04999 20.9143 8.04999 20.5V3.80005C8.04999 3.38584 8.38577 3.05005 8.79999 3.05005Z" fill="black"/>
<path fill-rule="evenodd" clip-rule="evenodd" d="M15.4 3.05005C15.8142 3.05005 16.15 3.38584 16.15 3.80005V20.5C16.15 20.9143 15.8142 21.25 15.4 21.25C14.9858 21.25 14.65 20.9143 14.65 20.5V3.80005C14.65 3.38584 14.9858 3.05005 15.4 3.05005Z" fill="black"/>
<path fill-rule="evenodd" clip-rule="evenodd" d="M3.04999 8.80005C3.04999 8.38584 3.38577 8.05005 3.79999 8.05005H20.5C20.9142 8.05005 21.25 8.38584 21.25 8.80005C21.25 9.21426 20.9142 9.55005 20.5 9.55005H3.79999C3.38577 9.55005 3.04999 9.21426 3.04999 8.80005Z" fill="black"/>
<path fill-rule="evenodd" clip-rule="evenodd" d="M3.04999 15.4C3.04999 14.9858 3.38577 14.65 3.79999 14.65H20.5C20.9142 14.65 21.25 14.9858 21.25 15.4C21.25 15.8142 20.9142 16.15 20.5 16.15H3.79999C3.38577 16.15 3.04999 15.8142 3.04999 15.4Z" fill="black"/>
</svg>
