<svg xmlns="http://www.w3.org/2000/svg" fill="none" viewBox="0 0 24 24">
  <path fill="#000" fill-rule="evenodd" d="M9 3.75C6.114 3.75 3.75 6.114 3.75 9v6c0 2.886 2.364 5.25 5.25 5.25h6c2.886 0 5.25-2.364 5.25-5.25V9c0-2.886-2.364-5.25-5.25-5.25H9ZM2.25 9c0-3.714 3.036-6.75 6.75-6.75h6c3.714 0 6.75 3.036 6.75 6.75v6c0 3.714-3.036 6.75-6.75 6.75H9c-3.714 0-6.75-3.036-6.75-6.75V9Z" clip-rule="evenodd"/>
  <path fill="#000" fill-rule="evenodd" d="M10.2 6.85a.75.75 0 0 1 .75.75v8.7a.75.75 0 0 1-1.5 0V7.6a.75.75 0 0 1 .75-.75Zm3.5 0a.75.75 0 0 1 .75.75v8.7a.75.75 0 0 1-1.5 0V7.6a.75.75 0 0 1 .75-.75Z" clip-rule="evenodd"/>
  <path fill="#000" fill-rule="evenodd" d="M6.85 10.2a.75.75 0 0 1 .75-.75h8.7a.75.75 0 0 1 0 1.5H7.6a.75.75 0 0 1-.75-.75Zm0 3.5a.75.75 0 0 1 .75-.75h8.7a.75.75 0 1 1 0 1.5H7.6a.75.75 0 0 1-.75-.75Z" clip-rule="evenodd"/>
</svg>
