<svg xmlns="http://www.w3.org/2000/svg" fill="none" viewBox="0 0 24 24">
  <path fill="#000" fill-rule="evenodd" d="M8.65 2.9a.75.75 0 0 1 .75.75v16.7a.75.75 0 0 1-1.5 0V3.65a.75.75 0 0 1 .75-.75Zm6.6 0a.75.75 0 0 1 .75.75v16.7a.75.75 0 0 1-1.5 0V3.65a.75.75 0 0 1 .75-.75Z" clip-rule="evenodd"/>
  <path fill="#000" fill-rule="evenodd" d="M2.9 8.65a.75.75 0 0 1 .75-.75h16.7a.75.75 0 0 1 0 1.5H3.65a.75.75 0 0 1-.75-.75Zm0 6.6a.75.75 0 0 1 .75-.75h16.7a.75.75 0 0 1 0 1.5H3.65a.75.75 0 0 1-.75-.75Z" clip-rule="evenodd"/>
</svg>
