<svg width="24" height="24" viewBox="0 0 24 24" fill="none" xmlns="http://www.w3.org/2000/svg">
<path d="M14.8 20.8H8.79999C5.49999 20.8 2.79999 18.1 2.79999 14.8V8.80005C2.79999 5.50005 5.49999 2.80005 8.79999 2.80005H14.8C18.1 2.80005 20.8 5.50005 20.8 8.80005V14.8C20.8 18.1 18.1 20.8 14.8 20.8Z" fill="black"/>
<path fill-rule="evenodd" clip-rule="evenodd" d="M8.79999 3.55005C5.9142 3.55005 3.54999 5.91426 3.54999 8.80005V14.8C3.54999 17.6858 5.9142 20.05 8.79999 20.05H14.8C17.6858 20.05 20.05 17.6858 20.05 14.8V8.80005C20.05 5.91426 17.6858 3.55005 14.8 3.55005H8.79999ZM2.04999 8.80005C2.04999 5.08584 5.08577 2.05005 8.79999 2.05005H14.8C18.5142 2.05005 21.55 5.08584 21.55 8.80005V14.8C21.55 18.5143 18.5142 21.55 14.8 21.55H8.79999C5.08577 21.55 2.04999 18.5143 2.04999 14.8V8.80005Z" fill="black"/>
<path fill-rule="evenodd" clip-rule="evenodd" d="M9.99994 6.65002C10.4142 6.65002 10.7499 6.98581 10.7499 7.40002V16.1C10.7499 16.5142 10.4142 16.85 9.99994 16.85C9.58573 16.85 9.24994 16.5142 9.24994 16.1V7.40002C9.24994 6.98581 9.58573 6.65002 9.99994 6.65002Z" fill="white"/>
<path fill-rule="evenodd" clip-rule="evenodd" d="M13.4999 6.65002C13.9142 6.65002 14.2499 6.98581 14.2499 7.40002V16.1C14.2499 16.5142 13.9142 16.85 13.4999 16.85C13.0857 16.85 12.7499 16.5142 12.7499 16.1V7.40002C12.7499 6.98581 13.0857 6.65002 13.4999 6.65002Z" fill="white"/>
<path fill-rule="evenodd" clip-rule="evenodd" d="M6.64996 10C6.64996 9.58579 6.98575 9.25 7.39996 9.25H16.1C16.5142 9.25 16.85 9.58579 16.85 10C16.85 10.4142 16.5142 10.75 16.1 10.75H7.39996C6.98575 10.75 6.64996 10.4142 6.64996 10Z" fill="white"/>
<path fill-rule="evenodd" clip-rule="evenodd" d="M6.64996 13.5C6.64996 13.0858 6.98575 12.75 7.39996 12.75H16.1C16.5142 12.75 16.85 13.0858 16.85 13.5C16.85 13.9142 16.5142 14.25 16.1 14.25H7.39996C6.98575 14.25 6.64996 13.9142 6.64996 13.5Z" fill="white"/>
</svg>
