<svg xmlns="http://www.w3.org/2000/svg" fill="none" viewBox="0 0 24 24">
  <path fill="#000" d="M11.8 20.8a9 9 0 1 0 0-18 9 9 0 0 0 0 18Z"/>
  <path fill="#000" fill-rule="evenodd" d="M11.8 3.55a8.25 8.25 0 1 0 0 16.5 8.25 8.25 0 0 0 0-16.5ZM2.05 11.8c0-5.385 4.365-9.75 9.75-9.75s9.75 4.365 9.75 9.75-4.365 9.75-9.75 9.75-9.75-4.365-9.75-9.75Z" clip-rule="evenodd"/>
  <path fill="#fff" fill-rule="evenodd" d="M10 6.65a.75.75 0 0 1 .75.75v8.7a.75.75 0 1 1-1.5 0V7.4a.75.75 0 0 1 .75-.75Zm3.5 0a.75.75 0 0 1 .75.75v8.7a.75.75 0 1 1-1.5 0V7.4a.75.75 0 0 1 .75-.75Z" clip-rule="evenodd"/>
  <path fill="#fff" fill-rule="evenodd" d="M6.65 10a.75.75 0 0 1 .75-.75h8.7a.75.75 0 0 1 0 1.5H7.4a.75.75 0 0 1-.75-.75Zm0 3.5a.75.75 0 0 1 .75-.75h8.7a.75.75 0 0 1 0 1.5H7.4a.75.75 0 0 1-.75-.75Z" clip-rule="evenodd"/>
</svg>
