<svg xmlns="http://www.w3.org/2000/svg" fill="none" viewBox="0 0 24 24">
  <path fill="#000" fill-rule="evenodd" d="M8.8 3.05a.75.75 0 0 1 .75.75v16.7a.75.75 0 1 1-1.5 0V3.8a.75.75 0 0 1 .75-.75Zm6.6 0a.75.75 0 0 1 .75.75v16.7a.75.75 0 1 1-1.5 0V3.8a.75.75 0 0 1 .75-.75Z" clip-rule="evenodd"/>
  <path fill="#000" fill-rule="evenodd" d="M3.05 8.8a.75.75 0 0 1 .75-.75h16.7a.75.75 0 0 1 0 1.5H3.8a.75.75 0 0 1-.75-.75Zm0 6.6a.75.75 0 0 1 .75-.75h16.7a.75.75 0 0 1 0 1.5H3.8a.75.75 0 0 1-.75-.75Z" clip-rule="evenodd"/>
</svg>
