<svg xmlns="http://www.w3.org/2000/svg" fill="none" viewBox="0 0 24 24">
  <path fill="#000" d="M14.8 20.8h-6c-3.3 0-6-2.7-6-6v-6c0-3.3 2.7-6 6-6h6c3.3 0 6 2.7 6 6v6c0 3.3-2.7 6-6 6Z"/>
  <path fill="#000" fill-rule="evenodd" d="M8.8 3.55c-2.886 0-5.25 2.364-5.25 5.25v6c0 2.886 2.364 5.25 5.25 5.25h6c2.886 0 5.25-2.364 5.25-5.25v-6c0-2.886-2.364-5.25-5.25-5.25h-6ZM2.05 8.8c0-3.714 3.036-6.75 6.75-6.75h6c3.714 0 6.75 3.036 6.75 6.75v6c0 3.714-3.036 6.75-6.75 6.75h-6c-3.714 0-6.75-3.036-6.75-6.75v-6Z" clip-rule="evenodd"/>
  <path fill="#fff" fill-rule="evenodd" d="M10 6.65a.75.75 0 0 1 .75.75v8.7a.75.75 0 1 1-1.5 0V7.4a.75.75 0 0 1 .75-.75Zm3.5 0a.75.75 0 0 1 .75.75v8.7a.75.75 0 1 1-1.5 0V7.4a.75.75 0 0 1 .75-.75Z" clip-rule="evenodd"/>
  <path fill="#fff" fill-rule="evenodd" d="M6.65 10a.75.75 0 0 1 .75-.75h8.7a.75.75 0 0 1 0 1.5H7.4a.75.75 0 0 1-.75-.75Zm0 3.5a.75.75 0 0 1 .75-.75h8.7a.75.75 0 0 1 0 1.5H7.4a.75.75 0 0 1-.75-.75Z" clip-rule="evenodd"/>
</svg>
