<svg width="60" height="60" fill="none" xmlns="http://www.w3.org/2000/svg"><path d="M19.1 52.125c-1.8191 0-3.564-.7209-4.8526-2.0048-1.2886-1.2839-2.0158-3.0262-2.0224-4.8452V36.55c-.0566-.936.079-1.8737.3983-2.7554.3193-.8817.8157-1.6888 1.4584-2.3716.6428-.6827 1.4185-1.2268 2.2793-1.5987.8609-.3718 1.7887-.5637 2.7265-.5637.9377 0 1.8655.1919 2.7264.5637.8608.3719 1.6365.916 2.2793 1.5987.6428.6828 1.1391 1.4899 1.4584 2.3716.3193.8817.4549 1.8194.3984 2.7554v8.725c0 1.8167-.7217 3.5591-2.0064 4.8437-1.2846 1.2846-3.0269 2.0063-4.8436 2.0063zm0-17.5c-.4953.0065-.9685.2061-1.3187.5563-.3502.3503-.5499.8234-.5563 1.3187v8.725c.0065.4929.207.9635.5579 1.3097.3509.3462.8241.5404 1.3171.5403.4906 0 .9612-.1949 1.3081-.5418.347-.347.5419-.8175.5419-1.3082V36.55c0-.493-.1941-.9661-.5403-1.3171-.3463-.3509-.8168-.5513-1.3097-.5579v-.05zm21.8 17.5c-1.8168 0-3.5591-.7217-4.8437-2.0063-1.2846-1.2846-2.0063-3.027-2.0063-4.8437V36.55c-.0565-.936.079-1.8737.3983-2.7554.3194-.8817.8157-1.6888 1.4585-2.3716.6427-.6827 1.4184-1.2268 2.2793-1.5987.8608-.3718 1.7886-.5637 2.7264-.5637.9377 0 1.8655.1919 2.7264.5637.8608.3719 1.6365.916 2.2793 1.5987.6428.6828 1.1391 1.4899 1.4584 2.3716.3193.8817.4549 1.8194.3984 2.7554v8.725c-.0066 1.819-.7339 3.5613-2.0225 4.8452S42.719 52.125 40.9 52.125zm0-17.5c-.493.0066-.9635.207-1.3097.5579-.3463.351-.5404.8241-.5403 1.3171v8.725c0 .4907.1949.9612.5418 1.3082.347.3469.8175.5418 1.3082.5418.493.0001.9661-.1941 1.317-.5403.351-.3462.5514-.8168.558-1.3097V36.55c-.0065-.4953-.2061-.9684-.5564-1.3187-.3502-.3502-.8234-.5498-1.3186-.5563v-.05z" fill="#000"/><path d="M51.8 43.4001c-.663 0-1.2989-.2634-1.7678-.7323-.4688-.4688-.7322-1.1047-.7322-1.7677v-8.725c0-5.1187-2.0334-10.0277-5.6528-13.6472-3.6195-3.6195-8.5285-5.6528-13.6472-5.6528-5.1187 0-10.0277 2.0333-13.6471 5.6528C12.7334 22.1474 10.7 27.0564 10.7 32.1751v8.725c0 .663-.2634 1.2989-.73222 1.7677-.46884.4689-1.10473.7323-1.76777.7323-.66304 0-1.29892-.2634-1.76776-.7323-.46885-.4688-.73224-1.1047-.73224-1.7677v-8.725c0-6.4448 2.56017-12.6256 7.11729-17.1827C17.3745 10.4352 23.5553 7.87506 30 7.87506c6.4448 0 12.6256 2.56014 17.1827 7.11734C51.7398 19.5495 54.3 25.7303 54.3 32.1751v8.725c0 .663-.2634 1.2989-.7322 1.7677-.4689.4689-1.1047.7323-1.7678.7323z" fill="#000"/></svg>