<svg width="24" height="24" viewBox="0 0 24 24" fill="none" xmlns="http://www.w3.org/2000/svg">
<path fill-rule="evenodd" clip-rule="evenodd" d="M4.73712 6.7235C3.12086 8.432 3.12095 11.0683 4.7374 12.7767L11.0303 19.0696C11.5374 19.5767 12.3626 19.5767 12.8697 19.0696L18.452 13.4873L19.165 12.6724L19.1983 12.6425C20.0211 11.902 20.45 10.8145 20.45 9.69995C20.45 8.70472 20.0333 7.59122 19.2621 6.72357C17.5532 5.12083 14.9269 5.12542 13.2233 6.73735L12.0342 7.92643L10.6725 6.73493L10.6425 6.70167C9.90199 5.87886 8.81459 5.44995 7.69999 5.44995C6.70379 5.44995 5.59712 5.86712 4.73712 6.7235ZM3.66966 5.66962C4.80871 4.53057 6.29882 3.94995 7.69999 3.94995C9.17084 3.94995 10.6684 4.5099 11.7262 5.66379L11.9658 5.87347L12.1765 5.66282L12.1834 5.6562C14.4729 3.4812 18.0271 3.4812 20.3166 5.6562L20.3378 5.67641L20.3575 5.69823C21.3738 6.82747 21.95 8.30358 21.95 9.69995C21.95 11.1708 21.39 12.6683 20.2361 13.7261L19.548 14.5126L13.9303 20.1303C12.8374 21.2232 11.0626 21.2232 9.96966 20.1303L3.66287 13.8235L3.65624 13.8165C1.48124 11.527 1.48124 7.97286 3.65624 5.68339L3.66287 5.67642L3.66966 5.66962Z" fill="black"/>
<path fill-rule="evenodd" clip-rule="evenodd" d="M12 6.1499C12.4142 6.1499 12.75 6.48569 12.75 6.8999V20.1999C12.75 20.6141 12.4142 20.9499 12 20.9499C11.5858 20.9499 11.25 20.6141 11.25 20.1999V6.8999C11.25 6.48569 11.5858 6.1499 12 6.1499Z" fill="black"/>
</svg>
