<svg xmlns="http://www.w3.org/2000/svg" viewBox="0 0 24 24" fill="currentColor">
  <path d="M9.71501 6.52958 12.6774 19.2768l.0111.0333c.1601.4802.5912.7198.9382.7776.3491.0582.9721-.0396 1.1848-.6776l1.9958-5.9872H19.5c.4142 0 .75-.3357.75-.75 0-.4142-.3358-.75-.75-.75h-2.9c-.5129 0-.8035.2923-.9194.4088l-.0109.0109-.1252.1252-1.7143 5.1429-3.0076-12.94167-.0111-.03325c-.1829-.54875-.6982-.73783-1.06148-.73783-.36324 0-.87859.18908-1.06151.73783l-.00578.01734-2.00755 7.16978H4.5c-.41421 0-.75.3358-.75.75s.33579.75.75.75h2.40002c.51288 0 .80354-.2922.91946-.4087.00381-.0038.00743-.0075.01087-.0109l.13892-.1389 1.74574-6.23482Z"/>
</svg>
