<svg width="24" height="24" viewBox="0 0 24 24" fill="none" xmlns="http://www.w3.org/2000/svg">
<path fill-rule="evenodd" clip-rule="evenodd" d="M9.38492 4.94586C8.75299 4.39797 7.9171 4.44361 7.43032 4.93038L6.59999 5.76072L5.76966 4.93038C5.53153 4.69225 5.13324 4.55006 4.79999 4.55006C4.51461 4.55006 4.19489 4.66 3.91176 4.85558C3.40004 5.48234 3.45387 6.29327 3.93032 6.76973L4.23597 7.07537L6.52315 9.46199C6.52451 9.46257 6.52618 9.46323 6.52818 9.46396C6.54372 9.46961 6.56893 9.47505 6.59999 9.47505C6.63105 9.47505 6.65627 9.46961 6.67181 9.46396C6.67432 9.46305 6.67631 9.46223 6.67782 9.46157L9.36966 6.76973C9.6078 6.53159 9.74999 6.1333 9.74999 5.80006C9.74999 5.51097 9.638 5.20634 9.38492 4.94586ZM6.66966 9.46972C6.66962 9.46977 6.66971 9.46968 6.66966 9.46972V9.46972ZM6.59808 3.66452C7.70823 2.77076 9.30933 2.87156 10.3983 3.8395L10.4147 3.85414L10.4303 3.86972C10.9665 4.40589 11.25 5.09488 11.25 5.80006C11.25 6.46681 10.9922 7.26852 10.4303 7.83039L7.73032 10.5304C7.40784 10.8529 6.97385 10.9751 6.59999 10.9751C6.22613 10.9751 5.79214 10.8529 5.46966 10.5304L5.46402 10.5247L3.16402 8.12474L2.86966 7.83039C1.76076 6.72149 1.80285 4.96794 2.83944 3.80178L2.8896 3.74535L2.94999 3.70005C3.45224 3.32337 4.10633 3.05005 4.79999 3.05005C5.37943 3.05005 6.06079 3.24476 6.59808 3.66452Z" fill="black"/>
<path fill-rule="evenodd" clip-rule="evenodd" d="M13.6 11.65C12.9855 11.65 12.3805 11.8802 11.9303 12.3304C11.0271 13.2336 11.0263 14.7421 12.0087 15.6489L12.0197 15.6591L15.9303 19.5697C16.1374 19.7768 16.4626 19.7768 16.6697 19.5697L20.5697 15.6697C21.0198 15.2195 21.25 14.6145 21.25 14C21.25 13.394 21.0276 12.8115 20.5119 12.3695L20.49 12.3507L20.4697 12.3304C19.5626 11.4232 18.0374 11.4232 17.1303 12.3304L16.2 13.2607L15.2697 12.3304C14.8195 11.8802 14.2145 11.65 13.6 11.65ZM10.8697 11.2697C11.6195 10.5198 12.6145 10.15 13.6 10.15C14.5294 10.15 15.4673 10.479 16.2 11.1454C17.6961 9.78443 20.0578 9.8191 21.5099 11.2494C22.3786 12.0054 22.75 13.0143 22.75 14C22.75 14.9855 22.3802 15.9805 21.6303 16.7304L17.7303 20.6304C16.9374 21.4232 15.6626 21.4232 14.8697 20.6304L10.9797 16.7404C9.37366 15.246 9.3765 12.7629 10.8697 11.2697Z" fill="black"/>
</svg>
