<svg width="24" height="24" viewBox="0 0 24 24" fill="none" xmlns="http://www.w3.org/2000/svg">
<path fill-rule="evenodd" clip-rule="evenodd" d="M4.73713 6.7235C3.12087 8.432 3.12096 11.0683 4.7374 12.7767L11.0303 19.0696C11.5374 19.5767 12.3626 19.5767 12.8697 19.0696L18.452 13.4873L19.165 12.6724L19.1983 12.6425C20.0211 11.902 20.45 10.8145 20.45 9.69995C20.45 8.70472 20.0333 7.59122 19.2621 6.72357C17.5532 5.12083 14.9269 5.12542 13.2233 6.73735L12.0342 7.92643L10.6725 6.73493L10.6425 6.70167C9.902 5.87886 8.81459 5.44995 7.7 5.44995C6.7038 5.44995 5.59712 5.86712 4.73713 6.7235ZM3.66967 5.66962C4.80872 4.53057 6.29883 3.94995 7.7 3.94995C9.17085 3.94995 10.6684 4.5099 11.7262 5.66379L11.9658 5.87347L12.1765 5.66282L12.1834 5.6562C14.4729 3.4812 18.0271 3.4812 20.3166 5.6562L20.3378 5.67641L20.3575 5.69823C21.3738 6.82747 21.95 8.30358 21.95 9.69995C21.95 11.1708 21.3901 12.6683 20.2362 13.7261L19.548 14.5126L13.9303 20.1303C12.8374 21.2232 11.0626 21.2232 9.96967 20.1303L3.66287 13.8235L3.65625 13.8165C1.48125 11.527 1.48125 7.97286 3.65625 5.68339L3.66287 5.67642L3.66967 5.66962Z" fill="black"/>
<path fill-rule="evenodd" clip-rule="evenodd" d="M9.95514 11.0928L8.81845 12.1421C8.37577 12.5775 7.69133 12.85 7.1 12.85H3.3C2.88579 12.85 2.55 12.5142 2.55 12.1C2.55 11.6857 2.88579 11.35 3.3 11.35H7.1C7.30336 11.35 7.61192 11.2274 7.76967 11.0696L7.78028 11.059L9.08217 9.85728C9.39077 9.55585 9.79633 9.42134 10.2015 9.48368C10.5936 9.54399 10.9198 9.77759 11.124 10.0839L11.1517 10.1255L13.3157 14.5476L14.5948 12.7569L14.6 12.75C15.0274 12.1801 15.7411 11.75 16.6 11.75H20.4C20.8142 11.75 21.15 12.0857 21.15 12.5C21.15 12.9142 20.8142 13.25 20.4 13.25H16.6C16.2618 13.25 15.9776 13.4169 15.8045 13.644L14.3158 15.7281C13.7821 16.5094 12.5763 16.4295 12.1292 15.5354L12.1263 15.5296L9.95514 11.0928Z" fill="black"/>
</svg>
