<svg width="24" height="24" viewBox="0 0 24 24" fill="none" xmlns="http://www.w3.org/2000/svg">
<path d="M10.9 3.00002L5.69998 5.50002C4.89998 5.90002 4.29998 6.60002 4.09998 7.50002L2.79998 13.1C2.59998 14 2.79998 14.9 3.39998 15.6L6.99998 20.2C7.59998 20.9 8.39998 21.3 9.29998 21.3H15C15.9 21.3 16.8 20.9 17.3 20.2L20.9 15.7C21.5 15 21.7 14.1 21.5 13.2L20.2 7.60002C20 6.70002 19.4 6.00002 18.6 5.60002L13.5 3.00002C12.7 2.70002 11.7 2.70002 10.9 3.00002Z" fill="black"/>
<path fill-rule="evenodd" clip-rule="evenodd" d="M10.6366 2.29778C11.6064 1.93411 12.7935 1.93411 13.7633 2.29778L13.8029 2.31263L18.9354 4.9292C18.9363 4.92966 18.9372 4.93011 18.9381 4.93056C19.9167 5.42074 20.6768 6.29397 20.9313 7.43352L22.2322 13.0373C22.479 14.1481 22.2349 15.2885 21.4781 16.1779L17.8975 20.6537C17.2316 21.5718 16.0921 22.05 15 22.05H9.29999C8.15996 22.05 7.15871 21.5376 6.43054 20.6881L6.41966 20.6754L2.81907 16.0747C2.06448 15.1858 1.8213 14.0468 2.06785 12.9373L2.06938 12.9304L3.36866 7.33368C3.62335 6.193 4.38467 5.31916 5.36458 4.8292L5.37498 4.824L10.6052 2.30955L10.6366 2.29778ZM11.1927 3.69149L6.03052 6.17329C5.41405 6.48313 4.97786 7.00691 4.83213 7.66272L4.83059 7.66963L3.53141 13.266C3.38041 13.9497 3.53371 14.6036 3.96943 15.1119L3.98031 15.1246L7.57972 19.7239C8.04995 20.2666 8.6448 20.55 9.29999 20.55H15C15.7008 20.55 16.3537 20.2344 16.6897 19.7641L16.7016 19.7475L20.3223 15.2216L20.3305 15.2119C20.7662 14.7036 20.9195 14.0498 20.7686 13.3661L19.4678 7.76273C19.3217 7.10519 18.8836 6.58037 18.2646 6.27084L18.2593 6.26822L13.1996 3.68873C12.5847 3.46954 11.8062 3.47046 11.1927 3.69149Z" fill="black"/>
</svg>
