<svg xmlns="http://www.w3.org/2000/svg" viewBox="0 0 24 24" fill="currentColor">
  <path d="m13.5799 2.37644 5.2055 2.50266c.9799.48994 1.7411 1.36382 1.9958 2.50442l1.3009 5.60378c.2468 1.1108.0028 2.2512-.754 3.1406l-3.5806 4.4758C17.0815 21.5218 15.9421 22 14.8499 22H9.14997c-1.14003 0-2.14132-.5124-2.8695-1.3619l-.00827-.0097-3.60042-4.5005c-.75676-.8894-1.0008-2.0298-.75395-3.1406l.00153-.0069 1.29927-5.59675c.25469-1.14066 1.01597-2.01451 1.99589-2.50447l.0104-.0052L10.42 2.37644c1.008-.50192 2.1519-.50192 3.1599 0Zm-.6654 1.34438c-.5888-.29443-1.2403-.29443-1.8291 0l-.0104.0052-5.19453 2.49724c-.61647.30983-1.05264.83361-1.19838 1.48944l-.00153.0069-1.29917 5.5963c-.15101.6838.00228 1.3377.43799 1.846l.00828.0096 3.59952 4.4995c.47061.5445 1.06645.829 1.72279.829h5.69993c.7008 0 1.3538-.3156 1.6898-.7859l.0118-.0167 3.6207-4.5259.0083-.0096c.4357-.5083.589-1.1622.438-1.8459l-1.3007-5.60329c-.1458-.65583-.5819-1.17962-1.1984-1.48945l-5.2049-2.50244Z"/>
</svg>
