<svg xmlns="http://www.w3.org/2000/svg" viewBox="0 0 24 24" fill="currentColor">
  <path d="M14.4197 4.98034c-1.3071-1.30711-3.5323-1.30711-4.83939 0L4.98033 9.58031c-1.30711 1.30709-1.30711 3.53229 0 4.83939l4.59998 4.6c1.30709 1.3071 3.53229 1.3071 4.83939 0l4.5999-4.6c1.3072-1.3071 1.3072-3.5323 0-4.83939l-4.5999-4.59997ZM8.51965 3.91968c1.89285-1.8929 5.06775-1.8929 6.96065 0l4.6 4.59997c1.8929 1.89285 1.8929 5.06775 0 6.96065l-4.6 4.6c-1.8929 1.8929-5.0678 1.8929-6.96065 0l-4.59998-4.6c-1.89289-1.8929-1.89289-5.0678 0-6.96065l4.59998-4.59997Z"/>
  <path d="M12.05 8.30006c.4143 0 .75.33578.75.75v6.00004c0 .4142-.3357.75-.75.75-.4142 0-.75-.3358-.75-.75V9.05006c0-.41422.3358-.75.75-.75Z"/>
  <path d="M8.30005 12.0501c0-.4143.33579-.75.75-.75H15.05c.4143 0 .75.3357.75.75 0 .4142-.3357.75-.75.75H9.05005c-.41421 0-.75-.3358-.75-.75Z"/>
</svg>
