<svg width="24" height="24" viewBox="0 0 24 24" fill="none" xmlns="http://www.w3.org/2000/svg">
<path d="M20.1 15.5L15.5 20.1C13.9 21.7 11.2 21.7 9.59999 20.1L4.99999 15.5C3.39999 13.9 3.39999 11.2 4.99999 9.60005L9.59999 5.00005C11.2 3.40005 13.9 3.40005 15.5 5.00005L20.1 9.60005C21.7 11.2 21.7 13.8 20.1 15.5Z" fill="black"/>
<path fill-rule="evenodd" clip-rule="evenodd" d="M14.9697 5.53038C13.6626 4.22327 11.4374 4.22327 10.1303 5.53038L5.53032 10.1304C4.22321 11.4375 4.22321 13.6626 5.53032 14.9697L10.1303 19.5697C11.4374 20.8768 13.6626 20.8768 14.9697 19.5697L19.5612 14.9781C20.8905 13.5578 20.8658 11.4265 19.5697 10.1304L14.9697 5.53038ZM9.06966 4.46972C10.9626 2.57683 14.1374 2.57683 16.0303 4.46972L20.6303 9.06972C22.5318 10.9712 22.5094 14.0344 20.6461 16.0141L20.6384 16.0223L16.0303 20.6304C14.1374 22.5233 10.9626 22.5233 9.06966 20.6304L4.46966 16.0304C2.57676 14.1375 2.57676 10.9626 4.46966 9.06972L9.06966 4.46972Z" fill="black"/>
<path fill-rule="evenodd" clip-rule="evenodd" d="M12.5 8.75C12.9142 8.75 13.25 9.08579 13.25 9.5V15.5C13.25 15.9142 12.9142 16.25 12.5 16.25C12.0858 16.25 11.75 15.9142 11.75 15.5V9.5C11.75 9.08579 12.0858 8.75 12.5 8.75Z" fill="white"/>
<path fill-rule="evenodd" clip-rule="evenodd" d="M8.75 12.5C8.75 12.0858 9.08579 11.75 9.5 11.75H15.5C15.9142 11.75 16.25 12.0858 16.25 12.5C16.25 12.9142 15.9142 13.25 15.5 13.25H9.5C9.08579 13.25 8.75 12.9142 8.75 12.5Z" fill="white"/>
</svg>
