<svg width="24" height="24" fill="none" xmlns="http://www.w3.org/2000/svg"><path fill="#fff" d="M0 0h24v24H0z"/><path d="M15.4 4H9.30002c-.3 0-.50001.10002-.70001.30002L4.30002 8.60001c-.2.2-.30002.40001-.30002.70001V15.4c0 .3.10002.5.30002.7l4.29999 4.3c.2.2.40001.3.70001.3H15.4c.3 0 .5-.1.7-.3l4.3-4.3c.2-.2.3-.4.3-.7V9.30002c0-.3-.1-.50001-.3-.70001l-4.3-4.29999c-.2-.2-.4-.30002-.7-.30002zM14.4999 14.5999l-4.2999-4.3M10.2 14.5999l4.2999-4.3" stroke="#000" stroke-width="1.5" stroke-miterlimit="10" stroke-linecap="round"/></svg>