<svg width="24" height="24" viewBox="0 0 24 24" fill="none" xmlns="http://www.w3.org/2000/svg">
<path d="M20.1 15.5L15.5 20.1C13.9 21.7 11.2 21.7 9.59999 20.1L4.99999 15.5C3.39999 13.9 3.39999 11.2 4.99999 9.60005L9.59999 5.00005C11.2 3.40005 13.9 3.40005 15.5 5.00005L20.1 9.60005C21.7 11.2 21.7 13.8 20.1 15.5Z" fill="black"/>
<path fill-rule="evenodd" clip-rule="evenodd" d="M14.9697 5.53038C13.6626 4.22327 11.4374 4.22327 10.1303 5.53038L5.53032 10.1304C4.22321 11.4375 4.22321 13.6626 5.53032 14.9697L10.1303 19.5697C11.4374 20.8768 13.6626 20.8768 14.9697 19.5697L19.5612 14.9781C20.8905 13.5578 20.8658 11.4265 19.5697 10.1304L14.9697 5.53038ZM9.06966 4.46972C10.9626 2.57683 14.1374 2.57683 16.0303 4.46972L20.6303 9.06972C22.5318 10.9712 22.5094 14.0344 20.6461 16.0141L20.6384 16.0223L16.0303 20.6304C14.1374 22.5233 10.9626 22.5233 9.06966 20.6304L4.46966 16.0304C2.57676 14.1375 2.57676 10.9626 4.46966 9.06972L9.06966 4.46972Z" fill="black"/>
<path fill-rule="evenodd" clip-rule="evenodd" d="M15.1303 9.86969C15.4232 10.1626 15.4232 10.6375 15.1303 10.9304L10.9303 15.1304C10.6374 15.4232 10.1626 15.4232 9.86966 15.1304C9.57677 14.8375 9.57677 14.3626 9.86966 14.0697L14.0697 9.86969C14.3626 9.5768 14.8374 9.5768 15.1303 9.86969Z" fill="white"/>
<path fill-rule="evenodd" clip-rule="evenodd" d="M9.86966 9.86969C10.1626 9.5768 10.6374 9.5768 10.9303 9.86969L15.1303 14.0697C15.4232 14.3626 15.4232 14.8375 15.1303 15.1304C14.8374 15.4232 14.3626 15.4232 14.0697 15.1304L9.86966 10.9304C9.57677 10.6375 9.57677 10.1626 9.86966 9.86969Z" fill="white"/>
</svg>
