<svg xmlns="http://www.w3.org/2000/svg" viewBox="0 0 24 24" fill="currentColor">
  <path d="M8.25792 3.03965c.22313-.09917.45459-.13966.69212-.13966H15.05c.2375 0 .469.04049.6921.13966.2199.09773.394.23576.5383.38003l4.2999 4.29999c.1443.14427.2824.31835.3801.53822.0992.22313.1396.45459.1396.69212V15.05c0 .2376-.0404.469-.1396.6921-.0978.2199-.2358.394-.3801.5382l-4.2999 4.3c-.1443.1443-.3184.2824-.5383.3801-.2231.0991-.4546.1396-.6921.1396H8.95004c-.2375 0-.46895-.0405-.69208-.1396-.21988-.0977-.39397-.2358-.53826-.3801l-4.29999-4.3c-.14425-.1442-.28229-.3183-.38002-.5382-.09918-.2231-.13967-.4545-.13967-.6921V8.95001c0-.23753.04049-.46899.13966-.69212.09773-.21987.23576-.39395.38003-.53822L7.7197 3.41968c.14427-.14427.31835-.2823.53822-.38003Zm.60924 1.3707c-.00514.00229-.03107.01426-.0868.06999L4.48037 8.78033c-.05573.05573-.0677.08166-.06999.0868l-.0001.00023c-.00134.00289-.01026.02221-.01026.08265V15.05c0 .0605.00892.0798.01025.0826l.00011.0003c.00228.0051.01425.031.06999.0868l-.53033.5303.53033-.5303 4.29999 4.3c.05571.0557.08163.0677.08676.0699l.00023.0002c.00289.0013.02222.0102.08269.0102H15.05c.0605 0 .0798-.0089.0827-.0102l.0002-.0002c.0052-.0022.0311-.0142.0868-.0699l4.3-4.3c.0557-.0558.0677-.0817.07-.0868l.0001-.0003c.0013-.0028.0102-.0221.0102-.0826V8.95001c0-.06047-.0089-.07977-.0102-.08265l-.0001-.00023c-.0023-.00514-.0143-.03107-.07-.0868l-4.3-4.29999c-.0557-.05573-.0817-.0677-.0868-.06999l-.0002-.0001c-.0029-.00134-.0222-.01026-.0827-.01026H8.95004c-.06044 0-.07976.00892-.08265.01026l-.00023.0001Zm.45249 5.00924c.29289-.29289.76775-.29289 1.06065 0L12 11.0393l1.6196-1.61971c.2929-.29289.7678-.29289 1.0607 0 .2929.29289.2929.76781 0 1.06071l-1.6197 1.6196 1.6197 1.6197c.2929.2929.2929.7677 0 1.0606-.2929.2929-.7678.2929-1.0607 0L12 13.1606l-1.6197 1.6196c-.2929.2929-.76776.2929-1.06065 0-.2929-.2929-.2929-.7677 0-1.0606l1.61965-1.6197-1.61965-1.6196c-.2929-.2929-.2929-.76782 0-1.06071Z"/>
</svg>
