<svg xmlns="http://www.w3.org/2000/svg" fill="none" viewBox="0 0 24 24">
  <path fill="#000" d="M15.2 3.8H9.1c-.3 0-.5.1-.7.2L4 8.4c-.1.2-.2.4-.2.7v6.1c0 .3.1.5.3.7l4.3 4.3c.2.2.4.3.7.3h6.1c.3 0 .5-.1.7-.3l4.3-4.3c.2-.2.3-.4.3-.7V9.1c0-.3-.1-.5-.3-.7L16 4c-.2-.1-.5-.2-.8-.2Z"/>
  <path fill="#000" fill-rule="evenodd" d="M8.081 3.32c.208-.103.541-.27 1.019-.27h6.1c.45 0 .865.144 1.135.28l.117.058 4.285 4.488c.142.143.277.315.373.532.1.223.14.455.14.692v6.1c0 .238-.04.469-.14.692-.097.22-.235.394-.38.538l-4.3 4.3a1.784 1.784 0 0 1-.538.38c-.223.1-.454.14-.692.14H9.1c-.238 0-.469-.04-.692-.14a1.784 1.784 0 0 1-.538-.38l-4.3-4.3a1.786 1.786 0 0 1-.38-.538 1.68 1.68 0 0 1-.14-.692V9.1c0-.478.167-.811.27-1.019l.01-.016.054-.11 4.572-4.571.109-.055.016-.008Zm.761 1.299L4.618 8.842a.96.96 0 0 0-.044.108.45.45 0 0 0-.024.15v6.1c0 .06.009.08.01.083a.323.323 0 0 0 .07.087l4.3 4.3a.324.324 0 0 0 .087.07c.003.001.023.01.083.01h6.1c.063 0 .081-.01.083-.01a.326.326 0 0 0 .087-.07l4.3-4.3a.318.318 0 0 0 .07-.087.203.203 0 0 0 .01-.083V9.1c0-.06-.009-.08-.01-.083a.32.32 0 0 0-.07-.087l-.007-.006-4.103-4.299a1.07 1.07 0 0 0-.36-.075H9.1a.45.45 0 0 0-.15.024.96.96 0 0 0-.108.045Z" clip-rule="evenodd"/>
  <path fill="#fff" fill-rule="evenodd" d="M9.57 9.57a.75.75 0 0 1 1.06 0l4.2 4.2a.75.75 0 1 1-1.06 1.06l-4.2-4.2a.75.75 0 0 1 0-1.06Z" clip-rule="evenodd"/>
  <path fill="#fff" fill-rule="evenodd" d="M14.83 9.57a.75.75 0 0 1 0 1.06l-4.2 4.2a.75.75 0 0 1-1.06-1.06l4.2-4.2a.75.75 0 0 1 1.06 0Z" clip-rule="evenodd"/>
</svg>
