<svg xmlns="http://www.w3.org/2000/svg" viewBox="0 0 24 24" fill="currentColor">
  <path d="M5.23282 3.69998h-.07426l-.07282.01457c-.69556.13911-1.30341.55759-1.65487 1.13104-.35763.58351-.44809 1.33721-.06727 2.0438L8.652 18.1646c.63598 1.3945 2.0219 2.1354 3.3808 2.1354h4.4c1.3664 0 2.4592-.9588 2.7322-2.1873l.0031-.0142.4027-2.2143.0018-.0109c.1654-.9922-.5128-2.0733-1.7398-2.0733h-6.2c-.0687 0-.0954-.015-.1089-.024-.0182-.0121-.0644-.0501-.1196-.1601l-.0007-.0013-4.28687-8.67354c-.33062-.78892-1.1126-1.24108-1.88391-1.24108Zm-.52304 1.92943c.11262-.18375.3238-.35085.59089-.42509.19285.02465.3669.15198.43581.32425l.01094.02736 4.31308 8.72637.0015.0031c.1445.289.348.5507.6298.7386.2865.191.6098.276.941.276h6.2c.1192 0 .1755.0437.208.0855.0404.0519.0685.1367.0529.2372l-.3959 2.1772c-.1316.5653-.6359 1.0001-1.265 1.0001h-4.4c-.8396 0-1.6522-.4576-2.0171-1.2604L4.70093 6.20826l-.01249-.02247c-.10348-.18628-.09183-.37172.02134-.55638ZM16.8829 10.1501c0-.38583.3642-.75005.75-.75005h1c.3858 0 .75.36422.75.75005 0 .3857-.3642.75-.75.75h-1c-.3858 0-.75-.3643-.75-.75Zm.75-2.25005c-1.2142 0-2.25 1.03579-2.25 2.25005 0 1.2142 1.0358 2.25 2.25 2.25h1c1.2142 0 2.25-1.0358 2.25-2.25 0-1.21426-1.0358-2.25005-2.25-2.25005h-1Z"/>
</svg>
