<svg xmlns="http://www.w3.org/2000/svg" viewBox="0 0 24 24" fill="currentColor">
  <path d="M16.8463 2.5c.4142 0 .75.33579.75.75v3.4888l1.644 1.44669.0009.00081c.9766.85501 1.4552 2.0677 1.4552 3.2636v7.0712c.1203 1.6811-1.2848 2.9788-2.95 2.9788h-1.1889l-.0111.0001-.0111-.0001H7.55746l-.01107.0001-.01108-.0001H6.2464c-1.6142 0-2.95001-1.3357-2.95001-2.95v-7.1c0-1.2381.60943-2.42006 1.41968-3.23031l.01691-.01691L9.74796 3.7895c1.28414-1.15275 3.21264-1.15276 4.49684-.00004l1.8515 1.62934V3.25c0-.41421.3358-.75.75-.75Zm-8.54991 16v1.4999h7.50001V18.5H8.29639Zm0-2.35V17h7.50001v-.85c0-.3858-.2642-.65-.65-.65H8.94641c-.38579 0-.65002.2642-.65002.65Zm9.00001 0v3.8499h.45c.9238 0 1.5112-.685 1.4526-1.3877l-.0026-.0311v-7.1312c0-.8037-.3211-1.5906-.9439-2.13555l-.0016-.00139-5.0062-4.40556c-.7148-.6433-1.7818-.6433-2.4966 0l-.0062.0056-4.9812 4.38338c-.58079.58849-.96431 1.39862-.96431 2.15352v7.1c0 .7858.66421 1.45 1.45001 1.45h.54999V16.15c0-1.2142.93581-2.15 2.15002-2.15h6.19999c1.2143 0 2.15.9359 2.15 2.15Zm-6.5-6.4c0-.69036.5596-1.25 1.25-1.25.6903 0 1.25.55964 1.25 1.25 0 .6904-.5597 1.25-1.25 1.25-.6904 0-1.25-.5596-1.25-1.25Zm1.25-2.75c-1.5188 0-2.75001 1.23122-2.75001 2.75 0 1.5188 1.23121 2.75 2.75001 2.75 1.5188 0 2.75-1.2312 2.75-2.75 0-1.51878-1.2312-2.75-2.75-2.75Z"/>
</svg>
