<svg xmlns="http://www.w3.org/2000/svg" viewBox="0 0 24 24" fill="currentColor">
  <path d="M17.5963 3.25006c0-.41421-.3358-.75-.75-.75s-.75.33579-.75.75v2.1688l-1.8515-1.62934c-1.2842-1.15272-3.2127-1.15271-4.49684.00004L4.73298 8.20274l-.01691.01691C3.90582 9.0299 3.29639 10.2119 3.29639 11.45v7.1c0 1.6142 1.33581 2.95 2.95001 2.95h11.5c1.6652 0 3.0703-1.2978 2.95-2.9788V11.45c0-1.1959-.4786-2.40863-1.4552-3.26364l-.0009-.00081-1.644-1.44669v-3.4888Zm-6.8482 1.6574c.7148-.6433 1.7818-.6433 2.4966 0l5.0062 4.40556.0016.00139c.6228.54495.9439 1.33189.9439 2.13559v7.1312l.0026.0311C19.2576 19.315 18.6702 20 17.7464 20h-11.5c-.7858 0-1.45001-.6642-1.45001-1.45v-7.1c0-.7549.38352-1.56507.96431-2.15356l4.9812-4.38338.0062-.0056Z"/>
</svg>
