<svg xmlns="http://www.w3.org/2000/svg" viewBox="0 0 24 24" fill="currentColor">
  <path d="M13.2447 4.90744c-.7148-.6433-1.7818-.6433-2.4966 0l-.0062.0056-4.9812 4.38338c-.58079.58849-.96431 1.39858-.96431 2.15358v7.1c0 .7858.66421 1.45 1.45001 1.45h11.5c.9238 0 1.5112-.685 1.4526-1.3877l-.0026-.0311V11.45c0-.8037-.3211-1.59066-.9439-2.13561l-.0016-.0014-5.0062-4.40555Zm1.0001-1.11795c-1.2842-1.15272-3.2127-1.1527-4.49684.00005L4.73298 8.20272l-.01691.01691c-.81025.81024-1.41968 1.99217-1.41968 3.23037v7.1c0 1.6142 1.33581 2.95 2.95001 2.95h11.5c1.6652 0 3.0703-1.2978 2.95-2.9789V11.45c0-1.196-.4786-2.40865-1.4552-3.26366l-.0009-.00081-4.9955-4.39604Z"/>
  <path d="M12.0464 11c-.6904 0-1.25.5597-1.25 1.25 0 .6904.5596 1.25 1.25 1.25.6903 0 1.25-.5596 1.25-1.25 0-.6903-.5597-1.25-1.25-1.25Zm-2.75001 1.25c0-1.5187 1.23121-2.74996 2.75001-2.74996 1.5188 0 2.75 1.23126 2.75 2.74996 0 1.5188-1.2312 2.75-2.75 2.75s-2.75001-1.2312-2.75001-2.75Z"/>
  <path d="M16.8463 2.50004c.4142 0 .75.33578.75.75v3.70001c0 .41421-.3358.75-.75.75s-.75-.33579-.75-.75V3.25004c0-.41422.3358-.75.75-.75Z"/>
</svg>
