<svg xmlns="http://www.w3.org/2000/svg" viewBox="0 0 24 24" fill="currentColor">
  <path d="M10.7481 4.69493c.7148-.64329 1.7818-.64329 2.4966 0l5.0062 4.40556.0016.0014c.6228.54494.9439 1.33191.9439 2.13561v7.1312l.0026.0311c.0586.7027-.5288 1.3877-1.4526 1.3877h-.45v-3.8499c0-1.2142-.9357-2.1501-2.15-2.1501H8.94641c-1.21421 0-2.15002.9358-2.15002 2.1501v3.8499H6.2464c-.7858 0-1.45001-.6643-1.45001-1.45v-7.1c0-.755.38352-1.5651.96431-2.15358l4.9812-4.38339.0062-.0056Zm5.0483 11.24267v.8499H8.29639v-.8499c0-.3858.26423-.6501.65002-.6501h6.19999c.3858 0 .65.2642.65.6501Zm0 3.8499v-1.5H8.29639v1.5h7.50001Zm-8.26109 1.5H17.7464c1.6652 0 3.0703-1.2978 2.95-2.9789v-7.0711c0-1.196-.4786-2.40865-1.4552-3.26367l-.0009-.00081-4.9955-4.39603c-1.2842-1.15272-3.2127-1.1527-4.49684.00005L4.73298 7.99022l-.01691.01691c-.81025.81024-1.41968 1.9922-1.41968 3.23037v7.1c0 1.6142 1.33581 2.95 2.95001 2.95h1.28891ZM10.7964 9.53754c0-.69036.5596-1.25 1.25-1.25.6903 0 1.25.55964 1.25 1.25s-.5597 1.24996-1.25 1.24996c-.6904 0-1.25-.5596-1.25-1.24996Zm1.25-2.75c-1.5188 0-2.75001 1.23121-2.75001 2.75 0 1.51876 1.23121 2.74996 2.75001 2.74996 1.5188 0 2.75-1.2312 2.75-2.74996 0-1.51879-1.2312-2.75-2.75-2.75Z"/>
</svg>
