<svg xmlns="http://www.w3.org/2000/svg" viewBox="0 0 24 24" fill="currentColor">
  <path d="M13.2447 4.69496c-.7148-.64329-1.7818-.64329-2.4966 0l-.0062.0056-4.9812 4.38339c-.58079.58848-.96431 1.39865-.96431 2.15355v7.1c0 .7858.66421 1.45 1.45001 1.45h.54999v-3.85c0-1.2142.93581-2.15 2.15002-2.15h6.19999c1.2143 0 2.15.9358 2.15 2.15v3.85h.45c.9238 0 1.5112-.685 1.4526-1.3877l-.0026-.0311v-7.1312c0-.8037-.3211-1.59064-.9439-2.13558l-.0016-.0014-5.0062-4.40556Zm2.5517 12.09254v-.85c0-.3858-.2642-.65-.65-.65H8.94641c-.38579 0-.65002.2642-.65002.65v.85h7.50001Zm-7.50001 1.5h7.50001v1.5H8.29639v-1.5ZM14.2448 3.57702c-1.2842-1.15272-3.2127-1.1527-4.49684.00005L4.73298 7.99025l-.01691.01691c-.81025.81024-1.41968 1.9922-1.41968 3.23034v7.1c0 1.6142 1.33581 2.95 2.95001 2.95h11.5c1.6652 0 3.0703-1.2978 2.95-2.9788v-7.0712c0-1.1959-.4786-2.40862-1.4552-3.26363l-.0009-.00081-4.9955-4.39604Z"/>
</svg>
