<svg xmlns="http://www.w3.org/2000/svg" viewBox="0 0 24 24" fill="currentColor">
  <path d="M10.7481 4.69496c.7148-.64329 1.7818-.64329 2.4966 0l5.0062 4.40556.0016.0014c.6228.54494.9439 1.33188.9439 2.13558v7.1312l.0026.0311c.0586.7027-.5288 1.3877-1.4526 1.3877h-.45v-3.85c0-1.2142-.9357-2.15-2.15-2.15H8.94641c-1.21421 0-2.15002.9358-2.15002 2.15v3.85H6.2464c-.7858 0-1.45001-.6642-1.45001-1.45v-7.1c0-.7549.38352-1.56507.96431-2.15355l4.9812-4.38339.0062-.0056ZM8.29639 19.7875h7.50001v-3.85c0-.3858-.2642-.65-.65-.65H8.94641c-.38579 0-.65002.2642-.65002.65v3.85ZM9.74796 3.57707c1.28414-1.15275 3.21264-1.15277 4.49684-.00005l4.9955 4.39604.0009.00081c.9766.85501 1.4552 2.06773 1.4552 3.26363v7.0712c.1203 1.681-1.2848 2.9788-2.95 2.9788h-11.5c-1.6142 0-2.95001-1.3358-2.95001-2.95v-7.1c0-1.23814.60943-2.4201 1.41968-3.23034l.01691-.01691 5.01498-4.41318Z"/>
</svg>
