<svg xmlns="http://www.w3.org/2000/svg" viewBox="0 0 24 24" fill="currentColor">
  <path d="M17.5963 3.25c0-.41421-.3358-.75-.75-.75s-.75.33579-.75.75v2.1688l-1.8515-1.62934c-1.2842-1.15272-3.2127-1.15271-4.49684.00004L4.73298 8.20268l-.01691.01691c-.81025.81025-1.41968 1.99221-1.41968 3.23031v7.1c0 1.6143 1.33581 2.95 2.95001 2.95h1.28891l.01108.0001.01107-.0001h8.97784l.0111.0001.0111-.0001h1.1889c1.6652 0 3.0703-1.2977 2.95-2.9788v-7.0712c0-1.1959-.4786-2.40859-1.4552-3.2636l-.0009-.00081-1.644-1.44669V3.25Zm-1.7999 12.9v3.8499H8.29639V16.15c0-.3858.26423-.65.65002-.65h6.19999c.3858 0 .65.2642.65.65Zm1.5 0v3.8499h.45c.9238 0 1.5112-.685 1.4526-1.3877l-.0026-.0311v-7.1312c0-.8037-.3211-1.5906-.9439-2.13555l-.0016-.00139-5.0062-4.40556c-.7148-.6433-1.7818-.6433-2.4966 0l-.0062.0056-4.9812 4.38338c-.58079.58849-.96431 1.39862-.96431 2.15352v7.1c0 .7858.66421 1.45 1.45001 1.45h.54999V16.15c0-1.2142.93581-2.15 2.15002-2.15h6.19999c1.2143 0 2.15.9359 2.15 2.15Zm-6.5-6.4c0-.69036.5596-1.25 1.25-1.25.6903 0 1.25.55964 1.25 1.25 0 .6904-.5597 1.25-1.25 1.25-.6904 0-1.25-.5596-1.25-1.25Zm1.25-2.75c-1.5188 0-2.75001 1.23122-2.75001 2.75 0 1.5188 1.23121 2.75 2.75001 2.75 1.5188 0 2.75-1.2312 2.75-2.75 0-1.51878-1.2312-2.75-2.75-2.75Z"/>
</svg>
