<svg xmlns="http://www.w3.org/2000/svg" viewBox="0 0 24 24" fill="currentColor">
  <path d="M13.2447 4.69497c-.7148-.64329-1.7818-.64329-2.4966 0l-.0062.0056-4.9812 4.38339c-.58079.58848-.96431 1.39864-.96431 2.15354v7.1c0 .7858.66421 1.45 1.45001 1.45h11.5c.9238 0 1.5112-.685 1.4526-1.3877l-.0026-.0311v-7.1312c0-.8037-.3211-1.59063-.9439-2.13557l-.0016-.0014-5.0062-4.40556Zm1.0001-1.11794c-1.2842-1.15272-3.2127-1.15271-4.49684.00004L4.73298 7.99026l-.01691.01691c-.81025.81024-1.41968 1.99219-1.41968 3.23033v7.1c0 1.6142 1.33581 2.95 2.95001 2.95h11.5c1.6652 0 3.0703-1.2978 2.95-2.9788v-7.0712c0-1.1959-.4786-2.40861-1.4552-3.26363l-.0009-.00081-4.9955-4.39603Z"/>
</svg>
