<svg xmlns="http://www.w3.org/2000/svg" viewBox="0 0 24 24" fill="currentColor">
  <path d="M13.2447 4.69493c-.7148-.64329-1.7818-.64329-2.4966 0l-.0062.0056-4.9812 4.38339c-.58079.58848-.96431 1.39858-.96431 2.15358v7.1c0 .7857.66421 1.45 1.45001 1.45h.54999v-3.8499c0-1.2143.93581-2.1501 2.15002-2.1501h6.19999c1.2143 0 2.15.9359 2.15 2.1501v3.8499h.45c.9238 0 1.5112-.685 1.4526-1.3877l-.0026-.0311v-7.1312c0-.8037-.3211-1.59067-.9439-2.13561l-.0016-.0014-5.0062-4.40556ZM7.54639 21.2875H6.2464c-1.6142 0-2.95001-1.3358-2.95001-2.95v-7.1c0-1.23817.60943-2.42013 1.41968-3.23037l.01691-.01691 5.01498-4.41318c1.28414-1.15275 3.21264-1.15277 4.49684-.00005l4.9955 4.39603.0009.00081c.9766.85502 1.4552 2.06767 1.4552 3.26367v7.0711c.1203 1.6811-1.2848 2.9789-2.95 2.9789H7.54639Zm.75-5.3499v3.8499h7.50001v-3.8499c0-.3859-.2642-.6501-.65-.6501H8.94641c-.38579 0-.65002.2643-.65002.6501Zm2.50001-6.40006c0-.69036.5596-1.25 1.25-1.25.6903 0 1.25.55964 1.25 1.25s-.5597 1.24996-1.25 1.24996c-.6904 0-1.25-.5596-1.25-1.24996Zm1.25-2.75c-1.5188 0-2.75001 1.23121-2.75001 2.75 0 1.51876 1.23121 2.74996 2.75001 2.74996 1.5188 0 2.75-1.2312 2.75-2.74996 0-1.51879-1.2312-2.75-2.75-2.75Z"/>
</svg>
