<svg xmlns="http://www.w3.org/2000/svg" viewBox="0 0 24 24" fill="currentColor">
  <path d="M13.2447 4.69493c-.7148-.64329-1.7818-.64329-2.4966 0l-.0062.0056-4.9812 4.38339c-.58079.58848-.96431 1.39858-.96431 2.15358v7.1c0 .7857.66421 1.45 1.45001 1.45h3.04999v-3.8499c0-.4854.08975-.9438.25356-1.3078.08117-.1804.19435-.3683.35178-.5223.15547-.152.40827-.32.74467-.32h2.8c.3364 0 .5892.168.7447.3201.1574.1539.2706.3418.3517.5222.1638.364.2536.8224.2536 1.3078v3.8499h2.95c.9238 0 1.5112-.685 1.4526-1.3877l-.0026-.0311v-7.1312c0-.8037-.3211-1.59067-.9439-2.13561l-.0016-.0014-5.0062-4.40556ZM10.0464 21.2875h-3.8c-1.6142 0-2.95001-1.3358-2.95001-2.95v-7.1c0-1.23817.60943-2.42013 1.41968-3.23037l.01691-.01691 5.01498-4.41318c1.28414-1.15275 3.21264-1.15277 4.49684-.00005l4.9955 4.39603.0009.00081c.9766.85502 1.4552 2.06767 1.4552 3.26367v7.0711c.1203 1.6811-1.2848 2.9789-2.95 2.9789h-7.7Zm.75-5.3499v3.8499h2.5v-3.8499c0-.2843-.0492-.509-.1038-.6501h-2.2924c-.0546.141-.1038.3658-.1038.6501Zm0-6.40006c0-.69036.5596-1.25 1.25-1.25.6903 0 1.25.55964 1.25 1.25s-.5597 1.24996-1.25 1.24996c-.6904 0-1.25-.5596-1.25-1.24996Zm1.25-2.75c-1.5188 0-2.75001 1.23121-2.75001 2.75 0 1.51876 1.23121 2.74996 2.75001 2.74996 1.5188 0 2.75-1.2312 2.75-2.74996 0-1.51879-1.2312-2.75-2.75-2.75Z"/>
</svg>
