<svg width="24" height="24" viewBox="0 0 24 24" fill="none" xmlns="http://www.w3.org/2000/svg">
<path fill-rule="evenodd" clip-rule="evenodd" d="M9.14881 10.2779C9.35432 9.91829 9.81246 9.79334 10.1721 9.99885C10.8008 10.3581 11.4717 10.6 12.2 10.6C12.8597 10.6 13.4324 10.4391 14.0279 10.0988C14.3875 9.89334 14.8457 10.0183 15.0512 10.3779C15.2567 10.7376 15.1317 11.1957 14.7721 11.4012C13.9676 11.861 13.1403 12.1 12.2 12.1C11.1283 12.1 10.1991 11.7419 9.42789 11.3012C9.06825 11.0957 8.9433 10.6376 9.14881 10.2779Z" fill="black"/>
<path fill-rule="evenodd" clip-rule="evenodd" d="M12.1 3.19995C10.3574 3.19995 8.86528 4.44771 8.53542 6.09704C8.45418 6.50321 8.05906 6.76662 7.65289 6.68539C7.24672 6.60415 6.98331 6.20903 7.06454 5.80286C7.53468 3.4522 9.64257 1.69995 12.1 1.69995C14.5574 1.69995 16.6653 3.4522 17.1354 5.80286C17.2167 6.20903 16.9532 6.60415 16.5471 6.68539C16.1409 6.76662 15.7458 6.50321 15.6645 6.09704C15.3347 4.44771 13.8426 3.19995 12.1 3.19995Z" fill="black"/>
<path fill-rule="evenodd" clip-rule="evenodd" d="M8.54778 5.89247C8.57955 6.30546 8.27051 6.66601 7.85752 6.69778C6.9693 6.7661 6.14999 7.62043 6.14999 8.64999C6.14999 9.73577 7.01421 10.6 8.09999 10.6C8.57385 10.6 9.01308 10.3991 9.43147 10.0643C9.75492 9.80558 10.2269 9.85802 10.4856 10.1815C10.7444 10.5049 10.692 10.9769 10.3685 11.2356C9.78691 11.7009 9.02614 12.1 8.09999 12.1C6.18578 12.1 4.64999 10.5642 4.64999 8.64999C4.64999 6.87955 6.03068 5.33387 7.74247 5.2022C8.15547 5.17043 8.51602 5.47947 8.54778 5.89247Z" fill="black"/>
<path fill-rule="evenodd" clip-rule="evenodd" d="M15.7724 5.86808C15.8728 5.46623 16.28 5.22191 16.6819 5.32238C18.1758 5.69585 19.35 6.96628 19.35 8.64998C19.35 10.5642 17.8142 12.1 15.9 12.1C15.1511 12.1 14.3421 11.8528 13.7697 11.2803C13.4768 10.9874 13.4768 10.5125 13.7697 10.2197C14.0626 9.92676 14.5374 9.92676 14.8303 10.2197C15.0578 10.4472 15.4488 10.6 15.9 10.6C16.9858 10.6 17.85 9.73577 17.85 8.64998C17.85 7.73369 17.2242 7.00411 16.3181 6.77759C15.9162 6.67713 15.6719 6.26993 15.7724 5.86808Z" fill="black"/>
<path fill-rule="evenodd" clip-rule="evenodd" d="M7.00373 10.5609C7.38425 10.3973 7.82537 10.5732 7.989 10.9537L12.05 20.3979L16.111 10.9537C16.2746 10.5732 16.7157 10.3973 17.0963 10.5609C17.4768 10.7246 17.6526 11.1657 17.489 11.5462L13.1805 21.566L13.1708 21.5854C12.9522 22.0227 12.5273 22.2999 12.05 22.2999C11.5727 22.2999 11.1478 22.0227 10.9292 21.5854L10.9195 21.566L6.61099 11.5462C6.44737 11.1657 6.6232 10.7246 7.00373 10.5609Z" fill="black"/>
</svg>
