<svg width="24" height="24" viewBox="0 0 24 24" fill="none" xmlns="http://www.w3.org/2000/svg">
<path fill-rule="evenodd" clip-rule="evenodd" d="M12.2 3.19995C10.4574 3.19995 8.9653 4.44771 8.63543 6.09704L8.52337 6.65733L7.95343 6.69804C6.95179 6.76959 6.14999 7.63751 6.14999 8.64995C6.14999 9.53593 6.65323 10.2488 7.44669 10.5416C7.61648 10.5972 7.71229 10.6 7.99999 10.6C8.47456 10.6 8.92132 10.401 9.48397 10.0259L9.94992 9.71528L10.3801 10.0738C10.7972 10.4213 11.4004 10.6 12.2 10.6C12.7789 10.6 13.4279 10.43 13.884 10.1259L14.3956 9.78485L14.8303 10.2196C15.0578 10.4471 15.4489 10.6 15.9 10.6C16.1877 10.6 16.2835 10.5972 16.4534 10.5416C17.2897 10.2333 17.85 9.49259 17.85 8.64995C17.85 7.7009 17.1909 6.89575 16.3181 6.67756L15.8576 6.56244L15.7646 6.09704C15.4347 4.44771 13.9426 3.19995 12.2 3.19995ZM7.2967 5.28688C7.95137 3.20033 9.92604 1.69995 12.2 1.69995C14.5027 1.69995 16.4986 3.23858 17.1275 5.36645C18.4258 5.88556 19.35 7.16402 19.35 8.64995C19.35 10.2041 18.3146 11.4609 16.9563 11.9548L16.9468 11.9583L16.9372 11.9615C16.5214 12.1001 16.2191 12.1 15.9182 12.1L15.9 12.1C15.3364 12.1 14.7388 11.9599 14.2335 11.6466C13.5863 11.9548 12.8521 12.1 12.2 12.1C11.3858 12.1 10.574 11.9533 9.87789 11.547C9.33887 11.856 8.72181 12.1 7.99999 12.1L7.98183 12.1C7.68092 12.1 7.37863 12.1001 6.96282 11.9615L6.95321 11.9583L6.94369 11.9548C5.54269 11.4453 4.64999 10.1604 4.64999 8.64995C4.64999 7.04931 5.77109 5.6535 7.2967 5.28688Z" fill="black"/>
<path d="M16.8 11.2499L12.5 21.2499C12.3 21.5499 11.8 21.5499 11.6 21.2499L7.29999 11.2499C7.59999 11.3499 7.79999 11.3499 8.09999 11.3499C8.79999 11.3499 9.39999 11.0499 9.89999 10.6499C10.6 11.0499 11.4 11.3499 12.2 11.3499C13 11.3499 13.7 11.1499 14.4 10.7499C14.9 11.1499 15.4 11.3499 16 11.3499C16.2 11.3499 16.5 11.3499 16.8 11.2499Z" fill="black"/>
<path fill-rule="evenodd" clip-rule="evenodd" d="M9.82952 9.74585L10.2721 9.99875C10.9105 10.3636 11.5794 10.5999 12.2 10.5999C12.8597 10.5999 13.4324 10.439 14.0279 10.0988L14.4705 9.84585L14.8685 10.1643C15.2584 10.4762 15.5974 10.5999 16 10.5999C16.2058 10.5999 16.3921 10.5953 16.5628 10.5384L18.1498 10.0094L13.162 21.609L13.124 21.666C12.8585 22.0643 12.424 22.2249 12.05 22.2249C11.676 22.2249 11.2415 22.0643 10.976 21.666L10.938 21.609L5.95018 10.0094L7.53717 10.5384C7.713 10.597 7.80695 10.5999 8.1 10.5999C8.57385 10.5999 9.01308 10.399 9.43148 10.0643L9.82952 9.74585ZM9.95894 11.5294C9.53498 11.7994 9.0383 12.0117 8.47254 12.0782L12.05 20.3978L15.6271 12.079C15.1578 12.0251 14.7358 11.8687 14.3406 11.6252C13.67 11.9383 12.9732 12.0999 12.2 12.0999C11.3985 12.0999 10.6293 11.8564 9.95894 11.5294Z" fill="black"/>
</svg>
