<svg xmlns="http://www.w3.org/2000/svg" viewBox="0 0 24 24" fill="currentColor">
  <path d="M3.75 9c0-1.28579.96421-2.25 2.25-2.25h12c1.2858 0 2.25.96421 2.25 2.25v6c0 1.1858-1.0642 2.25-2.25 2.25H6c-1.28579 0-2.25-.9642-2.25-2.25V9ZM6 5.25C3.88579 5.25 2.25 6.88579 2.25 9v6c0 2.1142 1.63579 3.75 3.75 3.75h12c2.0142 0 3.75-1.7358 3.75-3.75V9c0-2.11421-1.6358-3.75-3.75-3.75H6ZM7.25 12c0-.9665.7835-1.75 1.75-1.75s1.75.7835 1.75 1.75-.7835 1.75-1.75 1.75-1.75-.7835-1.75-1.75ZM9 8.75c-1.79493 0-3.25 1.4551-3.25 3.25S7.20507 15.25 9 15.25c1.7949 0 3.25-1.4551 3.25-3.25S10.7949 8.75 9 8.75Zm4.75 1.75c0-.4142.3358-.75.75-.75h3c.4142 0 .75.3358.75.75s-.3358.75-.75.75h-3c-.4142 0-.75-.3358-.75-.75Zm.75 2.25c-.4142 0-.75.3358-.75.75s.3358.75.75.75h3c.4142 0 .75-.3358.75-.75s-.3358-.75-.75-.75h-3Z"/>
</svg>
