<svg xmlns="http://www.w3.org/2000/svg" fill="none" viewBox="0 0 24 24">
  <path fill="#000" fill-rule="evenodd" d="M6 6.75c-1.286 0-2.25.964-2.25 2.25v6c0 1.286.964 2.25 2.25 2.25h12c1.186 0 2.25-1.064 2.25-2.25V9c0-1.286-.964-2.25-2.25-2.25H6ZM2.25 9c0-2.114 1.636-3.75 3.75-3.75h12c2.114 0 3.75 1.636 3.75 3.75v6c0 2.014-1.736 3.75-3.75 3.75H6c-2.114 0-3.75-1.636-3.75-3.75V9Z" clip-rule="evenodd"/>
  <path fill="#000" d="M9 14.5a2.5 2.5 0 1 0 0-5 2.5 2.5 0 0 0 0 5Z"/>
  <path fill="#000" fill-rule="evenodd" d="M9 10.25a1.75 1.75 0 1 0 0 3.5 1.75 1.75 0 0 0 0-3.5ZM5.75 12a3.25 3.25 0 1 1 6.5 0 3.25 3.25 0 0 1-6.5 0Zm8-1.5a.75.75 0 0 1 .75-.75h3a.75.75 0 0 1 0 1.5h-3a.75.75 0 0 1-.75-.75Zm0 3a.75.75 0 0 1 .75-.75h3a.75.75 0 0 1 0 1.5h-3a.75.75 0 0 1-.75-.75Z" clip-rule="evenodd"/>
</svg>
