<svg xmlns="http://www.w3.org/2000/svg" fill="none" viewBox="0 0 24 24">
  <path fill="#000" fill-rule="evenodd" d="M6 6.75c-1.286 0-2.25.964-2.25 2.25v6c0 1.286.964 2.25 2.25 2.25h12c1.186 0 2.25-1.064 2.25-2.25V9c0-1.286-.964-2.25-2.25-2.25H6ZM2.25 9c0-2.114 1.636-3.75 3.75-3.75h12c2.114 0 3.75 1.636 3.75 3.75v6c0 2.014-1.736 3.75-3.75 3.75H6c-2.114 0-3.75-1.636-3.75-3.75V9Z" clip-rule="evenodd"/>
  <path fill="#000" fill-rule="evenodd" d="M13.95 10.5a.75.75 0 0 1 .75-.75h3a.75.75 0 0 1 0 1.5h-3a.75.75 0 0 1-.75-.75Zm0 3a.75.75 0 0 1 .75-.75h3a.75.75 0 0 1 0 1.5h-3a.75.75 0 0 1-.75-.75Z" clip-rule="evenodd"/>
  <path fill="#000" d="M10.2 14.5h-3c-.6 0-1-.4-1-1v-3c0-.6.4-1 1-1h3c.6 0 1 .4 1 1v3c0 .5-.4 1-1 1Z"/>
  <path fill="#000" fill-rule="evenodd" d="M7.005 10.305c-.015.016-.055.065-.055.195v3c0 .13.04.18.055.195.016.015.065.055.195.055h3c.08 0 .135-.03.177-.074a.27.27 0 0 0 .073-.176v-3c0-.13-.04-.18-.055-.195-.016-.015-.065-.055-.195-.055h-3c-.13 0-.18.04-.195.055Zm-1.06-1.06c.334-.335.785-.495 1.255-.495h3c.47 0 .92.16 1.255.495.335.334.495.785.495 1.255v3c0 .865-.688 1.75-1.75 1.75h-3c-.47 0-.92-.16-1.255-.495-.335-.334-.495-.785-.495-1.255v-3c0-.47.16-.92.495-1.255Z" clip-rule="evenodd"/>
</svg>
