<svg xmlns="http://www.w3.org/2000/svg" viewBox="0 0 24 24" fill="currentColor">
  <path d="M3.75 9c0-1.28579.96421-2.25 2.25-2.25h12c1.2858 0 2.25.96421 2.25 2.25v6c0 1.1858-1.0642 2.25-2.25 2.25H6c-1.28579 0-2.25-.9642-2.25-2.25V9ZM6 5.25C3.88579 5.25 2.25 6.88579 2.25 9v6c0 2.1142 1.63579 3.75 3.75 3.75h12c2.0142 0 3.75-1.7358 3.75-3.75V9c0-2.11421-1.6358-3.75-3.75-3.75H6Zm8.7 4.5c-.4143 0-.75.3358-.75.75s.3357.75.75.75h3c.4142 0 .75-.3358.75-.75s-.3358-.75-.75-.75h-3Zm-.75 3.75c0-.4142.3357-.75.75-.75h3c.4142 0 .75.3358.75.75s-.3358.75-.75.75h-3c-.4143 0-.75-.3358-.75-.75Zm-7.00005-3c0-.1296.03992-.1793.05533-.1947.01542-.0154.06511-.0553.19467-.0553H10.2c.1295 0 .1792.0399.1946.0553.0154.0154.0554.0651.0554.1947v3c0 .0546-.0242.1232-.0733.1758-.0421.0451-.0974.0742-.1767.0742H7.19995c-.12956 0-.17925-.0399-.19467-.0553-.01541-.0154-.05533-.0651-.05533-.1947v-3Zm.25-1.75c-.47043 0-.92074.16009-1.25533.49467-.33458.33458-.49467.78493-.49467 1.25533v3c0 .4704.16009.9207.49467 1.2553.33459.3346.7849.4947 1.25533.4947H10.2c1.0621 0 1.75-.8854 1.75-1.75v-3c0-.4704-.1601-.92075-.4947-1.25533C11.1207 8.91009 10.6704 8.75 10.2 8.75H7.19995Z"/>
</svg>
