<svg xmlns="http://www.w3.org/2000/svg" viewBox="0 0 24 24" fill="currentColor">
  <path d="M7 3.75C5.21421 3.75 3.75 5.21421 3.75 7v5.9787c.09793-.078.20118-.1568.30977-.2355C5.15724 11.9475 6.80791 11.1504 9 11.1504c1.0992 0 1.9637.2074 2.6879.5601.7181.3499 1.2557.8228 1.7174 1.2846.1665.1664.322.3286.4721.4853l.0003.0002c.7082.7389 1.2985 1.3546 2.3595 1.7083l.0056.0018c.8272.283 1.4619.2733 1.9473.1431.4905-.1315.8845-.401 1.2003-.722.3185-.3236.5461-.6885.695-.9796.0736-.1438.1257-.2652.1585-.3478l.0061-.0154V7c0-1.78579-1.4642-3.25-3.25-3.25H7ZM3.75 17v-1.9429c.04686-.0564.10589-.1248.17708-.2022.22249-.2419.56062-.5692 1.01315-.8973C5.84276 13.3033 7.1921 12.6504 9 12.6504c.90083 0 1.5363.1676 2.0309.4086.5006.2439.9005.5835 1.3138.9967.126.126.2546.2617.3887.403.7154.7542 1.5848 1.6709 3.0267 2.1523 1.0716.3661 2.011.3881 2.8185.1716.687-.1842 1.2388-.5302 1.6714-.9184V17c0 1.7858-1.4642 3.25-3.25 3.25H7c-1.87354 0-3.25-1.4519-3.25-3.25ZM2.25 7c0-2.61421 2.13579-4.75 4.75-4.75h10c2.6142 0 4.75 2.13579 4.75 4.75v10c0 2.6142-2.1358 4.75-4.75 4.75H7c-2.72646 0-4.75-2.1481-4.75-4.75V7Zm12.5 1.5c0-.41421.3358-.75.75-.75s.75.33579.75.75-.3358.75-.75.75-.75-.33579-.75-.75Zm.75-2.25c-1.2426 0-2.25 1.00736-2.25 2.25s1.0074 2.25 2.25 2.25 2.25-1.00736 2.25-2.25-1.0074-2.25-2.25-2.25Z"/>
</svg>
