<svg width="24" height="24" viewBox="0 0 24 24" fill="none" xmlns="http://www.w3.org/2000/svg">
<path fill-rule="evenodd" clip-rule="evenodd" d="M18.3504 4.53519C17.3577 3.46608 15.6488 3.43675 14.5303 4.55519L14.5205 4.565L14.5103 4.57445C13.4412 5.5672 13.4119 7.27609 14.5303 8.39453L14.5401 8.40434L14.5496 8.41452C15.5529 9.49497 17.3471 9.49497 18.3504 8.41452L18.3693 8.39416L18.3897 8.37526C19.4588 7.38251 19.4881 5.67363 18.3697 4.55519L18.3599 4.54537L18.3504 4.53519ZM19.4401 3.50432C17.8349 1.7871 15.1584 1.81615 13.4795 3.48476C11.7622 5.08997 11.7913 7.76653 13.4599 9.44542C15.0519 11.148 17.8339 11.1513 19.4306 9.45553C21.1376 7.84929 21.1054 5.17993 19.4401 3.50432Z" fill="black"/>
<path fill-rule="evenodd" clip-rule="evenodd" d="M13.4697 8.39463L18.3697 3.49463L19.4303 4.55529L14.5303 9.45529L13.4697 8.39463Z" fill="black"/>
<path fill-rule="evenodd" clip-rule="evenodd" d="M7 3.7749C5.21421 3.7749 3.75 5.23912 3.75 7.0249V15.0249C3.75 15.4391 3.41421 15.7749 3 15.7749C2.58579 15.7749 2.25 15.4391 2.25 15.0249V7.0249C2.25 4.41069 4.38579 2.2749 7 2.2749H10C10.4142 2.2749 10.75 2.61069 10.75 3.0249C10.75 3.43912 10.4142 3.7749 10 3.7749H7Z" fill="black"/>
<path fill-rule="evenodd" clip-rule="evenodd" d="M17.7988 13.783C17.229 13.2893 16.5581 13.2831 16.0939 13.6893L16.0845 13.6975L15.4067 14.2709L19.7684 18.6327C20.0845 18.1567 20.25 17.5741 20.25 16.9249V16.0526L17.7988 13.783ZM15.1111 12.5561C16.2444 11.569 17.7668 11.7617 18.7939 12.6605L18.8018 12.6674L21.75 15.3972V16.9249C21.75 18.2101 21.2786 19.4277 20.2939 20.2893L19.7658 20.7514L13.1933 14.1789L15.1111 12.5561Z" fill="black"/>
<path fill-rule="evenodd" clip-rule="evenodd" d="M21 10.2749C21.4142 10.2749 21.75 10.6107 21.75 11.0249V15.7249C21.75 16.1391 21.4142 16.4749 21 16.4749C20.5858 16.4749 20.25 16.1391 20.25 15.7249V11.0249C20.25 10.6107 20.5858 10.2749 21 10.2749Z" fill="black"/>
<path d="M19.8 19.8248C19.1 20.5248 18.1 21.0248 17 21.0248H7C4.8 21.0248 3 19.2248 3 17.0248V15.1248L8.6 11.0248C9.4 10.4248 10.5 10.5248 11.2 11.2248L14.3 14.3248L19.8 19.8248Z" fill="black"/>
<path fill-rule="evenodd" clip-rule="evenodd" d="M10.6697 11.7553C10.2242 11.3099 9.54093 11.2568 9.05 11.625L9.04308 11.6302L3.75 15.5054V17.025C3.75 18.8108 5.21421 20.275 7 20.275H17C17.6076 20.275 18.1883 20.0812 18.6813 19.767L10.6697 11.7553ZM8.15374 10.4222C9.26248 9.59351 10.7769 9.74118 11.7303 10.6947L20.8607 19.825L20.3303 20.3553C19.5118 21.1738 18.3282 21.775 17 21.775H7C4.38579 21.775 2.25 19.6392 2.25 17.025V14.7446L8.15374 10.4222Z" fill="black"/>
</svg>
