<svg xmlns="http://www.w3.org/2000/svg" viewBox="0 0 24 24" fill="currentColor">
  <path d="M7 3.75C5.21421 3.75 3.75 5.21421 3.75 7v6.5214l4.40373-3.2242c1.10874-.82869 2.62317-.68103 3.57657.2724l2.6204 2.6205.6604-.5588c1.1332-.9871 2.6556-.7944 3.6828.1044l.0079.0069 1.5482 1.4335V7c0-1.78579-1.4642-3.25-3.25-3.25H7Zm13.25 12.4704-2.5512-2.3623c-.5698-.4936-1.2407-.4998-1.7049-.0936l-.0094.0082-.5694.4817 4.3864 4.3865c.2848-.4825.4485-1.0437.4485-1.6409v-.7796ZM3.75 17v-1.6196l5.29306-3.8753.00003.0001L9.05 11.5c.49093-.3682 1.1742-.3151 1.6197.1303l8.0946 8.0947c-.5091.3317-1.1155.525-1.7643.525H7c-1.87354 0-3.25-1.4519-3.25-3.25ZM2.25 7c0-2.61421 2.13579-4.75 4.75-4.75h10c2.6142 0 4.75 2.13579 4.75 4.75v10c0 2.6142-2.1358 4.75-4.75 4.75H7c-2.72646 0-4.75-2.1481-4.75-4.75V7Z"/>
</svg>
