<svg xmlns="http://www.w3.org/2000/svg" viewBox="0 0 24 24" fill="currentColor">
  <path d="m3.75072 11.8884 2.11905-2.11901c1.06551-1.06551 2.85636-1.12547 3.8768.01613l5.28383 5.28388c.5071.5071 1.2323.5071 1.7394 0l3.4708-3.4708C20.0341 7.20222 16.4512 3.75 12 3.75c-4.54853 0-8.19041 3.60492-8.24928 8.1384Zm16.27498 2.0464L17.8304 16.13c-1.0929 1.0929-2.7677 1.0929-3.8606 0l-5.31769-5.3176-.01644-.0188c-.38273-.4374-1.17704-.4918-1.70524.0364l-2.97831 2.9783C4.77943 17.4564 8.05127 20.25 12 20.25c3.9185 0 7.1642-2.6755 8.0257-6.3152ZM2.25 12c0-5.41421 4.33579-9.75 9.75-9.75 5.4142 0 9.75 4.33579 9.75 9.75 0 5.4142-4.3358 9.75-9.75 9.75-5.41962 0-9.75-4.4412-9.75-9.75ZM15.5 8.75c-.4142 0-.75.33579-.75.75s.3358.75.75.75.75-.33579.75-.75-.3358-.75-.75-.75Zm-2.25.75c0-1.24264 1.0074-2.25 2.25-2.25s2.25 1.00736 2.25 2.25c0 1.2426-1.0074 2.25-2.25 2.25s-2.25-1.0074-2.25-2.25Z"/>
</svg>
