<svg xmlns="http://www.w3.org/2000/svg" viewBox="0 0 24 24" fill="currentColor">
  <path d="M3 17V7c0-2.2 1.8-4 4-4h10c2.2 0 4 1.8 4 4v10c0 2.2-1.8 4-4 4H7c-2.3 0-4-1.8-4-4Z"/>
  <path d="M15.5 10c.8284 0 1.5-.67157 1.5-1.5S16.3284 7 15.5 7 14 7.67157 14 8.5s.6716 1.5 1.5 1.5Z"/>
  <path d="m3 13.7001 3.5-3.5c.8-.8 2-.8 2.8 0l5.3 5.3c.8.8 2 .8 2.8 0l3.5-3.5"/>
  <path d="M7 3.75C5.21421 3.75 3.75 5.21421 3.75 7v4.8894l2.21967-2.21963c1.09289-1.0929 2.76777-1.0929 3.86066 0l5.29997 5.30003c.5071.5071 1.2323.5071 1.7394 0l3.3803-3.3804V7c0-1.78579-1.4642-3.25-3.25-3.25H7Zm13.25 9.9607-2.3197 2.3197c-1.0929 1.0929-2.7678 1.0929-3.8606 0l-5.30003-5.3c-.50711-.5071-1.23224-.5071-1.73934 0L3.75 14.0108V17c0 1.7981 1.37646 3.25 3.25 3.25h10c1.7858 0 3.25-1.4642 3.25-3.25v-3.2893ZM2.25 7c0-2.61421 2.13579-4.75 4.75-4.75h10c2.6142 0 4.75 2.13579 4.75 4.75v10c0 2.6142-2.1358 4.75-4.75 4.75H7c-2.72646 0-4.75-2.1481-4.75-4.75V7Zm13.25.75c-.4142 0-.75.33579-.75.75s.3358.75.75.75.75-.33579.75-.75-.3358-.75-.75-.75Zm-2.25.75c0-1.24264 1.0074-2.25 2.25-2.25s2.25 1.00736 2.25 2.25-1.0074 2.25-2.25 2.25-2.25-1.00736-2.25-2.25Z"/>
</svg>
