<svg xmlns="http://www.w3.org/2000/svg" viewBox="0 0 24 24" fill="currentColor">
  <path d="M12 3.75c-4.58579 0-8.25 3.66421-8.25 8.25 0 .5793.06105 1.1464.17723 1.6948 2.16656-.9766 7.00267-2.4716 16.28057-2.5427C19.7886 6.97071 16.2993 3.75 12 3.75Zm8.2251 8.902c-9.4117.0715-14.02855 1.6317-15.84877 2.4874C5.61246 18.1144 8.5475 20.25 12 20.25c4.3663 0 7.8971-3.3218 8.2251-7.598ZM2.25 12c0-5.41421 4.33579-9.75 9.75-9.75 5.4142 0 9.75 4.33579 9.75 9.75 0 5.4142-4.3358 9.75-9.75 9.75-5.41962 0-9.75-4.4412-9.75-9.75ZM8.5 7.75c-.41421 0-.75.33579-.75.75s.33579.75.75.75.75-.33579.75-.75-.33579-.75-.75-.75Zm-2.25.75c0-1.24264 1.00736-2.25 2.25-2.25s2.25 1.00736 2.25 2.25-1.00736 2.25-2.25 2.25S6.25 9.74264 6.25 8.5Z"/>
</svg>
