<svg xmlns="http://www.w3.org/2000/svg" viewBox="0 0 24 24" fill="currentColor">
  <path d="M14.5303 4.55543c.9274-.92737 2.2607-1.06563 3.2551-.47634l-3.717 3.71705c-.6183-1.06644-.4501-2.39319.4419-3.22144l.0102-.00945.0098-.00982Zm3.8201 3.85936c-.8342.89832-2.2151 1.04975-3.2336.45428l3.7148-3.71488c.6182 1.06643.45 2.39311-.442 3.22134l-.0203.0189-.0189.02036Zm1.0897-4.91022c-1.6052-1.71722-4.2818-1.68817-5.9607-.01957-1.7172 1.60522-1.6881 4.2818-.0195 5.96068 1.592 1.70252 4.3739 1.70592 5.9707.01012 1.707-1.60624 1.6748-4.27563.0095-5.95123ZM3.75 7.0249c0-1.78578 1.46421-3.25 3.25-3.25h3c.4142 0 .75-.33578.75-.75 0-.41421-.3358-.75-.75-.75H7c-2.61421 0-4.75 2.13579-4.75 4.75v10c0 2.6142 2.13579 4.75 4.75 4.75h10c2.6142 0 4.75-2.1358 4.75-4.75v-6c0-.4142-.3358-.75-.75-.75s-.75.3358-.75.75v3.076l-1.5482-1.4335-.0079-.0069c-1.0271-.8988-2.5495-1.0915-3.6828-.1044l-.7146.6046-2.5662-2.5662c-.9534-.95344-2.46782-1.10107-3.57655-.2724L3.75 13.5462V7.0249Zm11.6109 7.2002 4.4407 4.4407c.2847-.4826.4484-1.0437.4484-1.6409v-.8797l-2.5512-2.3622c-.5698-.4937-1.2407-.4999-1.7049-.0937l-.0094.0082-.6236.5276Zm-4.6912-2.5699 8.0946 8.0946c-.5091.3318-1.1155.5251-1.7643.5251H7c-1.78579 0-3.25-1.4642-3.25-3.25v-1.6196L9.04306 11.53l.00003.0001.00691-.0052c.49094-.3682 1.1742-.3151 1.6197.1303Z"/>
</svg>
