<svg xmlns="http://www.w3.org/2000/svg" fill="none" viewBox="0 0 24 24">
  <path fill="#000" d="M17.2 20.3c-.7.7-1.7 1.2-2.8 1.2h-8c-2.2 0-4-1.8-4-4v-1.3l5-3.6c.6-.5 1.6-.4 2.2.2l7.6 7.5Z"/>
  <path fill="#000" fill-rule="evenodd" d="M9.07 13.33c-.373-.373-.937-.365-1.19-.154l-.02.017-4.71 3.391v.916a3.262 3.262 0 0 0 3.25 3.25h8a3.14 3.14 0 0 0 1.676-.505L9.07 13.33Zm1.058-1.062c-.82-.819-2.24-1.03-3.185-.263l-5.293 3.81V17.5a4.762 4.762 0 0 0 4.75 4.75h8c1.328 0 2.512-.601 3.33-1.42l.534-.533-8.136-8.03Z" clip-rule="evenodd"/>
  <path fill="#000" fill-rule="evenodd" d="M15.47 15.03c-.415-.414-.97-.413-1.382-.06l-.008.006-.569.474 3.616 3.616c.144-.256.258-.544.352-.872l.004-.016.005-.015c.055-.164.062-.336.062-.763v-.29l-2.08-2.08Zm-2.354-1.203c.988-.843 2.43-.842 3.414.143l2.52 2.52v.958c0 .357 0 .76-.133 1.172-.225.779-.576 1.499-1.187 2.11l-.53.53-5.911-5.911 1.827-1.523Z" clip-rule="evenodd"/>
  <path fill="#000" fill-rule="evenodd" d="M6.3 6.25A3.262 3.262 0 0 0 3.05 9.5v5.236l3.814-2.746c1.005-.718 2.409-.573 3.26.274l2.212 2.13.705-.588.023-.016a2.706 2.706 0 0 1 3.324.14l.016.014 1.146 1.098V9.5a3.262 3.262 0 0 0-3.25-3.25h-8ZM1.55 9.5A4.762 4.762 0 0 1 6.3 4.75h8a4.762 4.762 0 0 1 4.75 4.75v9.058l-3.652-3.5a1.206 1.206 0 0 0-1.442-.062l-1.692 1.41-3.19-3.07-.004-.006c-.348-.348-.94-.4-1.333-.12h-.001L1.55 17.664V9.5Zm16.18 10.27.1.1-1.06 1.06-.1-.1 1.06-1.06Z" clip-rule="evenodd"/>
  <path fill="#000" fill-rule="evenodd" d="M9.7 3.25c-1.56 0-2.852 1.068-3.17 2.422l-1.46-.344C5.55 3.282 7.46 1.75 9.7 1.75h8a4.762 4.762 0 0 1 4.75 4.75v8c0 2.383-1.784 4.388-4.139 4.742l-.222-1.484c1.645-.246 2.861-1.641 2.861-3.258v-8a3.262 3.262 0 0 0-3.25-3.25h-8Z" clip-rule="evenodd"/>
</svg>
