<svg xmlns="http://www.w3.org/2000/svg" viewBox="0 0 24 24" fill="currentColor">
  <path d="M12 3.75c-4.58579 0-8.25 3.66421-8.25 8.25 0 .4844.04269.9603.12461 1.4239l4.27931-3.1272c1.1087-.8284 2.62288-.68071 3.57628.2727l2.612 2.612.7687-.6505c1.1333-.9871 2.6557-.7943 3.6828.1044l.0119.0104 1.2441 1.1849c.1312-.5881.2003-1.2006.2003-1.8306 0-4.58579-3.6642-8.25-8.25-8.25Zm7.5273 11.6545-1.7324-1.6499c-.569-.4905-1.238-.4958-1.7012-.0904l-.0094.0082-.6777.5734 2.9894 2.9894c.4526-.5539.8342-1.1686 1.1313-1.8307ZM12 20.25c-3.51918 0-6.50072-2.2188-7.69338-5.2839l4.73582-3.4608.00746-.0056c.49094-.3682 1.1742-.3151 1.6197.1304l6.6749 6.6749C15.9089 19.5205 14.0462 20.25 12 20.25ZM2.25 12c0-5.41421 4.33579-9.75 9.75-9.75 5.4142 0 9.75 4.33579 9.75 9.75 0 5.4142-4.3358 9.75-9.75 9.75-5.41962 0-9.75-4.4412-9.75-9.75Z"/>
</svg>
