<svg xmlns="http://www.w3.org/2000/svg" fill="none" viewBox="0 0 24 24">
  <path fill="#000" fill-rule="evenodd" d="M12 3.75A8.213 8.213 0 0 0 3.75 12c0 .58.061 1.146.177 1.695 2.167-.977 7.003-2.472 16.28-2.543A8.208 8.208 0 0 0 12 3.75Zm8.225 8.902c-9.412.072-14.028 1.632-15.849 2.487C5.612 18.114 8.547 20.25 12 20.25a8.209 8.209 0 0 0 8.225-7.598ZM2.25 12A9.713 9.713 0 0 1 12 2.25 9.713 9.713 0 0 1 21.75 12 9.713 9.713 0 0 1 12 21.75c-5.42 0-9.75-4.441-9.75-9.75ZM8.5 7.75a.75.75 0 1 0 0 1.5.75.75 0 0 0 0-1.5Zm-2.25.75a2.25 2.25 0 1 1 4.5 0 2.25 2.25 0 0 1-4.5 0Z" clip-rule="evenodd"/>
</svg>
