<svg xmlns="http://www.w3.org/2000/svg" viewBox="0 0 24 24" fill="currentColor">
  <path d="M3.75 7c0-1.78579 1.46421-3.25 3.25-3.25h5c.4142 0 .75-.33579.75-.75s-.3358-.75-.75-.75H7C4.38579 2.25 2.25 4.38579 2.25 7v10c0 2.6142 2.13579 4.75 4.75 4.75h10c2.6142 0 4.75-2.1358 4.75-4.75V9c0-.41421-.3358-.75-.75-.75s-.75.33579-.75.75v5.0835l-1.4482-1.3409-.0079-.0069c-1.0271-.8988-2.5495-1.0915-3.6827-.1044l-.7146.6046-2.6663-2.6663c-.9534-.95343-2.46782-1.10109-3.57656-.2724L3.75 13.5214V7Zm14.0488 6.8582 2.4512 2.2696V17c0 .5972-.1637 1.1584-.4485 1.6409l-4.3405-4.3406.6235-.5276.0094-.0082c.4642-.4062 1.1351-.4 1.7049.0937ZM3.75 15.3804V17c0 1.7858 1.46421 3.25 3.25 3.25h10c.6488 0 1.2552-.1933 1.7643-.525l-8.0946-8.0947c-.4455-.4454-1.12877-.4985-1.6197-.1303l-.00692.0052-.00002-.0001L3.75 15.3804ZM19.122 5.13852c.2974-.28835.3047-.76317.0163-1.06053-.2883-.29737-.7631-.30467-1.0605-.01632l-2.8624 2.77571-.8155-1.08727c-.2485-.33138-.7186-.39853-1.05-.15001-.3314.24853-.3985.71863-.15 1.05l1.232 1.64265.0377.03769c.2118.21187.4886.29467.7178.29467.116 0 .2954-.02086.4728-.13001.0961-.05915.1866-.14303.2561-.24803l3.2057-3.10855Z"/>
</svg>
