<svg xmlns="http://www.w3.org/2000/svg" fill="none" viewBox="0 0 24 24">
  <path fill="#000" fill-rule="evenodd" d="M7 3.75A3.262 3.262 0 0 0 3.75 7v6.811c.635-.302 1.544-.668 2.79-1.03 2.73-.795 7.078-1.573 13.71-1.628V7A3.262 3.262 0 0 0 17 3.75H7Zm13.25 8.903c-6.515.055-10.719.82-13.29 1.567-1.334.389-2.229.772-2.778 1.05-.18.09-.323.17-.432.235V17c0 1.798 1.376 3.25 3.25 3.25h10A3.262 3.262 0 0 0 20.25 17v-4.347ZM2.25 7A4.762 4.762 0 0 1 7 2.25h10A4.762 4.762 0 0 1 21.75 7v10A4.762 4.762 0 0 1 17 21.75H7c-2.726 0-4.75-2.148-4.75-4.75V7Zm5.25-.25a.75.75 0 1 0 0 1.5.75.75 0 0 0 0-1.5Zm-2.25.75a2.25 2.25 0 1 1 4.5 0 2.25 2.25 0 0 1-4.5 0Z" clip-rule="evenodd"/>
</svg>
