<svg xmlns="http://www.w3.org/2000/svg" viewBox="0 0 24 24" fill="currentColor">
  <path d="M7 3.75C5.21421 3.75 3.75 5.21421 3.75 7v6.8111c.63505-.3023 1.54427-.6683 2.79051-1.0309 2.72959-.794 7.07779-1.5719 13.70949-1.6267V7c0-1.78579-1.4642-3.25-3.25-3.25H7Zm13.25 8.9035c-6.5149.0548-10.71905.819-13.2905 1.567-1.33396.3881-2.22802.7717-2.77752 1.0493-.17959.0907-.32248.1702-.43198.2349V17c0 1.7981 1.37646 3.25 3.25 3.25h10c1.7858 0 3.25-1.4642 3.25-3.25v-4.3465ZM2.25 7c0-2.61421 2.13579-4.75 4.75-4.75h10c2.6142 0 4.75 2.13579 4.75 4.75v10c0 2.6142-2.1358 4.75-4.75 4.75H7c-2.72646 0-4.75-2.1481-4.75-4.75V7Zm5.25-.25c-.41421 0-.75.33579-.75.75s.33579.75.75.75.75-.33579.75-.75-.33579-.75-.75-.75Zm-2.25.75c0-1.24264 1.00736-2.25 2.25-2.25S9.75 6.25736 9.75 7.5 8.74264 9.75 7.5 9.75 5.25 8.74264 5.25 7.5Z"/>
</svg>
