<svg xmlns="http://www.w3.org/2000/svg" viewBox="0 0 24 24" fill="currentColor">
  <path d="M7 3.75C5.21421 3.75 3.75 5.21421 3.75 7v6.5214l4.40374-3.2242c1.10874-.82869 2.62316-.68103 3.57656.2724l2.6663 2.6663.7146-.6046c1.1332-.9871 2.6556-.7944 3.6827.1044l.0079.0069 1.4482 1.3409V9c0-.41421.3358-.75.75-.75s.75.33579.75.75v8c0 2.6142-2.1358 4.75-4.75 4.75H7c-2.61421 0-4.75-2.1358-4.75-4.75V7c0-2.61421 2.13579-4.75 4.75-4.75h5c.4142 0 .75.33579.75.75s-.3358.75-.75.75H7Zm13.25 12.3778-2.4512-2.2696c-.5698-.4937-1.2406-.4999-1.7049-.0937l-.0094.0082-.6235.5276 4.3405 4.3406c.2848-.4825.4485-1.0437.4485-1.6409v-.8722ZM3.75 17v-1.6196l5.29305-3.8753.00003.0001L9.05 11.5c.49093-.3682 1.1742-.3151 1.6197.1303l8.0946 8.0947c-.5091.3317-1.1155.525-1.7643.525H7c-1.78579 0-3.25-1.4642-3.25-3.25ZM16.4 3.25c.4142 0 .75.33579.75.75v1.6499h1.75c.4142 0 .75.33579.75.75 0 .41422-.3358.75-.75.75h-1.75v1.75009c0 .41422-.3358.75-.75.75s-.75-.33578-.75-.75V7.1499H14c-.4142 0-.75-.33578-.75-.75 0-.41421.3358-.75.75-.75h1.65V4c0-.41421.3358-.75.75-.75Z"/>
</svg>
