<svg xmlns="http://www.w3.org/2000/svg" viewBox="0 0 24 24" fill="currentColor">
  <path d="M12 3.75c-4.58579 0-8.25 3.66421-8.25 8.25 0 .3069.01713.6103.05052.9094 1.09621-.8518 2.82948-1.76 5.19929-1.76 1.09919 0 1.96379.2074 2.68789.5601.7181.3499 1.2557.8228 1.7174 1.2846.1665.1664.322.3286.4722.4853l.0002.0002v.0001c.7082.7388 1.2985 1.3545 2.3595 1.7082l.0073.0024v.0001c1.2392.4273 2.077.201 2.6562-.1633.5476-.3445.9241-.8522 1.1603-1.2473.124-.5725.1892-1.168.1892-1.7798 0-4.58579-3.6642-8.25-8.25-8.25Zm0 16.5c-3.66689 0-6.75007-2.409-7.83401-5.6743.78772-.7685 2.39864-1.9263 4.83382-1.9263.90083 0 1.53629.1676 2.03089.4086.5006.2439.9006.5835 1.3138.9967.126.126.2546.2617.3887.4031.7152.754 1.5845 1.6704 3.0258 2.1519 1.1829.4071 2.1888.3848 3.0204.1173C17.2945 18.8627 14.8217 20.25 12 20.25ZM2.25 12c0-5.41421 4.33579-9.75 9.75-9.75 5.4142 0 9.75 4.33579 9.75 9.75 0 5.4142-4.3358 9.75-9.75 9.75-5.41962 0-9.75-4.4412-9.75-9.75Zm12.5-2.5c0-.41421.3358-.75.75-.75s.75.33579.75.75-.3358.75-.75.75-.75-.33579-.75-.75Zm.75-2.25c-1.2426 0-2.25 1.00736-2.25 2.25 0 1.2426 1.0074 2.25 2.25 2.25s2.25-1.0074 2.25-2.25c0-1.24264-1.0074-2.25-2.25-2.25Z"/>
</svg>
