<svg xmlns="http://www.w3.org/2000/svg" viewBox="0 0 24 24" fill="currentColor">
  <path d="M3.75 9c0-2.88579 2.36421-5.25 5.25-5.25h6c2.8858 0 5.25 2.36421 5.25 5.25v5.25H14c-.4142 0-.75.3358-.75.75 0 .6858-.5642 1.25-1.25 1.25s-1.25-.5642-1.25-1.25c0-.4142-.3358-.75-.75-.75H3.75V9Zm-1.5 6c0 3.7142 3.03579 6.75 6.75 6.75h6c3.7142 0 6.75-3.0358 6.75-6.75V9c0-3.71421-3.0358-6.75-6.75-6.75H9C5.28579 2.25 2.25 5.28579 2.25 9v6Zm1.55389.75h5.55042c.32796 1.1519 1.39129 2 2.64569 2 1.2544 0 2.3177-.8481 2.6457-2h5.5504c-.3671 2.5344-2.5648 4.5-5.1961 4.5H9c-2.63131 0-4.82898-1.9656-5.19611-4.5Z"/>
</svg>
