<svg width="24" height="24" viewBox="0 0 24 24" fill="none" xmlns="http://www.w3.org/2000/svg">
<path d="M21 9V15H14C14 16.1 13.1 17 12 17C10.9 17 10 16.1 10 15H3V9C3 5.7 5.7 3 9 3H15C18.3 3 21 5.6 21 9Z" fill="black"/>
<path fill-rule="evenodd" clip-rule="evenodd" d="M9 3.75C6.11421 3.75 3.75 6.11421 3.75 9V14.25H10.75V15C10.75 15.6858 11.3142 16.25 12 16.25C12.6858 16.25 13.25 15.6858 13.25 15V14.25H20.25V9C20.25 6.02236 17.894 3.75 15 3.75H9ZM2.25 9C2.25 5.28579 5.28579 2.25 9 2.25H15C18.706 2.25 21.75 5.17764 21.75 9V15.75H14.6457C14.3177 16.9019 13.2544 17.75 12 17.75C10.7456 17.75 9.68227 16.9019 9.35431 15.75H2.25V9Z" fill="black"/>
<path fill-rule="evenodd" clip-rule="evenodd" d="M2.25 14.25H10.75V15C10.75 15.6858 11.3142 16.25 12 16.25C12.6858 16.25 13.25 15.6858 13.25 15V14.25H21.75V15C21.75 18.7142 18.7142 21.75 15 21.75H9C5.28579 21.75 2.25 18.7142 2.25 15V14.25ZM3.80389 15.75C4.17102 18.2844 6.36869 20.25 9 20.25H15C17.6313 20.25 19.829 18.2844 20.1961 15.75H14.6457C14.3177 16.9019 13.2544 17.75 12 17.75C10.7456 17.75 9.68227 16.9019 9.35431 15.75H3.80389Z" fill="black"/>
<path fill-rule="evenodd" clip-rule="evenodd" d="M7.75 7C7.75 6.58579 8.08579 6.25 8.5 6.25H15.5C15.9142 6.25 16.25 6.58579 16.25 7C16.25 7.41421 15.9142 7.75 15.5 7.75H8.5C8.08579 7.75 7.75 7.41421 7.75 7Z" fill="white"/>
<path fill-rule="evenodd" clip-rule="evenodd" d="M7.75 11C7.75 10.5858 8.08579 10.25 8.5 10.25H15.5C15.9142 10.25 16.25 10.5858 16.25 11C16.25 11.4142 15.9142 11.75 15.5 11.75H8.5C8.08579 11.75 7.75 11.4142 7.75 11Z" fill="white"/>
</svg>
