<svg xmlns="http://www.w3.org/2000/svg" viewBox="0 0 24 24" fill="currentColor">
  <path d="M3.75 9c0-2.88579 2.36421-5.25 5.25-5.25h6c2.8858 0 5.25 2.36421 5.25 5.25v4.25h-4.575c-.3475-1.7117-1.8608-3-3.675-3-1.8142 0-3.32753 1.2883-3.67499 3H3.75V9Zm-1.5 5v1c0 3.7142 3.03579 6.75 6.75 6.75h6c3.7142 0 6.75-3.0358 6.75-6.75V9c0-3.71421-3.0358-6.75-6.75-6.75H9C5.28579 2.25 2.25 5.28579 2.25 9v5Zm1.5.75h4.57501c.34746 1.7117 1.86079 3 3.67499 3 1.8142 0 3.3275-1.2883 3.675-3h4.575V15c0 2.8858-2.3642 5.25-5.25 5.25H9c-2.88579 0-5.25-2.3642-5.25-5.25v-.25Zm6-.75c0 1.2426 1.0074 2.25 2.25 2.25s2.25-1.0074 2.25-2.25-1.0074-2.25-2.25-2.25S9.75 12.7574 9.75 14Z"/>
</svg>
