<svg width="24" height="24" viewBox="0 0 24 24" fill="none" xmlns="http://www.w3.org/2000/svg">
<path d="M9.7 18.2C9.7 19.8 8.4 21.2 6.7 21.2C5.1 21.2 3.7 19.9 3.7 18.2C3.7 16.5 5 15.2 6.7 15.2C8.4 15.3 9.7 16.6 9.7 18.2Z" fill="black"/>
<path fill-rule="evenodd" clip-rule="evenodd" d="M6.67808 15.95C5.40327 15.9609 4.45 16.9215 4.45 18.2C4.45 19.4696 5.49787 20.45 6.7 20.45C7.96963 20.45 8.95 19.4021 8.95 18.2C8.95 17.0432 8.01087 16.0388 6.67808 15.95ZM2.95 18.2C2.95 16.0857 4.58579 14.45 6.7 14.45H6.72204L6.74404 14.4512C8.79953 14.5722 10.45 16.1631 10.45 18.2C10.45 20.1978 8.83038 21.95 6.7 21.95C4.70213 21.95 2.95 20.3303 2.95 18.2Z" fill="black"/>
<path d="M20.6 18.2C20.6 19.8 19.3 21.2 17.6 21.2C15.9 21.2 14.6 19.9 14.6 18.2C14.6 16.5 15.9 15.2 17.6 15.2C19.3 15.2 20.6 16.6 20.6 18.2Z" fill="black"/>
<path fill-rule="evenodd" clip-rule="evenodd" d="M17.6 15.95C16.3142 15.95 15.35 16.9142 15.35 18.2C15.35 19.4857 16.3142 20.45 17.6 20.45C18.8696 20.45 19.85 19.4021 19.85 18.2C19.85 16.9978 18.8696 15.95 17.6 15.95ZM13.85 18.2C13.85 16.0857 15.4858 14.45 17.6 14.45C19.7304 14.45 21.35 16.2021 21.35 18.2C21.35 20.1978 19.7304 21.95 17.6 21.95C15.4858 21.95 13.85 20.3142 13.85 18.2Z" fill="black"/>
<path fill-rule="evenodd" clip-rule="evenodd" d="M8.95 18.2C8.95 17.7857 9.28579 17.45 9.7 17.45H14.7C15.1142 17.45 15.45 17.7857 15.45 18.2C15.45 18.6142 15.1142 18.95 14.7 18.95H9.7C9.28579 18.95 8.95 18.6142 8.95 18.2Z" fill="black"/>
<path fill-rule="evenodd" clip-rule="evenodd" d="M17.9885 12.3628C18.1195 11.9698 18.5442 11.7574 18.9372 11.8884C19.1973 11.9751 19.4864 12.0425 19.8186 12.1191L19.8351 12.1229C20.1489 12.1953 20.5031 12.2771 20.8372 12.3884C21.2301 12.5194 21.4425 12.9441 21.3115 13.3371C21.1805 13.7301 20.7558 13.9424 20.3628 13.8114C20.1027 13.7247 19.8136 13.6574 19.4814 13.5807C19.4759 13.5795 19.4704 13.5782 19.4649 13.5769C19.1511 13.5045 18.7969 13.4228 18.4628 13.3114C18.0699 13.1805 17.8575 12.7557 17.9885 12.3628Z" fill="black"/>
<path fill-rule="evenodd" clip-rule="evenodd" d="M6.64246 12.3939C6.70104 12.804 6.41612 13.1839 6.00607 13.2424C5.35616 13.3353 4.59426 13.5245 3.90604 13.7211C3.50776 13.8349 3.09265 13.6043 2.97886 13.206C2.86506 12.8077 3.09568 12.3926 3.49396 12.2788C4.20574 12.0755 5.04384 11.8647 5.79393 11.7575C6.20398 11.6989 6.58388 11.9839 6.64246 12.3939Z" fill="black"/>
<path d="M18.8 5.89995V12.2C18.8 12.4 18.8 12.5 18.7 12.7C16.5 12.2 14.2 12 11.9 12C9.9 12 7.9 12.2 5.9 12.6C5.9 12.5 5.9 12.4 5.9 12.3V5.89995C5.9 4.09995 7.3 2.69995 9.1 2.69995H15.7C17.4 2.79995 18.8 4.19995 18.8 5.89995Z" fill="black"/>
<path fill-rule="evenodd" clip-rule="evenodd" d="M9.1 3.44995C7.71421 3.44995 6.65 4.51416 6.65 5.89995V11.6982C8.39891 11.3995 10.1491 11.25 11.9 11.25C13.9621 11.25 16.0364 11.4077 18.05 11.7971V5.89995C18.05 4.62869 16.996 3.53817 15.6766 3.44995H9.1ZM5.15 5.89995C5.15 3.68574 6.88578 1.94995 9.1 1.94995H15.722L15.744 1.95125C17.815 2.07307 19.55 3.77782 19.55 5.89995V12.2C19.55 12.2055 19.55 12.2113 19.55 12.2173C19.5501 12.3035 19.5503 12.4351 19.5273 12.5733C19.4996 12.7396 19.4452 12.8866 19.3708 13.0354L19.1076 13.5617L18.5338 13.4313C16.4005 12.9465 14.1581 12.75 11.9 12.75C9.95036 12.75 7.99962 12.9449 6.04708 13.3354L5.15 13.5148V5.89995Z" fill="black"/>
</svg>
