<svg xmlns="http://www.w3.org/2000/svg" fill="none" viewBox="0 0 24 24">
  <path fill="#000" d="M9.7 18.2c0 1.6-1.3 3-3 3-1.6 0-3-1.3-3-3s1.3-3 3-3c1.7.1 3 1.4 3 3Z"/>
  <path fill="#000" fill-rule="evenodd" d="M6.678 15.95c-1.275.01-2.228.972-2.228 2.25 0 1.27 1.048 2.25 2.25 2.25 1.27 0 2.25-1.048 2.25-2.25 0-1.157-.94-2.161-2.272-2.25ZM2.95 18.2c0-2.114 1.636-3.75 3.75-3.75h.022l.022.001c2.056.121 3.706 1.712 3.706 3.749 0 1.998-1.62 3.75-3.75 3.75-1.998 0-3.75-1.62-3.75-3.75Z" clip-rule="evenodd"/>
  <path fill="#000" d="M20.6 18.2c0 1.6-1.3 3-3 3s-3-1.3-3-3 1.3-3 3-3 3 1.4 3 3Z"/>
  <path fill="#000" fill-rule="evenodd" d="M17.6 15.95c-1.286 0-2.25.964-2.25 2.25s.964 2.25 2.25 2.25c1.27 0 2.25-1.048 2.25-2.25s-.98-2.25-2.25-2.25Zm-3.75 2.25c0-2.114 1.636-3.75 3.75-3.75 2.13 0 3.75 1.752 3.75 3.75s-1.62 3.75-3.75 3.75c-2.114 0-3.75-1.636-3.75-3.75Z" clip-rule="evenodd"/>
  <path fill="#000" fill-rule="evenodd" d="M8.95 18.2a.75.75 0 0 1 .75-.75h5a.75.75 0 1 1 0 1.5h-5a.75.75 0 0 1-.75-.75Zm9.038-5.837a.75.75 0 0 1 .95-.475c.26.087.548.155.88.231l.017.004c.314.072.668.154 1.002.265a.75.75 0 0 1-.474 1.423 9.881 9.881 0 0 0-.898-.234 10.686 10.686 0 0 1-1.002-.266.75.75 0 0 1-.475-.948Zm-11.346.031a.75.75 0 0 1-.636.848c-.65.093-1.412.282-2.1.48a.75.75 0 1 1-.412-1.443c.712-.204 1.55-.414 2.3-.521a.75.75 0 0 1 .848.636Z" clip-rule="evenodd"/>
  <path fill="#000" d="M18.8 5.9v6.3c0 .2 0 .3-.1.5-2.2-.5-4.5-.7-6.8-.7-2 0-4 .2-6 .6V5.9c0-1.8 1.4-3.2 3.2-3.2h6.6c1.7.1 3.1 1.5 3.1 3.2Z"/>
  <path fill="#000" fill-rule="evenodd" d="M9.1 3.45c-1.386 0-2.45 1.064-2.45 2.45v5.798a31.11 31.11 0 0 1 5.25-.448c2.062 0 4.136.158 6.15.547V5.9c0-1.271-1.054-2.362-2.373-2.45H9.1ZM5.15 5.9A3.909 3.909 0 0 1 9.1 1.95h6.622l.022.001c2.071.122 3.806 1.827 3.806 3.949v6.317c0 .086 0 .218-.023.356a1.601 1.601 0 0 1-.156.462l-.263.527-.574-.13c-2.133-.486-4.376-.682-6.634-.682-1.95 0-3.9.195-5.853.585l-.897.18V5.9Z" clip-rule="evenodd"/>
</svg>
