<svg width="24" height="24" viewBox="0 0 24 24" fill="none" xmlns="http://www.w3.org/2000/svg">
<path d="M12.3 10.6001C12.7 10.6001 13.1 10.9001 13.1 11.4001L13.1 16.4001C13.1 16.8001 12.7 17.1001 12.3 17.1001C11.9 17.1001 11.5 16.8001 11.5 16.3001L11.5 11.3001C11.6 10.9001 11.9 10.6001 12.3 10.6001Z" fill="black"/>
<path d="M12.3 7.60008C12.5 7.60008 12.7 7.70008 12.8 7.80008C12.9 7.90008 12.9 7.90008 13 8.00008C13 8.10008 13.1 8.20008 13.1 8.30008C13.1 8.40008 13.1 8.50008 13 8.60008C13 8.70008 12.9 8.80008 12.8 8.80008C12.6 9.00008 12.3 9.10008 12 9.00008C11.9 9.00008 11.8 8.90008 11.8 8.80008C11.7 8.70008 11.7 8.70008 11.6 8.60008C11.6 8.50008 11.5 8.40008 11.5 8.30008C11.5 8.20008 11.5 8.10008 11.6 8.00008C11.6 7.90008 11.7 7.80008 11.8 7.80008C11.9 7.80008 11.9 7.70008 12 7.60008C12.1 7.60008 12.2 7.60008 12.3 7.60008Z" fill="black"/>
<path fill-rule="evenodd" clip-rule="evenodd" d="M16.0921 21.4104C15.8689 21.5096 15.6375 21.55 15.4 21.55L9.29995 21.55C8.85109 21.55 8.3421 21.4029 7.96962 21.0304L7.96346 21.0242L3.76291 16.6236C3.62107 16.4807 3.4858 16.3086 3.38959 16.0922C3.29042 15.869 3.24995 15.6376 3.24995 15.4L3.24995 9.30005C3.24995 9.06253 3.29042 8.83108 3.38959 8.60794C3.48731 8.38807 3.62534 8.21399 3.76962 8.06972L8.06962 3.76972C8.2139 3.62544 8.38797 3.48741 8.60785 3.38969C8.83098 3.29052 9.06244 3.25005 9.29995 3.25005L15.4 3.25005C15.6375 3.25005 15.8689 3.29052 16.0921 3.38969C16.3119 3.48741 16.486 3.62544 16.6303 3.76972L20.9303 8.06972C21.0746 8.21399 21.2126 8.38807 21.3103 8.60794C21.4095 8.83108 21.45 9.06254 21.45 9.30005L21.45 15.4C21.45 15.8781 21.283 16.2114 21.1791 16.4187C21.1763 16.4244 21.1735 16.43 21.1708 16.4355L21.1163 16.5443L16.6303 21.0304C16.486 21.1747 16.3119 21.3127 16.0921 21.4104ZM15.4828 20.0397C15.488 20.0374 15.5139 20.0254 15.5696 19.9697L19.8814 15.6579C19.9017 15.6148 19.9152 15.5826 19.9259 15.5504C19.9406 15.5062 19.95 15.4613 19.95 15.4L19.95 9.30005C19.95 9.23959 19.941 9.22027 19.9397 9.21739C19.9374 9.21226 19.9253 9.1861 19.8696 9.13038L15.5696 4.83038C15.5139 4.77465 15.488 4.76268 15.4828 4.76041C15.481 4.75958 15.4624 4.75005 15.4 4.75005L9.29995 4.75005C9.2395 4.75005 9.22018 4.75897 9.2173 4.7603C9.21217 4.76257 9.18601 4.77465 9.13028 4.83038L4.83028 9.13038C4.77456 9.1861 4.76259 9.21202 4.76031 9.21715C4.75948 9.21902 4.74995 9.23756 4.74995 9.30005L4.74995 15.4C4.74995 15.4605 4.75887 15.4798 4.7602 15.4827C4.76248 15.4878 4.77456 15.514 4.83028 15.5697L4.83645 15.5759L9.03342 19.9727C9.06427 20.0009 9.15412 20.05 9.29995 20.05L15.4 20.05C15.4604 20.05 15.48 20.041 15.4828 20.0397C15.4828 20.0397 15.4829 20.0396 15.4828 20.0397Z" fill="black"/>
</svg>
