<svg width="24" height="24" viewBox="0 0 24 24" fill="none" xmlns="http://www.w3.org/2000/svg">
<path d="M11.7 2.69995C6.72944 2.69995 2.7 6.72939 2.7 11.6999C2.7 16.6705 6.72944 20.6999 11.7 20.7C16.6706 20.7 20.7 16.6705 20.7 11.7C20.7 6.72939 16.6706 2.69995 11.7 2.69995Z" fill="black"/>
<path fill-rule="evenodd" clip-rule="evenodd" d="M11.7 19.95C16.2564 19.95 19.95 16.2563 19.95 11.7C19.95 7.1436 16.2564 3.44995 11.7 3.44995C7.14365 3.44995 3.45 7.1436 3.45 11.6999C3.45 16.2563 7.14365 19.9499 11.7 19.95ZM21.45 11.7C21.45 17.0847 17.0848 21.45 11.7 21.45C6.31522 21.4499 1.95 17.0847 1.95 11.6999C1.95 6.31517 6.31523 1.94995 11.7 1.94995C17.0848 1.94995 21.45 6.31518 21.45 11.7Z" fill="black"/>
<path d="M11.7 9C12.1 9 12.5 9.3 12.5 9.8L12.5 15.8C12.5 16.2 12.2 16.5 11.7 16.5C11.2 16.5 10.9 16.2 10.9 15.7L10.9 9.7C11 9.3 11.3 9 11.7 9Z" fill="white"/>
<path d="M11.7 5.99991C11.8 5.99991 11.9 5.99991 12 6.09991C12.1 6.09991 12.2 6.19991 12.2 6.29991C12.2 6.39991 12.4 6.39991 12.4 6.49991C12.5 6.59991 12.5 6.69991 12.5 6.69991C12.5 6.79991 12.5 6.89991 12.4 6.99991C12.4 7.09991 12.3 7.19991 12.2 7.19991C12.1 7.29991 12 7.29991 12 7.39991C11.7 7.49991 11.4 7.49991 11.2 7.19991C11.1 7.09991 11.1 7.09991 11 6.99991C11 6.89991 10.9 6.79991 10.9 6.69991C10.9 6.49991 11 6.29991 11.1 6.19991C11.4 6.09991 11.5 5.99991 11.7 5.99991Z" fill="white"/>
</svg>
