<svg width="24" height="24" viewBox="0 0 24 24" fill="none" xmlns="http://www.w3.org/2000/svg">
<path d="M9.1 20.5L15.2 20.5C15.5 20.5 15.7 20.4 15.9 20.3L20.3 15.9C20.4 15.7 20.5 15.5 20.5 15.2L20.5 9.1C20.5 8.8 20.4 8.6 20.2 8.4L15.9 4.1C15.7 3.9 15.5 3.8 15.2 3.8L9.1 3.8C8.8 3.8 8.6 3.9 8.4 4.1L4.1 8.4C3.9 8.6 3.8 8.8 3.8 9.1L3.8 15.2C3.8 15.5 3.9 15.7 4.1 15.9L8.3 20.3C8.5 20.4 8.8 20.5 9.1 20.5Z" fill="black"/>
<path fill-rule="evenodd" clip-rule="evenodd" d="M16.2187 20.9792C16.0114 21.083 15.678 21.25 15.2 21.25L9.1 21.25C8.65078 21.25 8.23479 21.1059 7.96459 20.9708L7.84771 20.9124L3.56296 16.4236C3.42112 16.2806 3.28585 16.1086 3.18964 15.8921C3.09047 15.669 3.05 15.4375 3.05 15.2L3.05 9.1C3.05 8.86249 3.09047 8.63103 3.18964 8.4079C3.28736 8.18802 3.42539 8.01394 3.56967 7.86967L7.86967 3.56967C8.01395 3.42539 8.18803 3.28736 8.4079 3.18964C8.63103 3.09047 8.86249 3.05 9.1 3.05L15.2 3.05C15.4375 3.05 15.669 3.09047 15.8921 3.18964C16.112 3.28736 16.2861 3.42539 16.4303 3.56967L20.7303 7.86967C20.8746 8.01395 21.0126 8.18802 21.1104 8.4079C21.2095 8.63103 21.25 8.86249 21.25 9.1L21.25 15.2C21.25 15.678 21.083 16.0114 20.9792 16.2187C20.9764 16.2243 20.9736 16.2299 20.9708 16.2354L20.9164 16.3443L16.3443 20.9164L16.2354 20.9708C16.2299 20.9736 16.2243 20.9764 16.2187 20.9792ZM15.4579 19.6815L19.6815 15.4579C19.7018 15.4148 19.7152 15.3826 19.726 15.3503C19.7407 15.3062 19.75 15.2613 19.75 15.2L19.75 9.1C19.75 9.03954 19.7411 9.02022 19.7397 9.01734C19.7375 9.01221 19.7254 8.98606 19.6697 8.93033L15.3697 4.63033C15.3139 4.5746 15.288 4.56264 15.2829 4.56036C15.28 4.55903 15.2605 4.55 15.2 4.55L9.1 4.55C9.03752 4.55 9.01897 4.55953 9.0171 4.56036C9.01198 4.56264 8.98606 4.5746 8.93033 4.63033L4.63033 8.93033C4.57461 8.98605 4.56264 9.01198 4.56036 9.0171C4.55903 9.01998 4.55 9.03953 4.55 9.1L4.55 15.2C4.55 15.2605 4.55892 15.2798 4.56025 15.2827C4.56253 15.2878 4.5746 15.3139 4.63033 15.3697L4.63649 15.3758L8.74015 19.6749C8.85405 19.7183 8.98645 19.75 9.1 19.75L15.2 19.75C15.2613 19.75 15.3062 19.7407 15.3503 19.726C15.3826 19.7152 15.4148 19.7018 15.4579 19.6815Z" fill="black"/>
<path d="M12.1 10.4C12.5 10.4 12.9 10.7 12.9 11.2L12.9 16.2C12.9 16.6 12.6 17 12.1 17C11.6 17 11.3 16.7 11.3 16.2L11.3 11.2C11.4 10.7 11.7 10.4 12.1 10.4Z" fill="white"/>
<path d="M12.1 7.4C12.3 7.4 12.5 7.5 12.6 7.6C12.7 7.7 12.7 7.7 12.8 7.8C12.8 7.9 12.9 8 12.9 8.1C12.9 8.2 12.9 8.3 12.8 8.4C12.8 8.5 12.7 8.6 12.6 8.6C12.4 8.8 12.1 8.9 11.8 8.8C11.7 8.8 11.6 8.7 11.6 8.6C11.5 8.5 11.5 8.5 11.4 8.4C11.4 8.3 11.3 8.2 11.3 8.1C11.3 8 11.3 7.9 11.4 7.8C11.4 7.7 11.5 7.6 11.6 7.6C11.7 7.6 11.7 7.5 11.8 7.4C11.9 7.4 12 7.4 12.1 7.4Z" fill="white"/>
</svg>
