<svg xmlns="http://www.w3.org/2000/svg" viewBox="0 0 24 24" fill="currentColor">
  <path d="M10.7 3.5c0-.41421-.3358-.75-.74999-.75-.41421 0-.75.33579-.75.75v3.90002c0 .98577-.86423 1.84998-1.85003 1.84998H3.45001c-.41421 0-.75.33579-.75.75 0 .4142.33579.75.75.75h3.89997C9.16417 10.75 10.7 9.21426 10.7 7.40002V3.5Zm4.1 0c0-.41421-.3358-.75-.75-.75s-.75.33579-.75.75v3.90002c0 1.81424 1.5358 3.34998 3.35 3.34998h3.9c.4142 0 .75-.3358.75-.75 0-.41421-.3358-.75-.75-.75h-3.9c-.9858 0-1.85-.86421-1.85-1.84998V3.5Zm1.85 11.25c-.9858 0-1.85.8642-1.85 1.85v3.9c0 .4142-.3358.75-.75.75s-.75-.3358-.75-.75v-3.9c0-1.8142 1.5358-3.35 3.35-3.35h3.9c.4142 0 .75.3358.75.75s-.3358.75-.75.75h-3.9Zm-13.19999-1.5c-.41421 0-.75.3358-.75.75s.33579.75.75.75h3.89997c.98579 0 1.85003.8642 1.85003 1.85v3.9c0 .4142.33579.75.75.75.41419 0 .74999-.3358.74999-.75v-3.9c0-1.8142-1.53582-3.35-3.35002-3.35H3.45001Z"/>
</svg>
