<svg xmlns="http://www.w3.org/2000/svg" viewBox="0 0 24 24" fill="currentColor">
  <path d="M5.75 7c0-1.78579 1.46421-3.25 3.25-3.25h6c1.7858 0 3.25 1.46421 3.25 3.25v10c0 1.7858-1.4642 3.25-3.25 3.25H9c-1.78579 0-3.25-1.4642-3.25-3.25V7ZM9 2.25C6.38579 2.25 4.25 4.38579 4.25 7v10c0 2.6142 2.13579 4.75 4.75 4.75h6c2.6142 0 4.75-2.1358 4.75-4.75V7c0-2.61421-2.1358-4.75-4.75-4.75H9Zm2.25 14.25c0-.4142.3358-.75.75-.75s.75.3358.75.75-.3358.75-.75.75-.75-.3358-.75-.75Zm.75-2.25c-1.2426 0-2.25 1.0074-2.25 2.25s1.0074 2.25 2.25 2.25 2.25-1.0074 2.25-2.25-1.0074-2.25-2.25-2.25Z"/>
</svg>
