<svg width="24" height="24" viewBox="0 0 24 24" fill="none" xmlns="http://www.w3.org/2000/svg">
<path fill-rule="evenodd" clip-rule="evenodd" d="M5.75 7C5.75 5.21421 7.21421 3.75 9 3.75H15C16.7858 3.75 18.25 5.21421 18.25 7V17C18.25 18.7858 16.7858 20.25 15 20.25H9C7.21421 20.25 5.75 18.7858 5.75 17V7ZM9 2.25C6.38579 2.25 4.25 4.38579 4.25 7V17C4.25 19.6142 6.38579 21.75 9 21.75H15C17.6142 21.75 19.75 19.6142 19.75 17V7C19.75 4.38579 17.6142 2.25 15 2.25H9ZM11.25 16.5C11.25 16.0858 11.5858 15.75 12 15.75C12.4142 15.75 12.75 16.0858 12.75 16.5C12.75 16.9142 12.4142 17.25 12 17.25C11.5858 17.25 11.25 16.9142 11.25 16.5ZM12 14.25C10.7574 14.25 9.75 15.2574 9.75 16.5C9.75 17.7426 10.7574 18.75 12 18.75C13.2426 18.75 14.25 17.7426 14.25 16.5C14.25 15.2574 13.2426 14.25 12 14.25Z" fill="black"/>
</svg>
