<svg xmlns="http://www.w3.org/2000/svg" fill="none" viewBox="0 0 24 24">
  <path fill="#000" d="M19.05 19.127c-2.1.9-4.6 0-5.5-2.1l-.2-.3h-2.7l-.2.4c-.9 2.1-3.4 3-5.5 2.1-2.1-1-3-3.4-2.1-5.5l1.7-3.7c.5-1.2 1.6-2 2.7-2.3h9.5c1.2.3 2.2 1.1 2.7 2.3l1.7 3.7c.9 2 0 4.5-2.1 5.4Z"/>
  <path fill="#000" fill-rule="evenodd" d="M7.15 6.977h9.693l.09.022c1.41.353 2.606 1.301 3.204 2.726l1.697 3.694c1.067 2.371.009 5.327-2.488 6.397-2.401 1.03-5.287.057-6.415-2.34h-1.815c-1.095 2.47-4.027 3.483-6.461 2.44l-.014-.006-.013-.006c-2.461-1.172-3.527-4-2.467-6.473l.004-.008 1.698-3.698c.607-1.442 1.912-2.373 3.19-2.722l.097-.026Zm.206 1.5c-.885.268-1.73.92-2.113 1.838l-.006.013-1.7 3.703c-.733 1.72-.004 3.682 1.722 4.512 1.745.74 3.779-.025 4.502-1.712l.009-.02.417-.834h3.565l.46.691.028.063c.725 1.692 2.767 2.455 4.515 1.706 1.702-.73 2.444-2.772 1.713-4.4l-.002-.002-1.703-3.707-.005-.013c-.392-.94-1.159-1.577-2.104-1.838H7.356Z" clip-rule="evenodd"/>
  <path fill="#fff" d="M14.65 12.427c.3 0 .5.1.7.3.2.2.3.4.3.7 0 .3-.1.5-.3.7-.4.4-1 .4-1.4 0-.2-.2-.3-.4-.3-.7 0-.3.1-.5.3-.7.1-.2.4-.3.7-.3Zm-4.5 0c.3 0 .5.1.7.3.2.2.3.4.3.7 0 .3-.1.5-.3.7-.4.4-1 .4-1.4 0-.2-.2-.3-.4-.3-.7 0-.3.1-.5.3-.7.2-.2.4-.3.7-.3Z"/>
  <path fill="#000" fill-rule="evenodd" d="M12.697 7.558v.003-.013l-.003-.07c0-.066 0-.165.011-.285.022-.245.08-.556.216-.857.134-.294.338-.571.66-.78.322-.207.811-.38 1.57-.38a.75.75 0 0 0 0-1.5c-.993 0-1.778.229-2.384.62a3.276 3.276 0 0 0-1.212 1.421 4.18 4.18 0 0 0-.344 1.344 4.277 4.277 0 0 0-.01.614l.002.013v.007s0 .002.747-.068l-.746.07a.75.75 0 0 0 1.493-.136m0 0v-.003.003Z" clip-rule="evenodd"/>
</svg>
