<svg xmlns="http://www.w3.org/2000/svg" fill="none" viewBox="0 0 24 24">
  <path fill="#000" fill-rule="evenodd" d="M3.95 19.45a.75.75 0 0 1 .75-.75h14.6a.75.75 0 1 1 0 1.5H4.7a.75.75 0 0 1-.75-.75Z" clip-rule="evenodd"/>
  <path fill="#000" d="M15.7 10.95a3.2 3.2 0 1 0 0-6.4 3.2 3.2 0 0 0 0 6.4Z"/>
  <path fill="#000" fill-rule="evenodd" d="M15.7 5.3a2.45 2.45 0 1 0 0 4.9 2.45 2.45 0 0 0 0-4.9Zm-3.95 2.45a3.95 3.95 0 1 1 7.9 0 3.95 3.95 0 0 1-7.9 0Z" clip-rule="evenodd"/>
  <path fill="#000" fill-rule="evenodd" d="M15.03 10.036a.75.75 0 0 1 .484.944l-2.8 8.7a.75.75 0 1 1-1.428-.46l2.8-8.7a.75.75 0 0 1 .944-.484Z" clip-rule="evenodd"/>
</svg>
