<svg width="24" height="24" viewBox="0 0 24 24" fill="none" xmlns="http://www.w3.org/2000/svg">
<path fill-rule="evenodd" clip-rule="evenodd" d="M7.14977 6.97681H16.8425L16.9321 6.9992C18.3434 7.35203 19.5386 8.30044 20.1371 9.72544L21.8342 13.419C22.9013 15.7903 21.8424 18.7461 19.3456 19.8162C16.9445 20.8452 14.0588 19.8731 12.9303 17.4768H11.1158C10.0214 19.9459 7.08908 20.9594 4.65477 19.9162L4.64115 19.9103L4.62776 19.904C2.16693 18.7321 1.10104 15.9043 2.16085 13.4314L2.16467 13.4225L3.86335 9.72534C4.46993 8.2827 5.77446 7.35189 7.05287 7.00323L7.14977 6.97681ZM7.35581 8.47681C6.47087 8.74534 5.62513 9.39701 5.24252 10.3153L5.23734 10.3277L3.53595 14.0307C2.80369 15.7514 3.53256 17.7127 5.25925 18.5432C7.00407 19.2826 9.03788 18.5183 9.76085 16.8314L9.76954 16.8111L10.1867 15.9768H13.7516L14.2124 16.6681L14.2396 16.7314C14.9644 18.4227 17.0069 19.1865 18.7548 18.4374C20.4571 17.7079 21.1984 15.6654 20.4674 14.0371C20.467 14.0363 20.4666 14.0354 20.4663 14.0346L18.7631 10.3277L18.7579 10.3153C18.3663 9.37548 17.5989 8.73827 16.6534 8.47681H7.35581Z" fill="black"/>
<path d="M14.6501 12.4268C14.9501 12.4268 15.1501 12.5268 15.3501 12.7268C15.5501 12.9268 15.6501 13.1268 15.6501 13.4268C15.6501 13.7268 15.5501 13.9268 15.3501 14.1268C14.9501 14.5268 14.3501 14.5268 13.9501 14.1268C13.7501 13.9268 13.6501 13.7268 13.6501 13.4268C13.6501 13.1268 13.7501 12.9268 13.9501 12.7268C14.0501 12.5268 14.3501 12.4268 14.6501 12.4268Z" fill="black"/>
<path d="M10.1501 12.4268C10.4501 12.4268 10.6501 12.5268 10.8501 12.7268C11.0501 12.9268 11.1501 13.1268 11.1501 13.4268C11.1501 13.7268 11.0501 13.9268 10.8501 14.1268C10.4501 14.5268 9.85015 14.5268 9.45015 14.1268C9.25015 13.9268 9.15015 13.7268 9.15015 13.4268C9.15015 13.1268 9.25015 12.9268 9.45015 12.7268C9.65015 12.5268 9.85015 12.4268 10.1501 12.4268Z" fill="black"/>
<path fill-rule="evenodd" clip-rule="evenodd" d="M12.6971 7.55751C12.6972 7.55859 12.6973 7.55968 12.6974 7.56076C12.6974 7.56073 12.6974 7.5608 12.6974 7.56076L12.6965 7.54792C12.6957 7.53412 12.6946 7.51017 12.6941 7.47754C12.6931 7.41197 12.6945 7.31327 12.7052 7.19291C12.7268 6.94801 12.7848 6.63665 12.9209 6.33631C13.0543 6.04183 13.2592 5.76459 13.5809 5.55661C13.9024 5.34874 14.3922 5.17676 15.1503 5.17676C15.5645 5.17676 15.9003 4.84097 15.9003 4.42676C15.9003 4.01254 15.5645 3.67676 15.1503 3.67676C14.1583 3.67676 13.3731 3.90478 12.7665 4.29691C12.1601 4.68893 11.7837 5.21169 11.5546 5.71721C11.3282 6.21686 11.2424 6.7055 11.211 7.06061C11.1951 7.24025 11.1926 7.39154 11.1943 7.50098C11.1952 7.55585 11.1971 7.60064 11.199 7.63372C11.1999 7.65027 11.2009 7.66393 11.2017 7.6745L11.2028 7.68801L11.2032 7.69299L11.2034 7.69503C11.2034 7.69545 11.2035 7.69676 11.9503 7.62676L11.2035 7.69676C11.2422 8.10917 11.6079 8.41215 12.0203 8.37348C12.4313 8.33495 12.7337 7.97152 12.6974 7.56076M12.6974 7.56076L12.6971 7.55751L12.6974 7.56076Z" fill="black"/>
</svg>
