<svg xmlns="http://www.w3.org/2000/svg" viewBox="0 0 24 24" fill="currentColor">
  <path d="M3.75 12c0-1.574 1.27599-2.84998 2.85001-2.84998 1.57401 0 2.85 1.27598 2.85 2.84998s-1.27599 2.85-2.85 2.85C5.02599 14.85 3.75 13.574 3.75 12Zm2.85001-4.34998C4.19757 7.65002 2.25 9.59759 2.25 12c0 2.4025 1.94757 4.35 4.35001 4.35 2.14669 0 3.93019-1.555 4.28559-3.6H16.45v1.65c0 .4142.3358.75.75.75s.75-.3358.75-.75v-1.65h2.3v2.8501c0 .4142.3358.75.75.75s.75-.3358.75-.75v-4.9c0-.4142-.3358-.75003-.75-.75003s-.75.33583-.75.75003v.5499h-9.3644c-.3554-2.04501-2.13892-3.59998-4.28559-3.59998Z"/>
</svg>
