<svg xmlns="http://www.w3.org/2000/svg" viewBox="0 0 24 24" fill="currentColor">
  <path d="M6.16635 6.16636c1.113-1.11299 2.91752-1.11299 4.03055 0 1.1115 1.11157 1.113 2.91289.0043 4.02624l-.0043.0042-.0043.0043c-1.11332 1.1088-2.91467 1.1074-4.02625-.0042-1.11299-1.11301-1.11299-2.91754 0-4.03054Zm4.51535 5.57594c-1.69738 1.1948-4.05807 1.0332-5.57601-.4848-1.69878-1.69874-1.69878-4.45302 0-6.1518 1.69878-1.69878 4.45306-1.69878 6.15181 0 1.518 1.51793 1.6796 3.87857.4848 5.5759l6.6217 6.6217.3888-.3889c.2929-.2929.7678-.2929 1.0607 0 .2929.2929.2929.7677 0 1.0606l-3.4648 3.4648c-.2929.2929-.7678.2929-1.0607 0-.2929-.2929-.2929-.7677 0-1.0606l2.0153-2.0153-1.6263-1.6263-1.1668 1.1668c-.2929.2929-.7677.2929-1.0606 0-.2929-.2929-.2929-.7678 0-1.0607l1.1667-1.1668-3.9346-3.9346Z"/>
</svg>
