<svg width="24" height="24" viewBox="0 0 24 24" fill="none" xmlns="http://www.w3.org/2000/svg">
<path fill-rule="evenodd" clip-rule="evenodd" d="M6.16638 6.16639C7.27938 5.0534 9.08391 5.0534 10.1969 6.16639C11.3085 7.27796 11.3099 9.07928 10.2012 10.1926L10.1969 10.1969L10.1926 10.2012C9.07931 11.3099 7.27796 11.3085 6.16638 10.1969C5.05339 9.08392 5.05339 7.27939 6.16638 6.16639ZM10.6817 11.7423C8.98435 12.9371 6.62367 12.7755 5.10572 11.2576C3.40694 9.55879 3.40694 6.80452 5.10572 5.10573C6.8045 3.40695 9.55878 3.40695 11.2576 5.10573C12.7755 6.62366 12.9371 8.9843 11.7424 10.6817L18.364 17.3033L18.7529 16.9144C19.0458 16.6215 19.5206 16.6215 19.8135 16.9144C20.1064 17.2073 20.1064 17.6822 19.8135 17.9751L16.3487 21.4399C16.0558 21.7328 15.5809 21.7328 15.2881 21.4399C14.9952 21.147 14.9952 20.6721 15.2881 20.3792L17.3033 18.3639L15.677 16.7376L14.5102 17.9044C14.2174 18.1973 13.7425 18.1973 13.4496 17.9044C13.1567 17.6115 13.1567 17.1366 13.4496 16.8437L14.6164 15.677L10.6817 11.7423Z" fill="black"/>
</svg>
