<svg xmlns="http://www.w3.org/2000/svg" viewBox="0 0 24 24" fill="currentColor">
  <path d="M5 3.8252c-.69036 0-1.25.55964-1.25 1.25 0 .69035.55964 1.25 1.25 1.25s1.25-.55965 1.25-1.25c0-.69036-.55964-1.25-1.25-1.25Zm-2.75 1.25c0-1.51879 1.23122-2.75 2.75-2.75s2.75 1.23121 2.75 2.75c0 1.51878-1.23122 2.75-2.75 2.75s-2.75-1.23122-2.75-2.75Zm9.75-1.25c-.6904 0-1.25.55964-1.25 1.25 0 .69035.5596 1.25 1.25 1.25s1.25-.55965 1.25-1.25c0-.69036-.5596-1.25-1.25-1.25Zm-2.75 1.25c0-1.51879 1.2312-2.75 2.75-2.75s2.75 1.23121 2.75 2.75c0 1.51878-1.2312 2.75-2.75 2.75s-2.75-1.23122-2.75-2.75Zm8.5 0c0-.69036.5596-1.25 1.25-1.25s1.25.55964 1.25 1.25c0 .69035-.5596 1.25-1.25 1.25s-1.25-.55965-1.25-1.25Zm1.25-2.75c-1.5188 0-2.75 1.23121-2.75 2.75 0 1.51878 1.2312 2.75 2.75 2.75s2.75-1.23122 2.75-2.75c0-1.51879-1.2312-2.75-2.75-2.75Zm-14 8.5c-.69036 0-1.25.5596-1.25 1.25s.55964 1.25 1.25 1.25 1.25-.5596 1.25-1.25-.55964-1.25-1.25-1.25Zm-2.75 1.25c0-1.5188 1.23122-2.75 2.75-2.75s2.75 1.2312 2.75 2.75-1.23122 2.75-2.75 2.75-2.75-1.2312-2.75-2.75Zm8.5 0c0-.6904.5596-1.25 1.25-1.25s1.25.5596 1.25 1.25-.5596 1.25-1.25 1.25-1.25-.5596-1.25-1.25Zm1.25-2.75c-1.5188 0-2.75 1.2312-2.75 2.75s1.2312 2.75 2.75 2.75 2.75-1.2312 2.75-2.75-1.2312-2.75-2.75-2.75Zm7 1.5c-.6904 0-1.25.5596-1.25 1.25s.5596 1.25 1.25 1.25 1.25-.5596 1.25-1.25-.5596-1.25-1.25-1.25Zm-2.75 1.25c0-1.5188 1.2312-2.75 2.75-2.75s2.75 1.2312 2.75 2.75-1.2312 2.75-2.75 2.75-2.75-1.2312-2.75-2.75Zm-6.41968 5.8696c-.2929-.2929-.76777-.2929-1.06066 0-.2929.2929-.2929.7677 0 1.0606l2.29994 2.3c.4929.4929 1.2678.4929 1.7607 0l2.3-2.3c.2929-.2929.2929-.7677 0-1.0606-.2929-.2929-.7678-.2929-1.0607 0L11.95 20.0644l-2.11968-2.1196Z"/>
</svg>
