<svg xmlns="http://www.w3.org/2000/svg" fill="none" viewBox="0 0 24 24">
  <path fill="#000" fill-rule="evenodd" d="M5 3.825a1.25 1.25 0 1 0 0 2.5 1.25 1.25 0 0 0 0-2.5Zm-2.75 1.25a2.75 2.75 0 1 1 5.5 0 2.75 2.75 0 0 1-5.5 0ZM12 3.825a1.25 1.25 0 1 0 0 2.5 1.25 1.25 0 0 0 0-2.5Zm-2.75 1.25a2.75 2.75 0 1 1 5.5 0 2.75 2.75 0 0 1-5.5 0Zm8.5 0a1.25 1.25 0 1 1 2.5 0 1.25 1.25 0 0 1-2.5 0ZM19 2.325a2.75 2.75 0 1 0 0 5.5 2.75 2.75 0 0 0 0-5.5Zm-14 8.5a1.25 1.25 0 1 0 0 2.5 1.25 1.25 0 0 0 0-2.5Zm-2.75 1.25a2.75 2.75 0 1 1 5.5 0 2.75 2.75 0 0 1-5.5 0Zm8.5 0a1.25 1.25 0 1 1 2.5 0 1.25 1.25 0 0 1-2.5 0ZM12 9.325a2.75 2.75 0 1 0 0 5.5 2.75 2.75 0 0 0 0-5.5Zm7 1.5a1.25 1.25 0 1 0 0 2.5 1.25 1.25 0 0 0 0-2.5Zm-2.75 1.25a2.75 2.75 0 1 1 5.5 0 2.75 2.75 0 0 1-5.5 0Zm-6.42 5.87a.75.75 0 0 0-1.06 1.06l2.3 2.3a1.233 1.233 0 0 0 1.76 0l2.3-2.3a.75.75 0 0 0-1.06-1.06l-2.12 2.12-2.12-2.12Z" clip-rule="evenodd"/>
</svg>
