<svg xmlns="http://www.w3.org/2000/svg" viewBox="0 0 24 24" fill="currentColor">
  <path d="M6.49997 4.75c-1.18579 0-2.14999.96421-2.14999 2.14999V16.25H19.65V6.89999c0-1.18577-.9642-2.14999-2.15-2.14999H6.49997ZM2.84998 6.89999v9.45091C1.93805 16.6393 1.25 17.5104 1.25 18.5c0 1.2142 1.03579 2.25 2.25 2.25h17c1.2142 0 2.25-1.0358 2.25-2.25 0-.9896-.6881-1.8607-1.6-2.1491V6.89999C21.15 4.88577 19.5142 3.25 17.5 3.25H6.49997c-2.01421 0-3.64999 1.63578-3.64999 3.64999ZM2.75 18.5c0-.3858.36421-.75.75-.75h17c.3858 0 .75.3642.75.75s-.3642.75-.75.75h-17c-.38579 0-.75-.3642-.75-.75Zm12.372-8.3615c.2974-.28833.3047-.76315.0163-1.06051-.2883-.29737-.7632-.30467-1.0605-.01631l-2.8624 2.77572-.8155-1.0873c-.2485-.3314-.71861-.3985-1.04998-.15-.33138.2485-.39854.7186-.15001 1.05l1.23199 1.6426.0377.0377c.2118.2119.4886.2947.7178.2947.116 0 .2954-.0208.4727-.13.0962-.0591.1867-.143.2562-.248l3.2057-3.1086Z"/>
</svg>
