<svg xmlns="http://www.w3.org/2000/svg" viewBox="0 0 24 24" fill="currentColor">
  <path d="M4.34998 6.89999c0-1.18578.96421-2.14999 2.15-2.14999H17.5c1.1858 0 2.15.96421 2.15 2.14999V16.25H4.34998V6.89999Zm-1.5 9.45091V6.89999c0-2.01421 1.6358-3.64999 3.65-3.64999H17.5c2.0142 0 3.65 1.63578 3.65 3.64999v9.45091c.9119.2883 1.6 1.1595 1.6 2.1491 0 1.2142-1.0358 2.25-2.25 2.25h-17c-1.21421 0-2.25-1.0358-2.25-2.25 0-.9896.68805-1.8607 1.59998-2.1491ZM3.5 17.75c-.38579 0-.75.3642-.75.75s.36421.75.75.75h17c.3858 0 .75-.3642.75-.75s-.3642-.75-.75-.75h-17Zm9.7697-9.28033c.2929-.29289.7677-.29289 1.0606 0l1.4 1.39999c.2705.27054.4447.62964.4447 1.03034 0 .4007-.1742.7598-.4447 1.0303l-1.4 1.4c-.2929.2929-.7677.2929-1.0606 0-.2929-.2929-.2929-.7677 0-1.0606L14.6393 10.9l-1.3696-1.36967c-.2929-.29289-.2929-.76777 0-1.06066ZM10.6303 9.6303c.2929-.29289.2929-.76777 0-1.06066s-.76777-.29289-1.06066.00001l-1.39999 1.4-.00001.00001c-.27051.27054-.44466.62964-.44466 1.03034 0 .4007.17415.7598.44467 1.0303l1.39999 1.4c.29289.2929.76776.2929 1.06066 0 .2929-.2929.2929-.7678 0-1.0607L9.26064 11l1.36966-1.3697Z"/>
</svg>
