<svg xmlns="http://www.w3.org/2000/svg" viewBox="0 0 24 24" fill="currentColor">
  <path d="M4.34998 6.85001c0-1.18578.96422-2.15 2.15-2.15H17.5c1.1858 0 2.15.96421 2.15 2.15V16.3H4.34998V6.85001Zm-1.5 9.55089V6.85001c0-2.01421 1.63579-3.65 3.65-3.65H17.5c2.0142 0 3.65 1.63579 3.65 3.65v9.55089c.9119.2883 1.6 1.1594 1.6 2.1491 0 1.2142-1.0358 2.25-2.25 2.25h-17c-1.21421 0-2.25-1.0358-2.25-2.25 0-.9896.68805-1.8607 1.59998-2.1491Zm.6439 1.3991c-.38351.0038-.74388.3662-.74388.75 0 .3858.36421.75.75.75h17c.3858 0 .75-.3642.75-.75 0-.3838-.3604-.7462-.7439-.75H3.49388Z"/>
</svg>
