<svg xmlns="http://www.w3.org/2000/svg" viewBox="0 0 24 24" fill="currentColor">
  <path d="M4.34998 6.89999c0-1.18578.9642-2.14999 2.14999-2.14999H17.5c1.1858 0 2.15.96422 2.15 2.14999V16.25H4.34998V6.89999Zm-1.5 9.45091V6.89999c0-2.01421 1.63578-3.64999 3.64999-3.64999H17.5c2.0142 0 3.65 1.63577 3.65 3.64999v9.45091c.9119.2884 1.6 1.1595 1.6 2.1491 0 1.2142-1.0358 2.25-2.25 2.25h-17c-1.21421 0-2.25-1.0358-2.25-2.25 0-.9896.68805-1.8607 1.59998-2.1491ZM3.5 17.75c-.38579 0-.75.3642-.75.75s.36421.75.75.75h17c.3858 0 .75-.3642.75-.75s-.3642-.75-.75-.75h-17Zm8.9-10.5c.4142 0 .75.33579.75.75v1.65002h1.75c.4142 0 .75.33579.75.74998 0 .4142-.3358.75-.75.75h-1.75v1.75c0 .4142-.3358.75-.75.75s-.75-.3358-.75-.75v-1.75H10c-.41421 0-.75-.3358-.75-.75 0-.41419.33579-.74998.75-.74998h1.65V8c0-.41421.3358-.75.75-.75Z"/>
</svg>
