<svg xmlns="http://www.w3.org/2000/svg" viewBox="0 0 24 24" fill="currentColor">
  <path d="M4.34998 6.90002c0-1.18579.96421-2.15002 2.14999-2.15002H17.5c1.1858 0 2.15.96424 2.15 2.15002V16.25H4.34998V6.90002Zm-1.5 9.45088V6.90002c0-2.0142 1.63577-3.65002 3.64999-3.65002H17.5c2.0142 0 3.65 1.63581 3.65 3.65002v9.45088c.9119.2884 1.6 1.1595 1.6 2.1491 0 1.2142-1.0358 2.25-2.25 2.25h-17c-1.21421 0-2.25-1.0358-2.25-2.25 0-.9896.68805-1.8607 1.59998-2.1491ZM3.5 17.75c-.38579 0-.75.3642-.75.75s.36421.75.75.75h17c.3858 0 .75-.3642.75-.75s-.3642-.75-.75-.75h-17Zm9.3693-9.2801c-.7892-.3969-1.8145-.26415-2.5391.46043l-.0115.01153-.012.01101c-.68624.62905-.84831 1.64783-.42196 2.50153l2.98456-2.9845Zm1.0457 1.07558-2.9352 2.93522c.8557.3649 1.8695.2093 2.4898-.411l.0115-.0116.012-.011c.6863-.6291.8483-1.6479.4219-2.50162Zm.6267-1.66432c-1.4074-1.52148-3.7841-1.48729-5.26063-.02293-1.52544 1.41098-1.48711 3.79647-.01149 5.27207l.01152.0115.01201.0111c1.46959 1.347 3.81919 1.3822 5.22549-.0111 1.5216-1.4073 1.4875-3.78412.0231-5.26064Z"/>
</svg>
