<svg xmlns="http://www.w3.org/2000/svg" viewBox="0 0 24 24" fill="currentColor">
  <path d="M4.34998 6.89999c0-1.18578.9642-2.14999 2.14999-2.14999H17.5c1.1858 0 2.15.96422 2.15 2.14999V16.25H4.34998V6.89999Zm-1.5 9.45091V6.89999c0-2.01421 1.63578-3.64999 3.64999-3.64999H17.5c2.0142 0 3.65 1.63577 3.65 3.64999v9.45091c.9119.2884 1.6 1.1595 1.6 2.1491 0 1.2142-1.0358 2.25-2.25 2.25h-17c-1.21421 0-2.25-1.0358-2.25-2.25 0-.9896.68805-1.8607 1.59998-2.1491ZM3.5 17.75c-.38579 0-.75.3642-.75.75s.36421.75.75.75h17c.3858 0 .75-.3642.75-.75s-.3642-.75-.75-.75h-17Zm11.1303-9.58038c.2929.29289.2929.76777 0 1.06066l-1.1697 1.16962 1.1697 1.1697c.2929.2929.2929.7678 0 1.0607-.2929.2929-.7678.2929-1.0607 0l-1.1697-1.1697-1.1696 1.1697c-.2929.2929-.7678.2929-1.0607 0-.29287-.2929-.29287-.7678 0-1.0607l1.1697-1.1697-1.1697-1.16962c-.29287-.29289-.29287-.76777 0-1.06066.2929-.29289.7678-.29289 1.0607 0l1.1696 1.16967 1.1697-1.16967c.2929-.29289.7678-.29289 1.0607 0Z"/>
</svg>
