<svg width="24" height="24" viewBox="0 0 24 24" fill="none" xmlns="http://www.w3.org/2000/svg">
<path fill-rule="evenodd" clip-rule="evenodd" d="M2.04999 11.6C2.04999 10.3857 2.98577 9.44995 4.19999 9.44995H9.74999V21.05H4.19999C2.98577 21.05 2.04999 20.1142 2.04999 18.9V11.6ZM4.19999 10.95C3.8142 10.95 3.54999 11.2142 3.54999 11.6V18.9C3.54999 19.2857 3.8142 19.55 4.19999 19.55H8.24999V10.95H4.19999Z" fill="black"/>
<path fill-rule="evenodd" clip-rule="evenodd" d="M8.25 5.99998C8.25 4.37766 9.89592 3.60941 11.1354 4.22916C11.6808 4.50184 12.1472 4.81464 12.4846 5.25867C12.8311 5.71454 12.9873 6.23598 13.0463 6.82535L13.05 6.86257V6.89998C13.05 6.9767 13.0763 7.02328 13.1189 7.06055C13.1693 7.10464 13.2638 7.14998 13.4 7.14998H19.5C20.8142 7.14998 21.85 8.18576 21.85 9.49998V9.58056L19.8485 18.7877C19.8036 20.06 18.7848 21.05 17.5 21.05H8.25V5.99998ZM9.9721 5.57616C9.85136 5.64516 9.75 5.77418 9.75 5.99998V19.55H17.5C17.9858 19.55 18.35 19.1858 18.35 18.7V18.6194L20.3475 9.43086C20.3147 8.98005 19.9625 8.64998 19.5 8.64998H13.4C12.4951 8.64998 11.5747 8.0221 11.5505 6.94364C11.5079 6.55239 11.4156 6.33112 11.2904 6.16629C11.1528 5.98532 10.9192 5.79812 10.4646 5.5708C10.2915 5.48423 10.1069 5.49914 9.9721 5.57616Z" fill="black"/>
</svg>
