<svg width="24" height="24" viewBox="0 0 24 24" fill="none" xmlns="http://www.w3.org/2000/svg">
<path fill-rule="evenodd" clip-rule="evenodd" d="M8.03033 10.8697C8.32322 11.1626 8.32322 11.6375 8.03033 11.9304L5.53033 14.4304C4.12322 15.8375 4.12322 18.0626 5.53033 19.4697C6.93744 20.8768 9.16256 20.8768 10.5697 19.4697L12.9697 17.0697C14.3768 15.6626 14.3768 13.4375 12.9697 12.0304C12.6768 11.7375 12.6768 11.2626 12.9697 10.9697C13.2626 10.6768 13.7374 10.6768 14.0303 10.9697C16.0232 12.9626 16.0232 16.1375 14.0303 18.1304L11.6303 20.5304C9.63744 22.5232 6.46256 22.5232 4.46967 20.5304C2.47678 18.5375 2.47678 15.3626 4.46967 13.3697L6.96967 10.8697C7.26256 10.5768 7.73744 10.5768 8.03033 10.8697Z" fill="black"/>
<path fill-rule="evenodd" clip-rule="evenodd" d="M19.4697 5.53031C18.0626 4.1232 15.8374 4.1232 14.4303 5.53031L12.0303 7.93031C10.6232 9.33741 10.6232 11.5625 12.0303 12.9696C12.3232 13.2625 12.3232 13.7374 12.0303 14.0303C11.7374 14.3232 11.2626 14.3232 10.9697 14.0303C8.97678 12.0374 8.97678 8.86254 10.9697 6.86965L13.3697 4.46965C15.3626 2.47675 18.5374 2.47675 20.5303 4.46965C22.5232 6.46254 22.5232 9.63741 20.5303 11.6303L18.0303 14.1303C17.7374 14.4232 17.2626 14.4232 16.9697 14.1303C16.6768 13.8374 16.6768 13.3625 16.9697 13.0696L19.4697 10.5696C20.8768 9.16254 20.8768 6.93741 19.4697 5.53031Z" fill="black"/>
</svg>
