<svg xmlns="http://www.w3.org/2000/svg" fill="none" viewBox="0 0 24 24">
  <path fill="#000" fill-rule="evenodd" d="M12 3.75A3.262 3.262 0 0 0 8.75 7v2.082A6.72 6.72 0 0 1 12 8.25a6.72 6.72 0 0 1 3.25.832V7c0-.872-.399-1.688-.98-2.27-.582-.581-1.398-.98-2.27-.98ZM7.25 7v3.204a6.75 6.75 0 1 0 9.5 0V7c0-1.328-.601-2.512-1.42-3.33-.818-.819-2.002-1.42-3.33-1.42A4.762 4.762 0 0 0 7.25 7ZM12 9.75a5.25 5.25 0 1 0 0 10.5 5.25 5.25 0 0 0 0-10.5Zm.75 6.25a.75.75 0 0 0-1.5 0v1a.75.75 0 0 0 1.5 0v-1Z" clip-rule="evenodd"/>
</svg>
