<svg xmlns="http://www.w3.org/2000/svg" viewBox="0 0 24 24" fill="currentColor">
  <path d="M12 3.25c-1.7858 0-3.25 1.46421-3.25 3.25v3.25h6.5V6.5c0-.87185-.3988-1.68819-.9803-2.26966C13.6882 3.64887 12.8718 3.25 12 3.25ZM7.25 6.5v3.25H7c-2.61421 0-4.75 2.1358-4.75 4.75v3c0 2.6019 2.02354 4.75 4.75 4.75h10c2.6142 0 4.75-2.1358 4.75-4.75v-3c0-2.6142-2.1358-4.75-4.75-4.75h-.25V6.5c0-1.32815-.6011-2.51178-1.4197-3.33032C14.5118 2.35115 13.3282 1.75 12 1.75c-2.61421 0-4.75 2.13579-4.75 4.75ZM7 11.25c-1.78579 0-3.25 1.4642-3.25 3.25v3c0 1.7981 1.37646 3.25 3.25 3.25h10c1.7858 0 3.25-1.4642 3.25-3.25v-3c0-1.7858-1.4642-3.25-3.25-3.25H7Zm.5 2.5c-.41421 0-.75.3358-.75.75s.33579.75.75.75h9c.4142 0 .75-.3358.75-.75s-.3358-.75-.75-.75h-9Z"/>
</svg>
