<svg xmlns="http://www.w3.org/2000/svg" viewBox="0 0 24 24" fill="currentColor">
  <path d="M12 3.75c-1.7858 0-3.25 1.46421-3.25 3.25v2.08249C9.71408 8.55187 10.8218 8.25 12 8.25s2.2859.30187 3.25.83249V7c0-.87184-.3989-1.68818-.9803-2.26966C13.6882 4.14887 12.8718 3.75 12 3.75ZM7.25 7v3.2042c-1.235 1.2232-2 2.9202-2 4.7958 0 3.7279 3.02208 6.75 6.75 6.75 3.7279 0 6.75-3.0221 6.75-6.75 0-1.8756-.765-3.5726-2-4.7958V7c0-1.32816-.6012-2.51179-1.4197-3.33032C14.5118 2.85116 13.3282 2.25 12 2.25 9.38579 2.25 7.25 4.38579 7.25 7ZM12 9.75c-2.89949 0-5.25 2.3505-5.25 5.25s2.35051 5.25 5.25 5.25c2.8995 0 5.25-2.3505 5.25-5.25S14.8995 9.75 12 9.75Zm.75 6.25c0-.4142-.3358-.75-.75-.75s-.75.3358-.75.75v1c0 .4142.3358.75.75.75s.75-.3358.75-.75v-1Z"/>
</svg>
