<svg xmlns="http://www.w3.org/2000/svg" fill="none" viewBox="0 0 24 24">
  <path fill="#000" fill-rule="evenodd" d="M12 3.75A3.262 3.262 0 0 0 8.75 7v3.5h-1.5V7A4.762 4.762 0 0 1 12 2.25c1.328 0 2.512.601 3.33 1.42.819.818 1.42 2.002 1.42 3.33v3.5h-1.5V7c0-.872-.399-1.688-.98-2.27-.582-.581-1.398-.98-2.27-.98Z" clip-rule="evenodd"/>
  <path fill="#000" d="M12 21a6 6 0 1 0 0-12 6 6 0 0 0 0 12Z"/>
  <path fill="#000" fill-rule="evenodd" d="M12 9.75a5.25 5.25 0 1 0 0 10.5 5.25 5.25 0 0 0 0-10.5ZM5.25 15a6.75 6.75 0 1 1 13.5 0 6.75 6.75 0 0 1-13.5 0Z" clip-rule="evenodd"/>
  <path fill="#fff" fill-rule="evenodd" d="M12 15.25a.75.75 0 0 1 .75.75v1a.75.75 0 0 1-1.5 0v-1a.75.75 0 0 1 .75-.75Z" clip-rule="evenodd"/>
</svg>
