<svg xmlns="http://www.w3.org/2000/svg" viewBox="0 0 24 24" fill="currentColor">
  <path d="M12 3.75c-1.7858 0-3.25 1.46421-3.25 3.25v2.08249C9.71408 8.55187 10.8218 8.25 12 8.25c3.7279 0 6.75 3.0221 6.75 6.75s-3.0221 6.75-6.75 6.75c-3.72792 0-6.75-3.0221-6.75-6.75 0-1.8756.765-3.5726 2-4.7958V7c0-2.61421 2.13579-4.75 4.75-4.75 1.3282 0 2.5118.60116 3.3303 1.41968C16.1488 4.48821 16.75 5.67184 16.75 7c0 .41421-.3358.75-.75.75s-.75-.33579-.75-.75c0-.87184-.3989-1.68818-.9803-2.26966C13.6882 4.14887 12.8718 3.75 12 3.75Zm0 6c-2.89949 0-5.25 2.3505-5.25 5.25s2.35051 5.25 5.25 5.25c2.8995 0 5.25-2.3505 5.25-5.25S14.8995 9.75 12 9.75Zm.75 6.25c0-.4142-.3358-.75-.75-.75s-.75.3358-.75.75v1c0 .4142.3358.75.75.75s.75-.3358.75-.75v-1Z"/>
</svg>
