<svg width="24" height="24" viewBox="0 0 24 24" fill="none" xmlns="http://www.w3.org/2000/svg">
<path fill-rule="evenodd" clip-rule="evenodd" d="M12 3.75C10.2142 3.75 8.75 5.21421 8.75 7V10.5H7.25V7C7.25 4.38579 9.38579 2.25 12 2.25C13.3282 2.25 14.5118 2.85114 15.3303 3.66967C16.1489 4.4882 16.75 5.67184 16.75 7V10.5H15.25V7C15.25 6.12815 14.8511 5.3118 14.2697 4.73033C13.6882 4.14886 12.8718 3.75 12 3.75Z" fill="black"/>
<path d="M12 21C15.3137 21 18 18.3137 18 15C18 11.6863 15.3137 9 12 9C8.68629 9 6 11.6863 6 15C6 18.3137 8.68629 21 12 21Z" fill="black"/>
<path fill-rule="evenodd" clip-rule="evenodd" d="M12 9.75C9.10051 9.75 6.75 12.1005 6.75 15C6.75 17.8995 9.1005 20.25 12 20.25C14.8995 20.25 17.25 17.8995 17.25 15C17.25 12.1005 14.8995 9.75 12 9.75ZM5.25 15C5.25 11.2721 8.27208 8.25 12 8.25C15.7279 8.25 18.75 11.2721 18.75 15C18.75 18.7279 15.7279 21.75 12 21.75C8.27208 21.75 5.25 18.7279 5.25 15Z" fill="black"/>
</svg>
