<svg xmlns="http://www.w3.org/2000/svg" viewBox="0 0 24 24" fill="currentColor">
  <path d="M8.75 7c0-1.78579 1.4642-3.25 3.25-3.25.8718 0 1.6882.39887 2.2697.98034.5815.58147.9803 1.39781.9803 2.26966v2.08249C14.2859 8.55187 13.1782 8.25 12 8.25s-2.28592.30187-3.25.83249V7Zm-1.5 3.2042V7c0-2.61421 2.13579-4.75 4.75-4.75 1.3282 0 2.5118.60115 3.3303 1.41968C16.1489 4.48822 16.75 5.67185 16.75 7v3.2042c1.235 1.2232 2 2.9202 2 4.7958 0 3.7279-3.0221 6.75-6.75 6.75-3.72792 0-6.75-3.0221-6.75-6.75 0-1.8756.765-3.5726 2-4.7958ZM6.75 15c0-2.8995 2.35051-5.25 5.25-5.25 2.8995 0 5.25 2.3505 5.25 5.25s-2.3505 5.25-5.25 5.25c-2.89949 0-5.25-2.3505-5.25-5.25Z"/>
</svg>
