<svg xmlns="http://www.w3.org/2000/svg" viewBox="0 0 24 24" fill="currentColor">
  <path d="M17 3.75c-1.7858 0-3.25 1.46421-3.25 3.25v3.2042c1.235 1.2232 2 2.9202 2 4.7958 0 3.7279-3.0221 6.75-6.75 6.75-3.72792 0-6.75-3.0221-6.75-6.75S5.27208 8.25 9 8.25c1.1782 0 2.2859.30187 3.25.83249V7c0-2.61421 2.1358-4.75 4.75-4.75 1.3282 0 2.5118.60115 3.3303 1.41968C21.1489 4.48822 21.75 5.67185 21.75 7c0 .41421-.3358.75-.75.75s-.75-.33579-.75-.75c0-.87185-.3988-1.68819-.9803-2.26966C18.6882 4.14887 17.8718 3.75 17 3.75Zm-8 6c-2.89949 0-5.25 2.3505-5.25 5.25S6.10051 20.25 9 20.25c2.8995 0 5.25-2.3505 5.25-5.25S11.8995 9.75 9 9.75ZM9.75 16c0-.4142-.33579-.75-.75-.75s-.75.3358-.75.75v1c0 .4142.33579.75.75.75s.75-.3358.75-.75v-1Z"/>
</svg>
