<svg width="24" height="24" viewBox="0 0 24 24" fill="none" xmlns="http://www.w3.org/2000/svg">
<path fill-rule="evenodd" clip-rule="evenodd" d="M8.79999 3.55005C7.0142 3.55005 5.54999 5.01426 5.54999 6.80005V16.8C5.54999 17.2143 5.2142 17.55 4.79999 17.55C4.38577 17.55 4.04999 17.2143 4.04999 16.8V6.80005C4.04999 4.18584 6.18577 2.05005 8.79999 2.05005H14.8C17.4142 2.05005 19.55 4.18584 19.55 6.80005V16.8C19.55 19.4143 17.4142 21.55 14.8 21.55C14.3858 21.55 14.05 21.2143 14.05 20.8C14.05 20.3858 14.3858 20.05 14.8 20.05C16.5858 20.05 18.05 18.5858 18.05 16.8V6.80005C18.05 5.01426 16.5858 3.55005 14.8 3.55005H8.79999Z" fill="black"/>
<path d="M14.8 12.8001C14.5 12.8001 14.3 12.7001 14.1 12.5001C14 12.4001 13.9 12.3001 13.9 12.2001C13.8 12.0001 13.8 11.9001 13.8 11.8001C13.8 11.5001 13.9 11.2001 14 11.0001C14.4 10.6001 15 10.6001 15.4 11.0001C15.6 11.2001 15.7 11.4001 15.7 11.7001C15.7 11.8001 15.7 12.0001 15.6 12.1001C15.5 12.2001 15.5 12.3001 15.4 12.4001C15.3 12.6001 15 12.8001 14.8 12.8001Z" fill="black"/>
<path fill-rule="evenodd" clip-rule="evenodd" d="M6.14999 18.2001C6.14999 17.7859 6.48578 17.4501 6.89999 17.4501H11.3C11.7142 17.4501 12.05 17.7859 12.05 18.2001C12.05 18.6143 11.7142 18.9501 11.3 18.9501H6.89999C6.48578 18.9501 6.14999 18.6143 6.14999 18.2001Z" fill="black"/>
<path fill-rule="evenodd" clip-rule="evenodd" d="M9.26966 15.6697C9.56255 15.3768 10.0374 15.3768 10.3303 15.6697L12.1303 17.4697C12.279 17.6184 12.3457 17.7896 12.3774 17.9003C12.4119 18.0211 12.425 18.1417 12.425 18.2501C12.425 18.3584 12.4119 18.479 12.3774 18.5999C12.3457 18.7106 12.279 18.8817 12.1303 19.0304L10.3303 20.8304C10.0374 21.1233 9.56255 21.1233 9.26966 20.8304C8.97676 20.5375 8.97676 20.0626 9.26966 19.7697L10.7893 18.2501L9.26966 16.7304C8.97676 16.4375 8.97676 15.9626 9.26966 15.6697Z" fill="black"/>
</svg>
