<svg width="24" height="24" viewBox="0 0 24 24" fill="none" xmlns="http://www.w3.org/2000/svg">
<path fill-rule="evenodd" clip-rule="evenodd" d="M8.79999 3.55005C7.0142 3.55005 5.54999 5.01426 5.54999 6.80005V16.8C5.54999 17.2143 5.2142 17.55 4.79999 17.55C4.38577 17.55 4.04999 17.2143 4.04999 16.8V6.80005C4.04999 4.18584 6.18577 2.05005 8.79999 2.05005H14.8C17.4142 2.05005 19.55 4.18584 19.55 6.80005V16.8C19.55 19.4143 17.4142 21.55 14.8 21.55C14.3858 21.55 14.05 21.2143 14.05 20.8C14.05 20.3858 14.3858 20.05 14.8 20.05C16.5858 20.05 18.05 18.5858 18.05 16.8V6.80005C18.05 5.01426 16.5858 3.55005 14.8 3.55005H8.79999Z" fill="black"/>
<path d="M14.8 12.8001C14.5 12.8001 14.3 12.7001 14.1 12.5001C14 12.4001 13.9 12.3001 13.9 12.2001C13.8 12.0001 13.8 11.9001 13.8 11.8001C13.8 11.5001 13.9 11.2001 14 11.0001C14.4 10.6001 15 10.6001 15.4 11.0001C15.6 11.2001 15.7 11.4001 15.7 11.7001C15.7 11.8001 15.7 12.0001 15.6 12.1001C15.5 12.2001 15.5 12.3001 15.4 12.4001C15.3 12.6001 15 12.8001 14.8 12.8001Z" fill="black"/>
<path fill-rule="evenodd" clip-rule="evenodd" d="M6.64999 18.2001C6.64999 17.7859 6.98578 17.4501 7.39999 17.4501H11.8C12.2142 17.4501 12.55 17.7859 12.55 18.2001C12.55 18.6143 12.2142 18.9501 11.8 18.9501H7.39999C6.98578 18.9501 6.64999 18.6143 6.64999 18.2001Z" fill="black"/>
<path fill-rule="evenodd" clip-rule="evenodd" d="M9.33032 15.6697C9.62321 15.9626 9.62321 16.4375 9.33032 16.7304L7.81065 18.2501L9.33032 19.7697C9.62321 20.0626 9.62321 20.5375 9.33032 20.8304C9.03743 21.1233 8.56255 21.1233 8.26966 20.8304L6.46966 19.0304C6.32098 18.8817 6.25423 18.7106 6.22259 18.5999C6.18806 18.479 6.17499 18.3584 6.17499 18.2501C6.17499 18.1417 6.18806 18.0211 6.22259 17.9003C6.25423 17.7896 6.32098 17.6184 6.46966 17.4697L8.26966 15.6697C8.56255 15.3768 9.03742 15.3768 9.33032 15.6697Z" fill="black"/>
</svg>
