<svg xmlns="http://www.w3.org/2000/svg" fill="none" viewBox="0 0 24 24">
  <path fill="#000" fill-rule="evenodd" d="M8.8 3.55A3.262 3.262 0 0 0 5.55 6.8v10a.75.75 0 1 1-1.5 0v-10A4.762 4.762 0 0 1 8.8 2.05h6a4.762 4.762 0 0 1 4.75 4.75v10a4.762 4.762 0 0 1-4.75 4.75.75.75 0 1 1 0-1.5 3.262 3.262 0 0 0 3.25-3.25v-10a3.262 3.262 0 0 0-3.25-3.25h-6Z" clip-rule="evenodd"/>
  <path fill="#000" d="M14.8 12.8c-.3 0-.5-.1-.7-.3-.1-.1-.2-.2-.2-.3-.1-.2-.1-.3-.1-.4 0-.3.1-.6.2-.8.4-.4 1-.4 1.4 0 .2.2.3.4.3.7 0 .1 0 .3-.1.4-.1.1-.1.2-.2.3-.1.2-.4.4-.6.4Z"/>
  <path fill="#000" fill-rule="evenodd" d="M6.15 18.2a.75.75 0 0 1 .75-.75h4.4a.75.75 0 0 1 0 1.5H6.9a.75.75 0 0 1-.75-.75Z" clip-rule="evenodd"/>
  <path fill="#000" fill-rule="evenodd" d="M9.27 15.67a.75.75 0 0 1 1.06 0l1.8 1.8a.98.98 0 0 1 .247.43 1.282 1.282 0 0 1 0 .7.992.992 0 0 1-.247.43l-1.8 1.8a.75.75 0 1 1-1.06-1.06l1.52-1.52-1.52-1.52a.75.75 0 0 1 0-1.06Z" clip-rule="evenodd"/>
</svg>
