<svg xmlns="http://www.w3.org/2000/svg" fill="none" viewBox="0 0 24 24">
  <path fill="#000" d="m18.15 12.113-8.4 8.4c-.6.5-1.5.5-2 0l-1.6-1.6c-.5-.6-.5-1.5 0-2l8.4-8.4 3.6 3.6Z"/>
  <path fill="#000" fill-rule="evenodd" d="m14.55 7.452 4.66 4.66-8.954 8.955-.026.022c-.85.708-2.194.77-3.01-.046l-1.624-1.624-.022-.026c-.708-.85-.77-2.194.046-3.01l8.93-8.931Zm0 2.121-7.87 7.87c-.18.18-.243.62.028.967l1.572 1.572c.18.18.62.244.967-.027l7.842-7.842-2.539-2.54Z" clip-rule="evenodd"/>
  <path fill="#000" fill-rule="evenodd" d="M17.358 6.566 15.5 8.502l2.56 2.56 1.964-1.885a.668.668 0 0 0 .214-.49c-.005-.147-.072-.33-.276-.505l-.022-.019-1.62-1.62c-.179-.179-.616-.243-.962.023Zm-.988-1.13c.85-.708 2.194-.77 3.01.046l1.582 1.582c.481.422.755.98.775 1.573.02.599-.222 1.17-.657 1.606l-.005.005-3.036 2.914L13.4 8.523l2.938-3.06.032-.027ZM7.4 4.712a.75.75 0 0 1 .75-.75h3.3a.75.75 0 0 1 0 1.5h-3.3a.75.75 0 0 1-.75-.75Z" clip-rule="evenodd"/>
  <path fill="#000" fill-rule="evenodd" d="M9.75 2.362a.75.75 0 0 1 .75.75v3.2a.75.75 0 0 1-1.5 0v-3.2a.75.75 0 0 1 .75-.75Zm-7.85 8.15a.75.75 0 0 1 .75-.75h3.2a.75.75 0 1 1 0 1.5h-3.2a.75.75 0 0 1-.75-.75Z" clip-rule="evenodd"/>
  <path fill="#000" fill-rule="evenodd" d="M4.25 8.162a.75.75 0 0 1 .75.75v3.2a.75.75 0 0 1-1.5 0v-3.2a.75.75 0 0 1 .75-.75Zm13.05 10.05a.75.75 0 0 1 .75-.75h3.3a.75.75 0 1 1 0 1.5h-3.3a.75.75 0 0 1-.75-.75Z" clip-rule="evenodd"/>
  <path fill="#000" fill-rule="evenodd" d="M19.65 15.863a.75.75 0 0 1 .75.75v3.3a.75.75 0 0 1-1.5 0v-3.3a.75.75 0 0 1 .75-.75Z" clip-rule="evenodd"/>
</svg>
