<svg xmlns="http://www.w3.org/2000/svg" viewBox="0 0 24 24" fill="currentColor">
  <path d="M3.53735 7.55005c0-1.28579.96422-2.25 2.25-2.25H17.7874c1.2857 0 2.25.96421 2.25 2.25V12.55c0 .4143.3357.75.75.75.4142 0 .75-.3357.75-.75V7.55005c0-2.11421-1.6358-3.75-3.75-3.75H5.78735c-2.11421 0-3.75 1.63579-3.75 3.75V15.55c0 2.1143 1.63579 3.75 3.75 3.75h6.00005c.4142 0 .75-.3357.75-.75 0-.4142-.3358-.75-.75-.75H5.78735c-1.28578 0-2.25-.9642-2.25-2.25V7.55005Zm2.591.33196c-.3689-.18838-.82066-.04203-1.00903.32687-.18838.3689-.04204.82066.32686 1.00904l4.70002 2.39998v.0001l.0057.0028c1.0223.5112 2.1587.4951 3.24.0145.0123-.0054.0245-.0112.0365-.0174l4.7-2.39998c.3689-.18838.5152-.64014.3268-1.00904-.1884-.3689-.6401-.51525-1.009-.32687l-4.6811 2.39039c-.7108.3109-1.3675.2933-1.9398.0081L6.12835 7.88201ZM16.4178 15.1198c.2929.2929.2929.7678 0 1.0607l-1.3697 1.3696 1.3697 1.3697c.2929.2929.2929.7678 0 1.0607-.2929.2929-.7678.2929-1.0607 0l-1.4-1.4001c-.2705-.2705-.4446-.6296-.4446-1.0303 0-.4007.1741-.7598.4446-1.0303l1.4-1.4c.2929-.2929.7678-.2929 1.0607 0Zm3.6999-.1001c-.2929-.2929-.7677-.2929-1.0606 0-.2929.2929-.2929.7678 0 1.0607l1.3696 1.3697-1.3696 1.3696c-.2929.2929-.2929.7678 0 1.0607.2929.2929.7677.2929 1.0606 0l1.4-1.4c.2705-.2705.4447-.6296.4447-1.0303 0-.4007-.1742-.7598-.4447-1.0304l-1.4-1.4Z"/>
</svg>
