<svg xmlns="http://www.w3.org/2000/svg" viewBox="0 0 24 24" fill="currentColor">
  <path d="M6 5.2124c-1.28579 0-2.25.96422-2.25 2.25v8c0 1.2858.96421 2.25 2.25 2.25h6c.4142 0 .75.3358.75.75s-.3358.75-.75.75H6c-2.11421 0-3.75-1.6358-3.75-3.75v-8c0-2.11421 1.63579-3.75 3.75-3.75h12c2.1142 0 3.75 1.63579 3.75 3.75v5c0 .4142-.3358.75-.75.75s-.75-.3358-.75-.75v-5c0-1.28578-.9642-2.25-2.25-2.25H6Zm-.66792 2.90883c.18838-.3689.64014-.51524 1.00904-.32687l4.69698 2.39844c.5723.2852 1.2289.3029 1.9398-.0081l4.6811-2.39034c.3689-.18837.8206-.04203 1.009.32687.1884.3689.042.82066-.3269 1.00904l-4.7 2.40003c-.012.0061-.0241.0119-.0365.0174-1.0813.4806-2.2176.4966-3.24-.0145l-.0057-.0029h.0001L5.65895 9.13027c-.3689-.18838-.51524-.64014-.32687-1.00904ZM21.5238 15.9992c.2965-.2892.3023-.7641.0131-1.0605-.2893-.2965-.7641-.3024-1.0606-.0131l-3.7197 3.6289L15.6 17.0124c-.2485-.3314-.7186-.3985-1.05-.15-.3313.2485-.3985.7186-.15 1.05l1.532 2.0426.0377.0377c.2225.2225.5065.2947.7303.2947.2224 0 .5042-.0712.726-.2903l4.0978-3.9979Z"/>
</svg>
