<svg xmlns="http://www.w3.org/2000/svg" viewBox="0 0 24 24" fill="currentColor">
  <path d="M3.75 8c0-1.28579.96421-2.25 2.25-2.25h12c1.2858 0 2.25.96421 2.25 2.25v5c0 .4142.3358.75.75.75s.75-.3358.75-.75V8c0-2.11421-1.6358-3.75-3.75-3.75H6C3.88579 4.25 2.25 5.88579 2.25 8v8c0 2.1142 1.63579 3.75 3.75 3.75h6c.4142 0 .75-.3358.75-.75s-.3358-.75-.75-.75H6c-1.28579 0-2.25-.9642-2.25-2.25V8Zm2.591.33196c-.3689-.18837-.82066-.04203-1.00904.32687-.18837.3689-.04203.82066.32687 1.00904l4.69997 2.40003.0057.0029c1.0224.5111 2.1587.4951 3.24.0145.0123-.0055.0245-.0113.0365-.0174l4.7-2.40003c.3689-.18838.5152-.64014.3269-1.00904-.1884-.3689-.6402-.51524-1.0091-.32687l-4.681 2.39034c-.7109.3109-1.3675.2933-1.9398.0081L6.341 8.33196ZM17.2779 15.75h.922c.4142 0 .75-.3358.75-.75s-.3358-.75-.75-.75h-2.5c-.2474 0-.4834.1012-.656.2393-.1964.1571-.394.4319-.394.8107v2.4c0 .4142.3358.75.75.75s.75-.3358.75-.75v-.9587l2.0107 2.08c.2879.2978.7627.3059 1.0605.018.2978-.2879.3058-.7627.0179-1.0605L17.2779 15.75Z"/>
</svg>
