<svg xmlns="http://www.w3.org/2000/svg" viewBox="0 0 24 24" fill="currentColor">
  <path d="M6 5.19971c-1.28579 0-2.25.96421-2.25 2.25v7.99999c0 1.2858.96421 2.25 2.25 2.25h6c.4142 0 .75.3358.75.75s-.3358.75-.75.75H6c-2.11421 0-3.75-1.6358-3.75-3.75V7.44971c0-2.11422 1.63579-3.75 3.75-3.75h12c2.1142 0 3.75 1.63578 3.75 3.75v4.99999c0 .4142-.3358.75-.75.75s-.75-.3358-.75-.75V7.44971c0-1.28579-.9642-2.25-2.25-2.25H6ZM19.6301 15.7803c.2929-.2929.2929-.7677 0-1.0606-.2929-.2929-.7677-.2929-1.0606 0l-1.6197 1.6196-1.6197-1.6196c-.2929-.2929-.7677-.2929-1.0606 0-.2929.2929-.2929.7677 0 1.0606L15.8891 17.4l-1.6196 1.6197c-.2929.2928-.2929.7677 0 1.0606.2929.2929.7677.2929 1.0606 0l1.6197-1.6196 1.6197 1.6196c.2929.2929.7677.2929 1.0606 0 .2929-.2929.2929-.7678 0-1.0606L18.0105 17.4l1.6196-1.6197ZM6.341 7.78167c-.3689-.18838-.82066-.04203-1.00904.32687-.18837.3689-.04203.82066.32687 1.00903l4.69997 2.40003.0057.0029c1.0224.5112 2.1587.4951 3.24.0145.0123-.0055.0245-.0113.0365-.0174l4.7-2.40003c.3689-.18837.5152-.64013.3269-1.00903-.1884-.3689-.6402-.51525-1.0091-.32687l-4.681 2.39033c-.7109.311-1.3675.2933-1.9398.0081L6.341 7.78167Z"/>
</svg>
