<svg xmlns="http://www.w3.org/2000/svg" viewBox="0 0 24 24" fill="currentColor">
  <path d="M3.75 8c0-1.28579.96421-2.25 2.25-2.25h12c1.2858 0 2.25.96421 2.25 2.25v8c0 .0912-.0063.1817-.0185.271l-5.0101-5.0101 3.1196-1.59303c.3689-.18838.5152-.64014.3269-1.00904-.1884-.3689-.6402-.51524-1.0091-.32687L13.9027 10.25c-.1929-.0007-.386.0725-.5331.2197-.0293.0293-.0557.0604-.0791.0929l-.3127.1597c-.7109.3109-1.3675.2933-1.9398.0081l-.5048-.2577-.003-.003c-.1173-.1173-.2637-.1876-.416-.211L6.341 8.33196c-.3689-.18837-.82066-.04203-1.00904.32687-.18837.3689-.04203.82066.32687 1.00904L8.71218 11.227l-4.9556 4.9557C3.75222 16.1226 3.75 16.0617 3.75 16V8Zm10.0672 3.9779-.1762.09c-.012.0061-.0241.0119-.0365.0174-1.0813.4806-2.2176.4966-3.24-.0145l-.0057-.0029-.2424-.1238-5.69297 5.6931c.39951.3837.94984.6128 1.57657.6128h12c.5545 0 1.0825-.2327 1.4874-.6018l-5.6702-5.6703ZM6 19.75c-1.29372 0-2.4083-.6125-3.07855-1.5723-.01784-.0148-.03515-.0306-.05188-.0473-.10755-.1076-.17561-.2397-.20417-.3783C2.39908 17.2329 2.25 16.6383 2.25 16V8c0-2.11421 1.63579-3.75 3.75-3.75h12c2.1142 0 3.75 1.63579 3.75 3.75v8c0 2.0142-1.7358 3.75-3.75 3.75H6Z"/>
</svg>
