<svg xmlns="http://www.w3.org/2000/svg" fill="none" viewBox="0 0 24 24">
  <path fill="#000" d="M16.7 15.25H7.2c-1.7 0-3-1.3-3-3v-6c0-1.7 1.3-3 3-3h9.4c1.7 0 3 1.3 3 3v6c.1 1.6-1.3 3-2.9 3Z"/>
  <path fill="#000" fill-rule="evenodd" d="M7.2 4c-1.286 0-2.25.964-2.25 2.25v6c0 1.286.964 2.25 2.25 2.25h9.5c1.196 0 2.223-1.063 2.151-2.203a.731.731 0 0 1-.001-.047v-6c0-1.286-.964-2.25-2.25-2.25H7.2ZM3.45 6.25c0-2.114 1.636-3.75 3.75-3.75h9.4c2.114 0 3.75 1.636 3.75 3.75v5.978C20.463 14.278 18.695 16 16.7 16H7.2c-2.114 0-3.75-1.636-3.75-3.75v-6Z" clip-rule="evenodd"/>
  <path fill="#000" d="m6.8 6.65 4 2c.7.3 1.5.3 2.2 0l4-2"/>
  <path fill="#fff" fill-rule="evenodd" d="M6.13 6.315a.75.75 0 0 1 1.005-.336l3.98 1.99c.5.208 1.07.208 1.57 0l3.98-1.99a.75.75 0 0 1 .67 1.342l-4 2a3.551 3.551 0 0 1-2.87 0l-4-2a.75.75 0 0 1-.336-1.006Z" clip-rule="evenodd"/>
  <path fill="#000" fill-rule="evenodd" d="M12 14.5a.75.75 0 0 1 .75.75v4a.75.75 0 0 1-1.5 0v-4a.75.75 0 0 1 .75-.75Z" clip-rule="evenodd"/>
  <path fill="#000" fill-rule="evenodd" d="M6.25 19.25A.75.75 0 0 1 7 18.5h10a.75.75 0 0 1 0 1.5H7a.75.75 0 0 1-.75-.75Z" clip-rule="evenodd"/>
  <path fill="#000" d="M5.5 20.75a1.5 1.5 0 1 0 0-3 1.5 1.5 0 0 0 0 3Z"/>
  <path fill="#000" fill-rule="evenodd" d="M5.5 18.5a.75.75 0 1 0 0 1.5.75.75 0 0 0 0-1.5Zm-2.25.75a2.25 2.25 0 1 1 4.5 0 2.25 2.25 0 0 1-4.5 0Z" clip-rule="evenodd"/>
  <path fill="#000" d="M18.5 20.75a1.5 1.5 0 1 0 0-3 1.5 1.5 0 0 0 0 3Z"/>
  <path fill="#000" fill-rule="evenodd" d="M18.5 18.5a.75.75 0 1 0 0 1.5.75.75 0 0 0 0-1.5Zm-2.25.75a2.25 2.25 0 1 1 4.5 0 2.25 2.25 0 0 1-4.5 0Z" clip-rule="evenodd"/>
</svg>
