<svg xmlns="http://www.w3.org/2000/svg" viewBox="0 0 24 24" fill="currentColor">
  <path d="M4.94995 6.25c0-1.28579.96421-2.25 2.25-2.25h9.39995c1.2858 0 2.25.96421 2.25 2.25v6c0 .0147.0005.0294.0013.044.0722 1.2271-.9394 2.206-2.1512 2.206H7.19995c-1.28579 0-2.25-.9642-2.25-2.25v-6ZM16.7 16h-3.95v2.5h3.628c.3089-.8739 1.1423-1.5 2.122-1.5 1.2426 0 2.25 1.0074 2.25 2.25s-1.0074 2.25-2.25 2.25c-.9797 0-1.8131-.6261-2.122-1.5H7.62197c-.30888.8739-1.14231 1.5-2.12197 1.5-1.24264 0-2.25-1.0074-2.25-2.25S4.25736 17 5.5 17c.97966 0 1.81309.6261 2.12197 1.5H11.25V16H7.19995c-2.11421 0-3.75-1.6358-3.75-3.75v-6c0-2.11421 1.63579-3.75 3.75-3.75h9.39995c2.1143 0 3.75 1.63579 3.75 3.75v5.9792C20.4637 14.3904 18.681 16 16.7 16Zm1.05 3.25c0 .4142.3358.75.75.75s.75-.3358.75-.75-.3358-.75-.75-.75-.75.3358-.75.75ZM5.5 18.5c.41421 0 .75.3358.75.75s-.33579.75-.75.75-.75-.3358-.75-.75.33579-.75.75-.75ZM7.13538 5.97925c-.37048-.18525-.82099-.03508-1.00623.33541-.18524.37048-.03508.82098.33541 1.00623l4.00004 2c.0131.00657.0264.01275.0399.01854.8887.38085 1.9022.38085 2.7909 0 .0135-.00579.0268-.01197.04-.01854l4-2c.3705-.18525.5206-.63575.3354-1.00623-.1853-.37049-.6358-.52066-1.0062-.33541l-3.9788 1.98936c-.5006.20861-1.071.20861-1.5717 0L7.13538 5.97925Z"/>
</svg>
