<svg xmlns="http://www.w3.org/2000/svg" viewBox="0 0 24 24" fill="currentColor">
  <path d="M5.04736 7c0-1.28579.96422-2.25 2.25-2.25h9.40004c1.2857 0 2.25.96421 2.25 2.25v6c0 .0156.0004.0312.0014.0468.0713 1.1397-.955 2.2032-2.1514 2.2032H7.29736c-1.28578 0-2.25-.9642-2.25-2.25V7Zm11.75004 9.75h-3.95v2.5h4.25c.4142 0 .75.3358.75.75s-.3358.75-.75.75H7.09741c-.41421 0-.75-.3358-.75-.75s.33579-.75.75-.75h4.24999v-2.5H7.29736c-2.11421 0-3.75-1.6358-3.75-3.75V7c0-2.11421 1.63579-3.75 3.75-3.75h9.40004c2.1142 0 3.75 1.63579 3.75 3.75v5.9781c.113 2.0493-1.6545 3.7719-3.65 3.7719ZM7.23279 6.72925c-.37048-.18525-.82099-.03508-1.00623.33541-.18524.37048-.03507.82098.33541 1.00623L10.562 10.0709c.0131.0066.0264.0127.0399.0185.8887.3809 1.9023.3809 2.7909 0 .0135-.0058.0268-.0119.04-.0185l4-2.00001c.3705-.18525.5206-.63575.3354-1.00623-.1852-.37049-.6357-.52066-1.0062-.33541l-3.9788 1.98936c-.5006.20861-1.071.20861-1.5717 0L7.23279 6.72925Z"/>
</svg>
