<svg width="24" height="24" viewBox="0 0 24 24" fill="none" xmlns="http://www.w3.org/2000/svg">
<path d="M10.9 20.0001C14.8764 20.0001 18.1 16.7765 18.1 12.8001C18.1 8.82365 14.8764 5.6001 10.9 5.6001C6.92355 5.6001 3.7 8.82365 3.7 12.8001C3.7 16.7765 6.92355 20.0001 10.9 20.0001Z" fill="black"/>
<path fill-rule="evenodd" clip-rule="evenodd" d="M10.9 6.3501C7.33776 6.3501 4.45 9.23786 4.45 12.8001C4.45 16.3623 7.33776 19.2501 10.9 19.2501C14.4622 19.2501 17.35 16.3623 17.35 12.8001C17.35 9.23786 14.4622 6.3501 10.9 6.3501ZM2.95 12.8001C2.95 8.40943 6.50933 4.8501 10.9 4.8501C15.2907 4.8501 18.85 8.40943 18.85 12.8001C18.85 17.1908 15.2907 20.7501 10.9 20.7501C6.50933 20.7501 2.95 17.1908 2.95 12.8001Z" fill="black"/>
<path fill-rule="evenodd" clip-rule="evenodd" d="M20.2377 3.77724C20.5265 4.07423 20.5198 4.54906 20.2228 4.8378L16.6228 8.3378C16.3258 8.62653 15.851 8.61985 15.5622 8.32286C15.2735 8.02587 15.2802 7.55104 15.5772 7.2623L19.1772 3.7623C19.4742 3.47356 19.949 3.48025 20.2377 3.77724Z" fill="black"/>
<path fill-rule="evenodd" clip-rule="evenodd" d="M15.95 3.80005C15.95 3.38584 16.2858 3.05005 16.7 3.05005H19.7C20.0439 3.05005 20.3251 3.21446 20.5053 3.39472C20.6856 3.57498 20.85 3.85613 20.85 4.20005V7.20005C20.85 7.61426 20.5142 7.95005 20.1 7.95005C19.6858 7.95005 19.35 7.61426 19.35 7.20005V4.55005H16.7C16.2858 4.55005 15.95 4.21426 15.95 3.80005Z" fill="black"/>
</svg>
