<svg width="24" height="24" viewBox="0 0 24 24" fill="none" xmlns="http://www.w3.org/2000/svg">
<path fill-rule="evenodd" clip-rule="evenodd" d="M11.5956 4.07166L12.0391 4.39199C14.0298 5.82969 15.45 8.35358 15.45 11.2V13.0078L14.4215 12.5964C13.5077 12.2309 12.6021 12.05 11.6 12.05C10.5825 12.05 9.59016 12.2362 8.8046 12.5854L7.75 13.0541V11.2C7.75 8.46119 9.06366 5.93727 11.1551 4.39621L11.5956 4.07166ZM11.6029 5.95968C10.2353 7.1607 9.35622 8.92185 9.259 10.8438C10.007 10.6456 10.8091 10.55 11.6 10.55C12.4187 10.55 13.1891 10.6524 13.9416 10.8559C13.844 8.8637 12.9071 7.09816 11.6029 5.95968Z" fill="black"/>
<path d="M14.6 11.9C14.4 14.1 13.2 16.1 11.5 17.4C9.79999 16.1 8.59999 14.1 8.39999 11.9C9.39999 11.5 10.4 11.3 11.5 11.3C12.6 11.3 13.7 11.5 14.6 11.9Z" fill="black"/>
<path fill-rule="evenodd" clip-rule="evenodd" d="M9.22394 12.4001C9.50453 13.9547 10.3382 15.3778 11.5 16.4256C12.6648 15.3751 13.4997 13.9475 13.7782 12.3883C13.0945 12.1667 12.3051 12.05 11.5 12.05C10.6973 12.05 9.95656 12.1661 9.22394 12.4001ZM8.12146 11.2037C9.20772 10.7692 10.3021 10.55 11.5 10.55C12.6825 10.55 13.8902 10.7638 14.9046 11.2147L15.3956 11.4329L15.3469 11.968C15.1263 14.3943 13.8079 16.5794 11.9556 17.9958L11.5 18.3442L11.0444 17.9958C9.19212 16.5794 7.87366 14.3943 7.65308 11.968L7.60248 11.4113L8.12146 11.2037Z" fill="black"/>
<path fill-rule="evenodd" clip-rule="evenodd" d="M9.15391 10.809L9.24692 11.8321C9.42833 13.8275 10.4257 15.6343 11.9556 16.8042L12.7324 17.3982L11.9573 17.9944C10.5331 19.09 8.77389 19.75 6.8 19.75C5.60211 19.75 4.50772 19.5308 3.42146 19.0963L2.89758 18.8868L2.95373 18.3253C3.28219 15.0407 5.36615 12.4115 8.20777 11.2092L9.15391 10.809ZM4.52639 17.9007C5.25822 18.1342 5.99822 18.25 6.8 18.25C8.08585 18.25 9.25583 17.9123 10.2705 17.3238C9.0947 16.1678 8.27313 14.673 7.91646 13.0322C6.1725 14.0633 4.90559 15.7934 4.52639 17.9007Z" fill="black"/>
<path fill-rule="evenodd" clip-rule="evenodd" d="M13.9493 10.6737L14.9143 11.1191C17.7441 12.4251 19.7176 15.0481 20.046 18.2229L20.102 18.7643L19.6046 18.9854C18.5902 19.4363 17.3825 19.6501 16.2 19.6501C14.2261 19.6501 12.467 18.9901 11.0427 17.8945L10.2676 17.2983L11.0444 16.7043C12.5921 15.5207 13.6737 13.7058 13.8531 11.7322L13.9493 10.6737ZM15.171 12.9611C14.7905 14.6013 13.9132 16.0834 12.733 17.2259C13.7469 17.8132 14.9157 18.1501 16.2 18.1501C17.0034 18.1501 17.7911 18.034 18.4737 17.8132C18.103 15.7742 16.8987 14.0495 15.171 12.9611Z" fill="black"/>
</svg>
