<svg xmlns="http://www.w3.org/2000/svg" fill="none" viewBox="0 0 24 24">
  <path fill="#000" fill-rule="evenodd" d="m11.596 4.072.443.32C14.03 5.83 15.45 8.354 15.45 11.2v1.808l-1.028-.412a7.4 7.4 0 0 0-2.822-.546c-1.018 0-2.01.186-2.795.535l-1.055.47V11.2c0-2.739 1.314-5.263 3.405-6.804l.44-.324Zm.007 1.888a6.985 6.985 0 0 0-2.344 4.884 9.223 9.223 0 0 1 2.341-.294c.819 0 1.59.102 2.342.306-.098-1.992-1.035-3.758-2.34-4.896Z" clip-rule="evenodd"/>
  <path fill="#000" d="M14.6 11.9c-.2 2.2-1.4 4.2-3.1 5.5-1.7-1.3-2.9-3.3-3.1-5.5 1-.4 2-.6 3.1-.6s2.2.2 3.1.6Z"/>
  <path fill="#000" fill-rule="evenodd" d="M9.224 12.4c.28 1.555 1.114 2.978 2.276 4.026 1.165-1.05 2-2.478 2.278-4.038a7.498 7.498 0 0 0-2.278-.338 7.35 7.35 0 0 0-2.276.35ZM8.12 11.204a8.899 8.899 0 0 1 3.379-.654c1.182 0 2.39.214 3.405.665l.49.218-.048.535c-.22 2.426-1.54 4.611-3.391 6.028l-.456.348-.456-.348c-1.852-1.417-3.17-3.602-3.39-6.028l-.052-.557.52-.207Z" clip-rule="evenodd"/>
  <path fill="#000" fill-rule="evenodd" d="m9.154 10.809.093 1.023c.181 1.995 1.179 3.802 2.709 4.972l.776.594-.775.596A8.371 8.371 0 0 1 6.8 19.75a8.899 8.899 0 0 1-3.379-.654l-.523-.21.056-.56c.328-3.285 2.412-5.915 5.254-7.117l.946-.4Zm-4.628 7.092a7.35 7.35 0 0 0 2.274.349 6.852 6.852 0 0 0 3.47-.926 8.573 8.573 0 0 1-2.354-4.292 7.086 7.086 0 0 0-3.39 4.869Z" clip-rule="evenodd"/>
  <path fill="#000" fill-rule="evenodd" d="m13.95 10.674.964.445c2.83 1.306 4.804 3.93 5.132 7.104l.056.541-.497.221c-1.015.451-2.223.665-3.405.665a8.371 8.371 0 0 1-5.157-1.755l-.775-.597.776-.594c1.548-1.183 2.63-2.998 2.81-4.972l.095-1.058Zm1.221 2.287c-.38 1.64-1.258 3.122-2.438 4.265a6.852 6.852 0 0 0 3.467.924c.803 0 1.591-.116 2.274-.337-.371-2.039-1.575-3.763-3.303-4.852Z" clip-rule="evenodd"/>
</svg>
