<svg xmlns="http://www.w3.org/2000/svg" viewBox="0 0 24 24" fill="currentColor">
  <path d="M11.4461 4.50513c.2458-.33346.7153-.4046 1.0487-.15889 2.0915 1.54106 3.4051 4.06495 3.4051 6.80376v.3685c2.4739 1.256 4.2832 3.6401 4.5759 6.518.0275.0417.0512.0868.0705.135.1538.3846-.0332.8211-.4178.9749-1.0863.4345-2.1807.6536-3.3786.6536-1.8005 0-3.4225-.5491-4.7745-1.4772-1.3215.8674-2.89053 1.3772-4.62545 1.3772-1.12672 0-2.27622-.194-3.25969-.6024-.00582-.0004-.01164-.001-.01747-.0016-.41202-.0426-.71147-.4111-.66885-.8232.31416-3.0368 2.13708-5.5824 4.79601-6.8525V11.25c0-2.63715 1.21794-5.07509 3.17545-6.62818.0197-.04027.0432-.07933.0707-.11669ZM8.3545 13.033c-1.75312 1.0138-2.98848 2.7374-3.37251 4.7988.70387.2411 1.52736.3682 2.36796.3682 1.25545 0 2.40045-.3219 3.39835-.8848-1.16845-1.1389-2.03373-2.5916-2.3938-4.2822Zm1.41055-.6114C10.468 12.2066 11.1806 12.1 11.95 12.1c.8352 0 1.6536.1255 2.3545.3636-.305 1.5356-1.1488 2.936-2.3119 3.9632-1.1482-1.0425-1.9612-2.4081-2.22755-4.0052Zm4.63125-1.4991c-.7778-.2176-1.6182-.3225-2.4463-.3225-.782 0-1.52.0934-2.24029.2792.10228-1.94144 1.00219-3.71757 2.39709-4.91635 1.3636 1.22663 2.2268 3.01603 2.2895 4.95965Zm1.2989 2.1964c-.4007 1.627-1.2903 3.0932-2.477 4.2191 1.0288.6106 2.22.962 3.5317.962.7778 0 1.4974-.1089 2.2078-.3286-.279-2.0492-1.5158-3.7973-3.2625-4.8525Z"/>
</svg>
