<svg xmlns="http://www.w3.org/2000/svg" fill="none" viewBox="0 0 24 24">
  <path fill="#000" fill-rule="evenodd" d="m9.146 2.95 5.7 3 4.705-2.54.062-.022a1.3 1.3 0 0 1 1.102.142c.335.213.585.592.585 1.07v12.3a1.246 1.246 0 0 1-.42.93l-.08.08-5.95 3.138-5.702-3.002-4.624 2.405c-.45.274-.934.163-1.24-.03-.294-.188-.584-.551-.584-1.021V6.79l.161-.162.03-.063c.072-.142.213-.376.511-.53l5.744-3.084Zm.008 1.7L4.2 7.31v11.619l4.952-2.575 5.698 2.998 4.95-2.61V4.98l-4.946 2.67-5.7-3Z" clip-rule="evenodd"/>
  <path fill="#000" fill-rule="evenodd" d="M9.15 3.05a.75.75 0 0 1 .75.75v13.3a.75.75 0 0 1-1.5 0V3.8a.75.75 0 0 1 .75-.75Zm5.7 3a.75.75 0 0 1 .75.75v13.3a.75.75 0 0 1-1.5 0V6.8a.75.75 0 0 1 .75-.75Z" clip-rule="evenodd"/>
</svg>
