<svg width="24" height="24" viewBox="0 0 24 24" fill="none" xmlns="http://www.w3.org/2000/svg">
<path fill-rule="evenodd" clip-rule="evenodd" d="M14.3697 5.28033C13.674 4.58464 12.881 4.223 12.0679 4.29692L12.034 4.3H12C11.1855 4.3 10.2805 4.63018 9.63032 5.28033C8.97355 5.9371 8.64999 6.74524 8.64999 7.65C8.64999 8.46448 8.98017 9.36952 9.63032 10.0197L8.56966 11.0803C7.61982 10.1305 7.14999 8.83552 7.14999 7.65C7.14999 6.35477 7.62643 5.1629 8.56966 4.21967C9.5105 3.27883 10.7899 2.80895 11.9662 2.80013C13.3388 2.68751 14.5334 3.32279 15.4303 4.21967C16.3802 5.16952 16.85 6.46448 16.85 7.65C16.85 8.94524 16.3736 10.1371 15.4303 11.0803L14.3697 10.0197C15.0264 9.3629 15.35 8.55477 15.35 7.65C15.35 6.83552 15.0198 5.93048 14.3697 5.28033Z" fill="black"/>
<path fill-rule="evenodd" clip-rule="evenodd" d="M8.56968 10.0197C8.86257 9.72678 9.33744 9.72678 9.63034 10.0197L12 12.3893L14.3697 10.0197C14.6626 9.72678 15.1374 9.72678 15.4303 10.0197C15.7232 10.3126 15.7232 10.7874 15.4303 11.0803L12.9303 13.5803C12.6579 13.8528 12.2989 13.95 12 13.95C11.7011 13.95 11.3422 13.8528 11.0697 13.5803L8.56968 11.0803C8.27678 10.7874 8.27678 10.3126 8.56968 10.0197Z" fill="black"/>
<path fill-rule="evenodd" clip-rule="evenodd" d="M6.53811 9.16944C6.47229 9.22586 6.43715 9.29379 6.42763 9.3319L6.42531 9.34116L3.61762 19.4689L3.61153 19.4872C3.60127 19.5179 3.59854 19.5897 3.66252 19.675C3.72327 19.756 3.80986 19.8 3.90002 19.8H20.1C20.2315 19.8 20.3103 19.7466 20.3489 19.6978C20.3832 19.6543 20.4143 19.58 20.3789 19.456L20.3773 19.4504L17.57 9.32396L17.5646 9.29709C17.5479 9.2135 17.5142 9.17387 17.4867 9.15224C17.4564 9.12848 17.3988 9.1 17.3 9.1H16.1C15.6858 9.1 15.35 8.76421 15.35 8.35C15.35 7.93578 15.6858 7.6 16.1 7.6H17.3C18.1208 7.6 18.8434 8.11437 19.0292 8.97286L21.8212 19.044C21.8214 19.0449 21.8217 19.0459 21.822 19.0469C22.1665 20.2597 21.2605 21.3 20.1 21.3H3.90002C2.72816 21.3 1.82776 20.1437 2.18167 19.0338L4.97515 8.95732C5.14841 8.28478 5.80437 7.6 6.70002 7.6H7.90002C8.31423 7.6 8.65002 7.93578 8.65002 8.35C8.65002 8.76421 8.31423 9.1 7.90002 9.1H6.70002C6.65599 9.1 6.59913 9.11714 6.53811 9.16944Z" fill="black"/>
</svg>
