<svg width="60" height="60" fill="none" xmlns="http://www.w3.org/2000/svg"><path d="M8.67498 55.55c-.41035-.0021-.81389-.1051-1.175-.3-.39454-.2159-.72353-.5342-.95233-.9214-.22879-.3872-.3489-.8289-.34767-1.2786V16.175c-.00201-.416.09983-.8259.29627-1.1926.19645-.3667.4813-.6786.82873-.9074L21.525 4.84997c.3777-.24878.8159-.39042 1.2679-.40981.4519-.01938.9006.0842 1.2983.29972.3977.21553.7294.53491.9599.92411.2305.38921.3511.83366.3489 1.28598V43.825c-.0007.4183-.1064.8297-.3073 1.1966-.2009.3669-.4907.6775-.8427.9034L9.99998 55.15c-.39522.2553-.85449.394-1.325.4zM11.175 17.5v30.95L20.4 42.5V11.55l-9.225 5.95zM37.1 55.5496c-.4104-.002-.8139-.105-1.175-.3-.3992-.2125-.7333-.5294-.9666-.9168-.2333-.3874-.3572-.8309-.3584-1.2832v-36.875c.0007-.4183.1063-.8297.3072-1.1966.2009-.3669.4907-.6775.8428-.9034L50 4.84964c.3774-.24215.813-.37833 1.2611-.39426.4482-.01594.8923.08895 1.286.30368.3937.21472.7223.53138.9516.91679.2292.3854.3505.82537.3513 1.27379V43.8246c.002.416-.0998.826-.2963 1.1927-.1964.3667-.4813.6785-.8287.9073L38.5 55.1496c-.4167.2693-.904.4086-1.4.4zm2.5-38.05v30.95l9.225-5.95v-30.95l-9.225 5.95z" fill="#000"/><path d="M37.1 55.5499c-.479-.0012-.9476-.1401-1.35-.4l-14.225-9.225c-.5001-.3835-.8369-.9417-.943-1.5629-.1061-.6213.0263-1.2597.3707-1.7874.3445-.5278.8756-.906 1.487-1.0589.6114-.1529 1.258-.0692 1.8103.2342l10.35 6.7v-30.95L21.525 9.02491c-.5001-.3835-.8369-.94173-.943-1.56295-.1061-.62123.0263-1.25962.3707-1.78737.3445-.52776.8756-.90595 1.487-1.05886.6114-.15292 1.258-.06928 1.8103.23418l14.225 9.24999c.3475.2288.6323.5407.8288.9074.1964.3667.2982.7766.2962 1.1926v36.85c.0012.4497-.1189.8915-.3477 1.2787-.2287.3871-.5577.7054-.9523.9213-.3685.1989-.7812.3021-1.2.3z" fill="#000"/></svg>