<svg width="24" height="24" viewBox="0 0 24 24" fill="none" xmlns="http://www.w3.org/2000/svg">
<path fill-rule="evenodd" clip-rule="evenodd" d="M3.25 11.2313C3.25 6.41705 7.18579 2.48126 12 2.48126C16.8142 2.48126 20.75 6.41705 20.75 11.2313C20.75 16.0455 16.8142 19.9813 12 19.9813C11.1417 19.9813 10.2711 19.8744 9.49397 19.6524C9.0957 19.5386 8.86508 19.1235 8.97887 18.7252C9.09266 18.3269 9.50778 18.0963 9.90605 18.2101C10.5289 18.3881 11.2583 18.4813 12 18.4813C15.9858 18.4813 19.25 15.217 19.25 11.2313C19.25 7.24548 15.9858 3.98126 12 3.98126C8.01421 3.98126 4.75 7.24548 4.75 11.2313C4.75 13.1457 5.48019 14.9508 6.73034 16.2009C7.02324 16.4938 7.02324 16.9687 6.73034 17.2616C6.43745 17.5545 5.96258 17.5545 5.66968 17.2616C4.11984 15.7117 3.25 13.5168 3.25 11.2313Z" fill="black"/>
<path fill-rule="evenodd" clip-rule="evenodd" d="M6.10004 15.9813C6.51425 15.9813 6.85004 16.317 6.85004 16.7313V19.7188L9.32341 18.2827C9.68161 18.0747 10.1406 18.1964 10.3486 18.5547C10.5566 18.9129 10.4348 19.3719 10.0766 19.5798L6.95639 21.3916L6.93545 21.4021C6.6243 21.5577 6.25077 21.5577 5.93962 21.4021C5.59084 21.2277 5.35004 20.8712 5.35004 20.4313V16.7313C5.35004 16.317 5.68582 15.9813 6.10004 15.9813Z" fill="black"/>
<path fill-rule="evenodd" clip-rule="evenodd" d="M8.25 10.8C8.25 10.3858 8.58579 10.05 9 10.05H15C15.4142 10.05 15.75 10.3858 15.75 10.8C15.75 11.2143 15.4142 11.55 15 11.55H9C8.58579 11.55 8.25 11.2143 8.25 10.8Z" fill="black"/>
<path fill-rule="evenodd" clip-rule="evenodd" d="M12 7.05005C12.4142 7.05005 12.75 7.38584 12.75 7.80005V13.8C12.75 14.2143 12.4142 14.55 12 14.55C11.5858 14.55 11.25 14.2143 11.25 13.8V7.80005C11.25 7.38584 11.5858 7.05005 12 7.05005Z" fill="black"/>
</svg>
