<svg width="24" height="24" viewBox="0 0 24 24" fill="none" xmlns="http://www.w3.org/2000/svg">
<path fill-rule="evenodd" clip-rule="evenodd" d="M3.75 12C3.75 9.71491 4.65963 7.69715 6.13833 6.12234C7.59711 4.66789 9.70272 3.75 12 3.75C14.2851 3.75 16.3029 4.65962 17.8777 6.13833C19.3321 7.5971 20.25 9.70272 20.25 12C20.25 14.2851 19.3404 16.3029 17.8617 17.8777C16.4029 19.3321 14.2973 20.25 12 20.25H4C3.87044 20.25 3.82075 20.2101 3.80533 20.1947C3.78991 20.1793 3.75 20.1296 3.75 20V12ZM2.25 12C2.25 9.28911 3.33717 6.90994 5.05386 5.08597L5.06164 5.07769L5.06968 5.06966C6.8106 3.32873 9.30148 2.25 12 2.25C14.7109 2.25 17.0901 3.33716 18.914 5.05384L18.9223 5.06163L18.9304 5.06966C20.6713 6.81059 21.75 9.30148 21.75 12C21.75 14.7109 20.6629 17.09 18.9462 18.914L18.9384 18.9223L18.9304 18.9303C17.1894 20.6713 14.6985 21.75 12 21.75H4C3.52956 21.75 3.07925 21.5899 2.74467 21.2553C2.41009 20.9207 2.25 20.4704 2.25 20V12Z" fill="black"/>
</svg>
