<svg xmlns="http://www.w3.org/2000/svg" viewBox="0 0 24 24" fill="currentColor">
  <path d="M6.13832 6.12235C7.59709 4.6679 9.70272 3.75 12 3.75c.4142 0 .75-.33579.75-.75s-.3358-.75-.75-.75c-2.69852 0-5.18941 1.07875-6.93034 2.81967l-.00803.00804-.00779.00827C3.33716 6.90996 2.25 9.28912 2.25 12v8c0 .4704.16009.9207.49467 1.2553.33458.3346.78489.4947 1.25533.4947h8c2.6985 0 5.1894-1.0787 6.9303-2.8197l.0081-.008.0077-.0083C20.6628 17.0901 21.75 14.7109 21.75 12c0-.4142-.3358-.75-.75-.75s-.75.3358-.75.75c0 2.2851-.9096 4.3028-2.3883 5.8777C16.4029 19.3321 14.2973 20.25 12 20.25H4c-.12956 0-.17925-.0399-.19467-.0553C3.78991 20.1793 3.75 20.1296 3.75 20v-8c0-2.28509.90962-4.30284 2.38832-5.87765Zm11.49188.14737c.2929.29289.2929.76776 0 1.06066l-1.6196 1.61967 1.6196 1.61965c.2929.2929.2929.7678 0 1.0607-.2929.2929-.7677.2929-1.0606 0l-1.6197-1.6197-1.6196 1.6197c-.2929.2929-.7678.2929-1.0607 0-.2929-.2929-.2929-.7678 0-1.0607l1.6197-1.61965-1.6197-1.61967c-.2929-.2929-.2929-.76777 0-1.06066s.7678-.29289 1.0607 0l1.6196 1.61967 1.6197-1.61967c.2929-.29289.7677-.29289 1.0606 0Z"/>
</svg>
