<svg xmlns="http://www.w3.org/2000/svg" viewBox="0 0 24 24" fill="currentColor">
  <path d="M12 2.4812c-4.81421 0-8.75 3.93579-8.75 8.75 0 2.1233.75075 4.1685 2.10004 5.6908v3.5092c0 .44.2408.7964.58958.9708.31115.1556.68468.1556.99583 0l.02094-.0104 2.85295-1.6566c.69356.1659 1.44666.2462 2.19066.2462 4.8142 0 8.75-3.9358 8.75-8.75 0-4.81421-3.9358-8.75-8.75-8.75ZM9.32266 18.283l-2.47262 1.4358v-2.6131c.16544-.2868.12555-.6596-.1197-.9048C5.48019 14.9507 4.75 13.1457 4.75 11.2312c0-3.98579 3.26421-7.25 7.25-7.25 3.9858 0 7.25 3.26421 7.25 7.25 0 3.9858-3.2642 7.25-7.25 7.25-.7417 0-1.4711-.0932-2.09395-.2711-.00239-.0007-.00479-.0014-.00718-.0021.18293.0503.34693.1696.44973.3466m-1.02519-.272c.0008-.0005.00161-.0009.00241-.0014Z"/>
</svg>
