<svg width="24" height="24" viewBox="0 0 24 24" fill="none" xmlns="http://www.w3.org/2000/svg">
<path fill-rule="evenodd" clip-rule="evenodd" d="M3.75 12C3.75 7.41421 7.41421 3.75 12 3.75C16.5858 3.75 20.25 7.41421 20.25 12C20.25 16.4858 16.4858 20.25 12 20.25C7.41421 20.25 3.75 16.5858 3.75 12ZM2.25 12C2.25 6.58579 6.58579 2.25 12 2.25C17.4142 2.25 21.75 6.58579 21.75 12C21.75 17.3142 17.3142 21.75 12 21.75H4C3.52956 21.75 3.07925 21.5899 2.74467 21.2553C2.41009 20.9207 2.25 20.4704 2.25 20V12ZM6.77704 20.25H4C3.87044 20.25 3.82075 20.2101 3.80533 20.1947C3.78991 20.1793 3.75 20.1296 3.75 20V17.223C4.52086 18.4441 5.55591 19.4791 6.77704 20.25Z" fill="black"/>
</svg>
