<svg xmlns="http://www.w3.org/2000/svg" viewBox="0 0 24 24" fill="currentColor">
  <path d="M7 2.4054c-2.61421 0-4.75 2.13578-4.75 4.75v7c0 2.6142 2.13579 4.75 4.75 4.75h2.15051l1.85429 2.2075c.2784.3838.6986.5073 1.0575.4774.3383-.0282.651-.1876.868-.4046l.0526-.0525 1.4852-2.2278H17c2.6142 0 4.75-2.1358 4.75-4.75v-7c0-2.61422-2.1358-4.75-4.75-4.75H7Zm6.2649 15.6007c.0692-.3427.372-.6007.7351-.6007h3c1.7858 0 3.25-1.4642 3.25-3.25v-7c0-1.78579-1.4642-3.25-3.25-3.25H7c-1.78579 0-3.25 1.46421-3.25 3.25v7c0 1.7858 1.46421 3.25 3.25 3.25h2.5c.11567 0 .22522.0262.32305.0729.08764.0418.16844.1013.23675.178.0061.0068.012.0137.0178.0207l1.8993 2.261 1.288-1.9319Z"/>
</svg>
