<svg xmlns="http://www.w3.org/2000/svg" fill="none" viewBox="0 0 24 24">
  <path fill="#000" fill-rule="evenodd" d="M2.25 7.155A4.762 4.762 0 0 1 7 2.405h5a.75.75 0 0 1 0 1.5H7a3.262 3.262 0 0 0-3.25 3.25v7A3.262 3.262 0 0 0 7 17.405h2.501a.748.748 0 0 1 .577.272l1.899 2.261 1.288-1.932a.75.75 0 0 1 .735-.6h3a3.262 3.262 0 0 0 3.25-3.25v-4a.75.75 0 0 1 1.5 0v4a4.762 4.762 0 0 1-4.75 4.75h-2.532l-1.485 2.227-.053.053c-.217.217-.53.376-.868.404a1.165 1.165 0 0 1-1.057-.477L9.15 18.905H7a4.762 4.762 0 0 1-4.75-4.75v-7ZM16 3.405a.75.75 0 0 1 .75.75v2.25H19a.75.75 0 0 1 0 1.5h-2.25v2.25a.75.75 0 0 1-1.5 0v-2.25H13a.75.75 0 0 1 0-1.5h2.25v-2.25a.75.75 0 0 1 .75-.75Z" clip-rule="evenodd"/>
</svg>
