<svg width="24" height="24" viewBox="0 0 24 24" fill="none" xmlns="http://www.w3.org/2000/svg">
<path d="M9.7 18.9313C10.4 19.1313 11.2 19.2313 12 19.2313C16.4 19.2313 20 15.6313 20 11.2313C20 6.83126 16.4 3.23126 12 3.23126C7.6 3.23126 4 6.83126 4 11.2313C4 13.3313 4.8 15.3313 6.2 16.7313" fill="black"/>
<path fill-rule="evenodd" clip-rule="evenodd" d="M3.25 11.2313C3.25 6.41705 7.18579 2.48126 12 2.48126C16.8142 2.48126 20.75 6.41705 20.75 11.2313C20.75 16.0455 16.8142 19.9813 12 19.9813C11.1417 19.9813 10.2711 19.8744 9.49396 19.6524C9.09568 19.5386 8.86506 19.1235 8.97885 18.7252C9.09265 18.3269 9.50776 18.0963 9.90604 18.2101C10.5289 18.3881 11.2583 18.4813 12 18.4813C15.9858 18.4813 19.25 15.217 19.25 11.2313C19.25 7.24548 15.9858 3.98126 12 3.98126C8.01421 3.98126 4.75 7.24548 4.75 11.2313C4.75 13.1457 5.48017 14.9508 6.73033 16.2009C7.02322 16.4938 7.02322 16.9687 6.73033 17.2616C6.43743 17.5545 5.96256 17.5545 5.66967 17.2616C4.11982 15.7117 3.25 13.5168 3.25 11.2313Z" fill="black"/>
<path d="M9.70001 18.9313L6.60001 20.7313C6.40001 20.8313 6.20001 20.7313 6.20001 20.4313V16.7313" fill="black"/>
<path fill-rule="evenodd" clip-rule="evenodd" d="M6.20001 15.9813C6.61423 15.9813 6.95001 16.317 6.95001 16.7313V19.6608L9.32341 18.2827C9.68162 18.0747 10.1406 18.1965 10.3486 18.5547C10.5566 18.9129 10.4348 19.3719 10.0766 19.5799L6.95637 21.3916L6.93542 21.4021C6.6624 21.5386 6.2645 21.5923 5.90899 21.3553C5.55637 21.1202 5.45001 20.7359 5.45001 20.4313V16.7313C5.45001 16.317 5.7858 15.9813 6.20001 15.9813Z" fill="black"/>
<path fill-rule="evenodd" clip-rule="evenodd" d="M9.26966 8.30103C9.56255 8.00814 10.0374 8.00814 10.3303 8.30103L14.6303 12.601C14.9232 12.8939 14.9232 13.3688 14.6303 13.6617C14.3374 13.9546 13.8626 13.9546 13.5697 13.6617L9.26966 9.36169C8.97676 9.0688 8.97676 8.59392 9.26966 8.30103Z" fill="white"/>
<path fill-rule="evenodd" clip-rule="evenodd" d="M14.6303 8.30103C14.9232 8.59392 14.9232 9.0688 14.6303 9.36169L10.3303 13.6617C10.0374 13.9546 9.56255 13.9546 9.26966 13.6617C8.97676 13.3688 8.97676 12.8939 9.26966 12.601L13.5697 8.30103C13.8626 8.00814 14.3374 8.00814 14.6303 8.30103Z" fill="white"/>
</svg>
