<svg xmlns="http://www.w3.org/2000/svg" viewBox="0 0 24 24" fill="currentColor">
  <path d="M2.25 7.1554c0-2.61422 2.13579-4.75 4.75-4.75h5c.4142 0 .75.33578.75.75 0 .41421-.3358.75-.75.75H7c-1.78579 0-3.25 1.46421-3.25 3.25v7c0 1.7858 1.46421 3.25 3.25 3.25h2.50104c.11528.0002.22447.0263.32201.0729.08764.0418.16844.1013.23675.178.0061.0068.012.0137.0178.0207l1.8993 2.261 1.288-1.9319c.0692-.3427.372-.6007.7351-.6007h3c1.7858 0 3.25-1.4642 3.25-3.25v-4c0-.41422.3358-.75.75-.75s.75.33578.75.75v4c0 2.6142-2.1358 4.75-4.75 4.75h-2.5319l-1.4852 2.2278-.0526.0525c-.217.217-.5297.3764-.868.4046-.3589.0299-.7791-.0936-1.0575-.4774l-1.85429-2.2075H7c-2.61421 0-4.75-2.1358-4.75-4.75v-7Zm16.3802-2.73053c.2929.29289.2929.76777 0 1.06066l-1.6196 1.61966 1.6196 1.61967c.2929.29289.2929.76776 0 1.06066-.2928.29288-.7677.29288-1.0606 0l-1.6197-1.61967-1.6196 1.61967c-.2929.29288-.7678.29288-1.0607 0-.2929-.2929-.2929-.76777 0-1.06066l1.6197-1.61967-1.6197-1.61966c-.2929-.29289-.2929-.76777 0-1.06066s.7678-.29289 1.0607 0l1.6196 1.61966 1.6197-1.61966c.2929-.29289.7678-.29289 1.0606 0Z"/>
</svg>
