<svg xmlns="http://www.w3.org/2000/svg" viewBox="0 0 24 24" fill="currentColor">
  <path d="M2.25 7.1554c0-2.61422 2.13579-4.75 4.75-4.75h5c.4142 0 .75.33578.75.75 0 .41421-.3358.75-.75.75H7c-1.78579 0-3.25 1.46421-3.25 3.25v7c0 1.7858 1.46421 3.25 3.25 3.25h2.50104c.11528.0002.22447.0263.32201.0729.08764.0418.16844.1013.23675.178.0061.0068.012.0137.0178.0207l1.8993 2.261 1.288-1.9319c.0692-.3427.372-.6007.7351-.6007h3c1.7858 0 3.25-1.4642 3.25-3.25v-4c0-.41422.3358-.75.75-.75s.75.33578.75.75v4c0 2.6142-2.1358 4.75-4.75 4.75h-2.5319l-1.4852 2.2278-.0526.0525c-.217.217-.5297.3764-.868.4046-.3589.0299-.7791-.0936-1.0575-.4774l-1.85429-2.2075H7c-2.61421 0-4.75-2.1358-4.75-4.75v-7Zm10.95-.3501c-1.6844 0-3.05 1.36552-3.05 3.04999 0 1.68451 1.3656 3.05001 3.05 3.05001 1.6845 0 3.05-1.3655 3.05-3.05001 0-1.68447-1.3655-3.04999-3.05-3.04999ZM8.65002 9.85529c0-2.5129 2.03708-4.54999 4.54998-4.54999 2.5129 0 4.55 2.03709 4.55 4.54999 0 2.51291-2.0371 4.55001-4.55 4.55001-.9789 0-1.8857-.3092-2.6279-.8352L9.5483 14.667c-.28263.3028-.75722.3192-1.06003.0366-.30282-.2827-.31918-.7572-.03656-1.0601l1.05495-1.1303c-.53905-.7477-.85664-1.6657-.85664-2.65791Z"/>
</svg>
