<svg xmlns="http://www.w3.org/2000/svg" fill="none" viewBox="0 0 24 24">
  <path fill="#000" fill-rule="evenodd" d="M3.75 12A8.213 8.213 0 0 1 12 3.75 8.213 8.213 0 0 1 20.25 12c0 4.486-3.764 8.25-8.25 8.25A8.213 8.213 0 0 1 3.75 12Zm-1.5 0A9.713 9.713 0 0 1 12 2.25 9.713 9.713 0 0 1 21.75 12c0 5.314-4.436 9.75-9.75 9.75H4c-.47 0-.92-.16-1.255-.495-.335-.334-.495-.785-.495-1.255v-8Zm4.527 8.25H4c-.13 0-.18-.04-.195-.055-.015-.016-.055-.065-.055-.195v-2.777a9.713 9.713 0 0 0 3.027 3.027Z" clip-rule="evenodd"/>
</svg>
