<svg xmlns="http://www.w3.org/2000/svg" viewBox="0 0 24 24" fill="currentColor">
  <path d="M2.25 7.1554c0-2.61422 2.13579-4.75 4.75-4.75h5c.4142 0 .75.33578.75.75 0 .41421-.3358.75-.75.75H7c-1.78579 0-3.25 1.46421-3.25 3.25v7c0 1.7858 1.46421 3.25 3.25 3.25h2.50104c.11528.0002.22447.0263.32201.0729.08764.0418.16844.1013.23675.178.0061.0067.012.0136.0178.0206l1.8993 2.2611 1.288-1.9319c.0692-.3427.372-.6007.7351-.6007h3c1.7858 0 3.25-1.4642 3.25-3.25v-4c0-.41422.3358-.75.75-.75s.75.33578.75.75v4c0 2.6142-2.1358 4.75-4.75 4.75h-2.5319l-1.4852 2.2278-.0526.0525c-.217.217-.5297.3764-.868.4046-.3589.0299-.7791-.0936-1.0575-.4774l-1.85429-2.2075H7c-2.61421 0-4.75-2.1358-4.75-4.75v-7ZM16 3.4054c.4142 0 .75.33578.75.75v2.25H19c.4142 0 .75.33578.75.75 0 .41421-.3358.75-.75.75h-2.25v2.25c0 .4142-.3358.75-.75.75s-.75-.3358-.75-.75v-2.25H13c-.4142 0-.75-.33579-.75-.75 0-.41422.3358-.75.75-.75h2.25v-2.25c0-.41422.3358-.75.75-.75Z"/>
</svg>
