<svg xmlns="http://www.w3.org/2000/svg" viewBox="0 0 24 24" fill="currentColor">
  <path d="M3.25 11.2312c0-4.81421 3.93579-8.75 8.75-8.75 4.8142 0 8.75 3.93579 8.75 8.75 0 4.8142-3.9358 8.75-8.75 8.75-.8583 0-1.7289-.1068-2.50603-.3289-.39827-.1138-.62889-.5289-.5151-.9271.11379-.3983.52891-.6289.92718-.5151.62285.1779 1.35225.2711 2.09395.2711 3.9858 0 7.25-3.2642 7.25-7.25 0-3.98579-3.2642-7.25-7.25-7.25-3.98579 0-7.25 3.26421-7.25 7.25 0 1.9145.73019 3.7195 1.98034 4.9697.2929.2929.2929.7677 0 1.0606-.29289.2929-.76776.2929-1.06066 0C4.11984 15.7117 3.25 13.5167 3.25 11.2312Z"/>
  <path d="M6.10004 15.9812c.41421 0 .75.3358.75.75v2.9876l2.47337-1.4362c.3582-.208.81719-.0862 1.02519.272.208.3582.0862.8172-.272 1.0252l-3.12021 1.8117-.02094.0105c-.31115.1556-.68468.1556-.99583 0-.34878-.1744-.58958-.5308-.58958-.9708v-3.7c0-.4142.33578-.75.75-.75Z"/>
  <path d="M8.25 10.8c0-.4142.33579-.75.75-.75h6c.4142 0 .75.3358.75.75 0 .4143-.3358.75-.75.75H9c-.41421 0-.75-.3357-.75-.75Z"/>
  <path d="M12 7.05005c.4142 0 .75.33579.75.75V13.8c0 .4143-.3358.75-.75.75s-.75-.3357-.75-.75V7.80005c0-.41421.3358-.75.75-.75Z"/>
</svg>
