<svg xmlns="http://www.w3.org/2000/svg" viewBox="0 0 24 24" fill="currentColor">
  <path d="M6.13832 6.12235C7.5971 4.6679 9.70272 3.75 12 3.75c.4142 0 .75-.33579.75-.75s-.3358-.75-.75-.75c-2.69852 0-5.1894 1.07875-6.93033 2.81967l-.00803.00804-.00779.00827C3.33717 6.90995 2.25 9.28911 2.25 12v8c0 .4704.16009.9207.49467 1.2553.33458.3346.78489.4947 1.25533.4947h8c2.6985 0 5.1894-1.0787 6.9303-2.8197l.0081-.008.0077-.0083C20.6628 17.0901 21.75 14.7109 21.75 12c0-.4142-.3358-.75-.75-.75s-.75.3358-.75.75c0 2.2851-.9096 4.3028-2.3883 5.8777C16.4029 19.3321 14.2973 20.25 12 20.25H4c-.12956 0-.17925-.0399-.19467-.0553C3.78991 20.1793 3.75 20.1296 3.75 20v-8c0-2.28509.90962-4.30284 2.38832-5.87765ZM15 5.25c.4142 0 .75.33579.75.75v2.25H18c.4142 0 .75.33579.75.75s-.3358.75-.75.75h-2.25V12c0 .4142-.3358.75-.75.75s-.75-.3358-.75-.75V9.75H12c-.4142 0-.75-.33579-.75-.75s.3358-.75.75-.75h2.25V6c0-.41421.3358-.75.75-.75Z"/>
</svg>
