<svg xmlns="http://www.w3.org/2000/svg" fill="none" viewBox="0 0 24 24">
  <path fill="#000" fill-rule="evenodd" d="M3.25 11.231c0-4.814 3.936-8.75 8.75-8.75s8.75 3.936 8.75 8.75c0 4.815-3.936 8.75-8.75 8.75a9.273 9.273 0 0 1-2.506-.329.75.75 0 0 1 .412-1.442 7.776 7.776 0 0 0 2.094.271c3.986 0 7.25-3.264 7.25-7.25s-3.264-7.25-7.25-7.25-7.25 3.264-7.25 7.25c0 1.915.73 3.72 1.98 4.97a.75.75 0 0 1-1.06 1.06c-1.55-1.55-2.42-3.744-2.42-6.03Z" clip-rule="evenodd"/>
  <path fill="#000" fill-rule="evenodd" d="M6.1 15.981a.75.75 0 0 1 .75.75v2.988l2.473-1.436a.75.75 0 1 1 .754 1.297l-3.12 1.812-.022.01a1.12 1.12 0 0 1-.995 0 1.067 1.067 0 0 1-.59-.97v-3.7a.75.75 0 0 1 .75-.75ZM8.25 10.8a.75.75 0 0 1 .75-.75h6a.75.75 0 0 1 0 1.5H9a.75.75 0 0 1-.75-.75Z" clip-rule="evenodd"/>
  <path fill="#000" fill-rule="evenodd" d="M12 7.05a.75.75 0 0 1 .75.75v6a.75.75 0 1 1-1.5 0v-6a.75.75 0 0 1 .75-.75Z" clip-rule="evenodd"/>
</svg>
