<svg xmlns="http://www.w3.org/2000/svg" viewBox="0 0 24 24" fill="currentColor">
  <path d="M3.75 12c0-2.28509.90963-4.30285 2.38833-5.87766C7.59711 4.66789 9.70272 3.75 12 3.75c2.2851 0 4.3029.90962 5.8777 2.38833C19.3321 7.5971 20.25 9.70272 20.25 12c0 2.2851-.9096 4.3029-2.3883 5.8777C16.4029 19.3321 14.2973 20.25 12 20.25H4c-.12956 0-.17925-.0399-.19467-.0553C3.78991 20.1793 3.75 20.1296 3.75 20v-8Zm-1.5 0c0-2.71089 1.08717-5.09006 2.80386-6.91403l.00778-.00828.00804-.00803C6.8106 3.32873 9.30148 2.25 12 2.25c2.7109 0 5.0901 1.08716 6.914 2.80384l.0083.00779.0081.00803C20.6713 6.81059 21.75 9.30148 21.75 12c0 2.7109-1.0871 5.09-2.8038 6.914l-.0078.0083-.008.008C17.1894 20.6713 14.6985 21.75 12 21.75H4c-.47044 0-.92075-.1601-1.25533-.4947C2.41009 20.9207 2.25 20.4704 2.25 20v-8Z"/>
</svg>
