<svg xmlns="http://www.w3.org/2000/svg" viewBox="0 0 24 24" fill="currentColor">
  <path d="M3.75 12c0-4.58579 3.66421-8.25 8.25-8.25 4.5858 0 8.25 3.66421 8.25 8.25 0 4.4858-3.7642 8.25-8.25 8.25-4.58579 0-8.25-3.6642-8.25-8.25Zm-1.5 0c0-5.41421 4.33579-9.75 9.75-9.75 5.4142 0 9.75 4.33579 9.75 9.75 0 5.3142-4.4358 9.75-9.75 9.75H4c-.47044 0-.92075-.1601-1.25533-.4947C2.41009 20.9207 2.25 20.4704 2.25 20v-8Zm4.52704 8.25H4c-.12956 0-.17925-.0399-.19467-.0553C3.78991 20.1793 3.75 20.1296 3.75 20v-2.777c.77086 1.2211 1.80591 2.2561 3.02704 3.027Z"/>
</svg>
