<svg width="24" height="24" viewBox="0 0 24 24" fill="none" xmlns="http://www.w3.org/2000/svg">
<path fill-rule="evenodd" clip-rule="evenodd" d="M6.13833 6.12235C4.65962 7.69716 3.75 9.71491 3.75 12C3.75 16.5858 7.41421 20.25 12 20.25C14.2973 20.25 16.4029 19.3321 17.8617 17.8777C19.3404 16.3029 20.25 14.2851 20.25 12C20.25 9.72589 19.2496 7.61093 17.8688 6.13006C16.2953 4.65623 14.2808 3.75 12 3.75C9.70272 3.75 7.5971 4.6679 6.13833 6.12235ZM5.06967 5.06967C6.8106 3.32874 9.30148 2.25 12 2.25C14.7109 2.25 17.09 3.33717 18.914 5.05385L18.9311 5.06993L18.9472 5.08704C20.5581 6.80537 21.75 9.28288 21.75 12C21.75 14.7109 20.6628 17.09 18.9462 18.914L18.9384 18.9223L18.9303 18.9303C17.1894 20.6713 14.6985 21.75 12 21.75C6.58579 21.75 2.25 17.4142 2.25 12C2.25 9.28911 3.33717 6.90995 5.05385 5.08598L5.06164 5.0777L5.06967 5.06967Z" fill="black"/>
<path d="M12 21H4C3.5 21 3 20.5 3 20V12C3 16.9 7 21 12 21Z" fill="black"/>
<path fill-rule="evenodd" clip-rule="evenodd" d="M3.75 17.1784V20C3.75 20.0061 3.76059 20.0749 3.84283 20.1572C3.92507 20.2394 3.99392 20.25 4 20.25H6.8152C5.57719 19.4668 4.52872 18.4134 3.75 17.1784ZM2.25 12V20C2.25 20.4939 2.48941 20.9251 2.78217 21.2178C3.07493 21.5106 3.50608 21.75 4 21.75H12V20.25C7.41962 20.25 3.75 16.4912 3.75 12H2.25Z" fill="black"/>
</svg>
