<svg xmlns="http://www.w3.org/2000/svg" viewBox="0 0 24 24" fill="currentColor">
  <path d="M2.25 7.15527c0-2.61421 2.13579-4.75 4.75-4.75h5c.4142 0 .75.33579.75.75 0 .41422-.3358.75-.75.75H7c-1.78579 0-3.25 1.46422-3.25 3.25v7.00003c0 1.7858 1.46421 3.25 3.25 3.25h2.50104c.11528.0001.22447.0263.32201.0729.08764.0418.16844.1012.23675.178.0061.0067.012.0136.0178.0206l1.8993 2.2611 1.288-1.932c.0692-.3426.372-.6006.7351-.6006h3c1.7858 0 3.25-1.4642 3.25-3.25v-4c0-.41424.3358-.75003.75-.75003s.75.33579.75.75003v4c0 2.6142-2.1358 4.75-4.75 4.75h-2.5319l-1.4852 2.2278-.0526.0525c-.217.217-.5297.3764-.868.4046-.3589.0299-.7791-.0936-1.0575-.4774l-1.85429-2.2075H7c-2.61421 0-4.75-2.1358-4.75-4.75V7.15527Zm13.1196-1.43023c.2929-.29289.7677-.29289 1.0606 0l1.4 1.4c.2705.27052.4447.62964.4447 1.03033s-.1742.75981-.4447 1.03033l-1.4 1.4c-.2929.2929-.7677.2929-1.0606 0-.2929-.2929-.2929-.76777 0-1.06066l1.3696-1.36967-1.3696-1.36967c-.2929-.29289-.2929-.76776 0-1.06066Zm-2.6393 1.16064c.2929-.2929.2929-.76777 0-1.06066-.2929-.2929-.7678-.2929-1.0607 0l-1.4 1.4c-.2705.27051-.44465.62964-.44465 1.03033 0 .40068.17415.75981.44465 1.03033l1.4 1.40002c.2929.2929.7678.2929 1.0607 0 .2929-.2929.2929-.76779 0-1.06068l-1.3697-1.36967 1.3697-1.36967Z"/>
</svg>
