<svg xmlns="http://www.w3.org/2000/svg" viewBox="0 0 24 24" fill="currentColor">
  <path d="M7 2.4054c-2.61421 0-4.75 2.13578-4.75 4.75v7c0 2.6142 2.13579 4.75 4.75 4.75h2.15051l1.85429 2.2075c.2784.3838.6986.5073 1.0575.4774.3383-.0282.651-.1876.868-.4046l.0526-.0525 1.4852-2.2278H17c2.6142 0 4.75-2.1358 4.75-4.75v-7c0-2.61422-2.1358-4.75-4.75-4.75H7Zm6.2649 15.6007c.0692-.3427.372-.6007.7351-.6007h2.8901c-.6127-1.8716-2.2835-3.2749-4.2728-3.5506-.2008.0333-.407.0506-.6173.0506-.2395 0-.4738-.0225-.7008-.0654-2.03991.236-3.76389 1.6567-4.38882 3.5642.02978.0008.05966.0012.08962.0012h2.50104c.11528.0002.22447.0263.32201.0729.08764.0418.16844.1013.23675.178.0061.0067.012.0136.0178.0206l1.8993 2.2611 1.288-1.9319Zm-7.8048-.992C4.44444 16.4625 3.75 15.3852 3.75 14.1554v-7c0-1.78579 1.46421-3.25 3.25-3.25h10c1.7858 0 3.25 1.46421 3.25 3.25v7c0 1.2985-.7742 2.427-1.8833 2.9462-.5699-1.9097-1.9797-3.4514-3.7763-4.2347.7145-.6828 1.1596-1.6452 1.1596-2.7115 0-2.07107-1.6789-3.75-3.75-3.75-2.07107 0-3.75 1.67893-3.75 3.75 0 1.036.42009 1.9738 1.09921 2.6525-1.83521.7517-3.28731 2.2881-3.88911 4.2062Zm5.9384-4.69c-.9506-.2631-1.6485-1.1344-1.6485-2.1687 0-1.24264 1.0074-2.25 2.25-2.25s2.25 1.00736 2.25 2.25c0 1.052-.722 1.9354-1.6975 2.1817-.2151-.021-.4328-.0317-.6525-.0317-.1684 0-.3357.0063-.5015.0187Z"/>
</svg>
