<svg xmlns="http://www.w3.org/2000/svg" viewBox="0 0 24 24" fill="currentColor">
  <path d="M12 3.75c-2.29728 0-4.40291.9179-5.86168 2.37235C4.65962 7.69716 3.75 9.71491 3.75 12v8c0 .1296.03991.1793.05533.1947.01542.0154.06511.0553.19467.0553h8c2.2973 0 4.4029-.9179 5.8617-2.3723C19.3404 16.3028 20.25 14.2851 20.25 12c0-.4142.3358-.75.75-.75s.75.3358.75.75c0 2.7109-1.0872 5.0901-2.8039 6.914l-.0077.0083-.0081.008C17.1894 20.6713 14.6985 21.75 12 21.75H4c-.47044 0-.92075-.1601-1.25533-.4947C2.41009 20.9207 2.25 20.4704 2.25 20v-8c0-2.71088 1.08716-5.09004 2.80384-6.91402l.00779-.00827.00803-.00804C6.81059 3.32875 9.30148 2.25 12 2.25c.4142 0 .75.33579.75.75s-.3358.75-.75.75Zm5.5238 4.78684c.2965-.28926.3023-.7641.0131-1.06058-.2893-.29649-.7641-.30235-1.0606-.0131l-3.7197 3.62894L11.6 9.55c-.2485-.33137-.7186-.39853-1.05-.15-.3313.24853-.3985.7186-.15 1.05l1.532 2.0426.0377.0377c.2225.2225.5065.2947.7303.2947.2224 0 .5042-.0713.726-.2903l4.0978-3.99786Z"/>
</svg>
