<svg width="24" height="24" viewBox="0 0 24 24" fill="none" xmlns="http://www.w3.org/2000/svg">
<path fill-rule="evenodd" clip-rule="evenodd" d="M21.75 2.25H2.25V21.75H21.75V2.25ZM3.75 20.25V3.75H20.25V20.25H3.75ZM10.8501 9.40002C10.8501 8.73968 11.3884 8.25 12.0001 8.25C12.6604 8.25 13.1501 8.7883 13.1501 9.40002V12C13.1501 12.5858 12.5858 13.15 12.0001 13.15C11.3398 13.15 10.8501 12.6118 10.8501 12V9.40002ZM12.0001 6.75C10.6118 6.75 9.3501 7.86037 9.3501 9.40002V12C9.3501 13.1504 10.1125 14.214 11.25 14.5446V15.75H10C9.58579 15.75 9.25 16.0858 9.25 16.5C9.25 16.9142 9.58579 17.25 10 17.25H12H13.9C14.3142 17.25 14.65 16.9142 14.65 16.5C14.65 16.0858 14.3142 15.75 13.9 15.75H12.75V14.533C13.8241 14.1931 14.6501 13.1562 14.6501 12V9.40002C14.6501 8.01175 13.5397 6.75 12.0001 6.75Z" fill="black"/>
</svg>
