<svg xmlns="http://www.w3.org/2000/svg" viewBox="0 0 24 24" fill="currentColor">
  <path d="M12 5.75c-1.2858 0-2.25.96421-2.25 2.25v4c0 1.2858.9642 2.25 2.25 2.25.9267 0 1.7792-.65 2.1074-1.5H12c-.4142 0-.75-.3358-.75-.75s.3358-.75.75-.75h2.25v-1.5H12c-.4142 0-.75-.33579-.75-.75s.3358-.75.75-.75h2.25V8c0-1.28579-.9642-2.25-2.25-2.25ZM15.75 12V8c0-2.11421-1.6358-3.75-3.75-3.75-2.11421 0-3.75 1.63579-3.75 3.75v4c0 1.8564 1.26117 3.3439 3 3.6791V18.25H9c-.41421 0-.75.3358-.75.75s.33579.75.75.75h6c.4142 0 .75-.3358.75-.75s-.3358-.75-.75-.75h-2.25v-2.5808c1.6766-.364 3-1.9105 3-3.6692Z"/>
</svg>
