<svg xmlns="http://www.w3.org/2000/svg" viewBox="0 0 24 24" fill="currentColor">
  <path d="M12 2.25c-.6502 0-1.2862.06375-1.902.18557-.40635.08038-.67059.47495-.5902.88129.08039.40634.47495.67057.8813.59019C10.9095 3.8041 11.4481 3.75 12 3.75c.5519 0 1.0905.0541 1.6109.15705.4063.08038.8009-.18385.8813-.59019.0804-.40634-.1839-.80091-.5902-.88129C13.2862 2.31375 12.6502 2.25 12 2.25Zm5.4178 1.64268c-.3442-.23043-.8101-.13821-1.0405.20599-.2304.3442-.1382.81003.206 1.04047.9.60253 1.675 1.37756 2.2776 2.27756.2304.3442.6962.43642 1.0404.20598.3442-.23043.4364-.69626.206-1.04046-.7116-1.06293-1.6266-1.97792-2.6895-2.68954ZM7.4167 5.13914c.3442-.23044.43642-.69627.20598-1.04047-.23043-.3442-.69626-.43642-1.04046-.20598-1.06293.71161-1.97792 1.6266-2.68954 2.68953-.23043.3442-.13821.81003.20599 1.04047.3442.23043.81003.13821 1.04047-.20599.60253-.9 1.37756-1.67503 2.27756-2.27756ZM3.90705 10.3891c.08038-.40635-.18385-.80091-.59019-.8813-.40634-.08039-.80091.18385-.88129.5902C2.31375 10.7138 2.25 11.3498 2.25 12c0 .6502.06375 1.2862.18557 1.902.08038.4063.47495.6706.88129.5902.40634-.0804.67057-.475.59019-.8813C3.8041 13.0905 3.75 12.5519 3.75 12c0-.5519.0541-1.0905.15705-1.6109Zm17.65735-.2911c-.0804-.40635-.4749-.67059-.8813-.5902-.4063.08039-.6705.47495-.5901.8813.1029.5204.157 1.059.157 1.6109 0 .5519-.0541 1.0905-.157 1.6109-.0804.4063.1838.8009.5901.8813.4064.0804.8009-.1839.8813-.5902.1219-.6158.1856-1.2518.1856-1.902 0-.6502-.0637-1.2862-.1856-1.902Zm-1.4571 7.3198c.2305-.3442.1382-.8101-.206-1.0405-.3442-.2304-.81-.1382-1.0404.206-.6026.9-1.3776 1.675-2.2776 2.2776-.3442.2304-.4364.6962-.206 1.0404.2304.3442.6963.4364 1.0405.206 1.0629-.7116 1.9779-1.6266 2.6895-2.6895Zm-14.96816-.8345c-.23044-.3442-.69627-.4364-1.04047-.206-.3442.2304-.43642.6963-.20598 1.0405.71161 1.0629 1.6266 1.9779 2.68953 2.6895.3442.2305.81003.1382 1.04047-.206.23043-.3442.13821-.81-.20599-1.0404-.9-.6026-1.67503-1.3776-2.27756-2.2776Zm5.24996 3.5097c-.40635-.0804-.80091.1838-.8813.5901-.08039.4064.18385.8009.5902.8813.6158.1219 1.2518.1856 1.902.1856.6502 0 1.2862-.0637 1.902-.1856.4063-.0804.6706-.4749.5902-.8813-.0804-.4063-.475-.6705-.8813-.5901-.5204.1029-1.059.157-1.6109.157-.5519 0-1.0905-.0541-1.6109-.157Zm.461-10.69298c0-.66034.5383-1.15002 1.15-1.15002.6603 0 1.15.5383 1.15 1.15002V12c0 .5858-.5643 1.15-1.15 1.15-.6603 0-1.15-.5382-1.15-1.15V9.40002Zm1.15-2.65002c-1.3883 0-2.65 1.11037-2.65 2.65002V12c0 1.1504.7624 2.214 1.8999 2.5446V15.75H10c-.41421 0-.75.3358-.75.75s.33579.75.75.75h3.9c.4142 0 .75-.3358.75-.75s-.3358-.75-.75-.75h-1.15v-1.217c1.0741-.3399 1.9001-1.3768 1.9001-2.533V9.40002c0-1.38827-1.1104-2.65002-2.65-2.65002Z"/>
</svg>
