<svg xmlns="http://www.w3.org/2000/svg" fill="none" viewBox="0 0 24 24">
  <path fill="#000" fill-rule="evenodd" d="M21.75 2.25H2.25v19.5h19.5V2.25Zm-18 18V3.75h16.5v16.5H3.75Zm7.1-10.85c0-.66.538-1.15 1.15-1.15.66 0 1.15.538 1.15 1.15V12c0 .586-.564 1.15-1.15 1.15-.66 0-1.15-.538-1.15-1.15V9.4ZM12 6.75c-1.388 0-2.65 1.11-2.65 2.65V12a2.66 2.66 0 0 0 1.9 2.545v1.205H10a.75.75 0 0 0 0 1.5h3.9a.75.75 0 0 0 0-1.5h-1.15v-1.217c1.074-.34 1.9-1.377 1.9-2.533V9.4c0-1.388-1.11-2.65-2.65-2.65Z" clip-rule="evenodd"/>
</svg>
