<svg xmlns="http://www.w3.org/2000/svg" fill="none" viewBox="0 0 24 24">
  <path fill="#000" fill-rule="evenodd" d="M9 3.75C6.114 3.75 3.75 6.114 3.75 9v6c0 2.886 2.364 5.25 5.25 5.25h6c2.886 0 5.25-2.364 5.25-5.25V9c0-2.886-2.364-5.25-5.25-5.25H9ZM2.25 9c0-3.714 3.036-6.75 6.75-6.75h6c3.714 0 6.75 3.036 6.75 6.75v6c0 3.714-3.036 6.75-6.75 6.75H9c-3.714 0-6.75-3.036-6.75-6.75V9Z" clip-rule="evenodd"/>
  <path fill="#000" d="M12 13.9c-1.1 0-1.9-.9-1.9-1.9V9.4c0-1.1.9-1.9 1.9-1.9 1.1 0 1.9.9 1.9 1.9V12c0 1-.9 1.9-1.9 1.9Z"/>
  <path fill="#000" fill-rule="evenodd" d="M12 8.25c-.612 0-1.15.49-1.15 1.15V12c0 .612.49 1.15 1.15 1.15.586 0 1.15-.564 1.15-1.15V9.4c0-.612-.49-1.15-1.15-1.15ZM9.35 9.4c0-1.54 1.262-2.65 2.65-2.65 1.54 0 2.65 1.262 2.65 2.65V12c0 1.414-1.236 2.65-2.65 2.65-1.54 0-2.65-1.262-2.65-2.65V9.4Z" clip-rule="evenodd"/>
  <path fill="#000" fill-rule="evenodd" d="M11.9 13.15a.75.75 0 0 1 .75.75v2.6a.75.75 0 0 1-1.5 0v-2.6a.75.75 0 0 1 .75-.75Z" clip-rule="evenodd"/>
  <path fill="#000" fill-rule="evenodd" d="M9.25 16.5a.75.75 0 0 1 .75-.75h3.9a.75.75 0 0 1 0 1.5H10a.75.75 0 0 1-.75-.75Z" clip-rule="evenodd"/>
</svg>
