<svg xmlns="http://www.w3.org/2000/svg" fill="none" viewBox="0 0 24 24">
  <path fill="#000" d="M12 15c-1.7 0-3-1.3-3-3V8c0-1.7 1.3-3 3-3s3 1.3 3 3v4c0 1.6-1.4 3-3 3Z"/>
  <path fill="#000" fill-rule="evenodd" d="M12 5.75c-1.286 0-2.25.964-2.25 2.25v4c0 1.286.964 2.25 2.25 2.25 1.186 0 2.25-1.064 2.25-2.25V8c0-1.286-.964-2.25-2.25-2.25ZM8.25 8c0-2.114 1.636-3.75 3.75-3.75S15.75 5.886 15.75 8v4c0 2.014-1.736 3.75-3.75 3.75-2.114 0-3.75-1.636-3.75-3.75V8Z" clip-rule="evenodd"/>
  <path fill="#000" fill-rule="evenodd" d="M12 14.25a.75.75 0 0 1 .75.75v4a.75.75 0 0 1-1.5 0v-4a.75.75 0 0 1 .75-.75Z" clip-rule="evenodd"/>
  <path fill="#000" fill-rule="evenodd" d="M8.25 19a.75.75 0 0 1 .75-.75h6a.75.75 0 0 1 0 1.5H9a.75.75 0 0 1-.75-.75Z" clip-rule="evenodd"/>
</svg>
