<svg xmlns="http://www.w3.org/2000/svg" viewBox="0 0 24 24" fill="currentColor">
  <path d="M3.75 9c0-2.88579 2.36421-5.25 5.25-5.25h6c2.8858 0 5.25 2.36421 5.25 5.25v6c0 2.8858-2.3642 5.25-5.25 5.25H9c-2.88579 0-5.25-2.3642-5.25-5.25V9ZM9 2.25C5.28579 2.25 2.25 5.28579 2.25 9v6c0 3.7142 3.03579 6.75 6.75 6.75h6c3.7142 0 6.75-3.0358 6.75-6.75V9c0-3.71421-3.0358-6.75-6.75-6.75H9Zm1.8501 7.15002c0-.66034.5383-1.15002 1.15-1.15002.6603 0 1.15.5383 1.15 1.15002V12c0 .5858-.5643 1.15-1.15 1.15-.6603 0-1.15-.5382-1.15-1.15V9.40002Zm1.15-2.65002c-1.3883 0-2.65 1.11037-2.65 2.65002V12c0 1.1504.7624 2.214 1.8999 2.5446V15.75H10c-.41421 0-.75.3358-.75.75s.33579.75.75.75h3.9c.4142 0 .75-.3358.75-.75s-.3358-.75-.75-.75h-1.15v-1.217c1.0741-.3399 1.9001-1.3768 1.9001-2.533V9.40002c0-1.38827-1.1104-2.65002-2.65-2.65002Z"/>
</svg>
