<svg xmlns="http://www.w3.org/2000/svg" viewBox="0 0 24 24" fill="currentColor">
  <path d="M3.75 12c0-4.58579 3.66421-8.25 8.25-8.25 4.5858 0 8.25 3.66421 8.25 8.25 0 4.5858-3.6642 8.25-8.25 8.25-4.58038 0-8.25-3.7588-8.25-8.25ZM12 2.25c-5.41421 0-9.75 4.33579-9.75 9.75 0 5.3088 4.33038 9.75 9.75 9.75 5.4142 0 9.75-4.3358 9.75-9.75 0-5.41421-4.3358-9.75-9.75-9.75Zm-1.1499 7.15002c0-.66034.5383-1.15002 1.15-1.15002.6603 0 1.15.5383 1.15 1.15002V12c0 .5858-.5643 1.15-1.15 1.15-.6603 0-1.15-.5382-1.15-1.15V9.40002Zm1.15-2.65002c-1.3883 0-2.65 1.11037-2.65 2.65002V12c0 1.1504.7624 2.214 1.8999 2.5446V15.75H10c-.41421 0-.75.3358-.75.75s.33579.75.75.75h3.9c.4142 0 .75-.3358.75-.75s-.3358-.75-.75-.75h-1.15v-1.217c1.0741-.3399 1.9001-1.3768 1.9001-2.533V9.40002c0-1.38827-1.1104-2.65002-2.65-2.65002Z"/>
</svg>
