<svg xmlns="http://www.w3.org/2000/svg" fill="none" viewBox="0 0 24 24">
  <path fill="#000" fill-rule="evenodd" d="M12 3.75A8.213 8.213 0 0 0 3.75 12c0 4.491 3.67 8.25 8.25 8.25A8.213 8.213 0 0 0 20.25 12 8.213 8.213 0 0 0 12 3.75ZM2.25 12A9.713 9.713 0 0 1 12 2.25 9.713 9.713 0 0 1 21.75 12 9.713 9.713 0 0 1 12 21.75c-5.42 0-9.75-4.441-9.75-9.75Z" clip-rule="evenodd"/>
  <path fill="#000" d="M12 13.9c-1.1 0-1.9-.9-1.9-1.9V9.4c0-1.1.9-1.9 1.9-1.9 1.1 0 1.9.9 1.9 1.9V12c0 1-.9 1.9-1.9 1.9Z"/>
  <path fill="#000" fill-rule="evenodd" d="M12 8.25c-.612 0-1.15.49-1.15 1.15V12c0 .612.49 1.15 1.15 1.15.586 0 1.15-.564 1.15-1.15V9.4c0-.612-.49-1.15-1.15-1.15ZM9.35 9.4c0-1.54 1.262-2.65 2.65-2.65 1.54 0 2.65 1.262 2.65 2.65V12c0 1.414-1.236 2.65-2.65 2.65-1.54 0-2.65-1.262-2.65-2.65V9.4Z" clip-rule="evenodd"/>
  <path fill="#000" fill-rule="evenodd" d="M11.9 13.15a.75.75 0 0 1 .75.75v2.6a.75.75 0 0 1-1.5 0v-2.6a.75.75 0 0 1 .75-.75Z" clip-rule="evenodd"/>
  <path fill="#000" fill-rule="evenodd" d="M9.25 16.5a.75.75 0 0 1 .75-.75h3.9a.75.75 0 0 1 0 1.5H10a.75.75 0 0 1-.75-.75Z" clip-rule="evenodd"/>
</svg>
