<svg width="24" height="24" viewBox="0 0 24 24" fill="none" xmlns="http://www.w3.org/2000/svg">
<path fill-rule="evenodd" clip-rule="evenodd" d="M12 2.25C11.3498 2.25 10.7138 2.31375 10.098 2.43557C9.69165 2.51595 9.42741 2.91052 9.5078 3.31686C9.58819 3.7232 9.98275 3.98743 10.3891 3.90705C10.9095 3.8041 11.4481 3.75 12 3.75C12.5519 3.75 13.0905 3.8041 13.6109 3.90705C14.0172 3.98743 14.4118 3.7232 14.4922 3.31686C14.5726 2.91052 14.3083 2.51595 13.902 2.43557C13.2862 2.31375 12.6502 2.25 12 2.25ZM17.4178 3.89268C17.0736 3.66225 16.6077 3.75447 16.3773 4.09867C16.1469 4.44287 16.2391 4.9087 16.5833 5.13914C17.4833 5.74167 18.2583 6.5167 18.8609 7.4167C19.0913 7.7609 19.5571 7.85312 19.9013 7.62268C20.2455 7.39225 20.3377 6.92642 20.1073 6.58222C19.3957 5.51929 18.4807 4.6043 17.4178 3.89268ZM7.4167 5.13914C7.7609 4.9087 7.85312 4.44287 7.62268 4.09867C7.39225 3.75447 6.92642 3.66225 6.58222 3.89269C5.51929 4.6043 4.6043 5.51929 3.89268 6.58222C3.66225 6.92642 3.75447 7.39225 4.09867 7.62269C4.44287 7.85312 4.9087 7.7609 5.13914 7.4167C5.74167 6.5167 6.5167 5.74167 7.4167 5.13914ZM3.90705 10.3891C3.98743 9.98275 3.7232 9.58819 3.31686 9.5078C2.91052 9.42741 2.51595 9.69165 2.43557 10.098C2.31375 10.7138 2.25 11.3498 2.25 12C2.25 12.6502 2.31375 13.2862 2.43557 13.902C2.51595 14.3083 2.91052 14.5726 3.31686 14.4922C3.7232 14.4118 3.98743 14.0172 3.90705 13.6109C3.8041 13.0905 3.75 12.5519 3.75 12C3.75 11.4481 3.8041 10.9095 3.90705 10.3891ZM21.5644 10.098C21.484 9.69165 21.0895 9.42741 20.6831 9.5078C20.2768 9.58819 20.0126 9.98275 20.093 10.3891C20.1959 10.9095 20.25 11.4481 20.25 12C20.25 12.5519 20.1959 13.0905 20.093 13.6109C20.0126 14.0172 20.2768 14.4118 20.6831 14.4922C21.0895 14.5726 21.484 14.3083 21.5644 13.902C21.6863 13.2862 21.75 12.6502 21.75 12C21.75 11.3498 21.6863 10.7138 21.5644 10.098ZM20.1073 17.4178C20.3378 17.0736 20.2455 16.6077 19.9013 16.3773C19.5571 16.1469 19.0913 16.2391 18.8609 16.5833C18.2583 17.4833 17.4833 18.2583 16.5833 18.8609C16.2391 19.0913 16.1469 19.5571 16.3773 19.9013C16.6077 20.2455 17.0736 20.3377 17.4178 20.1073C18.4807 19.3957 19.3957 18.4807 20.1073 17.4178ZM5.13914 16.5833C4.9087 16.2391 4.44287 16.1469 4.09867 16.3773C3.75447 16.6077 3.66225 17.0736 3.89269 17.4178C4.6043 18.4807 5.51929 19.3957 6.58222 20.1073C6.92642 20.3378 7.39225 20.2455 7.62269 19.9013C7.85312 19.5571 7.7609 19.0913 7.4167 18.8609C6.5167 18.2583 5.74167 17.4833 5.13914 16.5833ZM10.3891 20.093C9.98275 20.0126 9.58819 20.2768 9.5078 20.6831C9.42741 21.0895 9.69165 21.484 10.098 21.5644C10.7138 21.6863 11.3498 21.75 12 21.75C12.6502 21.75 13.2862 21.6863 13.902 21.5644C14.3083 21.484 14.5726 21.0895 14.4922 20.6831C14.4118 20.2768 14.0172 20.0126 13.6109 20.093C13.0905 20.1959 12.5519 20.25 12 20.25C11.4481 20.25 10.9095 20.1959 10.3891 20.093ZM10.8501 9.40002C10.8501 8.73968 11.3884 8.25 12.0001 8.25C12.6604 8.25 13.1501 8.7883 13.1501 9.40002V12C13.1501 12.5858 12.5858 13.15 12.0001 13.15C11.3398 13.15 10.8501 12.6118 10.8501 12V9.40002ZM12.0001 6.75C10.6118 6.75 9.3501 7.86037 9.3501 9.40002V12C9.3501 13.1504 10.1125 14.214 11.25 14.5446V15.75H10C9.58579 15.75 9.25 16.0858 9.25 16.5C9.25 16.9142 9.58579 17.25 10 17.25H12H13.9C14.3142 17.25 14.65 16.9142 14.65 16.5C14.65 16.0858 14.3142 15.75 13.9 15.75H12.75V14.533C13.8241 14.1931 14.6501 13.1562 14.6501 12V9.40002C14.6501 8.01175 13.5397 6.75 12.0001 6.75Z" fill="black"/>
</svg>
