<svg xmlns="http://www.w3.org/2000/svg" fill="none" viewBox="0 0 24 24">
  <path fill="#000" fill-rule="evenodd" d="M9.75 6.5c0-1.286.964-2.25 2.25-2.25s2.25.964 2.25 2.25v4c0 1.186-1.064 2.25-2.25 2.25-1.286 0-2.25-.964-2.25-2.25v-4ZM12 2.75c-2.114 0-3.75 1.636-3.75 3.75v4c0 2.114 1.636 3.75 3.75 3.75 2.014 0 3.75-1.736 3.75-3.75v-4c0-2.114-1.636-3.75-3.75-3.75Zm6.626 8.938a.75.75 0 1 0-1.452-.376c-.623 2.402-2.649 4.138-5.174 4.138a5.265 5.265 0 0 1-5.168-4.113.75.75 0 1 0-1.464.326 6.758 6.758 0 0 0 5.882 5.247v2.84H9a.75.75 0 0 0 0 1.5h6a.75.75 0 0 0 0-1.5h-2.25v-2.84c2.914-.316 5.16-2.457 5.876-5.222Z" clip-rule="evenodd"/>
</svg>
