<svg xmlns="http://www.w3.org/2000/svg" viewBox="0 0 24 24" fill="currentColor">
  <path d="M9.75 6.5c0-1.28579.9642-2.25 2.25-2.25s2.25.96421 2.25 2.25v4c0 1.1858-1.0642 2.25-2.25 2.25-1.2858 0-2.25-.9642-2.25-2.25v-4ZM12 2.75c-2.11421 0-3.75 1.63579-3.75 3.75v4c0 2.1142 1.63579 3.75 3.75 3.75 2.0142 0 3.75-1.7358 3.75-3.75v-4c0-2.11421-1.6358-3.75-3.75-3.75Zm6.626 8.9383c.104-.401-.1368-.8103-.5377-.9142-.401-.104-.8103.1368-.9143.5377-.6228 2.4022-2.6486 4.1383-5.174 4.1383-2.54454 0-4.64325-1.752-5.16785-4.1127-.08985-.4044-.49048-.6593-.89483-.5695-.40435.0899-.6593.4905-.56945.8949.62279 2.8025 2.96812 4.9322 5.88213 5.247V19.75H9c-.41421 0-.75.3358-.75.75s.33579.75.75.75h6c.4142 0 .75-.3358.75-.75s-.3358-.75-.75-.75h-2.25v-2.8402c2.9138-.3159 5.1592-2.4566 5.876-5.2215Z"/>
</svg>
