<svg width="24" height="24" viewBox="0 0 24 24" fill="none" xmlns="http://www.w3.org/2000/svg">
<path d="M2.79999 13.4V9.99995C2.79999 9.29995 3.39999 8.69995 4.09999 8.69995H19.5C20.2 8.69995 20.8 9.29995 20.8 9.99995V13.4C20.8 14.1 20.2 14.7 19.5 14.7H3.99999C3.29999 14.7 2.79999 14.1 2.79999 13.4Z" fill="black"/>
<path fill-rule="evenodd" clip-rule="evenodd" d="M4.09999 9.44995C3.8142 9.44995 3.54999 9.71416 3.54999 9.99995V13.4C3.54999 13.7664 3.79047 13.95 3.99999 13.95H19.5C19.7858 13.95 20.05 13.6857 20.05 13.4V9.99995C20.05 9.71416 19.7858 9.44995 19.5 9.44995H4.09999ZM2.04999 9.99995C2.04999 8.88574 2.98577 7.94995 4.09999 7.94995H19.5C20.6142 7.94995 21.55 8.88574 21.55 9.99995V13.4C21.55 14.5142 20.6142 15.45 19.5 15.45H3.99999C2.80951 15.45 2.04999 14.4335 2.04999 13.4V9.99995Z" fill="black"/>
</svg>
