<svg xmlns="http://www.w3.org/2000/svg" fill="none" viewBox="0 0 24 24">
  <path fill="#000" d="M2.8 13.4V10c0-.7.6-1.3 1.3-1.3h15.4c.7 0 1.3.6 1.3 1.3v3.4c0 .7-.6 1.3-1.3 1.3H4c-.7 0-1.2-.6-1.2-1.3Z"/>
  <path fill="#000" fill-rule="evenodd" d="M4.1 9.45a.575.575 0 0 0-.55.55v3.4c0 .366.24.55.45.55h15.5c.286 0 .55-.264.55-.55V10a.575.575 0 0 0-.55-.55H4.1ZM2.05 10c0-1.114.936-2.05 2.05-2.05h15.4c1.114 0 2.05.936 2.05 2.05v3.4c0 1.114-.936 2.05-2.05 2.05H4c-1.19 0-1.95-1.016-1.95-2.05V10Z" clip-rule="evenodd"/>
</svg>
