<svg width="24" height="24" viewBox="0 0 24 24" fill="none" xmlns="http://www.w3.org/2000/svg">
<path fill-rule="evenodd" clip-rule="evenodd" d="M4.1 9.44995C3.81422 9.44995 3.55 9.71416 3.55 9.99995V13.4C3.55 13.7664 3.79049 13.95 4 13.95H19.5C19.7858 13.95 20.05 13.6857 20.05 13.4V9.99995C20.05 9.71416 19.7858 9.44995 19.5 9.44995H4.1ZM2.05 9.99995C2.05 8.88574 2.98579 7.94995 4.1 7.94995H19.5C20.6142 7.94995 21.55 8.88574 21.55 9.99995V13.4C21.55 14.5142 20.6142 15.45 19.5 15.45H4C2.80952 15.45 2.05 14.4335 2.05 13.4V9.99995Z" fill="black"/>
</svg>
