<svg xmlns="http://www.w3.org/2000/svg" fill="none" viewBox="0 0 24 24">
  <path fill="#000" fill-rule="evenodd" d="M6.85 5.763c-1.698 0-3.15 1.376-3.15 3.15v5.5c0 1.698 1.377 3.15 3.15 3.15a.75.75 0 0 1 0 1.5c-2.627 0-4.65-2.149-4.65-4.65v-5.5c0-2.627 2.148-4.65 4.65-4.65h10.3c2.627 0 4.65 2.148 4.65 4.65v2.5a.75.75 0 0 1-1.5 0v-2.5a3.155 3.155 0 0 0-3.15-3.15H6.85Z" clip-rule="evenodd"/>
  <path fill="#000" d="M11.95 14.012a2.4 2.4 0 1 0 0-4.8 2.4 2.4 0 0 0 0 4.8Z"/>
  <path fill="#000" fill-rule="evenodd" d="M11.95 9.963a1.65 1.65 0 1 0 0 3.3 1.65 1.65 0 0 0 0-3.3Zm-3.15 1.65a3.15 3.15 0 1 1 6.3 0 3.15 3.15 0 0 1-6.3 0Zm10.188 3.577a.75.75 0 0 1-.016 1.061l-3.206 3.108a.832.832 0 0 1-.256.248.901.901 0 0 1-.473.13 1.02 1.02 0 0 1-.717-.294l-.038-.038-1.232-1.643a.75.75 0 0 1 1.2-.9l.816 1.088 2.862-2.776a.75.75 0 0 1 1.06.016Z" clip-rule="evenodd"/>
</svg>
