<svg xmlns="http://www.w3.org/2000/svg" fill="none" viewBox="0 0 24 24">
  <path fill="#000" fill-rule="evenodd" d="M1.9 8.35c0-2.502 2.023-4.65 4.65-4.65h7.8c2.495 0 4.53 1.91 4.65 4.414v.036h-.75.75v.025a.838.838 0 0 1-.01.098 1.014 1.014 0 0 1-.09.298v3.379c0 2.502-2.023 4.65-4.65 4.65h-7.7c-2.502 0-4.65-2.023-4.65-4.65v-3.6Zm15.582-.393C17.295 6.377 15.977 5.2 14.35 5.2h-7.8C4.777 5.2 3.4 6.652 3.4 8.35v3.6c0 1.773 1.452 3.15 3.15 3.15h7.7c1.773 0 3.15-1.452 3.15-3.15V8.04l.082-.083ZM10.45 8.8c-.786 0-1.35.564-1.35 1.35 0 .71.587 1.35 1.35 1.35.71 0 1.35-.587 1.35-1.35 0-.786-.564-1.35-1.35-1.35ZM7.6 10.15c0-1.614 1.236-2.85 2.85-2.85s2.85 1.236 2.85 2.85c0 1.637-1.36 2.85-2.85 2.85-1.637 0-2.85-1.36-2.85-2.85Z" clip-rule="evenodd"/>
  <path fill="#000" fill-rule="evenodd" d="M18.373 7.41c2.163.36 3.727 2.174 3.727 4.44v3.9a4.548 4.548 0 0 1-4.55 4.55h-8C7.062 20.3 5 18.39 5 15.85h1.5c0 1.66 1.338 2.95 3.05 2.95h8a3.048 3.048 0 0 0 3.05-3.05v-3.9c0-1.534-1.036-2.72-2.473-2.96l.246-1.48Z" clip-rule="evenodd"/>
  <path fill="#000" d="M12.55 10.15c0 1.2-.9 2.1-2.1 2.1-1.2 0-2.1-1-2.1-2.1 0-1.2.9-2.1 2.1-2.1 1.1 0 2.1.9 2.1 2.1Z"/>
  <path fill="#000" fill-rule="evenodd" d="M10.45 8.8c-.786 0-1.35.564-1.35 1.35 0 .71.587 1.35 1.35 1.35.786 0 1.35-.564 1.35-1.35 0-.763-.64-1.35-1.35-1.35ZM7.6 10.15c0-1.614 1.236-2.85 2.85-2.85 1.49 0 2.85 1.213 2.85 2.85 0 1.614-1.236 2.85-2.85 2.85-1.637 0-2.85-1.36-2.85-2.85Z" clip-rule="evenodd"/>
</svg>
