<svg xmlns="http://www.w3.org/2000/svg" fill="none" viewBox="0 0 24 24">
  <path fill="#000" fill-rule="evenodd" d="M6.85 4.862c-1.698 0-3.15 1.377-3.15 3.15v5.5a3.155 3.155 0 0 0 3.15 3.15.75.75 0 0 1 0 1.5c-2.627 0-4.65-2.148-4.65-4.65v-5.5c0-2.626 2.148-4.65 4.65-4.65h10.3c2.627 0 4.65 2.149 4.65 4.65v2.5a.75.75 0 0 1-1.5 0v-2.5c0-1.698-1.377-3.15-3.15-3.15H6.85Z" clip-rule="evenodd"/>
  <path fill="#000" d="M11.95 13.113a2.4 2.4 0 1 0 0-4.8 2.4 2.4 0 0 0 0 4.8Z"/>
  <path fill="#000" fill-rule="evenodd" d="M11.95 9.063a1.65 1.65 0 1 0 0 3.3 1.65 1.65 0 0 0 0-3.3Zm-3.15 1.65a3.15 3.15 0 1 1 6.3 0 3.15 3.15 0 0 1-6.3 0Zm9.22 5.53c-.707-.707-1.732-.707-2.44 0-.702.702-.707 1.719-.014 2.425.71.626 1.758.626 2.468 0 .693-.706.688-1.723-.014-2.425Zm-3.5-1.06c1.293-1.294 3.268-1.294 4.56 0 1.293 1.292 1.293 3.267 0 4.56l-.014.014-.014.013a3.356 3.356 0 0 1-4.504 0l-.014-.013-.014-.014c-1.293-1.293-1.293-3.268 0-4.56Z" clip-rule="evenodd"/>
  <path fill="#000" fill-rule="evenodd" d="m14.52 18.682 3.5-3.5 1.06 1.06-3.5 3.5-1.06-1.06Z" clip-rule="evenodd"/>
</svg>
