<svg xmlns="http://www.w3.org/2000/svg" viewBox="0 0 24 24" fill="currentColor">
  <path d="M4.70001 2.75C3.3858 2.75 2.25 3.8858 2.25 5.20001V14.8c0 1.4428 1.16495 2.45 2.45001 2.45h3.36695l-.3062 2.3183c-.10118.4845.09677.9136.34877 1.1885.2577.2811.64983.4932 1.09036.4932h5.40001c.9743 0 1.55-.7985 1.55-1.55v-.0493l-.3171-2.4007H19.3c1.3142 0 2.45-1.1358 2.45-2.45V5.20001C21.75 3.75725 20.5851 2.75 19.3 2.75H4.70001Zm10.93469 13H19.3c.4858 0 .95-.4642.95-.95V5.20001c0-.55724-.4351-.95001-.95-.95001H4.70001c-.48578 0-.95001.46423-.95001.95001V14.8c0 .5572.43508.95.95001.95h3.56506l.18943-1.4342c.14804-1.5291 1.51681-2.5658 2.9454-2.5658h1.1c1.4895 0 2.678 1.0866 2.9379 2.5159l.0032.0179.1937 1.4662Zm-5.68789-1.2821c.06019-.6619.68679-1.2179 1.45309-1.2179h1.1c.7054 0 1.3133.5062 1.459 1.2678l.6873 5.2038-.0013.0037c-.0035.0092-.0078.0151-.0104.0179-.0019.0021-.0028.0025-.0033.0027-.0002.0001-.0007.0003-.0015.0006-.0011.0004-.0029.0009-.0054.0014-.0042.0009-.0121.0021-.0244.0021H9.24979l.69564-5.2669.00138-.0152Z"/>
</svg>
