<svg xmlns="http://www.w3.org/2000/svg" viewBox="0 0 24 24" fill="currentColor">
  <path d="M3.75 7c0-1.78579 1.46421-3.25 3.25-3.25h10c1.7858 0 3.25 1.46421 3.25 3.25v5.25H3.75V7Zm-1.5 6V7c0-2.61421 2.13579-4.75 4.75-4.75h10c2.6142 0 4.75 2.13579 4.75 4.75v6c0 2.6142-2.1358 4.75-4.75 4.75h-4.25v2.5h3.75c.4142 0 .75.3358.75.75s-.3358.75-.75.75h-9c-.41421 0-.75-.3358-.75-.75s.33579-.75.75-.75h3.75v-2.5H7c-2.61421 0-4.75-2.1358-4.75-4.75Zm17.9119.75c-.3414 1.4281-1.634 2.5-3.1619 2.5H7c-1.52794 0-2.82046-1.0719-3.16186-2.5H20.1619Z"/>
</svg>
