<svg xmlns="http://www.w3.org/2000/svg" viewBox="0 0 24 24" fill="currentColor">
  <path d="M4.70001 2.75C3.3858 2.75 2.25 3.8858 2.25 5.20001V14.8c0 1.4428 1.16495 2.45 2.45001 2.45h3.45038l-.29017 2.3214c-.0997.4832.09795.9111.34941 1.1854.2577.2811.64983.4932 1.09036.4932H14.7c.4405 0 .8326-.2121 1.0903-.4932.2515-.2743.4491-.7022.3494-1.1854l-.2901-2.3214H19.3c1.3142 0 2.45-1.1358 2.45-2.45V5.20001C21.75 3.75725 20.5851 2.75 19.3 2.75H4.70001Zm9.63789 14.5H9.66206l-.3125 2.5h5.30084l-.3125-2.5ZM3.75 5.20001c0-.48578.46423-.95001.95001-.95001H19.3c.5149 0 .95.39277.95.95001V14.8c0 .4858-.4642.95-.95.95H4.70001c-.51493 0-.95001-.3928-.95001-.95V5.20001Z"/>
</svg>
