<svg xmlns="http://www.w3.org/2000/svg" viewBox="0 0 24 24" fill="currentColor">
  <path d="M11.25 21v-4h1.5v4h-1.5Z"/>
  <path d="M7 3.75C5.21421 3.75 3.75 5.21421 3.75 7v6c0 1.7858 1.46421 3.25 3.25 3.25h10c1.7858 0 3.25-1.4642 3.25-3.25V7c0-.41421.3358-.75.75-.75s.75.33579.75.75v6c0 2.6142-2.1358 4.75-4.75 4.75H7c-2.61421 0-4.75-2.1358-4.75-4.75V7c0-2.61421 2.13579-4.75 4.75-4.75.41421 0 .75.33579.75.75s-.33579.75-.75.75Zm6-1.5c.4142 0 .75.33579.75.75v4.98932l1.5196-1.51965c.2929-.29289.7678-.29289 1.0607 0 .2929.29289.2929.76777 0 1.06066l-2.5 2.49997c-.0895.0895-.1882.1627-.2929.2197H17c.4142 0 .75.3358.75.75s-.3358.75-.75.75H9c-.41421 0-.75-.3358-.75-.75s.33579-.75.75-.75h3.3625c-.1046-.057-.2034-.1302-.2929-.2197L9.56965 7.53033c-.2929-.29289-.2929-.76777 0-1.06066.29289-.29289.76775-.29289 1.06065 0L12.25 8.08936V3c0-.41421.3358-.75.75-.75Zm-5.5 18c-.41421 0-.75.3358-.75.75s.33579.75.75.75h9c.4142 0 .75-.3358.75-.75s-.3358-.75-.75-.75h-9Z"/>
</svg>
