<svg xmlns="http://www.w3.org/2000/svg" viewBox="0 0 24 24" fill="currentColor">
  <path d="M7 3.75C5.21421 3.75 3.75 5.21421 3.75 7v6c0 1.7858 1.46421 3.25 3.25 3.25h10c1.7858 0 3.25-1.4642 3.25-3.25V7c0-1.78579-1.4642-3.25-3.25-3.25H7ZM2.25 7c0-2.61421 2.13579-4.75 4.75-4.75h10c2.6142 0 4.75 2.13579 4.75 4.75v6c0 2.6142-2.1358 4.75-4.75 4.75h-4.25v2.5h3.75c.4142 0 .75.3358.75.75s-.3358.75-.75.75h-9c-.41421 0-.75-.3358-.75-.75s.33579-.75.75-.75h3.75v-2.5H7c-2.61421 0-4.75-2.1358-4.75-4.75V7Z"/>
</svg>
