<svg xmlns="http://www.w3.org/2000/svg" viewBox="0 0 24 24" fill="currentColor">
  <path d="M3.75 7c0-1.78579 1.46421-3.25 3.25-3.25.41421 0 .75-.33579.75-.75s-.33579-.75-.75-.75C4.38579 2.25 2.25 4.38579 2.25 7v6c0 2.6142 2.13579 4.75 4.75 4.75h4.25v2.5H7.5c-.41421 0-.75.3358-.75.75s.33579.75.75.75h9c.4142 0 .75-.3358.75-.75s-.3358-.75-.75-.75h-3.75v-2.5H17c2.6142 0 4.75-2.1358 4.75-4.75V7c0-.41421-.3358-.75-.75-.75s-.75.33579-.75.75v6c0 1.7858-1.4642 3.25-3.25 3.25H7c-1.78579 0-3.25-1.4642-3.25-3.25V7Zm6.5-4c0-.41421.3358-.75.75-.75h8c.4142 0 .75.33579.75.75s-.3358.75-.75.75h-3.4625c.1046.05698.2034.1302.2928.21965l2.5 2.5c.2929.29289.2929.76776 0 1.06066-.2929.29289-.7678.29289-1.0607 0L15.75 6.01066V11c0 .4142-.3358.75-.75.75s-.75-.3358-.75-.75V5.91061l-1.6197 1.6197c-.2929.29289-.7678.29289-1.0607 0-.2928-.2929-.2928-.76777 0-1.06066l2.5-2.5c.0895-.08945.1882-.16267.2929-.21965H11c-.4142 0-.75-.33579-.75-.75Z"/>
</svg>
