<svg xmlns="http://www.w3.org/2000/svg" viewBox="0 0 24 24" fill="currentColor">
  <path d="M2.25 5.20001C2.25 3.8858 3.3858 2.75 4.70001 2.75H19.3c1.2851 0 2.45 1.00725 2.45 2.45001V14.8c0 1.3142-1.1358 2.45-2.45 2.45h-3.4504l.2901 2.3214c.0997.4832-.0979.9111-.3494 1.1854-.2577.2811-.6498.4932-1.0903.4932H9.29999c-.44053 0-.83266-.2121-1.09036-.4932-.25146-.2743-.44911-.7022-.34941-1.1854l.29017-2.3214H4.70001C3.41495 17.25 2.25 16.2428 2.25 14.8V5.20001ZM9.66206 17.25h4.67584l.3125 2.5H9.34956l.3125-2.5Zm-4.96205-13c-.48578 0-.95001.46423-.95001.95001V12.55h16.5V5.20001c0-.55724-.4351-.95001-.95-.95001H4.70001ZM20.25 14.05v.75c0 .4858-.4642.95-.95.95H4.70001c-.51493 0-.95001-.3928-.95001-.95v-.75h16.5Z"/>
</svg>
