<svg xmlns="http://www.w3.org/2000/svg" viewBox="0 0 24 24" fill="currentColor">
  <path d="M3.75 7.34998c0-1.78579 1.46421-3.25 3.25-3.25h10c1.7858 0 3.25 1.46421 3.25 3.25V13.35c0 1.7858-1.4642 3.25-3.25 3.25-.4142 0-.75.3358-.75.75s.3358.75.75.75c2.6142 0 4.75-2.1358 4.75-4.75V7.34998c0-2.61422-2.1358-4.75-4.75-4.75H7c-2.61421 0-4.75 2.13578-4.75 4.75V13.35c0 2.6142 2.13579 4.75 4.75 4.75.41421 0 .75-.3358.75-.75s-.33579-.75-.75-.75c-1.78579 0-3.25-1.4642-3.25-3.25V7.34998ZM11.9375 15.15c.5701 0 1.0564.3304 1.3213.8409l1.7875 3.0786c.311.5231.2381 1.1156-.0097 1.5437-.2497.4312-.7279.7868-1.3366.7868h-3.6c-.60874 0-1.08694-.3556-1.33657-.7868-.24785-.4281-.32073-1.0206-.00977-1.5437l1.80944-3.1162.0129-.0194c.3106-.4658.8009-.7839 1.3615-.7839Zm-1.8889 4.6766 1.7859-3.0758c.0334-.0468.0633-.0729.083-.0866.0036.0059.0075.0129.0117.0212l.0105.0209 1.8119 3.1207c-.0011.007-.0044.0196-.0132.0347-.011.019-.024.0305-.032.0356-.003.0019-.0046.0025-.0055.0027-.0005.0001-.0008 0-.0009 0h-3.6001c-.0004.0001-.0014.0004-.0063-.0027-.008-.0051-.021-.0166-.032-.0356-.0088-.0152-.0119-.0281-.013-.0351Z"/>
</svg>
