<svg xmlns="http://www.w3.org/2000/svg" viewBox="0 0 24 24" fill="currentColor">
  <path d="M6.13833 6.12235C7.59711 4.6679 9.70273 3.75 12 3.75c.5243 0 1.066.08805 1.5529.18543.4062.08124.8013-.18218.8825-.58835.0813-.40617-.1821-.80128-.5883-.88252C13.334 2.36194 12.6757 2.25 12 2.25c-2.69853 0-5.1894 1.07875-6.93032 2.81968l-.00804.00803-.00778.00827C3.33718 6.90996 2.25 9.28911 2.25 12c0 5.4142 4.33579 9.75 9.75 9.75 2.6985 0 5.1894-1.0787 6.9303-2.8197l.0081-.008.0078-.0083C20.6628 17.0901 21.75 14.7109 21.75 12c0-1.6337-.4354-3.14787-1.0792-4.4354-.1852-.37048-.6357-.52065-1.0062-.33541-.3705.18524-.5207.63575-.3354 1.00623.5562 1.11247.9208 2.39828.9208 3.76458 0 2.2851-.9096 4.3029-2.3883 5.8777C16.4029 19.3321 14.2973 20.25 12 20.25c-4.58579 0-8.25-3.6642-8.25-8.25 0-2.28508.90963-4.30283 2.38833-5.87765Z"/>
  <path d="M14.4296 3.02653c.0959.40295-.1529.80738-.5559.90332-1.7542.41766-3.1237 2.10942-3.1237 4.0704 0 2.38575 1.8642 4.24995 4.25 4.24995 2.3858 0 4.25-1.8642 4.25-4.24995v-.09999c0-.41422.3358-.75.75-.75s.75.33578.75.75v.09999c0 3.21425-2.5358 5.74995-5.75 5.74995s-5.75-2.5357-5.75-5.74995c0-2.63902 1.8304-4.94727 4.2763-5.52961.4029-.09594.8074.15294.9033.55589Z"/>
</svg>
