<svg xmlns="http://www.w3.org/2000/svg" fill="none" viewBox="0 0 24 24">
  <path fill="#000" fill-rule="evenodd" d="M15.106 12.516a.278.278 0 0 0-.452 0l-.008.012-1.306 1.809-3.855 5.413H20.03c.118 0 .245-.07.332-.227a.424.424 0 0 0 .058-.186l-5.299-6.798-.015-.023Zm5.313 6.804v.002-.002Zm-4.082-7.662c-.703-1.015-2.227-1.01-2.922.013l-1.293 1.79-5.547 7.789H20.03c.782 0 1.355-.48 1.643-.998.265-.477.409-1.234-.054-1.816l-5.282-6.778Z" clip-rule="evenodd"/>
  <path fill="#000" d="m12.63 13.8-4.7 6.6h-4c-.9 0-1.4-1-.9-1.7l5.5-9.9c.4-.6 1.3-.6 1.7-.1l2.4 5.1Z"/>
  <path fill="#000" fill-rule="evenodd" d="m9.166 9.2-5.5 9.901-.026.035c-.141.198-.007.514.29.514h3.613l4.222-5.928-2.16-4.587a.334.334 0 0 0-.196-.048.314.314 0 0 0-.243.112Zm-1.26-.816c.686-1.03 2.198-1.042 2.91-.153l.055.07 2.625 5.577-5.18 7.272H3.93c-1.487 0-2.35-1.648-1.537-2.847L7.889 8.41l.017-.025Z" clip-rule="evenodd"/>
  <path fill="#000" d="M18.13 7.5a2 2 0 1 0 0-4 2 2 0 0 0 0 4Z"/>
  <path fill="#000" fill-rule="evenodd" d="M18.13 4.25a1.25 1.25 0 1 0 0 2.5 1.25 1.25 0 0 0 0-2.5ZM15.38 5.5a2.75 2.75 0 1 1 5.5 0 2.75 2.75 0 0 1-5.5 0Z" clip-rule="evenodd"/>
</svg>
