<svg xmlns="http://www.w3.org/2000/svg" viewBox="0 0 24 24" fill="currentColor">
  <path d="M16.9018 5.5c0-.69036.5596-1.25 1.25-1.25.6903 0 1.25.55964 1.25 1.25s-.5597 1.25-1.25 1.25c-.6904 0-1.25-.55964-1.25-1.25Zm1.25-2.75c-1.5188 0-2.75 1.23122-2.75 2.75s1.2312 2.75 2.75 2.75 2.75-1.23122 2.75-2.75-1.2312-2.75-2.75-2.75ZM3.68678 19.2014l5.50107-9.90191c.05012-.06377.13272-.10826.24276-.11249.0911-.0035.15773.02182.19853.04905l2.18366 4.54925L7.56514 19.75H3.95178c-.29671 0-.43121-.3159-.28969-.514l.02469-.0346Zm9.57592-4.8663c.0588-.0826.0985-.1731.12-.2661l1.1853-1.6412.0078-.0117c.1032-.1547.3488-.1547.4519 0l.0155.0231 5.3046 6.806c.066.0991.0726.2239.0157.342-.0605.1257-.1493.1628-.2117.1628H9.40661l3.85609-5.4149Zm-2.3718-5.93675 1.8913 3.94015.5544-.7677c.6952-1.0234 2.2194-1.0277 2.9216-.0128l5.2948 6.7934.0091.0127c.8206 1.1489.0573 2.8859-1.4103 2.8859H3.95178c-1.48706 0-2.35001-1.6478-1.5375-2.8468l5.49663-9.89391.01684-.02526c.68618-1.02928 2.19785-1.04235 2.90965-.1525l.0535.06682Z"/>
</svg>
