<svg xmlns="http://www.w3.org/2000/svg" viewBox="0 0 24 24" fill="currentColor">
  <path d="M6.29877 9.44999c0-3.17816 2.55657-5.65 5.65003-5.65h.1c3.1781 0 5.65 2.55655 5.65 5.65v5.11071l.0003.0107c.0873 3.0572-2.4523 5.6286-5.6503 5.6286h-.1c-3.17817 0-5.65003-2.5566-5.65003-5.65V9.44999Zm5.65003-7.15c-3.90655 0-7.15003 3.12816-7.15003 7.15V14.55c0 3.9065 3.12819 7.15 7.15003 7.15h.1c3.9982 0 7.2563-3.2226 7.15-7.1604V9.44999c0-3.90655-3.1282-7.15-7.15-7.15h-.1Zm.85 5.6499c0-.41421-.3358-.75-.75-.75s-.75.33579-.75.75v2c0 .41421.3358.75001.75.75001s.75-.3358.75-.75001v-2Z"/>
</svg>
