<svg xmlns="http://www.w3.org/2000/svg" viewBox="0 0 24 24" fill="currentColor">
  <path d="M6.23031 6.13647c2.20711-2.20711 5.83229-2.20711 8.03939 0l3.6 3.6c2.2071 2.20713 2.2071 5.83223 0 8.03933-2.3147 2.3147-5.9398 2.2996-8.13939.1l-3.6-3.6c-2.2071-2.2071-2.20709-5.83222 0-8.03933l.1-.1Zm9.09999-1.06066c-2.7929-2.79289-7.36773-2.79289-10.16063-.00002l-.10002.10002c-2.7929 2.79289-2.7929 7.36779 0 10.16069l3.6 3.6c2.80035 2.8003 7.37535 2.7853 10.26065-.1 2.7929-2.7929 2.7929-7.3678 0-10.16069l-3.6-3.6Zm-5.69999 3.5c-.2929-.29289-.76777-.29289-1.06066 0-.2929.29289-.2929.76776-.00001 1.06066l1.4 1.40003c.29286.2929.76776.2929 1.06066 0 .2929-.2929.2929-.7678 0-1.06069l-1.39999-1.4Z"/>
</svg>
