<svg xmlns="http://www.w3.org/2000/svg" fill="none" viewBox="0 0 24 24">
  <path fill="#000" fill-rule="evenodd" d="M6 6.75c-1.286 0-2.25.964-2.25 2.25v6c0 1.286.964 2.25 2.25 2.25h7c1.27 0 2.25-1.048 2.25-2.25V9c0-1.286-.964-2.25-2.25-2.25H6ZM2.25 9c0-2.114 1.636-3.75 3.75-3.75h7c2.114 0 3.75 1.636 3.75 3.75v.93l2.378-1.381c1.236-.707 2.622.217 2.622 1.55v3.6c0 1.335-1.386 2.258-2.622 1.552l-.005-.002-2.373-1.379V15c0 1.998-1.62 3.75-3.75 3.75H6c-2.114 0-3.75-1.636-3.75-3.75V9Zm14.608 2.601a.757.757 0 0 1-.108.099v.4a.774.774 0 0 1 .08.07l.031.03 3.013 1.75c.108.06.19.045.249.01.063-.04.127-.121.127-.26v-3.6c0-.139-.064-.22-.127-.26-.059-.035-.141-.05-.25.01l-3.015 1.751Zm-4.636-.463a.75.75 0 1 0-1.044-1.076l-2.863 2.775L7.5 11.75a.75.75 0 0 0-1.2.9l1.232 1.643.038.037c.212.212.488.295.718.295.115 0 .295-.02.472-.13a.833.833 0 0 0 .256-.248l3.206-3.108Z" clip-rule="evenodd"/>
</svg>
