<svg xmlns="http://www.w3.org/2000/svg" fill="none" viewBox="0 0 24 24">
  <path fill="#000" d="M12.75 18h-7c-1.7 0-3-1.3-3-3V9c0-1.7 1.3-3 3-3h7c1.7 0 3 1.3 3 3v6c0 1.6-1.4 3-3 3Z"/>
  <path fill="#000" fill-rule="evenodd" d="M5.75 6.75C4.464 6.75 3.5 7.714 3.5 9v6c0 1.286.964 2.25 2.25 2.25h7c1.186 0 2.25-1.064 2.25-2.25V9c0-1.286-.964-2.25-2.25-2.25h-7ZM2 9c0-2.114 1.636-3.75 3.75-3.75h7c2.114 0 3.75 1.636 3.75 3.75v6c0 2.014-1.736 3.75-3.75 3.75h-7C3.636 18.75 2 17.114 2 15V9Z" clip-rule="evenodd"/>
  <path fill="#000" fill-rule="evenodd" d="M19.378 8.649C20.614 7.943 22 8.866 22 10.2v3.5c0 1.334-1.386 2.258-2.622 1.551l-.005-.002-2.997-1.74a1.067 1.067 0 0 1-.397-.224 1.136 1.136 0 0 1-.036-.032l-.013-.013-.006-.005-.002-.002-.001-.002h-.001l.53-.531-.53.53a.75.75 0 0 1 .905-1.18h.027l3.272 1.9c.108.06.19.045.249.01.063-.04.127-.121.127-.26v-3.5c0-.139-.064-.22-.127-.26-.059-.035-.141-.05-.25.01L16.94 11.8a.863.863 0 0 1-.489.15.75.75 0 0 1-.315-1.43.9.9 0 0 1 .233-.123l3.01-1.748Z" clip-rule="evenodd"/>
  <path fill="#fff" fill-rule="evenodd" d="M7.25 9.25A.75.75 0 0 1 8 10v4a.75.75 0 0 1-1.5 0v-4a.75.75 0 0 1 .75-.75Zm4 0A.75.75 0 0 1 12 10v4a.75.75 0 0 1-1.5 0v-4a.75.75 0 0 1 .75-.75Z" clip-rule="evenodd"/>
</svg>
