<svg width="24" height="24" viewBox="0 0 24 24" fill="none" xmlns="http://www.w3.org/2000/svg">
<path fill-rule="evenodd" clip-rule="evenodd" d="M3.75 9C3.75 7.71421 4.71421 6.75 6 6.75H13C14.2858 6.75 15.25 7.71421 15.25 9V15C15.25 16.1858 14.1858 17.25 13 17.25H6C4.71421 17.25 3.75 16.2858 3.75 15V9ZM6 5.25C3.88579 5.25 2.25 6.88579 2.25 9V15C2.25 17.1142 3.88579 18.75 6 18.75H13C15.0142 18.75 16.75 17.0142 16.75 15V13.8705L19.1235 15.2486L19.128 15.2512C20.364 15.9575 21.7501 15.0339 21.7501 13.7V10.1C21.7501 8.76614 20.364 7.84252 19.128 8.54882L16.75 9.92954V9C16.75 6.88579 15.1142 5.25 13 5.25H6ZM16.75 11.7001C16.789 11.6708 16.8251 11.6377 16.8577 11.6015L19.8739 9.85022C19.9818 9.78919 20.0644 9.80523 20.1226 9.84065C20.1859 9.87921 20.2501 9.96107 20.2501 10.1V13.7C20.2501 13.8389 20.1859 13.9208 20.1226 13.9593C20.0644 13.9948 19.9818 14.0108 19.8739 13.9498L16.8612 12.2005L16.8304 12.1697C16.8049 12.1442 16.778 12.1209 16.75 12.0998V11.7001ZM9.5 8.75C9.91421 8.75 10.25 9.08579 10.25 9.5V11.25H11.9C12.3142 11.25 12.65 11.5858 12.65 12C12.65 12.4142 12.3142 12.75 11.9 12.75H10.25V14.4C10.25 14.8142 9.91421 15.15 9.5 15.15C9.08579 15.15 8.75 14.8142 8.75 14.4V12.75H7C6.58579 12.75 6.25 12.4142 6.25 12C6.25 11.5858 6.58579 11.25 7 11.25H8.75V9.5C8.75 9.08579 9.08579 8.75 9.5 8.75Z" fill="black"/>
</svg>
