<svg width="24" height="24" viewBox="0 0 24 24" fill="none" xmlns="http://www.w3.org/2000/svg">
<path fill-rule="evenodd" clip-rule="evenodd" d="M3.90002 9C3.90002 7.71421 4.86424 6.75 6.15002 6.75H13.15C14.4358 6.75 15.4 7.71421 15.4 9V11.2C15.4 11.2 15.4 11.2 15.4 11.2V12.7V15C15.4 16.1858 14.3358 17.25 13.15 17.25H6.15002C4.86424 17.25 3.90002 16.2858 3.90002 15V9ZM16.9 14.0447V15C16.9 17.0142 15.1642 18.75 13.15 18.75H6.15002C4.03581 18.75 2.40002 17.1142 2.40002 15V9C2.40002 6.88579 4.03581 5.25 6.15002 5.25H13.15C15.2642 5.25 16.9 6.88579 16.9 9V9.85534L18.9779 8.64879C20.214 7.94247 21.6 8.86618 21.6 10.2V13.7C21.6 15.0338 20.214 15.9575 18.9779 15.2512L18.9734 15.2486L16.9 14.0447ZM16.9 11.5899L19.7238 9.95019C19.8318 9.88917 19.9144 9.9052 19.9726 9.94063C20.0359 9.9792 20.1 10.0611 20.1 10.2V13.7C20.1 13.8389 20.0359 13.9208 19.9726 13.9594C19.9144 13.9948 19.8318 14.0108 19.7239 13.9498L16.9 12.3101V11.5899Z" fill="black"/>
</svg>
