<svg xmlns="http://www.w3.org/2000/svg" viewBox="0 0 24 24" fill="currentColor">
  <path d="M3.6001 9c0-1.28579.96421-2.25 2.25-2.25h7c1.2858 0 2.25.96421 2.25 2.25v6c0 1.2021-.9804 2.25-2.25 2.25h-7c-1.28579 0-2.25-.9642-2.25-2.25V9Zm2.25-3.75c-2.11422 0-3.75 1.63579-3.75 3.75v6c0 2.1142 1.63578 3.75 3.75 3.75h7c2.1304 0 3.75-1.7521 3.75-3.75v-1.3038l2.6734 1.5523.0045.0026c1.236.7063 2.6221-.2174 2.6221-1.5512v-3.6c0-1.33388-1.3861-2.2575-2.6221-1.5512l-2.6779 1.5549V9c0-2.11421-1.6358-3.75-3.75-3.75h-7Zm10.75 6.5636v.179c.0428.0151.0845.0342.1245.0573h.0274l3.2719 1.8998c.1079.061.1905.0449.2487.0095.0634-.0385.1275-.1204.1275-.2593v-3.6c0-.13895-.0641-.22082-.1275-.25937-.0582-.03542-.1408-.05146-.2487.00957l-3.1849 1.8493c-.0136.0092-.0281.0186-.0436.0279-.056.0337-.1212.0641-.1953.0863Zm-6.3375-1.87121c-.78103-.36272-1.77487-.21936-2.48217.48791l-.01152.0116-.01201.011c-.68364.6266-.84708 1.6401-.42679 2.4918l2.93249-3.00231Zm1.0738 1.04731c.4621.8648.3082 1.9146-.3931 2.5574-.7169.6572-1.74233.7869-2.53787.4434l2.93097-3.0008Zm.6555-1.60854c-1.4073-1.52148-3.78415-1.48729-5.26064-.02293-1.52544 1.41097-1.48711 3.79647-.01149 5.27207 1.40496 1.405 3.76353 1.3733 5.23713.0226 1.5337-1.4059 1.5032-3.7914.035-5.27174Z"/>
</svg>
