<svg xmlns="http://www.w3.org/2000/svg" fill="none" viewBox="0 0 24 24">
  <path fill="#000" d="M13.15 18h-7c-1.7 0-3-1.3-3-3V9c0-1.7 1.3-3 3-3h7c1.7 0 3 1.3 3 3v6c0 1.6-1.4 3-3 3Z"/>
  <path fill="#000" fill-rule="evenodd" d="M6.15 6.75C4.864 6.75 3.9 7.714 3.9 9v6c0 1.286.964 2.25 2.25 2.25h7c1.186 0 2.25-1.064 2.25-2.25V9c0-1.286-.964-2.25-2.25-2.25h-7ZM2.4 9c0-2.114 1.636-3.75 3.75-3.75h7c2.114 0 3.75 1.636 3.75 3.75v6c0 2.014-1.736 3.75-3.75 3.75h-7c-2.114 0-3.75-1.636-3.75-3.75V9Z" clip-rule="evenodd"/>
  <path fill="#000" fill-rule="evenodd" d="M18.978 8.649c1.236-.706 2.622.217 2.622 1.551v3.5c0 1.334-1.386 2.258-2.622 1.551l-.007-.004-2.902-1.74a1.068 1.068 0 0 1-.39-.222 1.151 1.151 0 0 1-.036-.032l-.013-.013-.006-.005-.002-.002-.001-.002h-.001l.53-.531-.53.53a.75.75 0 0 1 .905-1.18h.033l3.17 1.902c.105.059.187.042.244.007.064-.038.128-.12.128-.259v-3.5c0-.139-.064-.22-.128-.26-.058-.035-.14-.05-.248.01l-3.185 1.85a.824.824 0 0 1-.254.118.87.87 0 0 1-.235.032.75.75 0 0 1-.315-1.43.915.915 0 0 1 .233-.123l3.01-1.748Z" clip-rule="evenodd"/>
</svg>
