<svg xmlns="http://www.w3.org/2000/svg" viewBox="0 0 24 24" fill="currentColor">
  <path d="M3.75 9c0-1.28579.96421-2.25 2.25-2.25h7c1.2858 0 2.25.96421 2.25 2.25v6c0 1.2021-.9804 2.25-2.25 2.25H6c-1.28579 0-2.25-.9642-2.25-2.25V9ZM6 5.25C3.88579 5.25 2.25 6.88579 2.25 9v6c0 2.1142 1.63579 3.75 3.75 3.75h7c2.1304 0 3.75-1.7521 3.75-3.75v-1.1297l2.3735 1.3782.0045.0026c1.236.7063 2.6221-.2174 2.6221-1.5512v-3.6c0-1.33388-1.3861-2.2575-2.6221-1.5512L16.75 9.92942V9c0-2.11421-1.6358-3.75-3.75-3.75H6Zm10.75 6.45c.039-.0293.0751-.0624.1077-.0986l3.0162-1.7513c.1079-.06103.1905-.04499.2487-.00957.0633.03855.1275.12042.1275.25937v3.6c0 .1389-.0642.2208-.1275.2593-.0582.0354-.1408.0515-.2487-.0095l-3.0127-1.7493-.0308-.0309c-.0255-.0254-.0524-.0487-.0804-.0698V11.7Zm-5.0274-2.03801c.2971.28862.304.76341.0154 1.06051L10.5457 11.95l1.1923 1.2274c.2886.2971.2817.7719-.0154 1.0605-.2971.2886-.7719.2817-1.0605-.0154l-1.16205-1.1962-1.16204 1.1962c-.28862.2971-.76344.304-1.06055.0154-.29711-.2886-.30399-.7634-.01537-1.0605L8.45443 11.95l-1.19234-1.2275c-.28862-.2971-.28174-.77189.01537-1.06051.29711-.28862.77193-.28173 1.06055.01537l1.16204 1.19624 1.16205-1.19624c.2886-.2971.7634-.30399 1.0605-.01537Z"/>
</svg>
