<svg width="24" height="24" viewBox="0 0 24 24" fill="none" xmlns="http://www.w3.org/2000/svg">
<path d="M13.15 18H6.14999C4.44999 18 3.14999 16.7 3.14999 15V9C3.14999 7.3 4.44999 6 6.14999 6H13.15C14.85 6 16.15 7.3 16.15 9V15C16.15 16.6 14.75 18 13.15 18Z" fill="black"/>
<path fill-rule="evenodd" clip-rule="evenodd" d="M6.14999 6.75C4.86421 6.75 3.89999 7.71421 3.89999 9V15C3.89999 16.2858 4.86421 17.25 6.14999 17.25H13.15C14.3358 17.25 15.4 16.1858 15.4 15V9C15.4 7.71421 14.4358 6.75 13.15 6.75H6.14999ZM2.39999 9C2.39999 6.88579 4.03578 5.25 6.14999 5.25H13.15C15.2642 5.25 16.9 6.88579 16.9 9V15C16.9 17.0142 15.1642 18.75 13.15 18.75H6.14999C4.03578 18.75 2.39999 17.1142 2.39999 15V9Z" fill="black"/>
<path fill-rule="evenodd" clip-rule="evenodd" d="M18.9779 8.64883C20.2139 7.94252 21.6 8.86616 21.6 10.2V13.7C21.6 15.0339 20.2139 15.9575 18.9779 15.2512L18.971 15.2472L16.069 13.5061C15.938 13.4648 15.8427 13.4049 15.7965 13.374C15.7468 13.341 15.707 13.309 15.6791 13.2851C15.6647 13.2728 15.6526 13.2618 15.6427 13.2526L15.6296 13.2401L15.6242 13.2348L15.6218 13.2325L15.6207 13.2314L15.6199 13.2306C15.6198 13.2305 15.6197 13.2303 16.15 12.7L15.6199 13.2306C15.327 12.9377 15.3268 12.4626 15.6197 12.1697C15.8649 11.9244 16.2378 11.8845 16.5245 12.05H16.5577L19.7273 13.9518C19.8335 14.0105 19.915 13.9944 19.9725 13.9594C20.0359 13.9208 20.1 13.8389 20.1 13.7V10.2C20.1 10.0611 20.0359 9.97922 19.9725 9.94066C19.9143 9.90523 19.8317 9.8892 19.7238 9.95022L16.5387 11.7996C16.5252 11.8089 16.5107 11.8182 16.4952 11.8275C16.4356 11.8633 16.3656 11.8955 16.2854 11.9179C16.2055 11.9403 16.1262 11.95 16.05 11.95C15.6358 11.95 15.3 11.6142 15.3 11.2C15.3 10.8984 15.478 10.6384 15.7346 10.5193C15.7551 10.5042 15.7785 10.4883 15.8047 10.4725C15.8525 10.4439 15.9068 10.4176 15.9677 10.3967L18.9779 8.64883Z" fill="black"/>
</svg>
