<svg xmlns="http://www.w3.org/2000/svg" fill="none" viewBox="0 0 24 24">
  <path fill="#000" fill-rule="evenodd" d="M8.1 10.15a.907.907 0 0 0-.67.28c-.307.307-.307.933 0 1.24l.2.2 1.82 1.82 1.906-1.906.142-.072c.19-.281.252-.478.252-.612a.907.907 0 0 0-.28-.67c-.307-.307-.933-.307-1.24 0l-.73.73-.69-.69c-.335-.244-.56-.32-.71-.32Zm1.38-1.038c-.393-.255-.86-.462-1.38-.462-.72 0-1.305.294-1.73.72-.893.893-.893 2.467 0 3.36l.2.2 1.9 1.9c.297.298.705.37.98.37s.683-.072.98-.37l1.814-1.814.25-.124.106-.142c.332-.443.65-1.005.65-1.65 0-.72-.294-1.305-.72-1.73-.796-.797-2.135-.883-3.05-.258Z" clip-rule="evenodd"/>
  <path fill="#000" fill-rule="evenodd" d="M6 6.75c-1.286 0-2.25.964-2.25 2.25v6c0 1.286.964 2.25 2.25 2.25h7c1.186 0 2.25-1.064 2.25-2.25V9c0-1.286-.964-2.25-2.25-2.25H6ZM2.25 9c0-2.114 1.636-3.75 3.75-3.75h7c2.114 0 3.75 1.636 3.75 3.75v6c0 2.014-1.736 3.75-3.75 3.75H6c-2.114 0-3.75-1.636-3.75-3.75V9Z" clip-rule="evenodd"/>
  <path fill="#000" fill-rule="evenodd" d="M19.128 8.649c1.236-.706 2.622.217 2.622 1.551v3.5c0 1.334-1.386 2.258-2.622 1.551l-.005-.002-3.184-1.85-.17-.169a.75.75 0 1 1 1.061-1.06l.031.03 3.013 1.75c.108.06.19.045.248.01.064-.04.128-.121.128-.26v-3.5c0-.139-.064-.22-.128-.26-.058-.035-.14-.05-.248.01l-3.016 1.752a.75.75 0 0 1-1.308-.502h.75-.75v-.026a.828.828 0 0 1 .012-.113.837.837 0 0 1 .556-.664l3.01-1.748Z" clip-rule="evenodd"/>
</svg>
