<svg width="24" height="24" viewBox="0 0 24 24" fill="none" xmlns="http://www.w3.org/2000/svg">
<path fill-rule="evenodd" clip-rule="evenodd" d="M8.10001 10.15C7.81975 10.15 7.60513 10.2555 7.43034 10.4303C7.12324 10.7374 7.12324 11.3626 7.43034 11.6697L7.63034 11.8697L9.45001 13.6893L11.3557 11.7836L11.4982 11.7124C11.6883 11.4306 11.75 11.2344 11.75 11.1C11.75 10.8197 11.6445 10.6051 11.4697 10.4303C11.1626 10.1232 10.5374 10.1232 10.2303 10.4303L9.50001 11.1607L8.80908 10.4697C8.4748 10.2261 8.24928 10.15 8.10001 10.15ZM9.48094 9.11174C9.08726 8.85707 8.62054 8.64999 8.10001 8.64999C7.38027 8.64999 6.79489 8.94446 6.36968 9.36966C5.47679 10.2626 5.47679 11.8374 6.36968 12.7303L6.56968 12.9303L8.46968 14.8303C8.76742 15.1281 9.17483 15.2 9.45001 15.2C9.7252 15.2 10.1326 15.1281 10.4303 14.8303L12.2443 13.0164L12.4938 12.8916L12.6 12.75C12.9323 12.3069 13.25 11.7447 13.25 11.1C13.25 10.3803 12.9556 9.79487 12.5303 9.36966C11.7338 8.57315 10.3946 8.48717 9.48094 9.11174Z" fill="black"/>
<path fill-rule="evenodd" clip-rule="evenodd" d="M6 6.75C4.71421 6.75 3.75 7.71421 3.75 9V15C3.75 16.2858 4.71421 17.25 6 17.25H13C14.1858 17.25 15.25 16.1858 15.25 15V9C15.25 7.71421 14.2858 6.75 13 6.75H6ZM2.25 9C2.25 6.88579 3.88579 5.25 6 5.25H13C15.1142 5.25 16.75 6.88579 16.75 9V15C16.75 17.0142 15.0142 18.75 13 18.75H6C3.88579 18.75 2.25 17.1142 2.25 15V9Z" fill="black"/>
<path fill-rule="evenodd" clip-rule="evenodd" d="M19.1279 8.64883C20.3639 7.94252 21.75 8.86616 21.75 10.2V13.7C21.75 15.0339 20.3639 15.9575 19.1279 15.2512L19.1234 15.2486L15.9388 13.3995L15.7697 13.2303C15.4768 12.9374 15.4768 12.4626 15.7697 12.1697C16.0626 11.8768 16.5374 11.8768 16.8303 12.1697L16.8612 12.2005L19.8738 13.9498C19.9817 14.0108 20.0643 13.9948 20.1225 13.9594C20.1859 13.9208 20.25 13.8389 20.25 13.7V10.2C20.25 10.0611 20.1859 9.97922 20.1225 9.94066C20.0643 9.90523 19.9817 9.8892 19.8738 9.95023L16.8576 11.7015C16.7204 11.8541 16.5214 11.95 16.3 11.95C15.8858 11.95 15.55 11.6142 15.55 11.2L16.3 11.2C15.55 11.2 15.55 11.2004 15.55 11.2L15.55 11.1985L15.55 11.197L15.55 11.194L15.5501 11.1876L15.5504 11.1739C15.5507 11.1643 15.5513 11.1537 15.5521 11.1423C15.5537 11.1196 15.5566 11.0921 15.5618 11.0611C15.5715 11.0026 15.5924 10.9131 15.6417 10.8146C15.6924 10.7131 15.7803 10.5888 15.9261 10.4916C15.9877 10.4505 16.052 10.4194 16.1173 10.3969L19.1279 8.64883Z" fill="black"/>
</svg>
