<svg xmlns="http://www.w3.org/2000/svg" viewBox="0 0 24 24" fill="currentColor">
  <path d="M5.75 6.75C4.46421 6.75 3.5 7.71421 3.5 9v6c0 1.2858.96421 2.25 2.25 2.25h7c1.2696 0 2.25-1.0479 2.25-2.25V9c0-1.28579-.9642-2.25-2.25-2.25h-7ZM2 9c0-2.11421 1.63579-3.75 3.75-3.75h7c2.1142 0 3.75 1.63579 3.75 3.75v6c0 1.9979-1.6196 3.75-3.75 3.75h-7C3.63579 18.75 2 17.1142 2 15V9Z"/>
  <path d="M19.3779 8.5487C20.6139 7.8424 22 8.76602 22 10.0999v3.6c0 1.3338-1.3861 2.2575-2.6221 1.5512l-.0045-.0026-2.9972-1.7403c-.1347-.0413-.2327-.1029-.2798-.1343-.0496-.0331-.0895-.065-.1173-.0889-.0144-.0123-.0266-.0234-.0364-.0325l-.0132-.0125-.0053-.0053-.0024-.0023-.0011-.0011-.0008-.0008c-.0001-.0001-.0003-.0003.5109-.5115l-.5109.5115c-.2929-.2929-.2932-.768-.0003-1.0609.2453-.2453.6181-.2852.9049-.1197h.0274l3.2719 1.8998c.108.061.1906.0449.2487.0095.0634-.0385.1275-.1204.1275-.2593v-3.6c0-.13895-.0641-.22082-.1275-.25937-.0582-.03542-.1408-.05146-.2487.00957l-3.1851 1.8494c-.0135.0092-.028.0186-.0435.0279-.0597.0358-.1296.0679-.2098.0904-.0799.0224-.1592.0321-.2354.0321-.4143 0-.75-.3358-.75-.75 0-.3016.1779-.5616.4346-.6807.0205-.0151.0439-.0311.0701-.0468.0477-.0287.1021-.055.1629-.0759l3.0103-1.7478ZM16.98 12.1693Z"/>
  <path d="M7.25 9.25c.41421 0 .75.33579.75.75v4c0 .4142-.33579.75-.75.75s-.75-.3358-.75-.75v-4c0-.41421.33579-.75.75-.75Z"/>
  <path d="M11.25 9.25c.4142 0 .75.33579.75.75v4c0 .4142-.3358.75-.75.75s-.75-.3358-.75-.75v-4c0-.41421.3358-.75.75-.75Z"/>
</svg>
