<svg xmlns="http://www.w3.org/2000/svg" viewBox="0 0 24 24" fill="currentColor">
  <path d="M3.75 9c0-1.28579.96421-2.25 2.25-2.25h7c1.2858 0 2.25.96421 2.25 2.25v6c0 1.1858-1.0642 2.25-2.25 2.25H6c-1.28579 0-2.25-.9642-2.25-2.25V9ZM6 5.25C3.88579 5.25 2.25 6.88579 2.25 9v6c0 2.1142 1.63579 3.75 3.75 3.75h7c2.0142 0 3.75-1.7358 3.75-3.75v-1.1295l2.3735 1.3781.0045.0026c1.236.7063 2.6221-.2173 2.6221-1.5512v-3.6c0-1.33386-1.3861-2.25748-2.6221-1.55118L16.75 9.92954V9c0-2.11421-1.6358-3.75-3.75-3.75H6Zm10.75 6.4501c.039-.0293.0751-.0624.1077-.0986l3.0162-1.75128c.1079-.06103.1905-.04499.2487-.00957.0633.03856.1275.12042.1275.25935v3.6c0 .1389-.0642.2208-.1275.2593-.0582.0355-.1408.0515-.2487-.0095l-3.0127-1.7493-.0308-.0308c-.0255-.0255-.0524-.0488-.0804-.0699v-.3997ZM9.5 8.75c.41421 0 .75.33579.75.75v1.75h1.65c.4142 0 .75.3358.75.75s-.3358.75-.75.75h-1.65v1.65c0 .4142-.33579.75-.75.75s-.75-.3358-.75-.75v-1.65H7c-.41421 0-.75-.3358-.75-.75s.33579-.75.75-.75h1.75V9.5c0-.41421.33579-.75.75-.75Z"/>
</svg>
