<svg width="24" height="24" viewBox="0 0 24 24" fill="none" xmlns="http://www.w3.org/2000/svg">
<path d="M13 18H6C4.3 18 3 16.7 3 15V9C3 7.3 4.3 6 6 6H13C14.7 6 16 7.3 16 9V15C16 16.6 14.6 18 13 18Z" fill="black"/>
<path fill-rule="evenodd" clip-rule="evenodd" d="M6 6.75C4.71421 6.75 3.75 7.71421 3.75 9V15C3.75 16.2858 4.71421 17.25 6 17.25H13C14.1858 17.25 15.25 16.1858 15.25 15V9C15.25 7.71421 14.2858 6.75 13 6.75H6ZM2.25 9C2.25 6.88579 3.88579 5.25 6 5.25H13C15.1142 5.25 16.75 6.88579 16.75 9V15C16.75 17.0142 15.0142 18.75 13 18.75H6C3.88579 18.75 2.25 17.1142 2.25 15V9Z" fill="black"/>
<path fill-rule="evenodd" clip-rule="evenodd" d="M19.1279 8.64883C20.3639 7.94252 21.75 8.86616 21.75 10.2V13.7C21.75 15.0339 20.3639 15.9575 19.1279 15.2512L19.1234 15.2486L15.9388 13.3995L15.7697 13.2303C15.4768 12.9374 15.4768 12.4626 15.7697 12.1697C16.0626 11.8768 16.5374 11.8768 16.8303 12.1697L16.8612 12.2005L19.8738 13.9498C19.9817 14.0108 20.0643 13.9948 20.1225 13.9594C20.1859 13.9208 20.25 13.8389 20.25 13.7V10.2C20.25 10.0611 20.1859 9.97922 20.1225 9.94066C20.0643 9.90523 19.9817 9.8892 19.8738 9.95023L16.8576 11.7015C16.7204 11.8541 16.5214 11.95 16.3 11.95C15.8858 11.95 15.55 11.6142 15.55 11.2L16.3 11.2C15.55 11.2 15.55 11.2004 15.55 11.2L15.55 11.1985L15.55 11.197L15.55 11.194L15.5501 11.1876L15.5504 11.1739C15.5507 11.1643 15.5513 11.1537 15.5521 11.1423C15.5537 11.1196 15.5566 11.0921 15.5618 11.0611C15.5715 11.0026 15.5924 10.9131 15.6417 10.8146C15.6924 10.7131 15.7803 10.5888 15.9261 10.4916C15.9877 10.4505 16.052 10.4194 16.1173 10.3969L19.1279 8.64883Z" fill="black"/>
<path fill-rule="evenodd" clip-rule="evenodd" d="M12.2384 10.0779C12.5268 10.3753 12.5195 10.8501 12.2221 11.1384L9.01644 14.247C8.94689 14.352 8.85639 14.4358 8.76027 14.495C8.5829 14.6041 8.40349 14.625 8.28751 14.625C8.05825 14.625 7.78155 14.5422 7.56968 14.3303L7.53199 14.2926L6.30001 12.65C6.05148 12.3186 6.11864 11.8485 6.45001 11.6C6.78138 11.3515 7.25148 11.4186 7.50001 11.75L8.31546 12.8373L11.1779 10.0616C11.4753 9.77323 11.9501 9.78053 12.2384 10.0779Z" fill="white"/>
</svg>
