<svg xmlns="http://www.w3.org/2000/svg" viewBox="0 0 24 24" fill="currentColor">
  <path d="M6 6.75c-1.28579 0-2.25.96421-2.25 2.25v6c0 1.2858.96421 2.25 2.25 2.25h7c1.2696 0 2.25-1.0479 2.25-2.25V9c0-1.28579-.9642-2.25-2.25-2.25H6ZM2.25 9c0-2.11421 1.63579-3.75 3.75-3.75h7c2.1142 0 3.75 1.63579 3.75 3.75v.92942l2.378-1.38072c1.236-.7063 2.6221.21732 2.6221 1.5512v3.6c0 1.3338-1.3861 2.2575-2.6221 1.5512l-.0045-.0026-2.3735-1.3782V15c0 1.9979-1.6196 3.75-3.75 3.75H6c-2.11421 0-3.75-1.6358-3.75-3.75V9Zm14.6077 2.6014c-.0326.0362-.0687.0693-.1077.0986v.3997c.028.0211.0549.0444.0804.0698l.0308.0309 3.0127 1.7493c.1079.061.1905.0449.2487.0095.0633-.0385.1275-.1204.1275-.2593v-3.6c0-.13895-.0642-.22082-.1275-.25937-.0582-.03542-.1408-.05146-.2487.00957l-3.0162 1.7513Zm-4.6357-.4629c.2974-.2883.3047-.7632.0164-1.0605-.2884-.29738-.7632-.30468-1.0606-.0163l-2.86241 2.7757-.81544-1.0873c-.24852-.3314-.71862-.3985-1.05-.15-.33137.2485-.39853.7186-.15001 1.05l1.23197 1.6426.03769.0377c.21188.2119.4886.2947.71784.2947.11598 0 .29538-.0208.47274-.13.09613-.0591.18664-.143.2562-.248l3.20562-3.1086Z"/>
</svg>
