<svg xmlns="http://www.w3.org/2000/svg" viewBox="0 0 24 24" fill="currentColor">
  <path d="M4.04534 4.22703c.35976-.44276 1.00722-.67175 1.655-.34786l.00193.00096L19.6003 10.8792c.0004.0002.0008.0004.0013.0006.5165.259.7133.79.7133 1.1952 0 .213-.0516.4742-.2184.7036-.1437.1975-.3545.3424-.6054.3972l-13.78883 6.944-.00193.001c-.64321.3216-1.30429.0965-1.67484-.3269-.36723-.4197-.50944-1.1171-.05899-1.6963L8.39222 12 3.93867 5.86398l-.01688-.02812c-.33427-.55713-.2097-1.19869.12355-1.60883ZM5.4957 5.45558l4.14862 5.71592c.42748.4764.42748 1.1806 0 1.657L5.4957 18.5444 18.491 12 5.4957 5.45558Zm13.4338 6.76522c-.0006-.0003-.0013-.0006-.0019-.001l.0019.001Z"/>
  <path d="M7.97949 11.5723c0-.4142.33579-.75.75-.75H19.1295c.4142 0 .75.3358.75.75s-.3358.75-.75.75H8.72949c-.41421 0-.75-.3358-.75-.75Z"/>
</svg>
