<svg xmlns="http://www.w3.org/2000/svg" viewBox="0 0 24 24" fill="currentColor">
  <path d="M19.0464 3.27109c1.0249-.20497 1.8875.65779 1.6825 1.68254l-.009.04504-4.9144 14.84363-.0005.0014c-.2319.6956-.8822.9607-1.4201.9094-.5262-.0501-1.1129-.419-1.2309-1.1215l-.0003-.0018-1.283-7.5005-7.50051-1.283c-.00063-.0001-.00127-.0002-.0019-.0003-.70242-.118-1.07131-.7048-1.12141-1.23089-.05121-.53788.21387-1.18824.90947-1.42011l.00144-.00048L19.0014 3.28009l.045-.009Zm.162 1.52054L5.12643 9.4539l7.04277 1.2047c.2955.0161.5895.1275.8171.3551.2277.2276.339.5216.3551.8171l1.2047 7.0427 4.6623-14.08187Z"/>
</svg>
