<svg xmlns="http://www.w3.org/2000/svg" viewBox="0 0 24 24" fill="currentColor">
  <g clip-path="url(#a)">
    <path d="M10.7944 5.23435c.5784-.87043 1.7985-.87208 2.3794-.00339l.0255.03818 7.041 13.96096.0007.0014c.3288.6553.0573 1.303-.3588 1.6477-.407.3372-1.0826.4922-1.6633.0797-.0005-.0003-.0009-.0007-.0014-.001l-6.2172-4.3876-6.20457 4.4054c-.00053.0004-.00105.0007-.00157.0011-.57954.4141-1.2555.261-1.66344-.075-.41704-.3436-.69041-.9905-.36344-1.6468l.00068-.0013L10.7689 5.2726l.0255-.03825Zm1.191.95895L5.3437 19.457l5.8259-4.1365c.2201-.1978.5065-.3274.8284-.3279.322-.0005.6088.1283.8294.3255l5.8377 4.1198-6.6797-13.2446Z"/>
  </g>
  <defs>
    <clipPath id="a">
      <path d="M0 0h24v24H0z"/>
    </clipPath>
  </defs>
</svg>
