<svg xmlns="http://www.w3.org/2000/svg" viewBox="0 0 24 24" fill="currentColor">
  <g clip-path="url(#a)">
    <path d="M11.1978 4.23267c.5797-.8696 1.7998-.86951 2.3794.00002l.0255.03822 7.021 13.97099.0007.0014c.3279.6558.0554 1.3031-.3611 1.6472-.4075.3367-1.0833.4907-1.6635.0773-.0005-.0003-.0009-.0007-.0014-.001l-6.2109-4.3964-6.21087 4.3964c-.00052.0004-.00105.0008-.00157.0011-.58014.4133-1.25587.2592-1.66333-.0774-.41655-.3441-.68899-.9914-.36108-1.6472l.00068-.0014L11.1723 4.27088l.0255-.03821Zm1.1897.96065L5.72678 18.4475l5.83182-4.1282c.2203-.1975.507-.3267.8289-.3267.3219 0 .6086.1292.8289.3267l5.8318 4.1282-6.6607-13.25418Z"/>
  </g>
  <defs>
    <clipPath id="a">
      <path d="M0 0h24v24H0z"/>
    </clipPath>
  </defs>
</svg>
