<svg xmlns="http://www.w3.org/2000/svg" fill="none" viewBox="0 0 24 24">
  <g clip-path="url(#nav_svg__a)">
    <path fill="#000" fill-rule="evenodd" d="M11.198 4.233c.58-.87 1.8-.87 2.38 0l.025.038 7.02 13.97.001.002c.328.656.056 1.303-.36 1.648-.408.336-1.084.49-1.664.077l-.002-.001-6.21-4.397-6.211 4.397h-.002c-.58.414-1.256.26-1.663-.076-.417-.345-.69-.992-.361-1.648v-.001L11.172 4.27l.026-.038Zm1.19.96L5.726 18.448l5.832-4.129a1.24 1.24 0 0 1 .829-.326c.321 0 .608.129.828.326l5.832 4.129-6.66-13.255Z" clip-rule="evenodd"/>
  </g>
  <defs>
    <clipPath id="nav_svg__a">
      <path fill="#fff" d="M0 0h24v24H0z"/>
    </clipPath>
  </defs>
</svg>
