<svg xmlns="http://www.w3.org/2000/svg" fill="none" viewBox="0 0 24 24">
  <path fill="#000" fill-rule="evenodd" d="M5 3.75a1.25 1.25 0 1 0 0 2.5 1.25 1.25 0 0 0 0-2.5ZM2.25 5a2.75 2.75 0 1 1 5.5 0 2.75 2.75 0 0 1-5.5 0ZM12 3.75a1.25 1.25 0 1 0 0 2.5 1.25 1.25 0 0 0 0-2.5ZM9.25 5a2.75 2.75 0 1 1 5.5 0 2.75 2.75 0 0 1-5.5 0Zm8.5 0a1.25 1.25 0 1 1 2.5 0 1.25 1.25 0 0 1-2.5 0ZM19 2.25a2.75 2.75 0 1 0 0 5.5 2.75 2.75 0 0 0 0-5.5Zm-14 8.5a1.25 1.25 0 1 0 0 2.5 1.25 1.25 0 0 0 0-2.5ZM2.25 12a2.75 2.75 0 1 1 5.5 0 2.75 2.75 0 0 1-5.5 0Zm8.5 0a1.25 1.25 0 1 1 2.5 0 1.25 1.25 0 0 1-2.5 0ZM12 9.25a2.75 2.75 0 1 0 0 5.5 2.75 2.75 0 0 0 0-5.5Zm7 1.5a1.25 1.25 0 1 0 0 2.5 1.25 1.25 0 0 0 0-2.5ZM16.25 12a2.75 2.75 0 1 1 5.5 0 2.75 2.75 0 0 1-5.5 0Zm-12.5 7a1.25 1.25 0 1 1 2.5 0 1.25 1.25 0 0 1-2.5 0ZM5 16.25a2.75 2.75 0 1 0 0 5.5 2.75 2.75 0 0 0 0-5.5Zm7 1.5a1.25 1.25 0 1 0 0 2.5 1.25 1.25 0 0 0 0-2.5ZM9.25 19a2.75 2.75 0 1 1 5.5 0 2.75 2.75 0 0 1-5.5 0Zm8.5 0a1.25 1.25 0 1 1 2.5 0 1.25 1.25 0 0 1-2.5 0ZM19 16.25a2.75 2.75 0 1 0 0 5.5 2.75 2.75 0 0 0 0-5.5Z" clip-rule="evenodd"/>
</svg>
