<svg width="24" height="24" viewBox="0 0 24 24" fill="none" xmlns="http://www.w3.org/2000/svg">
<path d="M17.9 7C18.7284 7 19.4 6.32843 19.4 5.5C19.4 4.67157 18.7284 4 17.9 4C17.0715 4 16.4 4.67157 16.4 5.5C16.4 6.32843 17.0715 7 17.9 7Z" fill="black"/>
<path fill-rule="evenodd" clip-rule="evenodd" d="M17.9 4.5C17.3477 4.5 16.9 4.94772 16.9 5.5C16.9 6.05228 17.3477 6.5 17.9 6.5C18.4522 6.5 18.9 6.05228 18.9 5.5C18.9 4.94772 18.4522 4.5 17.9 4.5ZM15.9 5.5C15.9 4.39543 16.7954 3.5 17.9 3.5C19.0045 3.5 19.9 4.39543 19.9 5.5C19.9 6.60457 19.0045 7.5 17.9 7.5C16.7954 7.5 15.9 6.60457 15.9 5.5Z" fill="black"/>
<path d="M12 7C12.8284 7 13.5 6.32843 13.5 5.5C13.5 4.67157 12.8284 4 12 4C11.1716 4 10.5 4.67157 10.5 5.5C10.5 6.32843 11.1716 7 12 7Z" fill="black"/>
<path fill-rule="evenodd" clip-rule="evenodd" d="M12 4.5C11.4477 4.5 11 4.94772 11 5.5C11 6.05228 11.4477 6.5 12 6.5C12.5523 6.5 13 6.05228 13 5.5C13 4.94772 12.5523 4.5 12 4.5ZM10 5.5C10 4.39543 10.8954 3.5 12 3.5C13.1046 3.5 14 4.39543 14 5.5C14 6.60457 13.1046 7.5 12 7.5C10.8954 7.5 10 6.60457 10 5.5Z" fill="black"/>
<path d="M6.09998 7C6.9284 7 7.59998 6.32843 7.59998 5.5C7.59998 4.67157 6.9284 4 6.09998 4C5.27155 4 4.59998 4.67157 4.59998 5.5C4.59998 6.32843 5.27155 7 6.09998 7Z" fill="black"/>
<path fill-rule="evenodd" clip-rule="evenodd" d="M6.09998 4.5C5.54769 4.5 5.09998 4.94772 5.09998 5.5C5.09998 6.05228 5.54769 6.5 6.09998 6.5C6.65226 6.5 7.09998 6.05228 7.09998 5.5C7.09998 4.94772 6.65226 4.5 6.09998 4.5ZM4.09998 5.5C4.09998 4.39543 4.99541 3.5 6.09998 3.5C7.20455 3.5 8.09998 4.39543 8.09998 5.5C8.09998 6.60457 7.20455 7.5 6.09998 7.5C4.99541 7.5 4.09998 6.60457 4.09998 5.5Z" fill="black"/>
<path d="M17.9 13.5C18.7284 13.5 19.4 12.8284 19.4 12C19.4 11.1716 18.7284 10.5 17.9 10.5C17.0715 10.5 16.4 11.1716 16.4 12C16.4 12.8284 17.0715 13.5 17.9 13.5Z" fill="black"/>
<path fill-rule="evenodd" clip-rule="evenodd" d="M17.9 11C17.3477 11 16.9 11.4477 16.9 12C16.9 12.5523 17.3477 13 17.9 13C18.4522 13 18.9 12.5523 18.9 12C18.9 11.4477 18.4522 11 17.9 11ZM15.9 12C15.9 10.8954 16.7954 10 17.9 10C19.0045 10 19.9 10.8954 19.9 12C19.9 13.1046 19.0045 14 17.9 14C16.7954 14 15.9 13.1046 15.9 12Z" fill="black"/>
<path d="M12 13.5C12.8284 13.5 13.5 12.8284 13.5 12C13.5 11.1716 12.8284 10.5 12 10.5C11.1716 10.5 10.5 11.1716 10.5 12C10.5 12.8284 11.1716 13.5 12 13.5Z" fill="black"/>
<path fill-rule="evenodd" clip-rule="evenodd" d="M12 11C11.4477 11 11 11.4477 11 12C11 12.5523 11.4477 13 12 13C12.5523 13 13 12.5523 13 12C13 11.4477 12.5523 11 12 11ZM10 12C10 10.8954 10.8954 10 12 10C13.1046 10 14 10.8954 14 12C14 13.1046 13.1046 14 12 14C10.8954 14 10 13.1046 10 12Z" fill="black"/>
<path d="M6.09998 13.5C6.9284 13.5 7.59998 12.8284 7.59998 12C7.59998 11.1716 6.9284 10.5 6.09998 10.5C5.27155 10.5 4.59998 11.1716 4.59998 12C4.59998 12.8284 5.27155 13.5 6.09998 13.5Z" fill="black"/>
<path fill-rule="evenodd" clip-rule="evenodd" d="M6.09998 11C5.54769 11 5.09998 11.4477 5.09998 12C5.09998 12.5523 5.54769 13 6.09998 13C6.65226 13 7.09998 12.5523 7.09998 12C7.09998 11.4477 6.65226 11 6.09998 11ZM4.09998 12C4.09998 10.8954 4.99541 10 6.09998 10C7.20454 10 8.09998 10.8954 8.09998 12C8.09998 13.1046 7.20455 14 6.09998 14C4.99541 14 4.09998 13.1046 4.09998 12Z" fill="black"/>
<path d="M17.9 20C18.7284 20 19.4 19.3284 19.4 18.5C19.4 17.6716 18.7284 17 17.9 17C17.0715 17 16.4 17.6716 16.4 18.5C16.4 19.3284 17.0715 20 17.9 20Z" fill="black"/>
<path fill-rule="evenodd" clip-rule="evenodd" d="M17.9 17.5C17.3477 17.5 16.9 17.9477 16.9 18.5C16.9 19.0523 17.3477 19.5 17.9 19.5C18.4522 19.5 18.9 19.0523 18.9 18.5C18.9 17.9477 18.4522 17.5 17.9 17.5ZM15.9 18.5C15.9 17.3954 16.7954 16.5 17.9 16.5C19.0045 16.5 19.9 17.3954 19.9 18.5C19.9 19.6046 19.0045 20.5 17.9 20.5C16.7954 20.5 15.9 19.6046 15.9 18.5Z" fill="black"/>
<path d="M12 20C12.8284 20 13.5 19.3284 13.5 18.5C13.5 17.6716 12.8284 17 12 17C11.1716 17 10.5 17.6716 10.5 18.5C10.5 19.3284 11.1716 20 12 20Z" fill="black"/>
<path fill-rule="evenodd" clip-rule="evenodd" d="M12 17.5C11.4477 17.5 11 17.9477 11 18.5C11 19.0523 11.4477 19.5 12 19.5C12.5523 19.5 13 19.0523 13 18.5C13 17.9477 12.5523 17.5 12 17.5ZM10 18.5C10 17.3954 10.8954 16.5 12 16.5C13.1046 16.5 14 17.3954 14 18.5C14 19.6046 13.1046 20.5 12 20.5C10.8954 20.5 10 19.6046 10 18.5Z" fill="black"/>
<path d="M6.09998 20C6.9284 20 7.59998 19.3284 7.59998 18.5C7.59998 17.6716 6.9284 17 6.09998 17C5.27155 17 4.59998 17.6716 4.59998 18.5C4.59998 19.3284 5.27155 20 6.09998 20Z" fill="black"/>
<path fill-rule="evenodd" clip-rule="evenodd" d="M6.09998 17.5C5.54769 17.5 5.09998 17.9477 5.09998 18.5C5.09998 19.0523 5.54769 19.5 6.09998 19.5C6.65226 19.5 7.09998 19.0523 7.09998 18.5C7.09998 17.9477 6.65226 17.5 6.09998 17.5ZM4.09998 18.5C4.09998 17.3954 4.99541 16.5 6.09998 16.5C7.20455 16.5 8.09998 17.3954 8.09998 18.5C8.09998 19.6046 7.20455 20.5 6.09998 20.5C4.99541 20.5 4.09998 19.6046 4.09998 18.5Z" fill="black"/>
</svg>
