<svg width="24" height="24" viewBox="0 0 24 24" fill="none" xmlns="http://www.w3.org/2000/svg">
<path d="M20.8 11.8C20.8 16.8 16.8 20.8 11.8 20.8C9.6 20.8 7.5 20 6 18.6L18.6 5.90002C19.9 7.50002 20.8 9.50002 20.8 11.8Z" fill="black"/>
<path fill-rule="evenodd" clip-rule="evenodd" d="M18.6556 4.77917L19.1821 5.42715C20.5678 7.1326 21.55 9.29467 21.55 11.8001C21.55 17.2143 17.2142 21.5501 11.8 21.5501C9.42373 21.5501 7.13684 20.6871 5.48827 19.1484L4.92298 18.6208L18.6556 4.77917ZM7.1082 18.548C8.3985 19.5042 10.0583 20.0501 11.8 20.0501C16.3858 20.0501 20.05 16.3859 20.05 11.8001C20.05 10.0095 19.4524 8.40655 18.5203 7.04527L7.1082 18.548Z" fill="black"/>
<path fill-rule="evenodd" clip-rule="evenodd" d="M11.8 3.55005C7.21422 3.55005 3.55 7.21426 3.55 11.8C3.55 14.0203 4.43591 16.0251 5.89096 17.5484L17.5484 5.891C16.0251 4.43596 14.0203 3.55005 11.8 3.55005ZM2.05 11.8C2.05 6.38584 6.38579 2.05005 11.8 2.05005C14.7314 2.05005 17.3291 3.35488 19.1589 5.39995L19.632 5.92869L5.92865 19.6321L5.39991 19.159C3.35484 17.3292 2.05 14.7315 2.05 11.8Z" fill="black"/>
</svg>
