<svg xmlns="http://www.w3.org/2000/svg" fill="none" viewBox="0 0 24 24">
  <path fill="#000" fill-rule="evenodd" d="m18.656 4.78.526.647c1.386 1.706 2.368 3.868 2.368 6.373a9.713 9.713 0 0 1-9.75 9.75c-2.376 0-4.663-.863-6.312-2.402l-.565-.527L18.656 4.779ZM7.108 18.547c1.29.956 2.95 1.502 4.692 1.502a8.213 8.213 0 0 0 8.25-8.25c0-1.79-.598-3.393-1.53-4.755L7.108 18.548Z" clip-rule="evenodd"/>
  <path fill="#000" d="M18.6 5.9 5.9 18.6c-1.9-1.7-3.1-4.1-3.1-6.8 0-5 4-9 9-9 2.7 0 5.1 1.2 6.8 3.1Z"/>
  <path fill="#000" fill-rule="evenodd" d="M11.8 3.55a8.213 8.213 0 0 0-8.25 8.25c0 2.22.886 4.225 2.341 5.748L17.548 5.891C16.025 4.436 14.02 3.55 11.8 3.55ZM2.05 11.8a9.713 9.713 0 0 1 9.75-9.75c2.931 0 5.53 1.305 7.359 3.35l.473.529L5.929 19.632l-.53-.473C3.356 17.329 2.05 14.732 2.05 11.8Z" clip-rule="evenodd"/>
</svg>
