<svg width="24" height="24" viewBox="0 0 24 24" fill="none" xmlns="http://www.w3.org/2000/svg">
<path fill-rule="evenodd" clip-rule="evenodd" d="M7 3.75C5.21421 3.75 3.75 5.21421 3.75 7V17C3.75 18.7858 5.21421 20.25 7 20.25H11.25V3.75H7ZM2.25 7C2.25 4.38579 4.38579 2.25 7 2.25H12.75V21.75H7C4.38579 21.75 2.25 19.6142 2.25 17V7Z" fill="black"/>
<path d="M21 7V17C21 19.2 19.2 21 17 21H12V3H17C19.2 3 21 4.7 21 7Z" fill="black"/>
<path fill-rule="evenodd" clip-rule="evenodd" d="M11.25 2.25H17C19.6019 2.25 21.75 4.27354 21.75 7V17C21.75 19.6142 19.6142 21.75 17 21.75H11.25V2.25ZM12.75 3.75V20.25H17C18.7858 20.25 20.25 18.7858 20.25 17V7C20.25 5.12646 18.7981 3.75 17 3.75H12.75Z" fill="black"/>
<path fill-rule="evenodd" clip-rule="evenodd" d="M5.55005 8C5.55005 7.58579 5.88584 7.25 6.30005 7.25H8.30005C8.71426 7.25 9.05005 7.58579 9.05005 8C9.05005 8.41421 8.71426 8.75 8.30005 8.75H6.30005C5.88584 8.75 5.55005 8.41421 5.55005 8Z" fill="black"/>
<path fill-rule="evenodd" clip-rule="evenodd" d="M5.55005 12C5.55005 11.5858 5.88584 11.25 6.30005 11.25H8.30005C8.71426 11.25 9.05005 11.5858 9.05005 12C9.05005 12.4142 8.71426 12.75 8.30005 12.75H6.30005C5.88584 12.75 5.55005 12.4142 5.55005 12Z" fill="black"/>
<path fill-rule="evenodd" clip-rule="evenodd" d="M5.55005 16C5.55005 15.5858 5.88584 15.25 6.30005 15.25H8.30005C8.71426 15.25 9.05005 15.5858 9.05005 16C9.05005 16.4142 8.71426 16.75 8.30005 16.75H6.30005C5.88584 16.75 5.55005 16.4142 5.55005 16Z" fill="black"/>
</svg>
