<svg xmlns="http://www.w3.org/2000/svg" viewBox="0 0 24 24" fill="currentColor">
  <path d="M4.47134 6.39001c0-1.78578 1.46422-3.25 3.25-3.25h7.99996c1.7858 0 3.25 1.46422 3.25 3.25V10.39c0 .4142.3358.75.75.75.4143 0 .75-.3358.75-.75V6.39001c0-2.61421-2.1357-4.75-4.75-4.75H7.72134c-2.61421 0-4.75 2.13579-4.75 4.75V14.39c0 2.6142 2.13579 4.75 4.75 4.75.41422 0 .75-.3358.75-.75s-.33578-.75-.75-.75c-1.78578 0-3.25-1.4642-3.25-3.25V6.39001ZM20.5984 17.609l-6.5574-6.1599c-.3229-.3145-.766-.3684-1.1103-.2651-.3582.1075-.7346.4333-.7582.9538l-1.0012 9.0106v.0415c0 .4382.2308.9229.7312 1.1048.541.1967 1.0372-.0794 1.3188-.4548l.0111-.0148 2.3281-3.4456 4.069 1.1355.0099.0025c1.1357.2839 1.9157-1.1907.959-1.9085Zm-7.7602 2.1203.7397-6.6572 4.8413 4.5479-2.6429-.7376c-.2346-.0969-.5035-.1209-.7711-.0138-.2154.0861-.3667.2421-.4071.2837l-.0071.0073-.0509.0508-1.7019 2.5189Z"/>
</svg>
