<svg xmlns="http://www.w3.org/2000/svg" fill="none" viewBox="0 0 24 24">
  <path fill="#000" fill-rule="evenodd" d="M8 6.25A3.262 3.262 0 0 0 4.75 9.5v8A3.262 3.262 0 0 0 8 20.75h8a3.262 3.262 0 0 0 3.25-3.25v-8A3.262 3.262 0 0 0 16 6.25a.75.75 0 0 1 0-1.5 4.762 4.762 0 0 1 4.75 4.75v8A4.762 4.762 0 0 1 16 22.25H8a4.762 4.762 0 0 1-4.75-4.75v-8A4.762 4.762 0 0 1 8 4.75a.75.75 0 0 1 0 1.5Z" clip-rule="evenodd"/>
  <path fill="#000" d="M12 5.5a1.5 1.5 0 1 0 0-3 1.5 1.5 0 0 0 0 3Z"/>
  <path fill="#000" fill-rule="evenodd" d="M12 3.25a.75.75 0 1 0 0 1.5.75.75 0 0 0 0-1.5ZM9.75 4a2.25 2.25 0 1 1 4.5 0 2.25 2.25 0 0 1-4.5 0Z" clip-rule="evenodd"/>
  <path fill="#000" fill-rule="evenodd" d="M12 4.75a.75.75 0 0 1 .75.75v2a.75.75 0 0 1-1.5 0v-2a.75.75 0 0 1 .75-.75ZM7.25 12a.75.75 0 0 1 .75-.75h8a.75.75 0 0 1 0 1.5H8a.75.75 0 0 1-.75-.75Zm0 4a.75.75 0 0 1 .75-.75h8a.75.75 0 0 1 0 1.5H8a.75.75 0 0 1-.75-.75Z" clip-rule="evenodd"/>
</svg>
