<svg xmlns="http://www.w3.org/2000/svg" viewBox="0 0 60 60" fill="currentColor">
  <path d="M43.75 56.25h-27.5c-2.6522 0-5.1957-1.0536-7.07107-2.9289C7.30357 51.4457 6.25 48.9022 6.25 46.25v-27.5c0-2.6522 1.05357-5.1957 2.92893-7.0711C11.0543 9.80357 13.5978 8.75 16.25 8.75h27.5c2.6522 0 5.1957 1.05357 7.0711 2.9289 1.8753 1.8754 2.9289 4.4189 2.9289 7.0711v27.5c0 2.6522-1.0536 5.1957-2.9289 7.0711-1.8754 1.8753-4.4189 2.9289-7.0711 2.9289Zm-27.5-42.5c-1.3261 0-2.5979.5268-3.5355 1.4645-.9377.9376-1.4645 2.2094-1.4645 3.5355v27.5c0 1.3261.5268 2.5979 1.4645 3.5355.9376.9377 2.2094 1.4645 3.5355 1.4645h27.5c1.3261 0 2.5979-.5268 3.5355-1.4645.9377-.9376 1.4645-2.2094 1.4645-3.5355v-27.5c0-1.3261-.5268-2.5979-1.4645-3.5355-.9376-.9377-2.2094-1.4645-3.5355-1.4645h-27.5Z"/>
  <path d="M20 18.75c-.663 0-1.2989-.2634-1.7678-.7322-.4688-.4689-.7322-1.1048-.7322-1.7678v-10c0-.66304.2634-1.29893.7322-1.76777C18.7011 4.01339 19.337 3.75 20 3.75s1.2989.26339 1.7678.73223c.4688.46884.7322 1.10473.7322 1.76777v10c0 .663-.2634 1.2989-.7322 1.7678-.4689.4688-1.1048.7322-1.7678.7322Zm10 0c-.663 0-1.2989-.2634-1.7678-.7322-.4688-.4689-.7322-1.1048-.7322-1.7678v-10c0-.66304.2634-1.29893.7322-1.76777C28.7011 4.01339 29.337 3.75 30 3.75s1.2989.26339 1.7678.73223c.4688.46884.7322 1.10473.7322 1.76777v10c0 .663-.2634 1.2989-.7322 1.7678-.4689.4688-1.1048.7322-1.7678.7322Zm10 0c-.663 0-1.2989-.2634-1.7678-.7322-.4688-.4689-.7322-1.1048-.7322-1.7678v-10c0-.66304.2634-1.29893.7322-1.76777C38.7011 4.01339 39.337 3.75 40 3.75s1.2989.26339 1.7678.73223c.4688.46884.7322 1.10473.7322 1.76777v10c0 .663-.2634 1.2989-.7322 1.7678-.4689.4688-1.1048.7322-1.7678.7322Z"/>
</svg>
