<svg xmlns="http://www.w3.org/2000/svg" viewBox="0 0 24 24" fill="currentColor">
  <path d="M7 3.75C5.11421 3.75 3.75 5.11421 3.75 7v10c0 1.7858 1.46421 3.25 3.25 3.25h4.25V3.75H7Zm10 16.5h-4.25V3.75H17c1.7858 0 3.25 1.46421 3.25 3.25v10c0 1.7858-1.4642 3.25-3.25 3.25ZM2.25 7c0-2.71421 2.03579-4.75 4.75-4.75h10c2.6142 0 4.75 2.13579 4.75 4.75v10c0 2.6142-2.1358 4.75-4.75 4.75H7c-2.61421 0-4.75-2.1358-4.75-4.75V7Zm4.0498.25c-.41421 0-.75.33579-.75.75s.33579.75.75.75h2c.41422 0 .75-.33579.75-.75s-.33578-.75-.75-.75h-2Zm-.75 4.75c0-.4142.33579-.75.75-.75h2c.41422 0 .75.3358.75.75s-.33578.75-.75.75h-2c-.41421 0-.75-.3358-.75-.75Zm.75 3.25c-.41421 0-.75.3358-.75.75s.33579.75.75.75h2c.41422 0 .75-.3358.75-.75s-.33578-.75-.75-.75h-2Z"/>
</svg>
