<svg xmlns="http://www.w3.org/2000/svg" fill="none" viewBox="0 0 24 24">
  <path fill="#000" d="M17.312 6.464v7c0 2.1-1.7 3.8-3.8 3.8h-7c-2.1 0-3.8-1.7-3.8-3.8v-7c0-2.1 1.7-3.8 3.8-3.8h7c2.1 0 3.8 1.7 3.8 3.8Z"/>
  <path fill="#000" fill-rule="evenodd" d="M6.512 3.414a3.048 3.048 0 0 0-3.05 3.05v7a3.048 3.048 0 0 0 3.05 3.05h7a3.048 3.048 0 0 0 3.05-3.05v-7a3.048 3.048 0 0 0-3.05-3.05h-7Zm-4.55 3.05a4.548 4.548 0 0 1 4.55-4.55h7a4.548 4.548 0 0 1 4.55 4.55v7a4.548 4.548 0 0 1-4.55 4.55h-7a4.548 4.548 0 0 1-4.55-4.55v-7Z" clip-rule="evenodd"/>
  <path fill="#000" fill-rule="evenodd" d="M16.576 6.617a.75.75 0 0 1 .883-.589l1.013.203.014.003c2.514.599 3.933 3.002 3.463 5.47l-.002.01-1.505 6.822-.003.01c-.597 2.388-2.98 3.928-5.467 3.455l-.011-.003-6.806-1.5-.003-.001C6.45 20.13 5.268 18.805 4.8 17.4a.75.75 0 0 1 1.423-.474c.332.995 1.151 1.869 2.246 2.104h.004l6.79 1.498c1.704.32 3.313-.735 3.719-2.337l1.495-6.779c.323-1.723-.652-3.311-2.326-3.717l-.986-.197a.75.75 0 0 1-.588-.882Z" clip-rule="evenodd"/>
</svg>
