<svg xmlns="http://www.w3.org/2000/svg" fill="none" viewBox="0 0 24 24">
  <path fill="#000" fill-rule="evenodd" d="M7 3.75C5.114 3.75 3.75 5.114 3.75 7v10A3.262 3.262 0 0 0 7 20.25h4.25V3.75H7Zm10 16.5h-4.25V3.75H17A3.262 3.262 0 0 1 20.25 7v10A3.262 3.262 0 0 1 17 20.25ZM2.25 7c0-2.714 2.036-4.75 4.75-4.75h10A4.762 4.762 0 0 1 21.75 7v10A4.762 4.762 0 0 1 17 21.75H7A4.762 4.762 0 0 1 2.25 17V7Zm4.05.25a.75.75 0 0 0 0 1.5h2a.75.75 0 1 0 0-1.5h-2ZM5.55 12a.75.75 0 0 1 .75-.75h2a.75.75 0 0 1 0 1.5h-2a.75.75 0 0 1-.75-.75Zm.75 3.25a.75.75 0 0 0 0 1.5h2a.75.75 0 0 0 0-1.5h-2Z" clip-rule="evenodd"/>
</svg>
