<svg width="24" height="24" viewBox="0 0 24 24" fill="none" xmlns="http://www.w3.org/2000/svg">
<path d="M12.25 12.2L11.25 21.2C11.25 21.6 11.65 21.8 11.95 21.4L14.45 17.7C14.55 17.6 14.65 17.5 14.85 17.6L19.15 18.8C19.55 18.9 19.75 18.4 19.45 18.2L12.85 12C12.65 11.8 12.25 11.9 12.25 12.2Z" fill="black"/>
<path fill-rule="evenodd" clip-rule="evenodd" d="M13.3698 11.4592L19.9271 17.6191C20.8839 18.3369 20.1037 19.8115 18.9681 19.5276L18.9582 19.5251L14.8892 18.3896L12.5611 21.8352L12.55 21.85C12.2684 22.2254 11.7722 22.5016 11.2312 22.3048C10.7308 22.1229 10.5 21.6382 10.5 21.2V21.1585L11.5012 12.1479C11.5249 11.6274 11.9013 11.3016 12.2595 11.1941C12.6038 11.0908 13.0469 11.1447 13.3698 11.4592ZM12.9066 13.0822L12.1669 19.7393L13.8688 17.2205L13.9197 17.1697C13.9214 17.1679 13.9238 17.1655 13.9268 17.1624C13.9672 17.1207 14.1186 16.9648 14.334 16.8786C14.6015 16.7716 14.8704 16.7956 15.105 16.8925L17.7479 17.63L12.9066 13.0822Z" fill="black"/>
<path fill-rule="evenodd" clip-rule="evenodd" d="M8.05005 3.14999C6.26426 3.14999 4.80005 4.61421 4.80005 6.39999V14.4C4.80005 16.1858 6.26426 17.65 8.05005 17.65C8.46426 17.65 8.80005 17.9858 8.80005 18.4C8.80005 18.8142 8.46426 19.15 8.05005 19.15C5.43584 19.15 3.30005 17.0142 3.30005 14.4V6.39999C3.30005 3.78578 5.43584 1.64999 8.05005 1.64999H16.05C18.6643 1.64999 20.8 3.78578 20.8 6.39999V10.4C20.8 10.8142 20.4643 11.15 20.05 11.15C19.6358 11.15 19.3 10.8142 19.3 10.4V6.39999C19.3 4.61421 17.8358 3.14999 16.05 3.14999H8.05005Z" fill="black"/>
</svg>
