<svg xmlns="http://www.w3.org/2000/svg" viewBox="0 0 24 24" fill="currentColor">
  <path d="M8 3.75006c-1.78579 0-3.25 1.46421-3.25 3.25v8.00004c0 1.7857 1.46421 3.25 3.25 3.25.41421 0 .75.3357.75.75 0 .4142-.33579.75-.75.75-2.61421 0-4.75-2.1358-4.75-4.75V7.00006c0-2.61421 2.13579-4.75 4.75-4.75h8c2.6142 0 4.75 2.13579 4.75 4.75v5.00004c0 .4142-.3358.75-.75.75s-.75-.3358-.75-.75V7.00006c0-1.78579-1.4642-3.25-3.25-3.25H8ZM14.6999 13.65c-1.6845 0-3.05 1.3655-3.05 3.05 0 1.6844 1.3655 3.0499 3.05 3.0499 1.6845 0 3.05-1.3655 3.05-3.0499 0-1.6845-1.3655-3.05-3.05-3.05Zm-4.55 3.05c0-2.5129 2.0371-4.55 4.55-4.55 2.5129 0 4.55 2.0371 4.55 4.55 0 .9857-.3135 1.8981-.8461 2.6432l1.1264 1.1264c.2929.2929.2929.7678 0 1.0607-.2929.2929-.7678.2929-1.0607 0l-1.1264-1.1264c-.745.5326-1.6575.846-2.6432.846-2.5129 0-4.55-2.0371-4.55-4.5499Z"/>
</svg>
