<svg xmlns="http://www.w3.org/2000/svg" viewBox="0 0 24 24" fill="currentColor">
  <path d="M5.75 6c0-1.28579.96421-2.25 2.25-2.25h8c1.2858 0 2.25.96421 2.25 2.25v12c0 1.2858-.9642 2.25-2.25 2.25H8c-1.28579 0-2.25-.9642-2.25-2.25V6ZM8 2.25C5.88579 2.25 4.25 3.88579 4.25 6v12c0 2.1142 1.63579 3.75 3.75 3.75h8c2.1142 0 3.75-1.6358 3.75-3.75V6c0-2.11421-1.6358-3.75-3.75-3.75H8ZM8.75 7c0-.12956.03991-.17925.05533-.19467C8.82075 6.78991 8.87044 6.75 9 6.75h6c.1296 0 .1793.03991.1947.05533.0154.01542.0553.06511.0553.19467v3c0 .0061-.0106.0749-.0928.1572-.0823.0822-.1511.0928-.1572.0928H9c-.12956 0-.17925-.0399-.19467-.0553C8.78991 10.1793 8.75 10.1296 8.75 10V7ZM9 5.25c-.47044 0-.92075.16009-1.25533.49467C7.41009 6.07925 7.25 6.52956 7.25 7v3c0 .4704.16009.9207.49467 1.2553.33458.3346.78489.4947 1.25533.4947h6c.4939 0 .9251-.2394 1.2178-.5322.2928-.2927.5322-.7239.5322-1.2178V7c0-.47044-.1601-.92075-.4947-1.25533C15.9207 5.41009 15.4704 5.25 15 5.25H9Z"/>
</svg>
