<svg xmlns="http://www.w3.org/2000/svg" viewBox="0 0 24 24" fill="currentColor">
  <path d="M12 3.25c-.4142 0-.75.33579-.75.75s.3358.75.75.75.75-.33579.75-.75-.3358-.75-.75-.75Zm.75 2.87197c.8739-.30888 1.5-1.14231 1.5-2.12197 0-1.24264-1.0074-2.25-2.25-2.25S9.75 2.75736 9.75 4c0 .97966.6261 1.81309 1.5 2.12197V7.5c0 .41421.3358.75.75.75s.75-.33579.75-.75V6.12197ZM8 6.25c-1.78579 0-3.25 1.46421-3.25 3.25v8c0 1.7858 1.46421 3.25 3.25 3.25h8c1.7858 0 3.25-1.4642 3.25-3.25v-8c0-1.78579-1.4642-3.25-3.25-3.25-.4142 0-.75-.33579-.75-.75s.3358-.75.75-.75c2.6142 0 4.75 2.13579 4.75 4.75v8c0 2.6142-2.1358 4.75-4.75 4.75H8c-2.61421 0-4.75-2.1358-4.75-4.75v-8c0-2.61421 2.13579-4.75 4.75-4.75.41421 0 .75.33579.75.75s-.33579.75-.75.75Z"/>
</svg>
