<svg xmlns="http://www.w3.org/2000/svg" viewBox="0 0 24 24" fill="currentColor">
  <path d="m18.9877 3.31665-6.8054-1.60126c-1.923-.4778-3.82541.65043-4.42672 2.47895H5.90576c-2.11421 0-3.75 1.63578-3.75 3.75V18.6443c0 2.1143 1.63579 3.75 3.75 3.75h7.00004c1.0768 0 2.182-.4689 2.8778-1.2977 1.6146-.0844 2.997-1.2841 3.4433-2.8462l.0044-.0153 2.5029-10.41238c.502-2.01598-.7614-4.00977-2.7465-4.50607Zm-3.23 16.27765c.8948-.0744 1.7356-.7582 2.0228-1.7417l2.4976-10.39018c.2953-1.18129-.4387-2.38396-1.6496-2.68931L11.8238 3.172c-1.1828-.29571-2.38704.44057-2.69047 1.6542l-.09997.39999-.11694-.02923-2.38299 9.92924c-.29533 1.1813.43871 2.384 1.64957 2.6894l7.0023 1.6476.1301.1301c.0075.0003.0164.0006.0271.0007.0181.0003.0373.0003.0633.0003h.3519ZM3.65576 7.94434c0-1.28579.96422-2.25 2.25-2.25h1.3487L5.07727 14.7661c-.50187 2.0159.76146 4.0096 2.74661 4.5059l6.03862 1.4209c-.2929.1279-.6214.2014-.9567.2014H5.90576c-1.28578 0-2.25-.9642-2.25-2.25V7.94434Z"/>
</svg>
