<svg xmlns="http://www.w3.org/2000/svg" viewBox="0 0 24 24" fill="currentColor">
  <path d="M4.75 10.5c0-3.98579 3.26421-7.25 7.25-7.25 3.9858 0 7.25 3.26421 7.25 7.25v4c0 1.7858-1.4642 3.25-3.25 3.25H8c-1.78579 0-3.25-1.4642-3.25-3.25v-4ZM12 1.75c-4.81421 0-8.75 3.93579-8.75 8.75v4c0 2.6142 2.13579 4.75 4.75 4.75h.7592c.1249 1.6944 1.5108 3 3.2408 3 1.7301 0 3.116-1.3056 3.2409-3H16c2.6142 0 4.75-2.1358 4.75-4.75v-4c0-4.81421-3.9358-8.75-8.75-8.75Zm1.7333 17.5h-3.4665c.1168.862.8325 1.5 1.7332 1.5.9007 0 1.6164-.638 1.7333-1.5Z"/>
</svg>
