<svg xmlns="http://www.w3.org/2000/svg" viewBox="0 0 24 24" fill="currentColor">
  <path d="M12.05 3.6c-3.48583 0-6.35005 2.86421-6.35005 6.35v3.6c0 .2873.0711.5915.17308 1 .08192.2949-.02518.6125-.26946.7975-.03985.0303-.08308.0568-.12929.0789-.09911.0496-.17603.0884-.23963.1248-.03157.018-.05202.0311-.06412.0395l-.00106.0007c-.22148.229-.36942.6147-.36942 1.0586 0 .7858.66421 1.45 1.45 1.45H17.75c.4512 0 .8422-.1528 1.0697-.3803.2275-.2275.3803-.6186.3803-1.0697 0-.5287-.2534-.9752-.7088-1.2412-.132-.0717-.237-.1806-.3049-.3095-.0678-.1286-.0986-.2772-.0822-.4288.0041-.0387.0112-.0773.0215-.1155.0405-.1585.1008-.3399.1478-.4815h.0001c.0189-.0569.0356-.1073.0481-.1472.057-.1824.0784-.2937.0784-.3763v-3.6c0-1.68996-.713-3.30225-1.8804-4.46967C15.348 4.30867 13.8343 3.6 12.05 3.6Zm7.6762 10.8591c.0086-.0269.0177-.0552.0271-.0854.068-.2176.1467-.5063.1467-.8237v-3.6c0-2.11005-.8871-4.09775-2.3197-5.53033C16.1519 2.99133 14.2656 2.1 12.05 2.1c-4.31426 0-7.85005 3.53579-7.85005 7.85v3.6c0 .2858.04007.5662.09215.8248-.05798.0417-.11751.09-.17238.1449-.57248.5724-.81967 1.3814-.81967 2.1303 0 1.6142 1.33578 2.95 2.95 2.95h2.7236c.30059 1.3077 1.48505 2.3 2.87635 2.3s2.5758-.9923 2.8764-2.3H17.75c.7489 0 1.5579-.2472 2.1304-.8197.5725-.5724.8197-1.3814.8197-2.1303 0-.8572-.3501-1.6392-.9739-2.1909ZM13.1404 19.6h-2.5808c.2431.47.7365.8 1.2904.8s1.0474-.33 1.2904-.8Z"/>
</svg>
