<svg xmlns="http://www.w3.org/2000/svg" viewBox="0 0 24 24" fill="currentColor">
  <path d="M3.19995 10.65c0-4.81422 3.93579-8.75 8.75005-8.75 1.2101 0 2.4162.27631 3.4575.74702.4589-.34333 1.0278-.54703 1.6425-.54703 1.5143 0 2.75 1.23579 2.75 2.75 0 .43579-.1023.8485-.2842 1.21534.7798 1.30522 1.2841 2.85861 1.2841 4.58467v4c0 2.6142-2.1357 4.75-4.7499 4.75h-.895c-.2563 1.5461-1.5786 2.7-3.205 2.7-1.6265 0-2.94878-1.1539-3.20508-2.7h-.79497c-2.61421 0-4.75-2.1358-4.75-4.75v-4ZM18.4437 7.21901c-.4092.24194-.8857.38098-1.3937.38098-1.6388 0-2.75-1.26081-2.75-2.75 0-.34039.0625-.66671.1765-.96808C13.6985 3.57711 12.8227 3.4 11.95 3.4c-3.98584 0-7.25005 3.26421-7.25005 7.25v4c0 1.7858 1.46421 3.25 3.25 3.25H16.05c1.7857 0 3.2499-1.4642 3.2499-3.25v-4c0-1.26221-.3256-2.41946-.8562-3.43099ZM11.95 20.6c-.7926 0-1.442-.494-1.6661-1.2h3.3321c-.2241.706-.8735 1.2-1.666 1.2ZM15.8 4.84999c0-.68578.5643-1.25 1.25-1.25.6858 0 1.25.56422 1.25 1.25 0 .68579-.5642 1.25-1.25 1.25-.7611 0-1.25-.53918-1.25-1.25Z"/>
</svg>
