<svg xmlns="http://www.w3.org/2000/svg" viewBox="0 0 24 24" fill="currentColor">
  <path d="M12.05 3.65c-3.48583 0-6.35005 2.86422-6.35005 6.35v3.6c0 .2873.0711.5915.17308 1 .08192.2949-.02518.6125-.26946.7975-.03985.0303-.08308.0568-.12929.0789-.09911.0496-.17603.0884-.23963.1248-.03157.018-.05202.0311-.06412.0395l-.00106.0007c-.22148.229-.36942.6147-.36942 1.0586 0 .7858.66421 1.45 1.45 1.45H17.75c.4512 0 .8422-.1528 1.0697-.3803.2275-.2275.3803-.6186.3803-1.0697 0-.529-.2537-.9758-.7097-1.2417-.1437-.0784-.2555-.2009-.3219-.3454-.0505-.1098-.0748-.2322-.0672-.3577.003-.0509.0113-.1018.0249-.152.0202-.0804.0388-.1521.0556-.2173.0768-.297.1183-.4574.1183-.6859v-3.6c0-.82398-.1576-1.63837-.4643-2.36473-.2491.07463-.5129.11474-.7857.11474-1.6388 0-2.75-1.26081-2.75-2.75 0-.33751.0614-.66119.1736-.96043C13.7325 3.81632 12.8963 3.65 12.05 3.65Zm7.6529 10.8387c.0534-.2341.0971-.496.0971-.7887v-3.6c0-1.09246-.2255-2.19619-.6874-3.18461.4275-.48499.6874-1.1209.6874-1.81538 0-1.51422-1.2357-2.75-2.75-2.75-.6234 0-1.1996.20948-1.6618.56162C14.3612 2.39959 13.1994 2.15 12.05 2.15c-4.31426 0-7.85005 3.53579-7.85005 7.85v3.6c0 .2858.04007.5662.09215.8248-.05798.0417-.11751.09-.17238.1449-.57248.5725-.81967 1.3814-.81967 2.1303 0 1.6142 1.33578 2.95 2.95 2.95h2.74847c.33663 1.2579 1.49588 2.2 2.85148 2.2s2.5149-.9421 2.8515-2.2H17.75c.7489 0 1.5579-.2472 2.1304-.8197.5725-.5724.8197-1.3814.8197-2.1303 0-.8678-.3589-1.6585-.9972-2.2113ZM13.0836 19.65h-2.4672c.2582.4161.7199.7 1.2336.7s.9755-.2839 1.2336-.7Zm4.8487-13.66788c-.0577.01754-.1141.04235-.1682.07476-.0828.04968-.1525.11282-.2081.18494-.155.06947-.3263.10819-.506.10819-.7611 0-1.25-.53919-1.25-1.25 0-.68579.5643-1.25 1.25-1.25.6858 0 1.25.56421 1.25 1.25 0 .34286-.141.65534-.3677.88211Z"/>
</svg>
