<svg xmlns="http://www.w3.org/2000/svg" viewBox="0 0 24 24" fill="currentColor">
  <path d="M3.25 10.5c0-4.81421 3.93579-8.75 8.75-8.75.4142 0 .75.33579.75.75s-.3358.75-.75.75c-3.98579 0-7.25 3.26421-7.25 7.25v4c0 1.7858 1.46421 3.25 3.25 3.25h8c1.7858 0 3.25-1.4642 3.25-3.25v-4c0-.4142.3358-.75.75-.75s.75.3358.75.75v4c0 2.6142-2.1358 4.75-4.75 4.75h-.8592c-.1249 1.6944-1.5108 3-3.2408 3-1.73 0-3.11594-1.3056-3.24083-3H8c-2.61421 0-4.75-2.1358-4.75-4.75v-4Zm8.65 10.25c-.9007 0-1.6164-.638-1.7333-1.5h3.4666c-.1169.862-.8326 1.5-1.7333 1.5ZM16.75 4.5c0-.69036.5596-1.25 1.25-1.25s1.25.55964 1.25 1.25-.5596 1.25-1.25 1.25-1.25-.55964-1.25-1.25ZM18 1.75c-1.5188 0-2.75 1.23122-2.75 2.75S16.4812 7.25 18 7.25s2.75-1.23122 2.75-2.75S19.5188 1.75 18 1.75Z"/>
</svg>
