<svg xmlns="http://www.w3.org/2000/svg" viewBox="0 0 24 24" fill="currentColor">
  <path d="M12.05 3.59999c-3.48583 0-6.35005 2.86422-6.35005 6.35001v3.6c0 .2915.07321.6005.17761 1.0181.0194.0776.02594.1554.02097.2312.01969.2926-.13434.5821-.41307.7215-.10454.0523-.18483.0927-.25081.1304-.03157.018-.05201.0311-.06412.0395l-.00106.0007c-.22148.229-.36942.6147-.36942 1.0586 0 .7858.66421 1.45 1.45 1.45H17.75c.4512 0 .8422-.1528 1.0697-.3803.2275-.2276.3803-.6186.3803-1.0697 0-.5038-.2339-.8833-.6528-1.1671-.1296-.0824-.2293-.2023-.288-.3408-.0474-.1119-.0681-.236-.056-.3625.004-.0425.0116-.0849.023-.1266.1024-.41.1738-.715.1738-1.003v-3.6c0-.41422.3358-.75.75-.75s.75.33578.75.75v3.6c0 .3177-.0495.6285-.1099.9104.5457.509.91 1.2106.91 2.0896 0 .7489-.2472 1.5578-.8197 2.1303S18.4989 19.7 17.75 19.7h-3.0485c-.3366 1.2579-1.4959 2.2-2.8515 2.2-1.3556 0-2.51485-.9421-2.85148-2.2H6.25005c-1.61421 0-2.95-1.3358-2.95-2.95 0-.7489.24719-1.5579.81967-2.1303.06061-.0606.1269-.1132.19051-.1578-.06061-.2822-.11028-.5937-.11028-.9119v-3.6c0-4.31422 3.53579-7.85001 7.85005-7.85001.4142 0 .75.33579.75.75 0 .41422-.3358.75-.75.75ZM10.6164 19.7c.2582.4161.7199.7 1.2336.7s.9755-.2839 1.2336-.7h-2.4672ZM14.3 5.04999c0-1.51421 1.2358-2.75 2.75-2.75 1.5143 0 2.75 1.23579 2.75 2.75 0 1.51422-1.2357 2.75-2.75 2.75-1.6388 0-2.75-1.26081-2.75-2.75Zm2.75-1.25c-.6857 0-1.25.56422-1.25 1.25 0 .71081.4889 1.25 1.25 1.25.6858 0 1.25-.56421 1.25-1.25 0-.68578-.5642-1.25-1.25-1.25Z"/>
</svg>
