<svg xmlns="http://www.w3.org/2000/svg" viewBox="0 0 24 24" fill="currentColor">
  <path d="M6.84734 3.39196C7.52095 2.60366 8.54156 2.25 9.5 2.25h5c.9585 0 1.979.35367 2.6526 1.14196l3.4554 3.45541c.7883.67359 1.142 1.69416 1.142 2.65263v5c0 1.0119-.3885 1.8992-1.1197 2.6303l-3.4777 3.4777c-.6736.7883-1.6941 1.142-2.6526 1.142h-5c-1.01191 0-1.89918-.3885-2.63037-1.1197l-3.4777-3.4777C2.60362 16.479 2.25 15.4584 2.25 14.5v-5c0-1.01189.38843-1.89913 1.11963-2.63034l3.47771-3.4777ZM9.5 3.75c-.63033 0-1.19709.23799-1.52387.63013l-.02178.02614-3.52406 3.52405C3.9615 8.39912 3.75 8.91189 3.75 9.5v5c0 .6303.23797 1.197.6301 1.5238l.02614.0218 3.52405 3.5241c.46882.4688.98162.6803 1.56971.6803h5c.6303 0 1.197-.238 1.5238-.6301l.0218-.0262 3.524-3.524c.4689-.4689.6804-.9816.6804-1.5697v-5c0-.63029-.238-1.19704-.6302-1.52384l-.0261-.02178-3.5481-3.54811-.0218-.02614C15.697 3.98798 15.1303 3.75 14.5 3.75h-5Z"/>
</svg>
