<svg width="24" height="24" viewBox="0 0 24 24" fill="none" xmlns="http://www.w3.org/2000/svg">
<path d="M14.2 2.80005H9.19999C8.39999 2.80005 7.59999 3.10005 7.09999 3.70005L3.59999 7.10005C3.09999 7.70005 2.79999 8.50005 2.79999 9.30005V14.3C2.79999 15.1 3.09999 15.9 3.69999 16.4L7.19999 19.9C7.79999 20.5 8.49999 20.8 9.29999 20.8H14.3C15.1 20.8 15.9 20.5 16.4 19.9L19.9 16.4C20.5 15.8 20.8 15.1 20.8 14.3V9.30005C20.8 8.50005 20.5 7.70005 19.9 7.20005L16.4 3.70005C15.8 3.10005 15 2.80005 14.2 2.80005Z" fill="black"/>
<path fill-rule="evenodd" clip-rule="evenodd" d="M6.55116 3.18757C7.2248 2.40239 8.24333 2.05005 9.19999 2.05005H14.2C15.1855 2.05005 16.1805 2.41987 16.9303 3.16972L20.408 6.64743C21.1963 7.32102 21.55 8.34159 21.55 9.30005V14.3C21.55 15.312 21.1615 16.1992 20.4303 16.9304L16.9526 20.4081C16.279 21.1964 15.2584 21.55 14.3 21.55H9.29999C8.28807 21.55 7.40084 21.1616 6.66966 20.4304L3.19195 16.9527C2.40366 16.2791 2.04999 15.2585 2.04999 14.3V9.30005C2.04999 8.32029 2.41429 7.35135 3.02382 6.61991L3.04909 6.58959L6.55116 3.18757ZM9.19999 3.55005C8.56968 3.55005 8.00295 3.78804 7.67615 4.18019L7.65089 4.21051L4.15274 7.60871C3.77628 8.07418 3.54999 8.69231 3.54999 9.30005V14.3C3.54999 14.9304 3.78798 15.4971 4.18013 15.8239L4.20626 15.8457L7.73032 19.3697C8.19913 19.8385 8.7119 20.05 9.29999 20.05H14.3C14.9303 20.05 15.497 19.8121 15.8238 19.4199L15.8456 19.3938L19.3697 15.8697C19.8385 15.4009 20.05 14.8881 20.05 14.3V9.30005C20.05 8.66974 19.812 8.10301 19.4198 7.77621L19.3937 7.75444L15.8697 4.23038C15.4195 3.78023 14.8145 3.55005 14.2 3.55005H9.19999Z" fill="black"/>
</svg>
