<svg xmlns="http://www.w3.org/2000/svg" fill="none" viewBox="0 0 24 24">
  <path fill="#000" fill-rule="evenodd" d="M5.886 5.411C4.42 6.78 3.453 8.911 3.5 11.99V12c0 2.25 1.155 4.515 2.907 6.197 1.751 1.68 4 2.684 6.083 2.555 1.215-.118 2.016-.392 2.606-.774.588-.38 1.028-.908 1.456-1.643.332-.57.635-1.222.994-1.997.117-.252.24-.517.373-.797.528-1.12 1.175-2.408 2.1-3.847.545-.846.619-1.735.35-2.635-.276-.925-.922-1.873-1.835-2.74-1.84-1.745-4.563-2.969-6.784-2.969-2.308 0-4.384.683-5.864 2.061ZM4.864 4.314C6.684 2.618 9.158 1.85 11.75 1.85c2.679 0 5.756 1.427 7.816 3.381 1.037.984 1.866 2.147 2.24 3.398.381 1.275.28 2.624-.525 3.877-.875 1.361-1.49 2.585-2.006 3.675-.118.25-.233.497-.345.74-.368.792-.711 1.532-1.082 2.17-.497.852-1.082 1.593-1.937 2.147-.853.551-1.91.876-3.29 1.009h-.011l-.012.002c-2.614.166-5.26-1.08-7.23-2.97C3.397 17.387 2.002 14.754 2 12.006c-.051-3.42 1.032-5.986 2.864-7.692Z" clip-rule="evenodd"/>
  <path fill="#000" fill-rule="evenodd" d="M11.55 10.15a1.55 1.55 0 1 0 0 3.1 1.55 1.55 0 0 0 0-3.1ZM8.5 11.7a3.05 3.05 0 1 1 6.1 0 3.05 3.05 0 0 1-6.1 0Z" clip-rule="evenodd"/>
</svg>
