<svg xmlns="http://www.w3.org/2000/svg" fill="none" viewBox="0 0 24 24">
  <path fill="#000" fill-rule="evenodd" d="M4.998 3.2c-.586 0-1.05.464-1.05 1.05v9.2c0 1.37 1.149 2.45 2.45 2.45h11.3c1.31 0 2.425-1.078 2.35-2.408V4.25c0-.586-.465-1.05-1.05-1.05h-14Zm-2.55 1.05a2.543 2.543 0 0 1 2.55-2.55h14a2.543 2.543 0 0 1 2.55 2.55v9.18c.112 2.26-1.767 3.97-3.85 3.97h-11.3c-2.1 0-3.95-1.72-3.95-3.95v-9.2Z" clip-rule="evenodd"/>
  <path fill="#000" fill-rule="evenodd" d="M3.298 11.6h17.6v1.5h-17.6v-1.5Zm7.65 5.05v3.1c0 .534.51 1.05 1.15 1.05.585 0 1.05-.464 1.05-1.05v-3.1h1.5v3.1a2.543 2.543 0 0 1-2.55 2.55c-1.361 0-2.65-1.084-2.65-2.55v-3.1h1.5Z" clip-rule="evenodd"/>
</svg>
