<svg xmlns="http://www.w3.org/2000/svg" fill="none" viewBox="0 0 24 24">
  <path fill="#000" fill-rule="evenodd" d="M2.5 11.6h19v1.85c0 2.199-1.72 3.95-3.85 3.95H6.35c-2.13 0-3.85-1.751-3.85-3.95V11.6ZM4 13.1v.35c0 1.401 1.08 2.45 2.35 2.45h11.3c1.27 0 2.35-1.049 2.35-2.45v-.35H4Z" clip-rule="evenodd"/>
  <path fill="#000" d="M20.75 4.25v8.1H3.25v-8.1c0-1 .8-1.8 1.8-1.8h14c.9.1 1.7.8 1.7 1.8Z"/>
  <path fill="#000" fill-rule="evenodd" d="M5.05 3.2C4.464 3.2 4 3.664 4 4.25v7.35h16V4.25c0-.535-.419-.97-.996-1.05H5.05ZM2.5 4.25A2.543 2.543 0 0 1 5.05 1.7h14.041l.042.005c1.204.133 2.367 1.09 2.367 2.545v8.85h-19V4.25Z" clip-rule="evenodd"/>
  <path fill="#000" fill-rule="evenodd" d="M20.75 11.6h.1v1.5h-.1v-1.5Z" clip-rule="evenodd"/>
  <path fill="#000" d="M13.85 16.65v3.1c0 1-.8 1.8-1.8 1.8s-1.9-.8-1.9-1.8v-3.1h3.7Z"/>
  <path fill="#000" fill-rule="evenodd" d="M9.4 15.9h5.2v3.85a2.543 2.543 0 0 1-2.55 2.55c-1.36 0-2.65-1.084-2.65-2.55V15.9Zm1.5 1.5v2.35c0 .534.51 1.05 1.15 1.05.586 0 1.05-.464 1.05-1.05V17.4h-2.2Z" clip-rule="evenodd"/>
</svg>
