<svg xmlns="http://www.w3.org/2000/svg" fill="none" viewBox="0 0 24 24">
  <path fill="#000" fill-rule="evenodd" d="M6.55 3.75c-.986 0-1.75.764-1.75 1.75s.764 1.75 1.75 1.75h9c.42 0 .862-.197 1.207-.543.346-.345.543-.787.543-1.207 0-.986-.764-1.75-1.75-1.75h-9ZM3.3 5.5a3.226 3.226 0 0 1 3.25-3.25h9A3.226 3.226 0 0 1 18.8 5.5c0 .88-.403 1.688-.982 2.268-.58.58-1.388.982-2.268.982h-9A3.226 3.226 0 0 1 3.3 5.5Zm7.073 11.324A.27.27 0 0 0 10.3 17v3c0 .08.03.135.074.177a.27.27 0 0 0 .176.073h1c.006 0 .075-.01.157-.093.082-.082.093-.15.093-.157v-3c0-.08-.03-.135-.074-.177a.27.27 0 0 0-.176-.073h-1c-.08 0-.135.03-.177.074ZM8.8 17c0-.865.688-1.75 1.75-1.75h1c.865 0 1.75.688 1.75 1.75v3c0 .494-.24.925-.532 1.218-.293.293-.724.532-1.218.532h-1c-.865 0-1.75-.688-1.75-1.75v-3Z" clip-rule="evenodd"/>
  <path fill="#000" fill-rule="evenodd" d="M18.15 4.55A2.543 2.543 0 0 1 20.7 7.1v3c0 1.897-1.518 3.55-3.55 3.55h-4.1c-.66 0-1.15.538-1.15 1.15V16h-1.5v-1.2c0-1.388 1.11-2.65 2.65-2.65h4.1c1.168 0 2.05-.947 2.05-2.05v-3c0-.586-.464-1.05-1.05-1.05v-1.5Z" clip-rule="evenodd"/>
</svg>
