<svg xmlns="http://www.w3.org/2000/svg" fill="none" viewBox="0 0 24 24">
  <path fill="#000" fill-rule="evenodd" d="M18.45 17.5v-11h1.5v11h-1.5Zm-14.4-2v-7h1.5v7h-1.5Zm2.316-9.438 11-2 .268 1.476-11 2-.268-1.476Zm.268 10.4 11 2-.268 1.476-11-2 .268-1.476Z" clip-rule="evenodd"/>
  <path fill="#000" d="M4.8 18.9a1.7 1.7 0 1 0 0-3.4 1.7 1.7 0 0 0 0 3.4Z"/>
  <path fill="#000" fill-rule="evenodd" d="M4.8 16.25a.95.95 0 1 0 0 1.9.95.95 0 0 0 0-1.9Zm-2.45.95a2.45 2.45 0 1 1 4.9 0 2.45 2.45 0 0 1-4.9 0Z" clip-rule="evenodd"/>
  <path fill="#000" d="M19.2 20.9a1.7 1.7 0 1 0 0-3.4 1.7 1.7 0 0 0 0 3.4Z"/>
  <path fill="#000" fill-rule="evenodd" d="M19.2 18.25a.95.95 0 1 0 0 1.9.95.95 0 0 0 0-1.9Zm-2.45.95a2.45 2.45 0 1 1 4.9 0 2.45 2.45 0 0 1-4.9 0Z" clip-rule="evenodd"/>
  <path fill="#000" d="M19.2 6.5a1.7 1.7 0 1 0 0-3.4 1.7 1.7 0 0 0 0 3.4Z"/>
  <path fill="#000" fill-rule="evenodd" d="M19.2 3.85a.95.95 0 1 0 0 1.9.95.95 0 0 0 0-1.9Zm-2.45.95a2.45 2.45 0 1 1 4.9 0 2.45 2.45 0 0 1-4.9 0Z" clip-rule="evenodd"/>
  <path fill="#000" d="M4.8 8.5a1.7 1.7 0 1 0 0-3.4 1.7 1.7 0 0 0 0 3.4Z"/>
  <path fill="#000" fill-rule="evenodd" d="M4.8 5.85a.95.95 0 1 0 0 1.9.95.95 0 0 0 0-1.9Zm-2.45.95a2.45 2.45 0 1 1 4.9 0 2.45 2.45 0 0 1-4.9 0Z" clip-rule="evenodd"/>
</svg>
