<svg width="24" height="24" viewBox="0 0 24 24" fill="none" xmlns="http://www.w3.org/2000/svg">
<path fill-rule="evenodd" clip-rule="evenodd" d="M6.5 18.45H17.5V19.95H6.5V18.45Z" fill="black"/>
<path fill-rule="evenodd" clip-rule="evenodd" d="M8.5 4.05005H15.5V5.55005H8.5V4.05005Z" fill="black"/>
<path fill-rule="evenodd" clip-rule="evenodd" d="M17.9378 6.36584L19.9378 17.3658L18.462 17.6342L16.462 6.63417L17.9378 6.36584Z" fill="black"/>
<path fill-rule="evenodd" clip-rule="evenodd" d="M7.53794 6.63417L5.53794 17.6342L4.06213 17.3658L6.06213 6.36584L7.53794 6.63417Z" fill="black"/>
<path d="M6.79998 6.50004C7.73886 6.50004 8.49998 5.73892 8.49998 4.80004C8.49998 3.86115 7.73886 3.10004 6.79998 3.10004C5.86109 3.10004 5.09998 3.86115 5.09998 4.80004C5.09998 5.73892 5.86109 6.50004 6.79998 6.50004Z" fill="black"/>
<path fill-rule="evenodd" clip-rule="evenodd" d="M6.79998 3.85004C6.27531 3.85004 5.84998 4.27537 5.84998 4.80004C5.84998 5.32471 6.27531 5.75004 6.79998 5.75004C7.32465 5.75004 7.74998 5.32471 7.74998 4.80004C7.74998 4.27537 7.32465 3.85004 6.79998 3.85004ZM4.34998 4.80004C4.34998 3.44694 5.44688 2.35004 6.79998 2.35004C8.15307 2.35004 9.24998 3.44694 9.24998 4.80004C9.24998 6.15313 8.15307 7.25004 6.79998 7.25004C5.44688 7.25004 4.34998 6.15313 4.34998 4.80004Z" fill="black"/>
<path d="M4.79998 20.9001C5.73886 20.9001 6.49998 20.1389 6.49998 19.2001C6.49998 18.2612 5.73886 17.5001 4.79998 17.5001C3.86109 17.5001 3.09998 18.2612 3.09998 19.2001C3.09998 20.1389 3.86109 20.9001 4.79998 20.9001Z" fill="black"/>
<path fill-rule="evenodd" clip-rule="evenodd" d="M4.79998 18.2501C4.27531 18.2501 3.84998 18.6754 3.84998 19.2001C3.84998 19.7247 4.27531 20.1501 4.79998 20.1501C5.32465 20.1501 5.74998 19.7247 5.74998 19.2001C5.74998 18.6754 5.32465 18.2501 4.79998 18.2501ZM2.34998 19.2001C2.34998 17.847 3.44688 16.7501 4.79998 16.7501C6.15307 16.7501 7.24998 17.847 7.24998 19.2001C7.24998 20.5532 6.15307 21.6501 4.79998 21.6501C3.44688 21.6501 2.34998 20.5532 2.34998 19.2001Z" fill="black"/>
<path d="M19.2 20.9001C20.1389 20.9001 20.9 20.1389 20.9 19.2001C20.9 18.2612 20.1389 17.5001 19.2 17.5001C18.2611 17.5001 17.5 18.2612 17.5 19.2001C17.5 20.1389 18.2611 20.9001 19.2 20.9001Z" fill="black"/>
<path fill-rule="evenodd" clip-rule="evenodd" d="M19.2 18.2501C18.6753 18.2501 18.25 18.6754 18.25 19.2001C18.25 19.7247 18.6753 20.1501 19.2 20.1501C19.7247 20.1501 20.15 19.7247 20.15 19.2001C20.15 18.6754 19.7247 18.2501 19.2 18.2501ZM16.75 19.2001C16.75 17.847 17.8469 16.7501 19.2 16.7501C20.5531 16.7501 21.65 17.847 21.65 19.2001C21.65 20.5532 20.5531 21.6501 19.2 21.6501C17.8469 21.6501 16.75 20.5532 16.75 19.2001Z" fill="black"/>
<path d="M17.2 6.50004C18.1389 6.50004 18.9 5.73892 18.9 4.80004C18.9 3.86115 18.1389 3.10004 17.2 3.10004C16.2611 3.10004 15.5 3.86115 15.5 4.80004C15.5 5.73892 16.2611 6.50004 17.2 6.50004Z" fill="black"/>
<path fill-rule="evenodd" clip-rule="evenodd" d="M17.2 3.85004C16.6753 3.85004 16.25 4.27537 16.25 4.80004C16.25 5.32471 16.6753 5.75004 17.2 5.75004C17.7247 5.75004 18.15 5.32471 18.15 4.80004C18.15 4.27537 17.7247 3.85004 17.2 3.85004ZM14.75 4.80004C14.75 3.44694 15.8469 2.35004 17.2 2.35004C18.5531 2.35004 19.65 3.44694 19.65 4.80004C19.65 6.15313 18.5531 7.25004 17.2 7.25004C15.8469 7.25004 14.75 6.15313 14.75 4.80004Z" fill="black"/>
</svg>
