<svg xmlns="http://www.w3.org/2000/svg" viewBox="0 0 24 24" fill="currentColor">
  <path d="M3.75 4.25c-.41421 0-.75.33579-.75.75s.33579.75.75.75h15c.4142 0 .75-.33579.75-.75s-.3358-.75-.75-.75h-15Zm0 4c-.41421 0-.75.33579-.75.75s.33579.75.75.75h15c.4142 0 .75-.33579.75-.75s-.3358-.75-.75-.75h-15ZM3 13c0-.4142.33579-.75.75-.75h7c.4142 0 .75.3358.75.75s-.3358.75-.75.75h-7c-.41421 0-.75-.3358-.75-.75Zm.75 3.25c-.41421 0-.75.3358-.75.75s.33579.75.75.75h6c.4142 0 .75-.3358.75-.75s-.3358-.75-.75-.75h-6Zm13.5-4c.4142 0 .75.3358.75.75v2.25h2.25c.4142 0 .75.3358.75.75s-.3358.75-.75.75H18V19c0 .4142-.3358.75-.75.75s-.75-.3358-.75-.75v-2.25h-2.25c-.4142 0-.75-.3358-.75-.75s.3358-.75.75-.75h2.25V13c0-.4142.3358-.75.75-.75Z"/>
</svg>
