<svg xmlns="http://www.w3.org/2000/svg" fill="none" viewBox="0 0 24 24">
  <path fill="#000" fill-rule="evenodd" d="M14.4 3.4a.75.75 0 0 0 0 1.5h6a.75.75 0 0 0 0-1.5h-6ZM4.85 8.15a3.05 3.05 0 1 1 6.1 0 3.05 3.05 0 0 1-6.1 0ZM7.9 3.6a4.55 4.55 0 1 0 0 9.1 4.55 4.55 0 0 0 0-9.1ZM3.6 19.1a.75.75 0 0 0 0 1.5h16.8a.75.75 0 0 0 0-1.5H3.6Zm-.75-3.25a.75.75 0 0 1 .75-.75h16.8a.75.75 0 0 1 0 1.5H3.6a.75.75 0 0 1-.75-.75ZM13.6 11.1a.75.75 0 0 0 0 1.5h6.8a.75.75 0 0 0 0-1.5h-6.8Zm1.25-3.25a.75.75 0 0 1 .75-.75h4.8a.75.75 0 0 1 0 1.5h-4.8a.75.75 0 0 1-.75-.75Z" clip-rule="evenodd"/>
</svg>
