<svg xmlns="http://www.w3.org/2000/svg" viewBox="0 0 24 24" fill="currentColor">
  <path d="M3.34998 5.03748c0-.41422.33578-.75.75-.75H19.1c.4142 0 .75.33578.75.75 0 .41421-.3358.75-.75.75H4.09998c-.41422 0-.75-.33579-.75-.75ZM17.8126 13.9799c-.7811-.3628-1.7749-.2194-2.4822.4879l-.0116.0115-.012.011c-.6836.6267-.8471 1.6402-.4267 2.4919l2.9325-3.0023Zm-1.8572 4.0481c.7955.3434 1.8209.2138 2.5378-.4434.7013-.6428.8552-1.6926.3932-2.5574l-2.931 3.0008Zm-1.6742-4.6323c1.4765-1.4644 3.8533-1.4985 5.2606.0229 1.4682 1.4804 1.4987 3.8658-.035 5.2717-1.4735 1.3508-3.8321 1.3825-5.2371-.0225-1.4756-1.4756-1.514-3.8611.0115-5.2721ZM4.09998 8.28748c-.41422 0-.75.33578-.75.75 0 .41421.33578.75.75.75H19.1c.4142 0 .75-.33579.75-.75 0-.41422-.3358-.75-.75-.75H4.09998Zm-.75 4.75002c0-.4142.33578-.75.75-.75H11.1c.4142 0 .75.3358.75.75s-.3358.75-.75.75H4.09998c-.41422 0-.75-.3358-.75-.75Zm.75 3.25c-.41422 0-.75.3358-.75.75s.33578.75.75.75H10.1c.4142 0 .75-.3358.75-.75s-.3358-.75-.75-.75H4.09998Z"/>
</svg>
