<svg xmlns="http://www.w3.org/2000/svg" fill="none" viewBox="0 0 24 24">
  <path fill="#000" fill-rule="evenodd" d="M3.75 4.25a.75.75 0 0 0 0 1.5h15a.75.75 0 0 0 0-1.5h-15Zm0 4a.75.75 0 0 0 0 1.5h15a.75.75 0 0 0 0-1.5h-15ZM3 13a.75.75 0 0 1 .75-.75h7a.75.75 0 0 1 0 1.5h-7A.75.75 0 0 1 3 13Zm.75 3.25a.75.75 0 0 0 0 1.5h6a.75.75 0 0 0 0-1.5h-6Zm13.5-4A.75.75 0 0 1 18 13v2.25h2.25a.75.75 0 0 1 0 1.5H18V19a.75.75 0 0 1-1.5 0v-2.25h-2.25a.75.75 0 0 1 0-1.5h2.25V13a.75.75 0 0 1 .75-.75Z" clip-rule="evenodd"/>
</svg>
