<svg xmlns="http://www.w3.org/2000/svg" viewBox="0 0 24 24" fill="currentColor">
  <path d="M3.75 5.46252c0-.41421.33579-.75.75-.75h15c.4142 0 .75.33579.75.75 0 .41422-.3358.75-.75.75h-15c-.41421 0-.75-.33578-.75-.75Zm0 4c0-.41421.33579-.75.75-.75h15c.4142 0 .75.33579.75.75 0 .41422-.3358.74998-.75.74998h-15c-.41421 0-.75-.33576-.75-.74998Zm.75 3.24998c-.41421 0-.75.3358-.75.75s.33579.75.75.75h7c.4142 0 .75-.3358.75-.75s-.3358-.75-.75-.75h-7Zm-.75 4.75c0-.4142.33579-.75.75-.75h6c.4142 0 .75.3358.75.75s-.3358.75-.75.75h-6c-.41421 0-.75-.3358-.75-.75Zm16.2738-2.4631c.2964-.2893.3023-.7641.013-1.0606-.2892-.2965-.764-.3024-1.0605-.0131l-3.7197 3.6289L14.1 16.0125c-.2485-.3313-.7186-.3985-1.05-.15-.3314.2486-.3985.7187-.15 1.05l1.532 2.0427.0377.0377c.2225.2224.5065.2946.7303.2946.2224 0 .5042-.0712.726-.2903l4.0978-3.9978Z"/>
</svg>
