<svg xmlns="http://www.w3.org/2000/svg" viewBox="0 0 24 24" fill="currentColor">
  <path d="M3.75 5.72754c0-.41421.33579-.75.75-.75h15c.4142 0 .75.33579.75.75s-.3358.75-.75.75h-15c-.41421 0-.75-.33579-.75-.75Zm0 4c0-.41421.33579-.75.75-.75h15c.4142 0 .75.33579.75.75 0 .41426-.3358.74996-.75.74996h-15c-.41421 0-.75-.3357-.75-.74996Zm.75 3.24996c-.41421 0-.75.3358-.75.75 0 .4143.33579.75.75.75h7c.4142 0 .75-.3357.75-.75 0-.4142-.3358-.75-.75-.75h-7Zm-.75 4.75c0-.4142.33579-.75.75-.75h6c.4142 0 .75.3358.75.75 0 .4143-.3358.75-.75.75h-6c-.41421 0-.75-.3357-.75-.75Zm12.6221-4.9511c-1.236-.7063-2.6221.2173-2.6221 1.5511v2.9c0 1.3338 1.386 2.2576 2.6221 1.5512l.0069-.0039 2.5222-1.5133.0148-.0099c1.0453-.6969 1.0453-2.2512 0-2.9481l-.0148-.0099-2.5222-1.5133-.0069-.0039ZM15.25 14.3275c0-.1389.0641-.2208.1275-.2593.0575-.035.139-.0511.2452.0076l2.471 1.4826c.1417.1045.1417.3338 0 .4383l-2.471 1.4826c-.1062.0587-.1877.0426-.2452.0076-.0634-.0386-.1275-.1204-.1275-.2594v-2.9Z"/>
</svg>
