<svg xmlns="http://www.w3.org/2000/svg" fill="none" viewBox="0 0 24 24">
  <path fill="#000" fill-rule="evenodd" d="M3 2.75a.75.75 0 0 1 .75.75v13.9a2.366 2.366 0 0 0 2.35 2.35H21a.75.75 0 0 1 0 1.5H6.1a3.866 3.866 0 0 1-3.85-3.85V3.5A.75.75 0 0 1 3 2.75Z" clip-rule="evenodd"/>
  <path fill="#000" fill-rule="evenodd" d="M9.174 8.796C8.372 10.084 7.85 11.916 7.85 14c0 .953.095 1.898.282 2.737a.75.75 0 0 1-1.464.326A14.324 14.324 0 0 1 6.35 14c0-2.316.578-4.434 1.55-5.997.968-1.552 2.398-2.653 4.1-2.653 1.702 0 3.132 1.101 4.1 2.653.972 1.563 1.55 3.68 1.55 5.997 0 1.053-.106 2.008-.318 2.963a.75.75 0 1 1-1.464-.326A11.9 11.9 0 0 0 16.15 14c0-2.084-.522-3.916-1.324-5.204C14.018 7.5 12.998 6.85 12 6.85s-2.018.649-2.826 1.946Z" clip-rule="evenodd"/>
</svg>
