<svg xmlns="http://www.w3.org/2000/svg" viewBox="0 0 24 24" fill="currentColor">
  <path d="M14.4 3.40002c-.4142 0-.75.33579-.75.75 0 .41422.3358.75.75.75h6c.4142 0 .75-.33578.75-.75 0-.41421-.3358-.75-.75-.75h-6Zm-9.55002 4.75c0-1.68446 1.36553-3.04998 3.05-3.04998S10.95 6.46556 10.95 8.15002C10.95 9.8345 9.58444 11.2 7.89998 11.2c-1.68447 0-3.05-1.3655-3.05-3.04998Zm3.05-4.54998c-2.51289 0-4.55 2.03708-4.55 4.54998 0 2.51288 2.0371 4.54998 4.55 4.54998 2.51292 0 4.55002-2.0371 4.55002-4.54998 0-2.5129-2.0371-4.54998-4.55002-4.54998ZM3.59998 19.1c-.41422 0-.75.3358-.75.75s.33578.75.75.75H20.4c.4142 0 .75-.3358.75-.75s-.3358-.75-.75-.75H3.59998Zm-.75-3.25c0-.4142.33578-.75.75-.75H20.4c.4142 0 .75.3358.75.75s-.3358.75-.75.75H3.59998c-.41422 0-.75-.3358-.75-.75ZM13.6 11.1c-.4142 0-.75.3358-.75.75s.3358.75.75.75h6.8c.4142 0 .75-.3358.75-.75s-.3358-.75-.75-.75h-6.8Zm1.25-3.24996c0-.41422.3358-.75.75-.75h4.8c.4142 0 .75.33578.75.75 0 .41421-.3358.75-.75.75h-4.8c-.4142 0-.75-.33579-.75-.75Z"/>
</svg>
