<svg xmlns="http://www.w3.org/2000/svg" fill="none" viewBox="0 0 24 24">
  <path fill="#000" fill-rule="evenodd" d="M6.5 18.45h11v1.5h-11v-1.5Zm2-14.4h7v1.5h-7v-1.5Zm9.438 2.316 2 11-1.476.268-2-11 1.476-.268Zm-10.4.268-2 11-1.476-.268 2-11 1.476.268Z" clip-rule="evenodd"/>
  <path fill="#000" fill-rule="evenodd" d="M6.8 3.85a.95.95 0 1 0 0 1.9.95.95 0 0 0 0-1.9Zm-2.45.95a2.45 2.45 0 1 1 4.9 0 2.45 2.45 0 0 1-4.9 0Zm.45 13.45a.95.95 0 1 0 0 1.9.95.95 0 0 0 0-1.9Zm-2.45.95a2.45 2.45 0 1 1 4.9 0 2.45 2.45 0 0 1-4.9 0Zm16.85-.95a.95.95 0 1 0 0 1.9.95.95 0 0 0 0-1.9Zm-2.45.95a2.45 2.45 0 1 1 4.9 0 2.45 2.45 0 0 1-4.9 0Zm.45-15.35a.95.95 0 1 0 0 1.9.95.95 0 0 0 0-1.9Zm-2.45.95a2.45 2.45 0 1 1 4.9 0 2.45 2.45 0 0 1-4.9 0Z" clip-rule="evenodd"/>
</svg>
