<svg xmlns="http://www.w3.org/2000/svg" fill="none" viewBox="0 0 24 24">
  <path fill="#000" fill-rule="evenodd" d="M3.75 5.462a.75.75 0 0 1 .75-.75h15a.75.75 0 0 1 0 1.5h-15a.75.75 0 0 1-.75-.75Zm0 4a.75.75 0 0 1 .75-.75h15a.75.75 0 0 1 0 1.5h-15a.75.75 0 0 1-.75-.75Zm.75 3.25a.75.75 0 0 0 0 1.5h7a.75.75 0 0 0 0-1.5h-7Zm-.75 4.75a.75.75 0 0 1 .75-.75h6a.75.75 0 0 1 0 1.5h-6a.75.75 0 0 1-.75-.75ZM20.024 15a.75.75 0 0 0-1.048-1.073l-3.72 3.629-1.156-1.543a.75.75 0 1 0-1.2.9l1.532 2.043.038.038c.222.222.506.295.73.295.222 0 .504-.072.726-.29L20.024 15Z" clip-rule="evenodd"/>
</svg>
