<svg xmlns="http://www.w3.org/2000/svg" viewBox="0 0 24 24" fill="currentColor">
  <path d="M2.75006 4.00006c0-.41421.33579-.75.75-.75H18.5001c.4142 0 .75.33579.75.75s-.3358.75-.75.75H3.50006c-.41421 0-.75-.33579-.75-.75ZM13.15 15.7c0-1.6845 1.3655-3.05 3.05-3.05 1.6844 0 3.0499 1.3655 3.0499 3.05 0 1.6844-1.3655 3.0499-3.0499 3.0499-1.6845 0-3.05-1.3655-3.05-3.0499Zm3.05-4.55c-2.5129 0-4.55 2.0371-4.55 4.55 0 2.5128 2.0371 4.5499 4.55 4.5499.9857 0 1.8981-.3134 2.6432-.846l1.1264 1.1264c.2929.2929.7678.2929 1.0607 0 .2929-.2929.2929-.7678 0-1.0607l-1.1264-1.1264c.5326-.7451.846-1.6575.846-2.6432 0-2.5129-2.0371-4.55-4.5499-4.55ZM3.50006 7.25006c-.41421 0-.75.33579-.75.75s.33579.75.75.75H18.5001c.4142 0 .75-.33579.75-.75s-.3358-.75-.75-.75H3.50006Zm-.75 4.75004c0-.4143.33579-.75.75-.75h7.00004c.4142 0 .75.3357.75.75 0 .4142-.3358.75-.75.75H3.50006c-.41421 0-.75-.3358-.75-.75Zm.75 3.25c-.41421 0-.75.3357-.75.75 0 .4142.33579.75.75.75h5c.41421 0 .75-.3358.75-.75 0-.4143-.33579-.75-.75-.75h-5Z"/>
</svg>
