<svg xmlns="http://www.w3.org/2000/svg" fill="none" viewBox="0 0 24 24">
  <path fill="#000" fill-rule="evenodd" d="M4.2 4.7a.75.75 0 0 0 0 1.5h15a.75.75 0 0 0 0-1.5h-15Zm0 4a.75.75 0 0 0 0 1.5h15a.75.75 0 1 0 0-1.5h-15Zm-.75 4.75a.75.75 0 0 1 .75-.75h7a.75.75 0 0 1 0 1.5h-7a.75.75 0 0 1-.75-.75Zm.75 3.25a.75.75 0 0 0 0 1.5h6a.75.75 0 0 0 0-1.5h-6Zm16.13-2.98a.75.75 0 0 1 0 1.06l-1.62 1.62 1.62 1.62a.75.75 0 0 1-1.06 1.06l-1.62-1.62-1.62 1.62a.75.75 0 0 1-1.06-1.06l1.62-1.62-1.62-1.62a.75.75 0 0 1 1.06-1.06l1.62 1.62 1.62-1.62a.75.75 0 0 1 1.06 0Z" clip-rule="evenodd"/>
</svg>
