<svg xmlns="http://www.w3.org/2000/svg" viewBox="0 0 24 24" fill="currentColor">
  <path d="M4.20001 4.70001c-.41421 0-.75.33579-.75.75 0 .41422.33579.75.75.75H19.2c.4142 0 .75-.33578.75-.75 0-.41421-.3358-.75-.75-.75H4.20001Zm0 4c-.41421 0-.75.33579-.75.75 0 .41422.33579.74999.75.74999H19.2c.4142 0 .75-.33577.75-.74999 0-.41421-.3358-.75-.75-.75H4.20001Zm-.75 4.74999c0-.4142.33579-.75.75-.75H11.2c.4142 0 .75.3358.75.75s-.3358.75-.75.75H4.20001c-.41421 0-.75-.3358-.75-.75Zm.75 3.25c-.41421 0-.75.3358-.75.75s.33579.75.75.75H10.2c.4142 0 .75-.3358.75-.75s-.3358-.75-.75-.75H4.20001Zm16.13029-2.9804c.2929.2929.2929.7678 0 1.0607L18.7106 16.4l1.6197 1.6197c.2929.2929.2929.7677 0 1.0606-.2929.2929-.7677.2929-1.0606 0L17.65 17.4606l-1.6197 1.6197c-.2929.2929-.7678.2929-1.0607 0-.2929-.2929-.2929-.7677 0-1.0606L16.5893 16.4l-1.6197-1.6197c-.2929-.2929-.2929-.7678 0-1.0607.2929-.2929.7678-.2929 1.0607 0l1.6197 1.6197 1.6197-1.6197c.2929-.2929.7677-.2929 1.0606 0Z"/>
</svg>
