<svg width="24" height="24" viewBox="0 0 24 24" fill="none" xmlns="http://www.w3.org/2000/svg">
<path fill-rule="evenodd" clip-rule="evenodd" d="M3.75 5.72751C3.75 5.31329 4.08579 4.97751 4.5 4.97751H19.5C19.9142 4.97751 20.25 5.31329 20.25 5.72751C20.25 6.14172 19.9142 6.47751 19.5 6.47751H4.5C4.08579 6.47751 3.75 6.14172 3.75 5.72751ZM3.75 9.72751C3.75 9.31329 4.08579 8.97751 4.5 8.97751H19.5C19.9142 8.97751 20.25 9.31329 20.25 9.72751C20.25 10.1417 19.9142 10.4775 19.5 10.4775H4.5C4.08579 10.4775 3.75 10.1417 3.75 9.72751ZM4.5 12.9775C4.08579 12.9775 3.75 13.3133 3.75 13.7275C3.75 14.1417 4.08579 14.4775 4.5 14.4775H11.5C11.9142 14.4775 12.25 14.1417 12.25 13.7275C12.25 13.3133 11.9142 12.9775 11.5 12.9775H4.5ZM3.75 17.7275C3.75 17.3133 4.08579 16.9775 4.5 16.9775H10.5C10.9142 16.9775 11.25 17.3133 11.25 17.7275C11.25 18.1417 10.9142 18.4775 10.5 18.4775H4.5C4.08579 18.4775 3.75 18.1417 3.75 17.7275ZM16.3721 12.7763C15.1361 12.07 13.75 12.9936 13.75 14.3275V17.2275C13.75 18.5613 15.136 19.485 16.3721 18.7787L16.379 18.7747L18.9012 17.2615L18.916 17.2516C19.9613 16.5547 19.9613 15.0003 18.916 14.3035L18.9012 14.2936L16.379 12.7803L16.3721 12.7763ZM15.25 14.3275C15.25 14.1886 15.3141 14.1067 15.3775 14.0682C15.435 14.0331 15.5165 14.0171 15.6227 14.0758L18.0937 15.5584C18.2354 15.6628 18.2354 15.8922 18.0937 15.9966L15.6227 17.4793C15.5165 17.538 15.435 17.5219 15.3775 17.4869C15.3141 17.4483 15.25 17.3664 15.25 17.2275V14.3275Z" fill="black"/>
</svg>
