<svg width="24" height="24" viewBox="0 0 24 24" fill="none" xmlns="http://www.w3.org/2000/svg">
<path fill-rule="evenodd" clip-rule="evenodd" d="M16.2697 4.63031C16.0626 4.4232 15.7374 4.4232 15.5303 4.63031L4.63034 15.5303C4.42323 15.7374 4.42323 16.0625 4.63034 16.2696L7.03034 18.6696C7.23744 18.8768 7.56257 18.8768 7.76968 18.6696L18.6697 7.76965C18.8768 7.56254 18.8768 7.23741 18.6697 7.03031L16.2697 4.63031ZM14.4697 3.56965C15.2626 2.77675 16.5374 2.77675 17.3303 3.56965L19.7303 5.96965C20.5232 6.76254 20.5232 8.03741 19.7303 8.83031L8.83034 19.7303C8.03744 20.5232 6.76257 20.5232 5.96968 19.7303L3.56968 17.3303C2.77678 16.5374 2.77678 15.2625 3.56968 14.4696L14.4697 3.56965Z" fill="black"/>
<path fill-rule="evenodd" clip-rule="evenodd" d="M6.10001 4.65002C5.2992 4.65002 4.65001 5.29921 4.65001 6.10002C4.65001 6.90084 5.2992 7.55002 6.10001 7.55002C6.90082 7.55002 7.55001 6.90084 7.55001 6.10002C7.55001 5.29921 6.90082 4.65002 6.10001 4.65002ZM3.15001 6.10002C3.15001 4.47078 4.47077 3.15002 6.10001 3.15002C7.72925 3.15002 9.05001 4.47078 9.05001 6.10002C9.05001 7.72926 7.72925 9.05002 6.10001 9.05002C4.47077 9.05002 3.15001 7.72926 3.15001 6.10002Z" fill="black"/>
<path fill-rule="evenodd" clip-rule="evenodd" d="M17.2 15.75C16.3992 15.75 15.75 16.3992 15.75 17.2C15.75 18.0008 16.3992 18.65 17.2 18.65C18.0008 18.65 18.65 18.0008 18.65 17.2C18.65 16.3992 18.0008 15.75 17.2 15.75ZM14.25 17.2C14.25 15.5708 15.5708 14.25 17.2 14.25C18.8292 14.25 20.15 15.5708 20.15 17.2C20.15 18.8292 18.8292 20.15 17.2 20.15C15.5708 20.15 14.25 18.8292 14.25 17.2Z" fill="black"/>
</svg>
