<svg xmlns="http://www.w3.org/2000/svg" fill="none" viewBox="0 0 24 24">
  <path fill="#000" d="m6.5 19.2-2.4-2.4c-.5-.5-.5-1.3 0-1.8L15 4.1c.5-.5 1.3-.5 1.8 0l2.4 2.4c.5.5.5 1.3 0 1.8L8.3 19.2c-.5.5-1.3.5-1.8 0Z"/>
  <path fill="#000" fill-rule="evenodd" d="M16.27 4.63a.518.518 0 0 0-.74 0l-10.9 10.9a.518.518 0 0 0 0 .74l2.4 2.4a.517.517 0 0 0 .74 0l10.9-10.9a.518.518 0 0 0 0-.74l-2.4-2.4Zm-1.8-1.06a2.017 2.017 0 0 1 2.86 0l2.4 2.4a2.017 2.017 0 0 1 0 2.86l-10.9 10.9a2.017 2.017 0 0 1-2.86 0l-2.4-2.4a2.018 2.018 0 0 1 0-2.86l10.9-10.9Z" clip-rule="evenodd"/>
  <path fill="#000" d="M6.1 8.3a2.2 2.2 0 1 0 0-4.4 2.2 2.2 0 0 0 0 4.4Z"/>
  <path fill="#000" fill-rule="evenodd" d="M6.1 4.65a1.45 1.45 0 1 0 0 2.9 1.45 1.45 0 0 0 0-2.9ZM3.15 6.1a2.95 2.95 0 1 1 5.9 0 2.95 2.95 0 0 1-5.9 0Z" clip-rule="evenodd"/>
  <path fill="#000" d="M17.2 19.4a2.2 2.2 0 1 0 0-4.4 2.2 2.2 0 0 0 0 4.4Z"/>
  <path fill="#000" fill-rule="evenodd" d="M17.2 15.75a1.45 1.45 0 1 0 0 2.9 1.45 1.45 0 0 0 0-2.9Zm-2.95 1.45a2.95 2.95 0 1 1 5.9 0 2.95 2.95 0 0 1-5.9 0Z" clip-rule="evenodd"/>
</svg>
