<svg width="24" height="24" viewBox="0 0 24 24" fill="none" xmlns="http://www.w3.org/2000/svg">
<path d="M6.50001 19.2L4.10001 16.8C3.60001 16.3 3.60001 15.5 4.10001 15L15 4.09998C15.5 3.59998 16.3 3.59998 16.8 4.09998L19.2 6.49998C19.7 6.99998 19.7 7.79998 19.2 8.29998L8.30001 19.2C7.80001 19.7 7.00001 19.7 6.50001 19.2Z" fill="black"/>
<path fill-rule="evenodd" clip-rule="evenodd" d="M16.2697 4.63031C16.0626 4.4232 15.7374 4.4232 15.5303 4.63031L4.63034 15.5303C4.42323 15.7374 4.42323 16.0625 4.63034 16.2696L7.03034 18.6696C7.23744 18.8768 7.56257 18.8768 7.76968 18.6696L18.6697 7.76965C18.8768 7.56254 18.8768 7.23741 18.6697 7.03031L16.2697 4.63031ZM14.4697 3.56965C15.2626 2.77675 16.5374 2.77675 17.3303 3.56965L19.7303 5.96965C20.5232 6.76254 20.5232 8.03741 19.7303 8.83031L8.83034 19.7303C8.03744 20.5232 6.76257 20.5232 5.96968 19.7303L3.56968 17.3303C2.77678 16.5374 2.77678 15.2625 3.56968 14.4696L14.4697 3.56965Z" fill="black"/>
<path d="M6.09999 8.30002C7.31502 8.30002 8.29999 7.31505 8.29999 6.10002C8.29999 4.885 7.31502 3.90002 6.09999 3.90002C4.88497 3.90002 3.89999 4.885 3.89999 6.10002C3.89999 7.31505 4.88497 8.30002 6.09999 8.30002Z" fill="black"/>
<path fill-rule="evenodd" clip-rule="evenodd" d="M6.09999 4.65002C5.29918 4.65002 4.64999 5.29921 4.64999 6.10002C4.64999 6.90084 5.29918 7.55002 6.09999 7.55002C6.90081 7.55002 7.54999 6.90084 7.54999 6.10002C7.54999 5.29921 6.90081 4.65002 6.09999 4.65002ZM3.14999 6.10002C3.14999 4.47078 4.47075 3.15002 6.09999 3.15002C7.72923 3.15002 9.04999 4.47078 9.04999 6.10002C9.04999 7.72926 7.72923 9.05002 6.09999 9.05002C4.47075 9.05002 3.14999 7.72926 3.14999 6.10002Z" fill="black"/>
<path d="M17.2 19.4C18.415 19.4 19.4 18.415 19.4 17.2C19.4 15.985 18.415 15 17.2 15C15.985 15 15 15.985 15 17.2C15 18.415 15.985 19.4 17.2 19.4Z" fill="black"/>
<path fill-rule="evenodd" clip-rule="evenodd" d="M17.2 15.75C16.3992 15.75 15.75 16.3992 15.75 17.2C15.75 18.0008 16.3992 18.65 17.2 18.65C18.0008 18.65 18.65 18.0008 18.65 17.2C18.65 16.3992 18.0008 15.75 17.2 15.75ZM14.25 17.2C14.25 15.5708 15.5708 14.25 17.2 14.25C18.8292 14.25 20.15 15.5708 20.15 17.2C20.15 18.8292 18.8292 20.15 17.2 20.15C15.5708 20.15 14.25 18.8292 14.25 17.2Z" fill="black"/>
</svg>
