<svg xmlns="http://www.w3.org/2000/svg" viewBox="0 0 24 24" fill="currentColor">
  <path d="M7 1.75c.41421 0 .75.33579.75.75v3.13584C8.61978 5.07365 9.66483 4.75 10.8 4.75h2.4c3.1142 0 5.55 2.43577 5.55 5.55v5.2c0 3.7142-3.0358 6.75-6.75 6.75-3.71421 0-6.75-3.0358-6.75-6.75v-5.2c0-1.20996.36769-2.3175 1-3.21957V2.5c0-.41421.33579-.75.75-.75Zm3.8 4.5c-2.28577 0-4.05 1.76421-4.05 4.05v5.2c0 2.8858 2.36421 5.25 5.25 5.25 2.8858 0 5.25-2.3642 5.25-5.25v-5.2c0-2.2858-1.7642-4.05-4.05-4.05h-2.4ZM9.44995 10.7c0-.78577.66425-1.45 1.45005-1.45h2.1999c.7858 0 1.4501.66423 1.4501 1.45v.6c0 .7858-.6643 1.45-1.4501 1.45H10.9c-.7858 0-1.45005-.6642-1.45005-1.45v-.6ZM10.9 7.75c-1.61425 0-2.95005 1.3358-2.95005 2.95v.6c0 1.6142 1.3358 2.95 2.95005 2.95h2.1999c1.6143 0 2.9501-1.3358 2.9501-2.95v-.6c0-1.6142-1.3358-2.95-2.9501-2.95H10.9Z"/>
</svg>
