<svg xmlns="http://www.w3.org/2000/svg" fill="none" viewBox="0 0 24 24">
  <path fill="#000" fill-rule="evenodd" d="M4.184 15.159c-1.034 1.123-1.004 2.855-.01 3.849.198.198.481.348.905.56l.047.023 3.568-2.653c0-.157-.001-.272-.01-.37a.522.522 0 0 0-.016-.103c-.313-.641.046-1.407.738-1.638l.016-.005.016-.005a9.272 9.272 0 0 1 2.506-.329 9.24 9.24 0 0 1 2.506.33l.067.018.062.031c.177.089.404.244.563.499.157.25.22.559.149.881-.01.185-.042.337-.065.442-.03.134-.032.15-.032.15v.078a.873.873 0 0 0 .044.053l3.535 2.538c.1-.025.12-.033.135-.04l.074-.037.08-.02c.204-.051.487-.239.751-.503.959-.958 1.024-2.61.176-3.738a1.173 1.173 0 0 1-.145-.094 1.895 1.895 0 0 1-.222-.199l-.003-.003c-4.297-4.103-11.119-4.02-15.435.284Zm10.966 1.69v.002-.002Zm5.504-3.06c-4.901-4.68-12.66-4.56-17.54.319l-.01.01-.01.01c-1.557 1.677-1.584 4.337.02 5.94.372.374.845.616 1.212.8.233.183.567.32.918.32h.248l4.057-3.016c.487-.28.645-.784.645-1.234v-.014c0-.14 0-.32-.016-.491a2.257 2.257 0 0 0-.036-.25 8.064 8.064 0 0 1 1.802-.195c.645 0 1.282.071 1.847.207a1.34 1.34 0 0 1-.03.168l-.006.028c-.015.064-.04.172-.053.296-.098.355.028.676.108.837.11.22.268.409.403.545l.044.043 4.317 3.1.405-.203a.784.784 0 0 1 .16-.047c.081-.02.216-.053.362-.116.563-.164 1.051-.556 1.373-.877 1.6-1.6 1.572-4.247.139-5.919l-.225-.262h-.134ZM15.481 3.615a.75.75 0 0 1-.014 1.06l-3.7 3.6a.75.75 0 1 1-1.046-1.074l3.7-3.6a.75.75 0 0 1 1.06.014Z" clip-rule="evenodd"/>
  <path fill="#000" fill-rule="evenodd" d="M10.594 3.538a.75.75 0 0 1 .75-.75h3.6c.32 0 .645.11.892.358.247.247.357.572.357.892v3.6a.75.75 0 0 1-1.5 0v-3.35h-3.35a.75.75 0 0 1-.75-.75Zm-2.781.77a.75.75 0 0 1 1.061 0l2.9 2.9a.75.75 0 1 1-1.06 1.06l-2.9-2.9a.75.75 0 0 1 0-1.06Z" clip-rule="evenodd"/>
</svg>
