<svg xmlns="http://www.w3.org/2000/svg" fill="none" viewBox="0 0 24 24">
  <path fill="#000" fill-rule="evenodd" d="M5.66 6.72a8.251 8.251 0 0 0 5.59 13.496V14c0-.486.127-.943.35-1.34L5.66 6.72Zm1.06-1.06 5.94 5.94a2.73 2.73 0 0 1 1.34-.35h6.216A8.251 8.251 0 0 0 6.721 5.66Zm6.043 8.163a1.239 1.239 0 0 0-.013.177v6.216a8.213 8.213 0 0 0 4.53-1.876l-4.517-4.517Zm5.577 3.456-4.517-4.516A1.23 1.23 0 0 1 14 12.75h6.216a8.213 8.213 0 0 1-1.876 4.53ZM2.25 12c0-5.385 4.365-9.75 9.75-9.75s9.75 4.365 9.75 9.75-4.365 9.75-9.75 9.75S2.25 17.385 2.25 12Z" clip-rule="evenodd"/>
</svg>
