<svg xmlns="http://www.w3.org/2000/svg" viewBox="0 0 24 24" fill="currentColor">
  <path d="M5.65996 6.72081C4.46743 8.15141 3.75 9.99192 3.75 12c0 4.3035 3.29513 7.8374 7.5 8.2164V14c0-.4856.1271-.9426.3498-1.3394L5.65996 6.72081Zm1.06065-1.06068 5.93979 5.93977c.3968-.2227.8539-.3499 1.3396-.3499h6.2164c-.379-4.20487-3.9129-7.5-8.2164-7.5-2.00817 0-3.84876.7175-5.27939 1.91013Zm6.04199 8.16337c-.0083.0577-.0126.1166-.0126.1765v6.2164c1.715-.1546 3.2787-.834 4.5292-1.8764l-4.5166-4.5165Zm5.5773 3.4559-4.5168-4.5167c.0579-.0084.1169-.0127.1769-.0127h6.2164c-.1546 1.7151-.834 3.2789-1.8765 4.5294ZM2.25 12c0-5.38478 4.36522-9.75 9.75-9.75 5.3848 0 9.75 4.36522 9.75 9.75 0 5.3848-4.3652 9.75-9.75 9.75-5.38478 0-9.75-4.3652-9.75-9.75Z"/>
</svg>
