<svg xmlns="http://www.w3.org/2000/svg" viewBox="0 0 24 24" fill="currentColor">
  <path d="M7.33026 5.9803C8.57682 4.73374 10.28 4.09998 11.9999 4.09998c1.72 0 3.4232.63376 4.6697 1.88032 1.2466 1.24655 1.8803 2.94973 1.8803 4.6697 0 1.7199-.6337 3.4231-1.8803 4.6696l-4.5 4.5c-.0638.0639-.1248.0804-.1697.0804-.0448 0-.1058-.0165-.1696-.0804l-4.50004-4.5C6.0837 14.0731 5.44995 12.3699 5.44995 10.65c0-1.71997.63375-3.42315 1.88031-4.6697Zm-1.06066 10.4C4.71615 14.8269 3.94995 12.73 3.94995 10.65c0-2.0801.7662-4.17692 2.31965-5.73036 1.55344-1.55345 3.65027-2.31966 5.7303-2.31966 2.0801 0 4.1769.76621 5.7304 2.31966 1.5534 1.55344 2.3196 3.65026 2.3196 5.73036 0 2.08-.7662 4.1769-2.3196 5.7303l-4.5 4.5c-.6929.6929-1.7678.6929-2.4607 0l-4.5-4.5Zm2.99999-8.06065c.29289-.2929.76781-.2929 1.06071-.00001L11.95 9.93932l1.6196-1.61968c.2929-.29289.7678-.29289 1.0607.00001.2929.29289.2929.76777 0 1.06066L13.0106 11l1.6197 1.6196c.2929.2929.2929.7678 0 1.0607-.2929.2929-.7678.2929-1.0607 0L11.95 12.0606l-1.6197 1.6197c-.2929.2929-.76782.2929-1.06071 0-.29289-.2929-.29288-.7678.00001-1.0607L10.8893 11 9.2696 9.38031c-.29289-.29289-.2929-.76777-.00001-1.06066Z"/>
</svg>
