<svg xmlns="http://www.w3.org/2000/svg" fill="none" viewBox="0 0 24 24">
  <path fill="#000" fill-rule="evenodd" d="M7.33 5.98C8.577 4.734 10.28 4.1 12 4.1c1.72 0 3.423.634 4.67 1.88 1.246 1.247 1.88 2.95 1.88 4.67 0 1.72-.634 3.423-1.88 4.67l-4.5 4.5a.24.24 0 0 1-.17.08.24.24 0 0 1-.17-.08l-4.5-4.5c-1.246-1.247-1.88-2.95-1.88-4.67 0-1.72.634-3.423 1.88-4.67Zm-1.06 10.4c-1.554-1.553-2.32-3.65-2.32-5.73 0-2.08.766-4.177 2.32-5.73C7.823 3.366 9.92 2.6 12 2.6c2.08 0 4.177.766 5.73 2.32 1.554 1.553 2.32 3.65 2.32 5.73 0 2.08-.766 4.177-2.32 5.73l-4.5 4.5a1.716 1.716 0 0 1-2.46 0l-4.5-4.5Zm3-8.06a.75.75 0 0 1 1.06 0l1.62 1.62 1.62-1.62a.75.75 0 0 1 1.06 1.06L13.01 11l1.62 1.62a.75.75 0 1 1-1.06 1.06l-1.62-1.62-1.62 1.62a.75.75 0 1 1-1.06-1.06L10.89 11 9.27 9.38a.75.75 0 0 1 0-1.06Z" clip-rule="evenodd"/>
</svg>
