<svg xmlns="http://www.w3.org/2000/svg" viewBox="0 0 24 24" fill="currentColor">
  <path d="M11.9999 4.09998c-1.7199 0-3.42305.63376-4.66961 1.88032C6.08373 7.22686 5.44995 8.93003 5.44995 10.65c0 1.7199.63378 3.4231 1.88034 4.6696l4.50001 4.5c.0638.0639.1248.0804.1696.0804.0448 0 .1059-.0165.1697-.0804l4.5-4.5.0038-.0038c1.2441-1.2462 1.8766-2.9477 1.8766-4.6658 0-1.71997-.6338-3.42314-1.8804-4.6697-1.2465-1.24656-2.9497-1.88032-4.6697-1.88032ZM6.2696 16.3803l-.00427-.0043c-1.55056-1.553-2.31538-3.6479-2.31538-5.726 0-2.08011.76624-4.17693 2.31968-5.73036C7.82307 3.3662 9.91987 2.59998 11.9999 2.59998c2.0801 0 4.1769.76621 5.7304 2.31966C19.2837 6.47307 20.05 8.56989 20.05 10.65c0 2.08-.7663 4.1769-2.3197 5.7303l-4.5 4.5c-.6929.6929-1.7678.6929-2.4607 0l-4.49997-4.5H6.2696Zm4.4804-6.3304c0-.69033.5596-1.24997 1.25-1.24997s1.25.55964 1.25 1.24997c0 .6904-.5596 1.25-1.25 1.25s-1.25-.5596-1.25-1.25ZM12 7.29993c-1.5188 0-2.75 1.23121-2.75 2.74997 0 1.5188 1.2312 2.75 2.75 2.75s2.75-1.2312 2.75-2.75c0-1.51876-1.2312-2.74997-2.75-2.74997Z"/>
</svg>
