<svg xmlns="http://www.w3.org/2000/svg" viewBox="0 0 24 24" fill="currentColor">
  <path d="M7.33029 5.9803C8.57685 4.73374 10.28 4.09998 11.9999 4.09998c1.72 0 3.4232.63376 4.6697 1.88032C17.9162 7.22686 18.55 8.93003 18.55 10.65c0 1.7181-.6325 3.4196-1.8766 4.6658-.0012.0013-.0025.0026-.0038.0038l-4.5 4.5c-.0638.0639-.1249.0804-.1697.0804-.0448 0-.1058-.0165-.1696-.0804l-4.50001-4.5c-1.24656-1.2465-1.88034-2.9497-1.88034-4.6696 0-1.71997.63378-3.42314 1.88034-4.6697ZM6.26533 16.376c.00141.0014.00284.0029.00427.0043h.00003l4.49997 4.5c.6929.6929 1.7678.6929 2.4607 0l4.5-4.5C19.2837 14.8269 20.05 12.73 20.05 10.65c0-2.08011-.7663-4.17693-2.3197-5.73036-1.5535-1.55345-3.6503-2.31966-5.7304-2.31966-2.08003 0-4.17683.76622-5.73027 2.31966C4.71619 6.47307 3.94995 8.56989 3.94995 10.65c0 2.0781.76482 4.173 2.31538 5.726Z"/>
</svg>
