<svg xmlns="http://www.w3.org/2000/svg" fill="none" viewBox="0 0 24 24">
  <path fill="#000" d="M11.15 10.05s0-7.2 7.2-7.2c0 .1-.4 7.2-7.2 7.2Z"/>
  <path fill="#000" d="M11.15 10.85h-.8v-.8c.1-.1.2-7.9 8-7.9h.8v.8c-.1.1-.6 7.9-8 7.9Zm6.3-7.2c-4.3.5-5.2 4-5.5 5.6 4.1-.4 5.2-3.9 5.5-5.6Z"/>
  <path fill="#000" d="M11.05 11.25s0-5.4-5.4-5.4c0 0 .3 5.4 5.4 5.4Z"/>
  <path fill="#000" d="M11.85 11.95h-.8c-4.6 0-6-4-6.2-6.1v-.8h.8c4.8 0 6.1 4 6.2 6.2v.7Zm-5.3-5.3c.3 1.2 1.1 3.4 3.7 3.8-.3-1.2-1-3.4-3.7-3.8Zm8.4 15.2h-7.6c-1.4 0-2.5-1.1-2.5-2.5v-3.8c0-1 .8-1.7 1.7-1.7h9.1c1 0 1.7.8 1.7 1.7v3.8c.1 1.4-1 2.5-2.4 2.5Zm-8.3-6.5c-.1 0-.2.1-.2.2v3.8c0 .5.4 1 1 1h7.6c.5 0 1-.4 1-1v-3.8c0-.1-.1-.2-.2-.2h-9.2Z"/>
  <path fill="#000" d="M11.85 10.05h-1.5v4.5h1.5v-4.5Z"/>
</svg>
