<svg xmlns="http://www.w3.org/2000/svg" fill="none" viewBox="0 0 24 24">
  <path fill="#000" fill-rule="evenodd" d="M9 3.75c-.35 0-.692.035-1.023.1a.75.75 0 0 1-.294-1.47A6.72 6.72 0 0 1 9 2.25h1.5a.75.75 0 0 1 0 1.5H9ZM12.75 3a.75.75 0 0 1 .75-.75H15c.45 0 .89.045 1.317.13a.75.75 0 1 1-.294 1.47A5.22 5.22 0 0 0 15 3.75h-1.5a.75.75 0 0 1-.75-.75Zm-6.457.597a.75.75 0 0 1-.205 1.041 5.326 5.326 0 0 0-1.45 1.45.75.75 0 1 1-1.245-.836 6.825 6.825 0 0 1 1.86-1.86.75.75 0 0 1 1.04.205Zm11.414 0a.75.75 0 0 1 1.04-.204 6.826 6.826 0 0 1 1.86 1.86.75.75 0 1 1-1.245.835 5.325 5.325 0 0 0-1.45-1.45.75.75 0 0 1-.205-1.04ZM3.262 7.094a.75.75 0 0 1 .589.883A5.22 5.22 0 0 0 3.75 9v1.5a.75.75 0 0 1-1.5 0V9c0-.45.045-.89.13-1.317a.75.75 0 0 1 .882-.589Zm17.476 0a.75.75 0 0 1 .882.589c.085.427.13.867.13 1.317v1.5a.75.75 0 0 1-1.5 0V9c0-.35-.035-.692-.1-1.023a.75.75 0 0 1 .588-.883ZM3 12.75a.75.75 0 0 1 .75.75V15c0 .35.035.693.1 1.023a.75.75 0 1 1-1.47.294A6.72 6.72 0 0 1 2.25 15v-1.5a.75.75 0 0 1 .75-.75Zm18 0a.75.75 0 0 1 .75.75V15c0 .45-.045.89-.13 1.317a.75.75 0 0 1-1.47-.294c.065-.33.1-.673.1-1.023v-1.5a.75.75 0 0 1 .75-.75ZM3.597 17.707a.75.75 0 0 1 1.041.204 5.325 5.325 0 0 0 1.45 1.45.75.75 0 0 1-.836 1.246 6.826 6.826 0 0 1-1.86-1.86.75.75 0 0 1 .205-1.04Zm16.806 0a.75.75 0 0 1 .204 1.04 6.826 6.826 0 0 1-1.86 1.86.75.75 0 0 1-.835-1.245 5.324 5.324 0 0 0 1.45-1.45.75.75 0 0 1 1.04-.205Zm-13.309 3.03a.75.75 0 0 1 .883-.588c.33.066.673.101 1.023.101h1.5a.75.75 0 0 1 0 1.5H9c-.45 0-.89-.045-1.317-.13a.75.75 0 0 1-.589-.882Zm9.811 0a.75.75 0 0 1-.588.883 6.72 6.72 0 0 1-1.317.13h-1.5a.75.75 0 0 1 0-1.5H15c.35 0 .693-.035 1.023-.1a.75.75 0 0 1 .883.588Z" clip-rule="evenodd"/>
  <path fill="#000" d="m14.5 11.1-4-2.3c-.7-.4-1.6.1-1.6.8v4.6c0 .8.8 1.3 1.5.9l4-2.3c.7-.4.7-1.3.1-1.7Z"/>
  <path fill="#000" fill-rule="evenodd" d="M9.091 8.122a1.857 1.857 0 0 1 1.781.027h.002l4.021 2.313.021.014c1.07.713 1.034 2.301-.143 2.975l-4 2.3c-1.237.707-2.623-.217-2.623-1.551V9.6c0-.691.44-1.217.941-1.478Zm.693 1.33c-.125.065-.134.14-.134.148v4.6c0 .139.064.22.127.26.059.035.142.05.25-.01l4-2.3v-.001c.126-.072.159-.162.161-.228a.22.22 0 0 0-.09-.187l-3.97-2.283a.358.358 0 0 0-.344.002Z" clip-rule="evenodd"/>
</svg>
