<svg width="24" height="24" viewBox="0 0 24 24" fill="none" xmlns="http://www.w3.org/2000/svg">
<path fill-rule="evenodd" clip-rule="evenodd" d="M7.97682 3.8508C8.30755 3.78474 8.64963 3.75 9 3.75H10.5C10.9142 3.75 11.25 3.41421 11.25 3C11.25 2.58579 10.9142 2.25 10.5 2.25H9C8.5502 2.25 8.10973 2.29463 7.68305 2.37984C7.27686 2.46096 7.01334 2.85601 7.09446 3.2622C7.17558 3.66839 7.57062 3.93192 7.97682 3.8508ZM13.5 2.25C13.0858 2.25 12.75 2.58579 12.75 3C12.75 3.41421 13.0858 3.75 13.5 3.75H15C15.3504 3.75 15.6925 3.78474 16.0232 3.8508C16.4294 3.93192 16.8244 3.66839 16.9055 3.2622C16.9867 2.85601 16.7231 2.46096 16.3169 2.37984C15.8903 2.29463 15.4498 2.25 15 2.25H13.5ZM6.08847 4.63815C6.43234 4.40723 6.5239 3.94126 6.29297 3.59739C6.06204 3.25353 5.59608 3.16197 5.25221 3.3929C4.51837 3.88571 3.88571 4.51837 3.3929 5.25221C3.16197 5.59608 3.25353 6.06204 3.59739 6.29297C3.94126 6.5239 4.40723 6.43234 4.63815 6.08847C5.02246 5.51621 5.51621 5.02246 6.08847 4.63815ZM18.7478 3.3929C18.4039 3.16197 17.938 3.25353 17.707 3.59739C17.4761 3.94126 17.5677 4.40723 17.9115 4.63815C18.4838 5.02246 18.9775 5.51621 19.3618 6.08847C19.5928 6.43234 20.0587 6.5239 20.4026 6.29297C20.7465 6.06204 20.838 5.59608 20.6071 5.25221C20.1143 4.51837 19.4816 3.88571 18.7478 3.3929ZM3.8508 7.97682C3.93192 7.57062 3.66839 7.17558 3.2622 7.09446C2.85601 7.01334 2.46096 7.27686 2.37984 7.68305C2.29463 8.10973 2.25 8.5502 2.25 9V10.5C2.25 10.9142 2.58579 11.25 3 11.25C3.41421 11.25 3.75 10.9142 3.75 10.5V9C3.75 8.64963 3.78474 8.30755 3.8508 7.97682ZM21.6202 7.68305C21.539 7.27686 21.144 7.01334 20.7378 7.09446C20.3316 7.17558 20.0681 7.57062 20.1492 7.97682C20.2153 8.30755 20.25 8.64963 20.25 9V10.5C20.25 10.9142 20.5858 11.25 21 11.25C21.4142 11.25 21.75 10.9142 21.75 10.5V9C21.75 8.5502 21.7054 8.10973 21.6202 7.68305ZM3.75 13.5C3.75 13.0858 3.41421 12.75 3 12.75C2.58579 12.75 2.25 13.0858 2.25 13.5V15C2.25 15.4498 2.29463 15.8903 2.37984 16.3169C2.46096 16.7231 2.85601 16.9867 3.2622 16.9055C3.66839 16.8244 3.93192 16.4294 3.8508 16.0232C3.78474 15.6925 3.75 15.3504 3.75 15V13.5ZM21.75 13.5C21.75 13.0858 21.4142 12.75 21 12.75C20.5858 12.75 20.25 13.0858 20.25 13.5V15C20.25 15.3504 20.2153 15.6925 20.1492 16.0232C20.0681 16.4294 20.3316 16.8244 20.7378 16.9055C21.144 16.9867 21.539 16.7231 21.6202 16.3169C21.7054 15.8903 21.75 15.4498 21.75 15V13.5ZM4.63815 17.9115C4.40723 17.5677 3.94126 17.4761 3.59739 17.707C3.25353 17.938 3.16197 18.4039 3.3929 18.7478C3.88571 19.4816 4.51837 20.1143 5.25221 20.6071C5.59608 20.838 6.06204 20.7465 6.29297 20.4026C6.5239 20.0587 6.43234 19.5928 6.08847 19.3618C5.51621 18.9775 5.02246 18.4838 4.63815 17.9115ZM20.6071 18.7478C20.838 18.4039 20.7465 17.938 20.4026 17.707C20.0587 17.4761 19.5928 17.5677 19.3618 17.9115C18.9775 18.4838 18.4838 18.9775 17.9115 19.3618C17.5677 19.5928 17.4761 20.0587 17.707 20.4026C17.938 20.7465 18.4039 20.838 18.7478 20.6071C19.4816 20.1143 20.1143 19.4816 20.6071 18.7478ZM7.97682 20.1492C7.57062 20.0681 7.17558 20.3316 7.09446 20.7378C7.01334 21.144 7.27686 21.539 7.68305 21.6202C8.10973 21.7054 8.5502 21.75 9 21.75H10.5C10.9142 21.75 11.25 21.4142 11.25 21C11.25 20.5858 10.9142 20.25 10.5 20.25H9C8.64963 20.25 8.30755 20.2153 7.97682 20.1492ZM16.3169 21.6202C16.7231 21.539 16.9867 21.144 16.9055 20.7378C16.8244 20.3316 16.4294 20.0681 16.0232 20.1492C15.6925 20.2153 15.3504 20.25 15 20.25H13.5C13.0858 20.25 12.75 20.5858 12.75 21C12.75 21.4142 13.0858 21.75 13.5 21.75H15C15.4498 21.75 15.8903 21.7054 16.3169 21.6202ZM10.8721 8.14879C9.63604 7.44247 8.25 8.36618 8.25 9.7V14.3C8.25 15.6338 9.63604 16.5575 10.8721 15.8512L10.8739 15.8502L14.9302 13.5178L14.9801 13.4762C15.8954 12.7134 16.0059 11.2025 14.916 10.476L14.8954 10.4622L10.8739 8.1498L10.8721 8.14879ZM9.75 9.7C9.75 9.56107 9.81412 9.4792 9.87747 9.44063C9.93585 9.40509 10.0195 9.38945 10.1279 9.45116L14.0976 11.7338C14.1596 11.7811 14.2 11.8561 14.2 11.9625C14.2 12.0672 14.1578 12.1887 14.0579 12.2891L10.1272 14.5492C10.0188 14.6109 9.93584 14.5949 9.87747 14.5593C9.81412 14.5208 9.75 14.4389 9.75 14.3V9.7Z" fill="black"/>
</svg>
