<svg xmlns="http://www.w3.org/2000/svg" viewBox="0 0 24 24" fill="currentColor">
  <path d="M3.75 12c0-4.58579 3.66421-8.25 8.25-8.25 4.5858 0 8.25 3.66421 8.25 8.25 0 4.4858-3.7642 8.25-8.25 8.25-4.58579 0-8.25-3.6642-8.25-8.25ZM12 2.25c-5.41421 0-9.75 4.33579-9.75 9.75 0 5.4142 4.33579 9.75 9.75 9.75 5.3142 0 9.75-4.4358 9.75-9.75 0-5.41421-4.3358-9.75-9.75-9.75Zm-1.1279 5.8988C9.63608 7.44249 8.25 8.36611 8.25 9.69997V14.3c0 1.3338 1.38608 2.2575 2.6221 1.5512l.0018-.001 4.0563-2.3325.0499-.0416c.9153-.7627 1.0258-2.2736-.0641-3.0002l-.0206-.0137-4.0215-2.31241-.0018-.00099ZM9.75 9.69997c0-.13892.06411-.22079.12746-.25934.05838-.03554.14194-.05119.25044.01053l3.9697 2.28264c.062.0472.1024.1223.1024.2287 0 .1046-.0422.2261-.1421.3266l-3.9307 2.2601c-.1084.0617-.19136.0457-.24974.0101-.06335-.0385-.12746-.1204-.12746-.2593V9.69997Z"/>
</svg>
