<svg xmlns="http://www.w3.org/2000/svg" viewBox="0 0 24 24" fill="currentColor">
  <path d="M12 3.75c-4.58579 0-8.25 3.66421-8.25 8.25 0 4.4912 3.66962 8.25 8.25 8.25 4.5858 0 8.25-3.6642 8.25-8.25 0-4.58579-3.6642-8.25-8.25-8.25ZM2.25 12c0-5.41421 4.33579-9.75 9.75-9.75 5.4142 0 9.75 4.33579 9.75 9.75 0 5.4142-4.3358 9.75-9.75 9.75-5.41962 0-9.75-4.4412-9.75-9.75ZM14 8.25c.4142 0 .75.33579.75.75v6c0 .4142-.3358.75-.75.75s-.75-.3358-.75-.75V9c0-.41421.3358-.75.75-.75ZM10.75 9c0-.41421-.3358-.75-.75-.75-.41421 0-.75.33579-.75.75v6c0 .4142.33579.75.75.75.4142 0 .75-.3358.75-.75V9Z"/>
</svg>
