<svg xmlns="http://www.w3.org/2000/svg" viewBox="0 0 24 24" fill="currentColor">
  <path d="M12 3.75c-4.58579 0-8.25 3.66421-8.25 8.25 0 4.5858 3.66421 8.25 8.25 8.25 4.4858 0 8.25-3.7642 8.25-8.25 0-4.58579-3.6642-8.25-8.25-8.25ZM2.25 12c0-5.41421 4.33579-9.75 9.75-9.75 5.4142 0 9.75 4.33579 9.75 9.75 0 5.3142-4.4358 9.75-9.75 9.75-5.41421 0-9.75-4.3358-9.75-9.75Zm6-2c0-.41421.33579-.75.75-.75h6c.4142 0 .75.33579.75.75 0 .4142-.3358.75-.75.75H9c-.41421 0-.75-.3358-.75-.75ZM9 13.25c-.41421 0-.75.3358-.75.75s.33579.75.75.75h6c.4142 0 .75-.3358.75-.75s-.3358-.75-.75-.75H9Z"/>
</svg>
