<svg xmlns="http://www.w3.org/2000/svg" viewBox="0 0 24 24" fill="currentColor">
  <path d="M10.3853 3.90505C10.9061 3.8034 11.4459 3.75 12 3.75s1.0939.0534 1.6147.15505c.4066.07934.8005-.18591.8798-.59245.0794-.40654-.1859-.80043-.5924-.87977C13.2867 2.31273 12.6507 2.25 12 2.25c-.6507 0-1.2867.06273-1.9021.18283-.40651.07934-.67176.47323-.59241.87977.07934.40654.47323.67179.87981.59245Zm7.0399-.02377c-.3447-.22973-.8104-.13654-1.0401.20813-.2297.34467-.1365.81031.2081 1.04004.9018.60101 1.6763 1.37557 2.2774 2.27731.2297.34467.6953.43785 1.04.20813.3447-.22973.4378-.69537.2081-1.04004-.7109-1.06663-1.6269-1.98266-2.6935-2.69357ZM7.40676 5.12945c.34467-.22973.43785-.69537.20813-1.04004-.22973-.34467-.69537-.43786-1.04004-.20813-1.06663.71091-1.98266 1.62694-2.69357 2.69357-.22973.34467-.13654.81031.20813 1.04004.34467.22972.81031.13654 1.04004-.20813.60101-.90174 1.37557-1.6763 2.27731-2.27731ZM3.90505 10.3853c.07934-.40658-.18591-.80047-.59245-.87981-.40654-.07935-.80043.1859-.87977.59241C2.31273 10.7133 2.25 11.3493 2.25 12c0 .6507.06273 1.2867.18283 1.9021.07934.4065.47323.6718.87977.5924.40654-.0793.67179-.4732.59245-.8798C3.8034 13.0939 3.75 12.5541 3.75 12s.0534-1.0939.15505-1.6147Zm17.66215-.2874c-.0794-.40651-.4733-.67176-.8798-.59241-.4065.07934-.6718.47323-.5925.87981.1017.5208.1551 1.0606.1551 1.6147 0 .5467-.0558 1.0823-.1619 1.6016-.0829.4059.1788.8021.5846.885.4059.0829.8021-.1788.885-.5847.126-.6167.1923-1.2529.1923-1.9019 0-.6507-.0627-1.2867-.1828-1.9021ZM20.0799 17.4c.2321-.3431.1422-.8093-.2009-1.0414-.343-.2322-.8093-.1422-1.0414.2009-.6062.8958-1.3823 1.6719-2.2781 2.2781-.3431.2321-.4331.6984-.2009 1.0414.2321.3431.6983.433 1.0414.2009 1.0542-.7132 1.9667-1.6257 2.6799-2.6799Zm-14.95045-.8068c-.22973-.3446-.69537-.4378-1.04004-.2081-.34467.2297-.43786.6954-.20813 1.0401.71091 1.0666 1.62694 1.9826 2.69357 2.6935.34467.2297.81031.1366 1.04004-.2081.22972-.3447.13654-.8103-.20813-1.04-.90174-.6011-1.6763-1.3756-2.27731-2.2774Zm8.77245 4.9645c.4059-.0829.6676-.4791.5847-.885-.0829-.4058-.4791-.6675-.885-.5846-.5193.1061-1.0549.1619-1.6016.1619-.5541 0-1.0939-.0534-1.6147-.1551-.40658-.0793-.80047.186-.87981.5925-.07935.4065.1859.8004.59241.8798.6154.1201 1.2514.1828 1.9021.1828.649 0 1.2852-.0663 1.9019-.1923ZM11.8721 8.14879C10.636 7.44247 9.25 8.36618 9.25 9.7v4.6c0 1.3338 1.386 2.2575 2.6221 1.5512l.0018-.001 4.0563-2.3324.0499-.0416c.9153-.7628 1.0258-2.2737-.0641-3.0002l-.0206-.0138-4.0215-2.3124-.0018-.00101ZM10.75 9.7c0-.13893.0641-.2208.1275-.25937.0584-.03554.142-.05118.2504.01053l3.9697 2.28264c.062.0473.1024.1223.1024.2287 0 .1047-.0422.2262-.1421.3266l-3.9307 2.2601c-.1084.0617-.1914.0457-.2497.0101-.0634-.0385-.1275-.1204-.1275-.2593V9.7Z"/>
</svg>
