<svg width="24" height="24" viewBox="0 0 24 24" fill="none" xmlns="http://www.w3.org/2000/svg">
<path fill-rule="evenodd" clip-rule="evenodd" d="M3.75 12C3.75 7.41421 7.41421 3.75 12 3.75C16.5858 3.75 20.25 7.41421 20.25 12C20.25 16.4858 16.4858 20.25 12 20.25C7.41421 20.25 3.75 16.5858 3.75 12ZM12 2.25C6.58579 2.25 2.25 6.58579 2.25 12C2.25 17.4142 6.58579 21.75 12 21.75C17.3142 21.75 21.75 17.3142 21.75 12C21.75 6.58579 17.4142 2.25 12 2.25ZM10.8721 8.1488C9.63608 7.44249 8.25 8.36611 8.25 9.69997V14.3C8.25 15.6338 9.63608 16.5575 10.8721 15.8512L10.8739 15.8502L14.9302 13.5177L14.9801 13.4761C15.8954 12.7134 16.0059 11.2025 14.916 10.4759L14.8954 10.4622L10.8739 8.14979L10.8721 8.1488ZM9.75 9.69997C9.75 9.56105 9.81411 9.47918 9.87746 9.44063C9.93584 9.40509 10.0194 9.38944 10.1279 9.45116L14.0976 11.7338C14.1596 11.781 14.2 11.8561 14.2 11.9625C14.2 12.0671 14.1578 12.1886 14.0579 12.2891L10.1272 14.5492C10.0188 14.6109 9.93584 14.5949 9.87746 14.5593C9.81411 14.5208 9.75 14.4389 9.75 14.3V9.69997Z" fill="black"/>
</svg>
