<svg xmlns="http://www.w3.org/2000/svg" fill="none" viewBox="0 0 24 24">
  <path fill="#000" fill-rule="evenodd" d="M10.385 3.905a8.423 8.423 0 0 1 3.23 0 .75.75 0 1 0 .287-1.472 9.924 9.924 0 0 0-3.804 0 .75.75 0 1 0 .287 1.472Zm7.04-.024a.75.75 0 0 0-.832 1.248 8.21 8.21 0 0 1 2.278 2.278.75.75 0 1 0 1.248-.832 9.71 9.71 0 0 0-2.694-2.694ZM7.407 5.13a.75.75 0 0 0-.832-1.248A9.71 9.71 0 0 0 3.88 6.575a.75.75 0 1 0 1.248.832 8.21 8.21 0 0 1 2.278-2.278Zm-3.502 5.256a.75.75 0 0 0-1.472-.287 9.924 9.924 0 0 0 0 3.804.75.75 0 1 0 1.472-.287 8.423 8.423 0 0 1 0-3.23Zm17.662-.287a.75.75 0 0 0-1.472.287c.102.521.155 1.06.155 1.615 0 .547-.056 1.082-.162 1.602a.75.75 0 1 0 1.47.3A9.495 9.495 0 0 0 21.75 12c0-.65-.063-1.287-.183-1.902ZM20.08 17.4a.75.75 0 1 0-1.242-.84 8.525 8.525 0 0 1-2.279 2.278.75.75 0 1 0 .841 1.242 10.019 10.019 0 0 0 2.68-2.68Zm-14.95-.807a.75.75 0 0 0-1.249.832 9.71 9.71 0 0 0 2.694 2.694.75.75 0 1 0 .832-1.248 8.21 8.21 0 0 1-2.278-2.278Zm8.772 4.965a.75.75 0 1 0-.3-1.47A7.994 7.994 0 0 1 12 20.25a8.419 8.419 0 0 1-1.615-.155.75.75 0 0 0-.287 1.472c.615.12 1.251.183 1.902.183.649 0 1.285-.066 1.902-.192Zm-2.03-13.41C10.636 7.443 9.25 8.367 9.25 9.7v4.6c0 1.334 1.386 2.258 2.622 1.551h.002l4.056-2.333.05-.042c.915-.763 1.026-2.274-.064-3l-.02-.014-4.022-2.312-.002-.001ZM10.75 9.7c0-.139.064-.22.127-.26.059-.035.143-.05.25.011l3.97 2.283a.273.273 0 0 1 .103.229.468.468 0 0 1-.142.326l-3.93 2.26c-.11.062-.192.046-.25.01-.064-.038-.128-.12-.128-.259V9.7Z" clip-rule="evenodd"/>
</svg>
