<svg xmlns="http://www.w3.org/2000/svg" viewBox="0 0 24 24" fill="currentColor">
  <path d="M3.75 9c0-2.88579 2.36421-5.25 5.25-5.25h6c2.8858 0 5.25 2.36421 5.25 5.25v6c0 2.8858-2.3642 5.25-5.25 5.25H9c-2.88579 0-5.25-2.3642-5.25-5.25V9ZM9 2.25C5.28579 2.25 2.25 5.28579 2.25 9v6c0 3.7142 3.03579 6.75 6.75 6.75h6c3.7142 0 6.75-3.0358 6.75-6.75V9c0-3.71421-3.0358-6.75-6.75-6.75H9Zm1.8721 5.8988C9.63608 7.44249 8.25 8.36611 8.25 9.69997V14.3c0 1.3338 1.38608 2.2575 2.6221 1.5512l.0018-.001 4.0563-2.3325.0499-.0416c.9153-.7627 1.0258-2.2736-.0641-3.0002l-.0206-.0137-4.0215-2.31241-.0018-.00099ZM9.75 9.69997c0-.13892.06411-.22079.12746-.25934.05838-.03554.14194-.05119.25044.01053l3.9697 2.28264c.062.0472.1024.1223.1024.2287 0 .1046-.0422.2261-.1421.3266l-3.9307 2.2601c-.1084.0617-.19136.0457-.24974.0101-.06335-.0385-.12746-.1204-.12746-.2593V9.69997Z"/>
</svg>
