<svg xmlns="http://www.w3.org/2000/svg" viewBox="0 0 24 24" fill="currentColor">
  <path d="M7.52502 8.79995c0-1.33386 1.38608-2.25748 2.62208-1.55118l.0051.0029 5.5198 3.21153.019.0127c.5484.3656.784.9751.784 1.5241 0 .5489-.2356 1.1584-.784 1.524l-.019.0127-5.5249 3.2145c-1.23599.7063-2.62208-.2174-2.62208-1.5512V8.79995Zm1.62746-.25935c-.06334.03856-.12746.12042-.12746.25935V15.2c0 .1389.06412.2207.12746.2593.05815.0354.14068.0514.24851-.0094l5.46881-3.1819c.0494-.0393.1052-.1274.1052-.268 0-.1407-.0558-.2288-.1052-.2681L9.40101 8.55005c-.10784-.06089-.19037-.04485-.24853-.00945Z"/>
</svg>
