<svg xmlns="http://www.w3.org/2000/svg" viewBox="0 0 24 24" fill="currentColor">
  <path d="M7.97682 3.8508C8.30755 3.78474 8.64963 3.75 9 3.75h1.5c.4142 0 .75-.33579.75-.75s-.3358-.75-.75-.75H9c-.4498 0-.89027.04463-1.31695.12984-.40619.08112-.66971.47617-.58859.88236.08112.40619.47616.66972.88236.5886ZM13.5 2.25c-.4142 0-.75.33579-.75.75s.3358.75.75.75H15c.3504 0 .6925.03474 1.0232.1008.4062.08112.8012-.18241.8823-.5886.0812-.40619-.1824-.80124-.5886-.88236C15.8903 2.29463 15.4498 2.25 15 2.25h-1.5ZM6.08847 4.63815c.34387-.23092.43543-.69689.2045-1.04076-.23093-.34386-.69689-.43542-1.04076-.20449-.73384.49281-1.3665 1.12547-1.85931 1.85931-.23093.34387-.13937.80983.20449 1.04076.34387.23093.80984.13937 1.04076-.2045.38431-.57226.87806-1.06601 1.45032-1.45032ZM18.7478 3.3929c-.3439-.23093-.8098-.13937-1.0408.20449-.2309.34387-.1393.80984.2045 1.04076.5723.38431 1.066.87806 1.4503 1.45032.231.34387.6969.43543 1.0408.2045s.4354-.69689.2045-1.04076c-.4928-.73384-1.1255-1.3665-1.8593-1.85931ZM3.8508 7.97682c.08112-.4062-.18241-.80124-.5886-.88236-.40619-.08112-.80124.1824-.88236.58859C2.29463 8.10973 2.25 8.5502 2.25 9v1.5c0 .4142.33579.75.75.75s.75-.3358.75-.75V9c0-.35037.03474-.69245.1008-1.02318Zm17.7694-.29377c-.0812-.40619-.4762-.66971-.8824-.58859-.4062.08112-.6697.47616-.5886.88236.0661.33073.1008.67281.1008 1.02318v1.5c0 .4142.3358.75.75.75s.75-.3358.75-.75V9c0-.4498-.0446-.89027-.1298-1.31695ZM3.75 13.5c0-.4142-.33579-.75-.75-.75s-.75.3358-.75.75V15c0 .4498.04463.8903.12984 1.3169.08112.4062.47617.6698.88236.5886.40619-.0811.66972-.4761.5886-.8823C3.78474 15.6925 3.75 15.3504 3.75 15v-1.5Zm18 0c0-.4142-.3358-.75-.75-.75s-.75.3358-.75.75V15c0 .3504-.0347.6925-.1008 1.0232-.0811.4062.1824.8012.5886.8823.4062.0812.8012-.1824.8824-.5886.0852-.4266.1298-.8671.1298-1.3169v-1.5ZM4.63815 17.9115c-.23092-.3438-.69689-.4354-1.04076-.2045-.34386.231-.43542.6969-.20449 1.0408.49281.7338 1.12547 1.3665 1.85931 1.8593.34387.2309.80983.1394 1.04076-.2045.23093-.3439.13937-.8098-.2045-1.0408-.57226-.3843-1.06601-.878-1.45032-1.4503Zm15.96895.8363c.2309-.3439.1394-.8098-.2045-1.0408-.3439-.2309-.8098-.1393-1.0408.2045-.3843.5723-.878 1.066-1.4503 1.4503-.3438.231-.4354.6969-.2045 1.0408.231.3439.6969.4354 1.0408.2045.7338-.4928 1.3665-1.1255 1.8593-1.8593ZM7.97682 20.1492c-.4062-.0811-.80124.1824-.88236.5886-.08112.4062.1824.8012.58859.8824.42668.0852.86715.1298 1.31695.1298h1.5c.4142 0 .75-.3358.75-.75s-.3358-.75-.75-.75H9c-.35037 0-.69245-.0347-1.02318-.1008Zm8.34008 1.471c.4062-.0812.6698-.4762.5886-.8824-.0811-.4062-.4761-.6697-.8823-.5886-.3307.0661-.6728.1008-1.0232.1008h-1.5c-.4142 0-.75.3358-.75.75s.3358.75.75.75H15c.4498 0 .8903-.0446 1.3169-.1298ZM10.8721 8.14879C9.63604 7.44247 8.25 8.36618 8.25 9.7v4.6c0 1.3338 1.38604 2.2575 2.6221 1.5512l.0018-.001 4.0563-2.3324.0499-.0416c.9153-.7628 1.0258-2.2737-.0641-3.0002l-.0206-.0138-4.0215-2.3124-.0018-.00101ZM9.75 9.7c0-.13893.06412-.2208.12747-.25937.05838-.03554.14203-.05118.25043.01053l3.9697 2.28264c.062.0473.1024.1223.1024.2287 0 .1047-.0422.2262-.1421.3266l-3.9307 2.2601c-.1084.0617-.19136.0457-.24973.0101-.06335-.0385-.12747-.1204-.12747-.2593V9.7Z"/>
</svg>
