<svg xmlns="http://www.w3.org/2000/svg" viewBox="0 0 24 24" fill="currentColor">
  <path d="m18.6968 5.36309-4.3189-2.51102c-1.4333-.83574-3.3226-.83586-4.75585 0l-4.3 2.5c-1.42369.83048-2.3721 2.37338-2.3721 4.14783v5c0 1.6909.96112 3.2088 2.33398 4.124l.01915.0128 4.31897 2.511c1.43345.8362 3.32235.8361 4.75585 0l4.3189-2.511.0192-.0128c1.3728-.9152 2.334-2.4331 2.334-4.124v-5c0-1.69093-.9612-3.2088-2.334-4.12404l-.0192-.01277Zm-8.3189-1.21535c.9664-.56378 2.2777-.56378 3.2442 0l.0009.00054 4.2793 2.48795c1.0164.68538 1.6477 1.76122 1.6477 2.86367v5c0 1.1025-.6313 2.1783-1.6477 2.8637l-4.2802 2.4885c-.9665.5637-2.2778.5637-3.2442 0l-4.28026-2.4885c-1.0164-.6854-1.64769-1.7612-1.64769-2.8637v-5c0-1.22539.6518-2.2826 1.6279-2.85216l4.30005-2.5Zm1.0941 4.00105C10.2359 7.44247 8.84985 8.36618 8.84985 9.7v4.6c0 1.3338 1.38605 2.2575 2.62215 1.5512l.0017-.001 4.032-2.3184.0301-.0215c.5258-.3756.8391-.9431.8391-1.5478 0-.6141-.3258-1.1834-.9019-1.5131l-.001-.0006-3.9983-2.299-.0017-.00101ZM10.3499 9.7c0-.13893.0641-.2208.1274-.25937.0584-.03554.142-.05118.2504.01053l3.9983 2.29904.0017.001c.1233.0704.1472.1508.1472.2113 0 .0669-.0333.19-.1863.3088l-3.9616 2.2779c-.1084.0617-.1913.0457-.2497.0101-.0633-.0385-.1274-.1204-.1274-.2593V9.7Z"/>
</svg>
