<svg xmlns="http://www.w3.org/2000/svg" fill="none" viewBox="0 0 24 24">
  <path fill="#000" d="M12 21c-5 0-9-4-9-9s4-9 9-9 9 4 9 9c0 4.9-4.1 9-9 9Z"/>
  <path fill="#000" fill-rule="evenodd" d="M12 3.75A8.213 8.213 0 0 0 3.75 12 8.213 8.213 0 0 0 12 20.25c4.486 0 8.25-3.764 8.25-8.25A8.213 8.213 0 0 0 12 3.75ZM2.25 12A9.713 9.713 0 0 1 12 2.25 9.713 9.713 0 0 1 21.75 12c0 5.314-4.436 9.75-9.75 9.75A9.713 9.713 0 0 1 2.25 12Z" clip-rule="evenodd"/>
  <path fill="#fff" fill-rule="evenodd" d="M8.25 10A.75.75 0 0 1 9 9.25h6a.75.75 0 0 1 0 1.5H9a.75.75 0 0 1-.75-.75Zm0 4a.75.75 0 0 1 .75-.75h6a.75.75 0 0 1 0 1.5H9a.75.75 0 0 1-.75-.75Z" clip-rule="evenodd"/>
</svg>
