<svg width="24" height="24" viewBox="0 0 24 24" fill="none" xmlns="http://www.w3.org/2000/svg">
<path d="M17.45 7.8499V14.8499C17.45 16.2499 16.35 17.3499 14.95 17.3499H9.04999C7.64999 17.3499 6.54999 16.2499 6.54999 14.8499V7.8499C6.54999 5.2499 8.64999 3.1499 11.25 3.1499H12.65C15.35 3.1499 17.45 5.2499 17.45 7.8499Z" fill="black"/>
<path fill-rule="evenodd" clip-rule="evenodd" d="M11.25 3.8999C9.0642 3.8999 7.29999 5.66412 7.29999 7.8499V14.8499C7.29999 15.8357 8.0642 16.5999 9.04999 16.5999H14.95C15.9358 16.5999 16.7 15.8357 16.7 14.8499V7.8499C16.7 5.6744 14.9461 3.8999 12.65 3.8999H11.25ZM5.79999 7.8499C5.79999 4.83569 8.23577 2.3999 11.25 2.3999H12.65C15.7538 2.3999 18.2 4.8254 18.2 7.8499V14.8499C18.2 16.6641 16.7642 18.0999 14.95 18.0999H9.04999C7.23577 18.0999 5.79999 16.6641 5.79999 14.8499V7.8499Z" fill="black"/>
<path fill-rule="evenodd" clip-rule="evenodd" d="M9.5 16.5H14.4V18.85C14.4 20.2559 13.3648 21.6 11.95 21.6C10.5352 21.6 9.5 20.2559 9.5 18.85V16.5ZM11 18V18.85C11 19.6441 11.5648 20.1 11.95 20.1C12.3352 20.1 12.9 19.6441 12.9 18.85V18H11Z" fill="black"/>
<path fill-rule="evenodd" clip-rule="evenodd" d="M10.35 7.59985C10.7642 7.59985 11.1 7.93564 11.1 8.34985V11.6499C11.1 12.0641 10.7642 12.3999 10.35 12.3999C9.93576 12.3999 9.59998 12.0641 9.59998 11.6499V8.34985C9.59998 7.93564 9.93576 7.59985 10.35 7.59985Z" fill="white"/>
<path fill-rule="evenodd" clip-rule="evenodd" d="M13.75 7.69995C14.1642 7.69995 14.5 8.03574 14.5 8.44995V11.65C14.5 12.0642 14.1642 12.4 13.75 12.4C13.3358 12.4 13 12.0642 13 11.65V8.44995C13 8.03574 13.3358 7.69995 13.75 7.69995Z" fill="white"/>
</svg>
