<svg width="24" height="24" viewBox="0 0 24 24" fill="none" xmlns="http://www.w3.org/2000/svg">
<path fill-rule="evenodd" clip-rule="evenodd" d="M8.65438 5.73354C8.85677 6.09494 8.72786 6.55198 8.36646 6.75437C6.08659 8.03109 4.55 10.3901 4.55 13.2C4.55 17.1858 7.81422 20.45 11.8 20.45C15.7858 20.45 19.05 17.1858 19.05 13.2C19.05 10.3901 17.5134 8.03109 15.2336 6.75437C14.8721 6.55198 14.7432 6.09494 14.9456 5.73354C15.148 5.37213 15.6051 5.24322 15.9665 5.44561C18.6866 6.96888 20.55 9.80988 20.55 13.2C20.55 18.0142 16.6142 21.95 11.8 21.95C6.98579 21.95 3.05 18.0142 3.05 13.2C3.05 9.80988 4.91342 6.96888 7.63355 5.44561C7.99495 5.24322 8.452 5.37213 8.65438 5.73354Z" fill="black"/>
<path fill-rule="evenodd" clip-rule="evenodd" d="M11.8 2.05005C12.2142 2.05005 12.55 2.38584 12.55 2.80005V10.1C12.55 10.5143 12.2142 10.85 11.8 10.85C11.3858 10.85 11.05 10.5143 11.05 10.1V2.80005C11.05 2.38584 11.3858 2.05005 11.8 2.05005Z" fill="black"/>
</svg>
