<svg width="24" height="24" viewBox="0 0 24 24" fill="none" xmlns="http://www.w3.org/2000/svg">
<path d="M19.35 5.79996H4.65C3.75 5.79996 2.95 4.99996 2.95 4.09996C2.95 3.19996 3.75 2.39996 4.65 2.39996H19.35C20.25 2.39996 21.05 3.19996 21.05 4.09996C21.05 5.09996 20.25 5.79996 19.35 5.79996Z" fill="black"/>
<path fill-rule="evenodd" clip-rule="evenodd" d="M4.65 3.14996C4.16421 3.14996 3.7 3.61418 3.7 4.09996C3.7 4.58575 4.16421 5.04996 4.65 5.04996H19.35C19.8649 5.04996 20.3 4.65719 20.3 4.09996C20.3 3.61418 19.8358 3.14996 19.35 3.14996H4.65ZM2.2 4.09996C2.2 2.78575 3.33579 1.64996 4.65 1.64996H19.35C20.6642 1.64996 21.8 2.78575 21.8 4.09996C21.8 5.54274 20.6351 6.54996 19.35 6.54996H4.65C3.33579 6.54996 2.2 5.41418 2.2 4.09996Z" fill="black"/>
<path fill-rule="evenodd" clip-rule="evenodd" d="M4.3 5.04999H19.8V14.4C19.8 15.5905 18.7836 16.35 17.75 16.35H6.25C5.09597 16.35 4.3 15.3732 4.3 14.4V5.04999ZM5.8 6.54999V14.4C5.8 14.4962 5.84303 14.615 5.93276 14.71C6.0167 14.7989 6.12471 14.85 6.25 14.85H17.75C18.1164 14.85 18.3 14.6095 18.3 14.4V6.54999H5.8Z" fill="black"/>
<path d="M12.05 21.6C12.8232 21.6 13.45 20.9732 13.45 20.2C13.45 19.4268 12.8232 18.8 12.05 18.8C11.2768 18.8 10.65 19.4268 10.65 20.2C10.65 20.9732 11.2768 21.6 12.05 21.6Z" fill="black"/>
<path fill-rule="evenodd" clip-rule="evenodd" d="M12.05 19.55C11.691 19.55 11.4 19.841 11.4 20.2C11.4 20.559 11.691 20.85 12.05 20.85C12.409 20.85 12.7 20.559 12.7 20.2C12.7 19.841 12.409 19.55 12.05 19.55ZM9.9 20.2C9.9 19.0126 10.8626 18.05 12.05 18.05C13.2374 18.05 14.2 19.0126 14.2 20.2C14.2 21.3874 13.2374 22.35 12.05 22.35C10.8626 22.35 9.9 21.3874 9.9 20.2Z" fill="black"/>
<path fill-rule="evenodd" clip-rule="evenodd" d="M12.05 14.85C12.4642 14.85 12.8 15.1858 12.8 15.6V18.8C12.8 19.2142 12.4642 19.55 12.05 19.55C11.6358 19.55 11.3 19.2142 11.3 18.8V15.6C11.3 15.1858 11.6358 14.85 12.05 14.85Z" fill="black"/>
</svg>
