<svg xmlns="http://www.w3.org/2000/svg" viewBox="0 0 24 24" fill="currentColor">
  <path d="M3.5 3.25c-.41421 0-.75.33579-.75.75s.33579.75.75.75h.85001v7.65c0 1.3142 1.03578 2.35 2.35 2.35H11.25v1.875L7.55 19.4c-.33137.2485-.39853.7186-.15 1.05.24853.3314.71863.3985 1.05.15l2.8-2.1V20c0 .4142.3358.75.75.75s.75-.3358.75-.75v-1.5l2.8 2.1c.3314.2485.8015.1814 1.05-.15.2485-.3314.1814-.8015-.15-1.05l-3.7-2.775V14.75h4.45c1.3582 0 2.3079-1.1668 2.4442-2.257l.0058-.0463V4.75h.85c.4142 0 .75-.33579.75-.75s-.3358-.75-.75-.75h-17Zm13.7 10H6.70001c-.48579 0-.85-.3642-.85-.85V4.75H18.15v7.5968c-.0815.4924-.5198.9032-.95.9032Z"/>
</svg>
