<svg xmlns="http://www.w3.org/2000/svg" fill="none" viewBox="0 0 24 24">
  <path fill="#000" d="M17.2 14H6.7c-.9 0-1.6-.7-1.6-1.6V4h13.8v8.4c-.1.8-.8 1.6-1.7 1.6Z"/>
  <path fill="#000" fill-rule="evenodd" d="M4.35 3.25h15.3v9.197l-.006.046c-.136 1.09-1.086 2.257-2.444 2.257H6.7a2.33 2.33 0 0 1-2.35-2.35V3.25Zm1.5 1.5v7.65c0 .486.364.85.85.85h10.5c.43 0 .869-.41.95-.903V4.75H5.85Z" clip-rule="evenodd"/>
  <path fill="#000" fill-rule="evenodd" d="M2.75 4a.75.75 0 0 1 .75-.75h17a.75.75 0 0 1 0 1.5h-17A.75.75 0 0 1 2.75 4ZM12 13.25a.75.75 0 0 1 .75.75v6a.75.75 0 0 1-1.5 0v-6a.75.75 0 0 1 .75-.75Z" clip-rule="evenodd"/>
  <path fill="#000" fill-rule="evenodd" d="m12 16.063 4.45 3.337a.75.75 0 1 1-.9 1.2L12 17.937 8.45 20.6a.75.75 0 1 1-.9-1.2L12 16.063Z" clip-rule="evenodd"/>
  <path fill="#fff" fill-rule="evenodd" d="M9 9.45a.75.75 0 0 1 .75.75v.8a.75.75 0 0 1-1.5 0v-.8A.75.75 0 0 1 9 9.45Zm2.9-1.3a.75.75 0 0 1 .75.75V11a.75.75 0 0 1-1.5 0V8.9a.75.75 0 0 1 .75-.75Zm2.9-1.4a.75.75 0 0 1 .75.75V11a.75.75 0 0 1-1.5 0V7.5a.75.75 0 0 1 .75-.75Z" clip-rule="evenodd"/>
</svg>
