<svg xmlns="http://www.w3.org/2000/svg" viewBox="0 0 24 24" fill="currentColor">
  <path d="M2.75 4c0-.41421.33579-.75.75-.75h17c.4142 0 .75.33579.75.75s-.3358.75-.75.75h-.85v7.6967l-.0058.0463c-.1363 1.0902-1.086 2.257-2.4442 2.257h-4.45v1.875l3.7 2.775c.3314.2485.3985.7186.15 1.05-.2485.3314-.7186.3985-1.05.15l-2.8-2.1V20c0 .4142-.3358.75-.75.75s-.75-.3358-.75-.75v-1.5l-2.8 2.1c-.33137.2485-.80147.1814-1.05-.15-.24853-.3314-.18137-.8015.15-1.05l3.7-2.775V14.75H6.7c-1.31421 0-2.34999-1.0358-2.34999-2.35V4.75H3.5c-.41421 0-.75-.33579-.75-.75ZM12 13.25h5.2c.4302 0 .8685-.4108.95-.9032V4.75H5.85001v7.65c0 .4858.36421.85.84999.85H12ZM9.75 10.2c0-.41426-.33579-.75005-.75-.75005s-.75.33579-.75.75005v.8c0 .4142.33579.75.75.75s.75-.3358.75-.75v-.8Zm2.15-2.04998c.4142 0 .75.33579.75.75V11c0 .4142-.3358.75-.75.75s-.75-.3358-.75-.75V8.90002c0-.41421.3358-.75.75-.75ZM15.55 7.5c0-.41421-.3358-.75-.75-.75s-.75.33579-.75.75V11c0 .4142.3358.75.75.75s.75-.3358.75-.75V7.5Z"/>
</svg>
