<svg xmlns="http://www.w3.org/2000/svg" viewBox="0 0 24 24" fill="currentColor">
  <path d="M8.80005 4.5c0-.07937.02914-.13461.07424-.17671.05261-.0491.12111-.07329.17576-.07329H15.05c.0794 0 .1347.02914.1768.07424.0491.05261.0732.12111.0732.17576v3.39999c0 .05137.0052.10153.0151.15H8.78505c.00983-.04847.015-.09863.015-.15V4.5Zm-1.485 3.54999c-.00984-.04847-.015-.09863-.015-.15V4.5c0-1.06211.88536-1.75 1.75-1.75H15.05c1.0622 0 1.75.88536 1.75 1.75v3.39999c0 .05137-.0051.10153-.015.15h2.565c1.3143 0 2.35 1.03577 2.35 2.35001v4c0 1.3142-1.0357 2.35-2.35 2.35h-2.7499v2.1679c.2662 1.3378-.9153 2.3321-2.05 2.3321H9.45007c-1.21421 0-2.25-1.0358-2.25-2.25v-2.25H4.65005c-1.31422 0-2.35-1.0358-2.35-2.35v-4c0-1.31424 1.03579-2.35001 2.35-2.35001h2.665ZM19.35 15.25h-2.7499v-.75c0-1.0142-.8358-1.85-1.85-1.85H9.05008c-1.01421 0-1.85001.8358-1.85001 1.85v.75H4.65005c-.48578 0-.85-.3642-.85-.85v-4c0-.4858.36421-.85001.85-.85001H19.35c.4858 0 .85.36421.85.85001v4c0 .4858-.3642.85-.85.85Zm-10.29992-1.1c-.18579 0-.35001.1642-.35001.35V19c0 .3858.36422.75.75.75h5.10003c.185 0 .3597-.0831.47-.2045.1026-.1129.1342-.2361.1024-.3636l-.0224-.0895V14.5c0-.1858-.1642-.35-.35-.35H9.05008Z"/>
</svg>
