<svg xmlns="http://www.w3.org/2000/svg" viewBox="0 0 24 24" fill="currentColor">
  <path d="M15.6648 3.15303c.1917.36718.0494.82025-.3178 1.01196l-6.67481 3.4851h9.35121l.0234.00146c1.8248.11405 3.7032 1.40182 3.7032 3.34855v6.9c0 1.8986-1.7256 3.35-3.75 3.35H6c-2.0244 0-3.75-1.4514-3.75-3.35v-6.9c0-1.68428 1.35791-3.01656 3.07774-3.29595l9.32506-4.86883c.3672-.19171.8202-.04947 1.012.31771ZM5.78407 9.15804l-1.70797.89176c-.2115.2915-.3261.624-.3261.9503v6.9c0 .9013.8744 1.85 2.25 1.85h12c1.3756 0 2.25-.9487 2.25-1.85v-6.9c0-.8487-.9117-1.7557-2.2746-1.85001H6c-.07342 0-.14542.0027-.21593.00795ZM6.75 14.5002c0-1.2427 1.00736-2.25 2.25-2.25 1.2426 0 2.25 1.0073 2.25 2.25 0 1.2426-1.0074 2.25-2.25 2.25-1.24264 0-2.25-1.0074-2.25-2.25Zm2.25-3.75c-2.07107 0-3.75 1.6789-3.75 3.75s1.67893 3.75 3.75 3.75c2.0711 0 3.75-1.6789 3.75-3.75s-1.6789-3.75-3.75-3.75Z"/>
</svg>
