<svg width="24" height="24" viewBox="0 0 24 24" fill="none" xmlns="http://www.w3.org/2000/svg">
<path fill-rule="evenodd" clip-rule="evenodd" d="M6.25395 9.2071C6.6936 8.78004 7.28578 8.55005 8 8.55005C8.41421 8.55005 8.75 8.21426 8.75 7.80005C8.75 7.38584 8.41421 7.05005 8 7.05005C6.92709 7.05005 5.9277 7.41169 5.16967 8.16972L5.14561 8.19377L5.12383 8.21991C4.54767 8.91131 4.05 9.87538 4.05 11C4.05 13.2143 5.78579 14.95 8 14.95H16C17.0729 14.95 18.0723 14.5884 18.8303 13.8304L18.8544 13.8063L18.8762 13.7802C19.4523 13.0888 19.95 12.1247 19.95 11C19.95 8.78584 18.2142 7.05005 16 7.05005C15.5858 7.05005 15.25 7.38584 15.25 7.80005C15.25 8.21426 15.5858 8.55005 16 8.55005C17.3858 8.55005 18.45 9.61426 18.45 11C18.45 11.6635 18.1582 12.289 17.746 12.793C17.3064 13.2201 16.7142 13.45 16 13.45H8C6.61421 13.45 5.55 12.3858 5.55 11C5.55 10.3366 5.84181 9.71113 6.25395 9.2071Z" fill="black"/>
<path fill-rule="evenodd" clip-rule="evenodd" d="M12 4.55005C10.2142 4.55005 8.75 6.01426 8.75 7.80005C8.75 8.21426 8.41421 8.55005 8 8.55005C7.58579 8.55005 7.25 8.21426 7.25 7.80005C7.25 5.18584 9.38579 3.05005 12 3.05005C14.6142 3.05005 16.75 5.18584 16.75 7.80005C16.75 8.21426 16.4142 8.55005 16 8.55005C15.5858 8.55005 15.25 8.21426 15.25 7.80005C15.25 6.01426 13.7858 4.55005 12 4.55005Z" fill="black"/>
<path fill-rule="evenodd" clip-rule="evenodd" d="M8.45286 16.5933C8.73276 16.8986 8.71213 17.3731 8.40679 17.653L7.20679 18.753C6.90145 19.0329 6.42703 19.0122 6.14713 18.7069C5.86724 18.4016 5.88786 17.9271 6.1932 17.6472L7.3932 16.5472C7.69854 16.2673 8.17297 16.288 8.45286 16.5933Z" fill="black"/>
<path fill-rule="evenodd" clip-rule="evenodd" d="M10.5303 18.5698C10.8232 18.8627 10.8232 19.3375 10.5303 19.6304L9.43033 20.7304C9.13743 21.0233 8.66256 21.0233 8.36967 20.7304C8.07677 20.4375 8.07677 19.9627 8.36967 19.6698L9.46967 18.5698C9.76256 18.2769 10.2374 18.2769 10.5303 18.5698Z" fill="black"/>
<path fill-rule="evenodd" clip-rule="evenodd" d="M14.6303 16.5698C14.9232 16.8627 14.9232 17.3375 14.6303 17.6304L13.5303 18.7304C13.2374 19.0233 12.7626 19.0233 12.4697 18.7304C12.1768 18.4375 12.1768 17.9627 12.4697 17.6698L13.5697 16.5698C13.8626 16.2769 14.3374 16.2769 14.6303 16.5698Z" fill="black"/>
<path fill-rule="evenodd" clip-rule="evenodd" d="M16.7303 18.5698C17.0232 18.8627 17.0232 19.3375 16.7303 19.6304L15.6303 20.7304C15.3374 21.0233 14.8626 21.0233 14.5697 20.7304C14.2768 20.4375 14.2768 19.9627 14.5697 19.6698L15.6697 18.5698C15.9626 18.2769 16.4374 18.2769 16.7303 18.5698Z" fill="black"/>
</svg>
