<svg width="24" height="24" viewBox="0 0 24 24" fill="none" xmlns="http://www.w3.org/2000/svg">
<path d="M18.8 6.80005V11.8H4.8V6.80005C4.8 4.60005 6.6 2.80005 8.8 2.80005H14.8C17 2.80005 18.8 4.50005 18.8 6.80005Z" fill="black"/>
<path fill-rule="evenodd" clip-rule="evenodd" d="M8.8 3.55005C7.01422 3.55005 5.55 5.01426 5.55 6.80005V11.05H18.05V6.80005C18.05 4.92651 16.5981 3.55005 14.8 3.55005H8.8ZM4.05 6.80005C4.05 4.18584 6.18579 2.05005 8.8 2.05005H14.8C17.4019 2.05005 19.55 4.07359 19.55 6.80005V12.55H4.05V6.80005Z" fill="black"/>
<path fill-rule="evenodd" clip-rule="evenodd" d="M4.05 11.05H19.55V16.8C19.55 19.4143 17.4142 21.55 14.8 21.55H8.8C6.18579 21.55 4.05 19.4143 4.05 16.8V11.05ZM5.55 12.55V16.8C5.55 18.5858 7.01422 20.05 8.8 20.05H14.8C16.5858 20.05 18.05 18.5858 18.05 16.8V12.55H5.55Z" fill="black"/>
</svg>
