<svg xmlns="http://www.w3.org/2000/svg" fill="none" viewBox="0 0 24 24">
  <path fill="#000" d="M18.8 6.8v5h-14v-5c0-2.2 1.8-4 4-4h6c2.2 0 4 1.7 4 4Z"/>
  <path fill="#000" fill-rule="evenodd" d="M8.8 3.55A3.262 3.262 0 0 0 5.55 6.8v4.25h12.5V6.8c0-1.873-1.452-3.25-3.25-3.25h-6ZM4.05 6.8A4.762 4.762 0 0 1 8.8 2.05h6c2.602 0 4.75 2.024 4.75 4.75v5.75H4.05V6.8Z" clip-rule="evenodd"/>
  <path fill="#000" fill-rule="evenodd" d="M4.05 11.05h15.5v5.75a4.762 4.762 0 0 1-4.75 4.75h-6a4.762 4.762 0 0 1-4.75-4.75v-5.75Zm1.5 1.5v4.25a3.262 3.262 0 0 0 3.25 3.25h6a3.262 3.262 0 0 0 3.25-3.25v-4.25H5.55Z" clip-rule="evenodd"/>
</svg>
