<svg xmlns="http://www.w3.org/2000/svg" viewBox="0 0 60 60">
  <path d="M49.075 56.325c-.329.0019-.6552-.0611-.9598-.1856-.3046-.1244-.5816-.3077-.8152-.5394l-7.775-7.775-7.75 7.775c-.2324.2343-.5089.4203-.8136.5472-.3046.127-.6314.1923-.9614.1923-.33 0-.6568-.0653-.9615-.1923-.3046-.1269-.5811-.3129-.8135-.5472l-7.75-7.775L12.7 55.6c-.3467.3461-.7874.5828-1.2674.6806-.48.0978-.9782.0524-1.43262-.1306-.46048-.1892-.85401-.5115-1.13015-.9257-.27615-.4142-.42234-.9015-.41985-1.3993V6.17502c-.00249-.49782.1437-.98505.41985-1.39927.27614-.41422.66967-.73656 1.13015-.92573.45762-.18833.96092-.2366 1.44602-.13869.4851.09791.9302.33759 1.279.68869l7.75 7.77498 7.75-7.77498c.2324-.23432.5089-.42031.8135-.54723.3047-.12692.6315-.19227.9615-.19227.33 0 .6568.06535.9614.19227.3047.12692.5812.31291.8136.54723l7.75 7.77498L47.3 4.40002c.3466-.34613.7873-.58278 1.2674-.68056.48-.09778.9781-.05238 1.4326.13056.4605.18917.854.51151 1.1301.92573.2762.41422.4224.90145.4199 1.39927V53.825c.0025.4978-.1437.9851-.4199 1.3993-.2761.4142-.6696.7365-1.1301.9257-.2945.1164-.6084.1758-.925.175ZM20.475 41.8c.6558.0028 1.2843.2632 1.75.725L30 50.3l7.775-7.8c.4656-.4618 1.0941-.7222 1.75-.725.329-.0019.6552.0612.9597.1856.3046.1244.5817.3077.8153.5394l5.275 5.275V12.2L41.3 17.5c-.4684.4656-1.1021.727-1.7625.727-.6605 0-1.2941-.2614-1.7625-.727L30 9.70002 22.225 17.5c-.4657.4619-1.0942.7223-1.75.725-.329.0019-.6552-.0611-.9598-.1856-.3046-.1244-.5816-.3077-.8152-.5394l-5.275-5.3v35.6l5.275-5.3c.4758-.4588 1.114-.7105 1.775-.7Z"/>
</svg>
