<svg xmlns="http://www.w3.org/2000/svg" viewBox="0 0 24 24" fill="currentColor">
  <path d="M7 3.75C5.21421 3.75 3.75 5.21421 3.75 7v10c0 1.7858 1.46421 3.25 3.25 3.25.41421 0 .75.3358.75.75s-.33579.75-.75.75c-2.61421 0-4.75-2.1358-4.75-4.75V7c0-2.61421 2.13579-4.75 4.75-4.75h10c2.6142 0 4.75 2.13579 4.75 4.75v6c0 .4142-.3358.75-.75.75s-.75-.3358-.75-.75V7c0-1.78579-1.4642-3.25-3.25-3.25H7Z"/>
  <path d="M17 2.25c.4142 0 .75.33579.75.75v10c0 .4142-.3358.75-.75.75s-.75-.3358-.75-.75V3c0-.41421.3358-.75.75-.75Z"/>
  <path d="M6.25 21V3h1.5v18h-1.5Z"/>
  <path d="M17 8.44995h4v1.5h-4v-1.5Z"/>
  <path d="M3 8.44995h4v1.5H3v-1.5Z"/>
  <path d="M3 14.25h4v1.5H3v-1.5Z"/>
  <path d="M6.25 21c0-.4142.33579-.75.75-.75h5c.4142 0 .75.3358.75.75s-.3358.75-.75.75H7c-.41421 0-.75-.3358-.75-.75Z"/>
  <path d="M16.9301 16.8696c.2929.2929.2929.7677 0 1.0606l-1.0696 1.0697 1.0696 1.0697c.2929.2929.2929.7678 0 1.0606-.2929.2929-.7677.2929-1.0606 0l-1.2-1.2c-.2725-.2724-.3697-.6314-.3697-.9303 0-.2989.0972-.6578.3697-.9303l1.2-1.2c.2929-.2929.7677-.2929 1.0606 0Zm-1.2 2.2606Z"/>
  <path d="M18.9694 16.8696c.2929-.2929.7678-.2929 1.0607 0l1.2 1.2c.2725.2725.3697.6314.3697.9303 0 .2989-.0972.6579-.3697.9303l-1.2 1.2c-.2929.2929-.7678.2929-1.0607 0-.2929-.2928-.2929-.7677 0-1.0606l1.0697-1.0697-1.0697-1.0697c-.2929-.2929-.2929-.7677 0-1.0606Zm1.2 2Z"/>
</svg>
