<svg xmlns="http://www.w3.org/2000/svg" viewBox="0 0 24 24" fill="currentColor">
  <path d="M6.25 3.83814C4.8219 4.17954 3.75 5.47206 3.75 7v1.44995h2.5V3.83814Zm0 6.11181h-2.5V14.25h2.5V9.94995ZM3.75 17v-1.25h2.5v4.4119c-1.4281-.3414-2.5-1.634-2.5-3.1619ZM7 21.75c-2.61421 0-4.75-2.1358-4.75-4.75V7c0-2.61421 2.13579-4.75 4.75-4.75h10c2.6142 0 4.75 2.13579 4.75 4.75v6c0 .4142-.3358.75-.75.75s-.75-.3358-.75-.75V9.94995h-2.5V13c0 .4142-.3358.75-.75.75s-.75-.3358-.75-.75V3.75h-8.5v16.5H12c.4142 0 .75.3358.75.75s-.3358.75-.75.75H7ZM20.25 7v1.44995h-2.5V3.83814c1.4281.3414 2.5 1.63392 2.5 3.16186Zm.2738 9.5368c.2965-.2892.3023-.7641.0131-1.0605-.2893-.2965-.7641-.3024-1.0606-.0131l-3.7197 3.6289L14.6 17.55c-.2485-.3314-.7186-.3985-1.05-.15-.3313.2485-.3985.7186-.15 1.05l1.532 2.0426.0377.0377c.2225.2225.5065.2947.7303.2947.2224 0 .5042-.0713.726-.2903l4.0978-3.9979Z"/>
</svg>
