<svg width="24" height="24" viewBox="0 0 24 24" fill="none" xmlns="http://www.w3.org/2000/svg">
<path fill-rule="evenodd" clip-rule="evenodd" d="M7 3.75C5.21421 3.75 3.75 5.21421 3.75 7V17C3.75 18.7858 5.21421 20.25 7 20.25C7.41421 20.25 7.75 20.5858 7.75 21C7.75 21.4142 7.41421 21.75 7 21.75C4.38579 21.75 2.25 19.6142 2.25 17V7C2.25 4.38579 4.38579 2.25 7 2.25H17C19.6142 2.25 21.75 4.38579 21.75 7V13C21.75 13.4142 21.4142 13.75 21 13.75C20.5858 13.75 20.25 13.4142 20.25 13V7C20.25 5.21421 18.7858 3.75 17 3.75H7Z" fill="black"/>
<path fill-rule="evenodd" clip-rule="evenodd" d="M17 2.25C17.4142 2.25 17.75 2.58579 17.75 3V13C17.75 13.4142 17.4142 13.75 17 13.75C16.5858 13.75 16.25 13.4142 16.25 13V3C16.25 2.58579 16.5858 2.25 17 2.25Z" fill="black"/>
<path fill-rule="evenodd" clip-rule="evenodd" d="M6.25 21V3H7.75V21H6.25Z" fill="black"/>
<path fill-rule="evenodd" clip-rule="evenodd" d="M17 8.45001H21V9.95001H17V8.45001Z" fill="black"/>
<path fill-rule="evenodd" clip-rule="evenodd" d="M3 8.45001H7V9.95001H3V8.45001Z" fill="black"/>
<path fill-rule="evenodd" clip-rule="evenodd" d="M3 14.25H7V15.75H3V14.25Z" fill="black"/>
<path fill-rule="evenodd" clip-rule="evenodd" d="M6.25 21C6.25 20.5858 6.58579 20.25 7 20.25H12C12.4142 20.25 12.75 20.5858 12.75 21C12.75 21.4142 12.4142 21.75 12 21.75H7C6.58579 21.75 6.25 21.4142 6.25 21Z" fill="black"/>
<path fill-rule="evenodd" clip-rule="evenodd" d="M16.9303 16.8696C17.2231 17.1625 17.2231 17.6373 16.9303 17.9302L15.8606 18.9999L16.9303 20.0696C17.2231 20.3625 17.2231 20.8374 16.9303 21.1302C16.6374 21.4231 16.1625 21.4231 15.8696 21.1302L14.6696 19.9302C14.6696 19.9302 14.6696 19.9302 14.6696 19.9302C14.3971 19.6578 14.2999 19.2988 14.2999 18.9999C14.2999 18.701 14.3971 18.3421 14.6696 18.0696C14.6696 18.0696 14.6696 18.0696 14.6696 18.0696L15.8696 16.8696C16.1625 16.5767 16.6374 16.5767 16.9303 16.8696ZM15.7303 19.1302L15.7303 19.1302C15.7303 19.1302 15.7303 19.1302 15.7303 19.1302Z" fill="black"/>
<path fill-rule="evenodd" clip-rule="evenodd" d="M18.9696 16.8696C19.2625 16.5767 19.7374 16.5767 20.0303 16.8696L21.2303 18.0696C21.2303 18.0696 21.2303 18.0696 21.2303 18.0696C21.5027 18.3421 21.5999 18.701 21.5999 18.9999C21.5999 19.2988 21.5027 19.6578 21.2303 19.9302C21.2303 19.9302 21.2303 19.9302 21.2303 19.9302L20.0303 21.1302C19.7374 21.4231 19.2625 21.4231 18.9696 21.1302C18.6767 20.8374 18.6767 20.3625 18.9696 20.0696L20.0393 18.9999L18.9696 17.9302C18.6767 17.6373 18.6767 17.1625 18.9696 16.8696ZM20.1696 18.8696L20.1696 18.8696C20.1696 18.8696 20.1696 18.8696 20.1696 18.8696Z" fill="black"/>
</svg>
