<svg xmlns="http://www.w3.org/2000/svg" viewBox="0 0 24 24" fill="currentColor">
  <path d="M6.25 3.37562c-1.4281.3414-2.5 1.63392-2.5 3.16186v1.44995h2.5V3.37562Zm0 6.11181h-2.5v4.30007h2.5V9.48743Zm-2.5 7.05007v-1.25h2.5v4.4118c-1.4281-.3414-2.5-1.6339-2.5-3.1618Zm4-13.25002h8.5v9.25002c0 .4142.3358.75.75.75s.75-.3358.75-.75V9.48743h2.5v3.05007c0 .4142.3358.75.75.75s.75-.3358.75-.75V6.53748c0-2.61422-2.1358-4.75-4.75-4.75H7c-2.61421 0-4.75 2.13578-4.75 4.75V16.5375c0 2.6142 2.13579 4.75 4.75 4.75h5c.4142 0 .75-.3358.75-.75s-.3358-.75-.75-.75H7.75V3.28748Zm12.5 4.69995h-2.5V3.37562c1.4281.3414 2.5 1.63392 2.5 3.16186v1.44995ZM15.6008 19.4759l2.8228-2.8228c-.8218-.3578-1.7637-.2053-2.382.4034-.6421.7097-.7717 1.6585-.4408 2.4194Zm3.898-1.7767L16.676 20.522c.8218.3578 1.7637.2053 2.3821-.4034.6421-.7097.7716-1.6585.4407-2.4194Zm-4.5293-1.692c1.4049-1.405 3.6635-1.3733 5.1371-.0225l.012.011.0115.0115c1.405 1.405 1.3734 3.6636.0226 5.1372l-.011.012-.0116.0115c-1.4049 1.405-3.6635 1.3733-5.1371.0225l-.012-.011-.0115-.0115c-1.405-1.405-1.3733-3.6636-.0226-5.1372l.0111-.012.0115-.0115Z"/>
</svg>
