<svg xmlns="http://www.w3.org/2000/svg" viewBox="0 0 24 24" fill="currentColor">
  <path d="M6.25 3.33814c-1.4281.3414-2.5 1.63392-2.5 3.16186v1.44995h2.5V3.33814Zm0 6.11181h-2.5V13.75h2.5V9.44995ZM3.75 16.5v-1.25h2.5v4.4119c-1.4281-.3414-2.5-1.634-2.5-3.1619ZM7 21.25c-2.61421 0-4.75-2.1358-4.75-4.75v-10c0-2.61421 2.13579-4.75 4.75-4.75h10c2.6142 0 4.75 2.13579 4.75 4.75v6c0 .4142-.3358.75-.75.75s-.75-.3358-.75-.75V9.44995h-2.5V12.5c0 .4142-.3358.75-.75.75s-.75-.3358-.75-.75V3.25h-8.5v16.5H12c.4142 0 .75.3358.75.75s-.3358.75-.75.75H7ZM20.25 6.5v1.44995h-2.5V3.33814c1.4281.3414 2.5 1.63392 2.5 3.16186ZM17 14.75c.4142 0 .75.3358.75.75v2.25H20c.4142 0 .75.3358.75.75s-.3358.75-.75.75h-2.25v2.25c0 .4142-.3358.75-.75.75s-.75-.3358-.75-.75v-2.25H14c-.4142 0-.75-.3358-.75-.75s.3358-.75.75-.75h2.25V15.5c0-.4142.3358-.75.75-.75Z"/>
</svg>
