<svg xmlns="http://www.w3.org/2000/svg" viewBox="0 0 24 24" fill="currentColor">
  <path d="M6.25 3.78821c-1.4281.34141-2.5 1.63393-2.5 3.16186v1.44995h2.5V3.78821Zm0 6.11181h-2.5v4.30008h2.5V9.90002Zm-2.5 7.05008v-1.25h2.5v4.4118c-1.4281-.3414-2.5-1.6339-2.5-3.1618Zm3.25 4.75c-2.61421 0-4.75-2.1358-4.75-4.75V6.95007c0-2.61421 2.13579-4.75 4.75-4.75h10c2.6142 0 4.75 2.13579 4.75 4.75v6.00003c0 .4142-.3358.75-.75.75s-.75-.3358-.75-.75V9.90002h-2.5v3.05008c0 .4142-.3358.75-.75.75s-.75-.3358-.75-.75V3.70007h-8.5V20.2001H12c.4142 0 .75.3358.75.75s-.3358.75-.75.75H7ZM20.25 6.95007v1.44995h-2.5V3.78821c1.4281.34141 2.5 1.63393 2.5 3.16186Zm.3802 9.26943c.2929.2929.2929.7678 0 1.0607l-1.6196 1.6197 1.6196 1.6197c.2929.2929.2929.7678 0 1.0607-.2929.2929-.7677.2928-1.0606 0l-1.6197-1.6197-1.6196 1.6197c-.2929.2928-.7678.2929-1.0607 0-.2929-.2929-.2929-.7678 0-1.0607l1.6197-1.6197-1.6197-1.6197c-.2929-.2929-.2929-.7678 0-1.0607.2929-.2928.7678-.2928 1.0607.0001l1.6196 1.6196 1.6197-1.6196c.2929-.2929.7677-.2929 1.0606-.0001Z"/>
</svg>
