<svg xmlns="http://www.w3.org/2000/svg" viewBox="0 0 24 24" fill="currentColor">
  <path d="M6.25 3.83814C4.8219 4.17954 3.75 5.47206 3.75 7v1.44995h2.5V3.83814Zm0 6.11181h-2.5V14.25h2.5V9.94995Zm0 5.80005h-2.5V17c0 1.5279 1.0719 2.8205 2.5 3.1619V15.75Zm1.5-12v16.5h8.5V3.75h-8.5ZM20.25 17c0 1.5279-1.0719 2.8205-2.5 3.1619V15.75h2.5V17Zm0-2.75h-2.5V9.94995h2.5V14.25Zm0-5.80005h-2.5V3.83814c1.4281.3414 2.5 1.63392 2.5 3.16186v1.44995ZM2.25 7c0-2.61421 2.13579-4.75 4.75-4.75h10c2.6142 0 4.75 2.13579 4.75 4.75v10c0 2.6142-2.1358 4.75-4.75 4.75H7c-2.61421 0-4.75-2.1358-4.75-4.75V7Z"/>
</svg>
