<svg xmlns="http://www.w3.org/2000/svg" fill="none" viewBox="0 0 24 24">
  <path fill="#000" fill-rule="evenodd" d="M7 3.75A3.262 3.262 0 0 0 3.75 7v10A3.262 3.262 0 0 0 7 20.25a.75.75 0 0 1 0 1.5A4.762 4.762 0 0 1 2.25 17V7A4.762 4.762 0 0 1 7 2.25h10A4.762 4.762 0 0 1 21.75 7v6a.75.75 0 0 1-1.5 0V7A3.262 3.262 0 0 0 17 3.75H7Z" clip-rule="evenodd"/>
  <path fill="#000" fill-rule="evenodd" d="M17 2.25a.75.75 0 0 1 .75.75v10a.75.75 0 0 1-1.5 0V3a.75.75 0 0 1 .75-.75ZM6.25 21V3h1.5v18h-1.5Z" clip-rule="evenodd"/>
  <path fill="#000" fill-rule="evenodd" d="M17 8.45h4v1.5h-4v-1.5Zm-14 0h4v1.5H3v-1.5Zm0 5.8h4v1.5H3v-1.5ZM6.25 21a.75.75 0 0 1 .75-.75h5a.75.75 0 0 1 0 1.5H7a.75.75 0 0 1-.75-.75Zm10.68-4.13a.75.75 0 0 1 0 1.06L15.86 19l1.07 1.07a.75.75 0 0 1-1.06 1.06l-1.2-1.2a1.316 1.316 0 0 1-.37-.93c0-.299.097-.658.37-.93l1.2-1.2a.75.75 0 0 1 1.06 0Zm-1.2 2.26Zm3.24-2.26a.75.75 0 0 1 1.06 0l1.2 1.2c.273.272.37.631.37.93 0 .299-.097.658-.37.93l-1.2 1.2a.75.75 0 0 1-1.06-1.06L20.04 19l-1.07-1.07a.75.75 0 0 1 0-1.06Zm1.2 2Z" clip-rule="evenodd"/>
</svg>
