<svg xmlns="http://www.w3.org/2000/svg" fill="none" viewBox="0 0 24 24">
  <path fill="#000" fill-rule="evenodd" d="M6.25 3.838A3.266 3.266 0 0 0 3.75 7v1.45h2.5V3.838Zm0 6.112h-2.5v4.3h2.5v-4.3Zm0 5.8h-2.5V17a3.266 3.266 0 0 0 2.5 3.162V15.75Zm1.5-12v16.5h8.5V3.75h-8.5ZM20.25 17a3.266 3.266 0 0 1-2.5 3.162V15.75h2.5V17Zm0-2.75h-2.5v-4.3h2.5v4.3Zm0-5.8h-2.5V3.838A3.266 3.266 0 0 1 20.25 7v1.45ZM2.25 7A4.762 4.762 0 0 1 7 2.25h10A4.762 4.762 0 0 1 21.75 7v10A4.762 4.762 0 0 1 17 21.75H7A4.762 4.762 0 0 1 2.25 17V7Z" clip-rule="evenodd"/>
</svg>
