<svg xmlns="http://www.w3.org/2000/svg" viewBox="0 0 24 24" fill="currentColor">
  <path d="M6.90002 3.20001c-1.44064 0-2.54998 1.16272-2.54998 2.65v3.58907C3.15239 9.65003 2.25 10.6894 2.25 11.95v6.3c0 1.4142 1.13577 2.55 2.54999 2.55h4.30005c.72237 0 1.38216-.3216 1.84286-.7822.3207-.3208.5767-.7432.6733-1.2178H19.2c1.4407 0 2.55-1.1627 2.55-2.65V5.85001c0-1.3609-1.0844-2.65-2.55-2.65H6.90002ZM11.65 17.3h7.55c.5594 0 1.05-.4373 1.05-1.15V5.85001c0-.63911-.5156-1.15-1.05-1.15H6.90002c-.55935 0-1.04998.43728-1.04998 1.15v3.54995h3.25c1.41426 0 2.54996 1.13584 2.54996 2.55004v5.35Zm-7.9-5.35c0-.5858.46422-1.05 1.04999-1.05h4.30005c.58577 0 1.04996.4642 1.04996 1.05v6.3415l.0046.0413c.0191.1718-.0552.4071-.2724.6243-.21435.2144-.50453.3429-.78216.3429H4.79999C4.2142 19.3 3.75 18.8358 3.75 18.25v-6.3Z"/>
</svg>
