<svg xmlns="http://www.w3.org/2000/svg" viewBox="0 0 24 24" fill="currentColor">
  <path d="M14.4197 4.98035c-1.3071-1.30711-3.5323-1.30711-4.83939 0L4.98033 9.58032c-1.30711 1.30708-1.30711 3.53228 0 4.83938l4.59998 4.6c1.30709 1.3071 3.53229 1.3071 4.83939 0l4.5999-4.6c1.3072-1.3071 1.3072-3.5323 0-4.83938l-4.5999-4.59997ZM8.51965 3.91969c1.89285-1.8929 5.06775-1.8929 6.96065 0l4.6 4.59997c1.8929 1.89294 1.8929 5.06784 0 6.96064l-4.6 4.6c-1.8929 1.8929-5.0678 1.8929-6.96065 0l-4.59998-4.6c-1.89289-1.8928-1.89289-5.0677 0-6.96064l4.59998-4.59997Z"/>
</svg>
