<svg width="24" height="24" fill="none" xmlns="http://www.w3.org/2000/svg"><path fill="#fff" d="M0 0h24v24H0z"/><path d="M12 14.1l1 4.7c0 1.3-1.3 2.3-2.6 1.9-1.50001-.4-2.80001-1.2-3.80001-2.3C4.99999 16.8 4 14.5 4 12c0-2.5.99999-4.69996 2.59999-6.39996C8.19999 4.00004 10.5 3 13 3s4.7 1.00001 6.4 2.70001c1.3 1.3 1.1 3.3-.3 4.49999l-6.4 2.3c-.5.4-.7 1-.7 1.6z" stroke="#000" stroke-width="1.5" stroke-miterlimit="10"/><path d="M12.3999 16.2h7.6c.6 0 1 .5 1 1v3c0 .6-.4 1-1 1h-1c-3 0-3-2-3-2V11M8.5 14.2001c.82843 0 1.5-.6716 1.5-1.5 0-.8285-.67157-1.5-1.5-1.5s-1.5.6715-1.5 1.5c0 .8284.67157 1.5 1.5 1.5z" stroke="#000" stroke-width="1.5" stroke-miterlimit="10"/></svg>