<svg width="24" height="24" viewBox="0 0 24 24" fill="none" xmlns="http://www.w3.org/2000/svg">
<path fill-rule="evenodd" clip-rule="evenodd" d="M6.63838 6.02238C5.15967 7.59719 4.25006 9.61491 4.25006 11.9C4.25006 14.2015 5.17131 16.3106 6.63038 17.7697L6.643 17.7823L6.65501 17.7955C7.55765 18.7884 8.73188 19.5123 10.0933 19.8753L10.107 19.879L10.1206 19.8832C10.9096 20.1259 11.7026 19.5368 11.748 18.7693L10.7501 14.0789V14C10.7501 13.2425 11.0051 12.3955 11.7315 11.8143L11.829 11.7364L18.2091 9.44355C19.2288 8.48844 19.2931 7.05369 18.3697 6.13034C16.7998 4.56041 14.7867 3.64999 12.5001 3.64999C10.2028 3.64999 8.09716 4.56792 6.63838 6.02238ZM5.56972 4.9697C7.31064 3.22878 9.80153 2.14999 12.5001 2.14999C15.2134 2.14999 17.6003 3.2396 19.4304 5.06968C21.0785 6.71783 20.7762 9.22254 19.0881 10.6694L18.9835 10.7592L16.25 11.7415V15.35H19.5C20.5621 15.35 21.25 16.2354 21.25 17.1V20.1C21.25 20.5704 21.0899 21.0208 20.7553 21.3553C20.4207 21.6899 19.9704 21.85 19.5 21.85H18.5C16.817 21.85 15.8207 21.2776 15.275 20.55C15.0151 20.2035 14.8848 19.8566 14.8192 19.5944C14.7864 19.4629 14.7691 19.3503 14.7601 19.2658C14.7556 19.2235 14.753 19.1878 14.7516 19.1599L14.7509 19.1422L14.7503 19.1239L14.75 19.1104L14.75 19.1048L14.75 19.1023L14.75 19.1011C14.75 19.1006 14.75 19.1 15.5 19.1H14.75V16.85H12.8732L13.2501 18.6211V18.7C13.2501 20.4944 11.4765 21.8595 9.6938 21.3212C8.06666 20.8847 6.64996 20.0148 5.55713 18.8177C3.82359 17.0774 2.75006 14.592 2.75006 11.9C2.75006 9.18911 3.83722 6.80998 5.5539 4.98601L5.56169 4.97773L5.56972 4.9697ZM12.5882 13.0575L14.75 12.2806V15.35H12.5541L12.2514 13.9274C12.2649 13.5634 12.3803 13.2645 12.5882 13.0575ZM16.25 19.0884V16.85H19.5C19.5793 16.85 19.6346 16.8791 19.6767 16.9242C19.7258 16.9769 19.75 17.0454 19.75 17.1V20.1C19.75 20.2296 19.7101 20.2793 19.6946 20.2947C19.6792 20.3101 19.6295 20.35 19.5 20.35H18.5C17.183 20.35 16.6793 19.9224 16.475 19.65C16.3598 19.4965 16.3027 19.3434 16.2745 19.2306C16.2605 19.1746 16.2542 19.131 16.2516 19.106C16.2507 19.0978 16.2502 19.0919 16.25 19.0884ZM7.25006 12.6001C7.25006 12.1859 7.58585 11.8501 8.00006 11.8501C8.41427 11.8501 8.75006 12.1859 8.75006 12.6001C8.75006 13.0143 8.41427 13.3501 8.00006 13.3501C7.58585 13.3501 7.25006 13.0143 7.25006 12.6001ZM8.00006 10.3501C6.75742 10.3501 5.75006 11.3574 5.75006 12.6001C5.75006 13.8427 6.75742 14.8501 8.00006 14.8501C9.2427 14.8501 10.2501 13.8427 10.2501 12.6001C10.2501 11.3574 9.2427 10.3501 8.00006 10.3501Z" fill="black"/>
</svg>
