<svg xmlns="http://www.w3.org/2000/svg" viewBox="0 0 24 24" fill="currentColor">
  <path d="M3.61785 15.9708c.06469 1.2776.49934 2.359 1.27592 3.1355.77496.775 1.8534 1.2094 3.12746 1.2756.00068-.0498.00088-.1035.00088-.1619 0-2.3857-1.86421-4.25-4.25-4.25-.05541 0-.1066.0002-.15426.0008Zm.08271-1.5008h.07155c3.21421 0 5.75 2.5358 5.75 5.75l.00002.0323.00001.0485c.15685-.0237.31563-.0522.4762-.0853 2.12776-.4398 4.47166-1.7052 6.49186-3.7254s3.2856-4.3641 3.7254-6.49189c.0229-.11082.0435-.22079.0619-.32987-.0951.00173-.1891.00172-.2839.00171h-.0217c-3.2142 0-5.75-2.53578-5.75-5.75v-.05506c0-.03931-.0001-.08047.0001-.12314-.073.01323-.1463.02747-.2201.04271-2.1277.43981-4.47165 1.70518-6.49185 3.72537C5.48986 9.53012 4.2245 11.8741 3.78469 14.0018c-.03263.1578-.06066.314-.08413.4682ZM19.1065 4.89364c.8038.80378 1.2412 1.93406 1.2813 3.27047-.1201.00554-.2527.00594-.4159.00594-2.3857 0-4.25-1.86421-4.25-4.25 0-.11523.0006-.21815.0024-.31018 1.3851.01852 2.5561.45769 3.3822 1.28377ZM2.31575 13.6982c.5071-2.4533 1.93622-5.05149 4.13365-7.24892 2.19743-2.19743 4.7957-3.62656 7.2489-4.13365 2.4459-.50559 4.8465-.10496 6.4688 1.51736s2.023 4.02294 1.5174 6.46881c-.5071 2.4533-1.9362 5.0515-4.1336 7.249-2.1974 2.1974-4.7957 3.6265-7.2489 4.1336-2.44594.5056-4.84655.1049-6.46888-1.5174-1.62232-1.6223-2.02295-4.0229-1.51737-6.4688Zm7.72585-1.9085c.2929-.2929.7678-.2929 1.0607 0l1.4 1.4c.2929.2929.2929.7678 0 1.0607-.2929.2929-.7678.2929-1.0607 0l-1.4-1.4001c-.29287-.2929-.29286-.7677 0-1.0606Zm3.1608-2.09999c-.2929-.29289-.7678-.2929-1.0607-.00001-.2929.29289-.2929.7678 0 1.0607l1.4 1.4c.2929.2929.7678.2929 1.0607 0 .2929-.2929.2929-.7678 0-1.0607l-1.4-1.39999Z"/>
</svg>
