<svg xmlns="http://www.w3.org/2000/svg" viewBox="0 0 24 24" fill="currentColor">
  <path d="M6.63832 6.02238C5.15961 7.59719 4.25 9.61491 4.25 11.9c0 2.3015.92125 4.4106 2.38032 5.8697l.01262.0126.01201.0132c.90264.9929 2.07687 1.7168 3.43825 2.0798l.0138.0037.0136.0042c.7889.2427 1.582-.3464 1.6274-1.1139l-.998-4.6904V14c0-.7575.2551-1.6045.9815-2.1857l.0974-.0779 6.3801-2.29285c1.0197-.95511 1.084-2.38986.1607-3.31321-1.57-1.56993-3.5831-2.48035-5.8697-2.48035-2.2973 0-4.4029.91793-5.86168 2.37239ZM5.56966 4.9697C7.31058 3.22878 9.80147 2.14999 12.5 2.14999c2.7134 0 5.1003 1.08961 6.9303 2.91969 1.6482 1.64815 1.3458 4.15286-.3422 5.59972l-.1047.0898-2.7335.9823V15.35h3.25c1.0621 0 1.75.8854 1.75 1.75v3c0 .4704-.1601.9208-.4947 1.2553-.3345.3346-.7849.4947-1.2553.4947h-1c-1.683 0-2.6793-.5724-3.225-1.3-.2599-.3465-.3902-.6934-.4557-.9556-.0329-.1315-.0501-.2441-.0592-.3286-.0045-.0423-.007-.078-.0084-.1059l-.0008-.0177-.0006-.0183-.0002-.0135-.0001-.0056v-.0037c0-.0005 0-.0011.75-.0011h-.75v-2.25h-1.8767l.3768 1.7711V18.7c0 1.7944-1.7736 3.1595-3.55626 2.6212-1.62714-.4365-3.04384-1.3064-4.13667-2.5035C3.82353 17.0774 2.75 14.592 2.75 11.9c0-2.71089 1.08716-5.09002 2.80384-6.91399l.00779-.00828.00803-.00803Zm7.01844 8.0878 2.1618-.7769V15.35H12.554l-.3027-1.4226c.0135-.364.129-.6629.3368-.8699Zm3.6618 6.0309V16.85h3.25c.0794 0 .1346.0291.1767.0742.0491.0527.0733.1212.0733.1758v3c0 .1296-.0399.1793-.0553.1947-.0154.0154-.0651.0553-.1947.0553h-1c-1.317 0-1.8207-.4276-2.025-.7-.1151-.1535-.1723-.3066-.2005-.4194-.014-.056-.0202-.0996-.0229-.1246-.0009-.0082-.0014-.0141-.0016-.0176ZM7.25 12.6001c0-.4142.33579-.75.75-.75s.75.3358.75.75-.33579.75-.75.75-.75-.3358-.75-.75Zm.75-2.25c-1.24264 0-2.25 1.0073-2.25 2.25 0 1.2426 1.00736 2.25 2.25 2.25s2.25-1.0074 2.25-2.25c0-1.2427-1.00736-2.25-2.25-2.25Z"/>
</svg>
