<svg xmlns="http://www.w3.org/2000/svg" viewBox="0 0 24 24" fill="currentColor">
  <path d="M8.25 3c0-.41421.33579-.75.75-.75h5.3c.6439 0 1.2251.31441 1.6304.71967l1.5 1.5c.2928.29289.2928.76777 0 1.06066-.2929.29289-.7678.29289-1.0607 0l-1.5-1.5C14.675 3.83559 14.4561 3.75 14.3 3.75h-1.55v.49958c1.2298.29367 2.2298 1.21192 2.6533 2.4284 1.3941.60398 2.3467 1.98177 2.3467 3.62212v9.2c0 1.2142-1.0358 2.25-2.25 2.25h-7c-1.34671 0-2.25-1.069-2.25-2.25v-9.2c0-1.5485.84896-2.86302 2.1168-3.51347.42138-1.25264 1.51707-2.31389 2.8832-2.57516V3.75H9c-.41421 0-.75-.33579-.75-.75Zm8 14.2504v-4.6H12.7c-.4858 0-.95.4642-.95.95v2.7c0 .4858.4642.95.95.95h3.55Zm0-6.1H12.7c-1.3142 0-2.45 1.1358-2.45 2.45v2.7c0 1.3142 1.1358 2.45 2.45 2.45h3.55v.7497c0 .3858-.3642.75-.75.75h-7c-.45329 0-.75-.3309-.75-.75v-9.2c0-1.38578 1.06423-2.45 2.45-2.45h3.6c.1959 0 .3854.02126.5663.06169.1235.08748.273.13761.4298.13827.8682.37088 1.4539 1.22197 1.4539 2.25004v.8503ZM11.9 5.6499c-.5843 0-1.1426.27412-1.5537.7002h3.1474c-.4091-.43825-.9794-.7002-1.5937-.7002Z"/>
</svg>
