<svg xmlns="http://www.w3.org/2000/svg" fill="none" viewBox="0 0 24 24">
  <path fill="#000" d="M7 19.5v-9.2c0-1.8 1.4-3.2 3.2-3.2h3.6c1.8 0 3.2 1.4 3.2 3.2v9.2c0 .8-.7 1.5-1.5 1.5h-7c-.9 0-1.5-.7-1.5-1.5Z"/>
  <path fill="#000" fill-rule="evenodd" d="M10.2 7.85c-1.386 0-2.45 1.064-2.45 2.45v9.2c0 .42.297.75.75.75h7c.386 0 .75-.364.75-.75v-9.2c0-1.386-1.064-2.45-2.45-2.45h-3.6ZM6.25 10.3a3.909 3.909 0 0 1 3.95-3.95h3.6a3.909 3.909 0 0 1 3.95 3.95v9.2c0 1.214-1.036 2.25-2.25 2.25h-7c-1.347 0-2.25-1.069-2.25-2.25v-9.2Z" clip-rule="evenodd"/>
  <path fill="#000" fill-rule="evenodd" d="M11.9 5.75a2.252 2.252 0 0 0-2.17 1.719.75.75 0 0 1-1.46-.338A3.752 3.752 0 0 1 11.9 4.25a3.752 3.752 0 0 1 3.63 2.881.75.75 0 0 1-1.46.338A2.252 2.252 0 0 0 11.9 5.75Z" clip-rule="evenodd"/>
  <path fill="#000" fill-rule="evenodd" d="M12.75 3v2h-1.5V3h1.5Z" clip-rule="evenodd"/>
  <path fill="#000" fill-rule="evenodd" d="M8.25 3A.75.75 0 0 1 9 2.25h5.3c.644 0 1.225.314 1.63.72l1.5 1.5a.75.75 0 0 1-1.06 1.06l-1.5-1.5c-.195-.194-.414-.28-.57-.28H9A.75.75 0 0 1 8.25 3Z" clip-rule="evenodd"/>
</svg>
