<svg xmlns="http://www.w3.org/2000/svg" viewBox="0 0 24 24" fill="currentColor">
  <path d="M9 2.25c-.41421 0-.75.33579-.75.75s.33579.75.75.75h2.25v.46147c-1.36613.26127-2.46182 1.32252-2.8832 2.57516C7.09896 7.43708 6.25 8.7516 6.25 10.3001v9.2c0 1.181.90329 2.25 2.25 2.25h7c1.2142 0 2.25-1.0358 2.25-2.25v-9.2c0-1.64035-.9526-3.01814-2.3467-3.62212-.4235-1.21648-1.4235-2.13473-2.6533-2.4284V3.75h1.55c.1561 0 .375.08559.5697.28033l1.5 1.5c.2929.29289.7678.29289 1.0607 0 .2928-.29289.2928-.76777 0-1.06066l-1.5-1.5C15.5251 2.56441 14.9439 2.25 14.3 2.25H9Zm1.3463 4.1001c.4111-.42608.9694-.7002 1.5537-.7002.6143 0 1.1846.26195 1.5937.7002h-3.1474Zm4.02 1.56169c.1235.08748.273.13761.4298.13827.8682.37088 1.4539 1.22197 1.4539 2.25004v9.2c0 .3858-.3642.75-.75.75h-7c-.45329 0-.75-.3309-.75-.75v-9.2c0-1.38578 1.06423-2.45 2.45-2.45h3.6c.1959 0 .3854.02126.5663.06169Z"/>
</svg>
