<svg xmlns="http://www.w3.org/2000/svg" viewBox="0 0 24 24" fill="currentColor">
  <path d="M7 3.75C5.21421 3.75 3.75 5.21421 3.75 7v10c0 1.7858 1.46421 3.25 3.25 3.25h.75V17c0-1.5142 1.23579-2.75 2.75-2.75h3c1.5142 0 2.75 1.2358 2.75 2.75v3.25H17c1.7858 0 3.25-1.4642 3.25-3.25v-6.3c0-.79483-.3165-1.60584-.9803-2.26968L15.552 4.71267l-.0164-.01879C14.9972 4.07864 14.2148 3.75 13.3 3.75H7Zm9.25 18H7c-2.61421 0-4.75-2.1358-4.75-4.75V7c0-2.61421 2.13579-4.75 4.75-4.75h6.3c1.2766 0 2.4865.46508 3.3471 1.43646l3.6832 3.6832C21.2665 8.30583 21.75 9.49483 21.75 10.7V17c0 2.6142-2.1358 4.75-4.75 4.75h-.75Zm-1.5-1.5V17c0-.6858-.5642-1.25-1.25-1.25h-3c-.68579 0-1.25.5642-1.25 1.25v3.25h5.5ZM12 7.75c-.4142 0-.75.33579-.75.75s.3358.75.75.75.75-.33579.75-.75-.3358-.75-.75-.75Zm-2.25.75c0-1.24264 1.0074-2.25 2.25-2.25s2.25 1.00736 2.25 2.25-1.0074 2.25-2.25 2.25S9.75 9.74264 9.75 8.5Z"/>
</svg>
