<svg xmlns="http://www.w3.org/2000/svg" fill="none" viewBox="0 0 24 24">
  <path fill="#000" d="m19.6 7.6-3.7-3.7c-.8-.8-1.8-1.2-2.8-1.2H6.8c-2.2 0-4 1.8-4 4v10c0 2.2 1.8 4 4 4h1.5v-4c0-1.1.9-2 2-2h3c1.1 0 2 .9 2 2v4h1.5c2.2 0 4-1.8 4-4v-6.3c0-1.1-.5-2.1-1.2-2.8Zm-7.8 2.2c-.8 0-1.5-.7-1.5-1.5s.7-1.5 1.5-1.5 1.5.7 1.5 1.5-.7 1.5-1.5 1.5Z"/>
  <path fill="#000" fill-rule="evenodd" d="M2.05 6.7A4.762 4.762 0 0 1 6.8 1.95h6.3c1.205 0 2.394.483 3.33 1.42l3.7 3.7c.819.818 1.42 2.002 1.42 3.33v6.3a4.762 4.762 0 0 1-4.75 4.75h-2.25V16.7c0-.686-.564-1.25-1.25-1.25h-3c-.686 0-1.25.564-1.25 1.25v4.75H6.8a4.762 4.762 0 0 1-4.75-4.75v-10ZM6.8 3.45A3.262 3.262 0 0 0 3.55 6.7v10a3.262 3.262 0 0 0 3.25 3.25h.75V16.7a2.756 2.756 0 0 1 2.75-2.75h3a2.756 2.756 0 0 1 2.75 2.75v3.25h.75a3.262 3.262 0 0 0 3.25-3.25v-6.3c0-.872-.399-1.688-.98-2.27l-3.7-3.7c-.664-.664-1.475-.98-2.27-.98H6.8Zm5 4.1c-.386 0-.75.364-.75.75s.364.75.75.75.75-.364.75-.75-.364-.75-.75-.75Zm-2.25.75c0-1.214 1.036-2.25 2.25-2.25s2.25 1.036 2.25 2.25-1.036 2.25-2.25 2.25S9.55 9.514 9.55 8.3Z" clip-rule="evenodd"/>
  <path fill="#fff" fill-rule="evenodd" d="M11.8 7.55a.75.75 0 1 0 0 1.5.75.75 0 0 0 0-1.5Zm-2.25.75a2.25 2.25 0 1 1 4.5 0 2.25 2.25 0 0 1-4.5 0Z" clip-rule="evenodd"/>
  <path fill="#fff" d="M15.3 16.8v4h-7v-4c0-1.1.9-2 2-2h3c1 0 2 .8 2 2Z"/>
  <path fill="#fff" fill-rule="evenodd" d="M10.3 15.55c-.686 0-1.25.564-1.25 1.25v3.25h5.5V16.8c0-.738-.615-1.25-1.25-1.25h-3ZM7.55 16.8a2.756 2.756 0 0 1 2.75-2.75h3c1.365 0 2.75 1.088 2.75 2.75v4.75h-8.5V16.8Z" clip-rule="evenodd"/>
</svg>
