<svg width="24" height="24" viewBox="0 0 24 24" fill="none" xmlns="http://www.w3.org/2000/svg">
<path d="M19.6 7.59995L15.9 3.89995C15.1 3.09995 14.1 2.69995 13.1 2.69995H6.79999C4.59999 2.69995 2.79999 4.49995 2.79999 6.69995V16.7C2.79999 18.9 4.59999 20.7 6.79999 20.7H8.29999V16.7C8.29999 15.6 9.19999 14.7 10.3 14.7H13.3C14.4 14.7 15.3 15.6 15.3 16.7V20.7H16.8C19 20.7 20.8 18.9 20.8 16.7V10.4C20.8 9.29995 20.3 8.29995 19.6 7.59995ZM11.8 9.79995C11 9.79995 10.3 9.09995 10.3 8.29995C10.3 7.49995 11 6.79995 11.8 6.79995C12.6 6.79995 13.3 7.49995 13.3 8.29995C13.3 9.09995 12.6 9.79995 11.8 9.79995Z" fill="black"/>
<path fill-rule="evenodd" clip-rule="evenodd" d="M2.04999 6.69995C2.04999 4.08574 4.18577 1.94995 6.79999 1.94995H13.1C14.3052 1.94995 15.4942 2.43346 16.4303 3.36962L20.1303 7.06962C20.9488 7.88815 21.55 9.0718 21.55 10.4V16.7C21.55 19.3142 19.4142 21.45 16.8 21.45H14.55V16.7C14.55 16.0142 13.9858 15.45 13.3 15.45H10.3C9.6142 15.45 9.04999 16.0142 9.04999 16.7V21.45H6.79999C4.18577 21.45 2.04999 19.3142 2.04999 16.7V6.69995ZM6.79999 3.44995C5.0142 3.44995 3.54999 4.91416 3.54999 6.69995V16.7C3.54999 18.4857 5.0142 19.95 6.79999 19.95H7.54999V16.7C7.54999 15.1857 8.78577 13.95 10.3 13.95H13.3C14.8142 13.95 16.05 15.1857 16.05 16.7V19.95H16.8C18.5858 19.95 20.05 18.4857 20.05 16.7V10.4C20.05 9.52811 19.6511 8.71175 19.0697 8.13028L15.3697 4.43028C14.7058 3.76645 13.8948 3.44995 13.1 3.44995H6.79999ZM11.8 7.54995C11.4142 7.54995 11.05 7.91417 11.05 8.29995C11.05 8.68574 11.4142 9.04995 11.8 9.04995C12.1858 9.04995 12.55 8.68574 12.55 8.29995C12.55 7.91417 12.1858 7.54995 11.8 7.54995ZM9.54999 8.29995C9.54999 7.08574 10.5858 6.04995 11.8 6.04995C13.0142 6.04995 14.05 7.08574 14.05 8.29995C14.05 9.51416 13.0142 10.55 11.8 10.55C10.5858 10.55 9.54999 9.51416 9.54999 8.29995Z" fill="black"/>
<path fill-rule="evenodd" clip-rule="evenodd" d="M11.8 7.54993C11.3858 7.54993 11.05 7.88571 11.05 8.29993C11.05 8.71414 11.3858 9.04993 11.8 9.04993C12.2142 9.04993 12.55 8.71414 12.55 8.29993C12.55 7.88571 12.2142 7.54993 11.8 7.54993ZM9.54999 8.29993C9.54999 7.05729 10.5573 6.04993 11.8 6.04993C13.0426 6.04993 14.05 7.05729 14.05 8.29993C14.05 9.54257 13.0426 10.5499 11.8 10.5499C10.5573 10.5499 9.54999 9.54257 9.54999 8.29993Z" fill="white"/>
<path d="M15.3 16.7999V20.7999H8.29999V16.7999C8.29999 15.6999 9.19999 14.7999 10.3 14.7999H13.3C14.3 14.7999 15.3 15.5999 15.3 16.7999Z" fill="white"/>
<path fill-rule="evenodd" clip-rule="evenodd" d="M10.3 15.5499C9.6142 15.5499 9.04999 16.1141 9.04999 16.7999V20.0499H14.55V16.7999C14.55 16.062 13.9354 15.5499 13.3 15.5499H10.3ZM7.54999 16.7999C7.54999 15.2857 8.78577 14.0499 10.3 14.0499H13.3C14.6646 14.0499 16.05 15.1378 16.05 16.7999V21.5499H7.54999V16.7999Z" fill="white"/>
</svg>
