<svg width="24" height="24" viewBox="0 0 24 24" fill="none" xmlns="http://www.w3.org/2000/svg">
<path fill-rule="evenodd" clip-rule="evenodd" d="M2.05 6.69995C2.05 4.08574 4.18579 1.94995 6.8 1.94995H13.1C14.3052 1.94995 15.4942 2.43346 16.4303 3.36962L20.1303 7.06962C20.9489 7.88815 21.55 9.0718 21.55 10.4V16.7C21.55 19.3142 19.4142 21.45 16.8 21.45H14.55V16.7C14.55 16.0142 13.9858 15.45 13.3 15.45H10.3C9.61422 15.45 9.05 16.0142 9.05 16.7V21.45H6.8C4.18579 21.45 2.05 19.3142 2.05 16.7V6.69995ZM6.8 3.44995C5.01422 3.44995 3.55 4.91416 3.55 6.69995V16.7C3.55 18.4857 5.01422 19.95 6.8 19.95H7.55V16.7C7.55 15.1857 8.78579 13.95 10.3 13.95H13.3C14.8142 13.95 16.05 15.1857 16.05 16.7V19.95H16.8C18.5858 19.95 20.05 18.4857 20.05 16.7V10.4C20.05 9.52811 19.6511 8.71175 19.0697 8.13028L15.3697 4.43028C14.7058 3.76645 13.8948 3.44995 13.1 3.44995H6.8ZM11.8 7.54995C11.4142 7.54995 11.05 7.91417 11.05 8.29995C11.05 8.68574 11.4142 9.04995 11.8 9.04995C12.1858 9.04995 12.55 8.68574 12.55 8.29995C12.55 7.91417 12.1858 7.54995 11.8 7.54995ZM9.55 8.29995C9.55 7.08574 10.5858 6.04995 11.8 6.04995C13.0142 6.04995 14.05 7.08574 14.05 8.29995C14.05 9.51416 13.0142 10.55 11.8 10.55C10.5858 10.55 9.55 9.51416 9.55 8.29995Z" fill="black"/>
<path d="M11.8 9.79993C12.6284 9.79993 13.3 9.12835 13.3 8.29993C13.3 7.4715 12.6284 6.79993 11.8 6.79993C10.9716 6.79993 10.3 7.4715 10.3 8.29993C10.3 9.12835 10.9716 9.79993 11.8 9.79993Z" fill="black"/>
<path fill-rule="evenodd" clip-rule="evenodd" d="M11.8 7.54993C11.3858 7.54993 11.05 7.88571 11.05 8.29993C11.05 8.71414 11.3858 9.04993 11.8 9.04993C12.2142 9.04993 12.55 8.71414 12.55 8.29993C12.55 7.88571 12.2142 7.54993 11.8 7.54993ZM9.55 8.29993C9.55 7.05729 10.5574 6.04993 11.8 6.04993C13.0426 6.04993 14.05 7.05729 14.05 8.29993C14.05 9.54257 13.0426 10.5499 11.8 10.5499C10.5574 10.5499 9.55 9.54257 9.55 8.29993Z" fill="black"/>
<path d="M15.3 16.7999V20.7999H8.3V16.7999C8.3 15.6999 9.2 14.7999 10.3 14.7999H13.3C14.3 14.7999 15.3 15.5999 15.3 16.7999Z" fill="black"/>
<path fill-rule="evenodd" clip-rule="evenodd" d="M10.3 15.5499C9.61422 15.5499 9.05 16.1141 9.05 16.7999V20.0499H14.55V16.7999C14.55 16.062 13.9354 15.5499 13.3 15.5499H10.3ZM7.55 16.7999C7.55 15.2857 8.78579 14.0499 10.3 14.0499H13.3C14.6646 14.0499 16.05 15.1378 16.05 16.7999V21.5499H7.55V16.7999Z" fill="black"/>
</svg>
