<svg width="24" height="24" fill="none" xmlns="http://www.w3.org/2000/svg"><path fill="#fff" d="M0 0h24v24H0z"/><path d="M21 17c0 2.2-1.8 4-4 4H7c-2.2 0-4-1.8-4-4V7c0-2.2 1.8-4 4-4h6.3c1.1 0 2.1.4 2.8 1.2l3.7 3.69999C20.6 8.69999 21 9.7 21 10.7V17z" stroke="#000" stroke-width="1.5" stroke-miterlimit="10"/><path d="M12 10c.8284 0 1.5-.67157 1.5-1.5S12.8284 7 12 7s-1.5.67157-1.5 1.5.6716 1.5 1.5 1.5zM15.5 21h-7v-4c0-1.1.9-2 2-2h3c1.1 0 2 .9 2 2v4z" stroke="#000" stroke-width="1.5" stroke-miterlimit="10"/></svg>