<svg width="24" height="24" viewBox="0 0 24 24" fill="none" xmlns="http://www.w3.org/2000/svg">
<path fill-rule="evenodd" clip-rule="evenodd" d="M3.75 5C3.75 4.31421 4.31421 3.75 5 3.75H7C7.41421 3.75 7.75 3.41421 7.75 3C7.75 2.58579 7.41421 2.25 7 2.25H5C3.48579 2.25 2.25 3.48579 2.25 5V7C2.25 7.41421 2.58579 7.75 3 7.75C3.41421 7.75 3.75 7.41421 3.75 7V5ZM17 2.25C16.5858 2.25 16.25 2.58579 16.25 3C16.25 3.41421 16.5858 3.75 17 3.75H19C19.6858 3.75 20.25 4.31421 20.25 5V7C20.25 7.41421 20.5858 7.75 21 7.75C21.4142 7.75 21.75 7.41421 21.75 7V5C21.75 3.48579 20.5142 2.25 19 2.25H17ZM21 16.25C21.4142 16.25 21.75 16.5858 21.75 17V19C21.75 20.5142 20.5142 21.75 19 21.75H17C16.5858 21.75 16.25 21.4142 16.25 21C16.25 20.5858 16.5858 20.25 17 20.25H19C19.6858 20.25 20.25 19.6858 20.25 19V17C20.25 16.5858 20.5858 16.25 21 16.25ZM3.75 17C3.75 16.5858 3.41421 16.25 3 16.25C2.58579 16.25 2.25 16.5858 2.25 17V19C2.25 20.5142 3.48579 21.75 5 21.75H7C7.41421 21.75 7.75 21.4142 7.75 21C7.75 20.5858 7.41421 20.25 7 20.25H5C4.31421 20.25 3.75 19.6858 3.75 19V17ZM8.7998 12.7499C7.83331 12.7499 7.0498 13.5334 7.0498 14.4999C7.0498 15.4664 7.83331 16.2499 8.7998 16.2499C9.7663 16.2499 10.5498 15.4664 10.5498 14.4999C10.5498 14.1294 10.4347 13.7859 10.2383 13.503C10.1381 13.4659 10.0443 13.4066 9.96452 13.3252C9.88819 13.2475 9.83225 13.1573 9.79664 13.0613C9.51378 12.865 9.17023 12.7499 8.7998 12.7499ZM10.512 11.737C10.0148 11.4282 9.42815 11.2499 8.7998 11.2499C7.00488 11.2499 5.5498 12.705 5.5498 14.4999C5.5498 16.2948 7.00488 17.7499 8.7998 17.7499C10.5947 17.7499 12.0498 16.2948 12.0498 14.4999C12.0498 13.8767 11.8744 13.2946 11.5704 12.8L14.0276 10.3883L14.6695 11.0302C14.9624 11.3231 15.4372 11.3231 15.7301 11.0302C16.023 10.7373 16.023 10.2625 15.7301 9.96957L15.0981 9.3376L15.8949 8.55562L17.0695 9.73022C17.3624 10.0231 17.8372 10.0231 18.1301 9.73022C18.423 9.43733 18.423 8.96245 18.1301 8.66956L16.4351 6.97453L16.4341 6.97355L16.4259 6.96538L15.8301 6.36957C15.5372 6.07668 15.0624 6.07668 14.7695 6.36957C14.4766 6.66247 14.4766 7.13734 14.7695 7.43023L14.8342 7.49491L13.6923 8.61564C13.6115 8.65193 13.5358 8.70325 13.4694 8.7696C13.4066 8.83245 13.3572 8.90368 13.3214 8.97968L10.512 11.737Z" fill="black"/>
</svg>
