<svg xmlns="http://www.w3.org/2000/svg" viewBox="0 0 24 24" fill="currentColor">
  <path d="M3.75 5c0-.68579.56421-1.25 1.25-1.25h2c.41421 0 .75-.33579.75-.75s-.33579-.75-.75-.75H5C3.48579 2.25 2.25 3.48579 2.25 5v2c0 .41421.33579.75.75.75s.75-.33579.75-.75V5ZM17 2.25c-.4142 0-.75.33579-.75.75s.3358.75.75.75h2c.6858 0 1.25.56421 1.25 1.25v2c0 .41421.3358.75.75.75s.75-.33579.75-.75V5c0-1.51421-1.2358-2.75-2.75-2.75h-2Zm4 14c.4142 0 .75.3358.75.75v2c0 1.5142-1.2358 2.75-2.75 2.75h-2c-.4142 0-.75-.3358-.75-.75s.3358-.75.75-.75h2c.6858 0 1.25-.5642 1.25-1.25v-2c0-.4142.3358-.75.75-.75ZM3.75 17c0-.4142-.33579-.75-.75-.75s-.75.3358-.75.75v2c0 1.5142 1.23579 2.75 2.75 2.75h2c.41421 0 .75-.3358.75-.75s-.33579-.75-.75-.75H5c-.68579 0-1.25-.5642-1.25-1.25v-2Zm7.9499-8.8501c-1.96061 0-3.55 1.58938-3.55 3.55 0 1.9606 1.58939 3.55 3.55 3.55 1.9606 0 3.55-1.5894 3.55-3.55 0-1.96062-1.5894-3.55-3.55-3.55Zm-5.05 3.55c0-2.78905 2.26097-5.05 5.05-5.05 2.789 0 5.05 2.26095 5.05 5.05 0 1.124-.3672 2.1622-.9881 3.0012l1.2684 1.2684c.2929.2929.2929.7678 0 1.0607-.2928.2929-.7677.2929-1.0606 0l-1.2685-1.2685c-.839.621-1.8772.9882-3.0012.9882-2.78903 0-5.05-2.261-5.05-5.05Z"/>
</svg>
