<svg xmlns="http://www.w3.org/2000/svg" viewBox="0 0 24 24" fill="currentColor">
  <path d="M3.75 5c0-.68579.56421-1.25 1.25-1.25h2c.41421 0 .75-.33579.75-.75s-.33579-.75-.75-.75H5C3.48579 2.25 2.25 3.48579 2.25 5v2c0 .41421.33579.75.75.75s.75-.33579.75-.75V5ZM17 2.25c-.4142 0-.75.33579-.75.75s.3358.75.75.75h2c.6858 0 1.25.56421 1.25 1.25v2c0 .41421.3358.75.75.75s.75-.33579.75-.75V5c0-1.51421-1.2358-2.75-2.75-2.75h-2Zm4 14c.4142 0 .75.3358.75.75v2c0 1.5142-1.2358 2.75-2.75 2.75h-2c-.4142 0-.75-.3358-.75-.75s.3358-.75.75-.75h2c.6858 0 1.25-.5642 1.25-1.25v-2c0-.4142.3358-.75.75-.75ZM3.75 17c0-.4142-.33579-.75-.75-.75s-.75.3358-.75.75v2c0 1.5142 1.23579 2.75 2.75 2.75h2c.41421 0 .75-.3358.75-.75s-.33579-.75-.75-.75H5c-.68579 0-1.25-.5642-1.25-1.25v-2Zm5.0498-4.2501c-.96649 0-1.75.7835-1.75 1.75s.78351 1.75 1.75 1.75c.9665 0 1.75-.7835 1.75-1.75 0-.3705-.1151-.714-.3115-.9969-.1002-.0371-.194-.0964-.27378-.1778-.07633-.0777-.13227-.1679-.16788-.2639-.28286-.1963-.62641-.3114-.99684-.3114Zm1.7122-1.0129c-.4972-.3088-1.08385-.4871-1.7122-.4871-1.79492 0-3.25 1.4551-3.25 3.25s1.45508 3.25 3.25 3.25c1.7949 0 3.25-1.4551 3.25-3.25 0-.6232-.1754-1.2053-.4794-1.6999l2.4572-2.4117.6419.6419c.2929.2929.7677.2929 1.0606 0 .2929-.2929.2929-.7677 0-1.06063l-.632-.63197.7968-.78198 1.1746 1.1746c.2929.29288.7677.29288 1.0606 0 .2929-.29289.2929-.76777 0-1.06066l-1.695-1.69503-.001-.00098-.0082-.00817-.5958-.59581c-.2929-.29289-.7677-.29289-1.0606 0-.2929.2929-.2929.76777 0 1.06066l.0647.06468-1.1419 1.12073c-.0808.03629-.1565.08761-.2229.15396-.0628.06285-.1122.13408-.148.21008L10.512 11.737Z"/>
</svg>
