<svg xmlns="http://www.w3.org/2000/svg" viewBox="0 0 24 24" fill="currentColor">
  <path d="M5 3.75c-.68579 0-1.25.56421-1.25 1.25v2c0 .41421-.33579.75-.75.75s-.75-.33579-.75-.75V5c0-1.51421 1.23579-2.75 2.75-2.75h2c.41421 0 .75.33579.75.75s-.33579.75-.75.75H5ZM16.25 3c0-.41421.3358-.75.75-.75h2c1.5142 0 2.75 1.23579 2.75 2.75v2c0 .41421-.3358.75-.75.75s-.75-.33579-.75-.75V5c0-.68579-.5642-1.25-1.25-1.25h-2c-.4142 0-.75-.33579-.75-.75Zm5.5 14c0-.4142-.3358-.75-.75-.75s-.75.3358-.75.75v2c0 .6858-.5642 1.25-1.25 1.25h-2c-.4142 0-.75.3358-.75.75s.3358.75.75.75h2c1.5142 0 2.75-1.2358 2.75-2.75v-2ZM3 16.25c.41421 0 .75.3358.75.75v2c0 .6858.56421 1.25 1.25 1.25h2c.41421 0 .75.3358.75.75s-.33579.75-.75.75H5c-1.51421 0-2.75-1.2358-2.75-2.75v-2c0-.4142.33579-.75.75-.75Zm4.05005-5.55c0-.87566.60294-1.57646 1.42854-1.72217.09743.04629.20642.07219.32146.07219.41421 0 .75-.33579.75-.75v-.70001c0-.1858.16422-.35001.35-.35001H13.9c.1858 0 .35.16421.35.35001v.70001c0 .41421.3358.75.75.75.017 0 .0338-.00056.0505-.00167.0164.00107.0329.00161.0495.00161.9858 0 1.75.76421 1.75 1.75004v3.6999c0 .9858-.7642 1.75-1.75 1.75H8.80005c-.98579 0-1.75-.7642-1.75-1.75V10.7Zm-1.5 0c0-1.55597 1.05605-2.83354 2.50117-3.16579C8.08642 6.5499 8.90785 5.75 9.90005 5.75H13.9c1.0143 0 1.85.8358 1.85 1.85001v.01309c1.4956.29561 2.6 1.59569 2.6 3.1869v3.6999c0 1.8143-1.4357 3.25-3.25 3.25H8.80005c-1.81421 0-3.25-1.4357-3.25-3.25V10.7ZM10.85 12.5999c0-.6351.5149-1.1499 1.15-1.1499.6352 0 1.15.5148 1.15 1.1499 0 .6352-.5148 1.15-1.15 1.15-.6351 0-1.15-.5148-1.15-1.15ZM12 9.94995c-1.4635 0-2.64996 1.18645-2.64996 2.64995 0 1.4636 1.18646 2.65 2.64996 2.65 1.4636 0 2.65-1.1864 2.65-2.65 0-1.4635-1.1864-2.64995-2.65-2.64995Z"/>
</svg>
