<svg xmlns="http://www.w3.org/2000/svg" fill="none" viewBox="0 0 24 24">
  <path fill="#000" fill-rule="evenodd" d="M3.75 5c0-.686.564-1.25 1.25-1.25h2a.75.75 0 0 0 0-1.5H5A2.756 2.756 0 0 0 2.25 5v2a.75.75 0 0 0 1.5 0V5ZM17 2.25a.75.75 0 0 0 0 1.5h2c.686 0 1.25.564 1.25 1.25v2a.75.75 0 0 0 1.5 0V5A2.756 2.756 0 0 0 19 2.25h-2Zm4 14a.75.75 0 0 1 .75.75v2A2.756 2.756 0 0 1 19 21.75h-2a.75.75 0 0 1 0-1.5h2c.686 0 1.25-.564 1.25-1.25v-2a.75.75 0 0 1 .75-.75ZM3.75 17a.75.75 0 0 0-1.5 0v2A2.756 2.756 0 0 0 5 21.75h2a.75.75 0 0 0 0-1.5H5c-.686 0-1.25-.564-1.25-1.25v-2Zm5.05-4.25a1.75 1.75 0 1 0 1.438.753.745.745 0 0 1-.441-.442 1.742 1.742 0 0 0-.997-.311Zm1.712-1.013A3.25 3.25 0 1 0 11.57 12.8l2.458-2.412.641.642a.75.75 0 1 0 1.061-1.06l-.632-.632.797-.782L17.07 9.73a.75.75 0 1 0 1.06-1.06l-1.695-1.695v-.001l-.01-.009-.595-.595a.75.75 0 1 0-1.06 1.06l.064.065-1.142 1.12a.75.75 0 0 0-.37.365l-2.81 2.757Z" clip-rule="evenodd"/>
</svg>
