<svg xmlns="http://www.w3.org/2000/svg" viewBox="0 0 24 24" fill="currentColor">
  <path d="M3.75 5c0-.68579.56421-1.25 1.25-1.25h2c.41421 0 .75-.33579.75-.75s-.33579-.75-.75-.75H5C3.48579 2.25 2.25 3.48579 2.25 5v2c0 .41421.33579.75.75.75s.75-.33579.75-.75V5ZM17 2.25c-.4142 0-.75.33579-.75.75s.3358.75.75.75h2c.6858 0 1.25.56421 1.25 1.25v2c0 .41421.3358.75.75.75s.75-.33579.75-.75V5c0-1.51421-1.2358-2.75-2.75-2.75h-2Zm4 14c.4142 0 .75.3358.75.75v2c0 1.5142-1.2358 2.75-2.75 2.75h-2c-.4142 0-.75-.3358-.75-.75s.3358-.75.75-.75h2c.6858 0 1.25-.5642 1.25-1.25v-2c0-.4142.3358-.75.75-.75ZM3.75 17c0-.4142-.33579-.75-.75-.75s-.75.3358-.75.75v2c0 1.5142 1.23579 2.75 2.75 2.75h2c.41421 0 .75-.3358.75-.75s-.33579-.75-.75-.75H5c-.68579 0-1.25-.5642-1.25-1.25v-2Zm9.5353-7.4461c-.9944-.58924-2.3277-.45097-3.255.4764l-.0098.0098-.0102.0094c-.89196.8283-1.06018 2.155-.44198 3.2214l3.71698-3.717Zm1.0463 1.0751-3.7149 3.7149c1.0185.5955 2.3995.4441 3.2337-.4543l.0189-.0203.0203-.0189c.892-.8283 1.0602-2.155.442-3.2214Zm.6085-1.64958c-1.6053-1.71722-4.2818-1.68817-5.96068-.01956-1.71723 1.60524-1.68817 4.28184-.01954 5.96064 1.59202 1.7026 4.37392 1.706 5.97062.0102 1.7071-1.6063 1.6749-4.2757.0096-5.95128Z"/>
</svg>
