<svg xmlns="http://www.w3.org/2000/svg" fill="none" viewBox="0 0 24 24">
  <path fill="#000" fill-rule="evenodd" d="M5 3.75c-.686 0-1.25.564-1.25 1.25v2a.75.75 0 0 1-1.5 0V5A2.756 2.756 0 0 1 5 2.25h2a.75.75 0 0 1 0 1.5H5ZM9.95 8.2c0-1.103.881-2.05 2.05-2.05.607 0 1.115.225 1.47.58.354.355.58.862.58 1.47v.082a4.757 4.757 0 0 0-.55-.032h-3.1a4.76 4.76 0 0 0-.45.021V8.2Zm-1.5.47V8.2c0-1.897 1.518-3.55 3.55-3.55.992 0 1.885.374 2.53 1.02.645.645 1.02 1.537 1.02 2.53v.517A4.763 4.763 0 0 1 18.25 13v2c0 2.114-1.636 3.75-3.75 3.75H9.4c-2.13 0-3.75-1.752-3.75-3.75v-2a4.764 4.764 0 0 1 2.8-4.33ZM7.15 13a3.262 3.262 0 0 1 3.25-3.25h3.1A3.262 3.262 0 0 1 16.75 13v2c0 1.286-.964 2.25-2.25 2.25H9.4A2.259 2.259 0 0 1 7.15 15v-2ZM17 2.25a.75.75 0 0 0 0 1.5h2c.686 0 1.25.564 1.25 1.25v2a.75.75 0 0 0 1.5 0V5A2.756 2.756 0 0 0 19 2.25h-2Zm4 14a.75.75 0 0 1 .75.75v2A2.756 2.756 0 0 1 19 21.75h-2a.75.75 0 0 1 0-1.5h2c.686 0 1.25-.564 1.25-1.25v-2a.75.75 0 0 1 .75-.75ZM3.75 17a.75.75 0 0 0-1.5 0v2A2.756 2.756 0 0 0 5 21.75h2a.75.75 0 0 0 0-1.5H5c-.686 0-1.25-.564-1.25-1.25v-2Z" clip-rule="evenodd"/>
</svg>
