<svg xmlns="http://www.w3.org/2000/svg" fill="none" viewBox="0 0 24 24">
  <path fill="#000" d="M6.4 15v-2c0-2.2 1.8-4 4-4h3.1c2.2 0 4 1.8 4 4v2c0 1.7-1.3 3-3 3H9.4c-1.7 0-3-1.4-3-3Z"/>
  <path fill="#000" fill-rule="evenodd" d="M10.4 9.75A3.262 3.262 0 0 0 7.15 13v2c0 1.202.98 2.25 2.25 2.25h5.1c1.286 0 2.25-.964 2.25-2.25v-2a3.262 3.262 0 0 0-3.25-3.25h-3.1ZM5.65 13a4.762 4.762 0 0 1 4.75-4.75h3.1A4.762 4.762 0 0 1 18.25 13v2c0 2.114-1.636 3.75-3.75 3.75H9.4c-2.13 0-3.75-1.752-3.75-3.75v-2Z" clip-rule="evenodd"/>
  <path fill="#000" fill-rule="evenodd" d="M12 6.15c-1.168 0-2.05.947-2.05 2.05v.7h-1.5v-.7c0-1.897 1.518-3.55 3.55-3.55.992 0 1.885.375 2.53 1.02.645.645 1.02 1.537 1.02 2.53v.7h-1.5v-.7c0-.607-.226-1.115-.58-1.47-.355-.355-.863-.58-1.47-.58Zm-7-2.4c-.686 0-1.25.564-1.25 1.25v2a.75.75 0 0 1-1.5 0V5A2.756 2.756 0 0 1 5 2.25h2a.75.75 0 0 1 0 1.5H5ZM16.25 3a.75.75 0 0 1 .75-.75h2A2.756 2.756 0 0 1 21.75 5v2a.75.75 0 0 1-1.5 0V5c0-.686-.564-1.25-1.25-1.25h-2a.75.75 0 0 1-.75-.75ZM21 16.25a.75.75 0 0 1 .75.75v2A2.756 2.756 0 0 1 19 21.75h-2a.75.75 0 0 1 0-1.5h2c.686 0 1.25-.564 1.25-1.25v-2a.75.75 0 0 1 .75-.75Zm-18 0a.75.75 0 0 1 .75.75v2c0 .686.564 1.25 1.25 1.25h2a.75.75 0 0 1 0 1.5H5A2.756 2.756 0 0 1 2.25 19v-2a.75.75 0 0 1 .75-.75Z" clip-rule="evenodd"/>
</svg>
