<svg width="24" height="24" viewBox="0 0 24 24" fill="none" xmlns="http://www.w3.org/2000/svg">
<path fill-rule="evenodd" clip-rule="evenodd" d="M5 3.75C4.31421 3.75 3.75 4.31421 3.75 5V7C3.75 7.41421 3.41421 7.75 3 7.75C2.58579 7.75 2.25 7.41421 2.25 7V5C2.25 3.48579 3.48579 2.25 5 2.25H7C7.41421 2.25 7.75 2.58579 7.75 3C7.75 3.41421 7.41421 3.75 7 3.75H5ZM16.25 3C16.25 2.58579 16.5858 2.25 17 2.25H19C20.5142 2.25 21.75 3.48579 21.75 5V7C21.75 7.41421 21.4142 7.75 21 7.75C20.5858 7.75 20.25 7.41421 20.25 7V5C20.25 4.31421 19.6858 3.75 19 3.75H17C16.5858 3.75 16.25 3.41421 16.25 3ZM21.75 17C21.75 16.5858 21.4142 16.25 21 16.25C20.5858 16.25 20.25 16.5858 20.25 17V19C20.25 19.6858 19.6858 20.25 19 20.25H17C16.5858 20.25 16.25 20.5858 16.25 21C16.25 21.4142 16.5858 21.75 17 21.75H19C20.5142 21.75 21.75 20.5142 21.75 19V17ZM3 16.25C3.41421 16.25 3.75 16.5858 3.75 17V19C3.75 19.6858 4.31421 20.25 5 20.25H7C7.41421 20.25 7.75 20.5858 7.75 21C7.75 21.4142 7.41421 21.75 7 21.75H5C3.48579 21.75 2.25 20.5142 2.25 19V17C2.25 16.5858 2.58579 16.25 3 16.25ZM7.05005 10.7C7.05005 9.82434 7.65299 9.12354 8.47859 8.97783C8.57602 9.02412 8.68501 9.05002 8.80005 9.05002C9.21426 9.05002 9.55005 8.71423 9.55005 8.30002V8.19995V7.60001C9.55005 7.41421 9.71427 7.25 9.90005 7.25H13.9C14.0858 7.25 14.25 7.41421 14.25 7.60001V8.30002C14.25 8.71423 14.5858 9.05002 15 9.05002C15.017 9.05002 15.0338 9.04946 15.0505 9.04835C15.0669 9.04942 15.0834 9.04996 15.1 9.04996C16.0858 9.04996 16.85 9.81417 16.85 10.8V14.4999C16.85 15.4857 16.0858 16.2499 15.1 16.2499H8.80005C7.81426 16.2499 7.05005 15.4857 7.05005 14.4999V10.7ZM5.55005 10.7C5.55005 9.14403 6.6061 7.86646 8.05122 7.53421C8.08642 6.5499 8.90785 5.75 9.90005 5.75H13.9C14.9143 5.75 15.75 6.5858 15.75 7.60001V7.6131C17.2456 7.90871 18.35 9.20879 18.35 10.8V14.4999C18.35 16.3142 16.9143 17.7499 15.1 17.7499H8.80005C6.98584 17.7499 5.55005 16.3142 5.55005 14.4999V10.7ZM10.85 12.5999C10.85 11.9648 11.3649 11.45 12 11.45C12.6352 11.45 13.15 11.9648 13.15 12.5999C13.15 13.2351 12.6352 13.7499 12 13.7499C11.3649 13.7499 10.85 13.2351 10.85 12.5999ZM12 9.94995C10.5365 9.94995 9.35004 11.1364 9.35004 12.5999C9.35004 14.0635 10.5365 15.2499 12 15.2499C13.4636 15.2499 14.65 14.0635 14.65 12.5999C14.65 11.1364 13.4636 9.94995 12 9.94995Z" fill="black"/>
</svg>
