<svg xmlns="http://www.w3.org/2000/svg" viewBox="0 0 24 24" fill="currentColor">
  <path d="M5 3.75c-.68579 0-1.25.56421-1.25 1.25v2c0 .41421-.33579.75-.75.75s-.75-.33579-.75-.75V5c0-1.51421 1.23579-2.75 2.75-2.75h2c.41421 0 .75.33579.75.75s-.33579.75-.75.75H5Zm4.94989 4.44989c0-1.10335.88151-2.04999 2.05001-2.04999.6074 0 1.1147.2254 1.4696.58032.355.35493.5804.86225.5804 1.46967v.08181c-.1805-.02101-.3641-.03182-.55-.03182h-3.1c-.1517 0-.3018.00719-.45001.02126v-.07125Zm-1.5.47062v-.47062c0-1.89665 1.51842-3.54999 3.55001-3.54999.9925 0 1.8852.37458 2.5303 1.01966.6451.64507 1.0197 1.53775 1.0197 2.53033v.51738c1.5942.7682 2.7 2.40153 2.7 4.28263v2c0 2.1142-1.6358 3.75-3.75 3.75h-5.1c-2.13037 0-3.75-1.7522-3.75-3.75v-2c0-1.9202 1.15225-3.58221 2.79999-4.32939ZM7.1499 12.9999c0-1.7858 1.46422-3.25002 3.25-3.25002h3.1c1.7858 0 3.25 1.46422 3.25 3.25002v2c0 1.2858-.9642 2.25-2.25 2.25h-5.1c-1.26962 0-2.25-1.0479-2.25-2.25v-2ZM17 2.25c-.4142 0-.75.33579-.75.75s.3358.75.75.75h2c.6858 0 1.25.56421 1.25 1.25v2c0 .41421.3358.75.75.75s.75-.33579.75-.75V5c0-1.51421-1.2358-2.75-2.75-2.75h-2Zm4 14c.4142 0 .75.3358.75.75v2c0 1.5142-1.2358 2.75-2.75 2.75h-2c-.4142 0-.75-.3358-.75-.75s.3358-.75.75-.75h2c.6858 0 1.25-.5642 1.25-1.25v-2c0-.4142.3358-.75.75-.75ZM3.75 17c0-.4142-.33579-.75-.75-.75s-.75.3358-.75.75v2c0 1.5142 1.23579 2.75 2.75 2.75h2c.41421 0 .75-.3358.75-.75s-.33579-.75-.75-.75H5c-.68579 0-1.25-.5642-1.25-1.25v-2Z"/>
</svg>
