<svg xmlns="http://www.w3.org/2000/svg" viewBox="0 0 24 24" fill="currentColor">
  <path d="M3.75 5c0-.68579.56421-1.25 1.25-1.25h2c.41421 0 .75-.33579.75-.75s-.33579-.75-.75-.75H5C3.48579 2.25 2.25 3.48579 2.25 5v2c0 .41421.33579.75.75.75s.75-.33579.75-.75V5ZM17 2.25c-.4142 0-.75.33579-.75.75s.3358.75.75.75h2c.6858 0 1.25.56421 1.25 1.25v2c0 .41421.3358.75.75.75s.75-.33579.75-.75V5c0-1.51421-1.2358-2.75-2.75-2.75h-2Zm4 14c.4142 0 .75.3358.75.75v2c0 1.5142-1.2358 2.75-2.75 2.75h-2c-.4142 0-.75-.3358-.75-.75s.3358-.75.75-.75h2c.6858 0 1.25-.5642 1.25-1.25v-2c0-.4142.3358-.75.75-.75ZM3.75 17c0-.4142-.33579-.75-.75-.75s-.75.3358-.75.75v2c0 1.5142 1.23579 2.75 2.75 2.75h2c.41421 0 .75-.3358.75-.75s-.33579-.75-.75-.75H5c-.68579 0-1.25-.5642-1.25-1.25v-2Zm6.8804-7.43035c.2929.29289.2929.76775 0 1.06065L9.26076 12l1.36964 1.3697c.2929.2929.2929.7677 0 1.0606-.2929.2929-.76775.2929-1.06064 0l-1.39999-1.4h-.00001c-.27051-.2705-.44466-.6296-.44466-1.0303 0-.4007.17415-.7598.44467-1.0304l1.4-1.39996c.29289-.29289.76773-.29289 1.06063.00001Zm3.7-.09998c-.2929-.29289-.7677-.2929-1.0606 0-.2929.29289-.2929.76773 0 1.06063L14.6394 11.9l-1.3696 1.3697c-.2929.2929-.2929.7678 0 1.0606.2929.2929.7677.2929 1.0606 0l1.4-1.3999c.2705-.2706.4447-.6297.4447-1.0304 0-.4007-.1742-.7598-.4447-1.0303l-1.4-1.40003Z"/>
</svg>
