<svg xmlns="http://www.w3.org/2000/svg" viewBox="0 0 24 24" fill="currentColor">
  <path d="M12 3.30005c-1.2426 0-2.25 1.00736-2.25 2.25s1.0074 2.25 2.25 2.25 2.25-1.00736 2.25-2.25c0-.20424-.0272-.40213-.0782-.59023-.0631-.09647-.1045-.20835-.1174-.32877-.3515-.7845-1.1391-1.331-2.0544-1.331Zm3.3175.5c-.6288-1.18945-1.8785-2-3.3175-2-1.439 0-2.68873.81055-3.31748 2H6c-.41421 0-.75.33579-.75.75s.33579.75.75.75h2.2582c-.00544.08263-.0082.16599-.0082.25 0 .20912.01712.41425.05003.61405-1.30462.64671-2.15001 1.99591-2.15001 3.58606v3.70004c0 2.2728 1.2337 4.1456 3.09998 5.1187v.8812c0 1.5142 1.2358 2.75 2.75 2.75s2.75-1.2358 2.75-2.75v-.9925c1.7598-1.0174 2.9-2.9148 2.9-5.0074V9.75016c0-1.42182-.7605-2.78067-1.9684-3.48329.0449-.23202.0684-.47168.0684-.71682 0-.08401-.0028-.16737-.0082-.25H18c.4142 0 .75-.33579.75-.75s-.3358-.75-.75-.75h-2.6825ZM12 9.30005c1.2838 0 2.4169-.6451 3.0929-1.62882.6338.44885 1.0571 1.23118 1.0571 2.07893v2.13634c-.0503.0267-.0985.0595-.1432.0986-1.349 1.1776-2.3763 1.815-4.0068 1.815-1.6162 0-3.09148-.6329-4.34998-1.6813V9.75016c0-.98009.4779-1.76447 1.19284-2.17566C9.5098 8.61244 10.6746 9.30005 12 9.30005ZM7.68253 13.9984c.18308 1.5217 1.12608 2.7335 2.48997 3.3519.5777.1912 1.1676.3499 1.7275.3499.6388 0 1.2089-.093 1.6646-.3209l.0153-.0076.0155-.0069c1.4212-.6316 2.4016-1.9951 2.5382-3.5426-1.1663.8873-2.3937 1.4779-4.1336 1.4779-1.596 0-3.05149-.4941-4.31747-1.3017Zm5.56747 5.066c-.4532.1005-.9129.1358-1.35.1358-.3961 0-.7851-.0537-1.15-.132v.3819c0 .6858.5642 1.25 1.25 1.25s1.25-.5642 1.25-1.25v-.3857Z"/>
</svg>
