<svg width="24" height="24" viewBox="0 0 24 24" fill="none" xmlns="http://www.w3.org/2000/svg">
<path d="M17 12.75V13.55C17 15.55 15.8 17.35 14 18.15C13.4 18.45 12.7 18.55 12 18.55C11.3 18.55 10.6 18.35 10 18.15C8.2 17.35 7 15.65 7 13.55V12.75C8.4 13.85 10.1 14.55 12 14.55C13.9 14.55 15.6 13.85 17 12.75Z" stroke="black" stroke-width="1.5" stroke-miterlimit="10"/>
<path d="M17 9.85015V12.7501C15.6 13.8501 13.9 14.5501 12 14.5501C10.1 14.5501 8.4 13.8501 7 12.7501V9.85015C7 8.35015 7.9 7.15015 9.2 6.75015C9.7 7.75015 10.7 8.55015 12 8.55015C13.3 8.55015 14.2 7.75015 14.7 6.65015C16 7.15015 17 8.35015 17 9.85015Z" fill="black" stroke="black" stroke-width="1.5" stroke-miterlimit="10"/>
<path d="M14 18.05V19.4501C14 20.5501 13.1 21.4501 12 21.4501C10.9 21.4501 10 20.5501 10 19.4501V18.05C10.6 18.35 11.3 18.4501 12 18.4501C12.7 18.4501 13.3 18.35 14 18.05Z" fill="black" stroke="black" stroke-width="1.5" stroke-miterlimit="10"/>
<path d="M15 5.55005C15 5.95005 14.9 6.35005 14.8 6.75005C14.2 7.75005 13.2 8.55005 12 8.55005C10.8 8.55005 9.7 7.75005 9.2 6.65005C9 6.35005 9 5.95005 9 5.55005C9 5.15005 9.1 4.85005 9.2 4.55005C9.6 3.35005 10.7 2.55005 12 2.55005C13.3 2.55005 14.4 3.35005 14.8 4.55005C14.9 4.85005 15 5.15005 15 5.55005Z" stroke="black" stroke-width="1.5" stroke-miterlimit="10"/>
<path d="M18 4.55005H14.8" stroke="black" stroke-width="1.5" stroke-miterlimit="10" stroke-linecap="round"/>
<path d="M9.1 4.55005H6" stroke="black" stroke-width="1.5" stroke-miterlimit="10" stroke-linecap="round"/>
</svg>
