<svg xmlns="http://www.w3.org/2000/svg" fill="none" viewBox="0 0 24 24">
  <path fill="#000" fill-rule="evenodd" d="M11.951 3.7 8.838 6.91a.75.75 0 0 1-1.076-1.045l3.208-3.308a1.45 1.45 0 0 1 1.018-.445c.383 0 .742.173.984.487l3.258 3.258a.75.75 0 1 1-1.06 1.06L11.95 3.7Zm.1-.1-.002.002.002-.001ZM7.67 17.157a.75.75 0 0 1 1.06 0l3.224 3.224a.16.16 0 0 0 .092 0l3.224-3.224a.75.75 0 0 1 1.06 1.06l-3.352 3.353-.062.041a1.658 1.658 0 0 1-1.832 0l-.062-.04-3.352-3.353a.75.75 0 0 1 0-1.061Z" clip-rule="evenodd"/>
  <path fill="#000" d="M12 14.687a2.6 2.6 0 1 0 0-5.2 2.6 2.6 0 0 0 0 5.2Z"/>
  <path fill="#000" fill-rule="evenodd" d="M12 10.237a1.85 1.85 0 1 0 0 3.7 1.85 1.85 0 0 0 0-3.7Zm-3.35 1.85a3.35 3.35 0 1 1 6.7 0 3.35 3.35 0 0 1-6.7 0Z" clip-rule="evenodd"/>
</svg>
