<svg xmlns="http://www.w3.org/2000/svg" viewBox="0 0 24 24" fill="currentColor">
  <path d="M11.55 4.29999c-4.00402 0-7.24995 3.24593-7.24995 7.25001 0 4.0041 3.24593 7.25 7.24995 7.25 4.0041 0 7.25-3.2459 7.25-7.25 0-4.00408-3.2459-7.25001-7.25-7.25001ZM2.80005 11.55c0-4.8325 3.91751-8.75001 8.74995-8.75001 4.8325 0 8.75 3.91751 8.75 8.75001 0 2.1462-.7727 4.112-2.0551 5.6343l2.7354 2.7354c.2929.2929.2929.7677 0 1.0606-.2929.2929-.7678.2929-1.0607 0l-2.7354-2.7354C15.662 19.5273 13.6962 20.3 11.55 20.3c-4.83244 0-8.74995-3.9175-8.74995-8.75Zm5.75-.75c-.41421 0-.75.3358-.75.75s.33579.75.75.75H14.55c.4143 0 .75-.3358.75-.75s-.3357-.75-.75-.75H8.55005Z"/>
</svg>
