<svg xmlns="http://www.w3.org/2000/svg" viewBox="0 0 24 24" fill="currentColor">
  <path d="M4.30005 11.55c0-4.00408 3.24593-7.25001 7.24995-7.25001 4.0041 0 7.25 3.24593 7.25 7.25001 0 4.0041-3.2459 7.25-7.25 7.25-4.00402 0-7.24995-3.2459-7.24995-7.25ZM11.55 2.79999c-4.83244 0-8.74995 3.91751-8.74995 8.75001S6.71756 20.3 11.55 20.3c2.1462 0 4.112-.7727 5.6342-2.0551l2.7354 2.7354c.2929.2929.7678.2929 1.0607 0 .2929-.2929.2929-.7677 0-1.0606l-2.7354-2.7354C19.5273 15.662 20.3 13.6962 20.3 11.55c0-4.8325-3.9175-8.75001-8.75-8.75001ZM7.80005 11.55c0-.4142.33579-.75.75-.75H10.8V8.54999c0-.41422.3358-.75.75-.75.4143 0 .75.33578.75.75V10.8h2.25c.4143 0 .75.3358.75.75s-.3357.75-.75.75H12.3v2.25c0 .4142-.3357.75-.75.75-.4142 0-.75-.3358-.75-.75V12.3H8.55005c-.41421 0-.75-.3358-.75-.75Z"/>
</svg>
