<svg width="24" height="24" fill="none" xmlns="http://www.w3.org/2000/svg"><path fill="#fff" d="M0 0h24v24H0z"/><path d="M11.6999 15.4999c2.0987 0 3.8-1.7013 3.8-3.8 0-2.09869-1.7013-3.8-3.8-3.8-2.09869 0-3.8 1.70131-3.8 3.8 0 2.0987 1.70131 3.8 3.8 3.8z" stroke="#000" stroke-width="1.5" stroke-miterlimit="10"/><path d="M14.4999 14.4999l1.5 1.5" stroke="#000" stroke-width="1.5" stroke-miterlimit="10" stroke-linecap="round"/><path d="M15 21H9c-3.3 0-6-2.7-6-6V9c0-3.3 2.7-6 6-6h6c3.3 0 6 2.7 6 6v6c0 3.3-2.7 6-6 6z" stroke="#000" stroke-width="1.5" stroke-miterlimit="10"/></svg>