<svg width="24" height="24" viewBox="0 0 24 24" fill="none" xmlns="http://www.w3.org/2000/svg">
<path d="M11.8 19.8C16.2183 19.8 19.8 16.2183 19.8 11.8C19.8 7.38177 16.2183 3.80005 11.8 3.80005C7.38171 3.80005 3.79999 7.38177 3.79999 11.8C3.79999 16.2183 7.38171 19.8 11.8 19.8Z" fill="black"/>
<path fill-rule="evenodd" clip-rule="evenodd" d="M11.8 4.55005C7.79592 4.55005 4.54999 7.79598 4.54999 11.8C4.54999 15.8041 7.79592 19.05 11.8 19.05C15.8041 19.05 19.05 15.8041 19.05 11.8C19.05 7.79598 15.8041 4.55005 11.8 4.55005ZM3.04999 11.8C3.04999 6.96756 6.9675 3.05005 11.8 3.05005C16.6325 3.05005 20.55 6.96756 20.55 11.8C20.55 16.6325 16.6325 20.55 11.8 20.55C6.9675 20.55 3.04999 16.6325 3.04999 11.8Z" fill="black"/>
<path fill-rule="evenodd" clip-rule="evenodd" d="M17.1697 17.1697C17.4626 16.8768 17.9374 16.8768 18.2303 17.1697L21.2303 20.1697C21.5232 20.4626 21.5232 20.9375 21.2303 21.2304C20.9374 21.5233 20.4626 21.5233 20.1697 21.2304L17.1697 18.2304C16.8768 17.9375 16.8768 17.4626 17.1697 17.1697Z" fill="black"/>
<path fill-rule="evenodd" clip-rule="evenodd" d="M8.04999 11.8C8.04999 11.3858 8.38577 11.05 8.79999 11.05H14.8C15.2142 11.05 15.55 11.3858 15.55 11.8C15.55 12.2143 15.2142 12.55 14.8 12.55H8.79999C8.38577 12.55 8.04999 12.2143 8.04999 11.8Z" fill="white"/>
</svg>
