<svg xmlns="http://www.w3.org/2000/svg" viewBox="0 0 24 24" fill="currentColor">
  <path d="M4.29999 11.55c0-4.00407 3.24593-7.25 7.25001-7.25 4.0041 0 7.25 3.24593 7.25 7.25 0 4.0041-3.2459 7.25-7.25 7.25-4.00408 0-7.25001-3.2459-7.25001-7.25ZM11.55 2.8c-4.8325 0-8.75001 3.91751-8.75001 8.75 0 4.8325 3.91751 8.75 8.75001 8.75 2.1462 0 4.112-.7727 5.6342-2.0551l2.7355 2.7354c.2929.2929.7677.2929 1.0606 0 .2929-.2929.2929-.7677 0-1.0606l-2.7354-2.7355C19.5273 15.662 20.3 13.6962 20.3 11.55c0-4.83249-3.9175-8.75-8.75-8.75Z"/>
</svg>
