<svg width="24" height="24" viewBox="0 0 24 24" fill="none" xmlns="http://www.w3.org/2000/svg">
<path fill-rule="evenodd" clip-rule="evenodd" d="M10.4 9.95007C10.1197 9.95007 9.90512 10.0556 9.73033 10.2304C9.42322 10.5375 9.42322 11.1626 9.73033 11.4697L9.92353 11.6629L11.8481 13.4913L13.7303 11.6091C13.9739 11.2749 14.05 11.0493 14.05 10.9001C14.05 10.6198 13.9445 10.4052 13.7697 10.2304C13.4626 9.9233 12.8374 9.9233 12.5303 10.2304L11.8 10.9607L11.1091 10.2698C10.7748 10.0261 10.5493 9.95007 10.4 9.95007ZM11.7809 8.91181C11.3872 8.65715 10.9205 8.45007 10.4 8.45007C9.68026 8.45007 9.09488 8.74454 8.66967 9.16974C7.77678 10.0626 7.77678 11.6375 8.66967 12.5304L8.87647 12.7372L10.8352 14.598C11.0766 14.9061 11.4332 15.0751 11.8125 15.0751C12.2077 15.0751 12.5655 14.8952 12.8303 14.6304L14.868 12.5927L14.9 12.5501C15.2323 12.107 15.55 11.5448 15.55 10.9001C15.55 10.1803 15.2555 9.59495 14.8303 9.16974C14.0338 8.37323 12.6946 8.28725 11.7809 8.91181ZM11.7492 13.5869C11.7492 13.5869 11.7498 13.5865 11.7508 13.586L11.7492 13.5869Z" fill="black"/>
<path fill-rule="evenodd" clip-rule="evenodd" d="M11.8 4.55005C7.79593 4.55005 4.55 7.79598 4.55 11.8C4.55 15.8041 7.79593 19.05 11.8 19.05C15.8041 19.05 19.05 15.8041 19.05 11.8C19.05 7.79598 15.8041 4.55005 11.8 4.55005ZM3.05 11.8C3.05 6.96756 6.96751 3.05005 11.8 3.05005C16.6325 3.05005 20.55 6.96756 20.55 11.8C20.55 16.6325 16.6325 20.55 11.8 20.55C6.96751 20.55 3.05 16.6325 3.05 11.8Z" fill="black"/>
<path fill-rule="evenodd" clip-rule="evenodd" d="M17.1697 17.1697C17.4626 16.8768 17.9374 16.8768 18.2303 17.1697L21.2303 20.1697C21.5232 20.4626 21.5232 20.9375 21.2303 21.2304C20.9374 21.5233 20.4626 21.5233 20.1697 21.2304L17.1697 18.2304C16.8768 17.9375 16.8768 17.4626 17.1697 17.1697Z" fill="black"/>
</svg>
