<svg width="24" height="24" viewBox="0 0 24 24" fill="none" xmlns="http://www.w3.org/2000/svg">
<path d="M11.6 19.6C16.0183 19.6 19.6 16.0183 19.6 11.6C19.6 7.1817 16.0183 3.59998 11.6 3.59998C7.18173 3.59998 3.60001 7.1817 3.60001 11.6C3.60001 16.0183 7.18173 19.6 11.6 19.6Z" fill="black"/>
<path fill-rule="evenodd" clip-rule="evenodd" d="M11.6 4.34998C7.59594 4.34998 4.35001 7.59591 4.35001 11.6C4.35001 15.604 7.59594 18.85 11.6 18.85C15.6041 18.85 18.85 15.604 18.85 11.6C18.85 7.59591 15.6041 4.34998 11.6 4.34998ZM2.85001 11.6C2.85001 6.76748 6.76751 2.84998 11.6 2.84998C16.4325 2.84998 20.35 6.76748 20.35 11.6C20.35 16.4325 16.4325 20.35 11.6 20.35C6.76751 20.35 2.85001 16.4325 2.85001 11.6Z" fill="black"/>
<path fill-rule="evenodd" clip-rule="evenodd" d="M16.9697 16.9697C17.2626 16.6768 17.7374 16.6768 18.0303 16.9697L21.0303 19.9697C21.3232 20.2626 21.3232 20.7374 21.0303 21.0303C20.7374 21.3232 20.2626 21.3232 19.9697 21.0303L16.9697 18.0303C16.6768 17.7374 16.6768 17.2626 16.9697 16.9697Z" fill="black"/>
<path fill-rule="evenodd" clip-rule="evenodd" d="M8.86966 8.86969C9.16256 8.5768 9.63743 8.5768 9.93032 8.86969L14.2303 13.1697C14.5232 13.4626 14.5232 13.9375 14.2303 14.2304C13.9374 14.5232 13.4626 14.5232 13.1697 14.2304L8.86966 9.93035C8.57677 9.63746 8.57677 9.16259 8.86966 8.86969Z" fill="white"/>
<path fill-rule="evenodd" clip-rule="evenodd" d="M14.2303 8.86969C14.5232 9.16259 14.5232 9.63746 14.2303 9.93035L9.93032 14.2304C9.63743 14.5232 9.16256 14.5232 8.86966 14.2304C8.57677 13.9375 8.57677 13.4626 8.86966 13.1697L13.1697 8.86969C13.4626 8.5768 13.9374 8.5768 14.2303 8.86969Z" fill="white"/>
</svg>
