<svg xmlns="http://www.w3.org/2000/svg" viewBox="0 0 24 24" fill="currentColor">
  <path d="M4.30005 11.55c0-4.00408 3.24593-7.25001 7.24995-7.25001 4.0041 0 7.25 3.24593 7.25 7.25001 0 4.0041-3.2459 7.25-7.25 7.25-4.00402 0-7.24995-3.2459-7.24995-7.25ZM11.55 2.79999c-4.83244 0-8.74995 3.91751-8.74995 8.75001S6.71756 20.3 11.55 20.3c2.1462 0 4.112-.7727 5.6342-2.0551l2.7354 2.7354c.2929.2929.7678.2929 1.0607 0 .2929-.2929.2929-.7677 0-1.0606l-2.7354-2.7354C19.5273 15.662 20.3 13.6962 20.3 11.55c0-4.8325-3.9175-8.75001-8.75-8.75001ZM8.81964 8.81965c.29289-.2929.76777-.2929 1.06066-.00001L11.5 10.4393l1.6197-1.61966c.2929-.29289.7678-.29289 1.0607.00001.2928.29289.2928.76777 0 1.06066L12.5607 11.5l1.6197 1.6196c.2928.2929.2928.7678 0 1.0607-.2929.2929-.7678.2929-1.0607 0L11.5 12.5606l-1.6197 1.6197c-.29289.2929-.76777.2929-1.06066 0s-.29289-.7678.00001-1.0607L10.4393 11.5 8.81965 9.88031c-.2929-.29289-.2929-.76777-.00001-1.06066Z"/>
</svg>
