<svg width="24" height="24" viewBox="0 0 24 24" fill="none" xmlns="http://www.w3.org/2000/svg">
<path d="M11.6 19.6C16.0183 19.6 19.6 16.0183 19.6 11.6C19.6 7.1817 16.0183 3.59998 11.6 3.59998C7.18173 3.59998 3.60001 7.1817 3.60001 11.6C3.60001 16.0183 7.18173 19.6 11.6 19.6Z" fill="black"/>
<path fill-rule="evenodd" clip-rule="evenodd" d="M11.6 4.34998C7.59594 4.34998 4.35001 7.59591 4.35001 11.6C4.35001 15.604 7.59594 18.85 11.6 18.85C15.6041 18.85 18.85 15.604 18.85 11.6C18.85 7.59591 15.6041 4.34998 11.6 4.34998ZM2.85001 11.6C2.85001 6.76748 6.76751 2.84998 11.6 2.84998C16.4325 2.84998 20.35 6.76748 20.35 11.6C20.35 16.4325 16.4325 20.35 11.6 20.35C6.76751 20.35 2.85001 16.4325 2.85001 11.6Z" fill="black"/>
<path fill-rule="evenodd" clip-rule="evenodd" d="M16.9697 16.9697C17.2626 16.6768 17.7374 16.6768 18.0303 16.9697L21.0303 19.9697C21.3232 20.2626 21.3232 20.7374 21.0303 21.0303C20.7374 21.3232 20.2626 21.3232 19.9697 21.0303L16.9697 18.0303C16.6768 17.7374 16.6768 17.2626 16.9697 16.9697Z" fill="black"/>
<path fill-rule="evenodd" clip-rule="evenodd" d="M7.85001 11.6C7.85001 11.1858 8.18579 10.85 8.60001 10.85H14.6C15.0142 10.85 15.35 11.1858 15.35 11.6C15.35 12.0142 15.0142 12.35 14.6 12.35H8.60001C8.18579 12.35 7.85001 12.0142 7.85001 11.6Z" fill="white"/>
<path fill-rule="evenodd" clip-rule="evenodd" d="M11.6 7.84998C12.0142 7.84998 12.35 8.18576 12.35 8.59998V14.6C12.35 15.0142 12.0142 15.35 11.6 15.35C11.1858 15.35 10.85 15.0142 10.85 14.6V8.59998C10.85 8.18576 11.1858 7.84998 11.6 7.84998Z" fill="white"/>
</svg>
