<svg xmlns="http://www.w3.org/2000/svg" fill="none" viewBox="0 0 24 24">
  <path fill="#000" d="M11.8 19.8a8 8 0 1 0 0-16 8 8 0 0 0 0 16Z"/>
  <path fill="#000" fill-rule="evenodd" d="M11.8 4.55a7.25 7.25 0 1 0 0 14.5 7.25 7.25 0 0 0 0-14.5ZM3.05 11.8a8.75 8.75 0 1 1 17.5 0 8.75 8.75 0 0 1-17.5 0Z" clip-rule="evenodd"/>
  <path fill="#000" fill-rule="evenodd" d="M17.17 17.17a.75.75 0 0 1 1.06 0l3 3a.75.75 0 0 1-1.06 1.06l-3-3a.75.75 0 0 1 0-1.06Z" clip-rule="evenodd"/>
  <path fill="#fff" fill-rule="evenodd" d="M8.05 11.8a.75.75 0 0 1 .75-.75h6a.75.75 0 0 1 0 1.5h-6a.75.75 0 0 1-.75-.75Z" clip-rule="evenodd"/>
</svg>
