<svg xmlns="http://www.w3.org/2000/svg" viewBox="0 0 24 24" fill="currentColor">
  <path d="M3.75 9c0-2.88579 2.36421-5.25 5.25-5.25h6c2.8858 0 5.25 2.36421 5.25 5.25v6c0 2.8858-2.3642 5.25-5.25 5.25H9c-2.88579 0-5.25-2.3642-5.25-5.25V9ZM9 2.25C5.28579 2.25 2.25 5.28579 2.25 9v6c0 3.7142 3.03579 6.75 6.75 6.75h6c3.7142 0 6.75-3.0358 6.75-6.75V9c0-3.71421-3.0358-6.75-6.75-6.75H9Zm2.6999 6.3999c-1.6845 0-3.05 1.3655-3.05 3.05 0 1.6845 1.3655 3.05 3.05 3.05 1.6845 0 3.05-1.3655 3.05-3.05 0-1.6845-1.3655-3.05-3.05-3.05Zm-4.55 3.05c0-2.51291 2.03709-4.55 4.55-4.55 2.5129 0 4.55 2.03709 4.55 4.55 0 .9857-.3135 1.8982-.8461 2.6432l1.1264 1.1264c.2929.2929.2929.7678 0 1.0607-.2929.2929-.7678.2929-1.0607 0l-1.1264-1.1264c-.745.5326-1.6575.8461-2.6432.8461-2.51291 0-4.55-2.0371-4.55-4.55Z"/>
</svg>
