<svg width="24" height="24" viewBox="0 0 24 24" fill="none" xmlns="http://www.w3.org/2000/svg">
<path fill-rule="evenodd" clip-rule="evenodd" d="M18.5305 3.96143C19.1017 3.72891 19.6012 4.03444 19.8085 4.24171C20.0163 4.44952 20.3228 4.95103 20.0869 5.52409L16.3826 19.2402L16.3489 19.3075C16.3463 19.3128 16.3434 19.3186 16.3403 19.3248C16.2975 19.4111 16.2124 19.5825 16.0918 19.7272C15.9419 19.907 15.6745 20.122 15.2781 20.122C14.8639 20.122 14.5281 19.7863 14.5281 19.372C14.5281 19.0641 14.7137 18.7996 14.979 18.6841L18.5372 5.50918L5.2214 8.95788C5.09024 9.17607 4.85123 9.32204 4.57812 9.32204C4.16391 9.32204 3.82812 8.98626 3.82812 8.57204C3.82812 8.32461 3.92937 8.08866 4.06747 7.91602C4.20703 7.74157 4.4394 7.56618 4.75509 7.52916L18.5305 3.96143Z" fill="black"/>
<path fill-rule="evenodd" clip-rule="evenodd" d="M3.85727 8.3648C3.97172 7.96671 4.38722 7.73678 4.78531 7.85123L12.8517 10.1703L12.9135 10.2012C13.0587 10.2738 13.2085 10.3668 13.3459 10.5042C13.4833 10.6416 13.5763 10.7914 13.6489 10.9366L13.6798 10.9984L15.9989 19.0648C16.1133 19.4629 15.8834 19.8784 15.4853 19.9928C15.0872 20.1073 14.6717 19.8773 14.5573 19.4793L12.2826 11.5675L4.37084 9.29283C3.97276 9.17838 3.74282 8.76289 3.85727 8.3648Z" fill="black"/>
<path fill-rule="evenodd" clip-rule="evenodd" d="M19.7084 4.14173C20.0013 4.43462 20.0013 4.90949 19.7084 5.20239L13.4084 11.5024C13.1155 11.7953 12.6406 11.7953 12.3477 11.5024C12.0548 11.2095 12.0548 10.7346 12.3477 10.4417L18.6477 4.14173C18.9406 3.84883 19.4155 3.84883 19.7084 4.14173Z" fill="black"/>
</svg>
