<svg width="24" height="24" viewBox="0 0 24 24" fill="none" xmlns="http://www.w3.org/2000/svg">
<path d="M22 11.8V12.8C22 13.5 21.5 14 20.8 14H18.2C18.1 14.4 17.9 14.8 17.7 15.2L19.6 17.1C20.1 17.6 20.1 18.2999 19.6 18.7999L18.9 19.5C18.4 20 17.7 20 17.2 19.5L15.3 17.6C14.9 17.8 14.5 18 14.1 18.1V20.7999C14.1 21.5 13.6 22 12.9 22H11.9C11.2 22 10.7 21.5 10.7 20.7999V18.1C10.3 18 9.90001 17.8 9.50001 17.6L7.60001 19.5C7.10001 20 6.40001 20 5.90001 19.5L5.20001 18.7999C4.70001 18.2999 4.70001 17.6 5.20001 17.1L7.10001 15.2C6.90001 14.8 6.70001 14.4 6.60001 14H3.90001C3.20001 14 2.70001 13.5 2.70001 12.8V11.8C2.70001 11.1 3.20001 10.6 3.90001 10.6H6.50001C6.60001 10.2 6.80001 9.79995 7.00001 9.39995L5.20001 7.59995C4.70001 7.09995 4.70001 6.39995 5.20001 5.89995L5.90001 5.19995C6.40001 4.69995 7.10001 4.69995 7.60001 5.19995L9.50001 7.09995C9.90001 6.89995 10.3 6.69995 10.7 6.59995V3.89995C10.7 3.19995 11.2 2.69995 11.9 2.69995H12.9C13.6 2.69995 14.1 3.19995 14.1 3.89995V6.59995C14.5 6.69995 14.9 6.89995 15.3 7.09995L17.2 5.19995C17.7 4.69995 18.4 4.69995 18.9 5.19995L19.6 5.89995C20.1 6.39995 20.1 7.09995 19.6 7.59995L17.7 9.49995C17.9 9.89995 18.1 10.3 18.2 10.7H20.8C21.4 10.7 22 11.2 22 11.8Z" fill="black"/>
<path fill-rule="evenodd" clip-rule="evenodd" d="M11.9 3.44995C11.6142 3.44995 11.45 3.61416 11.45 3.89995V7.18553L10.8819 7.32756C10.5767 7.40387 10.2526 7.56221 9.83542 7.77077L9.35192 8.01252L7.06968 5.73028C6.94672 5.60731 6.83263 5.57495 6.75001 5.57495C6.66739 5.57495 6.55331 5.60731 6.43034 5.73028L5.73034 6.43028C5.60738 6.55325 5.57501 6.66733 5.57501 6.74995C5.57501 6.83257 5.60738 6.94665 5.73034 7.06962L7.91258 9.25186L7.67083 9.73536C7.46227 10.1525 7.30393 10.4766 7.22762 10.7819L7.08559 11.35H3.90001C3.61423 11.35 3.45001 11.5142 3.45001 11.8V12.8C3.45001 13.0857 3.61423 13.25 3.90001 13.25H7.18559L7.32762 13.818C7.40393 14.1233 7.56227 14.4474 7.77083 14.8645L8.01258 15.348L5.73034 17.6303C5.60738 17.7532 5.57501 17.8673 5.57501 17.95C5.57501 18.0326 5.60738 18.1467 5.73034 18.2696L6.43034 18.9696C6.55331 19.0926 6.66739 19.125 6.75001 19.125C6.83263 19.125 6.94672 19.0926 7.06968 18.9696L9.35192 16.6874L9.83542 16.9291C10.2526 17.1377 10.5767 17.296 10.8819 17.3723L11.45 17.5144V20.7999C11.45 21.0857 11.6142 21.25 11.9 21.25H12.9C13.1858 21.25 13.35 21.0857 13.35 20.7999V17.5144L13.9181 17.3723C14.2234 17.296 14.5475 17.1377 14.9646 16.9291L15.4481 16.6874L17.7303 18.9696C17.8533 19.0926 17.9674 19.125 18.05 19.125C18.1326 19.125 18.2467 19.0926 18.3697 18.9696L19.0697 18.2696C19.1926 18.1467 19.225 18.0326 19.225 17.95C19.225 17.8673 19.1926 17.7532 19.0697 17.6303L16.7874 15.348L17.0292 14.8645C17.2378 14.4474 17.3961 14.1233 17.4724 13.818L17.6144 13.25H20.8C21.0858 13.25 21.25 13.0857 21.25 12.8V11.8C21.25 11.7576 21.2272 11.6749 21.1267 11.5855C21.025 11.4951 20.8984 11.45 20.8 11.45H17.6144L17.4724 10.8819C17.3961 10.5766 17.2378 10.2525 17.0292 9.83536L16.7874 9.35186L19.0697 7.06962C19.1926 6.94665 19.225 6.83257 19.225 6.74995C19.225 6.66733 19.1926 6.55325 19.0697 6.43028L18.3697 5.73028C18.2467 5.60731 18.1326 5.57495 18.05 5.57495C17.9674 5.57495 17.8533 5.60731 17.7303 5.73028L15.4481 8.01252L14.9646 7.77077C14.5475 7.56221 14.2234 7.40387 13.9181 7.32756L13.35 7.18553V3.89995C13.35 3.61417 13.1858 3.44995 12.9 3.44995H11.9ZM9.95001 3.89995C9.95001 2.78574 10.7858 1.94995 11.9 1.94995H12.9C14.0142 1.94995 14.85 2.78574 14.85 3.89995V6.06182C14.9518 6.10316 15.0513 6.14695 15.1478 6.19148L16.6697 4.66962C17.0467 4.29259 17.5326 4.07495 18.05 4.07495C18.5674 4.07495 19.0533 4.29259 19.4303 4.66962L20.1303 5.36962C20.5074 5.74665 20.725 6.23257 20.725 6.74995C20.725 7.26733 20.5074 7.75325 20.1303 8.13028L18.6085 9.65214C18.653 9.74864 18.6968 9.84817 18.7381 9.94995H20.8C21.3017 9.94995 21.775 10.1549 22.1233 10.4644C22.4728 10.7751 22.75 11.2423 22.75 11.8V12.8C22.75 13.9142 21.9142 14.75 20.8 14.75H18.7381C18.6968 14.8517 18.653 14.9513 18.6085 15.0478L20.1303 16.5696C20.5074 16.9467 20.725 17.4326 20.725 17.95C20.725 18.4673 20.5074 18.9532 20.1303 19.3303L19.4303 20.0303C19.0533 20.4073 18.5674 20.625 18.05 20.625C17.5326 20.625 17.0467 20.4073 16.6697 20.0303L15.1478 18.5084C15.0513 18.553 14.9518 18.5967 14.85 18.6381V20.7999C14.85 21.9142 14.0142 22.75 12.9 22.75H11.9C10.7858 22.75 9.95001 21.9142 9.95001 20.7999V18.6381C9.84823 18.5967 9.7487 18.553 9.6522 18.5084L8.13034 20.0303C7.75331 20.4073 7.26739 20.625 6.75001 20.625C6.23263 20.625 5.74672 20.4073 5.36968 20.0303L4.66968 19.3303C4.29265 18.9532 4.07501 18.4673 4.07501 17.95C4.07501 17.4326 4.29265 16.9467 4.66968 16.5696L6.19154 15.0478C6.14701 14.9513 6.10322 14.8517 6.06189 14.75H3.90001C2.7858 14.75 1.95001 13.9142 1.95001 12.8V11.8C1.95001 10.6857 2.7858 9.84995 3.90001 9.84995H5.96189C6.00322 9.74817 6.04701 9.64864 6.09154 9.55214L4.66968 8.13028C4.29265 7.75325 4.07501 7.26733 4.07501 6.74995C4.07501 6.23257 4.29265 5.74665 4.66968 5.36962L5.36968 4.66962C5.74672 4.29259 6.23263 4.07495 6.75001 4.07495C7.26739 4.07495 7.75331 4.29259 8.13034 4.66962L9.6522 6.19148C9.7487 6.14695 9.84823 6.10316 9.95001 6.06182V3.89995Z" fill="black"/>
<path d="M12.4 15.3C14.0016 15.3 15.3 14.0016 15.3 12.4C15.3 10.7984 14.0016 9.5 12.4 9.5C10.7984 9.5 9.5 10.7984 9.5 12.4C9.5 14.0016 10.7984 15.3 12.4 15.3Z" fill="white"/>
<path fill-rule="evenodd" clip-rule="evenodd" d="M12.4 10C11.0745 10 10 11.0745 10 12.4C10 13.7255 11.0745 14.8 12.4 14.8C13.7255 14.8 14.8 13.7255 14.8 12.4C14.8 11.0745 13.7255 10 12.4 10ZM9 12.4C9 10.5222 10.5222 9 12.4 9C14.2778 9 15.8 10.5222 15.8 12.4C15.8 14.2778 14.2778 15.8 12.4 15.8C10.5222 15.8 9 14.2778 9 12.4Z" fill="white"/>
</svg>
