<svg xmlns="http://www.w3.org/2000/svg" viewBox="0 0 24 24" fill="currentColor">
  <path d="M5.25 7.5c0-.69036.55964-1.25 1.25-1.25s1.25.55964 1.25 1.25-.55964 1.25-1.25 1.25-1.25-.55964-1.25-1.25ZM6.5 4.75c-1.51878 0-2.75 1.23122-2.75 2.75s1.23122 2.75 2.75 2.75S9.25 9.01878 9.25 7.5 8.01878 4.75 6.5 4.75Zm5 2c-.4142 0-.75.33579-.75.75s.3358.75.75.75h8c.4142 0 .75-.33579.75-.75s-.3358-.75-.75-.75h-8Zm6 8.5c-.6904 0-1.25.5596-1.25 1.25s.5596 1.25 1.25 1.25 1.25-.5596 1.25-1.25-.5596-1.25-1.25-1.25Zm-2.75 1.25c0-1.5188 1.2312-2.75 2.75-2.75s2.75 1.2312 2.75 2.75-1.2312 2.75-2.75 2.75-2.75-1.2312-2.75-2.75ZM4.5 15.75c-.41421 0-.75.3358-.75.75s.33579.75.75.75h8c.4142 0 .75-.3358.75-.75s-.3358-.75-.75-.75h-8Z"/>
</svg>
