<svg xmlns="http://www.w3.org/2000/svg" fill="none" viewBox="0 0 24 24">
  <path fill="#000" d="M16.8 8.8a2 2 0 1 0 0-4 2 2 0 0 0 0 4Z"/>
  <path fill="#000" fill-rule="evenodd" d="M16.8 5.55a1.25 1.25 0 1 0 0 2.5 1.25 1.25 0 0 0 0-2.5ZM14.05 6.8a2.75 2.75 0 1 1 5.5 0 2.75 2.75 0 0 1-5.5 0Zm2.75 4.25a.75.75 0 0 1 .75.75v8a.75.75 0 1 1-1.5 0v-8a.75.75 0 0 1 .75-.75Z" clip-rule="evenodd"/>
  <path fill="#000" d="M7.8 19.8a2 2 0 1 0 0-4 2 2 0 0 0 0 4Z"/>
  <path fill="#000" fill-rule="evenodd" d="M7.8 16.55a1.25 1.25 0 1 0 0 2.5 1.25 1.25 0 0 0 0-2.5ZM5.05 17.8a2.75 2.75 0 1 1 5.5 0 2.75 2.75 0 0 1-5.5 0ZM7.8 4.05a.75.75 0 0 1 .75.75v8a.75.75 0 1 1-1.5 0v-8a.75.75 0 0 1 .75-.75Z" clip-rule="evenodd"/>
</svg>
