<svg xmlns="http://www.w3.org/2000/svg" viewBox="0 0 24 24" fill="currentColor">
  <path d="M15.25 6.5c0-.69036.5596-1.25 1.25-1.25s1.25.55964 1.25 1.25-.5596 1.25-1.25 1.25-1.25-.55964-1.25-1.25Zm1.25-2.75c-1.5188 0-2.75 1.23122-2.75 2.75s1.2312 2.75 2.75 2.75 2.75-1.23122 2.75-2.75-1.2312-2.75-2.75-2.75Zm.75 7.75c0-.4142-.3358-.75-.75-.75s-.75.3358-.75.75v8c0 .4142.3358.75.75.75s.75-.3358.75-.75v-8ZM7.5 16.25c-.69036 0-1.25.5596-1.25 1.25s.55964 1.25 1.25 1.25 1.25-.5596 1.25-1.25-.55964-1.25-1.25-1.25ZM4.75 17.5c0-1.5188 1.23122-2.75 2.75-2.75s2.75 1.2312 2.75 2.75-1.23122 2.75-2.75 2.75-2.75-1.2312-2.75-2.75Zm3.5-13c0-.41421-.33579-.75-.75-.75s-.75.33579-.75.75v8c0 .4142.33579.75.75.75s.75-.3358.75-.75v-8Z"/>
</svg>
