<svg width="24" height="24" viewBox="0 0 24 24" fill="none" xmlns="http://www.w3.org/2000/svg">
<path d="M6.79999 9.80005C7.90456 9.80005 8.79999 8.90462 8.79999 7.80005C8.79999 6.69548 7.90456 5.80005 6.79999 5.80005C5.69542 5.80005 4.79999 6.69548 4.79999 7.80005C4.79999 8.90462 5.69542 9.80005 6.79999 9.80005Z" fill="black"/>
<path fill-rule="evenodd" clip-rule="evenodd" d="M6.79999 6.55005C6.10963 6.55005 5.54999 7.10969 5.54999 7.80005C5.54999 8.4904 6.10963 9.05005 6.79999 9.05005C7.49034 9.05005 8.04999 8.4904 8.04999 7.80005C8.04999 7.10969 7.49034 6.55005 6.79999 6.55005ZM4.04999 7.80005C4.04999 6.28127 5.2812 5.05005 6.79999 5.05005C8.31877 5.05005 9.54999 6.28127 9.54999 7.80005C9.54999 9.31883 8.31877 10.55 6.79999 10.55C5.2812 10.55 4.04999 9.31883 4.04999 7.80005Z" fill="black"/>
<path fill-rule="evenodd" clip-rule="evenodd" d="M11.05 7.80005C11.05 7.38584 11.3858 7.05005 11.8 7.05005H19.8C20.2142 7.05005 20.55 7.38584 20.55 7.80005C20.55 8.21426 20.2142 8.55005 19.8 8.55005H11.8C11.3858 8.55005 11.05 8.21426 11.05 7.80005Z" fill="black"/>
<path d="M17.8 18.8C18.9046 18.8 19.8 17.9046 19.8 16.8C19.8 15.6955 18.9046 14.8 17.8 14.8C16.6954 14.8 15.8 15.6955 15.8 16.8C15.8 17.9046 16.6954 18.8 17.8 18.8Z" fill="black"/>
<path fill-rule="evenodd" clip-rule="evenodd" d="M17.8 15.55C17.1096 15.55 16.55 16.1097 16.55 16.8C16.55 17.4904 17.1096 18.05 17.8 18.05C18.4903 18.05 19.05 17.4904 19.05 16.8C19.05 16.1097 18.4903 15.55 17.8 15.55ZM15.05 16.8C15.05 15.2813 16.2812 14.05 17.8 14.05C19.3188 14.05 20.55 15.2813 20.55 16.8C20.55 18.3188 19.3188 19.55 17.8 19.55C16.2812 19.55 15.05 18.3188 15.05 16.8Z" fill="black"/>
<path fill-rule="evenodd" clip-rule="evenodd" d="M4.04999 16.8C4.04999 16.3858 4.38577 16.05 4.79999 16.05H12.8C13.2142 16.05 13.55 16.3858 13.55 16.8C13.55 17.2143 13.2142 17.55 12.8 17.55H4.79999C4.38577 17.55 4.04999 17.2143 4.04999 16.8Z" fill="black"/>
</svg>
