<svg xmlns="http://www.w3.org/2000/svg" fill="none" viewBox="0 0 24 24">
  <path fill="#000" d="M6.8 9.8a2 2 0 1 0 0-4 2 2 0 0 0 0 4Z"/>
  <path fill="#000" fill-rule="evenodd" d="M6.8 6.55a1.25 1.25 0 1 0 0 2.5 1.25 1.25 0 0 0 0-2.5ZM4.05 7.8a2.75 2.75 0 1 1 5.5 0 2.75 2.75 0 0 1-5.5 0Zm7 0a.75.75 0 0 1 .75-.75h8a.75.75 0 0 1 0 1.5h-8a.75.75 0 0 1-.75-.75Z" clip-rule="evenodd"/>
  <path fill="#000" d="M17.8 18.8a2 2 0 1 0 0-4 2 2 0 0 0 0 4Z"/>
  <path fill="#000" fill-rule="evenodd" d="M17.8 15.55a1.25 1.25 0 1 0 0 2.5 1.25 1.25 0 0 0 0-2.5Zm-2.75 1.25a2.75 2.75 0 1 1 5.5 0 2.75 2.75 0 0 1-5.5 0Zm-11 0a.75.75 0 0 1 .75-.75h8a.75.75 0 0 1 0 1.5h-8a.75.75 0 0 1-.75-.75Z" clip-rule="evenodd"/>
</svg>
