<svg width="24" height="24" viewBox="0 0 24 24" fill="none" xmlns="http://www.w3.org/2000/svg">
<path d="M16.8 8.80005C17.9046 8.80005 18.8 7.90462 18.8 6.80005C18.8 5.69548 17.9046 4.80005 16.8 4.80005C15.6954 4.80005 14.8 5.69548 14.8 6.80005C14.8 7.90462 15.6954 8.80005 16.8 8.80005Z" fill="black"/>
<path fill-rule="evenodd" clip-rule="evenodd" d="M16.8 5.55005C16.1096 5.55005 15.55 6.10969 15.55 6.80005C15.55 7.4904 16.1096 8.05005 16.8 8.05005C17.4903 8.05005 18.05 7.4904 18.05 6.80005C18.05 6.10969 17.4903 5.55005 16.8 5.55005ZM14.05 6.80005C14.05 5.28127 15.2812 4.05005 16.8 4.05005C18.3188 4.05005 19.55 5.28127 19.55 6.80005C19.55 8.31883 18.3188 9.55005 16.8 9.55005C15.2812 9.55005 14.05 8.31883 14.05 6.80005Z" fill="black"/>
<path fill-rule="evenodd" clip-rule="evenodd" d="M16.8 11.05C17.2142 11.05 17.55 11.3858 17.55 11.8V19.8C17.55 20.2143 17.2142 20.55 16.8 20.55C16.3858 20.55 16.05 20.2143 16.05 19.8V11.8C16.05 11.3858 16.3858 11.05 16.8 11.05Z" fill="black"/>
<path d="M7.79999 19.8C8.90456 19.8 9.79999 18.9046 9.79999 17.8C9.79999 16.6955 8.90456 15.8 7.79999 15.8C6.69542 15.8 5.79999 16.6955 5.79999 17.8C5.79999 18.9046 6.69542 19.8 7.79999 19.8Z" fill="black"/>
<path fill-rule="evenodd" clip-rule="evenodd" d="M7.79999 16.55C7.10963 16.55 6.54999 17.1097 6.54999 17.8C6.54999 18.4904 7.10963 19.05 7.79999 19.05C8.49034 19.05 9.04999 18.4904 9.04999 17.8C9.04999 17.1097 8.49034 16.55 7.79999 16.55ZM5.04999 17.8C5.04999 16.2813 6.2812 15.05 7.79999 15.05C9.31877 15.05 10.55 16.2813 10.55 17.8C10.55 19.3188 9.31877 20.55 7.79999 20.55C6.2812 20.55 5.04999 19.3188 5.04999 17.8Z" fill="black"/>
<path fill-rule="evenodd" clip-rule="evenodd" d="M7.79999 4.05005C8.2142 4.05005 8.54999 4.38584 8.54999 4.80005V12.8C8.54999 13.2143 8.2142 13.55 7.79999 13.55C7.38577 13.55 7.04999 13.2143 7.04999 12.8V4.80005C7.04999 4.38584 7.38577 4.05005 7.79999 4.05005Z" fill="black"/>
</svg>
