<svg xmlns="http://www.w3.org/2000/svg" viewBox="0 0 24 24" fill="currentColor">
  <path d="M5 3.75c-.69036 0-1.25.55964-1.25 1.25S4.30964 6.25 5 6.25 6.25 5.69036 6.25 5 5.69036 3.75 5 3.75ZM2.25 5c0-1.51878 1.23122-2.75 2.75-2.75S7.75 3.48122 7.75 5 6.51878 7.75 5 7.75 2.25 6.51878 2.25 5ZM12 3.75c-.6904 0-1.25.55964-1.25 1.25s.5596 1.25 1.25 1.25 1.25-.55964 1.25-1.25-.5596-1.25-1.25-1.25ZM9.25 5c0-1.51878 1.2312-2.75 2.75-2.75S14.75 3.48122 14.75 5 13.5188 7.75 12 7.75 9.25 6.51878 9.25 5Zm8.5 0c0-.69036.5596-1.25 1.25-1.25s1.25.55964 1.25 1.25-.5596 1.25-1.25 1.25-1.25-.55964-1.25-1.25ZM19 2.25c-1.5188 0-2.75 1.23122-2.75 2.75S17.4812 7.75 19 7.75 21.75 6.51878 21.75 5 20.5188 2.25 19 2.25Zm-14 8.5c-.69036 0-1.25.5596-1.25 1.25s.55964 1.25 1.25 1.25 1.25-.5596 1.25-1.25-.55964-1.25-1.25-1.25ZM2.25 12c0-1.5188 1.23122-2.75 2.75-2.75S7.75 10.4812 7.75 12 6.51878 14.75 5 14.75 2.25 13.5188 2.25 12Zm8.5 0c0-.6904.5596-1.25 1.25-1.25s1.25.5596 1.25 1.25-.5596 1.25-1.25 1.25-1.25-.5596-1.25-1.25ZM12 9.25c-1.5188 0-2.75 1.2312-2.75 2.75s1.2312 2.75 2.75 2.75 2.75-1.2312 2.75-2.75S13.5188 9.25 12 9.25Zm7 1.5c-.6904 0-1.25.5596-1.25 1.25s.5596 1.25 1.25 1.25 1.25-.5596 1.25-1.25-.5596-1.25-1.25-1.25ZM16.25 12c0-1.5188 1.2312-2.75 2.75-2.75s2.75 1.2312 2.75 2.75-1.2312 2.75-2.75 2.75-2.75-1.2312-2.75-2.75Zm-5.5 7c0-.6904.5596-1.25 1.25-1.25s1.25.5596 1.25 1.25-.5596 1.25-1.25 1.25-1.25-.5596-1.25-1.25ZM12 16.25c-1.5188 0-2.75 1.2312-2.75 2.75s1.2312 2.75 2.75 2.75 2.75-1.2312 2.75-2.75-1.2312-2.75-2.75-2.75Z"/>
</svg>
