<svg xmlns="http://www.w3.org/2000/svg" viewBox="0 0 24 24" fill="currentColor">
  <path d="M4.25 7.5c0-1.78579 1.46421-3.25 3.25-3.25h9c1.7858 0 3.25 1.46421 3.25 3.25V12c0 4.1858-3.5642 7.75-7.75 7.75-4.28579 0-7.75-3.4642-7.75-7.75V7.5ZM7.5 2.75c-2.61421 0-4.75 2.13579-4.75 4.75V12c0 5.1142 4.13579 9.25 9.25 9.25 5.0142 0 9.25-4.2358 9.25-9.25V7.5c0-2.61421-2.1358-4.75-4.75-4.75h-9Zm8.0237 7.7868c.2965-.2892.3024-.76406.0131-1.06054-.2892-.29649-.7641-.30235-1.0605-.01309l-3.7197 3.62893L9.6 11.55c-.24853-.3314-.71863-.3985-1.05-.15-.33137.2485-.39853.7186-.15 1.05l1.53198 2.0426.03769.0377c.22253.2225.50653.2947.73033.2947.2224 0 .5041-.0712.726-.2903l4.0977-3.9979Z"/>
</svg>
