<svg xmlns="http://www.w3.org/2000/svg" viewBox="0 0 24 24" fill="currentColor">
  <path d="M4.25 7.5c0-1.78579 1.46421-3.25 3.25-3.25h9c1.7858 0 3.25 1.46421 3.25 3.25V12c0 .7747-.1221 1.5282-.3476 2.2417l-4.7612-4.76118c-1.411-1.52481-3.7961-1.48629-5.27152-.01087l.53033.53033-.53033-.53033-4.78706 4.78705C4.36629 13.5429 4.25 12.7852 4.25 12V7.5Zm.99858 8.3127C6.57788 18.1649 9.10098 19.75 12 19.75c2.8292 0 5.3744-1.6283 6.727-3.9762-.1054-.1649-.2178-.3039-.3573-.4435l-4.8-4.8c-.0077-.0077-.0152-.0155-.0226-.0235-.7904-.86235-2.1963-.897-3.1168.0235l-4.79996 4.8c-.15038.1504-.2692.3002-.38176.4824ZM7.5 2.75c-2.61421 0-4.75 2.13579-4.75 4.75V12c0 5.1142 4.13579 9.25 9.25 9.25 5.0142 0 9.25-4.2358 9.25-9.25V7.5c0-2.61421-2.1358-4.75-4.75-4.75h-9Z"/>
</svg>
