<svg width="24" height="24" viewBox="0 0 24 24" fill="none" xmlns="http://www.w3.org/2000/svg">
<path d="M12 20.5C7.3 20.5 3.5 16.7 3.5 12V7.5C3.5 5.3 5.3 3.5 7.5 3.5H16.5C18.7 3.5 20.5 5.3 20.5 7.5V12C20.5 16.6 16.6 20.5 12 20.5Z" fill="black"/>
<path fill-rule="evenodd" clip-rule="evenodd" d="M7.5 4.25C5.71421 4.25 4.25 5.71421 4.25 7.5V12C4.25 16.2858 7.71421 19.75 12 19.75C16.1858 19.75 19.75 16.1858 19.75 12V7.5C19.75 5.71421 18.2858 4.25 16.5 4.25H7.5ZM2.75 7.5C2.75 4.88579 4.88579 2.75 7.5 2.75H16.5C19.1142 2.75 21.25 4.88579 21.25 7.5V12C21.25 17.0142 17.0142 21.25 12 21.25C6.88579 21.25 2.75 17.1142 2.75 12V7.5Z" fill="black"/>
<path fill-rule="evenodd" clip-rule="evenodd" d="M9.56977 13.2697C9.86266 12.9768 10.3375 12.9768 10.6304 13.2697L12.0001 14.6394L13.3698 13.2697C13.6627 12.9768 14.1375 12.9768 14.4304 13.2697C14.7233 13.5626 14.7233 14.0375 14.4304 14.3303L13.0304 15.7303C12.7599 16.0009 12.4008 16.175 12.0001 16.175C11.5994 16.175 11.2403 16.0009 10.9698 15.7303L9.56977 14.3303C9.27687 14.0375 9.27687 13.5626 9.56977 13.2697Z" fill="white"/>
<path fill-rule="evenodd" clip-rule="evenodd" d="M11.9993 9.25994L13.3697 10.6303C13.6626 10.9232 14.1374 10.9232 14.4303 10.6303C14.7232 10.3374 14.7232 9.86257 14.4303 9.56968L13.0303 8.16968C12.7598 7.89916 12.4007 7.72501 12 7.72501C11.6045 7.72501 11.2495 7.89469 10.9802 8.15924L9.48826 9.55171C9.18545 9.83434 9.16909 10.3089 9.45171 10.6117C9.73434 10.9146 10.2089 10.9309 10.5117 10.6483L11.9993 9.25994Z" fill="white"/>
</svg>
