<svg xmlns="http://www.w3.org/2000/svg" viewBox="0 0 24 24" fill="currentColor">
  <path d="M7.5 4.25c-1.78579 0-3.25 1.46421-3.25 3.25V12c0 4.2858 3.46421 7.75 7.75 7.75 4.1858 0 7.75-3.5642 7.75-7.75V7.5c0-1.78579-1.4642-3.25-3.25-3.25h-9ZM2.75 7.5c0-2.61421 2.13579-4.75 4.75-4.75h9c2.6142 0 4.75 2.13579 4.75 4.75V12c0 5.0142-4.2358 9.25-9.25 9.25-5.11421 0-9.25-4.1358-9.25-9.25V7.5Zm11.8802 1.7696c.2929.29289.2929.7678 0 1.0607l-1.6196 1.6196 1.6196 1.6197c.2929.2929.2929.7678 0 1.0606-.2928.2929-.7677.2929-1.0606 0l-1.6197-1.6196-1.6196 1.6196c-.2929.2929-.76781.2929-1.0607 0-.2929-.2928-.2929-.7677 0-1.0606l1.6197-1.6197-1.6197-1.6196c-.2929-.2929-.2929-.76781 0-1.0607.29289-.2929.7678-.2929 1.0607 0l1.6196 1.6197 1.6197-1.6197c.2929-.2929.7678-.2929 1.0606 0Z"/>
</svg>
