<svg xmlns="http://www.w3.org/2000/svg" viewBox="0 0 24 24" fill="currentColor">
  <path d="M7.5 4.25c-1.78579 0-3.25 1.46421-3.25 3.25V12c0 4.2858 3.46421 7.75 7.75 7.75 4.1858 0 7.75-3.5642 7.75-7.75V7.5c0-1.78579-1.4642-3.25-3.25-3.25h-9ZM2.75 7.5c0-2.61421 2.13579-4.75 4.75-4.75h9c2.6142 0 4.75 2.13579 4.75 4.75V12c0 5.0142-4.2358 9.25-9.25 9.25-5.11421 0-9.25-4.1358-9.25-9.25V7.5Zm10.5353 2.0539c-.9944-.58924-2.3277-.45097-3.255.4764l-.0098.0098-.0102.0094c-.89196.8283-1.06018 2.155-.44198 3.2214l3.71698-3.717Zm1.0463 1.0751-3.7149 3.7149c1.0185.5955 2.3995.4441 3.2337-.4543l.0189-.0203.0203-.0189c.892-.8283 1.0602-2.155.442-3.2214Zm.6085-1.64958c-1.6052-1.71722-4.2818-1.68817-5.96068-.01956-1.71723 1.60524-1.68817 4.28184-.01954 5.96064 1.59202 1.7026 4.37392 1.706 5.97072.0102 1.707-1.6063 1.6748-4.2757.0095-5.95128Z"/>
</svg>
