<svg width="24" height="24" viewBox="0 0 24 24" fill="none" xmlns="http://www.w3.org/2000/svg">
<path fill-rule="evenodd" clip-rule="evenodd" d="M9.99998 9.14999C9.6341 9.14999 9.21668 9.34395 8.93031 9.63032C8.3232 10.2374 8.3232 11.1626 8.93031 11.7697L9.2303 12.0697L11.8303 14.6697C11.8753 14.7146 11.9092 14.7346 11.9274 14.7429C11.9365 14.747 11.9425 14.7487 11.9454 14.7493C11.9483 14.75 11.9496 14.75 11.95 14.75C11.9504 14.75 11.9517 14.75 11.9546 14.7493C11.9575 14.7487 11.9634 14.747 11.9725 14.7429C11.9907 14.7346 12.0247 14.7146 12.0696 14.6697L14.6696 12.0697L14.999 11.7403L15.0315 11.7143C15.3051 11.4955 15.45 11.1425 15.45 10.7C15.45 10.3449 15.2673 9.95432 14.9315 9.68565L14.899 9.6597L14.8696 9.63032C14.2625 9.02322 13.3374 9.02322 12.7303 9.63032L11.9 10.4607L11.0403 9.60095L11.0143 9.56852C10.7954 9.29491 10.4425 9.14999 9.99998 9.14999ZM7.86965 8.56966C8.38327 8.05604 9.16585 7.64999 9.99998 7.64999C10.6482 7.64999 11.3619 7.83675 11.9185 8.34575C13.1005 7.39056 14.7876 7.45555 15.901 8.54071C16.5462 9.07224 16.95 9.86897 16.95 10.7C16.95 11.4452 16.7031 12.2771 16.0035 12.8572L13.1303 15.7303C12.8185 16.0422 12.4112 16.25 11.95 16.25C11.4887 16.25 11.0815 16.0422 10.7696 15.7303L8.16965 13.1303L7.86965 12.8303C6.67675 11.6374 6.67675 9.76256 7.86965 8.56966Z" fill="black"/>
<path fill-rule="evenodd" clip-rule="evenodd" d="M7.5 4.25C5.71421 4.25 4.25 5.71421 4.25 7.5V12C4.25 16.2858 7.71421 19.75 12 19.75C16.1858 19.75 19.75 16.1858 19.75 12V7.5C19.75 5.71421 18.2858 4.25 16.5 4.25H7.5ZM2.75 7.5C2.75 4.88579 4.88579 2.75 7.5 2.75H16.5C19.1142 2.75 21.25 4.88579 21.25 7.5V12C21.25 17.0142 17.0142 21.25 12 21.25C6.88579 21.25 2.75 17.1142 2.75 12V7.5Z" fill="black"/>
</svg>
