<svg xmlns="http://www.w3.org/2000/svg" viewBox="0 0 24 24" fill="currentColor">
  <path d="M7.5 4.25c-1.78579 0-3.25 1.46421-3.25 3.25V12c0 4.2858 3.46421 7.75 7.75 7.75 4.1858 0 7.75-3.5642 7.75-7.75V7.5c0-1.78579-1.4642-3.25-3.25-3.25h-9ZM2.75 7.5c0-2.61421 2.13579-4.75 4.75-4.75h9c2.6142 0 4.75 2.13579 4.75 4.75V12c0 5.0142-4.2358 9.25-9.25 9.25-5.11421 0-9.25-4.1358-9.25-9.25V7.5Zm9.25.75c.4142 0 .75.33579.75.75v2.25H15c.4142 0 .75.3358.75.75s-.3358.75-.75.75h-2.25V15c0 .4142-.3358.75-.75.75s-.75-.3358-.75-.75v-2.25H9c-.41421 0-.75-.3358-.75-.75s.33579-.75.75-.75h2.25V9c0-.41421.3358-.75.75-.75Z"/>
</svg>
