<svg xmlns="http://www.w3.org/2000/svg" fill="none" viewBox="0 0 24 24">
  <path fill="#000" d="M12 20.5c-4.7 0-8.5-3.8-8.5-8.5V7.5c0-2.2 1.8-4 4-4h9c2.2 0 4 1.8 4 4V12c0 4.6-3.9 8.5-8.5 8.5Z"/>
  <path fill="#000" fill-rule="evenodd" d="M7.5 4.25A3.262 3.262 0 0 0 4.25 7.5V12A7.743 7.743 0 0 0 12 19.75c4.186 0 7.75-3.564 7.75-7.75V7.5a3.262 3.262 0 0 0-3.25-3.25h-9ZM2.75 7.5A4.762 4.762 0 0 1 7.5 2.75h9a4.762 4.762 0 0 1 4.75 4.75V12c0 5.014-4.236 9.25-9.25 9.25A9.243 9.243 0 0 1 2.75 12V7.5Z" clip-rule="evenodd"/>
  <path fill="#fff" fill-rule="evenodd" d="M9.57 13.27a.75.75 0 0 1 1.06 0L12 14.64l1.37-1.37a.75.75 0 1 1 1.06 1.06l-1.4 1.4c-.27.27-.63.445-1.03.445s-.76-.174-1.03-.445l-1.4-1.4a.75.75 0 0 1 0-1.06ZM12 9.26l1.37 1.37a.75.75 0 1 0 1.06-1.06l-1.4-1.4c-.27-.27-.63-.445-1.03-.445-.396 0-.75.17-1.02.434L9.488 9.552a.75.75 0 0 0 1.024 1.096l1.487-1.388Z" clip-rule="evenodd"/>
</svg>
