<svg xmlns="http://www.w3.org/2000/svg" fill="none" viewBox="0 0 24 24">
  <path fill="#000" d="M12 20.5c-4.7 0-8.5-3.8-8.5-8.5V7.5c0-2.2 1.8-4 4-4h9c2.2 0 4 1.8 4 4V12c0 4.6-3.9 8.5-8.5 8.5Z"/>
  <path fill="#000" fill-rule="evenodd" d="M7.5 4.25A3.262 3.262 0 0 0 4.25 7.5V12A7.743 7.743 0 0 0 12 19.75c4.186 0 7.75-3.564 7.75-7.75V7.5a3.262 3.262 0 0 0-3.25-3.25h-9ZM2.75 7.5A4.762 4.762 0 0 1 7.5 2.75h9a4.762 4.762 0 0 1 4.75 4.75V12c0 5.014-4.236 9.25-9.25 9.25A9.243 9.243 0 0 1 2.75 12V7.5Z" clip-rule="evenodd"/>
  <path fill="#fff" fill-rule="evenodd" d="M12 8.25a.75.75 0 0 1 .75.75v6a.75.75 0 0 1-1.5 0V9a.75.75 0 0 1 .75-.75Z" clip-rule="evenodd"/>
  <path fill="#fff" fill-rule="evenodd" d="M8.25 12a.75.75 0 0 1 .75-.75h6a.75.75 0 0 1 0 1.5H9a.75.75 0 0 1-.75-.75Z" clip-rule="evenodd"/>
</svg>
