<svg width="24" height="24" viewBox="0 0 24 24" fill="none" xmlns="http://www.w3.org/2000/svg">
<path fill-rule="evenodd" clip-rule="evenodd" d="M4.25 7.5C4.25 5.71421 5.71421 4.25 7.5 4.25H16.5C18.2858 4.25 19.75 5.71421 19.75 7.5V12C19.75 12.7747 19.6279 13.5282 19.4024 14.2417L14.6412 9.48052C13.2302 7.95571 10.8451 7.99423 9.36968 9.46965L9.90001 9.99998L9.36968 9.46965L4.58262 14.2567C4.36629 13.5429 4.25 12.7852 4.25 12V7.5ZM5.24858 15.8127C6.57788 18.1649 9.10098 19.75 12 19.75C14.8292 19.75 17.3744 18.1217 18.727 15.7738C18.6216 15.6089 18.5092 15.4699 18.3697 15.3303L13.5697 10.5303C13.562 10.5226 13.5545 10.5148 13.5471 10.5068C12.7567 9.64445 11.3508 9.6098 10.4303 10.5303L5.63034 15.3303C5.47996 15.4807 5.36114 15.6305 5.24858 15.8127ZM7.5 2.75C4.88579 2.75 2.75 4.88579 2.75 7.5V12C2.75 17.1142 6.88579 21.25 12 21.25C17.0142 21.25 21.25 17.0142 21.25 12V7.5C21.25 4.88579 19.1142 2.75 16.5 2.75H7.5Z" fill="black"/>
</svg>
