<svg width="24" height="24" viewBox="0 0 24 24" fill="none" xmlns="http://www.w3.org/2000/svg">
<path d="M12 20.5C7.3 20.5 3.5 16.7 3.5 12V7.5C3.5 5.3 5.3 3.5 7.5 3.5H16.5C18.7 3.5 20.5 5.3 20.5 7.5V12C20.5 16.6 16.6 20.5 12 20.5Z" fill="black"/>
<path fill-rule="evenodd" clip-rule="evenodd" d="M7.5 4.25C5.71421 4.25 4.25 5.71421 4.25 7.5V12C4.25 16.2858 7.71421 19.75 12 19.75C16.1858 19.75 19.75 16.1858 19.75 12V7.5C19.75 5.71421 18.2858 4.25 16.5 4.25H7.5ZM2.75 7.5C2.75 4.88579 4.88579 2.75 7.5 2.75H16.5C19.1142 2.75 21.25 4.88579 21.25 7.5V12C21.25 17.0142 17.0142 21.25 12 21.25C6.88579 21.25 2.75 17.1142 2.75 12V7.5Z" fill="black"/>
<path fill-rule="evenodd" clip-rule="evenodd" d="M13.8504 10.0104C12.8576 8.94123 11.1487 8.91191 10.0303 10.0303L10.0205 10.0402L10.0103 10.0496C8.94117 11.0424 8.91184 12.7512 10.0303 13.8697L10.0401 13.8795L10.0495 13.8897C11.0528 14.9701 12.8471 14.9701 13.8504 13.8897L13.8693 13.8693L13.8896 13.8504C14.9587 12.8577 14.9881 11.1488 13.8696 10.0303L13.8598 10.0205L13.8504 10.0104ZM14.9401 8.97948C13.3348 7.26226 10.6583 7.29131 8.97942 8.95992C7.26219 10.5651 7.29125 13.2417 8.95988 14.9206C10.5519 16.6231 13.3338 16.6265 14.9305 14.9307C16.6376 13.3244 16.6054 10.6551 14.9401 8.97948Z" fill="white"/>
<path fill-rule="evenodd" clip-rule="evenodd" d="M8.9696 13.8697L13.8696 8.9697L14.9303 10.0304L10.0303 14.9304L8.9696 13.8697Z" fill="white"/>
</svg>
