<svg xmlns="http://www.w3.org/2000/svg" viewBox="0 0 24 24" fill="currentColor">
  <path d="M7.5 4.25c-1.78579 0-3.25 1.46421-3.25 3.25V12c0 4.2858 3.46421 7.75 7.75 7.75 4.1858 0 7.75-3.5642 7.75-7.75V7.5c0-1.78579-1.4642-3.25-3.25-3.25h-9ZM2.75 7.5c0-2.61421 2.13579-4.75 4.75-4.75h9c2.6142 0 4.75 2.13579 4.75 4.75V12c0 5.0142-4.2358 9.25-9.25 9.25-5.11421 0-9.25-4.1358-9.25-9.25V7.5Zm6.81968 5.7697c.29289-.2929.76772-.2929 1.06062 0L12 14.6394l1.3697-1.3697c.2929-.2929.7678-.2929 1.0607 0 .2929.2929.2928.7678-.0001 1.0607l-1.4 1.4c-.2705.2705-.6296.4446-1.0303.4446-.4007 0-.7598-.1741-1.0303-.4446l-1.40002-1.4c-.2929-.2929-.2929-.7678 0-1.0607Zm3.70002-2.6393L11.9 9.26076l-1.3697 1.36964c-.2929.2929-.76775.2929-1.06064 0s-.29288-.76775.00002-1.06064l1.40002-1.39999v-.00001c.2705-.27051.6296-.44466 1.0303-.44466.4007 0 .7598.17415 1.0304.44467l1.3999 1.39999c.2929.29289.2929.76774 0 1.06064-.2928.2929-.7677.2929-1.0606 0Z"/>
</svg>
