<svg xmlns="http://www.w3.org/2000/svg" viewBox="0 0 24 24" fill="currentColor">
  <path d="M7.5 4.25c-1.78579 0-3.25 1.46421-3.25 3.25V12c0 4.2858 3.46421 7.75 7.75 7.75 4.1858 0 7.75-3.5642 7.75-7.75V7.5c0-1.78579-1.4642-3.25-3.25-3.25h-9ZM2.75 7.5c0-2.61421 2.13579-4.75 4.75-4.75h9c2.6142 0 4.75 2.13579 4.75 4.75V12c0 5.0142-4.2358 9.25-9.25 9.25-5.11421 0-9.25-4.1358-9.25-9.25V7.5Zm7.8804 2.06965c.2929.29289.2929.76775 0 1.06065L9.26076 12l1.36964 1.3697c.2929.2929.2929.7677 0 1.0606-.2929.2929-.76775.2929-1.06064 0l-1.39999-1.4h-.00001c-.27051-.2705-.44466-.6296-.44466-1.0303 0-.4007.17415-.7598.44467-1.0304l1.39999-1.39995c.29289-.2929.76774-.2929 1.06064 0Zm3.7-.09997c-.2928-.2929-.7677-.29291-1.0606-.00002-.2929.29289-.2929.76774 0 1.06064L14.6394 11.9l-1.3696 1.3697c-.2929.2929-.2929.7678 0 1.0606.2929.2929.7677.2929 1.0606 0l1.4-1.3999c.2705-.2706.4447-.6297.4447-1.0304 0-.4007-.1741-.7598-.4447-1.0303l-1.4-1.40002Z"/>
</svg>
