<svg width="24" height="24" viewBox="0 0 24 24" fill="none" xmlns="http://www.w3.org/2000/svg">
<path d="M16 6.67493C17.8 6.67493 19.2 8.07493 19.2 9.87493C19.2 10.7749 18.8 11.5749 18.3 12.1749C17.7 12.7749 16.9 13.0749 16 13.0749H8C6.2 13.0749 4.8 11.6749 4.8 9.87493C4.8 8.97493 5.2 8.17493 5.7 7.57493C6.3 6.97493 7.1 6.67493 8 6.67493" fill="black"/>
<path fill-rule="evenodd" clip-rule="evenodd" d="M6.25395 8.08198C6.69361 7.65492 7.28578 7.42493 8 7.42493C8.41422 7.42493 8.75 7.08914 8.75 6.67493C8.75 6.26071 8.41422 5.92493 8 5.92493C6.92709 5.92493 5.9277 6.28657 5.16967 7.0446L5.14562 7.06865L5.12384 7.09479C4.54767 7.78619 4.05 8.75026 4.05 9.87493C4.05 12.0891 5.78579 13.8249 8 13.8249H16C17.0729 13.8249 18.0723 13.4633 18.8303 12.7053L18.8544 12.6812L18.8762 12.6551C19.4523 11.9637 19.95 10.9996 19.95 9.87493C19.95 7.66071 18.2142 5.92493 16 5.92493C15.5858 5.92493 15.25 6.26071 15.25 6.67493C15.25 7.08914 15.5858 7.42493 16 7.42493C17.3858 7.42493 18.45 8.48914 18.45 9.87493C18.45 10.5384 18.1582 11.1638 17.7461 11.6679C17.3064 12.0949 16.7142 12.3249 16 12.3249H8C6.61422 12.3249 5.55 11.2607 5.55 9.87493C5.55 9.21146 5.84181 8.58601 6.25395 8.08198Z" fill="black"/>
<path d="M8 6.67493C8 4.47493 9.8 2.67493 12 2.67493C14.2 2.67493 16 4.47493 16 6.67493" fill="black"/>
<path fill-rule="evenodd" clip-rule="evenodd" d="M12 3.42493C10.2142 3.42493 8.75 4.88914 8.75 6.67493C8.75 7.08914 8.41421 7.42493 8 7.42493C7.58579 7.42493 7.25 7.08914 7.25 6.67493C7.25 4.06071 9.38579 1.92493 12 1.92493C14.6142 1.92493 16.75 4.06071 16.75 6.67493C16.75 7.08914 16.4142 7.42493 16 7.42493C15.5858 7.42493 15.25 7.08914 15.25 6.67493C15.25 4.88914 13.7858 3.42493 12 3.42493Z" fill="black"/>
<path d="M8 18.1749C7.8 18.1749 7.6 18.0749 7.5 17.9749C7.4 17.8749 7.3 17.6749 7.3 17.4749C7.3 17.3749 7.3 17.2749 7.4 17.1749C7.4 17.0749 7.5 16.9749 7.6 16.9749C7.9 16.6749 8.4 16.6749 8.7 16.9749C8.8 17.0749 8.9 17.2749 8.9 17.4749C8.9 17.6749 8.8 17.8749 8.7 17.9749C8.4 18.0749 8.2 18.1749 8 18.1749Z" fill="black"/>
<path d="M10.8 16.6749C10.6 16.6749 10.4 16.5749 10.3 16.4749C10.2 16.3749 10.1 16.1749 10.1 15.9749C10.1 15.8749 10.1 15.7749 10.2 15.6749C10.2 15.5749 10.3 15.4749 10.4 15.4749C10.7 15.1749 11.2 15.1749 11.5 15.4749C11.6 15.5749 11.7 15.7749 11.7 15.9749C11.7 16.1749 11.6 16.3749 11.5 16.4749C11.2 16.5749 11 16.6749 10.8 16.6749Z" fill="black"/>
<path d="M10.5 20.775C10.3 20.775 10.1 20.675 10 20.575C9.9 20.475 9.8 20.275 9.8 20.075C9.8 19.975 9.8 19.875 9.9 19.775C9.9 19.675 10 19.575 10.1 19.575C10.4 19.275 10.9 19.275 11.2 19.575C11.3 19.675 11.4 19.875 11.4 20.075C11.4 20.275 11.3 20.475 11.2 20.575C10.9 20.675 10.7 20.775 10.5 20.775Z" fill="black"/>
<path d="M6.8 22.0749C6.6 22.0749 6.4 21.9749 6.3 21.8749C6.1 21.7749 6 21.5749 6 21.3749C6 21.2749 6 21.1749 6.1 21.0749C6.1 20.9749 6.2 20.8749 6.3 20.8749C6.6 20.5749 7.1 20.5749 7.4 20.8749C7.5 20.9749 7.6 21.1749 7.6 21.3749C7.6 21.5749 7.5 21.7749 7.4 21.8749C7.2 21.9749 7 22.0749 6.8 22.0749Z" fill="black"/>
<path d="M13.7 19.5749C13.5 19.5749 13.3 19.4749 13.2 19.3749C13 19.1749 13 18.9749 13 18.7749C13 18.6749 13 18.5749 13.1 18.4749C13.1 18.3749 13.2 18.2749 13.3 18.2749C13.6 17.9749 14.1 17.9749 14.4 18.2749C14.5 18.3749 14.6 18.5749 14.6 18.7749C14.6 18.9749 14.5 19.1749 14.4 19.2749C14.1 19.4749 13.9 19.5749 13.7 19.5749Z" fill="black"/>
<path d="M16.8 17.475C16.6 17.475 16.4 17.375 16.3 17.275C16.2 17.175 16 16.875 16 16.675C16 16.575 16 16.475 16.1 16.375C16.1 16.275 16.2 16.175 16.3 16.175C16.6 15.875 17.1 15.875 17.4 16.175C17.5 16.275 17.6 16.475 17.6 16.675C17.6 16.875 17.5 17.075 17.4 17.175C17.3 17.275 17 17.475 16.8 17.475Z" fill="black"/>
<path d="M17.6 21.1749C17.4 21.1749 17.2 21.0749 17.1 20.9749C17 20.8749 16.9 20.6749 16.9 20.4749C16.9 20.3749 16.9 20.2749 17 20.1749C17 20.0749 17.1 19.9749 17.2 19.9749C17.5 19.6749 18 19.6749 18.3 19.9749C18.4 20.0749 18.5 20.2749 18.5 20.4749C18.5 20.6749 18.4 20.8749 18.3 20.9749C18.2 21.0749 17.8 21.1749 17.6 21.1749Z" fill="black"/>
</svg>
