<svg xmlns="http://www.w3.org/2000/svg" fill="none" viewBox="0 0 24 24">
  <path fill="#000" fill-rule="evenodd" d="M6.254 8.082c.44-.427 1.032-.657 1.746-.657a.75.75 0 0 0 0-1.5c-1.073 0-2.072.362-2.83 1.12l-.024.024-.022.026c-.576.691-1.074 1.655-1.074 2.78A3.909 3.909 0 0 0 8 13.825h8c1.073 0 2.072-.362 2.83-1.12l.024-.024.022-.026c.576-.691 1.074-1.655 1.074-2.78A3.909 3.909 0 0 0 16 5.925a.75.75 0 0 0 0 1.5c1.386 0 2.45 1.064 2.45 2.45 0 .663-.292 1.289-.704 1.793-.44.427-1.032.657-1.746.657H8c-1.386 0-2.45-1.064-2.45-2.45 0-.664.292-1.289.704-1.793Z" clip-rule="evenodd"/>
  <path fill="#000" fill-rule="evenodd" d="M12 3.425a3.262 3.262 0 0 0-3.25 3.25.75.75 0 0 1-1.5 0A4.762 4.762 0 0 1 12 1.925a4.762 4.762 0 0 1 4.75 4.75.75.75 0 0 1-1.5 0A3.262 3.262 0 0 0 12 3.425Z" clip-rule="evenodd"/>
  <path fill="#000" d="M8 18.175c-.2 0-.4-.1-.5-.2-.1-.1-.2-.3-.2-.5 0-.1 0-.2.1-.3 0-.1.1-.2.2-.2.3-.3.8-.3 1.1 0 .1.1.2.3.2.5s-.1.4-.2.5c-.3.1-.5.2-.7.2Zm2.8-1.5c-.2 0-.4-.1-.5-.2-.1-.1-.2-.3-.2-.5 0-.1 0-.2.1-.3 0-.1.1-.2.2-.2.3-.3.8-.3 1.1 0 .1.1.2.3.2.5s-.1.4-.2.5c-.3.1-.5.2-.7.2Zm-.3 4.1c-.2 0-.4-.1-.5-.2-.1-.1-.2-.3-.2-.5 0-.1 0-.2.1-.3 0-.1.1-.2.2-.2.3-.3.8-.3 1.1 0 .1.1.2.3.2.5s-.1.4-.2.5c-.3.1-.5.2-.7.2Zm-3.7 1.3c-.2 0-.4-.1-.5-.2-.2-.1-.3-.3-.3-.5 0-.1 0-.2.1-.3 0-.1.1-.2.2-.2.3-.3.8-.3 1.1 0 .1.1.2.3.2.5s-.1.4-.2.5c-.2.1-.4.2-.6.2Zm6.9-2.5c-.2 0-.4-.1-.5-.2-.2-.2-.2-.4-.2-.6 0-.1 0-.2.1-.3 0-.1.1-.2.2-.2.3-.3.8-.3 1.1 0 .1.1.2.3.2.5s-.1.4-.2.5c-.3.2-.5.3-.7.3Zm3.1-2.1c-.2 0-.4-.1-.5-.2-.1-.1-.3-.4-.3-.6 0-.1 0-.2.1-.3 0-.1.1-.2.2-.2.3-.3.8-.3 1.1 0 .1.1.2.3.2.5s-.1.4-.2.5c-.1.1-.4.3-.6.3Zm.8 3.7c-.2 0-.4-.1-.5-.2-.1-.1-.2-.3-.2-.5 0-.1 0-.2.1-.3 0-.1.1-.2.2-.2.3-.3.8-.3 1.1 0 .1.1.2.3.2.5s-.1.4-.2.5c-.1.1-.5.2-.7.2Z"/>
</svg>
