<svg xmlns="http://www.w3.org/2000/svg" viewBox="0 0 24 24" fill="currentColor">
  <path d="M9 3.75C7.21421 3.75 5.75 5.21421 5.75 7v10c0 1.7858 1.46421 3.25 3.25 3.25h6c1.7858 0 3.25-1.4642 3.25-3.25V7c0-1.78579-1.4642-3.25-3.25-3.25H9ZM4.25 7c0-2.61421 2.13579-4.75 4.75-4.75h6c2.6142 0 4.75 2.13579 4.75 4.75v10c0 2.6142-2.1358 4.75-4.75 4.75H9c-2.61421 0-4.75-2.1358-4.75-4.75V7ZM12 6.75c-.4142 0-.75.33579-.75.75s.3358.75.75.75.75-.33579.75-.75-.3358-.75-.75-.75Zm-2.25.75c0-1.24264 1.0074-2.25 2.25-2.25s2.25 1.00736 2.25 2.25S13.2426 9.75 12 9.75 9.75 8.74264 9.75 7.5Zm0 7.5c0-1.2426 1.0074-2.25 2.25-2.25s2.25 1.0074 2.25 2.25-1.0074 2.25-2.25 2.25S9.75 16.2426 9.75 15ZM12 11.25c-2.07107 0-3.75 1.6789-3.75 3.75s1.67893 3.75 3.75 3.75c2.0711 0 3.75-1.6789 3.75-3.75s-1.6789-3.75-3.75-3.75Z"/>
</svg>
