<svg xmlns="http://www.w3.org/2000/svg" fill="none" viewBox="0 0 24 24">
  <path fill="#000" fill-rule="evenodd" d="M2.25 11.25h19.5V17A4.762 4.762 0 0 1 17 21.75H7A4.762 4.762 0 0 1 2.25 17v-5.75Zm1.5 1.5V17A3.262 3.262 0 0 0 7 20.25h10A3.262 3.262 0 0 0 20.25 17v-4.25H3.75Z" clip-rule="evenodd"/>
  <path fill="#000" d="M21 12H3V7c0-2.2 1.8-4 4-4h10c2.2 0 4 1.8 4 4v5Z"/>
  <path fill="#000" fill-rule="evenodd" d="M7 3.75A3.262 3.262 0 0 0 3.75 7v4.25h16.5V7A3.262 3.262 0 0 0 17 3.75H7ZM2.25 7A4.762 4.762 0 0 1 7 2.25h10A4.762 4.762 0 0 1 21.75 7v5.75H2.25V7Z" clip-rule="evenodd"/>
</svg>
