<svg xmlns="http://www.w3.org/2000/svg" fill="none" viewBox="0 0 24 24">
  <path fill="#000" fill-rule="evenodd" d="M7 3.75A3.262 3.262 0 0 0 3.75 7v10c0 1.798 1.376 3.25 3.25 3.25h4.25V3.75H7ZM2.25 7A4.762 4.762 0 0 1 7 2.25h5.75v19.5H7c-2.726 0-4.75-2.148-4.75-4.75V7Z" clip-rule="evenodd"/>
  <path fill="#000" d="M12 21V3h5c2.2 0 4 1.8 4 4v10c0 2.2-1.8 4-4 4h-5Z"/>
  <path fill="#000" fill-rule="evenodd" d="M11.25 2.25H17A4.762 4.762 0 0 1 21.75 7v10A4.762 4.762 0 0 1 17 21.75h-5.75V2.25Zm1.5 1.5v16.5H17A3.262 3.262 0 0 0 20.25 17V7A3.262 3.262 0 0 0 17 3.75h-4.25Z" clip-rule="evenodd"/>
</svg>
