<svg width="24" height="24" viewBox="0 0 24 24" fill="none" xmlns="http://www.w3.org/2000/svg">
<path d="M8.95007 3V21H6.95007C4.75007 21 2.95007 19.2 2.95007 17V7C2.95007 4.8 4.75007 3 6.95007 3H8.95007Z" fill="black"/>
<path fill-rule="evenodd" clip-rule="evenodd" d="M6.95007 3.75C5.16429 3.75 3.70007 5.21421 3.70007 7V17C3.70007 18.7858 5.16429 20.25 6.95007 20.25H8.20007V3.75H6.95007ZM2.20007 7C2.20007 4.38579 4.33586 2.25 6.95007 2.25H9.70007V21.75H6.95007C4.33586 21.75 2.20007 19.6142 2.20007 17V7Z" fill="black"/>
<path fill-rule="evenodd" clip-rule="evenodd" d="M8.30005 2.25H17.05C19.6519 2.25 21.8 4.27354 21.8 7V12.75H8.30005V2.25ZM9.80005 3.75V11.25H20.3V7C20.3 5.12646 18.8482 3.75 17.05 3.75H9.80005Z" fill="black"/>
<path fill-rule="evenodd" clip-rule="evenodd" d="M8.30005 11.25H21.8V17C21.8 19.6142 19.6643 21.75 17.05 21.75H8.30005V11.25ZM9.80005 12.75V20.25H17.05C18.8358 20.25 20.3 18.7858 20.3 17V12.75H9.80005Z" fill="black"/>
</svg>
