<svg xmlns="http://www.w3.org/2000/svg" fill="none" viewBox="0 0 24 24">
  <path fill="#000" fill-rule="evenodd" d="M7 3.75C5.114 3.75 3.75 5.114 3.75 7v10A3.262 3.262 0 0 0 7 20.25h.25V3.75H7ZM2.25 7c0-2.714 2.036-4.75 4.75-4.75h1.75v19.5H7A4.762 4.762 0 0 1 2.25 17V7Z" clip-rule="evenodd"/>
  <path fill="#000" d="M8 3h9c2.2 0 4 1.8 4 4v10c0 2.2-1.8 4-4 4H8V3Z"/>
  <path fill="#000" fill-rule="evenodd" d="M7.25 2.25H17A4.762 4.762 0 0 1 21.75 7v10A4.762 4.762 0 0 1 17 21.75H7.25V2.25Zm1.5 1.5v16.5H17A3.262 3.262 0 0 0 20.25 17V7A3.262 3.262 0 0 0 17 3.75H8.75Z" clip-rule="evenodd"/>
</svg>
