<svg xmlns="http://www.w3.org/2000/svg" fill="none" viewBox="0 0 24 24">
  <path fill="#000" fill-rule="evenodd" d="M15.25 2.25H17c2.602 0 4.75 2.024 4.75 4.75v10A4.762 4.762 0 0 1 17 21.75h-1.75V2.25Zm1.5 1.5v16.5H17A3.262 3.262 0 0 0 20.25 17V7c0-1.874-1.452-3.25-3.25-3.25h-.25Z" clip-rule="evenodd"/>
  <path fill="#000" d="M16 3H8v18h8V3Z"/>
  <path fill="#000" fill-rule="evenodd" d="M7.25 2.25h9.5v19.5h-9.5V2.25Zm1.5 1.5v16.5h6.5V3.75h-6.5Z" clip-rule="evenodd"/>
  <path fill="#000" fill-rule="evenodd" d="M7 3.75A3.262 3.262 0 0 0 3.75 7v10A3.262 3.262 0 0 0 7 20.25h.25V3.75H7ZM2.25 7A4.762 4.762 0 0 1 7 2.25h1.75v19.5H7A4.762 4.762 0 0 1 2.25 17V7Z" clip-rule="evenodd"/>
</svg>
