<svg xmlns="http://www.w3.org/2000/svg" fill="none" viewBox="0 0 24 24">
  <path fill="#000" fill-rule="evenodd" d="M11.25 2.25H17c2.602 0 4.75 2.024 4.75 4.75v5.75h-10.5V2.25Zm1.5 1.5v7.5h7.5V7c0-1.874-1.452-3.25-3.25-3.25h-4.25Z" clip-rule="evenodd"/>
  <path fill="#000" d="M12 3v9H3V7c0-2.2 1.8-4 4-4h5Z"/>
  <path fill="#000" fill-rule="evenodd" d="M7 3.75A3.262 3.262 0 0 0 3.75 7v4.25h7.5v-7.5H7ZM2.25 7A4.762 4.762 0 0 1 7 2.25h5.75v10.5H2.25V7Z" clip-rule="evenodd"/>
  <path fill="#000" fill-rule="evenodd" d="M2.25 11.25h10.5v10.5H7A4.762 4.762 0 0 1 2.25 17v-5.75Zm1.5 1.5V17A3.262 3.262 0 0 0 7 20.25h4.25v-7.5h-7.5Z" clip-rule="evenodd"/>
  <path fill="#000" d="M21 12v5c0 2.2-1.8 4-4 4h-5v-9h9Z"/>
  <path fill="#000" fill-rule="evenodd" d="M11.25 11.25h10.5V17A4.762 4.762 0 0 1 17 21.75h-5.75v-10.5Zm1.5 1.5v7.5H17A3.262 3.262 0 0 0 20.25 17v-4.25h-7.5Z" clip-rule="evenodd"/>
</svg>
