<svg xmlns="http://www.w3.org/2000/svg" fill="none" viewBox="0 0 24 24">
  <path fill="#000" fill-rule="evenodd" d="M11.25 8.2h10.5v8.75A4.762 4.762 0 0 1 17 21.7h-5.75V8.2Zm1.5 1.5v10.5H17a3.262 3.262 0 0 0 3.25-3.25V9.7h-7.5Z" clip-rule="evenodd"/>
  <path fill="#000" fill-rule="evenodd" d="M2.25 8.2h10.5v13.5H7a4.762 4.762 0 0 1-4.75-4.75V8.2Zm1.5 1.5v7.25A3.262 3.262 0 0 0 7 20.2h4.25V9.7h-7.5Z" clip-rule="evenodd"/>
  <path fill="#000" d="M21 7.05v2H3v-2c0-2.2 1.8-4 4-4h10c2.2 0 4 1.7 4 4Z"/>
  <path fill="#000" fill-rule="evenodd" d="M7 3.8a3.262 3.262 0 0 0-3.25 3.25V8.3h16.5V7.05c0-1.874-1.452-3.25-3.25-3.25H7ZM2.25 7.05A4.762 4.762 0 0 1 7 2.3h10c2.602 0 4.75 2.024 4.75 4.75V9.8H2.25V7.05Z" clip-rule="evenodd"/>
</svg>
