<svg xmlns="http://www.w3.org/2000/svg" fill="none" viewBox="0 0 24 24">
  <path fill="#000" fill-rule="evenodd" d="M6.5 18.45h11v1.5h-11v-1.5Zm0-14.4h11v1.5h-11v-1.5ZM19.95 6.5v11h-1.5v-11h1.5Zm-14.4 0v11h-1.5v-11h1.5Z" clip-rule="evenodd"/>
  <path fill="#000" fill-rule="evenodd" d="M4.8 3.85a.95.95 0 1 0 0 1.9.95.95 0 0 0 0-1.9Zm-2.45.95a2.45 2.45 0 1 1 4.9 0 2.45 2.45 0 0 1-4.9 0ZM4.8 18.25a.95.95 0 1 0 0 1.9.95.95 0 0 0 0-1.9Zm-2.45.95a2.45 2.45 0 1 1 4.9 0 2.45 2.45 0 0 1-4.9 0Zm16.85-.95a.95.95 0 1 0 0 1.9.95.95 0 0 0 0-1.9Zm-2.45.95a2.45 2.45 0 1 1 4.9 0 2.45 2.45 0 0 1-4.9 0ZM19.2 3.85a.95.95 0 1 0 0 1.9.95.95 0 0 0 0-1.9Zm-2.45.95a2.45 2.45 0 1 1 4.9 0 2.45 2.45 0 0 1-4.9 0Z" clip-rule="evenodd"/>
</svg>
