<svg width="24" height="24" viewBox="0 0 24 24" fill="none" xmlns="http://www.w3.org/2000/svg">
<path fill-rule="evenodd" clip-rule="evenodd" d="M3.75 7C3.75 5.21421 5.21421 3.75 7 3.75H17C18.7981 3.75 20.25 5.12646 20.25 7V7.25H3.75V7ZM3.75 8.75V17C3.75 18.7858 5.21421 20.25 7 20.25H17C18.7858 20.25 20.25 18.7858 20.25 17V8.75H3.75ZM7 2.25C4.38579 2.25 2.25 4.38579 2.25 7V17C2.25 19.6142 4.38579 21.75 7 21.75H17C19.6142 21.75 21.75 19.6142 21.75 17V7C21.75 4.27354 19.6019 2.25 17 2.25H7Z" fill="black"/>
</svg>
