<svg xmlns="http://www.w3.org/2000/svg" fill="none" viewBox="0 0 24 24">
  <path fill="#000" d="M8.95 3v18h-2c-2.2 0-4-1.8-4-4V7c0-2.2 1.8-4 4-4h2Z"/>
  <path fill="#000" fill-rule="evenodd" d="M6.95 3.75A3.262 3.262 0 0 0 3.7 7v10a3.262 3.262 0 0 0 3.25 3.25H8.2V3.75H6.95ZM2.2 7a4.762 4.762 0 0 1 4.75-4.75H9.7v19.5H6.95A4.762 4.762 0 0 1 2.2 17V7Z" clip-rule="evenodd"/>
  <path fill="#000" fill-rule="evenodd" d="M8.3 2.25h8.75c2.602 0 4.75 2.024 4.75 4.75v5.75H8.3V2.25Zm1.5 1.5v7.5h10.5V7c0-1.874-1.452-3.25-3.25-3.25H9.8Z" clip-rule="evenodd"/>
  <path fill="#000" fill-rule="evenodd" d="M8.3 11.25h13.5V17a4.762 4.762 0 0 1-4.75 4.75H8.3v-10.5Zm1.5 1.5v7.5h7.25A3.262 3.262 0 0 0 20.3 17v-4.25H9.8Z" clip-rule="evenodd"/>
</svg>
