<svg width="24" height="24" viewBox="0 0 24 24" fill="none" xmlns="http://www.w3.org/2000/svg">
<path d="M21 7V8H3V7C3 4.8 4.8 3 7 3H17C19.2 3 21 4.7 21 7Z" fill="black"/>
<path fill-rule="evenodd" clip-rule="evenodd" d="M7 3.75C5.21421 3.75 3.75 5.21421 3.75 7V7.25H20.25V7C20.25 5.12646 18.7981 3.75 17 3.75H7ZM2.25 7C2.25 4.38579 4.38579 2.25 7 2.25H17C19.6019 2.25 21.75 4.27354 21.75 7V8.75H2.25V7Z" fill="black"/>
<path fill-rule="evenodd" clip-rule="evenodd" d="M2.25 7.25H21.75V17C21.75 19.6142 19.6142 21.75 17 21.75H7C4.38579 21.75 2.25 19.6142 2.25 17V7.25ZM3.75 8.75V17C3.75 18.7858 5.21421 20.25 7 20.25H17C18.7858 20.25 20.25 18.7858 20.25 17V8.75H3.75Z" fill="black"/>
</svg>
