<svg xmlns="http://www.w3.org/2000/svg" fill="none" viewBox="0 0 24 24">
  <path fill="#000" fill-rule="evenodd" d="M9 3.75C6.114 3.75 3.75 6.114 3.75 9v6c0 2.886 2.364 5.25 5.25 5.25h6c2.886 0 5.25-2.364 5.25-5.25V9c0-2.886-2.364-5.25-5.25-5.25H9ZM2.25 9c0-3.714 3.036-6.75 6.75-6.75h6c3.714 0 6.75 3.036 6.75 6.75v6c0 3.714-3.036 6.75-6.75 6.75H9c-3.714 0-6.75-3.036-6.75-6.75V9Z" clip-rule="evenodd"/>
  <path fill="#000" fill-rule="evenodd" d="m5.23 4.17 4.7 4.7-1.06 1.06-4.7-4.7 1.06-1.06Zm9.8 9.8 4.7 4.7-1.06 1.06-4.7-4.7 1.06-1.06Z" clip-rule="evenodd"/>
  <path fill="#000" d="M12 15.6a3.6 3.6 0 1 0 0-7.2 3.6 3.6 0 0 0 0 7.2Z"/>
  <path fill="#000" fill-rule="evenodd" d="M12 9.15a2.85 2.85 0 1 0 0 5.7 2.85 2.85 0 0 0 0-5.7ZM7.65 12a4.35 4.35 0 1 1 8.7 0 4.35 4.35 0 0 1-8.7 0Z" clip-rule="evenodd"/>
</svg>
