<svg width="24" height="24" viewBox="0 0 24 24" fill="none" xmlns="http://www.w3.org/2000/svg">
<path fill-rule="evenodd" clip-rule="evenodd" d="M9 3.75C6.11421 3.75 3.75 6.11421 3.75 9V11.25H11.25V3.75H9ZM2.25 9C2.25 5.28579 5.28579 2.25 9 2.25H12.75V12.75H2.25V9Z" fill="black"/>
<path d="M21 9V12H12V3H15C18.3 3 21 5.6 21 9Z" fill="black"/>
<path fill-rule="evenodd" clip-rule="evenodd" d="M11.25 2.25H15C18.706 2.25 21.75 5.17764 21.75 9V12.75H11.25V2.25ZM12.75 3.75V11.25H20.25V9C20.25 6.02236 17.894 3.75 15 3.75H12.75Z" fill="black"/>
<path fill-rule="evenodd" clip-rule="evenodd" d="M11.25 11.25H21.75V15C21.75 18.7142 18.7142 21.75 15 21.75H11.25V11.25ZM12.75 12.75V20.25H15C17.8858 20.25 20.25 17.8858 20.25 15V12.75H12.75Z" fill="black"/>
<path d="M12 12V21H9C5.7 21 3 18.3 3 15V12H12Z" fill="black"/>
<path fill-rule="evenodd" clip-rule="evenodd" d="M2.25 11.25H12.75V21.75H9C5.28579 21.75 2.25 18.7142 2.25 15V11.25ZM3.75 12.75V15C3.75 17.8858 6.11421 20.25 9 20.25H11.25V12.75H3.75Z" fill="black"/>
</svg>
