<svg xmlns="http://www.w3.org/2000/svg" viewBox="0 0 24 24" fill="currentColor">
  <path d="M3.75 9c0-2.98579 2.26421-5.25 5.25-5.25h6c2.8858 0 5.25 2.36421 5.25 5.25v6c0 2.8858-2.3642 5.25-5.25 5.25H9c-2.88579 0-5.25-2.3642-5.25-5.25V9ZM9 2.25C5.18579 2.25 2.25 5.18579 2.25 9v6c0 3.7142 3.03579 6.75 6.75 6.75h6c3.7142 0 6.75-3.0358 6.75-6.75V9c0-3.71421-3.0358-6.75-6.75-6.75H9ZM8.75 12c0-1.7949 1.4551-3.25 3.25-3.25s3.25 1.4551 3.25 3.25-1.4551 3.25-3.25 3.25S8.75 13.7949 8.75 12ZM12 7.25c-2.62335 0-4.75 2.12665-4.75 4.75 0 2.6234 2.12665 4.75 4.75 4.75 2.6234 0 4.75-2.1266 4.75-4.75 0-2.62335-2.1266-4.75-4.75-4.75Z"/>
</svg>
