<svg xmlns="http://www.w3.org/2000/svg" viewBox="0 0 24 24" fill="currentColor">
  <path d="m6.48593 7.56023 4.48877-3.19204c.6434-.42435 1.4072-.42435 2.0506 0l4.4893 3.19242c.9805.70088.9799 2.17807-.0005 2.87899l-.9.64-2.7386-1.94744-.0095-.00627c-1.1519-.76795-2.5801-.76795-3.732 0l-.0094.00627-2.73866 1.94744-.9006-.6404c-.9805-.70094-.97999-2.1781.00059-2.87897Zm-.39416 4.43967-.47641-.3388-.00129-.0009c-1.81876-1.2991-1.81876-4.02146 0-5.32057l.00129-.00092 4.50924-3.20655.0094-.00627c1.1519-.76795 2.5801-.76795 3.732 0l.0095.00627 4.5105 3.20747c1.8187 1.29911 1.8187 4.02147 0 5.32057l-.0013.0009-.4764.3388.4777.3397c1.8187 1.2991 1.8187 4.0215 0 5.3206l-.0013.0009-4.5092 3.2066-.0095.0063c-1.1519.7679-2.5801.7679-3.732 0l-.0094-.0063-4.50924-3.2066-.00129-.0009c-1.81876-1.2991-1.81876-4.0215 0-5.3206l.00129-.0009.47641-.3388Zm10.52233.9203.9005.6404c.9805.7009.9799 2.1781-.0005 2.879l-4.4888 3.1921c-.6434.4243-1.4072.4243-2.0506 0l-4.48936-3.1925c-.9805-.7009-.97999-2.1781.00059-2.879l.90001-.64 2.73866 1.9475.0094.0063c1.1519.7679 2.5801.7679 3.732 0l.0095-.0063 2.7386-1.9475Zm-1.2942-.9203-2.2946 1.6318c-.6434.4243-1.4072.4243-2.0506 0l-2.2946-1.6318 2.2946-1.6317c.6434-.42436 1.4072-.42436 2.0506 0l2.2946 1.6317Z"/>
</svg>
