<svg xmlns="http://www.w3.org/2000/svg" viewBox="0 0 24 24" fill="currentColor">
  <path d="M12.9 3.95002c-.5333-.4-1.2667-.4-1.8 0l-.0541.04058-6.00796 3.00397c-.81727.60557-.81727 1.90534 0 2.5109l6.00796 3.00393.0541.0406c.5333.4 1.2667.4 1.8 0l.0541-.0406 6.008-3.00393c.8172-.60556.8172-1.90533 0-2.5109l-6.008-3.00397-.0541-.04058Zm.8416-1.24274c-1.0417-.74301-2.4415-.74301-3.4832 0L4.2669 5.70304l-.04382.03034c-1.73079 1.19824-1.73079 3.83505 0 5.03332l.04382.0303 5.9915 2.9958c1.0417.743 2.4415.743 3.4832 0l5.9915-2.9958.0438-.0303c1.7308-1.19827 1.7308-3.83508 0-5.03332l-.0438-.03034-5.9915-2.99576ZM3.97912 13.5146c.18525-.3705.63575-.5206 1.00623-.3354l6.06045 3.0302.0541.0406c.5334.4 1.2667.4 1.8001 0l.0541-.0406 6.0604-3.0302c.3705-.1852.821-.0351 1.0063.3354.1852.3705.0351.821-.3354 1.0062l-5.9439 2.972c-1.0417.743-2.4414.743-3.4831 0l-5.94387-2.972c-.37048-.1852-.52065-.6357-.33541-1.0062Zm1.00623 3.4646c-.37048-.1852-.82098-.035-1.00623.3355-.18524.3704-.03507.8209.33541 1.0062l5.94387 2.9719c1.0417.743 2.4414.743 3.4831 0l5.9439-2.9719c.3705-.1853.5206-.6358.3354-1.0062-.1853-.3705-.6358-.5207-1.0063-.3355l-6.0604 3.0303-.0541.0406c-.5334.4-1.2667.4-1.8001 0l-.0541-.0406-6.06045-3.0303Z"/>
</svg>
