<svg width="24" height="24" viewBox="0 0 24 24" fill="none" xmlns="http://www.w3.org/2000/svg">
<path d="M11.9 17.7L7.7 19.9C7.2 20.1 6.7 19.7 6.8 19.2L7.6 14.5C7.6 14.3 7.6 14.1 7.4 13.9L3.9 10.6C3.5 10.2 3.7 9.59998 4.3 9.49998L9.1 8.79998C9.3 8.79998 9.5 8.59998 9.6 8.39998L11.7 4.09998C11.9 3.59998 12.6 3.59998 12.9 4.09998L15 8.39998C15.1 8.59998 15.3 8.69998 15.5 8.79998L20.3 9.49998C20.8 9.59998 21 10.2 20.7 10.6L17.3 14C17.1 14.1 17.1 14.4 17.1 14.6L17.9 19.3C18 19.8 17.4 20.2 17 20L12.8 17.8C12.4 17.6 12.1 17.6 11.9 17.7Z" fill="black"/>
<path fill-rule="evenodd" clip-rule="evenodd" d="M12.3 4.58047L10.2708 8.7354C10.1803 8.91658 10.0457 9.09863 9.87559 9.24442C9.7251 9.37341 9.48262 9.52721 9.17011 9.54768L4.5862 10.2162L7.92253 13.3618L7.93033 13.3696C8.35123 13.7905 8.3504 14.2613 8.35002 14.4814C8.35001 14.4878 8.35 14.494 8.35 14.5V14.5633L7.57456 19.119L11.5583 17.0323L11.5646 17.0292C12.0519 16.7855 12.6142 16.8686 13.1354 17.1292L13.1417 17.1323L17.1254 19.219L16.35 14.6633V14.6C16.35 14.5953 16.35 14.5904 16.35 14.585C16.3498 14.4922 16.3495 14.2951 16.3929 14.0998C16.4326 13.921 16.5375 13.6159 16.8295 13.4098L20.022 10.2174L15.2724 9.52472L15.1646 9.4708C15.1549 9.46597 15.144 9.46064 15.1321 9.45478C14.9561 9.36868 14.5453 9.16764 14.3292 8.73539L14.326 8.72912L12.3 4.58047ZM4.38827 10.2496C4.3879 10.2498 4.38827 10.2496 4.38827 10.2496V10.2496ZM12.2625 2.97498C12.761 2.97498 13.2563 3.2361 13.5431 3.7141L13.5597 3.74181L15.6547 8.03155C15.6667 8.03967 15.6848 8.0508 15.7122 8.0658C15.7181 8.06907 15.7242 8.07233 15.7304 8.07564L20.4277 8.76067L20.4471 8.76454C21.535 8.98212 21.902 10.2473 21.3 11.05L21.268 11.0926L17.8507 14.5099C17.8505 14.5188 17.8503 14.5281 17.8502 14.538L18.6379 19.1655C18.7522 19.7655 18.4381 20.2554 18.081 20.5173C17.7358 20.7705 17.1844 20.9307 16.6646 20.6708L16.6583 20.6676L12.4589 18.4679C12.3179 18.3982 12.2398 18.386 12.2092 18.3847L8.01409 20.5821L7.97854 20.5963C6.98387 20.9942 5.84458 20.1996 6.06216 19.0652L6.84972 14.4382C6.84971 14.4377 6.84971 14.4372 6.8497 14.4367C6.84954 14.4268 6.84932 14.4185 6.84905 14.4113L3.37746 11.1381L3.36967 11.1303C2.9813 10.7419 2.83938 10.1933 3.01775 9.68786C3.19476 9.18634 3.64197 8.8493 4.1767 8.76018L4.18422 8.75893L8.92784 8.06715C8.92802 8.06681 8.92819 8.06648 8.92836 8.06616L11.0161 3.79126C11.2492 3.24448 11.7637 2.97498 12.2625 2.97498Z" fill="black"/>
</svg>
