<svg width="24" height="24" viewBox="0 0 24 24" fill="none" xmlns="http://www.w3.org/2000/svg">
<path d="M12.3 3.80005V17.7C12.2 17.7 12.1 17.7 12 17.8L7.7 20C7.2 20.3 6.7 19.9 6.8 19.3L7.6 14.6C7.6 14.4 7.6 14.2 7.4 14L4 10.6C3.6 10.2 3.8 9.60005 4.4 9.50005L9.2 8.80005C9.4 8.80005 9.6 8.60005 9.7 8.40005L11.8 4.10005C11.8 3.90005 12 3.80005 12.3 3.80005Z" fill="black"/>
<path fill-rule="evenodd" clip-rule="evenodd" d="M11.0741 3.87745L9.02838 8.06622C9.0282 8.06654 9.02803 8.06688 9.02784 8.06722L4.28423 8.759L4.2767 8.76025C3.74198 8.84937 3.29477 9.18641 3.11776 9.68793C2.93939 10.1933 3.0813 10.742 3.46967 11.1304L6.84899 14.5097C6.84929 14.5172 6.84954 14.5261 6.8497 14.5368C6.84971 14.5373 6.84972 14.5378 6.84973 14.5383L6.06064 19.1742L6.06021 19.1767C5.97227 19.7044 6.13912 20.2453 6.56164 20.5773C6.99462 20.9175 7.57251 20.9385 8.06049 20.6581L12.3762 18.45H13.05V3.05005H12.3C12.0851 3.05005 11.8121 3.0829 11.5654 3.22387C11.3332 3.35653 11.1398 3.58175 11.0741 3.87745ZM11.55 6.32102L10.3709 8.73547C10.2803 8.91665 10.1457 9.09871 9.9756 9.24449C9.8251 9.37348 9.58263 9.52728 9.27011 9.54776L4.67805 10.2174L7.93033 13.4697C8.35123 13.8906 8.35041 14.3614 8.35003 14.5814C8.35001 14.5879 8.35 14.5941 8.35 14.6V14.6634L7.57407 19.222L11.55 17.1878V6.32102ZM7.53736 19.4621C7.53732 19.4621 7.53718 19.4615 7.53704 19.4602L7.53736 19.4621ZM4.48828 10.2497C4.48792 10.2499 4.48828 10.2497 4.48828 10.2497V10.2497Z" fill="black"/>
<path fill-rule="evenodd" clip-rule="evenodd" d="M11.45 3.05005H12.2C12.5552 3.05005 13.224 3.21967 13.4873 3.89586L15.6531 8.03051C15.6651 8.03872 15.6835 8.05017 15.7122 8.06588C15.7181 8.06914 15.7242 8.07241 15.7304 8.07572L20.4277 8.76075L20.4471 8.76461C20.9477 8.86474 21.3499 9.21211 21.531 9.65199C21.724 10.1206 21.6621 10.6986 21.2303 11.1304L21.2188 11.1419L17.6509 14.4125C17.6506 14.4194 17.6504 14.4274 17.6503 14.4368C17.6503 14.4373 17.6503 14.4378 17.6503 14.4383L18.4379 19.0656C18.5522 19.6655 18.2381 20.1555 17.881 20.4174C17.5358 20.6705 16.9844 20.8308 16.4646 20.5709L16.4584 20.5678L12.2538 18.4165C12.2178 18.4067 12.1868 18.3961 12.1617 18.3867C12.1298 18.3747 12.0996 18.3616 12.0747 18.35H11.45V3.05005ZM12.95 6.10277V17.0878L16.9259 19.122L16.15 14.5634V14.5C16.15 14.4941 16.15 14.4879 16.15 14.4814C16.1496 14.2614 16.1488 13.7906 16.5697 13.3697L16.5812 13.3582L20.0095 10.2156L15.2724 9.5248L15.1646 9.47087C15.1549 9.46604 15.144 9.46071 15.1321 9.45486C14.9572 9.36927 14.5502 9.17011 14.3331 8.74317L12.95 6.10277Z" fill="black"/>
</svg>
