<svg width="60" height="60" fill="none" xmlns="http://www.w3.org/2000/svg"><path d="M43.5 55h-27c-3.05 0-5.9751-1.2116-8.13173-3.3683C6.2116 49.4751 5 46.55 5 43.5v-27c0-3.05 1.2116-5.9751 3.36827-8.13173C10.5249 6.2116 13.45 5 16.5 5h27c1.5102 0 3.0056.29746 4.4009.87539 1.3952.57792 2.663 1.42501 3.7308 2.49288 1.0679 1.06788 1.915 2.33563 2.4929 3.73083C54.7025 13.4944 55 14.9898 55 16.5v27c0 1.5102-.2975 3.0056-.8754 4.4009-.5779 1.3952-1.425 2.663-2.4929 3.7308-1.0678 1.0679-2.3356 1.915-3.7308 2.4929C46.5056 54.7025 45.0102 55 43.5 55zm-27-45c-1.7219.0066-3.3714.6935-4.5889 1.9111C10.6935 13.1286 10.0066 14.7781 10 16.5v27c.0066 1.7219.6935 3.3714 1.9111 4.5889C13.1286 49.3065 14.7781 49.9934 16.5 50h27c1.7219-.0066 3.3714-.6935 4.5889-1.9111C49.3065 46.8714 49.9934 45.2219 50 43.5v-27c-.0066-1.7219-.6935-3.3714-1.9111-4.5889C46.8714 10.6935 45.2219 10.0066 43.5 10h-27z" fill="#000"/><path d="M36.1751 55c-.6631 0-1.299-.2634-1.7678-.7323-.4689-.4688-.7322-1.1047-.7322-1.7677v-8.3c-.0192-1.0098.1658-2.013.5439-2.9495.378-.9365.9413-1.787 1.6561-2.5005.7013-.7222 1.5408-1.2959 2.4686-1.6867.9277-.3909 1.9246-.5909 2.9314-.5883h11.225c.663 0 1.2989.2634 1.7677.7322.4689.4688.7323 1.1047.7323 1.7678 0 .663-.2634 1.2989-.7323 1.7677-.4688.4689-1.1047.7323-1.7677.7323h-11.325c-.3452-.0056-.6878.0604-1.0062.1938s-.6057.3313-.8438.5812c-.2486.2432-.4437.5355-.5728.8584-.1291.3228-.1895.6691-.1772 1.0166v8.325c0 .663-.2634 1.2989-.7323 1.7677-.4688.4689-1.1047.7323-1.7677.7323l.1.05z" fill="#000"/></svg>