<svg xmlns="http://www.w3.org/2000/svg" viewBox="0 0 24 24" fill="currentColor">
  <path d="M3.75 9c0-2.88579 2.36421-5.25 5.25-5.25h6c2.8858 0 5.25 2.36421 5.25 5.25v4.3858c-.4532-.1005-.913-.1358-1.3501-.1358-3.7143 0-6.75 3.0358-6.75 6.75l-.0001.0383c-.0001.0606-.0002.1323.0012.2117H9c-2.97764 0-5.25-2.356-5.25-5.25V9Zm9.9022 11.25H15c2.8858 0 5.25-2.3642 5.25-5.25v-.0596c-.3936-.1336-.8509-.1904-1.3501-.1904-2.8858 0-5.25 2.3642-5.25 5.25 0 .0883.0005.1719.0023.25ZM9 2.25C5.28579 2.25 2.25 5.28579 2.25 9v6c0 3.706 2.92764 6.75 6.75 6.75h6c3.7142 0 6.75-3.0358 6.75-6.75V9c0-3.71421-3.0358-6.75-6.75-6.75H9Z"/>
</svg>
