<svg xmlns="http://www.w3.org/2000/svg" fill="none" viewBox="0 0 24 24">
  <path fill="#000" d="M8 6.75v14H7c-2.2 0-4-1.8-4-4v-6c0-2.2 1.8-4 4-4h1Z"/>
  <path fill="#000" fill-rule="evenodd" d="M7 7.5a3.262 3.262 0 0 0-3.25 3.25v6A3.262 3.262 0 0 0 7 20h.25V7.5H7Zm-4.75 3.25A4.762 4.762 0 0 1 7 6h1.75v15.5H7a4.762 4.762 0 0 1-4.75-4.75v-6Z" clip-rule="evenodd"/>
  <path fill="#000" d="M21 10.75v6c0 2.2-1.8 4-4 4h-1v-14h1c2.2 0 4 1.7 4 4Z"/>
  <path fill="#000" fill-rule="evenodd" d="M15.25 6H17c2.602 0 4.75 2.024 4.75 4.75v6A4.762 4.762 0 0 1 17 21.5h-1.75V6Zm1.5 1.5V20H17a3.262 3.262 0 0 0 3.25-3.25v-6c0-1.874-1.452-3.25-3.25-3.25h-.25Z" clip-rule="evenodd"/>
  <path fill="#000" fill-rule="evenodd" d="M7.25 6h9.5v15.5h-9.5V6Zm1.5 1.5V20h6.5V7.5h-6.5Z" clip-rule="evenodd"/>
  <path fill="#000" fill-rule="evenodd" d="M10 4c-.686 0-1.25.564-1.25 1.25V6h6.5v-.75C15.25 4.512 14.635 4 14 4h-4ZM7.25 5.25A2.756 2.756 0 0 1 10 2.5h4c1.365 0 2.75 1.088 2.75 2.75V7.5h-9.5V5.25Z" clip-rule="evenodd"/>
</svg>
