<svg xmlns="http://www.w3.org/2000/svg" viewBox="0 0 24 24" fill="currentColor">
  <path d="M8.75 5.25C8.75 4.56421 9.31421 4 10 4h4c.61 0 1.25.58798 1.25 1.25V6h-6.5v-.75ZM7.25 6v-.75C7.25 3.73579 8.48579 2.5 10 2.5h4c1.39 0 2.75 1.21202 2.75 2.75V6H17c2.6142 0 4.75 2.13579 4.75 4.75v6c0 2.6142-2.1358 4.75-4.75 4.75H7c-2.61421 0-4.75-2.1358-4.75-4.75v-6C2.25 8.13579 4.38579 6 7 6h.25Zm0 14H7c-1.78579 0-3.25-1.4642-3.25-3.25v-6C3.75 8.96421 5.21421 7.5 7 7.5h.25V20Zm1.5 0V7.5h6.5V20h-6.5Zm8 0H17c1.7858 0 3.25-1.4642 3.25-3.25v-6c0-1.78579-1.4642-3.25-3.25-3.25h-.25V20Z"/>
</svg>
