<svg width="24" height="24" viewBox="0 0 24 24" fill="none" xmlns="http://www.w3.org/2000/svg">
<path fill-rule="evenodd" clip-rule="evenodd" d="M11.4 7.34985C9.33552 7.34985 7.65004 9.09248 7.65004 11.1999V11.9499H6.90004C6.11196 11.9499 5.39919 12.2614 4.83038 12.8302C4.26156 13.399 3.95004 14.1118 3.95004 14.8999C3.95004 16.4856 5.21426 17.7499 6.80005 17.7499H15.9C16.6881 17.7499 17.4009 17.4383 17.9697 16.8695C18.5385 16.3007 18.85 15.5879 18.85 14.7999C18.85 14.2495 18.6944 13.7815 18.4569 13.3857C18.2438 13.0305 18.359 12.5698 18.7142 12.3567C19.0694 12.1436 19.5301 12.2588 19.7432 12.614C20.1057 13.2182 20.35 13.9502 20.35 14.7999C20.35 16.0118 19.8616 17.099 19.0304 17.9302C18.1992 18.7614 17.112 19.2499 15.9 19.2499H6.80005C4.38583 19.2499 2.45004 17.3141 2.45004 14.8999C2.45004 13.6879 2.93853 12.6007 3.76971 11.7695C4.43606 11.1032 5.26695 10.6571 6.19473 10.5064C6.5292 7.92513 8.70242 5.84985 11.4 5.84985C12.3296 5.84985 13.1437 6.08318 13.8355 6.42903C14.2059 6.61428 14.3561 7.06478 14.1709 7.43526C13.9856 7.80575 13.5351 7.95592 13.1646 7.77067C12.6563 7.51653 12.0705 7.34985 11.4 7.34985Z" fill="black"/>
<path fill-rule="evenodd" clip-rule="evenodd" d="M16.6999 6.25C14.8498 6.25 13.3499 7.74985 13.3499 9.6C13.3499 11.4502 14.8498 12.95 16.6999 12.95C18.5501 12.95 20.0499 11.4502 20.0499 9.6C20.0499 7.74985 18.5501 6.25 16.6999 6.25ZM11.8499 9.6C11.8499 6.92142 14.0214 4.75 16.6999 4.75C19.3785 4.75 21.5499 6.92142 21.5499 9.6C21.5499 12.2786 19.3785 14.45 16.6999 14.45C14.0214 14.45 11.8499 12.2786 11.8499 9.6Z" fill="black"/>
</svg>
