<svg xmlns="http://www.w3.org/2000/svg" viewBox="0 0 24 24" fill="currentColor">
  <path d="M8 7.75c-2.38579 0-4.25 1.86421-4.25 4.25 0 2.2956 1.87393 4.25 4.25 4.25h8c2.3858 0 4.25-1.8642 4.25-4.25 0-2.38579-1.8642-4.25-4.25-4.25H8ZM2.25 12c0-3.21421 2.53579-5.75 5.75-5.75h8c3.2142 0 5.75 2.53579 5.75 5.75 0 3.2142-2.5358 5.75-5.75 5.75H8c-3.22393 0-5.75-2.6456-5.75-5.75Zm10.7197-2.03033c.2929-.29289.7677-.29289 1.0606 0l.9197.91973.9197-.91973c.2929-.29289.7678-.29289 1.0607 0 .2928.29293.2928.76773 0 1.06063l-.9197.9197.9197.9197c.2928.2929.2928.7678 0 1.0607-.2929.2928-.7678.2928-1.0607 0l-.9197-.9197-.9197.9197c-.2929.2928-.7677.2928-1.0606 0-.2929-.2929-.2929-.7678 0-1.0607l.9197-.9197-.9197-.9197c-.2929-.2929-.2929-.7677 0-1.06063Z"/>
</svg>
