<svg xmlns="http://www.w3.org/2000/svg" viewBox="0 0 24 24" fill="currentColor">
  <path d="M3.75 12c0-2.38579 1.86421-4.25 4.25-4.25h8c2.3858 0 4.25 1.86421 4.25 4.25 0 2.3858-1.8642 4.25-4.25 4.25H8c-2.37607 0-4.25-1.9544-4.25-4.25ZM8 6.25c-3.21421 0-5.75 2.53579-5.75 5.75 0 3.1044 2.52607 5.75 5.75 5.75h8c3.2142 0 5.75-2.5358 5.75-5.75 0-3.21421-2.5358-5.75-5.75-5.75H8ZM6.75 12c0-.6904.55964-1.25 1.25-1.25s1.25.5596 1.25 1.25-.55964 1.25-1.25 1.25-1.25-.5596-1.25-1.25ZM8 9.25c-1.51878 0-2.75 1.2312-2.75 2.75S6.48122 14.75 8 14.75s2.75-1.2312 2.75-2.75S9.51878 9.25 8 9.25Z"/>
</svg>
