<svg xmlns="http://www.w3.org/2000/svg" viewBox="0 0 24 24" fill="currentColor">
  <path d="M8 7.75c-2.38579 0-4.25 1.86421-4.25 4.25 0 2.2956 1.87393 4.25 4.25 4.25h8c2.3858 0 4.25-1.8642 4.25-4.25 0-2.38579-1.8642-4.25-4.25-4.25H8ZM2.25 12c0-3.21421 2.53579-5.75 5.75-5.75h8c3.2142 0 5.75 2.53579 5.75 5.75 0 3.2142-2.5358 5.75-5.75 5.75H8c-3.22393 0-5.75-2.6456-5.75-5.75Zm10 0c0-.4142.3358-.75.75-.75h1.25V10c0-.41421.3358-.75.75-.75s.75.33579.75.75v1.25H17c.4142 0 .75.3358.75.75s-.3358.75-.75.75h-1.25V14c0 .4142-.3358.75-.75.75s-.75-.3358-.75-.75v-1.25H13c-.4142 0-.75-.3358-.75-.75Z"/>
</svg>
