<svg xmlns="http://www.w3.org/2000/svg" fill="none" viewBox="0 0 24 24">
  <path fill="#000" fill-rule="evenodd" d="M8 7.75c-2.386 0-4.25 1.864-4.25 4.25 0 2.296 1.874 4.25 4.25 4.25h8c2.386 0 4.25-1.864 4.25-4.25S18.386 7.75 16 7.75H8ZM2.25 12c0-3.214 2.536-5.75 5.75-5.75h8c3.214 0 5.75 2.536 5.75 5.75s-2.536 5.75-5.75 5.75H8c-3.224 0-5.75-2.646-5.75-5.75Zm10 0a.75.75 0 0 1 .75-.75h1.25V10a.75.75 0 0 1 1.5 0v1.25H17a.75.75 0 0 1 0 1.5h-1.25V14a.75.75 0 0 1-1.5 0v-1.25H13a.75.75 0 0 1-.75-.75Z" clip-rule="evenodd"/>
</svg>
