<svg width="24" height="24" viewBox="0 0 24 24" fill="none" xmlns="http://www.w3.org/2000/svg">
<path d="M19.5394 4.96053L19.2394 8.86053L9.6394 18.3605L5.6394 14.3605L15.1394 4.66053L19.0394 4.46053C19.3394 4.36053 19.6394 4.66053 19.5394 4.96053Z" fill="black"/>
<path fill-rule="evenodd" clip-rule="evenodd" d="M18.7668 5.22556L15.4703 5.39461L6.69456 14.3551L9.64216 17.3027L18.5131 8.52422L18.7668 5.22556ZM20.2818 5.08747C20.4657 4.28272 19.7284 3.54062 18.9243 3.71551L14.8085 3.92658L4.58423 14.3661L9.63662 19.4185L19.9657 9.19697L20.2818 5.08747Z" fill="black"/>
<path fill-rule="evenodd" clip-rule="evenodd" d="M3.90912 12.6303C4.20202 12.3374 4.67689 12.3374 4.96978 12.6303L6.16978 13.8303C6.46268 14.1232 6.46268 14.5981 6.16978 14.891C5.87689 15.1839 5.40202 15.1839 5.10912 14.891L3.90912 13.691C3.61623 13.3981 3.61623 12.9232 3.90912 12.6303Z" fill="black"/>
<path fill-rule="evenodd" clip-rule="evenodd" d="M9.10907 17.8303C9.40197 17.5374 9.87684 17.5374 10.1697 17.8303L11.3697 19.0303C11.6626 19.3232 11.6626 19.798 11.3697 20.0909C11.0768 20.3838 10.602 20.3838 10.3091 20.0909L9.10907 18.8909C8.81618 18.598 8.81618 18.1232 9.10907 17.8303Z" fill="black"/>
<path fill-rule="evenodd" clip-rule="evenodd" d="M8.16978 15.8303C8.46268 16.1232 8.46268 16.598 8.16978 16.8909L4.96978 20.0909C4.67689 20.3838 4.20202 20.3838 3.90912 20.0909C3.61623 19.798 3.61623 19.3232 3.90912 19.0303L7.10912 15.8303C7.40202 15.5374 7.87689 15.5374 8.16978 15.8303Z" fill="black"/>
<path fill-rule="evenodd" clip-rule="evenodd" d="M13.9699 10.0302C14.2628 10.3231 14.2628 10.798 13.9699 11.0909L12.0699 12.9909C11.777 13.2838 11.3021 13.2838 11.0092 12.9909C10.7163 12.698 10.7163 12.2231 11.0092 11.9302L12.9092 10.0302C13.2021 9.73732 13.677 9.73732 13.9699 10.0302Z" fill="white"/>
</svg>
