<svg xmlns="http://www.w3.org/2000/svg" fill="none" viewBox="0 0 24 24">
  <path fill="#000" fill-rule="evenodd" d="M12.75 3a.75.75 0 0 0-1.5 0v1.286a7.752 7.752 0 0 0-6.964 6.964H3a.75.75 0 0 0 0 1.5h1.286a7.752 7.752 0 0 0 6.964 6.964V21a.75.75 0 0 0 1.5 0v-1.286a7.752 7.752 0 0 0 6.964-6.964H21a.75.75 0 0 0 0-1.5h-1.286a7.752 7.752 0 0 0-6.964-6.964V3Zm-1.5 2.795V7a.75.75 0 0 0 1.5 0V5.795a6.253 6.253 0 0 1 5.456 5.455H17a.75.75 0 0 0 0 1.5h1.206a6.253 6.253 0 0 1-5.456 5.456V17a.75.75 0 0 0-1.5 0v1.206a6.253 6.253 0 0 1-5.455-5.456H7a.75.75 0 0 0 0-1.5H5.795a6.253 6.253 0 0 1 5.455-5.455Z" clip-rule="evenodd"/>
</svg>
