<svg xmlns="http://www.w3.org/2000/svg" viewBox="0 0 24 24" fill="currentColor">
  <path d="M12.75 3c0-.41421-.3358-.75-.75-.75s-.75.33579-.75.75v1.28582C7.5685 4.63935 4.63935 7.5685 4.28582 11.25H3c-.41421 0-.75.3358-.75.75s.33579.75.75.75h1.28582c.35353 3.6815 3.28268 6.6107 6.96418 6.9642V21c0 .4142.3358.75.75.75s.75-.3358.75-.75v-1.2858c3.6815-.3535 6.6107-3.2827 6.9642-6.9642H21c.4142 0 .75-.3358.75-.75s-.3358-.75-.75-.75h-1.2858c-.3535-3.6815-3.2827-6.61065-6.9642-6.96418V3Zm-1.5 2.79454V7c0 .41421.3358.75.75.75s.75-.33579.75-.75V5.79454c2.8523.34111 5.1144 2.60319 5.4555 5.45546H17c-.4142 0-.75.3358-.75.75s.3358.75.75.75h1.2055c-.3411 2.8523-2.6032 5.1144-5.4555 5.4555V17c0-.4142-.3358-.75-.75-.75s-.75.3358-.75.75v1.2055c-2.85227-.3411-5.11435-2.6032-5.45546-5.4555H7c.41421 0 .75-.3358.75-.75s-.33579-.75-.75-.75H5.79454C6.13565 8.39773 8.39773 6.13565 11.25 5.79454Z"/>
</svg>
