<svg xmlns="http://www.w3.org/2000/svg" viewBox="0 0 24 24" fill="currentColor">
  <path d="M7.1555 18.6962C8.5122 19.6753 10.1838 20.25 12 20.25c1.8427 0 3.5367-.5917 4.9038-1.5971-1.5841-1.7229-2.5537-4.0946-2.5537-6.653 0-2.58072.9853-4.8608 2.561-6.64747C15.5427 4.34378 13.846 3.75 12 3.75c-1.7613 0-3.39928.56618-4.74399 1.53345C8.83654 6.9875 9.85008 9.31706 9.85008 11.9c0 2.6529-1.04117 4.9881-2.69458 6.7962Zm-1.13133-.9857c1.44184-1.5649 2.32591-3.5578 2.32591-5.8105 0-2.20441-.87276-4.19057-2.22862-5.63382C4.69483 7.74583 3.79678 9.76416 3.75 12.0075c.00194 2.2218.86404 4.2268 2.27417 5.703ZM20.25 12c0 2.1982-.842 4.1847-2.2238 5.6573-1.3403-1.4476-2.1761-3.4652-2.1761-5.6574 0-2.17681.8255-4.11101 2.1821-5.65083C19.4105 7.82104 20.25 9.80494 20.25 12Zm-17.99985-.015C2.35803 6.59079 6.6777 2.25 12 2.25c5.4142 0 9.75 4.33579 9.75 9.75 0 5.4142-4.3358 9.75-9.75 9.75-5.41421 0-9.75-4.3358-9.75-9.75v-.0075l.00015-.0075Z"/>
</svg>
