<svg width="24" height="24" viewBox="0 0 24 24" fill="none" xmlns="http://www.w3.org/2000/svg">
<path d="M21.05 12.05C21.05 14.55 20.05 16.75 18.45 18.45C18.35 18.55 18.25 18.65 18.05 18.75C17.95 18.65 17.85 18.55 17.65 18.45C16.05 16.85 15.05 14.55 15.05 12.05C15.05 9.55001 16.05 7.35001 17.65 5.65001C17.75 5.55001 17.85 5.45001 18.05 5.35001C19.85 6.95001 21.05 9.35001 21.05 12.05Z" fill="black"/>
<path fill-rule="evenodd" clip-rule="evenodd" d="M18.1687 4.4521L18.5483 4.78945C20.4998 6.52417 21.8 9.12458 21.8 12.05C21.8 14.7609 20.7128 17.1401 18.9961 18.964L18.9884 18.9723L18.9785 18.9822C18.863 19.0976 18.6943 19.2664 18.3854 19.4208L17.9019 19.6626L17.5197 19.2803C17.4675 19.2282 17.4447 19.2063 17.419 19.1857C17.3976 19.1686 17.3672 19.1472 17.3146 19.1208L17.2057 19.0664L17.1197 18.9803C15.3787 17.2394 14.3 14.7485 14.3 12.05C14.3 9.33912 15.3872 6.95996 17.1038 5.13598L17.1116 5.12771L17.1215 5.11782C17.2369 5.00238 17.4057 4.83363 17.7146 4.67919L18.1687 4.4521ZM18.0173 6.35927C16.6398 7.90551 15.8 9.85435 15.8 12.05C15.8 14.28 16.6649 16.3293 18.0459 17.7818C19.4452 16.229 20.3 14.2651 20.3 12.05C20.3 9.81649 19.404 7.80701 18.0173 6.35927Z" fill="black"/>
<path fill-rule="evenodd" clip-rule="evenodd" d="M7.18104 5.30674C8.77582 7.01312 9.80002 9.35355 9.80002 11.95C9.80002 14.5194 8.82204 16.9006 7.22565 18.6253C8.59326 19.6025 10.2589 20.2 12.05 20.2C13.8411 20.2 15.5068 19.6025 16.8744 18.6253C15.278 16.9006 14.3 14.5194 14.3 11.95C14.3 9.38059 15.278 6.99943 16.8744 5.27465C15.5068 4.29749 13.8411 3.7 12.05 3.7C10.2394 3.7 8.55696 4.31058 7.18104 5.30674ZM18.1055 6.15628C18.3398 6.02085 18.479 5.8817 18.5785 5.78219L19.1472 5.21346L18.5439 4.68556C16.821 3.17804 14.5493 2.2 12.05 2.2C9.55078 2.2 7.27903 3.17804 5.55614 4.68556L4.91614 5.24557L5.55175 5.81055C7.20019 7.27584 8.30002 9.47542 8.30002 11.95C8.30002 14.2118 7.41022 16.2879 5.99459 17.7437C5.7602 17.8791 5.62106 18.0183 5.52155 18.1178L4.95283 18.6865L5.55614 19.2144C7.27903 20.722 9.55078 21.7 12.05 21.7C14.5493 21.7 16.821 20.722 18.5439 19.2144L19.3846 18.4788L18.3854 17.9792C18.3328 17.9529 18.3024 17.9314 18.281 17.9143C18.2553 17.8938 18.2325 17.8718 18.1803 17.8197C16.7213 16.3606 15.8 14.2515 15.8 11.95C15.8 9.68815 16.6898 7.6121 18.1055 6.15628Z" fill="black"/>
<path d="M9.04999 12.05C9.04999 14.55 8.04999 16.75 6.44999 18.45C6.34999 18.55 6.24999 18.65 6.04999 18.75C5.94999 18.65 5.84999 18.55 5.64999 18.45C4.04999 16.85 3.04999 14.55 3.04999 12.05C3.04999 9.55 4.04999 7.35 5.64999 5.65C5.74999 5.55 5.84999 5.45 6.04999 5.25C7.84999 6.95 9.04999 9.35 9.04999 12.05Z" fill="black"/>
<path fill-rule="evenodd" clip-rule="evenodd" d="M6.03505 4.20427L6.56496 4.70473C8.49771 6.53011 9.79999 9.12105 9.79999 12.05C9.79999 14.7609 8.71282 17.14 6.99614 18.964L6.98835 18.9723L6.97846 18.9822C6.86302 19.0976 6.69428 19.2664 6.3854 19.4208L5.9019 19.6626L5.51966 19.2803C5.46749 19.2282 5.44471 19.2062 5.41897 19.1856C5.39762 19.1686 5.36723 19.1471 5.31458 19.1208L5.20572 19.0664L5.11966 18.9803C3.37873 17.2394 2.29999 14.7485 2.29999 12.05C2.29999 9.33911 3.38716 6.95994 5.10384 5.13597L5.11162 5.1277L6.03505 4.20427ZM6.05033 6.32241C4.65323 7.87449 3.79999 9.83686 3.79999 12.05C3.79999 14.2799 4.66488 16.3293 6.04586 17.7818C7.44521 16.229 8.29999 14.2651 8.29999 12.05C8.29999 9.84352 7.42475 7.84594 6.05033 6.32241Z" fill="black"/>
</svg>
