<svg width="24" height="24" fill="none" xmlns="http://www.w3.org/2000/svg"><path fill="#fff" d="M0 0h24v24H0z"/><path d="M12 3c5 0 9 4 9 9s-4 9-9 9-9-4-9-9c.1-5 4.1-9 9-9z" stroke="#000" stroke-width="1.5" stroke-miterlimit="10"/><path d="M18.1001 18.7c-.1-.1-.2-.2-.4-.3-1.6-1.6-2.6-3.9001-2.6-6.4001 0-2.49996 1-4.69992 2.6-6.39992.1-.1.2-.20005.4-.30005M6.1001 5.19995c1.8 1.6 3 4.00001 3 6.70005 0 2.5-1.00001 4.6999-2.60001 6.3999-.1.1-.19999.2001-.39999.3001" stroke="#000" stroke-width="1.5" stroke-miterlimit="10"/></svg>