<svg width="24" height="24" viewBox="0 0 24 24" fill="none" xmlns="http://www.w3.org/2000/svg">
<path fill-rule="evenodd" clip-rule="evenodd" d="M7.1555 18.6962C8.5122 19.6753 10.1838 20.25 12 20.25C13.8427 20.25 15.5367 19.6583 16.9038 18.6529C15.3197 16.93 14.3501 14.5583 14.3501 11.9999C14.3501 9.41918 15.3354 7.1391 16.9111 5.35243C15.5427 4.34378 13.846 3.75 12 3.75C10.2387 3.75 8.60072 4.31618 7.25601 5.28345C8.83654 6.9875 9.85008 9.31706 9.85008 11.9C9.85008 14.5529 8.80891 16.8881 7.1555 18.6962ZM6.02417 17.7105C7.46601 16.1456 8.35008 14.1527 8.35008 11.9C8.35008 9.69559 7.47732 7.70943 6.12146 6.26618C4.69483 7.74583 3.79678 9.76416 3.75 12.0075C3.75194 14.2293 4.61404 16.2343 6.02417 17.7105ZM20.25 12C20.25 14.1982 19.408 16.1847 18.0262 17.6573C16.6859 16.2097 15.8501 14.1921 15.8501 11.9999C15.8501 9.82309 16.6756 7.88889 18.0322 6.34907C19.4105 7.82104 20.25 9.80494 20.25 12ZM2.25015 11.985C2.35803 6.59079 6.6777 2.25 12 2.25C17.4142 2.25 21.75 6.58579 21.75 12C21.75 17.4142 17.4142 21.75 12 21.75C6.58579 21.75 2.25 17.4142 2.25 12V11.9925L2.25015 11.985Z" fill="black"/>
</svg>
