<svg xmlns="http://www.w3.org/2000/svg" fill="none" viewBox="0 0 24 24">
  <path fill="#000" fill-rule="evenodd" d="M9 3.75C6.114 3.75 3.75 6.114 3.75 9v6c0 2.886 2.364 5.25 5.25 5.25h6c2.886 0 5.25-2.364 5.25-5.25V9c0-2.886-2.364-5.25-5.25-5.25H9ZM2.25 9c0-3.714 3.036-6.75 6.75-6.75h6c3.714 0 6.75 3.036 6.75 6.75v6c0 3.714-3.036 6.75-6.75 6.75H9c-3.714 0-6.75-3.036-6.75-6.75V9Zm5.22-.43a.75.75 0 0 1 1.06 0l2.1 2.1a1.716 1.716 0 0 1 0 2.46l-2.1 2.1a.75.75 0 0 1-1.06-1.06l2.1-2.1a.24.24 0 0 0 .08-.17.24.24 0 0 0-.08-.17l-2.1-2.1a.75.75 0 0 1 0-1.06ZM14 11.25a.75.75 0 0 0 0 1.5h3a.75.75 0 0 0 0-1.5h-3Z" clip-rule="evenodd"/>
</svg>
