<svg xmlns="http://www.w3.org/2000/svg" viewBox="0 0 24 24" fill="currentColor">
  <path d="M9 3.75C6.11421 3.75 3.75 6.11421 3.75 9v6c0 2.8858 2.36421 5.25 5.25 5.25h6c2.8858 0 5.25-2.3642 5.25-5.25V9c0-2.88579-2.3642-5.25-5.25-5.25H9ZM2.25 9c0-3.71421 3.03579-6.75 6.75-6.75h6c3.7142 0 6.75 3.03579 6.75 6.75v6c0 3.7142-3.0358 6.75-6.75 6.75H9c-3.71421 0-6.75-3.0358-6.75-6.75V9Zm5.21967-.43023c.29289-.2929.76777-.2929 1.06066 0l2.09997 2.10003c.6929.6929.6929 1.7677 0 2.4606l-2.09997 2.1c-.29289.2929-.76777.2929-1.06066 0s-.29289-.7677 0-1.0606l2.10001-2.1c.06383-.0639.08033-.1249.08033-.1697 0-.0448-.0165-.1058-.08033-.1697L7.46967 9.63043c-.29289-.29289-.29289-.76777 0-1.06066ZM14 11.25c-.4142 0-.75.3358-.75.75s.3358.75.75.75h3c.4142 0 .75-.3358.75-.75s-.3358-.75-.75-.75h-3Z"/>
</svg>
