<svg xmlns="http://www.w3.org/2000/svg" fill="none" viewBox="0 0 24 24">
  <path fill="#000" d="M3.112 11.962v5.9h5.9v-5.9h-5.9Z"/>
  <path fill="#000" fill-rule="evenodd" d="M2.362 18.612v-7.4h7.4v7.4h-7.4Zm1.5-1.5h4.4v-4.4h-4.4v4.4Z" clip-rule="evenodd"/>
  <path fill="#000" fill-rule="evenodd" d="M8.3 18.65v-7.4h7.4v7.4H8.3Zm1.5-1.5h4.4v-4.4H9.8v4.4Z" clip-rule="evenodd"/>
  <path fill="#000" fill-rule="evenodd" d="M8.338 12.712v-7.4h7.4v7.4h-7.4Zm1.5-1.5h4.4v-4.4h-4.4v4.4Z" clip-rule="evenodd"/>
  <path fill="#000" d="M14.988 12.038v5.9h5.9v-5.9h-5.9Z"/>
  <path fill="#000" fill-rule="evenodd" d="M14.238 18.688v-7.4h7.4v7.4h-7.4Zm1.5-1.5h4.4v-4.4h-4.4v4.4Z" clip-rule="evenodd"/>
</svg>
