<svg xmlns="http://www.w3.org/2000/svg" fill="none" viewBox="0 0 24 24">
  <path fill="#000" fill-rule="evenodd" d="M5.35 2.4h7.4v7.4h-7.4V2.4Zm1.5 1.5v4.4h4.4V3.9h-4.4Z" clip-rule="evenodd"/>
  <path fill="#000" fill-rule="evenodd" d="M5.35 8.3h7.4v7.4h-7.4V8.3Zm1.5 1.5v4.4h4.4V9.8h-4.4Z" clip-rule="evenodd"/>
  <path fill="#000" d="M17.9 3.15H12v5.9h5.9v-5.9Z"/>
  <path fill="#000" fill-rule="evenodd" d="M11.25 2.4h7.4v7.4h-7.4V2.4Zm1.5 1.5v4.4h4.4V3.9h-4.4Z" clip-rule="evenodd"/>
  <path fill="#000" d="M12 14.95H6.1v5.9H12v-5.9Z"/>
  <path fill="#000" fill-rule="evenodd" d="M5.35 14.2h7.4v7.4h-7.4v-7.4Zm1.5 1.5v4.4h4.4v-4.4h-4.4Z" clip-rule="evenodd"/>
</svg>
