<svg xmlns="http://www.w3.org/2000/svg" viewBox="0 0 24 24" fill="currentColor">
  <path d="M6.75 9c0-2.89949 2.35051-5.25 5.25-5.25 2.8995 0 5.25 2.35051 5.25 5.25 0 2.6449-1.9558 4.8329-4.5 5.1968v-.972l2.6359-1.5816c.3551-.2131.4703-.6738.2572-1.029-.2131-.3551-.6738-.4703-1.029-.2572L12.75 11.4755V9c0-.41421-.3358-.75-.75-.75s-.75.33579-.75.75v1.1893l-.7197-.71963c-.2929-.29289-.76774-.29289-1.06063 0s-.29289.76773 0 1.06063L11.25 12.3107v.4766c-.0002.009-.0002.018 0 .027v1.3825C8.70578 13.8329 6.75 11.6449 6.75 9Zm4.5 6.7088c-3.37496-.3731-6-3.2344-6-6.7088 0-3.72792 3.02208-6.75 6.75-6.75 3.7279 0 6.75 3.02208 6.75 6.75 0 3.4744-2.625 6.3357-6 6.7088V21c0 .4142-.3358.75-.75.75s-.75-.3358-.75-.75v-5.2912Z"/>
</svg>
