<svg width="24" height="24" viewBox="0 0 24 24" fill="none" xmlns="http://www.w3.org/2000/svg">
<path fill-rule="evenodd" clip-rule="evenodd" d="M13.259 4.84136L20.3512 17.1279C21.0256 18.3082 20.1985 19.75 18.9 19.75H4.7C4.01269 19.75 3.48915 19.3143 3.22803 18.8322C2.96863 18.3533 2.88987 17.6843 3.26073 17.1072L10.341 4.84136C10.6539 4.24089 11.2762 4 11.8 4C12.3238 4 12.9461 4.24089 13.259 4.84136ZM11.6708 5.5354C11.6708 5.5354 11.6708 5.5354 11.6708 5.5354V5.5354ZM11.6708 5.5354C11.6708 5.5354 11.6708 5.5354 11.6708 5.5354L11.6608 5.5555L4.53746 17.8959L4.52404 17.916C4.51222 17.9338 4.48486 18.0031 4.54697 18.1178C4.61085 18.2357 4.68731 18.25 4.7 18.25H18.9C19.0014 18.25 19.1738 18.0924 19.0494 17.8732C19.0492 17.8728 19.049 17.8725 19.0488 17.8721L11.9392 5.5555L11.9293 5.53569C11.9292 5.53558 11.9295 5.53585 11.9293 5.53569C11.9281 5.53445 11.923 5.52976 11.9127 5.52426C11.8901 5.51221 11.8505 5.5 11.8 5.5C11.7495 5.5 11.7099 5.51221 11.6873 5.52426C11.677 5.52976 11.6721 5.53417 11.6708 5.5354Z" fill="black"/>
</svg>
