<svg width="24" height="24" viewBox="0 0 24 24" fill="none" xmlns="http://www.w3.org/2000/svg">
<path fill-rule="evenodd" clip-rule="evenodd" d="M13.2595 4.74247L20.8322 17.9948C21.1316 18.4276 21.1403 18.9537 20.9012 19.3722C20.6618 19.7911 20.2072 20.05 19.7 20.05H4.3C3.77214 20.05 3.37542 19.725 3.17382 19.3722C2.96841 19.0127 2.90092 18.5212 3.12918 18.0646L3.14038 18.0422L10.9429 4.73798C11.4278 3.81925 12.7774 3.82074 13.2595 4.74247ZM12.0981 5.73333L4.58149 18.55H19.4219L12.0981 5.73333Z" fill="black"/>
<path fill-rule="evenodd" clip-rule="evenodd" d="M12 15.2914L19.8351 19.6553C20.1969 19.8568 20.6537 19.7268 20.8552 19.365C21.0568 19.0031 20.9268 18.5463 20.5649 18.3448L12.6503 13.9367L12.6354 13.9292C12.2243 13.7236 11.7757 13.7236 11.3646 13.9292L11.3497 13.9367L3.43506 18.3448C3.07319 18.5463 2.94322 19.0031 3.14477 19.365C3.34632 19.7268 3.80306 19.8568 4.16494 19.6553L12 15.2914Z" fill="black"/>
<path fill-rule="evenodd" clip-rule="evenodd" d="M12.1 4.05005C12.5142 4.05005 12.85 4.38584 12.85 4.80005V14.4C12.85 14.8143 12.5142 15.15 12.1 15.15C11.6858 15.15 11.35 14.8143 11.35 14.4V4.80005C11.35 4.38584 11.6858 4.05005 12.1 4.05005Z" fill="black"/>
</svg>
