<svg xmlns="http://www.w3.org/2000/svg" viewBox="0 0 24 24" fill="currentColor">
  <path d="M8.66962 2.96967c.2929-.29289.76777-.29289 1.06066 0l2.11962 2.11969 2.1197-2.11969c.2929-.29289.7678-.29289 1.0607 0 .2929.29289.2929.76776 0 1.06066L13.3106 5.75H17c2.6142 0 4.75 2.13579 4.75 4.75v6c0 2.6142-2.1358 4.75-4.75 4.75H7c-2.72646 0-4.75-2.1481-4.75-4.75v-6c0-2.61421 2.13579-4.75 4.75-4.75h3.3893L8.66962 4.03033c-.29289-.2929-.29289-.76777 0-1.06066ZM7 7.25c-1.78579 0-3.25 1.46421-3.25 3.25v6c0 1.7981 1.37646 3.25 3.25 3.25h7.75V7.25H7Zm9.25 0v12.5H17c1.7858 0 3.25-1.4642 3.25-3.25v-6c0-1.78579-1.4642-3.25-3.25-3.25h-.75Z"/>
</svg>
