<svg xmlns="http://www.w3.org/2000/svg" viewBox="0 0 24 24" fill="currentColor">
  <path d="M9.73034 2.96967c-.29289-.29289-.76776-.29289-1.06066 0-.29289.29289-.29289.76777 0 1.06066L10.3894 5.75H7c-2.61421 0-4.75 2.13579-4.75 4.75v6c0 2.6019 2.02354 4.75 4.75 4.75h10c2.6142 0 4.75-2.1358 4.75-4.75v-6c0-2.61421-2.1358-4.75-4.75-4.75h-3.6893l1.7196-1.71967c.2929-.29289.2929-.76777 0-1.06066s-.7677-.29289-1.0606 0L11.85 5.08933 9.73034 2.96967ZM3.75 10.5c0-1.78579 1.46421-3.25 3.25-3.25h10c1.7858 0 3.25 1.46421 3.25 3.25v6c0 1.7858-1.4642 3.25-3.25 3.25H7c-1.87354 0-3.25-1.4519-3.25-3.25v-6Z"/>
</svg>
