<svg width="24" height="24" viewBox="0 0 24 24" fill="none" xmlns="http://www.w3.org/2000/svg">
<path d="M21.0499 8.05005V12.05C21.0499 12.45 21.0499 12.85 20.9499 13.25C20.5499 13.05 20.0499 13.05 19.5499 13.05C17.0499 13.05 15.0499 15.05 15.0499 17.55C15.0499 18.35 15.2499 19.05 15.5499 19.65C14.7499 19.95 13.9499 20.05 13.0499 20.05H10.9499C10.0499 20.05 9.24993 19.95 8.44993 19.65C8.74993 19.05 8.94993 18.35 8.94993 17.55C8.94993 15.05 6.94993 13.05 4.44993 13.05C3.94993 13.05 3.44993 13.15 3.04993 13.25C3.04993 12.85 3.04993 12.45 3.04993 12.05V8.05005C3.04993 5.85005 4.84993 4.05005 7.04993 4.05005H17.0499C19.2499 4.05005 21.0499 5.75005 21.0499 8.05005Z" fill="black"/>
<path fill-rule="evenodd" clip-rule="evenodd" d="M7.04993 4.80005C5.26414 4.80005 3.79993 6.26426 3.79993 8.05005V12.3427C4.0091 12.3166 4.228 12.3 4.44993 12.3C7.36414 12.3 9.69993 14.6358 9.69993 17.55C9.69993 18.1338 9.60791 18.672 9.4538 19.163C9.9172 19.2609 10.4047 19.3 10.9499 19.3H13.0499C13.5951 19.3 14.0827 19.2609 14.5461 19.163C14.3919 18.672 14.2999 18.1338 14.2999 17.55C14.2999 14.6358 16.6357 12.3 19.5499 12.3C19.5708 12.3 19.5922 12.3 19.6141 12.3C19.8112 12.2997 20.0477 12.2993 20.2985 12.3224C20.2997 12.2366 20.2999 12.1462 20.2999 12.05V8.05005C20.2999 6.17651 18.8481 4.80005 17.0499 4.80005H7.04993ZM2.29993 8.05005C2.29993 5.43584 4.43571 3.30005 7.04993 3.30005H17.0499C19.6518 3.30005 21.7999 5.32359 21.7999 8.05005L21.7999 12.0811C21.8 12.4623 21.8001 12.9415 21.6775 13.432L21.4508 14.339L20.6145 13.9209C20.4037 13.8155 20.0986 13.8 19.5499 13.8C17.4641 13.8 15.7999 15.4643 15.7999 17.55C15.7999 18.2205 15.9666 18.8064 16.2207 19.3146L16.5933 20.0598L15.8133 20.3523C14.9037 20.6934 14.008 20.8 13.0499 20.8H10.9499C9.99183 20.8 9.09619 20.6934 8.18658 20.3523L7.40654 20.0598L7.77911 19.3146C8.03325 18.8064 8.19993 18.2205 8.19993 17.55C8.19993 15.4643 6.53571 13.8 4.44993 13.8C4.04085 13.8 3.61029 13.883 3.23183 13.9777L2.29993 14.2106V8.05005Z" fill="black"/>
<path fill-rule="evenodd" clip-rule="evenodd" d="M3.93683 13.8099C4.51306 15.9834 6.04429 17.7465 8.13316 18.6799C8.23845 18.3334 8.29998 17.9573 8.29998 17.5499C8.29998 15.4854 6.55735 13.7999 4.44998 13.7999C4.24857 13.7999 4.07998 13.802 3.93683 13.8099ZM4.38581 12.2999C4.4077 12.2999 4.4291 12.2999 4.44998 12.2999C7.3426 12.2999 9.79998 14.6145 9.79998 17.5499C9.79998 18.4795 9.56666 19.2936 9.2208 19.9854L8.92686 20.5732L8.30548 20.359C5.15703 19.2733 2.85737 16.6564 2.31018 13.3732L2.21912 12.8268L2.71457 12.5791C3.27648 12.2982 3.93458 12.2992 4.38581 12.2999Z" fill="black"/>
<path fill-rule="evenodd" clip-rule="evenodd" d="M20.0833 13.8162C19.9133 13.8015 19.7366 13.8001 19.5499 13.8001C17.4641 13.8001 15.7999 15.4643 15.7999 17.5501C15.7999 17.9616 15.8627 18.3412 15.97 18.6906C17.9884 17.8106 19.5656 15.9912 20.0833 13.8162ZM19.5793 12.3001C19.9708 12.2999 20.5933 12.2996 21.2285 12.5537L21.7705 12.7705L21.6933 13.3492C21.2534 16.6485 18.843 19.3794 15.7794 20.3641L15.1669 20.561L14.8791 19.9855C14.5332 19.2938 14.2999 18.4796 14.2999 17.5501C14.2999 14.6359 16.6357 12.3001 19.5499 12.3001C19.5596 12.3001 19.5693 12.3001 19.5793 12.3001Z" fill="black"/>
</svg>
