<svg width="24" height="24" viewBox="0 0 24 24" fill="none" xmlns="http://www.w3.org/2000/svg">
<path fill-rule="evenodd" clip-rule="evenodd" d="M5.882 4.0224C6.28385 4.12286 6.52817 4.53007 6.42771 4.93191C6.35248 5.23281 6.3501 5.44907 6.3501 5.85001V10.05C6.3501 13.1358 8.81431 15.6 11.9001 15.6C15.0936 15.6 17.5501 13.1281 17.5501 10.05V5.95001C17.5501 5.54907 17.5477 5.33281 17.4725 5.03191C17.372 4.63007 17.6164 4.22286 18.0182 4.1224C18.42 4.02194 18.8272 4.26626 18.9277 4.66811C19.0502 5.15802 19.0501 5.53679 19.0501 5.92799L19.0501 10.05C19.0501 13.9719 15.9066 17.1 11.9001 17.1C7.98589 17.1 4.8501 13.9642 4.8501 10.05V5.85001C4.8501 5.84267 4.8501 5.83533 4.8501 5.828C4.85006 5.43679 4.85001 5.05803 4.97249 4.56811C5.07296 4.16626 5.48016 3.92194 5.882 4.0224Z" fill="black"/>
<path fill-rule="evenodd" clip-rule="evenodd" d="M4.94995 19.15C4.94995 18.7358 5.28574 18.4 5.69995 18.4H18.3C18.7142 18.4 19.05 18.7358 19.05 19.15C19.05 19.5642 18.7142 19.9 18.3 19.9H5.69995C5.28574 19.9 4.94995 19.5642 4.94995 19.15Z" fill="black"/>
</svg>
