<svg xmlns="http://www.w3.org/2000/svg" viewBox="0 0 24 24" fill="currentColor">
  <path d="M3.75 7c0-1.78579 1.46421-3.25 3.25-3.25h10c1.7858 0 3.25 1.46421 3.25 3.25v6c0 .1022-.0021.2039-.0064.3051-.2371-.0333-.4883-.0551-.7436-.0551-2.9142 0-5.25 2.3358-5.25 5.25 0 .5765.0898 1.1087.2404 1.5947-.4814.1018-.98.1553-1.4904.1553h-2.1c-.5116 0-1.00997-.0539-1.49006-.1564.15048-.4857.2401-1.0175.2401-1.5936 0-2.9142-2.33579-5.25-5.25-5.25-.21994 0-.4369.0162-.64437.042C3.7519 13.1951 3.75 13.0978 3.75 13V7Zm15.75 7.75c.173 0 .3498.0148.5249.0391-.5556 2.1664-2.0946 3.9509-4.1072 4.8437-.1058-.3473-.1677-.7243-.1677-1.1328 0-2.0858 1.6642-3.75 3.75-3.75Zm-15.53453.0275c.5369 2.1696 2.03514 3.9526 4.01902 4.8482.10451-.3453.16555-.72.16555-1.1257 0-2.0858-1.66421-3.75-3.75-3.75-.14327 0-.28918.0102-.43457.0275ZM7 2.25C4.38579 2.25 2.25 4.38579 2.25 7v6c0 4.8019 3.82357 8.75 8.65 8.75H13c4.8142 0 8.75-3.9358 8.75-8.75V7c0-2.61421-2.1358-4.75-4.75-4.75H7ZM10.75 10c0-.69036.5596-1.25 1.25-1.25s1.25.55964 1.25 1.25c0 .6904-.5596 1.25-1.25 1.25s-1.25-.5596-1.25-1.25ZM12 7.25c-1.5188 0-2.75 1.23122-2.75 2.75 0 1.5188 1.2312 2.75 2.75 2.75s2.75-1.2312 2.75-2.75c0-1.51878-1.2312-2.75-2.75-2.75Z"/>
</svg>
