<svg xmlns="http://www.w3.org/2000/svg" viewBox="0 0 24 24" fill="currentColor">
  <path d="M7 3.75C5.21421 3.75 3.75 5.21421 3.75 7v6c0 .0978.0019.1951.00567.292.20747-.0258.42443-.042.64437-.042 2.91421 0 5.25 2.3358 5.25 5.25 0 .5761-.08962 1.1079-.2401 1.5936.48009.1025.97846.1564 1.49006.1564H13c.5104 0 1.009-.0535 1.4904-.1553-.1506-.486-.2404-1.0182-.2404-1.5947 0-2.9142 2.3358-5.25 5.25-5.25.2553 0 .5065.0218.7436.0551.0043-.1012.0064-.2029.0064-.3051V7c0-1.78579-1.4642-3.25-3.25-3.25H7Zm13.0249 11.0391c-.1751-.0243-.3519-.0391-.5249-.0391-2.0858 0-3.75 1.6642-3.75 3.75 0 .4085.0619.7855.1677 1.1328 2.0126-.8928 3.5516-2.6773 4.1072-4.8437ZM7.98449 19.6257c-1.98388-.8956-3.48212-2.6786-4.01902-4.8482.14539-.0173.2913-.0275.43457-.0275 2.08579 0 3.75 1.6642 3.75 3.75 0 .4057-.06104.7804-.16555 1.1257ZM2.25 7c0-2.61421 2.13579-4.75 4.75-4.75h10c2.6142 0 4.75 2.13579 4.75 4.75v6c0 4.8142-3.9358 8.75-8.75 8.75h-2.1c-4.82643 0-8.65-3.9481-8.65-8.75V7Z"/>
</svg>
