<svg xmlns="http://www.w3.org/2000/svg" viewBox="0 0 24 24" fill="currentColor">
  <path d="M3.29999 12.0001c0-2.84427 2.30575-5.15 5.15002-5.15.82833 0 1.61099.19556 2.30429.54302-1.14838 1.19514-1.85431 2.81858-1.85431 4.60698 0 1.7883.70594 3.4118 1.85431 4.607-.6933.3475-1.47596.543-2.30429.543-2.84426 0-5.15002-2.3057-5.15002-5.15ZM12 17.6243c-1.0272.6497-2.24467 1.0258-3.54999 1.0258-3.67269 0-6.65002-2.9773-6.65002-6.65 0-3.67271 2.97733-6.65 6.65002-6.65 1.30532 0 2.52279.37608 3.54999 1.02581 1.0272-.64973 2.2447-1.02581 3.55-1.02581 3.6727 0 6.65 2.97729 6.65 6.65 0 3.6727-2.9773 6.65-6.65 6.65-1.3053 0-2.5228-.3761-3.55-1.0258Zm1.2457-10.23118c.6933-.34746 1.476-.54302 2.3043-.54302 2.8443 0 5.15 2.30573 5.15 5.15 0 2.8443-2.3057 5.15-5.15 5.15-.8283 0-1.611-.1955-2.3043-.543 1.1484-1.1952 1.8543-2.8187 1.8543-4.607 0-1.7884-.7059-3.41184-1.8543-4.60698ZM12 8.26912c.9857.93814 1.6 2.26278 1.6 3.73098 0 1.4682-.6143 2.7928-1.6 3.731-.9856-.9382-1.6-2.2628-1.6-3.731s.6144-2.79284 1.6-3.73098Z"/>
</svg>
