<svg xmlns="http://www.w3.org/2000/svg" viewBox="0 0 24 24" fill="currentColor">
  <path d="M8.45001 3.8501c-2.84427 0-5.15002 2.30573-5.15002 5.14999 0 1.79831.92177 3.38141 2.31861 4.30251.47337-1.7983 1.68096-3.2987 3.28286-4.16138-.00098-.04693-.00147-.09397-.00147-.14113 0-1.78835.70593-3.41183 1.85431-4.60697-.6933-.34746-1.47596-.54302-2.30429-.54302Zm.68389 6.9045c-1.07248.7381-1.85138 1.872-2.12584 3.1909.45755.1332.94141.2046 1.44195.2046.82833 0 1.61099-.1955 2.30429-.543-.75839-.7893-1.32383-1.7654-1.6204-2.8525Zm-3.73332 4.1567c-2.13868-1.1056-3.60059-3.3377-3.60059-5.91121 0-3.6727 2.97733-6.64999 6.65002-6.64999 1.30532 0 2.52279.37608 3.54999 1.02581 1.0272-.64973 2.2447-1.02581 3.55-1.02581 3.6727 0 6.65 2.97729 6.65 6.64999 0 2.53361-1.4169 4.73631-3.5015 5.85891.001.0469.0015.0939.0015.1411 0 3.6727-2.9773 6.65-6.65 6.65-3.67271 0-6.65001-2.9773-6.65001-6.65 0-.0297.0002-.0593.00059-.0888Zm11.78012.5374c-.2273 2.6342-2.4376 4.7014-5.1307 4.7014-2.68464 0-4.88949-2.0542-5.12853-4.6765.49078.1154 1.00253.1765 1.52854.1765 1.30532 0 2.52279-.3761 3.54999-1.0258 1.0272.6497 2.2447 1.0258 3.55 1.0258.5626 0 1.1089-.0699 1.6307-.2014Zm1.2854-2.2032C19.8154 12.317 20.7 10.7618 20.7 9.00009c0-2.84426-2.3057-5.14999-5.15-5.14999-.8283 0-1.611.19556-2.3043.54302C14.3941 5.58826 15.1 7.21174 15.1 9.00009c0 .02966-.0002.05927-.0006.08884 1.634.84464 2.873 2.34687 3.3667 4.15657Zm-3.5847-2.5479c1.1083.7308 1.9175 1.8784 2.2046 3.2196-.4851.1513-1.0011.2329-1.536.2329-.8283 0-1.611-.1955-2.3043-.543.7716-.8031 1.3435-1.7996 1.6357-2.9095Zm-1.3895-.6429c-.2169 1.0424-.7489 1.9692-1.4919 2.6764-.7363-.7008-1.2653-1.6172-1.4859-2.6481.485-.15134 1.0009-.2329 1.5359-.2329.5005 0 .9844.07141 1.4419.2046Zm.0866-1.52809c-.4907-.11544-1.0025-.17651-1.5285-.17651-.5626 0-1.109.06987-1.6307.20141.1111-1.28822.6965-2.44083 1.5807-3.28239.8785.83614 1.462 1.97933 1.5785 3.25749Z"/>
</svg>
