<svg width="24" height="24" viewBox="0 0 24 24" fill="none" xmlns="http://www.w3.org/2000/svg">
<path fill-rule="evenodd" clip-rule="evenodd" d="M20.9 11.5499C21.3142 11.5499 21.65 11.8857 21.65 12.2999V14.7999C21.65 16.9303 19.8979 18.5499 17.9 18.5499H6.7C6.28578 18.5499 5.95 18.2141 5.95 17.7999C5.95 17.3857 6.28578 17.0499 6.7 17.0499H17.9C19.1021 17.0499 20.15 16.0696 20.15 14.7999V12.2999C20.15 11.8857 20.4858 11.5499 20.9 11.5499Z" fill="black"/>
<path fill-rule="evenodd" clip-rule="evenodd" d="M3.7 11.5499C4.11421 11.5499 4.45 11.8857 4.45 12.2999V14.7999C4.45 16.0696 5.49786 17.0499 6.7 17.0499H17.9C18.3142 17.0499 18.65 17.3857 18.65 17.7999C18.65 18.2141 18.3142 18.5499 17.9 18.5499H6.7C4.70213 18.5499 2.95 16.9303 2.95 14.7999V12.2999C2.95 11.8857 3.28578 11.5499 3.7 11.5499Z" fill="black"/>
<path fill-rule="evenodd" clip-rule="evenodd" d="M12.3 5.75C12.7142 5.75 13.05 6.08579 13.05 6.5V13.6C13.05 14.0142 12.7142 14.35 12.3 14.35C11.8858 14.35 11.55 14.0142 11.55 13.6V6.5C11.55 6.08579 11.8858 5.75 12.3 5.75Z" fill="black"/>
<path fill-rule="evenodd" clip-rule="evenodd" d="M12.3 6.66064L15.0697 9.43031C15.3626 9.7232 15.8374 9.7232 16.1303 9.43031C16.4232 9.13741 16.4232 8.66254 16.1303 8.36965L13.2303 5.46965C12.9578 5.19717 12.5989 5.09998 12.3 5.09998C12.0011 5.09998 11.6421 5.19717 11.3697 5.46965L8.46967 8.36965C8.17678 8.66254 8.17678 9.13741 8.46967 9.43031C8.76256 9.7232 9.23744 9.7232 9.53033 9.43031L12.3 6.66064Z" fill="black"/>
</svg>
