<svg xmlns="http://www.w3.org/2000/svg" fill="none" viewBox="0 0 24 24">
  <path fill="#000" fill-rule="evenodd" d="M20.5 10.25a.75.75 0 0 1 .75.75v4c0 2.473-1.35 4.731-3.5 5.864a.75.75 0 1 1-.7-1.328c1.65-.867 2.7-2.609 2.7-4.536v-4a.75.75 0 0 1 .75-.75Zm-12-6.5C5.614 3.75 3.25 6.114 3.25 9v6c0 1.932 1.056 3.679 2.614 4.544a.75.75 0 1 1-.728 1.312C3.094 19.72 1.75 17.468 1.75 15V9c0-3.714 3.036-6.75 6.75-6.75h6a.75.75 0 0 1 0 1.5h-6Z" clip-rule="evenodd"/>
  <path fill="#000" d="M11.5 15a3 3 0 1 0 0-6 3 3 0 0 0 0 6Z"/>
  <path fill="#000" fill-rule="evenodd" d="M11.5 9.75a2.25 2.25 0 1 0 0 4.5 2.25 2.25 0 0 0 0-4.5ZM7.75 12a3.75 3.75 0 1 1 7.5 0 3.75 3.75 0 0 1-7.5 0Z" clip-rule="evenodd"/>
  <path fill="#000" d="M17.4 20.2c-.9.5-1.9.8-2.9.8h-6c-1.1 0-2.1-.3-2.9-.8.4-3 2.9-5.2 5.9-5.2 3 0 5.5 2.2 5.9 5.2Z"/>
  <path fill="#000" fill-rule="evenodd" d="M6.433 19.802a4.837 4.837 0 0 0 2.067.448h6c.688 0 1.391-.167 2.062-.468A5.178 5.178 0 0 0 11.5 15.75a5.179 5.179 0 0 0-5.067 4.052Zm-1.576.299c.449-3.369 3.263-5.851 6.643-5.851s6.194 2.482 6.643 5.85l.068.507-.447.249c-.991.55-2.115.894-3.264.894h-6c-1.236 0-2.374-.337-3.297-.914l-.41-.256.064-.48Zm17.18-16.625a.75.75 0 0 1-.013 1.06l-4.098 3.999c-.222.219-.504.29-.726.29a1.03 1.03 0 0 1-.73-.295l-.038-.037L14.9 6.45a.75.75 0 0 1 1.2-.9l1.157 1.542 3.72-3.629a.75.75 0 0 1 1.06.013Z" clip-rule="evenodd"/>
</svg>
