<svg xmlns="http://www.w3.org/2000/svg" viewBox="0 0 60 60">
  <path d="M30 35c-2.9667 0-5.8668-.8797-8.3335-2.528-2.4668-1.6482-4.3894-3.9909-5.5247-6.7317-1.1353-2.7409-1.4324-5.7569-.8536-8.6666.5788-2.9098 2.0074-5.5825 4.1052-7.6803 2.0978-2.09778 4.7705-3.52639 7.6803-4.10517 2.9097-.57878 5.9257-.28173 8.6666.85358 2.7408 1.13532 5.0835 3.05791 6.7317 5.52469C44.1203 14.1332 45 17.0333 45 20c0 3.9783-1.5803 7.7936-4.3934 10.6066C37.7936 33.4197 33.9783 35 30 35Zm0-25c-1.9778 0-3.9112.5865-5.5557 1.6853-1.6445 1.0988-2.9262 2.6606-3.6831 4.4879-.7569 1.8272-.9549 3.8379-.569 5.7777.3858 1.9398 1.3382 3.7217 2.7367 5.1202 1.3986 1.3985 3.1804 2.3509 5.1202 2.7368 1.9398.3858 3.9505.1878 5.7777-.5691 1.8273-.7569 3.3891-2.0386 4.4879-3.6831C39.4135 23.9112 40 21.9778 40 20c0-2.6522-1.0536-5.1957-2.9289-7.0711C35.1957 11.0536 32.6522 10 30 10Z"/>
  <path d="M52.5 55c-.663 0-1.2989-.2634-1.7678-.7322C50.2634 53.7989 50 53.163 50 52.5c0-4.6413-1.8437-9.0925-5.1256-12.3744C41.5925 36.8437 37.1413 35 32.5 35h-5c-4.6413 0-9.0925 1.8437-12.3744 5.1256C11.8437 43.4075 10 47.8587 10 52.5c0 .663-.26339 1.2989-.73223 1.7678C8.79893 54.7366 8.16304 55 7.5 55c-.66304 0-1.29893-.2634-1.76777-.7322C5.26339 53.7989 5 53.163 5 52.5c0-5.9674 2.37053-11.6903 6.5901-15.9099C15.8097 32.3705 21.5326 30 27.5 30h5c5.9674 0 11.6903 2.3705 15.9099 6.5901S55 46.5326 55 52.5c0 .663-.2634 1.2989-.7322 1.7678C53.7989 54.7366 53.163 55 52.5 55Z"/>
  <path d="M30 55c-.329.0019-.6551-.0612-.9597-.1856-.3046-.1244-.5817-.3077-.8153-.5394l-2.5-2.5c-.2737-.2755-.4794-.611-.601-.9798-.1215-.3689-.1554-.761-.099-1.1452l2.5-17.5c0-.663.2634-1.2989.7323-1.7678.4688-.4688 1.1047-.7322 1.7677-.7322.6631 0 1.299.2634 1.7678.7322.4688.4689.7322 1.1048.7322 1.7678l2.5 17.5c.0564.3842.0225.7763-.099 1.1452-.1215.3688-.3273.7043-.601.9798l-2.5 2.5c-.2395.2378-.5247.4246-.8383.5492-.3137.1246-.6493.1844-.9867.1758Z"/>
</svg>
