<svg width="24" height="24" fill="none" xmlns="http://www.w3.org/2000/svg"><path fill="#fff" d="M0 0h24v24H0z"/><path d="M21 12.2001c0 5-4 9-9 9s-9-4-9-9c0-5.00003 4-9.00003 9-9.00003" stroke="#000" stroke-width="1.5" stroke-miterlimit="10" stroke-linecap="round"/><path d="M12 15.2001c1.6569 0 3-1.3432 3-3 0-1.6569-1.3431-3.00003-3-3.00003S9 10.5432 9 12.2001c0 1.6568 1.3431 3 3 3z" stroke="#000" stroke-width="1.5" stroke-miterlimit="10"/><path d="M17.6 19.2001c-.8-2.3-3-4-5.7-4-2.70004 0-4.80005 1.7-5.70005 4" stroke="#000" stroke-width="1.5" stroke-miterlimit="10"/><path d="M21.1001 3L16.8 7.30005M21.1001 7.30005L16.8 3" stroke="#000" stroke-width="1.5" stroke-miterlimit="10" stroke-linecap="round"/></svg>