<svg xmlns="http://www.w3.org/2000/svg" viewBox="0 0 24 24" fill="currentColor">
  <path d="M3.75 12c0-4.58579 3.66421-8.25 8.25-8.25.4142 0 .75-.33579.75-.75s-.3358-.75-.75-.75c-5.41421 0-9.75 4.33579-9.75 9.75 0 5.4142 4.33579 9.75 9.75 9.75 5.4142 0 9.75-4.3358 9.75-9.75 0-.4142-.3358-.75-.75-.75s-.75.3358-.75.75c0 2.2697-.8976 4.3137-2.3604 5.7994-.7252-1.354-1.908-2.4434-3.3474-3.0427.7426-.6852 1.2077-1.6666 1.2077-2.7567 0-2.07107-1.679-3.75-3.75-3.75-2.07109 0-3.75002 1.67893-3.75002 3.75 0 1.0901.46512 2.0715 1.20772 2.7567-1.43939.5993-2.62215 1.6886-3.34734 3.0425C4.64759 16.3136 3.75 14.2697 3.75 12Zm8.2499 3.75c2.0908 0 3.8932 1.2636 4.7088 3.0421C15.377 19.7127 13.7561 20.25 12 20.25c-1.7561 0-3.37711-.5374-4.70891-1.4581.8157-1.7784 2.61796-3.0419 4.70881-3.0419ZM9.74988 12c0-1.2426 1.00732-2.25 2.25002-2.25 1.2426 0 2.25 1.0074 2.25 2.25s-1.0074 2.25-2.25 2.25c-1.2427 0-2.25002-1.0074-2.25002-2.25ZM21.5238 4.53684c.2964-.28926.3023-.7641.013-1.06058-.2892-.29649-.764-.30235-1.0605-.01309l-3.7197 3.62896L15.6 5.55c-.2485-.33137-.7186-.39853-1.05-.15-.3314.24853-.3985.71863-.15 1.05l1.532 2.04264.0377.03769c.2225.2225.5065.29467.7303.29467.2224 0 .5042-.07123.726-.29032l4.0978-3.99784Z"/>
</svg>
