<svg xmlns="http://www.w3.org/2000/svg" fill="none" viewBox="0 0 24 24">
  <path fill="#000" fill-rule="evenodd" d="M10.5 3.513a3.95 3.95 0 1 0 0 7.9 3.95 3.95 0 0 0 0-7.9Zm-5.45 3.95a5.45 5.45 0 1 1 10.9 0 5.45 5.45 0 0 1-10.9 0Z" clip-rule="evenodd"/>
  <path fill="#000" fill-rule="evenodd" d="M9 12.912c-2.386 0-4.35 1.965-4.35 4.35a2.94 2.94 0 0 0 2.95 2.95h5.9a.75.75 0 0 1 0 1.5H7.6c-2.527 0-4.45-2.049-4.45-4.45 0-3.214 2.636-5.85 5.85-5.85h3.2c3.214 0 5.85 2.636 5.85 5.85a.75.75 0 1 1-1.5 0c0-2.385-1.964-4.35-4.35-4.35H9Z" clip-rule="evenodd"/>
  <path fill="#000" fill-rule="evenodd" d="M20.638 17.44a.75.75 0 0 1-.016 1.061l-3.206 3.108a.832.832 0 0 1-.256.248.901.901 0 0 1-.473.13 1.02 1.02 0 0 1-.717-.294l-.038-.038-1.232-1.643a.75.75 0 0 1 1.2-.9l.815 1.088 2.863-2.776a.75.75 0 0 1 1.06.016Z" clip-rule="evenodd"/>
</svg>
