<svg xmlns="http://www.w3.org/2000/svg" viewBox="0 0 24 24" fill="currentColor">
  <path d="M2.03745 9c0-3.71421 3.03579-6.75 6.75-6.75h1.99995c.4143 0 .75.33579.75.75s-.3357.75-.75.75H8.78745c-2.88579 0-5.25 2.36421-5.25 5.25v6c0 1.5209.65668 2.8969 1.7003 3.8583.63967-1.8823 2.09254-3.4122 3.96322-4.143-.71681-.6831-1.16352-1.647-1.16352-2.7153 0-2.07107 1.67893-3.75 3.74995-3.75 2.0711 0 3.75 1.67893 3.75 3.75 0 1.0923-.4669 2.0755-1.2122 2.7609 1.8463.7535 3.2685 2.286 3.8637 4.2289 1.1293-.9651 1.8485-2.3981 1.8485-3.9898v-3c0-.4142.3358-.75.75-.75.4143 0 .75.3358.75.75v3c0 3.7142-3.0357 6.75-6.75 6.75H8.78745c-3.71421 0-6.75-3.0358-6.75-6.75V9ZM16.8586 19.8212c-.5357-2.3763-2.6118-4.0712-5.1711-4.0712-2.5134 0-4.57548 1.7244-5.14774 3.9907.68241.3263 1.44487.5093 2.24769.5093h5.99995c.7343 0 1.4348-.1531 2.0712-.4288ZM11.7874 9.75c-1.2426 0-2.24995 1.0074-2.24995 2.25s1.00735 2.25 2.24995 2.25c1.2427 0 2.25-1.0074 2.25-2.25s-1.0073-2.25-2.25-2.25Zm7.2698-6.28033c.2929-.29289.7678-.29289 1.0607 0l1.4 1.39999c.2705.27052.4447.62965.4447 1.03033 0 .40069-.1742.75982-.4447 1.03033l-1.4 1.4c-.2929.2929-.7678.2929-1.0607.00001-.2929-.2929-.2929-.76777 0-1.06066l1.3697-1.36968-1.3697-1.36966c-.2929-.29289-.2929-.76777 0-1.06066Zm-2.6393 1.16066c.2929-.29289.2929-.76776 0-1.06066-.2929-.29289-.7678-.29289-1.0607.00001l-1.4 1.4c-.2705.27052-.4447.62964-.4447 1.03033 0 .40068.1742.75981.4447 1.03033l1.4 1.39999c.2929.29289.7678.29289 1.0607 0 .2929-.29289.2929-.76777 0-1.06066l-1.3697-1.36966 1.3697-1.36968Z"/>
</svg>
