<svg xmlns="http://www.w3.org/2000/svg" fill="none" viewBox="0 0 24 24">
  <rect width="24" height="24" fill="#fff"/>
  <path stroke="#000" stroke-linecap="round" stroke-miterlimit="10" stroke-width="1.5" d="M21 12c0 5-4 9-9 9s-9-4-9-9 4-9 9-9"/>
  <path stroke="#000" stroke-miterlimit="10" stroke-width="1.5" d="M12 15c1.6569 0 3-1.3431 3-3s-1.3431-3-3-3-3 1.3431-3 3 1.3431 3 3 3Z"/>
  <path stroke="#000" stroke-miterlimit="10" stroke-width="1.5" d="M17.5999 19c-.8-2.3-3-4-5.6-4-2.60002 0-4.8 1.7-5.6 4"/>
  <path stroke="#000" stroke-linecap="round" stroke-miterlimit="10" stroke-width="1.5" d="m19.8 4 1.4 1.39999c.3.3.3.7 0 1L19.8 7.8"/>
  <path stroke="#000" stroke-linecap="round" stroke-miterlimit="10" stroke-width="1.5" d="m16.1001 7.89997-1.4-1.39999c-.3-.3-.3-.7 0-1l1.4-1.4"/>
</svg>
