<svg xmlns="http://www.w3.org/2000/svg" viewBox="0 0 24 24" fill="currentColor">
  <path d="M7.8 9.54993c0-1.24264 1.00735-2.25 2.25-2.25 1.2426 0 2.25 1.00736 2.25 2.25 0 1.24267-1.0074 2.24997-2.25 2.24997-1.24265 0-2.25-1.0073-2.25-2.24997Zm2.25-3.75c-2.07107 0-3.75 1.67893-3.75 3.75 0 1.07247.45018 2.03977 1.17187 2.72317-2.12252.8409-3.74626 2.727-4.16019 5.045-.07282.4078.19871.7974.60647.8702.40777.0728.79735-.1987.87017-.6065.4356-2.4394 2.62203-4.2819 5.16168-4.2819 2.5397 0 4.7261 1.8425 5.1617 4.2819.0728.4078.4624.6793.8701.6065.4078-.0728.6793-.4624.6065-.8702-.2891-1.6192-1.1686-3.0276-2.3959-4.0162 2.4786.0673 4.5918 1.8862 5.0193 4.2799.0728.4078.4624.6793.8701.6065.4078-.0728.6793-.4624.6065-.8702-.4078-2.284-1.9903-4.1486-4.067-5.0073.7304-.6785 1.1787-1.6541 1.1787-2.76087 0-2.11422-1.6358-3.75-3.75-3.75-.7402 0-1.4249.20835-1.9928.58186-.5803-.36847-1.2689-.58186-2.0072-.58186Zm4 5.99997c-.3225 0-.6168-.0635-.8751-.1763.395-.5939.6251-1.3069.6251-2.07367 0-.76675-.2301-1.47975-.6251-2.07371.2583-.11274.5526-.17629.8751-.17629 1.2858 0 2.25.96421 2.25 2.25 0 1.28577-.9642 2.24997-2.25 2.24997Z"/>
</svg>
