<svg xmlns="http://www.w3.org/2000/svg" viewBox="0 0 24 24" fill="currentColor">
  <path d="M16.0553 4.05531c.9273-.92735 2.2606-1.06563 3.255-.47639l-3.717 3.71702c-.6182-1.06643-.4499-2.39313.442-3.22137l.0102-.00944.0098-.00982Zm3.8201 3.85935c-.8342.89835-2.2152 1.04976-3.2337.45424l3.7149-3.71491c.6182 1.06644.45 2.39317-.442 3.22142l-.0203.0189-.0189.02035Zm1.0897-4.91021c-1.6052-1.71723-4.2818-1.68817-5.9607-.01957-1.7172 1.60522-1.6881 4.2818-.0195 5.96068 1.592 1.70254 4.374 1.70594 5.9707.01012 1.707-1.60624 1.6748-4.27563.0095-5.95123ZM3.27501 12.525c0-4.58576 3.66421-8.24998 8.24999-8.24998.4142 0 .75-.33578.75-.75 0-.41421-.3358-.75-.75-.75-5.4142 0-9.74999 4.33579-9.74999 9.74998 0 5.4142 4.33579 9.75 9.74999 9.75s9.75-4.3358 9.75-9.75c0-.4142-.3358-.75-.75-.75s-.75.3358-.75.75c0 2.2698-.8976 4.3138-2.3604 5.7994-.7232-1.3489-1.9033-2.4326-3.3577-3.0331.7486-.6856 1.218-1.6711 1.218-2.7663 0-2.071-1.6789-3.74998-3.75-3.74998-2.07102 0-3.74995 1.67898-3.74995 3.74998 0 1.0681.44655 2.0319 1.16315 2.7149-1.46037.576-2.637 1.6455-3.4101 2.9733-1.39916-1.4756-2.25299-3.4745-2.25299-5.6882Zm3.4085 6.6984c1.35616.9777 3.02666 1.5516 4.84149 1.5516 1.7561 0 3.377-.5373 4.7088-1.4579-.814-1.7731-2.6194-3.0421-4.8088-3.0421-2.12678 0-3.83949 1.2037-4.74149 2.9484Zm4.84139-8.9484c-1.2426 0-2.24995 1.0074-2.24995 2.25 0 1.2427 1.00735 2.25 2.24995 2.25 1.2427 0 2.25-1.0073 2.25-2.25 0-1.2426-1.0073-2.25-2.25-2.25Z"/>
</svg>
