<svg xmlns="http://www.w3.org/2000/svg" viewBox="0 0 24 24" fill="currentColor">
  <path d="M21.5804 2.36963c.2929.2929.2929.76777 0 1.06066l-1.6197 1.6197 1.6197 1.61969c.2929.2929.2929.76777 0 1.06066-.2929.2929-.7678.2929-1.0607 0L18.9 6.11065l-1.6197 1.61969c-.2929.2929-.7677.2929-1.0606 0-.2929-.29289-.2929-.76776 0-1.06066l1.6197-1.61969-1.6197-1.6197c-.2929-.29289-.2929-.76776 0-1.06066.2929-.29289.7677-.29289 1.0606 0L18.9 3.98933l1.6197-1.6197c.2929-.29289.7678-.29289 1.0607 0ZM11.95 3.85004c-4.58584 0-8.25005 3.66421-8.25005 8.24996 0 2.2137.85383 4.2126 2.25299 5.6883.7731-1.3279 1.94973-2.3974 3.4101-2.9733-.7166-.683-1.16315-1.6469-1.16315-2.715 0-2.071 1.67893-3.74996 3.75001-3.74996 2.0711 0 3.75 1.67896 3.75 3.74996 0 1.0952-.4695 2.0807-1.2181 2.7663 1.4545.6005 2.6345 1.6842 3.3577 3.0331C19.3023 16.4138 20.2 14.3698 20.2 12.1c0-.4142.3357-.75.75-.75.4142 0 .75.3358.75.75 0 5.4142-4.3358 9.75-9.75 9.75-5.41426 0-9.75005-4.3358-9.75005-9.75 0-5.41418 4.33579-9.74996 9.75005-9.74996.4142 0 .75.33578.75.75 0 .41421-.3358.75-.75.75Zm4.7087 15.04206c-.814-1.7731-2.6194-3.0421-4.8088-3.0421-2.12673 0-3.83945 1.2037-4.74145 2.9484C8.46461 19.7761 10.1351 20.35 11.95 20.35c1.756 0 3.3769-.5373 4.7087-1.4579Zm-4.7088-9.04206c-1.2427 0-2.25001 1.00736-2.25001 2.24996 0 1.2427 1.00731 2.25 2.25001 2.25 1.2426 0 2.25-1.0073 2.25-2.25 0-1.2426-1.0074-2.24996-2.25-2.24996Z"/>
</svg>
