<svg width="24" height="24" viewBox="0 0 24 24" fill="none" xmlns="http://www.w3.org/2000/svg">
<path fill-rule="evenodd" clip-rule="evenodd" d="M11.9 3.65002C9.71847 3.65002 7.95 5.4185 7.95 7.60002C7.95 9.78155 9.71847 11.55 11.9 11.55C14.0815 11.55 15.85 9.78155 15.85 7.60002C15.85 5.4185 14.0815 3.65002 11.9 3.65002ZM6.45 7.60002C6.45 4.59007 8.89004 2.15002 11.9 2.15002C14.9099 2.15002 17.35 4.59007 17.35 7.60002C17.35 10.61 14.9099 13.05 11.9 13.05C8.89004 13.05 6.45 10.61 6.45 7.60002Z" fill="black"/>
<path fill-rule="evenodd" clip-rule="evenodd" d="M10.4 13.05C8.01422 13.05 6.05 15.0143 6.05 17.4C6.05 18.9991 7.32737 20.35 9 20.35H14.9C16.56 20.35 17.8593 19.0085 17.95 17.3811C17.9396 15.0039 15.9795 13.05 13.6 13.05H10.4ZM4.55 17.4C4.55 14.1858 7.18579 11.55 10.4 11.55H13.6C16.8142 11.55 19.45 14.1858 19.45 17.4V17.4188L19.4491 17.4375C19.3309 19.8018 17.4337 21.85 14.9 21.85H9C6.47263 21.85 4.55 19.801 4.55 17.4Z" fill="black"/>
</svg>
