<svg xmlns="http://www.w3.org/2000/svg" viewBox="0 0 24 24" fill="currentColor">
  <path d="M16.3302 4.43033c.7246-.7246 1.75-.85734 2.5392-.4604l-2.9846 2.98456c-.4264-.85376-.2644-1.87255.4219-2.50162l.012-.01101.0115-.01153Zm3.1394 3.13933c-.6203.62028-1.634.77589-2.4897.41102l2.9352-2.93514c.4263.85375.2643 1.87252-.422 2.50158l-.012.01101-.0115.01153Zm1.0721-4.1885c-1.4073-1.52148-3.7841-1.48729-5.2606-.02293-1.5255 1.41098-1.4871 3.79647-.0115 5.27209l.0115.01152.012.01101c1.4696 1.34708 3.8193 1.38225 5.2256-.01101 1.5215-1.40731 1.4874-3.78416.023-5.26068ZM9 2.25C5.28579 2.25 2.25 5.28579 2.25 9v6c0 3.7142 3.03579 6.75 6.75 6.75h6c3.7142 0 6.75-3.0358 6.75-6.75v-2c0-.4142-.3358-.75-.75-.75s-.75.3358-.75.75v2c0 1.5917-.7193 3.0248-1.8486 3.9899-.5952-1.943-2.0175-3.4755-3.8637-4.229.7452-.6854 1.2122-1.6686 1.2122-2.7609 0-2.07107-1.679-3.75-3.75-3.75-2.07109 0-3.75002 1.67893-3.75002 3.75 0 1.0683.44671 2.0323 1.16352 2.7153-1.87065.7308-3.3235 2.2607-3.96318 4.1429C4.40664 17.8968 3.75 16.5208 3.75 15V9c0-2.88579 2.36421-5.25 5.25-5.25h3c.4142 0 .75-.33579.75-.75s-.3358-.75-.75-.75H9ZM6.7522 19.7407c.68245.3263 1.44494.5093 2.2478.5093h6c.7342 0 1.4347-.153 2.071-.4288-.5356-2.3763-2.6118-4.0712-5.1711-4.0712-2.51335 0-4.57541 1.7243-5.1477 3.9907ZM11.9999 9.75c-1.2427 0-2.25002 1.0074-2.25002 2.25s1.00732 2.25 2.25002 2.25c1.2426 0 2.25-1.0074 2.25-2.25s-1.0074-2.25-2.25-2.25Z"/>
</svg>
