<svg width="24" height="24" fill="none" xmlns="http://www.w3.org/2000/svg"><path fill="#fff" d="M0 0h24v24H0z"/><path d="M16 7.95002c-1.4-1.4-1.4-3.60002 0-4.90002 1.4-1.4 3.6-1.4 4.9 0 1.4 1.4 1.4 3.60002 0 4.90002-1.3 1.4-3.6 1.4-4.9 0zM20.9 3.05005L16 7.95007" stroke="#000" stroke-width="1.5" stroke-miterlimit="10"/><path d="M21 12.05c0 5-4 9-9 9s-9-4-9-9c0-4.99995 4-8.99995 9-8.99995" stroke="#000" stroke-width="1.5" stroke-miterlimit="10" stroke-linecap="round"/><path d="M12 15.05c1.6569 0 3-1.3431 3-3 0-1.6568-1.3431-2.99995-3-2.99995S9 10.3932 9 12.05c0 1.6569 1.3431 3 3 3zM17.6 19.05c-.8-2.3-3-4-5.7-4-2.70004 0-4.80005 1.7-5.70005 4" stroke="#000" stroke-width="1.5" stroke-miterlimit="10"/></svg>