<svg xmlns="http://www.w3.org/2000/svg" viewBox="0 0 24 24" fill="currentColor">
  <path d="M8.5 2.25C4.78579 2.25 1.75 5.28579 1.75 9v6c0 3.7142 3.03579 6.75 6.75 6.75h6c3.7142 0 6.75-3.0358 6.75-6.75v-4c0-.4142-.3358-.75-.75-.75s-.75.3358-.75.75v4c0 1.5949-.7221 3.0305-1.8554 3.9957-.5995-1.8976-2.0206-3.4542-3.8687-4.2241.7521-.6858 1.224-1.6736 1.224-2.7716 0-2.07107-1.679-3.75-3.75-3.75-2.07109 0-3.75002 1.67893-3.75002 3.75 0 1.0683.44671 2.0322 1.16352 2.7153-1.87066.7308-3.32351 2.2607-3.9632 4.1429C3.90664 17.8968 3.25 16.5208 3.25 15V9c0-2.88579 2.36421-5.25 5.25-5.25h6c.4142 0 .75-.33579.75-.75s-.3358-.75-.75-.75h-6Zm2.8999 13.5c2.5436 0 4.6249 1.7661 5.1677 4.0727-.6354.2748-1.3347.4273-2.0676.4273h-6c-.80287 0-1.56536-.183-2.24781-.5093.57229-2.2664 2.63435-3.9907 5.14771-3.9907ZM9.24988 12c0-1.2426 1.00732-2.25 2.25002-2.25 1.2426 0 2.25 1.0074 2.25 2.25s-1.0074 2.25-2.25 2.25c-1.2427 0-2.25002-1.0074-2.25002-2.25ZM22.0238 4.53684c.2964-.28926.3023-.7641.013-1.06058-.2892-.29649-.764-.30235-1.0605-.01309l-3.7197 3.62896L16.1 5.55c-.2485-.33137-.7186-.39853-1.05-.15-.3314.24853-.3985.71863-.15 1.05l1.532 2.04264.0377.03769c.2225.2225.5065.29467.7303.29467.2224 0 .5042-.07123.726-.29032l4.0978-3.99784Z"/>
</svg>
