<svg xmlns="http://www.w3.org/2000/svg" fill="none" viewBox="0 0 24 24">
  <path fill="#000" fill-rule="evenodd" d="M9.514 3.558c-2.181 0-3.95 1.778-3.95 3.97 0 2.193 1.769 3.97 3.95 3.97 2.182 0 3.95-1.777 3.95-3.97 0-2.192-1.768-3.97-3.95-3.97Zm-5.45 3.97c0-3.025 2.44-5.478 5.45-5.478 3.01 0 5.45 2.453 5.45 5.478s-2.44 5.478-5.45 5.478c-3.01 0-5.45-2.453-5.45-5.478Z" clip-rule="evenodd"/>
  <path fill="#000" fill-rule="evenodd" d="M8.014 13.006c-2.386 0-4.35 1.974-4.35 4.372 0 1.607 1.277 2.965 2.95 2.965h5.9c1.66 0 2.96-1.349 3.05-2.984-.01-2.39-1.97-4.353-4.35-4.353h-3.2Zm-5.85 4.372c0-3.23 2.636-5.88 5.85-5.88h3.2c3.214 0 5.85 2.65 5.85 5.88v.038c-.119 2.376-2.016 4.434-4.55 4.434h-5.9c-2.527 0-4.45-2.059-4.45-4.472Zm16.85-12.513c.414 0 .75.337.75.753V9.74a.752.752 0 0 1-.75.754.752.752 0 0 1-.75-.754V5.62c0-.417.336-.754.75-.754Z" clip-rule="evenodd"/>
  <path fill="#000" fill-rule="evenodd" d="m18.964 6.132 1.42 1.427a.747.747 0 0 0 1.06 0 .756.756 0 0 0 0-1.066l-1.786-1.796-.109-.054a1.398 1.398 0 0 0-.622-.155c-.22 0-.511.063-.743.296l-1.7 1.709a.756.756 0 0 0 0 1.066.747.747 0 0 0 1.06 0l1.42-1.427Z" clip-rule="evenodd"/>
</svg>
