<svg xmlns="http://www.w3.org/2000/svg" viewBox="0 0 24 24" fill="currentColor">
  <path d="M2.25 9c0-3.71421 3.03579-6.75 6.75-6.75h6c.4142 0 .75.33579.75.75s-.3358.75-.75.75H9C6.11421 3.75 3.75 6.11421 3.75 9v6c0 1.5208.65664 2.8968 1.70022 3.8582.63968-1.8822 2.09253-3.4121 3.96318-4.1429-.71681-.683-1.16352-1.647-1.16352-2.7153 0-2.07107 1.67893-3.75 3.75002-3.75 2.071 0 3.75 1.67893 3.75 3.75 0 1.098-.4719 2.0858-1.224 2.7716 1.8481.7699 3.2692 2.3265 3.8687 4.2241C19.5279 18.0305 20.25 16.5949 20.25 15v-4c0-.4142.3358-.75.75-.75s.75.3358.75.75v4c0 3.7142-3.0358 6.75-6.75 6.75H9c-3.71421 0-6.75-3.0358-6.75-6.75V9Zm14.8176 10.8227c-.5427-2.3066-2.6241-4.0727-5.1677-4.0727-2.51335 0-4.57541 1.7243-5.1477 3.9907.68245.3263 1.44494.5093 2.2478.5093h6c.7329 0 1.4322-.1525 2.0676-.4273ZM11.9999 9.75c-1.2427 0-2.25002 1.0074-2.25002 2.25s1.00732 2.25 2.25002 2.25c1.2426 0 2.25-1.0074 2.25-2.25s-1.0074-2.25-2.25-2.25ZM18 3.25c.4142 0 .75.33579.75.75v2.25H21c.4142 0 .75.33579.75.75s-.3358.75-.75.75h-2.25V10c0 .4142-.3358.75-.75.75s-.75-.3358-.75-.75V7.75H15c-.4142 0-.75-.33579-.75-.75s.3358-.75.75-.75h2.25V4c0-.41421.3358-.75.75-.75Z"/>
</svg>
