<svg width="24" height="24" fill="none" xmlns="http://www.w3.org/2000/svg"><path fill="#fff" d="M0 0h24v24H0z"/><path d="M14 3H8C4.7 3 2 5.7 2 9v6c0 3.3 2.7 6 6 6h6c3.3 0 6-2.7 6-6v-4" stroke="#000" stroke-width="1.5" stroke-miterlimit="10" stroke-linecap="round"/><path d="M11 15c1.6569 0 3-1.3431 3-3s-1.3431-3-3-3c-1.65685 0-3 1.3431-3 3s1.34315 3 3 3zM16.8999 20.2c-.4-2.9-2.9-5.2-6-5.2s-5.6 2.3-6 5.2" stroke="#000" stroke-width="1.5" stroke-miterlimit="10"/><path d="M15 6l1.5 2c.1.1.3.1.4 0L21 4" stroke="#000" stroke-width="1.5" stroke-miterlimit="10" stroke-linecap="round"/></svg>