<svg xmlns="http://www.w3.org/2000/svg" viewBox="0 0 24 24" fill="currentColor">
  <path d="M12 3.75c-4.58579 0-8.25 3.66421-8.25 8.25 0 2.2137.85383 4.2126 2.25299 5.6882.7731-1.3278 1.94973-2.3974 3.4101-2.9733-.7166-.683-1.16315-1.6468-1.16315-2.7149 0-2.07107 1.67893-3.75 3.74996-3.75 2.0711 0 3.75 1.67893 3.75 3.75 0 1.0951-.4694 2.0806-1.218 2.7662 1.4368.5933 2.6059 1.6582 3.3313 2.9844C19.3323 16.2538 20.25 14.2149 20.25 12c0-4.58579-3.6642-8.25-8.25-8.25Zm4.6885 14.9984C15.8651 16.9982 14.0714 15.75 11.9 15.75c-2.12678 0-3.8395 1.2037-4.7415 2.9483C8.51466 19.6761 10.1852 20.25 12 20.25c1.7278 0 3.3486-.5585 4.6885-1.5016ZM2.25 12c0-5.41421 4.33579-9.75 9.75-9.75 5.4142 0 9.75 4.33579 9.75 9.75 0 5.3142-4.4358 9.75-9.75 9.75-5.41421 0-9.75-4.3358-9.75-9.75Zm9.7499-2.25c-1.2426 0-2.24996 1.0074-2.24996 2.25s1.00736 2.25 2.24996 2.25c1.2427 0 2.25-1.0074 2.25-2.25s-1.0073-2.25-2.25-2.25Z"/>
</svg>
