<svg xmlns="http://www.w3.org/2000/svg" fill="none" viewBox="0 0 24 24">
  <path fill="#000" d="M9.487 12.302a4.724 4.724 0 1 0 0-9.448 4.724 4.724 0 0 0 0 9.448Z"/>
  <path fill="#000" fill-rule="evenodd" d="M9.487 3.608a3.97 3.97 0 1 0 0 7.94 3.97 3.97 0 0 0 0-7.94ZM4.01 7.578a5.478 5.478 0 1 1 10.955 0 5.478 5.478 0 0 1-10.955 0Z" clip-rule="evenodd"/>
  <path fill="#000" d="M12.503 21.146h-5.93a3.71 3.71 0 0 1-3.72-3.719c0-2.814 2.312-5.125 5.127-5.125h3.216c2.814 0 5.126 2.311 5.126 5.125-.1 2.01-1.709 3.72-3.82 3.72Z"/>
  <path fill="#000" fill-rule="evenodd" d="M7.98 13.055c-2.398 0-4.372 1.975-4.372 4.372a2.956 2.956 0 0 0 2.965 2.965h5.93c1.668 0 2.974-1.348 3.065-2.984-.01-2.389-1.98-4.353-4.372-4.353H7.98ZM2.1 17.427c0-3.23 2.65-5.88 5.88-5.88h3.216c3.23 0 5.88 2.65 5.88 5.88v.02l-.001.018c-.12 2.376-2.026 4.435-4.572 4.435h-5.93c-2.54 0-4.473-2.06-4.473-4.473Zm16.634-9.699c.416 0 .754.338.754.754v4.925a.754.754 0 1 1-1.508 0V8.482c0-.416.338-.754.754-.754Z" clip-rule="evenodd"/>
  <path fill="#000" fill-rule="evenodd" d="M15.467 10.995c0-.416.338-.754.754-.754h4.925a.754.754 0 0 1 0 1.508h-4.925a.754.754 0 0 1-.754-.754Z" clip-rule="evenodd"/>
</svg>
