<svg xmlns="http://www.w3.org/2000/svg" fill="none" viewBox="0 0 24 24">
  <rect width="24" height="24" fill="#fff"/>
  <path stroke="#000" stroke-miterlimit="10" stroke-width="1.5" d="M15 21H9c-3.3 0-6-2.7-6-6V9c0-3.3 2.7-6 6-6h6c3.3 0 6 2.7 6 6v6c0 3.3-2.7 6-6 6Z"/>
  <path stroke="#000" stroke-miterlimit="10" stroke-width="1.5" d="M11.9999 15c1.6568 0 3-1.3431 3-3s-1.3432-3-3-3c-1.6569 0-3.00002 1.3431-3.00002 3s1.34312 3 3.00002 3Z"/>
  <path stroke="#000" stroke-miterlimit="10" stroke-width="1.5" d="M17.8999 20.2c-.4-2.9-2.9-5.2-6-5.2s-5.6 2.3-6 5.2"/>
</svg>
