<svg xmlns="http://www.w3.org/2000/svg" fill="none" viewBox="0 0 24 24">
  <path fill="#000" fill-rule="evenodd" d="M16.751 4.03a.887.887 0 0 0-.663.284c-.304.312-.304.947 0 1.258l2 2.051 1.702-1.746.159-.163c.24-.34.316-.569.316-.72 0-.21-.021-.336-.052-.418a.4.4 0 0 0-.146-.191l-.042-.033-.037-.038c-.304-.312-.923-.312-1.227 0l-.926.95-.478-.979c-.279-.193-.473-.256-.606-.256Zm1.317-1.088c-.38-.243-.824-.436-1.317-.436-.712 0-1.292.3-1.713.731-.883.907-.883 2.506 0 3.412l2.038 2.09c.239.32.595.494.974.494.392 0 .746-.182 1.008-.451l2.017-2.07.032-.043c.329-.45.643-1.02.643-1.675 0-.603-.12-1.286-.75-1.795-.778-.76-2.044-.845-2.932-.257Zm-.08 4.78h.001-.001ZM6.099 6.032C7.543 4.555 9.627 3.623 11.9 3.623c.41 0 .742-.34.742-.761A.752.752 0 0 0 11.9 2.1c-2.671 0-5.137 1.095-6.86 2.863l-.008.008-.008.009C3.326 6.832 2.25 9.247 2.25 12c0 2.74 1.068 5.27 2.791 7.037l.01.01c.196.202.438.45.796.694a.731.731 0 0 0 1.03-.21.774.774 0 0 0-.206-1.057 3.623 3.623 0 0 1-.58-.514C4.647 16.478 3.735 14.337 3.735 12c0-2.32.9-4.369 2.364-5.968Zm14.711 5.207c.41 0 .742.34.742.761 0 3.076-1.39 5.942-3.658 7.713a.73.73 0 0 1-1.04-.144.775.775 0 0 1 .14-1.067c1.89-1.477 3.073-3.891 3.073-6.502 0-.42.333-.761.743-.761Z" clip-rule="evenodd"/>
  <path fill="#000" d="M11.901 15.046c1.64 0 2.97-1.364 2.97-3.046 0-1.682-1.33-3.046-2.97-3.046-1.64 0-2.97 1.364-2.97 3.046 0 1.682 1.33 3.046 2.97 3.046Z"/>
  <path fill="#000" fill-rule="evenodd" d="M11.901 9.715c-1.23 0-2.227 1.023-2.227 2.285 0 1.262.997 2.285 2.227 2.285s2.227-1.023 2.227-2.285c0-1.262-.997-2.285-2.227-2.285ZM8.189 12c0-2.103 1.662-3.808 3.712-3.808 2.05 0 3.712 1.705 3.712 3.808 0 2.103-1.662 3.808-3.712 3.808-2.05 0-3.712-1.705-3.712-3.808Z" clip-rule="evenodd"/>
  <path fill="#000" d="M17.444 19.108c-1.485 1.32-3.464 2.03-5.543 2.03-2.178 0-4.058-.812-5.642-2.03.792-2.336 2.97-4.062 5.642-4.062 2.574 0 4.751 1.625 5.543 4.062Z"/>
  <path fill="#000" fill-rule="evenodd" d="M7.168 18.837c1.376.946 2.95 1.54 4.733 1.54 1.731 0 3.369-.535 4.655-1.514-.805-1.851-2.575-3.055-4.655-3.055-2.143 0-3.914 1.26-4.733 3.029Zm-1.61.02c.893-2.633 3.346-4.572 6.343-4.572 2.89 0 5.354 1.832 6.247 4.582l.157.483-.375.333c-1.632 1.451-3.789 2.217-6.029 2.217-2.37 0-4.403-.887-6.088-2.183l-.434-.334.179-.525Z" clip-rule="evenodd"/>
</svg>
