<svg width="24" height="24" fill="none" xmlns="http://www.w3.org/2000/svg"><path fill="#fff" d="M0 0h24v24H0z"/><path d="M21 12c0 5-4 9-9 9s-9-4-9-9 4-9 9-9" stroke="#000" stroke-width="1.5" stroke-miterlimit="10" stroke-linecap="round"/><path d="M12 15c1.6569 0 3-1.3431 3-3s-1.3431-3-3-3-3 1.3431-3 3 1.3431 3 3 3zM17.5999 19c-.8-2.3-3-4-5.6-4-2.60002 0-4.8 1.7-5.6 4" stroke="#000" stroke-width="1.5" stroke-miterlimit="10"/><path d="M19.8 4l1.4 1.39999c.3.3.3.7 0 1L19.8 7.8M16.1001 7.89997l-1.4-1.39999c-.3-.3-.3-.7 0-1l1.4-1.4" stroke="#000" stroke-width="1.5" stroke-miterlimit="10" stroke-linecap="round"/></svg>