<svg width="24" height="24" viewBox="0 0 24 24" fill="none" xmlns="http://www.w3.org/2000/svg">
<path fill-rule="evenodd" clip-rule="evenodd" d="M12 3.75C7.41421 3.75 3.75 7.41421 3.75 12C3.75 14.2137 4.60383 16.2126 6.00299 17.6882C6.77609 16.3604 7.95272 15.2908 9.41309 14.7149C8.69649 14.0319 8.24994 13.0681 8.24994 12C8.24994 9.92893 9.92887 8.25 11.9999 8.25C14.071 8.25 15.7499 9.92893 15.7499 12C15.7499 13.0951 15.2805 14.0806 14.5319 14.7662C15.9863 15.3668 17.1664 16.4505 17.8896 17.7994C19.3523 16.3137 20.25 14.2698 20.25 12C20.25 11.5858 20.5858 11.25 21 11.25C21.4142 11.25 21.75 11.5858 21.75 12C21.75 17.4142 17.4142 21.75 12 21.75C6.58579 21.75 2.25 17.4142 2.25 12C2.25 6.58579 6.58579 2.25 12 2.25C12.4142 2.25 12.75 2.58579 12.75 3C12.75 3.41421 12.4142 3.75 12 3.75ZM16.7088 18.792C15.8948 17.019 14.0893 15.75 11.9 15.75C9.77322 15.75 8.0605 16.9537 7.1585 18.6983C8.51466 19.6761 10.1852 20.25 12 20.25C13.7561 20.25 15.377 19.7127 16.7088 18.792ZM11.9999 9.75C10.7573 9.75 9.74994 10.7574 9.74994 12C9.74994 13.2426 10.7573 14.25 11.9999 14.25C13.2426 14.25 14.2499 13.2426 14.2499 12C14.2499 10.7574 13.2426 9.75 11.9999 9.75ZM18 2.25C18.4142 2.25 18.75 2.58579 18.75 3V5.25H21C21.4142 5.25 21.75 5.58579 21.75 6C21.75 6.41421 21.4142 6.75 21 6.75H18.75V9C18.75 9.41421 18.4142 9.75 18 9.75C17.5858 9.75 17.25 9.41421 17.25 9V6.75H15C14.5858 6.75 14.25 6.41421 14.25 6C14.25 5.58579 14.5858 5.25 15 5.25H17.25V3C17.25 2.58579 17.5858 2.25 18 2.25Z" fill="black"/>
</svg>
