<svg xmlns="http://www.w3.org/2000/svg" viewBox="0 0 24 24" fill="currentColor">
  <path d="M11.7874 3.75c-4.58574 0-8.24995 3.66421-8.24995 8.25 0 2.2697.89762 4.3137 2.36033 5.7993.72519-1.3539 1.90797-2.4433 3.34739-3.0426-.74261-.6852-1.20772-1.6666-1.20772-2.7567 0-2.07107 1.67893-3.75 3.74995-3.75 2.0711 0 3.75 1.67893 3.75 3.75 0 1.0901-.4651 2.0715-1.2077 2.7567 1.4394.5993 2.6222 1.6887 3.3474 3.0426 1.4627-1.4857 2.3603-3.5296 2.3603-5.7993 0-.4142.3358-.75.75-.75.4143 0 .75.3358.75.75 0 5.4142-4.3357 9.75-9.75 9.75-5.41417 0-9.74995-4.3358-9.74995-9.75 0-5.41421 4.33578-9.75 9.74995-9.75.4143 0 .75.33579.75.75s-.3357.75-.75.75Zm4.7089 15.042c-.8157-1.7785-2.618-3.042-4.7089-3.042-2.09081 0-3.89308 1.2635-4.70877 3.042 1.33178.9207 2.95277 1.458 4.70877 1.458 1.7561 0 3.3771-.5373 4.7089-1.458ZM11.7874 9.75c-1.2426 0-2.24995 1.0074-2.24995 2.25s1.00735 2.25 2.24995 2.25c1.2427 0 2.25-1.0074 2.25-2.25s-1.0073-2.25-2.25-2.25Zm7.2698-6.28033c.2929-.29289.7678-.29289 1.0607 0l1.4 1.39999c.2705.27052.4446.62965.4446 1.03033 0 .40069-.1741.75982-.4446 1.03033l-1.4 1.4c-.2929.2929-.7678.2929-1.0607.00001-.2929-.2929-.2929-.76777 0-1.06066l1.3697-1.36968-1.3697-1.36966c-.2929-.29289-.2929-.76777 0-1.06066Zm-2.6393 1.16066c.2929-.29289.2929-.76776 0-1.06066-.2929-.29289-.7678-.29289-1.0607.00001l-1.4 1.4c-.2705.27052-.4447.62964-.4447 1.03033 0 .40068.1742.75981.4447 1.03033l1.4 1.39999c.2929.29289.7678.29289 1.0607 0 .2929-.29289.2929-.76777 0-1.06066l-1.3697-1.36966 1.3697-1.36968Z"/>
</svg>
