<svg xmlns="http://www.w3.org/2000/svg" fill="none" viewBox="0 0 24 24">
  <rect width="24" height="24" fill="#fff"/>
  <path stroke="#000" stroke-linecap="round" stroke-miterlimit="10" stroke-width="1.5" d="M14 3H8C4.7 3 2 5.7 2 9v6c0 3.3 2.7 6 6 6h6c3.3 0 6-2.7 6-6v-4"/>
  <path stroke="#000" stroke-miterlimit="10" stroke-width="1.5" d="M11 15c1.6569 0 3-1.3431 3-3s-1.3431-3-3-3c-1.65685 0-3 1.3431-3 3s1.34315 3 3 3Z"/>
  <path stroke="#000" stroke-miterlimit="10" stroke-width="1.5" d="M16.8999 20.2c-.4-2.9-2.9-5.2-6-5.2s-5.6 2.3-6 5.2"/>
  <path stroke="#000" stroke-linecap="round" stroke-miterlimit="10" stroke-width="1.5" d="m15 6 1.5 2c.1.1.3.1.4 0L21 4"/>
</svg>
