<svg xmlns="http://www.w3.org/2000/svg" viewBox="0 0 24 24" fill="currentColor">
  <path d="M12 3.75c-4.58579 0-8.25 3.66421-8.25 8.25 0 2.2137.85383 4.2126 2.25299 5.6882.7731-1.3278 1.94973-2.3974 3.4101-2.9733-.7166-.683-1.16315-1.6468-1.16315-2.7149 0-2.07107 1.67893-3.75 3.74996-3.75 2.0711 0 3.75 1.67893 3.75 3.75 0 1.0951-.4694 2.0806-1.218 2.7662 1.4544.6006 2.6345 1.6843 3.3577 3.0332C19.3523 16.3137 20.25 14.2698 20.25 12c0-.4142.3358-.75.75-.75s.75.3358.75.75c0 5.4142-4.3358 9.75-9.75 9.75-5.41421 0-9.75-4.3358-9.75-9.75 0-5.41421 4.33579-9.75 9.75-9.75.4142 0 .75.33579.75.75s-.3358.75-.75.75Zm4.7088 15.042c-.814-1.773-2.6195-3.042-4.8088-3.042-2.12678 0-3.8395 1.2037-4.7415 2.9483C8.51466 19.6761 10.1852 20.25 12 20.25c1.7561 0 3.377-.5373 4.7088-1.458ZM11.9999 9.75c-1.2426 0-2.24996 1.0074-2.24996 2.25s1.00736 2.25 2.24996 2.25c1.2427 0 2.25-1.0074 2.25-2.25s-1.0073-2.25-2.25-2.25ZM18 2.25c.4142 0 .75.33579.75.75v2.25H21c.4142 0 .75.33579.75.75s-.3358.75-.75.75h-2.25V9c0 .41421-.3358.75-.75.75s-.75-.33579-.75-.75V6.75H15c-.4142 0-.75-.33579-.75-.75s.3358-.75.75-.75h2.25V3c0-.41421.3358-.75.75-.75Z"/>
</svg>
