<svg width="24" height="24" viewBox="0 0 24 24" fill="none" xmlns="http://www.w3.org/2000/svg">
<path fill-rule="evenodd" clip-rule="evenodd" d="M9.84999 3.65002C7.66847 3.65002 5.89999 5.4185 5.89999 7.60002C5.89999 9.78155 7.66847 11.55 9.84999 11.55C12.0315 11.55 13.8 9.78155 13.8 7.60002C13.8 5.4185 12.0315 3.65002 9.84999 3.65002ZM4.39999 7.60002C4.39999 4.59007 6.84004 2.15002 9.84999 2.15002C12.8599 2.15002 15.3 4.59007 15.3 7.60002C15.3 10.61 12.8599 13.05 9.84999 13.05C6.84004 13.05 4.39999 10.61 4.39999 7.60002Z" fill="black"/>
<path fill-rule="evenodd" clip-rule="evenodd" d="M8.35 13.05C5.96421 13.05 4 15.0143 4 17.4C4 18.9991 5.27737 20.35 6.95 20.35H12.85C14.51 20.35 15.8093 19.0085 15.9 17.3811C15.8896 15.0039 13.9295 13.05 11.55 13.05H8.35ZM2.5 17.4C2.5 14.1858 5.13579 11.55 8.35 11.55H11.55C14.7642 11.55 17.4 14.1858 17.4 17.4V17.4188L17.3991 17.4375C17.2809 19.8018 15.3837 21.85 12.85 21.85H6.95C4.42263 21.85 2.5 19.801 2.5 17.4Z" fill="black"/>
<path fill-rule="evenodd" clip-rule="evenodd" d="M21.2803 8.66968C21.5732 8.96258 21.5732 9.43745 21.2803 9.73034L17.7803 13.2303C17.4874 13.5232 17.0126 13.5232 16.7197 13.2303C16.4268 12.9374 16.4268 12.4626 16.7197 12.1697L20.2197 8.66968C20.5126 8.37679 20.9874 8.37679 21.2803 8.66968Z" fill="black"/>
<path fill-rule="evenodd" clip-rule="evenodd" d="M16.7197 8.66968C17.0126 8.37679 17.4874 8.37679 17.7803 8.66968L21.2803 12.1697C21.5732 12.4626 21.5732 12.9374 21.2803 13.2303C20.9874 13.5232 20.5126 13.5232 20.2197 13.2303L16.7197 9.73034C16.4268 9.43745 16.4268 8.96258 16.7197 8.66968Z" fill="black"/>
</svg>
