<svg xmlns="http://www.w3.org/2000/svg" fill="none" viewBox="0 0 24 24">
  <rect width="24" height="24" fill="#fff"/>
  <path stroke="#000" stroke-miterlimit="10" stroke-width="1.5" d="M15.7999 8.09998c-1.2-1.2-1.2-3.09998 0-4.19998 1.2-1.2 3.1-1.2 4.2 0 1.2 1.2 1.2 3.09998 0 4.19998-1.1 1.1-3 1.1-4.2 0Z"/>
  <path stroke="#000" stroke-miterlimit="10" stroke-width="1.5" d="m20.0999 3.80005-4.3001 4.29999"/>
  <path stroke="#000" stroke-linecap="round" stroke-miterlimit="10" stroke-width="1.5" d="M12 3H9C5.7 3 3 5.7 3 9v6c0 3.3 2.7 6 6 6h6c3.3 0 6-2.7 6-6v-2"/>
  <path stroke="#000" stroke-miterlimit="10" stroke-width="1.5" d="M12 15c1.6569 0 3-1.3431 3-3s-1.3431-3-3-3-3 1.3431-3 3 1.3431 3 3 3Z"/>
  <path stroke="#000" stroke-miterlimit="10" stroke-width="1.5" d="M17.8999 20.2c-.4-3-2.9-5.2-6-5.2s-5.6 2.3-6 5.2"/>
</svg>
