<svg xmlns="http://www.w3.org/2000/svg" fill="none" viewBox="0 0 24 24">
  <path fill="#000" fill-rule="evenodd" d="M2.25 9c0-3.714 3.036-6.75 6.75-6.75h6a.75.75 0 0 1 0 1.5H9C6.114 3.75 3.75 6.114 3.75 9v6a5.24 5.24 0 0 0 1.7 3.858 6.817 6.817 0 0 1 3.963-4.143 3.75 3.75 0 1 1 5.113.056 6.816 6.816 0 0 1 3.869 4.225A5.244 5.244 0 0 0 20.25 15v-4a.75.75 0 0 1 1.5 0v4c0 3.714-3.036 6.75-6.75 6.75H9c-3.714 0-6.75-3.036-6.75-6.75V9Zm14.818 10.823A5.302 5.302 0 0 0 11.9 15.75a5.303 5.303 0 0 0-5.148 3.99c.683.327 1.445.51 2.248.51h6c.733 0 1.432-.152 2.068-.427ZM12 9.75a2.25 2.25 0 1 0 0 4.5 2.25 2.25 0 0 0 0-4.5Zm6-6.5a.75.75 0 0 1 .75.75v2.25H21a.75.75 0 0 1 0 1.5h-2.25V10a.75.75 0 0 1-1.5 0V7.75H15a.75.75 0 0 1 0-1.5h2.25V4a.75.75 0 0 1 .75-.75Z" clip-rule="evenodd"/>
</svg>
