<svg xmlns="http://www.w3.org/2000/svg" fill="none" viewBox="0 0 24 24">
  <rect width="24" height="24" fill="#fff"/>
  <path stroke="#000" stroke-miterlimit="10" stroke-width="1.5" d="M10 13c1.6569 0 3-1.3431 3-3 0-1.65685-1.3431-3-3-3-1.65685 0-3 1.34315-3 3 0 1.6569 1.34315 3 3 3Z"/>
  <path stroke="#000" stroke-linecap="round" stroke-miterlimit="10" stroke-width="1.5" d="M15.8 17.9c-.5-2.8-3-4.9-5.9-4.9C7 13 4.5 15.1 4 17.9"/>
  <path stroke="#000" stroke-miterlimit="10" stroke-width="1.5" d="M12 12.2c.5.5 1.2.8 2 .8 1.7 0 3-1.3 3-3s-1.3-3-3-3c-.8 0-1.5.30002-2 .80002"/>
  <path stroke="#000" stroke-linecap="round" stroke-miterlimit="10" stroke-width="1.5" d="M14 13c2.9 0 5.4 2.1 5.9 4.9"/>
</svg>
