<svg xmlns="http://www.w3.org/2000/svg" viewBox="0 0 24 24" fill="currentColor">
  <path d="M9 3.75C6.11421 3.75 3.75 6.11421 3.75 9v6c0 1.5208.65664 2.8968 1.7002 3.8582.63969-1.8822 2.09254-3.4121 3.9632-4.1429-.71681-.6831-1.16352-1.647-1.16352-2.7153 0-2.07107 1.67893-3.75 3.75002-3.75 2.071 0 3.75 1.67893 3.75 3.75 0 1.098-.4719 2.0858-1.224 2.7716 1.8481.7699 3.2692 2.3265 3.8687 4.2241C19.5279 18.0305 20.25 16.5949 20.25 15V9c0-2.88579-2.3642-5.25-5.25-5.25H9Zm8.0676 16.0727c-.5428-2.3066-2.6241-4.0727-5.1677-4.0727-2.51336 0-4.57542 1.7243-5.14771 3.9907.68245.3263 1.44494.5093 2.24781.5093h6c.7329 0 1.4322-.1525 2.0676-.4273ZM2.25 9c0-3.71421 3.03579-6.75 6.75-6.75h6c3.7142 0 6.75 3.03579 6.75 6.75v6c0 3.7142-3.0358 6.75-6.75 6.75H9c-3.71421 0-6.75-3.0358-6.75-6.75V9Zm9.7499.75c-1.2427 0-2.25002 1.0074-2.25002 2.25s1.00732 2.25 2.25002 2.25c1.2426 0 2.25-1.0074 2.25-2.25s-1.0074-2.25-2.25-2.25Z"/>
</svg>
