<svg width="24" height="24" viewBox="0 0 24 24" fill="none" xmlns="http://www.w3.org/2000/svg">
<path fill-rule="evenodd" clip-rule="evenodd" d="M20.5 10.25C20.9142 10.25 21.25 10.5858 21.25 11V15C21.25 17.4728 19.9006 19.7314 17.7493 20.8637C17.3828 21.0566 16.9292 20.9159 16.7363 20.5493C16.5434 20.1828 16.6841 19.7292 17.0507 19.5363C18.6993 18.6686 19.75 16.9272 19.75 15V11C19.75 10.5858 20.0858 10.25 20.5 10.25Z" fill="black"/>
<path fill-rule="evenodd" clip-rule="evenodd" d="M8.5 3.75C5.61421 3.75 3.25 6.11421 3.25 9V15C3.25 16.932 4.30615 18.6788 5.86423 19.5444C6.22632 19.7455 6.35678 20.2021 6.15562 20.5642C5.95446 20.9263 5.49786 21.0568 5.13577 20.8556C3.09385 19.7212 1.75 17.468 1.75 15V9C1.75 5.28579 4.78579 2.25 8.5 2.25H14.5C14.9142 2.25 15.25 2.58579 15.25 3C15.25 3.41421 14.9142 3.75 14.5 3.75H8.5Z" fill="black"/>
<path d="M11.5 15C13.1569 15 14.5 13.6569 14.5 12C14.5 10.3431 13.1569 9 11.5 9C9.84315 9 8.5 10.3431 8.5 12C8.5 13.6569 9.84315 15 11.5 15Z" fill="black"/>
<path fill-rule="evenodd" clip-rule="evenodd" d="M11.5 9.75C10.2574 9.75 9.25 10.7574 9.25 12C9.25 13.2426 10.2574 14.25 11.5 14.25C12.7426 14.25 13.75 13.2426 13.75 12C13.75 10.7574 12.7426 9.75 11.5 9.75ZM7.75 12C7.75 9.92893 9.42893 8.25 11.5 8.25C13.5711 8.25 15.25 9.92893 15.25 12C15.25 14.0711 13.5711 15.75 11.5 15.75C9.42893 15.75 7.75 14.0711 7.75 12Z" fill="black"/>
<path d="M17.4 20.1999C16.5 20.6999 15.5 20.9999 14.5 20.9999H8.49998C7.39998 20.9999 6.39998 20.6999 5.59998 20.1999C5.99998 17.1999 8.49998 14.9999 11.5 14.9999C14.5 14.9999 17 17.1999 17.4 20.1999Z" fill="black"/>
<path fill-rule="evenodd" clip-rule="evenodd" d="M6.43328 19.8016C7.02954 20.0832 7.73226 20.2499 8.50001 20.2499H14.5C15.1876 20.2499 15.891 20.0827 16.5622 19.7818C16.0119 17.42 13.9451 15.7499 11.5 15.7499C9.04812 15.7499 6.97661 17.4294 6.43328 19.8016ZM4.85659 20.1008C5.30573 16.7323 8.12004 14.2499 11.5 14.2499C14.88 14.2499 17.6943 16.7323 18.1434 20.1008L18.211 20.6074L17.7642 20.8556C16.7729 21.4063 15.6486 21.7499 14.5 21.7499H8.50001C7.26405 21.7499 6.12556 21.4128 5.20251 20.8359L4.79272 20.5798L4.85659 20.1008Z" fill="black"/>
<path fill-rule="evenodd" clip-rule="evenodd" d="M22.0369 3.47626C22.3261 3.77274 22.3203 4.24758 22.0238 4.53684L17.926 8.5347C17.7042 8.75376 17.4224 8.825 17.2 8.825C16.9762 8.825 16.6922 8.75281 16.4697 8.53033L16.432 8.49264L14.9 6.45C14.6515 6.11863 14.7187 5.64853 15.05 5.4C15.3814 5.15147 15.8515 5.21863 16.1 5.55L17.2566 7.09211L20.9763 3.46316C21.2728 3.17391 21.7476 3.17977 22.0369 3.47626Z" fill="black"/>
</svg>
