<svg width="24" height="24" fill="none" xmlns="http://www.w3.org/2000/svg"><path fill="#fff" d="M0 0h24v24H0z"/><path d="M11 3H9C5.7 3 3 5.7 3 9v6c0 3.3 2.7 6 6 6h6c3.3 0 6-2.7 6-6v-3" stroke="#000" stroke-width="1.5" stroke-miterlimit="10" stroke-linecap="round"/><path d="M12 15c1.6569 0 3-1.3431 3-3s-1.3431-3-3-3-3 1.3431-3 3 1.3431 3 3 3zM17.8999 20.2c-.4-3-2.9-5.2-6-5.2s-5.6 2.3-6 5.2" stroke="#000" stroke-width="1.5" stroke-miterlimit="10"/><path d="M19.8 4l1.4 1.39999c.3.3.3.7 0 1L19.8 7.8M16.1001 7.89997l-1.4-1.39999c-.3-.3-.3-.7 0-1l1.4-1.4" stroke="#000" stroke-width="1.5" stroke-miterlimit="10" stroke-linecap="round"/></svg>