<svg width="24" height="24" viewBox="0 0 24 24" fill="none" xmlns="http://www.w3.org/2000/svg">
<path fill-rule="evenodd" clip-rule="evenodd" d="M6.13833 6.12235C7.5971 4.6679 9.70273 3.75 12 3.75C12.4142 3.75 12.75 3.41421 12.75 3C12.75 2.58579 12.4142 2.25 12 2.25C9.30148 2.25 6.8106 3.32874 5.06967 5.06967L5.06164 5.0777L5.05385 5.08598C3.33717 6.90995 2.25 9.28911 2.25 12C2.25 14.6985 3.32874 17.1894 5.06967 18.9303L5.0791 18.9398C5.27819 19.1389 5.52197 19.3827 5.88398 19.624C6.22862 19.8538 6.69427 19.7607 6.92404 19.416C7.1538 19.0714 7.06067 18.6057 6.71603 18.376C6.48377 18.2211 6.3295 18.0688 6.13033 17.8697C4.67126 16.4106 3.75 14.3015 3.75 12C3.75 9.71491 4.65962 7.69716 6.13833 6.12235Z" fill="black"/>
<path fill-rule="evenodd" clip-rule="evenodd" d="M21 11.25C21.4142 11.25 21.75 11.5858 21.75 12C21.75 15.0289 20.3448 17.8516 18.0545 19.5966C17.7251 19.8476 17.2545 19.784 17.0034 19.4545C16.7524 19.1251 16.816 18.6545 17.1455 18.4034C19.0552 16.9484 20.25 14.5711 20.25 12C20.25 11.5858 20.5858 11.25 21 11.25Z" fill="black"/>
<path d="M12 15C13.6569 15 15 13.6569 15 12C15 10.3431 13.6569 9 12 9C10.3431 9 9 10.3431 9 12C9 13.6569 10.3431 15 12 15Z" fill="black"/>
<path fill-rule="evenodd" clip-rule="evenodd" d="M12 9.75C10.7574 9.75 9.75 10.7574 9.75 12C9.75 13.2426 10.7574 14.25 12 14.25C13.2426 14.25 14.25 13.2426 14.25 12C14.25 10.7574 13.2426 9.75 12 9.75ZM8.25 12C8.25 9.92893 9.92893 8.25 12 8.25C14.0711 8.25 15.75 9.92893 15.75 12C15.75 14.0711 14.0711 15.75 12 15.75C9.92893 15.75 8.25 14.0711 8.25 12Z" fill="black"/>
<path d="M17.6 18.9999C16.1 20.2999 14.1 20.9999 11.9 20.9999C9.69998 20.9999 7.79998 20.1999 6.19998 18.9999C6.99998 16.6999 9.19998 14.9999 11.9 14.9999C14.6 14.9999 16.8 16.5999 17.6 18.9999Z" fill="black"/>
<path fill-rule="evenodd" clip-rule="evenodd" d="M7.11883 18.7328C8.50873 19.6647 10.0995 20.2499 11.9 20.2499C13.7429 20.2499 15.405 19.7214 16.7027 18.7589C15.8911 16.9409 14.0995 15.7499 11.9 15.7499C9.73505 15.7499 7.94555 16.9907 7.11883 18.7328ZM5.49162 18.7535C6.39366 16.1602 8.87221 14.2499 11.9 14.2499C14.913 14.2499 17.4064 16.0474 18.3115 18.7628L18.47 19.2384L18.0912 19.5667C16.4393 20.9984 14.2587 21.7499 11.9 21.7499C9.50633 21.7499 7.45224 20.8766 5.74999 19.5999L5.31158 19.2711L5.49162 18.7535Z" fill="black"/>
<path fill-rule="evenodd" clip-rule="evenodd" d="M18 2.25C18.4142 2.25 18.75 2.58579 18.75 3V9C18.75 9.41421 18.4142 9.75 18 9.75C17.5858 9.75 17.25 9.41421 17.25 9V3C17.25 2.58579 17.5858 2.25 18 2.25Z" fill="black"/>
<path fill-rule="evenodd" clip-rule="evenodd" d="M14.25 6C14.25 5.58579 14.5858 5.25 15 5.25H21C21.4142 5.25 21.75 5.58579 21.75 6C21.75 6.41421 21.4142 6.75 21 6.75H15C14.5858 6.75 14.25 6.41421 14.25 6Z" fill="black"/>
</svg>
