<svg xmlns="http://www.w3.org/2000/svg" viewBox="0 0 24 24" fill="currentColor">
  <path d="M8.19802 4.40574 8.0971 6.01998l-.00289.02304c-.14719 1.17756-1.04707 1.90787-2.0381 2.04945l-.02952.00422-1.62086.10129c-.61954.05633-.85665.74708-.49517 1.15375l.00795.00895.9882 1.18582c.78879.8168.71982 2.0432.01946 2.8836l-1.00766 1.2092-.00795.009c-.36148.4066-.12437 1.0974.49515 1.1537l1.6143.1009.02306.0029c1.17761.1472 1.90783 1.0472 2.0494 2.0381l.00421.0296.10134 1.6208c.05633.6195.74705.8566 1.15371.4951l.00895-.0079 1.18582-.9882c.8168-.7888 2.0433-.7198 2.8837-.0195l1.2092 1.0077.0089.0079c.4067.3615 1.0974.1244 1.1537-.4951l.101-1.6143.0028-.023c.1472-1.1776 1.0471-1.9079 2.0382-2.0495l.0295-.0042 1.6208-.1013c.6196-.0563.8567-.7471.4952-1.1537l-.008-.009-.9882-1.1858c-.7887-.8168-.7198-2.0432-.0194-2.8836l1.0076-1.20922.008-.00895c.3615-.40667.1244-1.09742-.4952-1.15375L17.98 8.0971l-.023-.00288c-1.1776-.14721-1.9078-1.04719-2.0494-2.03816l-.0042-.02951-.1014-1.62081c-.0563-.61956-.747-.85665-1.1537-.49518l-.0089.00796-1.1863.98853c-.7876.75728-2.1185.75728-2.9062 0l-1.18622-.98853-.00895-.00796c-.40666-.36147-1.09738-.12438-1.15371.49518ZM10.3385 2.7808c-1.39197-1.2241-3.48825-.26448-3.63587 1.50692l-.00064.00774-.09887 1.58138c-.05834.40221-.34399.66189-.73339.72672l-1.57426.09838-.00775.00065C2.5163 6.85021 1.5567 8.94655 2.78081 10.3385l1.01481 1.2178.02406.024c.18339.1834.24609.5392-.04584.8896l-.99303 1.1916c-1.22411 1.392-.26452 3.4883 1.50691 3.6359l.00775.0007 1.58143.0988c.40215.0583.66182.344.72666.7334l.09843 1.5742.00064.0078c.14762 1.7714 2.24389 2.731 3.63587 1.5069l1.2178-1.0148.024-.0241c.1834-.1834.5393-.2461.8896.0459l1.1917.993c1.3919 1.2241 3.4882.2645 3.6358-1.5069l.0007-.0078.0988-1.5813c.0584-.4022.344-.6619.7334-.7268l1.5743-.0983.0077-.0007c1.7715-.1476 2.731-2.2439 1.507-3.6359l-1.0149-1.2178-.024-.024c-.1834-.1834-.2461-.5392.0458-.8896l.9931-1.1916c1.224-1.39198.2645-3.48829-1.507-3.63591l-.0077-.00065-1.5814-.09882c-.4022-.05834-.6619-.34399-.7267-.73345l-.0984-1.57421-.0007-.00774c-.1476-1.77141-2.2439-2.73103-3.6358-1.50691l-1.2178 1.01481-.0241.02406c-.2071.2071-.6322.2071-.8394 0l-.024-.02406-1.2178-1.01482Z"/>
</svg>
