<svg xmlns="http://www.w3.org/2000/svg" viewBox="0 0 24 24" fill="currentColor">
  <path d="M13.7884 4.56923c-1.053.91687-2.583.96936-3.5925-.01308-.85837-.70205-2.08632-.14716-2.1472.88788l-.00091.01532-.00152.01527C7.911 6.82727 6.83389 7.90673 5.48222 8.04551c-1.1388.13767-1.59761 1.35488-.91093 2.16859.85348.9979.81351 2.4895.02871 3.5359l-.01322.0176-.01424.0169c-.72691.859-.17149 2.1054.87153 2.1668l.01532.0009.01526.0015c1.35268.1353 2.43206 1.2125 2.57085 2.5641.13765 1.1387 1.35482 1.5976 2.1685.911.9979-.8536 2.4896-.8136 3.536-.0288l.0176.0132.0168.0143c.8591.7269 2.1056.1714 2.1669-.8716l.0009-.0153.0015-.0152c.1353-1.3527 1.2125-2.4321 2.5641-2.5709 1.1388-.1377 1.5976-1.3548.9109-2.1685-.8535-.998-.8135-2.4896-.0287-3.536l.0132-.0176.0143-.0169c.7269-.85907.1715-2.10544-.8715-2.16679l-.0153-.0009-.0153-.00153c-1.3527-.13527-2.4321-1.21244-2.5709-2.5641-.1375-1.13762-1.3524-1.59667-2.1661-.91295Zm-.9729-1.14177c1.785-1.5104 4.3639-.37166 4.6294 1.8849l.0015.01299-.0001.00001c.0641.64061.5768 1.15713 1.2158 1.22705 2.3355.15102 3.3719 2.87492 1.927 4.61229-.403.5507-.3612 1.2487-.0197 1.6472l.0032.0036h-.0001c1.5104 1.7851.3717 4.3639-1.8848 4.6294l-.013.0015v-.0001c-.6407.064-1.1572.5768-1.2271 1.2158-.151 2.3354-2.8749 3.3719-4.6124 1.927-.5506-.403-1.2486-.3612-1.6471-.0197l-.0036.0031c-1.78505 1.5104-4.3639.3717-4.62937-1.8849l-.00153-.013h.00011c-.06406-.6406-.57679-1.1571-1.21575-1.227-2.33543-.151-3.37199-2.8749-1.92703-4.6123.40298-.5507.36119-1.2487.01963-1.6472l-.00311-.0036h.00001c-1.51041-1.78509-.3716-4.36389 1.88494-4.62936l.01299-.00153.00001.00011c.64059-.06406 1.15707-.5768 1.227-1.2158.15158-2.3443 2.89562-3.37977 4.6321-1.91046l.0238.02015.022.02206c.3892.38915 1.0381.43643 1.5758-.0341l.0094-.00819v.00008Z"/>
</svg>
