<svg xmlns="http://www.w3.org/2000/svg" viewBox="0 0 24 24" fill="currentColor">
  <path d="M3.90002 9c0-1.28579.96422-2.25 2.25-2.25H13.15c1.2858 0 2.25.96421 2.25 2.25v6c0 1.1858-1.0642 2.25-2.25 2.25H6.15002c-1.28578 0-2.25-.9642-2.25-2.25V9ZM16.9 14.0447V15c0 2.0142-1.7358 3.75-3.75 3.75H6.15002c-2.11421 0-3.75-1.6358-3.75-3.75V9c0-2.11421 1.63579-3.75 3.75-3.75H13.15c2.1142 0 3.75 1.63579 3.75 3.75v.85534l2.0779-1.20655C20.214 7.94247 21.6 8.86618 21.6 10.2v3.5c0 1.3338-1.386 2.2575-2.6221 1.5512l-.0045-.0026L16.9 14.0447Zm0-2.4548 2.8238-1.63971c.108-.06102.1906-.04499.2488-.00956.0633.03857.1274.12047.1274.25937v3.5c0 .1389-.0641.2208-.1274.2594-.0582.0354-.1408.0514-.2487-.0096L16.9 12.3101v-.7202Z"/>
</svg>
