<svg width="60" height="60" fill="none" xmlns="http://www.w3.org/2000/svg"><path d="M45 48.75H15c-2.6522 0-5.1957-1.0536-7.07107-2.9289C6.05357 43.9457 5 41.4022 5 38.75v-17.5c0-2.6522 1.05357-5.1957 2.92893-7.0711C9.8043 12.3036 12.3478 11.25 15 11.25h30c2.6522 0 5.1957 1.0536 7.0711 2.9289C53.9464 16.0543 55 18.5978 55 21.25v17.5c0 2.6522-1.0536 5.1957-2.9289 7.0711C50.1957 47.6964 47.6522 48.75 45 48.75zm-30-32.5c-1.3261 0-2.5979.5268-3.5355 1.4645C10.5268 18.6521 10 19.9239 10 21.25v17.5c0 1.3261.5268 2.5979 1.4645 3.5355.9376.9377 2.2094 1.4645 3.5355 1.4645h30c1.3261 0 2.5979-.5268 3.5355-1.4645C49.4732 41.3479 50 40.0761 50 38.75v-17.5c0-1.3261-.5268-2.5979-1.4645-3.5355C47.5979 16.7768 46.3261 16.25 45 16.25H15z" fill="#000"/><path d="M52.5 40H38.625c-2.2855-.0066-4.4754-.9174-6.0915-2.5335-1.6161-1.6161-2.5269-3.806-2.5335-6.0915v-2.75c.0066-2.2855.9174-4.4754 2.5335-6.0915 1.6161-1.6161 3.806-2.5269 6.0915-2.5335H52.5c.663 0 1.2989.2634 1.7678.7322.4688.4689.7322 1.1048.7322 1.7678s-.2634 1.2989-.7322 1.7678C53.7989 24.7366 53.163 25 52.5 25H38.625c-.9614 0-1.8834.3819-2.5633 1.0617C35.3819 26.7416 35 27.6636 35 28.625v2.75c0 .9614.3819 1.8834 1.0617 2.5633C36.7416 34.6181 37.6636 35 38.625 35H52.5c.663 0 1.2989.2634 1.7678.7322.4688.4689.7322 1.1048.7322 1.7678s-.2634 1.2989-.7322 1.7678C53.7989 39.7366 53.163 40 52.5 40z" fill="#000"/><path d="M42.5 32.5001c-.6619-.0092-1.2959-.2682-1.7749-.725-.1076-.1188-.2077-.2441-.3001-.375-.0946-.1394-.1702-.2907-.225-.45-.0894-.1388-.1569-.2906-.2-.45-.0122-.1665-.0122-.3336 0-.5.004-.3267.0719-.6495.2-.95.119-.3069.2974-.5873.5251-.825.2886-.301.648-.5251 1.0453-.6517.3974-.1266.8201-.1518 1.2296-.0733.1567.0273.3083.0779.45.15.1536.0499.2974.126.425.225l.4.3c.2276.2377.4061.5181.525.825.1347.316.2028.6564.2 1 .0123.1664.0123.3335 0 .5-.0273.1566-.0779.3083-.15.45-.0547.1593-.1303.3106-.225.45l-.3.375-.4.3c-.1276.0989-.2714.175-.425.225-.1417.072-.2933.1226-.45.15l-.55.05z" fill="#000"/></svg>