<svg width="24" height="24" viewBox="0 0 24 24" fill="none" xmlns="http://www.w3.org/2000/svg">
<path d="M12.0408 14.65C11.6408 14.65 11.2408 14.35 11.2408 13.85V8.85005C11.2408 8.45005 11.5408 8.05005 12.0408 8.05005C12.5408 8.05005 12.8408 8.35005 12.8408 8.85005V13.85C12.7408 14.35 12.4408 14.65 12.0408 14.65Z" fill="black"/>
<path d="M12.0408 17.65C11.8408 17.65 11.6408 17.55 11.5408 17.45C11.4408 17.35 11.3408 17.15 11.3408 16.95C11.3408 16.75 11.4408 16.55 11.5408 16.45C11.6408 16.35 11.6408 16.35 11.7408 16.25C12.0408 16.15 12.3408 16.15 12.5408 16.45C12.6408 16.55 12.7408 16.75 12.7408 16.95C12.7408 17.05 12.7408 17.15 12.6408 17.25C12.6408 17.35 12.5408 17.45 12.4408 17.45C12.4408 17.55 12.2408 17.65 12.0408 17.65Z" fill="black"/>
<path fill-rule="evenodd" clip-rule="evenodd" d="M13.4989 4.08978C13.1837 3.48634 12.5581 3.25 12.0283 3.25C11.487 3.25 10.88 3.48905 10.5167 4.03397L10.5031 4.0545L2.49075 17.9759L2.4896 17.9779C1.78329 19.2139 2.70694 20.6 4.04078 20.6H20.0408C21.3746 20.6 22.2983 19.2139 21.592 17.9779L13.4989 4.08978ZM11.7735 4.85426L3.79196 18.7221C3.79183 18.7223 3.7921 18.7219 3.79196 18.7221C3.73029 18.8305 3.7459 18.9142 3.78143 18.9725C3.81999 19.0359 3.90186 19.1 4.04078 19.1H20.0408C20.1797 19.1 20.2616 19.0359 20.3001 18.9725C20.3355 18.9144 20.3516 18.8319 20.2908 18.7241C20.2904 18.7235 20.29 18.7228 20.2896 18.7221L12.1807 4.80688L12.1703 4.78605C12.1692 4.785 12.1648 4.78106 12.1549 4.77587C12.1323 4.76395 12.0891 4.75 12.0283 4.75C11.904 4.75 11.8149 4.80263 11.7735 4.85426Z" fill="black"/>
</svg>
