<svg width="24" height="24" viewBox="0 0 24 24" fill="none" xmlns="http://www.w3.org/2000/svg">
<path d="M10.9 4.30002L2.9 18.2C2.5 18.9 3 19.7 3.8 19.7H19.8C20.6 19.7 21.1 18.9 20.7 18.2L12.7 4.30002C12.2 3.60002 11.3 3.60002 10.9 4.30002Z" fill="black"/>
<path fill-rule="evenodd" clip-rule="evenodd" d="M11.7625 3.02502C12.3672 3.02502 12.9347 3.33824 13.3103 3.8641L13.3317 3.89403L21.3512 17.8279C22.0575 19.064 21.1339 20.45 19.8 20.45H3.8C2.46615 20.45 1.54251 19.064 2.24882 17.8279L2.24997 17.8259L10.2488 3.92792C10.2491 3.92752 10.2493 3.92711 10.2495 3.92671C10.5792 3.35067 11.1485 3.02502 11.7625 3.02502ZM11.7625 4.52502C11.702 4.52502 11.6216 4.54893 11.5512 4.67213L11.55 4.67414L3.55118 18.5721C3.55105 18.5724 3.55132 18.5719 3.55118 18.5721C3.48951 18.6806 3.50512 18.7642 3.54065 18.8226C3.57921 18.8859 3.66108 18.95 3.8 18.95H19.8C19.9389 18.95 20.0208 18.8859 20.0594 18.8226C20.0949 18.7642 20.1109 18.6813 20.0493 18.5729C20.0491 18.5726 20.0494 18.5731 20.0493 18.5729L12.0714 4.71139C11.9525 4.5583 11.8294 4.52502 11.7625 4.52502Z" fill="black"/>
<path d="M11.8 14.4C11.4 14.4 11 14.1 11 13.6V8.60005C11 8.20005 11.3 7.80005 11.8 7.80005C12.3 7.80005 12.6 8.10005 12.6 8.60005V13.6C12.5 14.1 12.2 14.4 11.8 14.4Z" fill="white"/>
<path d="M11.8 17.4C11.7 17.4 11.6 17.4 11.5 17.3C11.4 17.3 11.3 17.2 11.3 17.1C11.1 17.1 11 16.9 11 16.7C11 16.6 11 16.5 11.1 16.4C11.1 16.3 11.2 16.2 11.3 16.2C11.3 16.1 11.4 16 11.5 16C11.8 15.9 12.1 15.9 12.3 16.2C12.4 16.3 12.4 16.3 12.5 16.4C12.5 16.5 12.6 16.6 12.6 16.7C12.6 16.9 12.5 17.1 12.4 17.2C12.1 17.4 12 17.4 11.8 17.4Z" fill="white"/>
</svg>
