<svg xmlns="http://www.w3.org/2000/svg" fill="none" viewBox="0 0 24 24">
  <path fill="#000" fill-rule="evenodd" d="M7 3.75A3.262 3.262 0 0 0 3.75 7v10c0 1.798 1.376 3.25 3.25 3.25h10A3.262 3.262 0 0 0 20.25 17V7A3.262 3.262 0 0 0 17 3.75H7ZM2.25 7A4.762 4.762 0 0 1 7 2.25h10A4.762 4.762 0 0 1 21.75 7v10A4.762 4.762 0 0 1 17 21.75H7c-2.726 0-4.75-2.148-4.75-4.75V7Zm4.5 3a.75.75 0 0 1 .75-.75h3.099L9.376 7.416a.75.75 0 1 1 1.248-.832l1.777 2.666H16.5a.75.75 0 0 1 0 1.5h-4.484a.8.8 0 0 1-.03 0H7.5a.75.75 0 0 1-.75-.75Z" clip-rule="evenodd"/>
</svg>
