<svg xmlns="http://www.w3.org/2000/svg" viewBox="0 0 24 24" fill="currentColor">
  <path d="M7 3.75C5.21421 3.75 3.75 5.21421 3.75 7v10c0 1.7981 1.37646 3.25 3.25 3.25h10c1.7858 0 3.25-1.4642 3.25-3.25V7c0-1.78579-1.4642-3.25-3.25-3.25H7ZM2.25 7c0-2.61421 2.13579-4.75 4.75-4.75h10c2.6142 0 4.75 2.13579 4.75 4.75v10c0 2.6142-2.1358 4.75-4.75 4.75H7c-2.72646 0-4.75-2.1481-4.75-4.75V7Zm4.5 3c0-.41421.33579-.75.75-.75h3.0986L9.37598 7.4161c-.22976-.34464-.13663-.81029.20801-1.04006.34465-.22976.81031-.13663 1.04011.20801L12.4014 9.25H16.5c.4142 0 .75.33579.75.75 0 .4142-.3358.75-.75.75h-4.4838c-.0103.0002-.0207.0002-.031 0H7.5c-.41421 0-.75-.3358-.75-.75Z"/>
</svg>
