<svg xmlns="http://www.w3.org/2000/svg" viewBox="0 0 24 24" fill="currentColor">
  <path d="M6.5 4C5.01421 4 3.75 5.26421 3.75 6.75v7.2595C4.49122 13.3799 5.45125 13 6.5 13s2.00878.3799 2.75 1.0095V6.75684A.77978625.77978625 0 0 1 9.24997 6.75c0-.00201.00001-.00401.00002-.00601C9.24659 5.2608 7.98378 4 6.5 4Zm4.1814 2C10.3183 4.03224 8.55891 2.5 6.5 2.5c-2.31421 0-4.25 1.93579-4.25 4.25v10.5c0 2.3472 1.90279 4.25 4.25 4.25.46804 0 .91842-.0757 1.33955-.2154.37621.1407.76399.2154 1.16042.2154H18c2.1142 0 3.75-1.6358 3.75-3.75v-8C21.75 7.63579 20.1142 6 18 6h-7.3186Zm.0686 1.5v9.75c0 1.0488-.3799 2.0088-1.00952 2.75H18c1.2858 0 2.25-.9642 2.25-2.25v-8c0-1.28579-.9642-2.25-2.25-2.25h-7.25ZM7.71456 19.7048C8.61425 19.2458 9.25 18.3036 9.25 17.25c0-1.5188-1.23122-2.75-2.75-2.75s-2.75 1.2312-2.75 2.75C3.75 18.7358 5.01421 20 6.5 20c.28727 0 .56625-.0473.82941-.1342.11092-.0893.24495-.1448.38515-.161Z"/>
</svg>
