<svg xmlns="http://www.w3.org/2000/svg" fill="none" viewBox="0 0 24 24">
  <path fill="#000" d="M19.55 11.95H9.05c0-.1 0-.3-.1-.3l-4.4-6.3c-.4-.5.2-1.2.7-.9l13.9 7c.3.1.4.3.4.5"/>
  <path fill="#000" d="m5.516 5.424 3.96 5.668q.06.051.106.108h7.404zm13.93 5.335c.248.094.468.246.627.468.17.237.227.497.227.723v.75h-12v-.67L3.947 5.795c-.443-.575-.3-1.258.033-1.669.324-.398.98-.705 1.628-.337z"/>
  <path fill="#000" d="M8.4 11.3h11.15v.65h.75v.85h-.283a2 2 0 0 1-.237.28l-.085.086L5.687 20.22h-.002a1.38 1.38 0 0 1-1.674-.326c-.368-.42-.51-1.117-.06-1.696l4.449-6.13zm8.686 1.5L5.481 18.644l4.15-5.719a1 1 0 0 0 .095-.125z"/>
</svg>
