<svg xmlns="http://www.w3.org/2000/svg" fill="none" viewBox="0 0 24 24">
  <path fill="#000" d="M4.045 4.227A1.33 1.33 0 0 1 5.7 3.879l.002.001 13.898 7h.002c.516.259.713.79.713 1.195 0 .213-.052.474-.219.704a1 1 0 0 1-.605.397L5.702 20.12H5.7a1.38 1.38 0 0 1-1.674-.326c-.368-.42-.51-1.117-.06-1.696L8.393 12 3.94 5.864l-.017-.028a1.41 1.41 0 0 1 .123-1.609Zm1.45 1.229 4.15 5.715a1.233 1.233 0 0 1 0 1.658l-4.15 5.715L18.492 12 5.496 5.456ZM18.93 12.22l-.002-.001z"/>
  <path fill="#000" d="M7.98 11.572a.75.75 0 0 1 .75-.75h10.4a.75.75 0 0 1 0 1.5H8.73a.75.75 0 0 1-.75-.75"/>
</svg>
