<svg width="24" height="24" viewBox="0 0 24 24" fill="none" xmlns="http://www.w3.org/2000/svg">
<path d="M19.35 9.8V18.9C19.35 20.1 18.45 21 17.25 21H6.74996C5.54996 21 4.64996 20.1 4.64996 18.9V5.1C4.64996 3.9 5.54996 3 6.74996 3H12.25V6.6C12.25 8.3 13.65 9.7 15.35 9.7H19.35V9.8Z" fill="black"/>
<path fill-rule="evenodd" clip-rule="evenodd" d="M6.74996 3.75C5.96418 3.75 5.39996 4.31421 5.39996 5.1V18.9C5.39996 19.6858 5.96418 20.25 6.74996 20.25H17.25C18.0358 20.25 18.6 19.6858 18.6 18.9V10.45H15.35C13.2357 10.45 11.5 8.71421 11.5 6.6V3.75H6.74996ZM3.89996 5.1C3.89996 3.48579 5.13575 2.25 6.74996 2.25H13V6.6C13 7.88579 14.0642 8.95 15.35 8.95H20.1V18.9C20.1 20.5142 18.8642 21.75 17.25 21.75H6.74996C5.13575 21.75 3.89996 20.5142 3.89996 18.9V5.1Z" fill="black"/>
<path fill-rule="evenodd" clip-rule="evenodd" d="M11.6 2.3501H12.65C14.3324 2.3501 16.0359 3.01829 17.1925 4.28192L18.1682 5.25762C19.4318 6.41422 20.1 8.11768 20.1 9.8001V10.5501H15.45C13.3358 10.5501 11.6 8.81431 11.6 6.7001V2.3501ZM13.1 3.87072V6.7001C13.1 7.98588 14.1642 9.0501 15.45 9.0501H18.5426C18.3829 8.00962 17.8949 7.03637 17.1455 6.35505L17.1323 6.34305L16.107 5.31781L16.095 5.3046C15.3486 4.48352 14.2517 3.97631 13.1 3.87072Z" fill="black"/>
<path fill-rule="evenodd" clip-rule="evenodd" d="M9.94995 12.05C10.3642 12.05 10.7 12.3858 10.7 12.8V16.9C10.7 17.3143 10.3642 17.65 9.94995 17.65C9.53574 17.65 9.19995 17.3143 9.19995 16.9V12.8C9.19995 12.3858 9.53574 12.05 9.94995 12.05Z" fill="white"/>
<path fill-rule="evenodd" clip-rule="evenodd" d="M7.41962 15.0698C7.71251 14.7769 8.18739 14.7769 8.48028 15.0698L9.89995 16.4894L11.3196 15.0698C11.6125 14.7769 12.0874 14.7769 12.3803 15.0698C12.6732 15.3627 12.6732 15.8375 12.3803 16.1304L10.6803 17.8304C10.4484 18.0623 10.1568 18.1251 9.93745 18.1251C9.71315 18.1251 9.4988 18.063 9.31454 17.9709L9.20568 17.9165L7.41962 16.1304C7.12673 15.8375 7.12673 15.3627 7.41962 15.0698Z" fill="white"/>
</svg>
