<svg width="24" height="24" viewBox="0 0 24 24" fill="none" xmlns="http://www.w3.org/2000/svg">
<path fill-rule="evenodd" clip-rule="evenodd" d="M6.75002 3.75C5.96424 3.75 5.40002 4.31421 5.40002 5.1V18.9C5.40002 19.6858 5.96424 20.25 6.75002 20.25H17.25C18.0358 20.25 18.6 19.6858 18.6 18.9V10.45H15.35C13.2358 10.45 11.5 8.71421 11.5 6.6V3.75H6.75002ZM3.90002 5.1C3.90002 3.48579 5.13581 2.25 6.75002 2.25H13V6.6C13 7.88579 14.0642 8.95 15.35 8.95H20.1V18.9C20.1 20.5142 18.8642 21.75 17.25 21.75H6.75002C5.13581 21.75 3.90002 20.5142 3.90002 18.9V5.1Z" fill="black"/>
<path fill-rule="evenodd" clip-rule="evenodd" d="M11.6 2.3501H12.65C14.3595 2.3501 15.9474 3.03683 17.1803 4.26977L18.1682 5.25762C19.4318 6.41422 20.1 8.11768 20.1 9.8001V10.5501H15.45C13.3358 10.5501 11.6 8.81431 11.6 6.7001V2.3501ZM13.1 3.87113V6.7001C13.1 7.98588 14.1642 9.0501 15.45 9.0501H18.5426C18.3829 8.00962 17.8949 7.03637 17.1455 6.35505L17.1323 6.34305L16.1196 5.33043C15.2659 4.47665 14.221 3.97657 13.1 3.87113Z" fill="black"/>
<path fill-rule="evenodd" clip-rule="evenodd" d="M11.899 13.5914C12.1799 13.287 12.6544 13.268 12.9588 13.549L14.2698 14.7592L14.2804 14.7698C14.5529 15.0423 14.6501 15.4012 14.6501 15.7001C14.6501 15.999 14.5529 16.358 14.2804 16.6304L13.0804 17.8304C12.7875 18.1233 12.3126 18.1233 12.0197 17.8304C11.7269 17.5375 11.7269 17.0627 12.0197 16.7698L13.0838 15.7057L11.9414 14.6512C11.637 14.3703 11.618 13.8958 11.899 13.5914Z" fill="black"/>
<path fill-rule="evenodd" clip-rule="evenodd" d="M9.78035 13.6699C10.0732 13.9628 10.0732 14.4376 9.78035 14.7305L8.71068 15.8002L9.78035 16.8699C10.0732 17.1628 10.0732 17.6376 9.78035 17.9305C9.48746 18.2234 9.01259 18.2234 8.71969 17.9305L7.51969 16.7305C7.24721 16.458 7.15002 16.0991 7.15002 15.8002C7.15002 15.5013 7.24721 15.1423 7.51969 14.8699L8.71969 13.6699C9.01259 13.377 9.48746 13.377 9.78035 13.6699Z" fill="black"/>
</svg>
