<svg width="24" height="24" viewBox="0 0 24 24" fill="none" xmlns="http://www.w3.org/2000/svg">
<path fill-rule="evenodd" clip-rule="evenodd" d="M12.05 3.8C7.49364 3.8 3.79999 7.49365 3.79999 12.05C3.79999 16.6064 7.49364 20.3 12.05 20.3C16.6063 20.3 20.3 16.6064 20.3 12.05C20.3 7.49365 16.6063 3.8 12.05 3.8ZM2.29999 12.05C2.29999 6.66523 6.66521 2.3 12.05 2.3C17.4348 2.3 21.8 6.66523 21.8 12.05C21.8 17.4348 17.4348 21.8 12.05 21.8C6.66521 21.8 2.29999 17.4348 2.29999 12.05Z" fill="black"/>
<path fill-rule="evenodd" clip-rule="evenodd" d="M14.3881 9.51189L13.4476 13.4622C13.4236 13.4923 13.3922 13.5236 13.3622 13.5476L9.41189 14.4881L10.3524 10.5378C10.3764 10.5077 10.4077 10.4764 10.4378 10.4524L14.3881 9.51189ZM15.8691 9.76789C16.0587 9.22569 15.8784 8.70366 15.5212 8.3739C15.1768 8.056 14.6811 7.91893 14.2029 8.01456L14.1895 8.01724L9.89204 9.04045L9.81458 9.07918C9.46944 9.25175 9.15175 9.56944 8.97917 9.91459L8.94045 9.99204L7.91723 14.2895L7.91456 14.3029C7.81892 14.7811 7.956 15.2768 8.27389 15.6212C8.60365 15.9785 9.12568 16.1587 9.66788 15.9691L13.9079 14.9595L13.9854 14.9208C14.3305 14.7482 14.6482 14.4306 14.8208 14.0854L14.8595 14.008L15.8691 9.76789Z" fill="black"/>
</svg>
