<svg width="24" height="24" viewBox="0 0 24 24" fill="none" xmlns="http://www.w3.org/2000/svg">
<path d="M15.45 20.25C14.35 20.75 13.15 20.95 11.95 20.95C6.95 20.95 2.95 16.95 2.95 11.95C2.95 10.15 3.45 8.55002 4.35 7.15002C4.65 7.15002 9.95 7.05002 9.95 8.95002C9.95 10.95 7.95 14.95 10.95 15.95C13.95 16.95 15.45 20.25 15.45 20.25Z" fill="black"/>
<path fill-rule="evenodd" clip-rule="evenodd" d="M4.77067 7.9003C4.07963 9.09725 3.7 10.4433 3.7 11.95C3.7 16.5358 7.36421 20.2 11.95 20.2C12.7867 20.2 13.6068 20.0956 14.3775 19.8565C14.2139 19.5914 14 19.2737 13.7363 18.9397C13.0322 18.0479 12.0187 17.0968 10.7128 16.6615C9.77168 16.3478 9.16242 15.7663 8.83876 15.0111C8.53223 14.2958 8.51119 13.4929 8.57808 12.7571C8.64082 12.067 8.79053 11.3541 8.92201 10.728C8.93154 10.6826 8.94098 10.6377 8.95028 10.5932C9.09521 9.90078 9.2 9.357 9.2 8.95002C9.2 8.89565 9.18076 8.74316 8.77431 8.53424C8.37973 8.33142 7.80178 8.18069 7.14692 8.07856C6.2348 7.9363 5.30004 7.90586 4.77067 7.9003ZM15.45 20.25C16.1328 19.9397 16.1327 19.9394 16.1326 19.9392L16.1317 19.9373L16.1301 19.9338L16.1252 19.9232L16.1086 19.8882C16.0945 19.8588 16.0744 19.8178 16.0482 19.7663C15.996 19.6635 15.9194 19.519 15.8184 19.344C15.6169 18.9947 15.3157 18.5195 14.9137 18.0103C14.1178 17.0021 12.8813 15.8032 11.1872 15.2385C10.6283 15.0522 10.3626 14.7588 10.2175 14.4202C10.0553 14.0417 10.0138 13.5322 10.0719 12.8929C10.1264 12.2934 10.2589 11.6615 10.3945 11.0149C10.4025 10.9768 10.4105 10.9387 10.4185 10.9005C10.5548 10.2492 10.7 9.54303 10.7 8.95002C10.7 8.05439 10.0567 7.50687 9.46005 7.20017C8.85152 6.88736 8.08571 6.70684 7.37807 6.59647C6.03757 6.38741 4.67124 6.39767 4.39122 6.39977C4.37253 6.39991 4.35868 6.40002 4.35 6.40002H3.94054L3.71911 6.74445C2.743 8.26285 2.2 10.0032 2.2 11.95C2.2 17.3642 6.53578 21.7 11.95 21.7C13.231 21.7 14.5417 21.4867 15.7603 20.9328L16.4431 20.6224L16.1326 19.9392L15.45 20.25Z" fill="black"/>
<path fill-rule="evenodd" clip-rule="evenodd" d="M5.99265 6.47463C6.44965 6.49673 6.96442 6.54134 7.47808 6.62145C8.19013 6.7325 8.96046 6.92058 9.57301 7.2507C10.1833 7.57959 10.8 8.14951 10.8 9.04999C10.8 9.643 10.6548 10.3492 10.5185 11.0005C10.5105 11.0387 10.5025 11.0768 10.4945 11.1149C10.3589 11.7614 10.2264 12.3934 10.1719 12.9929C10.1138 13.6321 10.1553 14.1417 10.3175 14.5202C10.4626 14.8587 10.7283 15.1522 11.2872 15.3385C12.9814 15.9032 14.2178 17.1021 15.0137 18.1103C15.3846 18.5801 15.6696 19.0208 15.8697 19.3605C18.4861 17.9499 20.3 15.1896 20.3 12.05C20.3 11.8829 20.2865 11.7116 20.2677 11.5163C18.2204 12.0159 16.7626 11.8887 15.6663 11.2642C14.4791 10.5879 13.8895 9.40727 13.4159 8.45886C13.4036 8.43421 13.3913 8.40972 13.3792 8.3854C12.7453 7.11771 12.9917 5.72813 13.3135 4.76282C13.4159 4.45564 13.5309 4.17608 13.641 3.93646C13.1195 3.83847 12.5907 3.79999 12.05 3.79999C9.65713 3.79999 7.50318 4.83907 5.99265 6.47463ZM15.3777 3.86042L15.3769 3.86167L15.3672 3.87717C15.3578 3.89214 15.343 3.91618 15.3238 3.94852C15.2853 4.01328 15.2296 4.11079 15.1647 4.23493C15.0341 4.48463 14.8707 4.83461 14.7365 5.23716C14.4583 6.07184 14.3547 6.98226 14.7208 7.71458C15.2407 8.75441 15.6517 9.52961 16.4087 9.9608C17.1328 10.3732 18.3612 10.5581 20.7305 9.83284L21.7 9.53604V10.55C21.7 10.7563 21.7206 10.969 21.7463 11.2254L21.7478 11.2404C21.7718 11.4807 21.8 11.7623 21.8 12.05C21.8 16.0678 19.305 19.5258 15.8506 21.0371L15.1732 21.3335L14.8677 20.6615L14.8672 20.6603L14.866 20.6578L14.8563 20.6372C14.8469 20.6177 14.8319 20.5869 14.8112 20.5462C14.7697 20.4646 14.7056 20.3435 14.6191 20.1935C14.4456 19.8928 14.1843 19.4805 13.8363 19.0397C13.1322 18.1479 12.1187 17.1968 10.8128 16.7615C9.87169 16.4478 9.26243 15.8663 8.93877 15.1111C8.63224 14.3958 8.6112 13.5928 8.67808 12.8571C8.74082 12.1669 8.89053 11.4541 9.02202 10.828C9.03155 10.7826 9.04099 10.7377 9.05029 10.6932C9.19522 10.0008 9.3 9.45697 9.3 9.04999C9.3 8.95046 9.25425 8.78289 8.86137 8.57115C8.4708 8.36065 7.89737 8.20498 7.24693 8.10353C6.60925 8.00407 5.95505 7.96518 5.44069 7.95772C5.18428 7.95401 4.96855 7.95819 4.81299 7.96571C4.73461 7.9695 4.67691 7.97389 4.63973 7.97775C4.63909 7.97781 4.63846 7.97788 4.63784 7.97794L2.6749 8.63226L3.8183 6.8457C5.54662 4.14518 8.57708 2.29999 12.05 2.29999C13.0058 2.29999 13.9903 2.40617 14.9872 2.73848L15.9101 3.04613L15.3785 3.85922L15.3777 3.86042Z" fill="black"/>
<path d="M20.85 10.5499C15.95 12.0499 14.95 10.0499 13.95 8.04989C12.95 6.04989 14.65 3.44989 14.65 3.44989C17.95 4.44989 20.35 7.14989 20.85 10.5499Z" fill="black"/>
<path fill-rule="evenodd" clip-rule="evenodd" d="M14.3297 2.56917L14.8675 2.73212C18.4351 3.81323 21.0482 6.74299 21.592 10.4408L21.6857 11.0784L21.0695 11.267C18.5387 12.0418 16.8172 11.9766 15.5662 11.2641C14.3791 10.5878 13.7895 9.40717 13.3158 8.45875C13.3035 8.4341 13.2913 8.40962 13.2791 8.3853C12.6453 7.11761 12.8917 5.72803 13.2134 4.76272C13.3793 4.26526 13.5783 3.84024 13.7353 3.53995C13.8142 3.38908 13.8834 3.26784 13.934 3.18261C13.9593 3.13995 13.9801 3.10617 13.9951 3.08208L14.0133 3.05325L14.019 3.04444L14.0209 3.04146L14.0217 3.04033C14.0218 3.04012 14.0222 3.03945 14.65 3.44989L14.0222 3.03945L14.3297 2.56917ZM15.0001 4.3614C14.8828 4.5972 14.7493 4.89854 14.6365 5.23706C14.3582 6.07174 14.2546 6.98216 14.6208 7.71448C15.1407 8.75431 15.5517 9.52951 16.3087 9.9607C16.9641 10.334 18.0327 10.5209 19.9865 10.0151C19.3846 7.40871 17.5306 5.32495 15.0001 4.3614Z" fill="black"/>
</svg>
