<svg width="24" height="24" viewBox="0 0 24 24" fill="none" xmlns="http://www.w3.org/2000/svg">
<path d="M19.15 4.05001L4.45 8.95001C3.85 9.15001 3.85 10.05 4.55 10.15L12.15 11.45C12.45 11.45 12.65 11.65 12.65 11.95L13.95 19.55C14.05 20.15 14.95 20.25 15.15 19.65L20.05 4.85001C20.15 4.35001 19.65 3.85001 19.15 4.05001Z" fill="black"/>
<path fill-rule="evenodd" clip-rule="evenodd" d="M20.3353 3.6379C20.6758 3.95402 20.893 4.4591 20.7854 4.99708L20.7764 5.04212L15.862 19.8857L15.8615 19.8872C15.6296 20.5828 14.9793 20.8478 14.4414 20.7966C13.9152 20.7465 13.3284 20.3775 13.2105 19.6749C13.2104 19.6744 13.2103 19.6738 13.2102 19.6733L11.9272 12.1728L4.43214 10.8907C3.70998 10.7821 3.29166 10.2178 3.26335 9.62317C3.23661 9.06168 3.56055 8.45591 4.21283 8.23848L18.8956 3.34422C19.4509 3.13347 19.9904 3.31757 20.3353 3.6379ZM19.2771 4.79819L5.18072 9.49699L12.2257 10.7021C12.5212 10.7182 12.8152 10.8295 13.0428 11.0572C13.2705 11.2848 13.3818 11.5788 13.3979 11.8743L14.6026 18.9171L19.2771 4.79819Z" fill="black"/>
</svg>
