<svg width="24" height="24" viewBox="0 0 24 24" fill="none" xmlns="http://www.w3.org/2000/svg">
<g clip-path="url(#clip0_412_1043)">
<path fill-rule="evenodd" clip-rule="evenodd" d="M11.1978 4.23267C11.7775 3.36307 12.9976 3.36316 13.5772 4.23269L13.6027 4.27091L20.6237 18.2419L20.6244 18.2433C20.9523 18.8991 20.6798 19.5464 20.2633 19.8905C19.8558 20.2272 19.18 20.3812 18.5998 19.9678C18.5993 19.9675 18.5989 19.9671 18.5984 19.9668L12.3875 15.5704L6.17663 19.9668C6.17611 19.9672 6.17558 19.9676 6.17506 19.9679C5.59492 20.3812 4.91919 20.2271 4.51173 19.8905C4.09518 19.5464 3.82274 18.8991 4.15065 18.2433L4.15133 18.2419L11.1723 4.27088L11.1978 4.23267ZM12.3875 5.19332L5.72678 18.4475L11.5586 14.3193C11.7789 14.1218 12.0656 13.9926 12.3875 13.9926C12.7094 13.9926 12.9961 14.1218 13.2164 14.3193L19.0482 18.4475L12.3875 5.19332Z" fill="black"/>
</g>
<defs>
<clipPath id="clip0_412_1043">
<rect width="24" height="24" fill="white"/>
</clipPath>
</defs>
</svg>
