<svg width="24" height="24" viewBox="0 0 24 24" fill="none" xmlns="http://www.w3.org/2000/svg">
<path d="M6.85 15.9C5.45 14.5 4.75 12.6 4.75 10.7C4.75 8.79999 5.45 6.89999 6.85 5.49999C8.25 4.09999 10.15 3.39999 12.05 3.39999C13.95 3.39999 15.85 4.09999 17.25 5.49999C18.65 6.89999 19.35 8.79999 19.35 10.7C19.35 12.6 18.65 14.5 17.25 15.9" fill="black"/>
<path fill-rule="evenodd" clip-rule="evenodd" d="M12.05 4.14999C10.3301 4.14999 8.62689 4.78376 7.38033 6.03032C6.13377 7.27689 5.5 8.98006 5.5 10.7C5.5 12.4199 6.13377 14.1231 7.38033 15.3697L6.31967 16.4303C4.76623 14.8769 4 12.7801 4 10.7C4 8.61993 4.76623 6.5231 6.31967 4.96966C7.87311 3.41623 9.96993 2.64999 12.05 2.64999C14.1301 2.64999 16.2269 3.41623 17.7803 4.96966C19.3338 6.5231 20.1 8.61993 20.1 10.7C20.1 12.7801 19.3338 14.8769 17.7803 16.4303L16.7197 15.3697C17.9662 14.1231 18.6 12.4199 18.6 10.7C18.6 8.98006 17.9662 7.27689 16.7197 6.03032C15.4731 4.78376 13.7699 4.14999 12.05 4.14999Z" fill="black"/>
<path d="M6.85001 15.9L11.35 20.4C11.75 20.8 12.35 20.8 12.75 20.4L17.25 15.9" fill="black"/>
<path fill-rule="evenodd" clip-rule="evenodd" d="M6.31968 15.3697C6.61257 15.0768 7.08744 15.0768 7.38034 15.3697L11.8803 19.8697C11.9442 19.9335 12.0052 19.95 12.05 19.95C12.0948 19.95 12.1558 19.9335 12.2197 19.8697L16.7197 15.3697C17.0126 15.0768 17.4874 15.0768 17.7803 15.3697C18.0732 15.6626 18.0732 16.1374 17.7803 16.4303L13.2803 20.9303C12.5874 21.6232 11.5126 21.6232 10.8197 20.9303L6.31968 16.4303C6.02678 16.1374 6.02678 15.6626 6.31968 15.3697Z" fill="black"/>
<path fill-rule="evenodd" clip-rule="evenodd" d="M9.41968 8.36966C9.71258 8.07677 10.1874 8.07677 10.4803 8.36966L14.6803 12.5697C14.9732 12.8626 14.9732 13.3374 14.6803 13.6303C14.3874 13.9232 13.9126 13.9232 13.6197 13.6303L9.41968 9.43032C9.12679 9.13743 9.12679 8.66256 9.41968 8.36966Z" fill="white"/>
<path fill-rule="evenodd" clip-rule="evenodd" d="M14.6803 8.36966C14.9732 8.66256 14.9732 9.13743 14.6803 9.43032L10.4803 13.6303C10.1874 13.9232 9.71258 13.9232 9.41968 13.6303C9.12679 13.3374 9.12679 12.8626 9.41968 12.5697L13.6197 8.36966C13.9126 8.07677 14.3874 8.07677 14.6803 8.36966Z" fill="white"/>
</svg>
