<svg xmlns="http://www.w3.org/2000/svg" fill="none" viewBox="0 0 24 24">
  <path fill="#000" d="M7 4.25A3.26 3.26 0 0 0 3.75 7.5v6A3.26 3.26 0 0 0 7 16.75h10a3.26 3.26 0 0 0 3.25-3.25v-6a.75.75 0 0 1 1.5 0v6A4.76 4.76 0 0 1 17 18.25h-.099l1.223 1.834a.75.75 0 1 1-1.248.832l-1.777-2.666H8.9l-1.777 2.666a.75.75 0 1 1-1.248-.832l1.223-1.834H7a4.76 4.76 0 0 1-4.75-4.75v-6A4.76 4.76 0 0 1 7 2.75a.75.75 0 0 1 0 1.5m6.4.5a.75.75 0 0 1 .75.75v1.65h1.75a.75.75 0 0 1 0 1.5h-1.75v1.75a.75.75 0 0 1-1.5 0V8.65H11a.75.75 0 0 1 0-1.5h1.65V5.5a.75.75 0 0 1 .75-.75"/>
</svg>
