<svg xmlns="http://www.w3.org/2000/svg" fill="none" viewBox="0 0 24 24">
  <path fill="#000" d="M17.531 21.05h-11.1c-.6 0-1-.7-.8-1.2l4.7-9.1v-7c0-.4.3-.8.8-.8h1.7c.4 0 .8.3.8.8v7l4.7 9.1c.3.6-.2 1.2-.8 1.2"/>
  <path fill="#000" d="m11.086 3.725-.005.025v7.182l-4.752 9.2.001.014a.24.24 0 0 0 .09.149l.01.005h11.1a.16.16 0 0 0 .13-.064l.009-.016v-.008l-.008-.024-4.78-9.256V3.75a.1.1 0 0 0-.005-.031l-.003-.004-.018-.01-.025-.005h-1.7l-.024.002-.007.002-.003.003zm-1.505.025c0-.751.576-1.55 1.55-1.55h1.7c.752 0 1.55.576 1.55 1.55v6.818l4.621 8.947a1.53 1.53 0 0 1-.125 1.6 1.67 1.67 0 0 1-1.346.685h-11.1c-.612 0-1.078-.358-1.334-.762-.25-.396-.37-.948-.162-1.466l.013-.034 4.633-8.97z"/>
</svg>
