<svg xmlns="http://www.w3.org/2000/svg" fill="none" viewBox="0 0 24 24">
  <path fill="#000" d="M3.75 9c0-2.886 2.364-5.25 5.25-5.25h6c2.886 0 5.25 2.364 5.25 5.25v4.386a6.3 6.3 0 0 0-1.35-.136c-3.714 0-6.75 3.036-6.75 6.75v.038l.001.212H9c-2.978 0-5.25-2.356-5.25-5.25zm9.902 11.25H15c2.886 0 5.25-2.364 5.25-5.25v-.06c-.394-.133-.85-.19-1.35-.19-2.886 0-5.25 2.364-5.25 5.25q0 .133.002.25M9 2.25C5.286 2.25 2.25 5.286 2.25 9v6c0 3.706 2.928 6.75 6.75 6.75h6c3.714 0 6.75-3.036 6.75-6.75V9c0-3.714-3.036-6.75-6.75-6.75z"/>
</svg>
