<svg xmlns="http://www.w3.org/2000/svg" fill="none" viewBox="0 0 24 24">
  <path fill="#000" d="M6.55 4.3c-1.286 0-2.25.964-2.25 2.25v6c0 1.286.964 2.25 2.25 2.25h6c1.186 0 2.25-1.064 2.25-2.25v-6c0-1.286-.964-2.25-2.25-2.25zM2.8 6.55c0-2.114 1.636-3.75 3.75-3.75h6c2.114 0 3.75 1.636 3.75 3.75v6c0 2.014-1.736 3.75-3.75 3.75h-6c-2.114 0-3.75-1.636-3.75-3.75z"/>
  <path fill="#000" d="M17.55 20.55h-6c-1.7 0-3-1.3-3-3v-6c0-1.7 1.3-3 3-3h6c1.7 0 3 1.3 3 3v6c0 1.6-1.4 3-3 3"/>
  <path fill="#000" d="M11.55 9.3c-1.286 0-2.25.964-2.25 2.25v6c0 1.286.964 2.25 2.25 2.25h6c1.186 0 2.25-1.064 2.25-2.25v-6c0-1.286-.964-2.25-2.25-2.25zM7.8 11.55c0-2.114 1.636-3.75 3.75-3.75h6c2.114 0 3.75 1.636 3.75 3.75v6c0 2.014-1.736 3.75-3.75 3.75h-6c-2.114 0-3.75-1.636-3.75-3.75z"/>
</svg>
