<svg xmlns="http://www.w3.org/2000/svg" fill="none" viewBox="0 0 24 24">
  <path fill="#000" d="M8.05 3.8A3.26 3.26 0 0 0 4.8 7.05v8a3.26 3.26 0 0 0 3.25 3.25.75.75 0 0 1 0 1.5 4.76 4.76 0 0 1-4.75-4.75v-8A4.76 4.76 0 0 1 8.05 2.3h8a4.76 4.76 0 0 1 4.75 4.75v5a.75.75 0 1 1-1.5 0v-5a3.26 3.26 0 0 0-3.25-3.25z"/>
  <path fill="#000" d="M14.75 20.55a3.8 3.8 0 1 0 0-7.6 3.8 3.8 0 0 0 0 7.6"/>
  <path fill="#000" d="M14.75 13.7a3.05 3.05 0 1 0 0 6.1 3.05 3.05 0 0 0 0-6.1m-4.55 3.05a4.55 4.55 0 1 1 9.1 0 4.55 4.55 0 0 1-9.1 0"/>
  <path fill="#000" d="M17.02 19.02a.75.75 0 0 1 1.06 0l1.5 1.5a.75.75 0 1 1-1.06 1.06l-1.5-1.5a.75.75 0 0 1 0-1.06"/>
</svg>
