<svg xmlns="http://www.w3.org/2000/svg" fill="none" viewBox="0 0 24 24">
  <path fill="#000" d="M13.265 4.62a.75.75 0 0 1 .366.995l-6.2 13.4a.75.75 0 1 1-1.362-.63l6.2-13.4a.75.75 0 0 1 .996-.366ZM11.05 19.3c-.3 0-.5-.1-.7-.3s-.3-.4-.3-.7.1-.5.3-.7c.4-.4 1-.4 1.4 0 .2.2.3.4.3.7s-.1.5-.3.7c-.1.2-.4.3-.7.3m3 0c-.3 0-.5-.1-.7-.3s-.3-.4-.3-.7.1-.5.3-.7c.4-.4 1-.4 1.4 0 .2.2.3.4.3.7s-.1.5-.3.7-.4.3-.7.3m3 0c-.3 0-.5-.1-.7-.3s-.3-.4-.3-.7.1-.5.3-.7c.4-.4 1-.4 1.4 0 .2.2.3.4.3.7s-.1.5-.3.7-.4.3-.7.3"/>
</svg>
