<svg xmlns="http://www.w3.org/2000/svg" fill="none" viewBox="0 0 24 24">
  <path fill="#000" d="M6 15V9c0-3.3 2.7-6 6-6s6 2.7 6 6v6c0 3.3-2.7 6-6 6-3.4 0-6-2.7-6-6"/>
  <path fill="#000" d="M12 3.75C9.114 3.75 6.75 6.114 6.75 9v6c0 2.894 2.272 5.25 5.25 5.25 2.886 0 5.25-2.364 5.25-5.25V9c0-2.886-2.364-5.25-5.25-5.25M5.25 9c0-3.714 3.036-6.75 6.75-6.75S18.75 5.286 18.75 9v6c0 3.714-3.036 6.75-6.75 6.75-3.822 0-6.75-3.044-6.75-6.75z"/>
  <path fill="#fff" d="M11 7.2c0-.3.1-.5.3-.7.1-.1.2-.2.3-.2.1-.1.2-.1.4-.1.1 0 .2 0 .3.1s.2.1.3.2c.4.4.4 1 0 1.4 0 .1-.1.2-.3.2-.1.1-.2.1-.3.1-.3 0-.6-.1-.7-.3-.2-.2-.3-.4-.3-.7m0 4.7c0-.3.1-.5.3-.7s.4-.3.7-.3c.2 0 .5.2.7.3.4.4.4 1 0 1.4-.2.2-.4.3-.7.3s-.5-.1-.7-.3c-.2-.1-.3-.4-.3-.7m0 4.8c0-.3.1-.5.3-.7s.4-.3.7-.3.5.1.7.3c.4.4.4 1 0 1.4-.2.2-.4.3-.7.3s-.5-.1-.7-.3-.3-.4-.3-.7"/>
</svg>
