<svg xmlns="http://www.w3.org/2000/svg" fill="none" viewBox="0 0 24 24">
  <path fill="#000" d="M8.5 3.75a1.25 1.25 0 1 0 0 2.5 1.25 1.25 0 0 0 0-2.5M5.75 5a2.75 2.75 0 1 1 5.5 0 2.75 2.75 0 0 1-5.5 0m1.5 7a1.25 1.25 0 1 1 2.5 0 1.25 1.25 0 0 1-2.5 0M8.5 9.25a2.75 2.75 0 1 0 0 5.5 2.75 2.75 0 0 0 0-5.5M7.25 19a1.25 1.25 0 1 1 2.5 0 1.25 1.25 0 0 1-2.5 0m1.25-2.75a2.75 2.75 0 1 0 0 5.5 2.75 2.75 0 0 0 0-5.5M14.25 19a1.25 1.25 0 1 1 2.5 0 1.25 1.25 0 0 1-2.5 0m1.25-2.75a2.75 2.75 0 1 0 0 5.5 2.75 2.75 0 0 0 0-5.5m0-5.5a1.25 1.25 0 1 0 0 2.5 1.25 1.25 0 0 0 0-2.5M12.75 12a2.75 2.75 0 1 1 5.5 0 2.75 2.75 0 0 1-5.5 0m1.5-7a1.25 1.25 0 1 1 2.5 0 1.25 1.25 0 0 1-2.5 0m1.25-2.75a2.75 2.75 0 1 0 0 5.5 2.75 2.75 0 0 0 0-5.5"/>
</svg>
