<svg xmlns="http://www.w3.org/2000/svg" fill="none" viewBox="0 0 24 24">
  <path fill="#000" d="M5 3.75a1.25 1.25 0 1 0 0 2.5 1.25 1.25 0 0 0 0-2.5M2.25 5a2.75 2.75 0 1 1 5.5 0 2.75 2.75 0 0 1-5.5 0M12 3.75a1.25 1.25 0 1 0 0 2.5 1.25 1.25 0 0 0 0-2.5M9.25 5a2.75 2.75 0 1 1 5.5 0 2.75 2.75 0 0 1-5.5 0m8.5 0a1.25 1.25 0 1 1 2.5 0 1.25 1.25 0 0 1-2.5 0M19 2.25a2.75 2.75 0 1 0 0 5.5 2.75 2.75 0 0 0 0-5.5m-14 8.5a1.25 1.25 0 1 0 0 2.5 1.25 1.25 0 0 0 0-2.5M2.25 12a2.75 2.75 0 1 1 5.5 0 2.75 2.75 0 0 1-5.5 0m8.5 0a1.25 1.25 0 1 1 2.5 0 1.25 1.25 0 0 1-2.5 0M12 9.25a2.75 2.75 0 1 0 0 5.5 2.75 2.75 0 0 0 0-5.5m7 1.5a1.25 1.25 0 1 0 0 2.5 1.25 1.25 0 0 0 0-2.5M16.25 12a2.75 2.75 0 1 1 5.5 0 2.75 2.75 0 0 1-5.5 0m-12.5 7a1.25 1.25 0 1 1 2.5 0 1.25 1.25 0 0 1-2.5 0M5 16.25a2.75 2.75 0 1 0 0 5.5 2.75 2.75 0 0 0 0-5.5m7 1.5a1.25 1.25 0 1 0 0 2.5 1.25 1.25 0 0 0 0-2.5M9.25 19a2.75 2.75 0 1 1 5.5 0 2.75 2.75 0 0 1-5.5 0m8.5 0a1.25 1.25 0 1 1 2.5 0 1.25 1.25 0 0 1-2.5 0M19 16.25a2.75 2.75 0 1 0 0 5.5 2.75 2.75 0 0 0 0-5.5"/>
</svg>
