<svg width="24" height="24" viewBox="0 0 24 24" fill="none" xmlns="http://www.w3.org/2000/svg">
<path d="M17.8 18.0375C17.5 18.1375 17.2 18.1375 16.9 18.1375H13.9L12.3 20.5375C12.1 20.8375 11.7 20.8375 11.5 20.5375L9.39998 18.0375H6.99998C6.69998 18.0375 6.39998 18.0375 6.09998 17.9375C6.59998 15.1375 9.09998 13.0375 12 13.0375C14.9 13.0375 17.3 15.3375 17.8 18.0375Z" fill="black"/>
<path fill-rule="evenodd" clip-rule="evenodd" d="M7.04381 17.2875H9.74948L11.8769 19.8201L13.4986 17.3875H16.8521C16.139 15.3627 14.2158 13.7875 12 13.7875C9.73976 13.7875 7.75931 15.2469 7.04381 17.2875ZM5.36166 17.8057C5.92607 14.645 8.73964 12.2875 12 12.2875C15.3043 12.2875 17.9797 14.8892 18.5374 17.9009L18.6563 18.5426L18.0372 18.749C17.6201 18.888 17.2144 18.8877 16.9322 18.8875C16.9213 18.8875 16.9105 18.8875 16.9 18.8875H14.3014L12.924 20.9535C12.4364 21.685 11.4119 21.6986 10.9043 20.9944L9.0505 18.7875H6.99999C6.98944 18.7875 6.97871 18.7875 6.96779 18.7875C6.68553 18.7877 6.27991 18.788 5.86281 18.649L5.24768 18.444L5.36166 17.8057Z" fill="black"/>
<path fill-rule="evenodd" clip-rule="evenodd" d="M7 3.98752C5.21421 3.98752 3.75 5.45173 3.75 7.23752V14.2375C3.75 15.5287 4.48371 16.6424 5.56982 17.1654C6.17519 15.2688 7.61302 13.7491 9.42873 12.9984C8.69825 12.3199 8.25 11.3443 8.25 10.2375C8.25 8.1233 9.88579 6.48752 12 6.48752C14.1142 6.48752 15.75 8.1233 15.75 10.2375C15.75 11.3443 15.3017 12.3199 14.5713 12.9984C16.387 13.7491 17.8248 15.2688 18.4302 17.1654C19.5163 16.6424 20.25 15.5287 20.25 14.2375V7.23752C20.25 5.36398 18.7981 3.98752 17 3.98752H7ZM12 12.4875C13.2858 12.4875 14.25 11.5233 14.25 10.2375C14.25 8.95173 13.2858 7.98752 12 7.98752C10.7142 7.98752 9.75 8.95173 9.75 10.2375C9.75 11.5233 10.7142 12.4875 12 12.4875ZM12 13.9875C14.5397 13.9875 16.7261 15.83 17.1617 18.2694L17.2992 19.0393L18.0627 18.8697C20.2075 18.393 21.75 16.4873 21.75 14.2375V7.23752C21.75 4.51106 19.6019 2.48752 17 2.48752H7C4.38579 2.48752 2.25 4.6233 2.25 7.23752V14.2375C2.25 16.4873 3.7925 18.393 5.9373 18.8697L6.70083 19.0393L6.83832 18.2694C7.27392 15.83 9.46034 13.9875 12 13.9875Z" fill="black"/>
<path d="M12 13.2375C13.6569 13.2375 15 11.8944 15 10.2375C15 8.58066 13.6569 7.23752 12 7.23752C10.3431 7.23752 9 8.58066 9 10.2375C9 11.8944 10.3431 13.2375 12 13.2375Z" fill="black"/>
<path fill-rule="evenodd" clip-rule="evenodd" d="M12 7.98752C10.7574 7.98752 9.75 8.99488 9.75 10.2375C9.75 11.4802 10.7574 12.4875 12 12.4875C13.2426 12.4875 14.25 11.4802 14.25 10.2375C14.25 8.99488 13.2426 7.98752 12 7.98752ZM8.25 10.2375C8.25 8.16645 9.92893 6.48752 12 6.48752C14.0711 6.48752 15.75 8.16645 15.75 10.2375C15.75 12.3086 14.0711 13.9875 12 13.9875C9.92893 13.9875 8.25 12.3086 8.25 10.2375Z" fill="black"/>
</svg>
