<svg width="24" height="24" viewBox="0 0 24 24" fill="none" xmlns="http://www.w3.org/2000/svg">
<path d="M21 7.18051V14.1805C21 16.3805 19.2 18.1805 17 18.1805H14L12.4 20.5805C12.2 20.8805 11.8 20.8805 11.6 20.6805L9.5 18.1805H7C4.8 18.1805 3 16.3805 3 14.1805V7.18051C3 4.98051 4.8 3.18051 7 3.18051H17C19.2 3.18051 21 4.88051 21 7.18051Z" fill="black"/>
<path fill-rule="evenodd" clip-rule="evenodd" d="M7 3.93051C5.21421 3.93051 3.75 5.39473 3.75 7.18051V14.1805C3.75 15.9663 5.21421 17.4305 7 17.4305H9.84949L11.9397 19.9189L13.5986 17.4305H17C18.7858 17.4305 20.25 15.9663 20.25 14.1805V7.18051C20.25 5.30697 18.7981 3.93051 17 3.93051H7ZM2.25 7.18051C2.25 4.5663 4.38579 2.43051 7 2.43051H17C19.6019 2.43051 21.75 4.45405 21.75 7.18051V14.1805C21.75 16.7947 19.6142 18.9305 17 18.9305H14.4014L13.024 20.9965C12.548 21.7106 11.5869 21.728 11.0697 21.2108L11.0467 21.1878L9.15051 18.9305H7C4.38579 18.9305 2.25 16.7947 2.25 14.1805V7.18051Z" fill="black"/>
</svg>
