<svg width="24" height="24" viewBox="0 0 24 24" fill="none" xmlns="http://www.w3.org/2000/svg">
<path fill-rule="evenodd" clip-rule="evenodd" d="M2.25 7.15543C2.25 4.54121 4.38579 2.40543 7 2.40543H12C12.4142 2.40543 12.75 2.74121 12.75 3.15543C12.75 3.56964 12.4142 3.90543 12 3.90543H7C5.21421 3.90543 3.75 5.36964 3.75 7.15543V14.1554C3.75 15.9412 5.21421 17.4054 7 17.4054H9.5C9.91421 17.4054 10.25 17.7412 10.25 18.1554C10.25 18.5696 9.91421 18.9054 9.5 18.9054H7C4.38579 18.9054 2.25 16.7696 2.25 14.1554V7.15543Z" fill="black"/>
<path fill-rule="evenodd" clip-rule="evenodd" d="M21 9.40543C21.4142 9.40543 21.75 9.74121 21.75 10.1554V14.1554C21.75 16.7696 19.6142 18.9054 17 18.9054H14C13.5858 18.9054 13.25 18.5696 13.25 18.1554C13.25 17.7412 13.5858 17.4054 14 17.4054H17C18.7858 17.4054 20.25 15.9412 20.25 14.1554V10.1554C20.25 9.74121 20.5858 9.40543 21 9.40543Z" fill="black"/>
<path fill-rule="evenodd" clip-rule="evenodd" d="M9.01762 17.5811C9.33479 17.3147 9.80788 17.3559 10.0743 17.673L11.9769 19.938L13.376 17.8394C13.6057 17.4947 14.0714 17.4016 14.416 17.6314C14.7607 17.8611 14.8538 18.3268 14.6241 18.6714L12.9829 21.1332L12.9303 21.1857C12.7133 21.4027 12.4006 21.5621 12.0623 21.5903C11.7034 21.6202 11.2832 21.4967 11.0048 21.1129L8.92574 18.6378C8.65932 18.3206 8.70046 17.8476 9.01762 17.5811Z" fill="black"/>
<path d="M13.2 13.6554C15.2987 13.6554 17 11.9541 17 9.85542C17 7.75674 15.2987 6.05542 13.2 6.05542C11.1013 6.05542 9.40002 7.75674 9.40002 9.85542C9.40002 11.9541 11.1013 13.6554 13.2 13.6554Z" fill="black"/>
<path fill-rule="evenodd" clip-rule="evenodd" d="M13.2 6.80542C11.5156 6.80542 10.15 8.17095 10.15 9.85542C10.15 11.5399 11.5156 12.9054 13.2 12.9054C14.8845 12.9054 16.25 11.5399 16.25 9.85542C16.25 8.17095 14.8845 6.80542 13.2 6.80542ZM8.65002 9.85542C8.65002 7.34252 10.6871 5.30542 13.2 5.30542C15.7129 5.30542 17.75 7.34252 17.75 9.85542C17.75 12.3683 15.7129 14.4054 13.2 14.4054C10.6871 14.4054 8.65002 12.3683 8.65002 9.85542Z" fill="black"/>
<path fill-rule="evenodd" clip-rule="evenodd" d="M10.9117 12.1071C11.2146 12.3898 11.2309 12.8644 10.9483 13.1672L9.54829 14.6672C9.26567 14.97 8.79108 14.9863 8.48826 14.7037C8.18545 14.4211 8.16909 13.9465 8.45171 13.6437L9.85171 12.1437C10.1343 11.8409 10.6089 11.8245 10.9117 12.1071Z" fill="black"/>
</svg>
