<svg width="24" height="24" viewBox="0 0 24 24" fill="none" xmlns="http://www.w3.org/2000/svg">
<path fill-rule="evenodd" clip-rule="evenodd" d="M2.25 7.1554C2.25 4.54118 4.38579 2.4054 7 2.4054H12C12.4142 2.4054 12.75 2.74118 12.75 3.1554C12.75 3.56961 12.4142 3.9054 12 3.9054H7C5.21421 3.9054 3.75 5.36961 3.75 7.1554V14.1554C3.75 15.9412 5.21421 17.4054 7 17.4054H9.49925H9.5L9.50104 17.4054C9.61632 17.4056 9.72551 17.4317 9.82305 17.4783C9.91069 17.5201 9.99149 17.5796 10.0598 17.6563C10.0659 17.663 10.0718 17.6699 10.0776 17.6769L11.9769 19.938L13.2649 18.0061C13.3341 17.6634 13.6369 17.4054 14 17.4054H17C18.7858 17.4054 20.25 15.9412 20.25 14.1554V10.1554C20.25 9.74118 20.5858 9.4054 21 9.4054C21.4142 9.4054 21.75 9.74118 21.75 10.1554V14.1554C21.75 16.7696 19.6142 18.9054 17 18.9054H14.4681L12.9829 21.1332L12.9303 21.1857C12.7133 21.4027 12.4006 21.5621 12.0623 21.5903C11.7034 21.6202 11.2832 21.4967 11.0048 21.1129L9.15051 18.9054H7C4.38579 18.9054 2.25 16.7696 2.25 14.1554V7.1554ZM16 3.4054C16.4142 3.4054 16.75 3.74118 16.75 4.1554V6.4054H19C19.4142 6.4054 19.75 6.74118 19.75 7.1554C19.75 7.56961 19.4142 7.9054 19 7.9054H16.75V10.1554C16.75 10.5696 16.4142 10.9054 16 10.9054C15.5858 10.9054 15.25 10.5696 15.25 10.1554V7.9054H13C12.5858 7.9054 12.25 7.56961 12.25 7.1554C12.25 6.74118 12.5858 6.4054 13 6.4054H15.25V4.1554C15.25 3.74118 15.5858 3.4054 16 3.4054Z" fill="black"/>
</svg>
