<svg width="24" height="24" viewBox="0 0 24 24" fill="none" xmlns="http://www.w3.org/2000/svg">
<path d="M4.20007 7.65C4.20007 5.75 5.80007 4.25 7.70007 4.25C8.10007 4.25 8.60007 4.35 9.00007 4.45C9.10007 4.65 9.30007 4.75 9.50007 4.85L10.2001 9.55C10.2001 9.85 10.1001 10.15 9.90007 10.35C9.80007 10.45 9.60007 10.65 9.40007 10.75C9.20007 10.85 9.10007 11.15 9.20007 11.45C9.60007 12.15 10.0001 12.75 10.6001 13.25C11.2001 13.85 11.8001 14.25 12.5001 14.65C12.7001 14.75 13.0001 14.65 13.2001 14.45C13.3001 14.25 13.5001 14.05 13.7001 13.85C13.9001 13.65 14.1001 13.55 14.4001 13.65L19.2001 14.45C19.3001 14.65 19.4001 14.75 19.5001 14.95C19.7001 15.35 19.8001 15.75 19.8001 16.25C19.8001 18.15 18.3001 19.75 16.3001 19.75C9.70007 19.65 4.50007 14.45 4.30007 8.15" fill="black"/>
<path fill-rule="evenodd" clip-rule="evenodd" d="M7.70007 5C6.18573 5 4.95007 6.19221 4.95007 7.65H3.45007C3.45007 5.30779 5.41442 3.5 7.70007 3.5C8.19692 3.5 8.77139 3.61975 9.18198 3.72239L9.51663 3.80606L9.65417 4.08114C9.66618 4.0893 9.68441 4.10056 9.71226 4.11583C9.7461 4.13438 9.78325 4.15306 9.83548 4.17918L10.1844 4.35365L10.9501 9.49446V9.55C10.9501 9.99886 10.8029 10.5079 10.4304 10.8803C10.4265 10.8842 10.4222 10.8886 10.4174 10.8934C10.3466 10.9645 10.1783 11.1337 9.96881 11.2802C10.3106 11.8575 10.6354 12.3032 11.0802 12.6738L11.1063 12.6956L11.1304 12.7197C11.6104 13.1997 12.0925 13.5402 12.6702 13.8816C12.8218 13.6663 13.0085 13.4803 13.1378 13.3516C13.1489 13.3405 13.1595 13.3299 13.1697 13.3197C13.3074 13.182 13.505 13.0161 13.7754 12.926C14.043 12.8368 14.3134 12.8438 14.5726 12.9184L19.7001 13.773L19.8709 14.1146C19.8978 14.1684 19.924 14.2089 19.9741 14.284L19.9784 14.2903C20.0282 14.365 20.0999 14.4725 20.1709 14.6146C20.4233 15.1194 20.5501 15.6343 20.5501 16.25C20.5501 18.5501 18.7282 20.5 16.3001 20.5H16.2887C9.29302 20.394 3.66293 14.3551 3.45007 7.65H4.95007C5.72158 13.4899 10.1285 18.901 16.3055 19C17.8747 18.9971 19.0501 17.7481 19.0501 16.25C19.0501 15.8657 18.9768 15.5806 18.8293 15.2854C18.8045 15.2358 18.7803 15.1976 18.7375 15.1333L14.2289 14.3818C13.9999 14.6109 13.9045 14.7182 13.8709 14.7854L13.8165 14.8943L13.7304 14.9803C13.547 15.1638 13.3152 15.306 13.0656 15.3809C12.8238 15.4534 12.4887 15.4828 12.1647 15.3208L12.146 15.3115L12.128 15.3012C11.4061 14.8887 10.7507 14.4559 10.0935 13.804C9.40393 13.2215 8.95673 12.5358 8.54889 11.8221L8.51205 11.7576L8.48856 11.6872C8.31531 11.1674 8.41816 10.4024 9.06466 10.0792C9.08536 10.0688 9.13179 10.0386 9.19948 9.98056C9.26271 9.92636 9.31947 9.86995 9.36974 9.81967C9.39443 9.79499 9.43946 9.71923 9.44848 9.59482L8.81224 5.32294C8.73189 5.26762 8.64779 5.20035 8.56834 5.11886C8.25463 5.04996 7.93926 5 7.70007 5Z" fill="black"/>
<path fill-rule="evenodd" clip-rule="evenodd" d="M18.7385 6.8279C19.0268 7.12526 19.0195 7.60008 18.7222 7.88843L15.5165 10.997C15.447 11.102 15.3565 11.1858 15.2603 11.245C15.083 11.3541 14.9036 11.375 14.7876 11.375C14.5583 11.375 14.2816 11.2922 14.0697 11.0803L14.032 11.0426L12.8001 9.40001C12.5515 9.06864 12.6187 8.59854 12.9501 8.35001C13.2814 8.10148 13.7515 8.16864 14.0001 8.50001L14.8155 9.58728L17.678 6.81158C17.9753 6.52323 18.4501 6.53053 18.7385 6.8279Z" fill="black"/>
</svg>
