<svg xmlns="http://www.w3.org/2000/svg" fill="none" viewBox="0 0 24 24">
  <path fill="#000" d="M3.25 11.231c0-4.814 3.936-8.75 8.75-8.75s8.75 3.936 8.75 8.75c0 4.815-3.936 8.75-8.75 8.75a9.3 9.3 0 0 1-2.506-.329.75.75 0 0 1 .412-1.442 7.8 7.8 0 0 0 2.094.271c3.986 0 7.25-3.264 7.25-7.25s-3.264-7.25-7.25-7.25-7.25 3.264-7.25 7.25c0 1.915.73 3.72 1.98 4.97a.75.75 0 0 1-1.06 1.06c-1.55-1.55-2.42-3.744-2.42-6.03"/>
  <path fill="#000" d="M6.1 15.981a.75.75 0 0 1 .75.75v2.988l2.473-1.436a.75.75 0 1 1 .754 1.297l-3.12 1.812-.022.01a1.12 1.12 0 0 1-.995 0 1.07 1.07 0 0 1-.59-.97v-3.7a.75.75 0 0 1 .75-.75M9.27 8.3a.75.75 0 0 1 1.06 0l4.3 4.3a.75.75 0 1 1-1.06 1.061l-4.3-4.3a.75.75 0 0 1 0-1.06"/>
  <path fill="#000" d="M14.63 8.3a.75.75 0 0 1 0 1.061l-4.3 4.3a.75.75 0 0 1-1.06-1.06l4.3-4.3a.75.75 0 0 1 1.06 0"/>
</svg>
