<svg xmlns="http://www.w3.org/2000/svg" fill="none" viewBox="0 0 24 24">
  <path fill="#000" d="M2.25 7.155A4.76 4.76 0 0 1 7 2.405h5a.75.75 0 0 1 0 1.5H7a3.26 3.26 0 0 0-3.25 3.25v7A3.26 3.26 0 0 0 7 17.405h2.5a.75.75 0 0 1 0 1.5H7a4.76 4.76 0 0 1-4.75-4.75zM21 9.405a.75.75 0 0 1 .75.75v4a4.76 4.76 0 0 1-4.75 4.75h-3a.75.75 0 0 1 0-1.5h3a3.26 3.26 0 0 0 3.25-3.25v-4a.75.75 0 0 1 .75-.75"/>
  <path fill="#000" d="M9.018 17.581a.75.75 0 0 1 1.056.092l1.903 2.265 1.399-2.099a.75.75 0 1 1 1.248.832l-1.641 2.462-.053.053c-.217.217-.53.376-.868.404a1.17 1.17 0 0 1-1.057-.477l-2.08-2.475a.75.75 0 0 1 .093-1.057m4.182-3.926a3.8 3.8 0 1 0 0-7.6 3.8 3.8 0 0 0 0 7.6"/>
  <path fill="#000" d="M13.2 6.805a3.05 3.05 0 1 0 0 6.1 3.05 3.05 0 0 0 0-6.1m-4.55 3.05a4.55 4.55 0 1 1 9.1 0 4.55 4.55 0 0 1-9.1 0"/>
  <path fill="#000" d="M10.912 12.107a.75.75 0 0 1 .036 1.06l-1.4 1.5a.75.75 0 0 1-1.096-1.023l1.4-1.5a.75.75 0 0 1 1.06-.037"/>
</svg>
