<svg xmlns="http://www.w3.org/2000/svg" fill="none" viewBox="0 0 24 24">
  <path fill="#000" d="M20.344 19.438c-.3.3-.7.6-1.1.7-.2.1-.4.1-.6.2l-3.9-2.8c-.2-.2-.4-.5-.3-.7 0-.2.1-.4.1-.7.1-.3-.1-.5-.3-.6-.7-.2-1.5-.3-2.3-.3s-1.6.1-2.3.3c-.3.1-.4.4-.3.6s.1.5.1.8q0 .45-.3.6l-3.9 2.9c-.2 0-.4-.1-.5-.2-.4-.2-.8-.4-1.1-.7-1.3-1.3-1.3-3.5 0-4.9 4.6-4.6 11.9-4.7 16.5-.3.1.1.2.2.3.2 1.2 1.4 1.2 3.6-.1 4.9"/>
  <path fill="#000" d="M4.184 15.159c-1.034 1.123-1.004 2.855-.01 3.849.198.198.481.348.905.56l.047.023 3.568-2.653c0-.157 0-.272-.01-.37a.5.5 0 0 0-.016-.103c-.313-.641.046-1.407.738-1.638l.016-.005.016-.005a9.3 9.3 0 0 1 2.506-.329c.858 0 1.729.107 2.506.33l.067.018.062.031c.177.089.404.244.563.499.157.25.22.559.149.881-.01.185-.042.337-.065.442-.03.134-.032.15-.032.15v.078l.044.053 3.535 2.538c.1-.025.12-.033.135-.04l.074-.037.08-.02c.204-.051.487-.239.751-.503.959-.958 1.024-2.61.176-3.738a1 1 0 0 1-.145-.094 2 2 0 0 1-.222-.199l-.003-.003c-4.296-4.103-11.119-4.02-15.435.284m10.966 1.69v.002zm5.504-3.06c-4.901-4.68-12.66-4.56-17.54.319l-.01.01-.01.01c-1.557 1.677-1.584 4.337.02 5.94.372.374.845.616 1.212.8.233.183.567.32.918.32h.248l4.057-3.016c.487-.28.645-.784.645-1.234v-.014c0-.14 0-.32-.016-.491a2 2 0 0 0-.036-.25 8 8 0 0 1 1.802-.195c.645 0 1.282.071 1.847.207a1 1 0 0 1-.03.168l-.006.028c-.014.064-.04.172-.053.296-.098.355.028.676.108.837.11.22.268.409.403.545l.044.043 4.317 3.1.405-.203a1 1 0 0 1 .16-.047c.081-.02.216-.053.362-.116.563-.164 1.051-.556 1.373-.877 1.6-1.6 1.572-4.247.14-5.919l-.225-.262zM15.481 3.615a.75.75 0 0 1-.014 1.06l-3.7 3.6a.75.75 0 0 1-1.046-1.074l3.7-3.6a.75.75 0 0 1 1.06.014"/>
  <path fill="#000" d="M10.594 3.538a.75.75 0 0 1 .75-.75h3.6c.32 0 .645.11.892.358.248.247.358.572.358.892v3.6a.75.75 0 0 1-1.5 0v-3.35h-3.35a.75.75 0 0 1-.75-.75m-2.781.77a.75.75 0 0 1 1.061 0l2.9 2.9a.75.75 0 1 1-1.06 1.06l-2.9-2.9a.75.75 0 0 1 0-1.06"/>
</svg>
