<svg xmlns="http://www.w3.org/2000/svg" fill="none" viewBox="0 0 24 24">
  <path fill="#000" d="M6 15V9c0-1.7 1.3-3 3-3h6c1.7 0 3 1.3 3 3v6c0 1.7-1.3 3-3 3H9c-1.7 0-3-1.4-3-3"/>
  <path fill="#000" d="M9 6.75c-1.286 0-2.25.964-2.25 2.25v6c0 1.202.98 2.25 2.25 2.25h6c1.286 0 2.25-.964 2.25-2.25V9c0-1.286-.964-2.25-2.25-2.25zM5.25 9c0-2.114 1.636-3.75 3.75-3.75h6c2.114 0 3.75 1.636 3.75 3.75v6c0 2.114-1.636 3.75-3.75 3.75H9c-2.13 0-3.75-1.752-3.75-3.75z"/>
  <path fill="#000" d="M10 17.25a.75.75 0 0 1 .75.75v2.5a.75.75 0 0 1-1.5 0V18a.75.75 0 0 1 .75-.75m0-14.5a.75.75 0 0 1 .75.75V6a.75.75 0 0 1-1.5 0V3.5a.75.75 0 0 1 .75-.75m4 14.5a.75.75 0 0 1 .75.75v2.5a.75.75 0 0 1-1.5 0V18a.75.75 0 0 1 .75-.75m0-14.5a.75.75 0 0 1 .75.75V6a.75.75 0 0 1-1.5 0V3.5a.75.75 0 0 1 .75-.75M2.75 10a.75.75 0 0 1 .75-.75H6a.75.75 0 0 1 0 1.5H3.5a.75.75 0 0 1-.75-.75m14.5 0a.75.75 0 0 1 .75-.75h2.5a.75.75 0 0 1 0 1.5H18a.75.75 0 0 1-.75-.75m-14.5 4a.75.75 0 0 1 .75-.75H6a.75.75 0 0 1 0 1.5H3.5a.75.75 0 0 1-.75-.75m14.5 0a.75.75 0 0 1 .75-.75h2.5a.75.75 0 0 1 0 1.5H18a.75.75 0 0 1-.75-.75"/>
</svg>
