<svg xmlns="http://www.w3.org/2000/svg" fill="none" viewBox="0 0 24 24">
  <path fill="#000" d="M20.3 17.05H3.6V6.85c0-1.6 1.3-2.9 2.9-2.9h11c1.6 0 2.9 1.3 2.9 2.9v10.2z"/>
  <path fill="#000" d="M6.5 4.7c-1.186 0-2.15.964-2.15 2.15v9.45h15.3V6.85c0-1.186-.964-2.15-2.15-2.15zM2.85 6.85A3.65 3.65 0 0 1 6.5 3.2h11a3.65 3.65 0 0 1 3.65 3.65V17.8H2.85z"/>
  <path fill="#000" d="M3.5 17.8c-.386 0-.75.364-.75.75s.364.75.75.75h17c.386 0 .75-.364.75-.75s-.364-.75-.75-.75zm-2.25.75c0-1.214 1.036-2.25 2.25-2.25h17c1.214 0 2.25 1.036 2.25 2.25s-1.036 2.25-2.25 2.25h-17c-1.214 0-2.25-1.036-2.25-2.25"/>
</svg>
