<svg xmlns="http://www.w3.org/2000/svg" fill="none" viewBox="0 0 24 24">
  <path fill="#000" d="M4.7 2.75c-1.314 0-2.45 1.136-2.45 2.45v9.6c0 1.443 1.165 2.45 2.45 2.45h3.367l-.306 2.318c-.101.485.097.914.349 1.189.257.28.65.493 1.09.493h5.4c.974 0 1.55-.799 1.55-1.55v-.05l-.317-2.4H19.3c1.314 0 2.45-1.136 2.45-2.45V5.2c0-1.443-1.165-2.45-2.45-2.45zm10.935 13H19.3c.486 0 .95-.464.95-.95V5.2a.936.936 0 0 0-.95-.95H4.7c-.486 0-.95.464-.95.95v9.6c0 .557.435.95.95.95h3.565l.19-1.434c.148-1.53 1.516-2.566 2.945-2.566h1.1c1.49 0 2.678 1.087 2.938 2.516l.003.018zm-5.688-1.282c.06-.662.687-1.218 1.453-1.218h1.1c.705 0 1.313.506 1.459 1.268l.687 5.204-.001.003-.01.018-.004.003h-.001l-.006.002-.024.002H9.25l.695-5.267z"/>
</svg>
