<svg xmlns="http://www.w3.org/2000/svg" fill="none" viewBox="0 0 24 24">
  <path fill="#000" d="M21 13c0 2.2-1.8 4-4 4H7c-2.2 0-4-1.8-4-4z"/>
  <path fill="#000" d="M2.25 12.25h19.5V13A4.76 4.76 0 0 1 17 17.75H7A4.76 4.76 0 0 1 2.25 13zm1.588 1.5A3.266 3.266 0 0 0 7 16.25h10a3.266 3.266 0 0 0 3.162-2.5z"/>
  <path fill="#000" d="M7 3.75A3.26 3.26 0 0 0 3.75 7v5.25h16.5V7c0-1.874-1.452-3.25-3.25-3.25zM2.25 7A4.76 4.76 0 0 1 7 2.25h10c2.602 0 4.75 2.024 4.75 4.75v6.75H2.25zm9 14v-4h1.5v4z"/>
  <path fill="#000" d="M6.75 21a.75.75 0 0 1 .75-.75h9a.75.75 0 0 1 0 1.5h-9a.75.75 0 0 1-.75-.75"/>
</svg>
