<svg xmlns="http://www.w3.org/2000/svg" fill="none" viewBox="0 0 24 24">
  <path fill="#000" d="M8.8 4.5c0-.08.03-.135.074-.177a.27.27 0 0 1 .176-.073h6c.08 0 .135.03.177.074a.27.27 0 0 1 .073.176v3.4q0 .077.015.15h-6.53A1 1 0 0 0 8.8 7.9zM7.315 8.05A1 1 0 0 1 7.3 7.9V4.5c0-1.062.885-1.75 1.75-1.75h6c1.062 0 1.75.885 1.75 1.75v3.4a1 1 0 0 1-.015.15h2.565a2.33 2.33 0 0 1 2.35 2.35v4a2.33 2.33 0 0 1-2.35 2.35H16.6v2.168c.266 1.338-.915 2.332-2.05 2.332h-5.1c-1.214 0-2.25-1.036-2.25-2.25v-2.25H4.65A2.33 2.33 0 0 1 2.3 14.4v-4a2.33 2.33 0 0 1 2.35-2.35zm12.035 7.2H16.6v-.75a1.86 1.86 0 0 0-1.85-1.85h-5.7A1.86 1.86 0 0 0 7.2 14.5v.75H4.65a.83.83 0 0 1-.85-.85v-4a.83.83 0 0 1 .85-.85h14.7a.83.83 0 0 1 .85.85v4a.83.83 0 0 1-.85.85m-10.3-1.1a.36.36 0 0 0-.35.35V19c0 .386.364.75.75.75h5.1c.185 0 .36-.083.47-.204a.38.38 0 0 0 .103-.364l-.023-.09V14.5a.36.36 0 0 0-.35-.35z"/>
</svg>
