<svg xmlns="http://www.w3.org/2000/svg" fill="none" viewBox="0 0 24 24">
  <path fill="#000" d="M9.25 5.25A3.945 3.945 0 0 0 5.3 9.2v5.5a3.945 3.945 0 0 0 3.95 3.95h5.5a3.945 3.945 0 0 0 3.95-3.95V9.2a3.945 3.945 0 0 0-3.95-3.95zM3.8 9.2a5.445 5.445 0 0 1 5.45-5.45h5.5A5.445 5.445 0 0 1 20.2 9.2v5.5a5.445 5.445 0 0 1-5.45 5.45h-5.5A5.445 5.445 0 0 1 3.8 14.7z"/>
  <path fill="#000" d="M8.974 2.923A.23.23 0 0 0 8.9 3.1v.945l.026.046c.024.042.06.102.095.174l-1.342.67-.058-.105a3 3 0 0 1-.08-.145 1.3 1.3 0 0 1-.14-.585v-1c0-1.062.885-1.75 1.75-1.75h5.6c1.061 0 1.75.885 1.75 1.75v1.017c0 .086 0 .218-.024.356a1.6 1.6 0 0 1-.156.462l-1.342-.67.02-.042v-.017L15 4.1v-1a.27.27 0 0 0-.073-.176.23.23 0 0 0-.177-.074h-5.6a.27.27 0 0 0-.176.073M15.092 19.9l.028.03 1.06-1.06c.223.223.28.496.3.636.02.142.02.29.02.378V20.9c0 1.062-.885 1.75-1.75 1.75h-5.5c-1.062 0-1.75-.885-1.75-1.75v-1.017c0-.086 0-.218.023-.356.027-.167.082-.314.156-.463l1.342.671-.019.042-.001.017L9 19.9v1a.27.27 0 0 0 .073.176.23.23 0 0 0 .177.074h5.5a.27.27 0 0 0 .176-.073A.23.23 0 0 0 15 20.9v-1l-.001-.124-.004-.058a.5.5 0 0 0 .096.181M11.95 8.55a.75.75 0 0 1 .75.75v2.9c0 .162.085.385.236.625l1.444 1.445a.75.75 0 0 1-1.06 1.06l-1.553-1.552-.041-.062c-.225-.337-.526-.89-.526-1.516V9.3a.75.75 0 0 1 .75-.75"/>
</svg>
