<svg xmlns="http://www.w3.org/2000/svg" fill="none" viewBox="0 0 24 24">
  <path fill="#000" d="M15.5 6.5v14H7c-2.2 0-4-1.8-4-4v-6c0-2.2 1.8-4 4-4z"/>
  <path fill="#000" d="M7 7.25a3.26 3.26 0 0 0-3.25 3.25v6A3.26 3.26 0 0 0 7 19.75h7.75V7.25zM2.25 10.5A4.76 4.76 0 0 1 7 5.75h9.25v15.5H7a4.76 4.76 0 0 1-4.75-4.75z"/>
  <path fill="#000" d="M14.75 5.75H17c2.602 0 4.75 2.024 4.75 4.75v6A4.76 4.76 0 0 1 17 21.25h-2.25zm1.5 1.5v12.5H17a3.26 3.26 0 0 0 3.25-3.25v-6c0-1.874-1.452-3.25-3.25-3.25zM8.67 2.97a.75.75 0 0 1 1.06 0l2.12 2.12 2.12-2.12a.75.75 0 0 1 1.06 1.06l-2.4 2.4a1 1 0 0 1-.43.247 1.3 1.3 0 0 1-.7 0 1 1 0 0 1-.43-.247l-2.4-2.4a.75.75 0 0 1 0-1.06"/>
</svg>
