<svg xmlns="http://www.w3.org/2000/svg" fill="none" viewBox="0 0 24 24">
  <path fill="#000" d="M4.15 10.15C4.15 5.843 7.579 2.3 12 2.3c4.314 0 7.85 3.536 7.85 7.85 0 4.3-3.522 7.95-7.85 7.95-4.321 0-7.85-3.543-7.85-7.95M12 3.8c-3.579 0-6.35 2.857-6.35 6.35 0 3.593 2.871 6.45 6.35 6.45 3.472 0 6.35-2.95 6.35-6.45 0-3.486-2.864-6.35-6.35-6.35m0 4a2.366 2.366 0 0 0-2.35 2.35A2.366 2.366 0 0 0 12 12.5a2.366 2.366 0 0 0 2.35-2.35A2.366 2.366 0 0 0 12 7.8m-3.85 2.35A3.866 3.866 0 0 1 12 6.3a3.866 3.866 0 0 1 3.85 3.85A3.866 3.866 0 0 1 12 14a3.866 3.866 0 0 1-3.85-3.85"/>
  <path fill="#000" d="M15.1 10.15c0 1.7-1.4 3.1-3.1 3.1s-3.1-1.4-3.1-3.1 1.4-3.1 3.1-3.1 3.1 1.4 3.1 3.1"/>
  <path fill="#000" d="M12 7.8a2.366 2.366 0 0 0-2.35 2.35A2.366 2.366 0 0 0 12 12.5a2.366 2.366 0 0 0 2.35-2.35A2.366 2.366 0 0 0 12 7.8m-3.85 2.35A3.866 3.866 0 0 1 12 6.3a3.866 3.866 0 0 1 3.85 3.85A3.866 3.866 0 0 1 12 14a3.866 3.866 0 0 1-3.85-3.85m3.1 10.8v-3.7h1.5v3.7z"/>
  <path fill="#000" d="M7.55 20.95a.75.75 0 0 1 .75-.75h7.4a.75.75 0 1 1 0 1.5H8.3a.75.75 0 0 1-.75-.75"/>
</svg>
