<svg width="24" height="24" viewBox="0 0 24 24" fill="none" xmlns="http://www.w3.org/2000/svg">
<path d="M11.15 10.8499H10.45V10.0499C10.45 9.9499 10.55 2.1499 18.35 2.1499H19.15V2.9499C19.05 3.0499 18.55 10.8499 11.15 10.8499ZM17.45 3.6499C13.15 4.1499 12.15 7.6499 11.95 9.2499C16.05 8.8499 17.15 5.3499 17.45 3.6499Z" fill="black"/>
<path d="M11.85 11.9498H11.05C6.44998 11.9498 5.04998 7.9498 4.84998 5.8498V5.0498H5.64998C10.45 5.0498 11.75 9.0498 11.85 11.2498V11.9498ZM6.54998 6.6498C6.84998 7.8498 7.64998 10.0498 10.25 10.4498C9.94998 9.2498 9.24998 7.0498 6.54998 6.6498Z" fill="black"/>
<path d="M14.95 21.8499H7.34998C5.94998 21.8499 4.84998 20.7499 4.84998 19.3499V15.5499C4.84998 14.5499 5.64998 13.8499 6.54998 13.8499H15.65C16.65 13.8499 17.35 14.6499 17.35 15.5499V19.3499C17.45 20.7499 16.35 21.8499 14.95 21.8499ZM6.64998 15.3499C6.54998 15.3499 6.44998 15.4499 6.44998 15.5499V19.3499C6.44998 19.8499 6.84998 20.3499 7.44998 20.3499H15.05C15.55 20.3499 16.05 19.9499 16.05 19.3499V15.5499C16.05 15.4499 15.95 15.3499 15.85 15.3499H6.64998Z" fill="black"/>
<path d="M11.95 10.0498H10.45V14.5498H11.95V10.0498Z" fill="black"/>
</svg>
