<svg width="24" height="24" viewBox="0 0 24 24" fill="none" xmlns="http://www.w3.org/2000/svg">
<path d="M9.04999 9.05007V4.25007C9.04999 3.55007 9.64999 2.95007 10.35 2.95007H13.75C14.45 2.95007 15.05 3.55007 15.05 4.25007V9.05007" fill="black"/>
<path fill-rule="evenodd" clip-rule="evenodd" d="M10.35 3.70007C10.0642 3.70007 9.79999 3.96429 9.79999 4.25007V9.05007C9.79999 9.46429 9.4642 9.80007 9.04999 9.80007C8.63577 9.80007 8.29999 9.46429 8.29999 9.05007V4.25007C8.29999 3.13586 9.23577 2.20007 10.35 2.20007H13.75C14.8642 2.20007 15.8 3.13586 15.8 4.25007V9.05007C15.8 9.46429 15.4642 9.80007 15.05 9.80007C14.6358 9.80007 14.3 9.46429 14.3 9.05007V4.25007C14.3 3.96429 14.0358 3.70007 13.75 3.70007H10.35Z" fill="black"/>
<path d="M14.95 14.9501V19.7501C14.95 20.4501 14.35 21.0501 13.65 21.0501H10.35C9.64999 21.0501 9.04999 20.4501 9.04999 19.7501V14.9501" fill="black"/>
<path fill-rule="evenodd" clip-rule="evenodd" d="M9.04999 14.2001C9.4642 14.2001 9.79999 14.5359 9.79999 14.9501V19.7501C9.79999 20.0359 10.0642 20.3001 10.35 20.3001H13.65C13.9358 20.3001 14.2 20.0359 14.2 19.7501V14.9501C14.2 14.5359 14.5358 14.2001 14.95 14.2001C15.3642 14.2001 15.7 14.5359 15.7 14.9501V19.7501C15.7 20.8643 14.7642 21.8001 13.65 21.8001H10.35C9.23578 21.8001 8.29999 20.8643 8.29999 19.7501V14.9501C8.29999 14.5359 8.63577 14.2001 9.04999 14.2001Z" fill="black"/>
<path d="M14.95 9.05005H19.75C20.45 9.05005 21.05 9.65005 21.05 10.35V13.75C21.05 14.45 20.45 15.05 19.75 15.05H14.95" fill="black"/>
<path fill-rule="evenodd" clip-rule="evenodd" d="M14.2 9.05005C14.2 8.63584 14.5358 8.30005 14.95 8.30005H19.75C20.8642 8.30005 21.8 9.23584 21.8 10.35V13.75C21.8 14.8643 20.8642 15.8 19.75 15.8H14.95C14.5358 15.8 14.2 15.4643 14.2 15.05C14.2 14.6358 14.5358 14.3 14.95 14.3H19.75C20.0358 14.3 20.3 14.0358 20.3 13.75V10.35C20.3 10.0643 20.0358 9.80005 19.75 9.80005H14.95C14.5358 9.80005 14.2 9.46426 14.2 9.05005Z" fill="black"/>
<path d="M14.95 9.05005H9.04999V14.95H14.95V9.05005Z" fill="black"/>
<path fill-rule="evenodd" clip-rule="evenodd" d="M8.29999 8.30005H15.7V15.7H8.29999V8.30005ZM9.79999 9.80005V14.2H14.2V9.80005H9.79999Z" fill="black"/>
<path d="M9.05001 9.05005V14.95H4.25001C3.55001 14.95 2.95001 14.35 2.95001 13.65V10.35C2.95001 9.65005 3.55001 9.05005 4.25001 9.05005H9.05001Z" fill="black"/>
<path fill-rule="evenodd" clip-rule="evenodd" d="M4.25001 9.80005C3.96423 9.80005 3.70001 10.0643 3.70001 10.35V13.65C3.70001 13.9358 3.96423 14.2 4.25001 14.2H8.30001V9.80005H4.25001ZM2.20001 10.35C2.20001 9.23584 3.1358 8.30005 4.25001 8.30005H9.80001V15.7H4.25001C3.1358 15.7 2.20001 14.7643 2.20001 13.65V10.35Z" fill="black"/>
</svg>
