<svg width="24" height="24" viewBox="0 0 24 24" fill="none" xmlns="http://www.w3.org/2000/svg">
<path d="M10.5 10.5H6.5C5.4 10.5 4.5 9.6 4.5 8.5V6.5C4.5 5.4 5.4 4.5 6.5 4.5H8.5C9.6 4.5 10.5 5.4 10.5 6.5V10.5Z" fill="black"/>
<path fill-rule="evenodd" clip-rule="evenodd" d="M6.5 5.25C5.81421 5.25 5.25 5.81421 5.25 6.5V8.5C5.25 9.18579 5.81421 9.75 6.5 9.75H9.75V6.5C9.75 5.81421 9.18579 5.25 8.5 5.25H6.5ZM3.75 6.5C3.75 4.98579 4.98579 3.75 6.5 3.75H8.5C10.0142 3.75 11.25 4.98579 11.25 6.5V11.25H6.5C4.98579 11.25 3.75 10.0142 3.75 8.5V6.5Z" fill="black"/>
<path d="M17.5 10.5H13.5V6.5C13.5 5.4 14.4 4.5 15.5 4.5H17.5C18.6 4.5 19.5 5.4 19.5 6.5V8.5C19.5 9.6 18.6 10.5 17.5 10.5Z" fill="black"/>
<path fill-rule="evenodd" clip-rule="evenodd" d="M15.5 5.25C14.8142 5.25 14.25 5.81421 14.25 6.5V9.75H17.5C18.1858 9.75 18.75 9.18579 18.75 8.5V6.5C18.75 5.81421 18.1858 5.25 17.5 5.25H15.5ZM12.75 6.5C12.75 4.98579 13.9858 3.75 15.5 3.75H17.5C19.0142 3.75 20.25 4.98579 20.25 6.5V8.5C20.25 10.0142 19.0142 11.25 17.5 11.25H12.75V6.5Z" fill="black"/>
<path d="M8.5 19.5H6.5C5.4 19.5 4.5 18.6 4.5 17.5V15.5C4.5 14.4 5.4 13.5 6.5 13.5H10.5V17.5C10.5 18.6 9.6 19.5 8.5 19.5Z" fill="black"/>
<path fill-rule="evenodd" clip-rule="evenodd" d="M6.5 14.25C5.81421 14.25 5.25 14.8142 5.25 15.5V17.5C5.25 18.1858 5.81421 18.75 6.5 18.75H8.5C9.18579 18.75 9.75 18.1858 9.75 17.5V14.25H6.5ZM3.75 15.5C3.75 13.9858 4.98579 12.75 6.5 12.75H11.25V17.5C11.25 19.0142 10.0142 20.25 8.5 20.25H6.5C4.98579 20.25 3.75 19.0142 3.75 17.5V15.5Z" fill="black"/>
<path d="M17.5 19.5H15.5C14.4 19.5 13.5 18.6 13.5 17.5V13.5H17.5C18.6 13.5 19.5 14.4 19.5 15.5V17.5C19.5 18.6 18.6 19.5 17.5 19.5Z" fill="black"/>
<path fill-rule="evenodd" clip-rule="evenodd" d="M12.75 12.75H17.5C19.0142 12.75 20.25 13.9858 20.25 15.5V17.5C20.25 19.0142 19.0142 20.25 17.5 20.25H15.5C13.9858 20.25 12.75 19.0142 12.75 17.5V12.75ZM14.25 14.25V17.5C14.25 18.1858 14.8142 18.75 15.5 18.75H17.5C18.1858 18.75 18.75 18.1858 18.75 17.5V15.5C18.75 14.8142 18.1858 14.25 17.5 14.25H14.25Z" fill="black"/>
</svg>
