<svg width="24" height="24" viewBox="0 0 24 24" fill="none" xmlns="http://www.w3.org/2000/svg">
<path fill-rule="evenodd" clip-rule="evenodd" d="M9 5.12744C8.31421 5.12744 7.75 5.69165 7.75 6.37744V18.5774C7.75 18.7164 7.81411 18.7982 7.87746 18.8368C7.92501 18.8657 7.98885 18.8817 8.06949 18.8533L11.033 16.0874L11.084 16.0534C11.6359 15.6855 12.3641 15.6855 12.916 16.0534L12.967 16.0874L15.9305 18.8533C16.0112 18.8817 16.075 18.8657 16.1225 18.8368C16.1859 18.7982 16.25 18.7164 16.25 18.5774V6.37744C16.25 5.63955 15.6354 5.12744 15 5.12744H9ZM6.25 6.37744C6.25 4.86323 7.48579 3.62744 9 3.62744H15C16.3646 3.62744 17.75 4.71533 17.75 6.37744V18.5774C17.75 19.9113 16.3639 20.8349 15.1279 20.1286L15.0521 20.0853L12.0531 17.2862C12.0195 17.2745 11.9805 17.2745 11.9469 17.2862L8.94791 20.0853L8.8721 20.1286C7.63607 20.8349 6.25 19.9113 6.25 18.5774V6.37744Z" fill="black"/>
<path d="M17 6.37744V9.37744H7V6.37744C7 5.27744 7.9 4.37744 9 4.37744H15C16 4.37744 17 5.17744 17 6.37744Z" fill="black"/>
<path fill-rule="evenodd" clip-rule="evenodd" d="M9 5.12744C8.31421 5.12744 7.75 5.69165 7.75 6.37744V8.62744H16.25V6.37744C16.25 5.63955 15.6354 5.12744 15 5.12744H9ZM6.25 6.37744C6.25 4.86323 7.48579 3.62744 9 3.62744H15C16.3646 3.62744 17.75 4.71533 17.75 6.37744V10.1274H6.25V6.37744Z" fill="black"/>
</svg>
