<svg width="24" height="24" viewBox="0 0 24 24" fill="none" xmlns="http://www.w3.org/2000/svg">
<path fill-rule="evenodd" clip-rule="evenodd" d="M11 3.62744C10.3142 3.62744 9.75 4.19165 9.75 4.87744V5.12744H13C14.5142 5.12744 15.75 6.36323 15.75 7.87744V15.3483L17.9286 17.3527C18.0102 17.382 18.0746 17.366 18.1225 17.3368C18.1859 17.2982 18.25 17.2164 18.25 17.0774V4.87744C18.25 4.13955 17.6354 3.62744 17 3.62744H11ZM8.25 4.87744C8.25 3.36323 9.48579 2.12744 11 2.12744H17C18.3646 2.12744 19.75 3.21533 19.75 4.87744V17.0774C19.75 18.4113 18.3639 19.3349 17.1279 18.6286L17.0545 18.5867L14.25 16.0066V7.87744C14.25 7.19166 13.6858 6.62744 13 6.62744H8.25V4.87744Z" fill="black"/>
<path fill-rule="evenodd" clip-rule="evenodd" d="M8.95001 17.9774C8.95001 17.5632 9.2858 17.2274 9.70001 17.2274H10.1C10.5142 17.2274 10.85 17.5632 10.85 17.9774C10.85 18.3916 10.5142 18.7274 10.1 18.7274H9.70001C9.2858 18.7274 8.95001 18.3916 8.95001 17.9774Z" fill="black"/>
<path d="M15 7.87744V20.0774C15 20.8774 14.2 21.3774 13.5 20.9774L10.5 18.1774C10.4 18.0774 10.3 18.0774 10.2 17.9774C10.1 17.9774 9.9 17.9774 9.8 17.9774C9.7 17.9774 9.6 18.0774 9.5 18.0774L6.5 20.8774C5.8 21.2774 5 20.7774 5 19.9774V7.87744C5 6.77744 5.9 5.87744 7 5.87744H13C14 5.87744 15 6.67744 15 7.87744Z" fill="black"/>
<path fill-rule="evenodd" clip-rule="evenodd" d="M7 6.62744C6.31421 6.62744 5.75 7.19166 5.75 7.87744V19.9774C5.75 20.1164 5.81411 20.1982 5.87746 20.2368C5.92501 20.2657 5.98885 20.2817 6.06949 20.2533L9.20438 17.3274H9.37466C9.39963 17.3159 9.42982 17.3028 9.46166 17.2908C9.53325 17.264 9.65214 17.2274 9.8 17.2274H10.5107L10.6942 17.411C10.7499 17.4387 10.8854 17.5062 11.0186 17.6356L13.9305 20.3533C14.0112 20.3817 14.075 20.3657 14.1225 20.3368C14.1859 20.2982 14.25 20.2164 14.25 20.0774V7.87744C14.25 7.13955 13.6354 6.62744 13 6.62744H7ZM4.25 7.87744C4.25 6.36323 5.48579 5.12744 7 5.12744H13C14.3646 5.12744 15.75 6.21533 15.75 7.87744V20.0774C15.75 21.4113 14.3639 22.3349 13.1279 21.6286L13.0521 21.5853L10.0099 18.7459C10.0088 18.7454 10.0077 18.7448 10.0066 18.7443C9.99753 18.7398 9.98628 18.7342 9.97322 18.7274H9.92536C9.9123 18.7335 9.89779 18.74 9.88238 18.7465L6.94791 21.4853L6.8721 21.5286C5.63607 22.2349 4.25 21.3113 4.25 19.9774V7.87744Z" fill="black"/>
</svg>
