<svg width="24" height="24" viewBox="0 0 24 24" fill="none" xmlns="http://www.w3.org/2000/svg">
<path d="M15 21H9C5.7 21 3 18.3 3 15V9C3 5.7 5.7 3 9 3H15C18.3 3 21 5.7 21 9V15C21 18.3 18.3 21 15 21Z" fill="black"/>
<path fill-rule="evenodd" clip-rule="evenodd" d="M9 3.75C6.11421 3.75 3.75 6.11421 3.75 9V15C3.75 17.8858 6.11421 20.25 9 20.25H15C17.8858 20.25 20.25 17.8858 20.25 15V9C20.25 6.11421 17.8858 3.75 15 3.75H9ZM2.25 9C2.25 5.28579 5.28579 2.25 9 2.25H15C18.7142 2.25 21.75 5.28579 21.75 9V15C21.75 18.7142 18.7142 21.75 15 21.75H9C5.28579 21.75 2.25 18.7142 2.25 15V9Z" fill="black"/>
<path fill-rule="evenodd" clip-rule="evenodd" d="M16.4354 8.77479C16.7254 9.07046 16.7209 9.54531 16.4253 9.83541L11.1274 15.0333C10.9456 15.2141 10.6671 15.4 10.3 15.4C9.93093 15.4 9.65142 15.2121 9.46967 15.0304L9.43523 14.9959L7.40553 12.3573C7.15298 12.029 7.2144 11.5581 7.54272 11.3056C7.87103 11.053 8.34192 11.1145 8.59447 11.4428L10.3367 13.7077L15.3747 8.76469C15.6704 8.4746 16.1453 8.47912 16.4354 8.77479Z" fill="white"/>
</svg>
