<svg width="24" height="24" viewBox="0 0 24 24" fill="none" xmlns="http://www.w3.org/2000/svg">
<path d="M12 21C7 21 3 17 3 12C3 7 7 3 12 3C17 3 21 7 21 12C21 16.9 16.9 21 12 21Z" fill="black"/>
<path fill-rule="evenodd" clip-rule="evenodd" d="M12 3.75C7.41421 3.75 3.75 7.41421 3.75 12C3.75 16.5858 7.41421 20.25 12 20.25C16.4858 20.25 20.25 16.4858 20.25 12C20.25 7.41421 16.5858 3.75 12 3.75ZM2.25 12C2.25 6.58579 6.58579 2.25 12 2.25C17.4142 2.25 21.75 6.58579 21.75 12C21.75 17.3142 17.3142 21.75 12 21.75C6.58579 21.75 2.25 17.4142 2.25 12Z" fill="black"/>
<path fill-rule="evenodd" clip-rule="evenodd" d="M16.4354 8.77479C16.7255 9.07046 16.7209 9.54531 16.4253 9.83541L11.1274 15.0333C10.9456 15.2141 10.6671 15.4 10.3 15.4C9.93094 15.4 9.65142 15.2121 9.46968 15.0304L9.43524 14.9959L7.40554 12.3573C7.15299 12.029 7.21441 11.5581 7.54272 11.3056C7.87104 11.053 8.34192 11.1145 8.59447 11.4428L10.3367 13.7077L15.3748 8.76469C15.6704 8.4746 16.1453 8.47912 16.4354 8.77479Z" fill="white"/>
</svg>
