<svg width="24" height="24" viewBox="0 0 24 24" fill="none" xmlns="http://www.w3.org/2000/svg">
<path fill-rule="evenodd" clip-rule="evenodd" d="M8.4 3.84998C5.60592 3.84998 3.25 6.12244 3.25 8.99998C3.25 11.1903 4.56225 13.025 6.39544 13.8106C6.77616 13.9738 6.95253 14.4147 6.78936 14.7954C6.62619 15.1761 6.18528 15.3525 5.80456 15.1893C3.43775 14.175 1.75 11.8096 1.75 8.99998C1.75 5.27752 4.79408 2.34998 8.4 2.34998C9.84654 2.34998 11.3181 2.79398 12.4685 3.71432C12.792 3.97308 12.8444 4.44505 12.5857 4.7685C12.3269 5.09194 11.8549 5.14438 11.5315 4.88563C10.6819 4.20597 9.55346 3.84998 8.4 3.84998Z" fill="black"/>
<path d="M15.6 15C18.8585 15 21.5 12.3584 21.5 9.09995C21.5 5.84147 18.8585 3.19995 15.6 3.19995C12.3415 3.19995 9.70001 5.84147 9.70001 9.09995C9.70001 12.3584 12.3415 15 15.6 15Z" fill="black"/>
<path fill-rule="evenodd" clip-rule="evenodd" d="M15.6 3.94995C12.7557 3.94995 10.45 6.25568 10.45 9.09995C10.45 11.9442 12.7557 14.25 15.6 14.25C18.4443 14.25 20.75 11.9442 20.75 9.09995C20.75 6.25568 18.4443 3.94995 15.6 3.94995ZM8.95001 9.09995C8.95001 5.42726 11.9273 2.44995 15.6 2.44995C19.2727 2.44995 22.25 5.42726 22.25 9.09995C22.25 12.7726 19.2727 15.75 15.6 15.75C11.9273 15.75 8.95001 12.7726 8.95001 9.09995Z" fill="black"/>
<path fill-rule="evenodd" clip-rule="evenodd" d="M10.3964 9.32139C10.5502 9.70598 10.3631 10.1425 9.97855 10.2963C8.25723 10.9848 7.03599 12.6224 6.85001 14.5351V14.9993C6.85001 17.8769 9.20592 20.1499 12 20.1499C14.7858 20.1499 17.15 17.7857 17.15 14.9999V14.5005C17.15 14.0863 17.4858 13.7499 17.9 13.7499C18.3142 13.7499 18.65 14.0857 18.65 14.4999V14.9999C18.65 18.6141 15.6142 21.6499 12 21.6499C8.39409 21.6499 5.35001 18.7224 5.35001 14.9999V14.4659L5.35309 14.432C5.57793 11.9587 7.1526 9.81112 9.42146 8.90357C9.80605 8.74974 10.2425 8.9368 10.3964 9.32139Z" fill="black"/>
</svg>
