<svg width="24" height="24" viewBox="0 0 24 24" fill="none" xmlns="http://www.w3.org/2000/svg">
<path d="M19.55 8.60002L16.15 12L12.05 7.80002L15.35 4.40002C15.85 3.90002 16.65 3.90002 17.15 4.40002L19.55 6.80002C20.05 7.30002 20.05 8.10002 19.55 8.60002Z" fill="black"/>
<path fill-rule="evenodd" clip-rule="evenodd" d="M15.8835 4.92724L13.0966 7.79852L16.1564 10.9329L19.0197 8.06969C19.2268 7.86259 19.2268 7.53746 19.0197 7.33035L16.6197 4.93035C16.4136 4.72429 16.0907 4.72325 15.8835 4.92724ZM14.8197 3.86969C15.6126 3.0768 16.8874 3.0768 17.6803 3.86969L20.0803 6.26969C20.8732 7.06259 20.8732 8.33746 20.0803 9.13035L16.1436 13.0671L11.0034 7.80153L14.8197 3.86969Z" fill="black"/>
<path d="M12.05 16.1L8.64998 19.5C8.14998 20 7.34998 20 6.84998 19.5L4.44998 17.1C3.94998 16.6 3.94998 15.8 4.44998 15.3L7.84998 11.9L12.05 16.1Z" fill="black"/>
<path fill-rule="evenodd" clip-rule="evenodd" d="M7.84998 10.8394L13.1106 16.1L9.18031 20.0303C8.38742 20.8232 7.11255 20.8232 6.31965 20.0303L3.91965 17.6303C3.12676 16.8375 3.12676 15.5626 3.91965 14.7697L7.84998 10.8394ZM7.84998 12.9607L4.98031 15.8303C4.77321 16.0375 4.77321 16.3626 4.98031 16.5697L7.38031 18.9697C7.58742 19.1768 7.91255 19.1768 8.11965 18.9697L10.9893 16.1L7.84998 12.9607Z" fill="black"/>
<path d="M19.55 17.2L17.15 19.6C16.65 20.1 15.85 20.1 15.35 19.6L11.95 16.2L16.15 12L19.55 15.4C20.05 15.8 20.05 16.7 19.55 17.2Z" fill="black"/>
<path fill-rule="evenodd" clip-rule="evenodd" d="M16.15 10.9393L20.0553 14.8447C20.4969 15.2193 20.675 15.7684 20.675 16.2625C20.675 16.7741 20.4875 17.3231 20.0803 17.7303L17.6803 20.1303C16.8874 20.9232 15.6125 20.9232 14.8196 20.1303L10.8893 16.2L16.15 10.9393ZM13.0106 16.2L15.8803 19.0697C16.0874 19.2768 16.4125 19.2768 16.6196 19.0697L19.0196 16.6697C19.1124 16.5769 19.175 16.4258 19.175 16.2625C19.175 16.0951 19.1129 16.0108 19.0815 15.9856L19.049 15.9597L16.15 13.0607L13.0106 16.2Z" fill="black"/>
<path d="M11.99 7.80186L7.81812 11.9738L11.99 16.1456L16.1619 11.9738L11.99 7.80186Z" fill="black"/>
<path fill-rule="evenodd" clip-rule="evenodd" d="M6.75748 11.9738L11.99 6.74121L17.2226 11.9738L11.99 17.2063L6.75748 11.9738ZM8.87878 11.9738L11.99 15.085L15.1013 11.9738L11.99 8.86251L8.87878 11.9738Z" fill="black"/>
<path d="M12.05 7.80002L7.84998 12L4.44998 8.60002C3.94998 8.10002 3.94998 7.30002 4.44998 6.80002L6.84998 4.40002C7.34998 3.90002 8.14998 3.90002 8.64998 4.40002L12.05 7.80002Z" fill="black"/>
<path fill-rule="evenodd" clip-rule="evenodd" d="M8.11965 4.93035C7.91255 4.72325 7.58742 4.72325 7.38031 4.93035L4.98031 7.33035C4.77321 7.53746 4.77321 7.86259 4.98031 8.06969L7.84998 10.9394L10.9893 7.80002L8.11965 4.93035ZM6.31965 3.86969C7.11255 3.0768 8.38742 3.0768 9.18031 3.86969L13.1106 7.80002L7.84998 13.0607L3.91965 9.13035C3.12676 8.33746 3.12676 7.06259 3.91965 6.26969L6.31965 3.86969Z" fill="black"/>
</svg>
