<svg width="24" height="24" viewBox="0 0 24 24" fill="none" xmlns="http://www.w3.org/2000/svg">
<path fill-rule="evenodd" clip-rule="evenodd" d="M10.5546 1.57312C11.4432 1.19226 12.4568 1.19226 13.3454 1.57312L13.3876 1.5912L20.1221 5.51129C20.123 5.51182 20.124 5.51235 20.1249 5.51289C21.0594 6.04817 21.6 6.99734 21.6 8.06248V15.7625C21.6 16.8394 21.053 17.7534 20.1859 18.3728L20.1575 18.3931L13.4453 22.3002C12.5793 22.8654 11.4812 22.8298 10.5779 22.3137L10.5727 22.3107L3.87789 18.4137C3.87692 18.4131 3.87596 18.4126 3.87499 18.412C2.94054 17.8767 2.39999 16.9276 2.39999 15.8625V8.06248C2.39999 7.00883 2.92773 6.07593 3.73397 5.53844L3.75296 5.52577L10.5124 1.5912L10.5546 1.57312ZM11.1845 2.93559L4.54912 6.79796C4.16449 7.06246 3.89999 7.52397 3.89999 8.06248V15.8625C3.89999 16.3963 4.15833 16.8463 4.6221 17.1113L4.62731 17.1143L11.3221 21.0113C11.3229 21.0118 11.3237 21.0122 11.3245 21.0127C11.8132 21.2909 12.3036 21.2587 12.634 21.0384L12.653 21.0258L19.3406 17.133C19.8554 16.7553 20.1 16.2768 20.1 15.7625V8.06248C20.1 7.52867 19.8417 7.07867 19.3779 6.81366L19.3727 6.81068L12.7155 2.93559C12.2266 2.73811 11.6734 2.73811 11.1845 2.93559Z" fill="black"/>
<path fill-rule="evenodd" clip-rule="evenodd" d="M11.2039 13.224L3.72304 17.5131L2.97696 16.2118L10.4955 11.9012L10.5146 11.8916C10.9718 11.663 11.3905 11.5125 11.95 11.5125C12.5095 11.5125 12.9282 11.663 13.3854 11.8916L13.4045 11.9012L20.923 16.2118L20.177 17.5131L12.696 13.224C12.3652 13.0601 12.1862 13.0125 11.95 13.0125C11.7138 13.0125 11.5348 13.0601 11.2039 13.224Z" fill="black"/>
<path fill-rule="evenodd" clip-rule="evenodd" d="M2.97696 7.61306L3.72304 6.31177L11.2221 10.6112C11.2219 10.6111 11.2223 10.6113 11.2221 10.6112C11.7114 10.8906 12.2032 10.8589 12.534 10.6384L12.555 10.6243L20.077 6.31177L20.823 7.61306L13.3431 11.9016C12.4775 12.4653 11.3804 12.4293 10.4779 11.9136L2.97696 7.61306Z" fill="black"/>
<path fill-rule="evenodd" clip-rule="evenodd" d="M12.7 12.2625V21.8625H11.2V12.2625H12.7Z" fill="black"/>
</svg>
