<svg width="24" height="24" viewBox="0 0 24 24" fill="none" xmlns="http://www.w3.org/2000/svg">
<path d="M12 9.5C16.6944 9.5 20.5 8.15685 20.5 6.5C20.5 4.84315 16.6944 3.5 12 3.5C7.30558 3.5 3.5 4.84315 3.5 6.5C3.5 8.15685 7.30558 9.5 12 9.5Z" fill="black"/>
<path fill-rule="evenodd" clip-rule="evenodd" d="M4.64849 5.90812C4.3079 6.19232 4.25 6.39585 4.25 6.5C4.25 6.60414 4.3079 6.80768 4.64849 7.09188C4.98486 7.37257 5.51644 7.65898 6.23921 7.91408C7.67798 8.42188 9.71468 8.75 12 8.75C14.2853 8.75 16.322 8.42188 17.7608 7.91408C18.4836 7.65898 19.0151 7.37257 19.3515 7.09188C19.6921 6.80768 19.75 6.60414 19.75 6.5C19.75 6.39586 19.6921 6.19232 19.3515 5.90812C19.0151 5.62743 18.4836 5.34102 17.7608 5.08592C16.322 4.57812 14.2853 4.25 12 4.25C9.71468 4.25 7.67798 4.57812 6.23921 5.08592C5.51644 5.34102 4.98486 5.62743 4.64849 5.90812ZM5.73998 3.67144C7.3776 3.09345 9.5909 2.75 12 2.75C14.4091 2.75 16.6224 3.09345 18.26 3.67144C19.0755 3.95923 19.7887 4.31927 20.3125 4.75641C20.8322 5.19004 21.25 5.77572 21.25 6.5C21.25 7.22428 20.8322 7.80996 20.3125 8.24359C19.7887 8.68073 19.0755 9.04076 18.26 9.32856C16.6224 9.90655 14.4091 10.25 12 10.25C9.5909 10.25 7.3776 9.90655 5.73998 9.32856C4.92455 9.04076 4.21133 8.68073 3.68746 8.24359C3.1678 7.80996 2.75 7.22428 2.75 6.5C2.75 5.77572 3.1678 5.19004 3.68746 4.75641C4.21133 4.31927 4.92455 3.95923 5.73998 3.67144Z" fill="black"/>
<path fill-rule="evenodd" clip-rule="evenodd" d="M4.64849 16.9081C4.3079 17.1923 4.25 17.3959 4.25 17.5C4.25 17.6041 4.3079 17.8077 4.64849 18.0919C4.98486 18.3726 5.51644 18.659 6.23921 18.9141C7.67798 19.4219 9.71468 19.75 12 19.75C14.2853 19.75 16.322 19.4219 17.7608 18.9141C18.4836 18.659 19.0151 18.3726 19.3515 18.0919C19.6921 17.8077 19.75 17.6041 19.75 17.5C19.75 17.3959 19.6921 17.1923 19.3515 16.9081C19.0151 16.6274 18.4836 16.341 17.7608 16.0859C16.322 15.5781 14.2853 15.25 12 15.25C9.71468 15.25 7.67798 15.5781 6.23921 16.0859C5.51644 16.341 4.98486 16.6274 4.64849 16.9081ZM5.73998 14.6714C7.3776 14.0935 9.5909 13.75 12 13.75C14.4091 13.75 16.6224 14.0935 18.26 14.6714C19.0755 14.9592 19.7887 15.3193 20.3125 15.7564C20.8322 16.19 21.25 16.7757 21.25 17.5C21.25 18.2243 20.8322 18.81 20.3125 19.2436C19.7887 19.6807 19.0755 20.0408 18.26 20.3286C16.6224 20.9065 14.4091 21.25 12 21.25C9.5909 21.25 7.3776 20.9065 5.73998 20.3286C4.92455 20.0408 4.21133 19.6807 3.68746 19.2436C3.1678 18.81 2.75 18.2243 2.75 17.5C2.75 16.7757 3.1678 16.19 3.68746 15.7564C4.21133 15.3193 4.92455 14.9592 5.73998 14.6714Z" fill="black"/>
<path fill-rule="evenodd" clip-rule="evenodd" d="M3.5 5.75C3.91421 5.75 4.25 6.08579 4.25 6.5V17.5C4.25 17.9142 3.91421 18.25 3.5 18.25C3.08579 18.25 2.75 17.9142 2.75 17.5V6.5C2.75 6.08579 3.08579 5.75 3.5 5.75Z" fill="black"/>
<path fill-rule="evenodd" clip-rule="evenodd" d="M20.5 5.75C20.9142 5.75 21.25 6.08579 21.25 6.5V17.5C21.25 17.9142 20.9142 18.25 20.5 18.25C20.0858 18.25 19.75 17.9142 19.75 17.5V6.5C19.75 6.08579 20.0858 5.75 20.5 5.75Z" fill="black"/>
</svg>
