<svg width="24" height="24" viewBox="0 0 24 24" fill="none" xmlns="http://www.w3.org/2000/svg">
<path d="M8.95 9.14993H6.05C5.25 9.14993 4.55 8.44993 4.55 7.54993V4.64993C4.55 3.74993 5.25 3.04993 6.15 3.04993H9.05C9.95 3.04993 10.65 3.74993 10.65 4.64993V7.54993C10.55 8.44993 9.85 9.14993 8.95 9.14993Z" fill="black"/>
<path fill-rule="evenodd" clip-rule="evenodd" d="M6.15 3.79993C5.66422 3.79993 5.3 4.16414 5.3 4.64993V7.54993C5.3 8.06748 5.69529 8.39993 6.05 8.39993H8.95C9.41277 8.39993 9.82349 8.04926 9.9 7.50363V4.64993C9.9 4.16414 9.53579 3.79993 9.05 3.79993H6.15ZM3.8 4.64993C3.8 3.33571 4.83579 2.29993 6.15 2.29993H9.05C10.3642 2.29993 11.4 3.33571 11.4 4.64993V7.59147L11.3954 7.63275C11.2584 8.8663 10.277 9.89993 8.95 9.89993H6.05C4.80472 9.89993 3.8 8.83237 3.8 7.54993V4.64993Z" fill="black"/>
<path d="M8.95 21.05H6.05C5.15 21.05 4.45 20.3499 4.45 19.45V13.55C4.45 12.65 5.15 11.95 6.05 11.95H8.95C9.85 11.95 10.55 12.65 10.55 13.55V19.45C10.55 20.3499 9.85 21.05 8.95 21.05Z" fill="black"/>
<path fill-rule="evenodd" clip-rule="evenodd" d="M6.05 12.7C5.56421 12.7 5.2 13.0642 5.2 13.55V19.45C5.2 19.9357 5.56421 20.3 6.05 20.3H8.95C9.43578 20.3 9.8 19.9357 9.8 19.45V13.55C9.8 13.0642 9.43578 12.7 8.95 12.7H6.05ZM3.7 13.55C3.7 12.2357 4.73578 11.2 6.05 11.2H8.95C10.2642 11.2 11.3 12.2357 11.3 13.55V19.45C11.3 20.7642 10.2642 21.8 8.95 21.8H6.05C4.73578 21.8 3.7 20.7642 3.7 19.45V13.55Z" fill="black"/>
<path d="M15.05 14.95H17.95C18.85 14.95 19.55 15.65 19.55 16.55V19.45C19.55 20.35 18.85 21.05 17.95 21.05H15.05C14.15 21.05 13.45 20.35 13.45 19.45V16.55C13.55 15.65 14.25 14.95 15.05 14.95Z" fill="black"/>
<path fill-rule="evenodd" clip-rule="evenodd" d="M14.2 16.5961V19.45C14.2 19.9357 14.5642 20.3 15.05 20.3H17.95C18.4358 20.3 18.8 19.9357 18.8 19.45V16.55C18.8 16.0642 18.4358 15.7 17.95 15.7H15.05C14.7112 15.7 14.2799 16.0228 14.2 16.5961ZM12.7046 16.4671C12.8383 15.2633 13.7959 14.2 15.05 14.2H17.95C19.2642 14.2 20.3 15.2357 20.3 16.55V19.45C20.3 20.7642 19.2642 21.8 17.95 21.8H15.05C13.7358 21.8 12.7 20.7642 12.7 19.45V16.5084L12.7046 16.4671Z" fill="black"/>
<path d="M15.05 2.94995H17.95C18.85 2.94995 19.55 3.64995 19.55 4.54995V10.45C19.55 11.35 18.85 12.05 17.95 12.05H15.05C14.15 12.05 13.45 11.35 13.45 10.45V4.44995C13.55 3.64995 14.25 2.94995 15.05 2.94995Z" fill="black"/>
<path fill-rule="evenodd" clip-rule="evenodd" d="M14.2 4.50356V10.45C14.2 10.9357 14.5642 11.3 15.05 11.3H17.95C18.4358 11.3 18.8 10.9357 18.8 10.45V4.54995C18.8 4.06416 18.4358 3.69995 17.95 3.69995H15.05C14.6905 3.69995 14.2776 4.04437 14.2 4.50356ZM12.7058 4.35693C12.8459 3.23568 13.8197 2.19995 15.05 2.19995H17.95C19.2642 2.19995 20.3 3.23574 20.3 4.54995V10.45C20.3 11.7642 19.2642 12.8 17.95 12.8H15.05C13.7358 12.8 12.7 11.7642 12.7 10.45V4.40326L12.7058 4.35693Z" fill="black"/>
</svg>
