<svg width="24" height="24" viewBox="0 0 24 24" fill="none" xmlns="http://www.w3.org/2000/svg">
<path d="M12 21C16.9706 21 21 16.9706 21 12C21 7.02944 16.9706 3 12 3C7.02944 3 3 7.02944 3 12C3 16.9706 7.02944 21 12 21Z" fill="black"/>
<path fill-rule="evenodd" clip-rule="evenodd" d="M12 3.75C7.44365 3.75 3.75 7.44365 3.75 12C3.75 16.5563 7.44365 20.25 12 20.25C16.5563 20.25 20.25 16.5563 20.25 12C20.25 7.44365 16.5563 3.75 12 3.75ZM2.25 12C2.25 6.61522 6.61522 2.25 12 2.25C17.3848 2.25 21.75 6.61522 21.75 12C21.75 17.3848 17.3848 21.75 12 21.75C6.61522 21.75 2.25 17.3848 2.25 12Z" fill="black"/>
<path d="M12 14.7C11.6 14.7 11.2 14.4 11.2 13.9V7.89995C11.2 7.49995 11.5 7.19995 12 7.19995C12.5 7.19995 12.8 7.49995 12.8 7.99995V14C12.7 14.4 12.4 14.7 12 14.7Z" fill="white"/>
<path d="M12 17.7C11.9 17.7 11.8 17.7 11.7 17.6C11.6 17.6 11.5 17.5 11.5 17.4C11.5 17.3 11.3 17.3 11.3 17.2C11.2 17.1 11.2 17 11.2 17C11.2 16.9 11.2 16.8 11.3 16.7C11.3 16.6 11.4 16.5 11.5 16.5C11.6 16.4 11.7 16.4 11.7 16.3C12 16.2 12.3 16.2 12.5 16.5C12.6 16.6 12.6 16.6 12.7 16.7C12.7 16.8 12.8 16.9 12.8 17C12.8 17.2 12.7 17.4 12.6 17.5C12.3 17.6 12.2 17.7 12 17.7Z" fill="white"/>
</svg>
