<svg width="24" height="24" viewBox="0 0 24 24" fill="none" xmlns="http://www.w3.org/2000/svg">
<path d="M12 15.3C15.4242 15.3 18.2 12.5242 18.2 9.10002C18.2 5.67586 15.4242 2.90002 12 2.90002C8.57582 2.90002 5.79999 5.67586 5.79999 9.10002C5.79999 12.5242 8.57582 15.3 12 15.3Z" fill="black"/>
<path fill-rule="evenodd" clip-rule="evenodd" d="M12 3.65002C8.99004 3.65002 6.54999 6.09007 6.54999 9.10002C6.54999 12.11 8.99004 14.55 12 14.55C15.0099 14.55 17.45 12.11 17.45 9.10002C17.45 6.09007 15.0099 3.65002 12 3.65002ZM5.04999 9.10002C5.04999 5.26165 8.16161 2.15002 12 2.15002C15.8384 2.15002 18.95 5.26165 18.95 9.10002C18.95 12.9384 15.8384 16.05 12 16.05C8.16161 16.05 5.04999 12.9384 5.04999 9.10002Z" fill="black"/>
<path fill-rule="evenodd" clip-rule="evenodd" d="M12 14.55C12.4142 14.55 12.75 14.8858 12.75 15.3V21.1C12.75 21.5143 12.4142 21.85 12 21.85C11.5858 21.85 11.25 21.5143 11.25 21.1V15.3C11.25 14.8858 11.5858 14.55 12 14.55Z" fill="black"/>
<path fill-rule="evenodd" clip-rule="evenodd" d="M8.64999 18.2001C8.64999 17.7859 8.98578 17.4501 9.39999 17.4501H14.7C15.1142 17.4501 15.45 17.7859 15.45 18.2001C15.45 18.6143 15.1142 18.9501 14.7 18.9501H9.39999C8.98578 18.9501 8.64999 18.6143 8.64999 18.2001Z" fill="black"/>
</svg>
