<svg width="24" height="24" viewBox="0 0 24 24" fill="none" xmlns="http://www.w3.org/2000/svg">
<path fill-rule="evenodd" clip-rule="evenodd" d="M9 3.75C6.11421 3.75 3.75 6.11421 3.75 9V15C3.75 17.8858 6.11421 20.25 9 20.25H15C17.8858 20.25 20.25 17.8858 20.25 15V9C20.25 6.11421 17.8858 3.75 15 3.75H9ZM2.25 9C2.25 5.28579 5.28579 2.25 9 2.25H15C18.7142 2.25 21.75 5.28579 21.75 9V15C21.75 18.7142 18.7142 21.75 15 21.75H9C5.28579 21.75 2.25 18.7142 2.25 15V9Z" fill="black"/>
<path fill-rule="evenodd" clip-rule="evenodd" d="M10.2 6.84998C10.6142 6.84998 10.95 7.18576 10.95 7.59998V16.3C10.95 16.7142 10.6142 17.05 10.2 17.05C9.78578 17.05 9.45 16.7142 9.45 16.3V7.59998C9.45 7.18576 9.78578 6.84998 10.2 6.84998Z" fill="black"/>
<path fill-rule="evenodd" clip-rule="evenodd" d="M13.7 6.84998C14.1142 6.84998 14.45 7.18576 14.45 7.59998V16.3C14.45 16.7142 14.1142 17.05 13.7 17.05C13.2858 17.05 12.95 16.7142 12.95 16.3V7.59998C12.95 7.18576 13.2858 6.84998 13.7 6.84998Z" fill="black"/>
<path fill-rule="evenodd" clip-rule="evenodd" d="M6.85 10.2C6.85 9.78574 7.18578 9.44995 7.6 9.44995H16.3C16.7142 9.44995 17.05 9.78574 17.05 10.2C17.05 10.6142 16.7142 10.95 16.3 10.95H7.6C7.18578 10.95 6.85 10.6142 6.85 10.2Z" fill="black"/>
<path fill-rule="evenodd" clip-rule="evenodd" d="M6.85 13.7C6.85 13.2857 7.18578 12.95 7.6 12.95H16.3C16.7142 12.95 17.05 13.2857 17.05 13.7C17.05 14.1142 16.7142 14.45 16.3 14.45H7.6C7.18578 14.45 6.85 14.1142 6.85 13.7Z" fill="black"/>
</svg>
