<svg width="24" height="24" viewBox="0 0 24 24" fill="none" xmlns="http://www.w3.org/2000/svg">
<path d="M12 21C16.9706 21 21 16.9706 21 12C21 7.02944 16.9706 3 12 3C7.02944 3 3 7.02944 3 12C3 16.9706 7.02944 21 12 21Z" fill="black"/>
<path fill-rule="evenodd" clip-rule="evenodd" d="M12 3.75C7.44365 3.75 3.75 7.44365 3.75 12C3.75 16.5563 7.44365 20.25 12 20.25C16.5563 20.25 20.25 16.5563 20.25 12C20.25 7.44365 16.5563 3.75 12 3.75ZM2.25 12C2.25 6.61522 6.61522 2.25 12 2.25C17.3848 2.25 21.75 6.61522 21.75 12C21.75 17.3848 17.3848 21.75 12 21.75C6.61522 21.75 2.25 17.3848 2.25 12Z" fill="black"/>
<path fill-rule="evenodd" clip-rule="evenodd" d="M10.2 6.84998C10.6142 6.84998 10.95 7.18576 10.95 7.59998V16.3C10.95 16.7142 10.6142 17.05 10.2 17.05C9.78574 17.05 9.44995 16.7142 9.44995 16.3V7.59998C9.44995 7.18576 9.78574 6.84998 10.2 6.84998Z" fill="white"/>
<path fill-rule="evenodd" clip-rule="evenodd" d="M13.7 6.84998C14.1142 6.84998 14.45 7.18576 14.45 7.59998V16.3C14.45 16.7142 14.1142 17.05 13.7 17.05C13.2857 17.05 12.95 16.7142 12.95 16.3V7.59998C12.95 7.18576 13.2857 6.84998 13.7 6.84998Z" fill="white"/>
<path fill-rule="evenodd" clip-rule="evenodd" d="M6.84998 10.2C6.84998 9.78574 7.18576 9.44995 7.59998 9.44995H16.3C16.7142 9.44995 17.05 9.78574 17.05 10.2C17.05 10.6142 16.7142 10.95 16.3 10.95H7.59998C7.18576 10.95 6.84998 10.6142 6.84998 10.2Z" fill="white"/>
<path fill-rule="evenodd" clip-rule="evenodd" d="M6.84998 13.7C6.84998 13.2857 7.18576 12.95 7.59998 12.95H16.3C16.7142 12.95 17.05 13.2857 17.05 13.7C17.05 14.1142 16.7142 14.45 16.3 14.45H7.59998C7.18576 14.45 6.84998 14.1142 6.84998 13.7Z" fill="white"/>
</svg>
