<svg width="24" height="24" viewBox="0 0 24 24" fill="none" xmlns="http://www.w3.org/2000/svg">
<path fill-rule="evenodd" clip-rule="evenodd" d="M4.74964 6.27354C3.13337 7.98205 3.13346 10.6183 4.74991 12.3267L11.0428 18.6197C11.5499 19.1268 12.3751 19.1268 12.8822 18.6197L18.4645 13.0373L19.1775 12.2225L19.2108 12.1925C20.0336 11.452 20.4625 10.3646 20.4625 9.25C20.4625 8.25477 20.0458 7.14127 19.2746 6.27362C17.5657 4.67088 14.9394 4.67547 13.2358 6.2874L12.0467 7.47648L10.685 6.28497L10.655 6.25172C9.91451 5.42891 8.8271 5 7.71251 5C6.7163 5 5.60963 5.41717 4.74964 6.27354ZM3.68218 5.21967C4.82122 4.08062 6.31133 3.5 7.71251 3.5C9.18336 3.5 10.6809 4.05995 11.7387 5.21384L11.9783 5.42352L12.189 5.21287L12.1959 5.20625C14.4854 3.03125 18.0396 3.03125 20.3291 5.20625L20.3503 5.22646L20.37 5.24828C21.3863 6.37752 21.9625 7.85362 21.9625 9.25C21.9625 10.7209 21.4026 12.2184 20.2487 13.2762L19.5605 14.0627L13.9428 19.6803C12.8499 20.7732 11.0751 20.7732 9.98218 19.6803L3.67538 13.3735L3.66876 13.3666C1.49376 11.0771 1.49376 7.52291 3.66876 5.23344L3.67538 5.22647L3.68218 5.21967Z" fill="black"/>
<path fill-rule="evenodd" clip-rule="evenodd" d="M12.0125 5.69995C12.4267 5.69995 12.7625 6.03574 12.7625 6.44995V19.75C12.7625 20.1642 12.4267 20.5 12.0125 20.5C11.5983 20.5 11.2625 20.1642 11.2625 19.75V6.44995C11.2625 6.03574 11.5983 5.69995 12.0125 5.69995Z" fill="black"/>
</svg>
