<svg width="24" height="24" viewBox="0 0 24 24" fill="none" xmlns="http://www.w3.org/2000/svg">
<path d="M19.55 14.95L14.95 19.55C13.35 21.15 10.65 21.15 9.05 19.55L4.45 14.95C2.85 13.35 2.85 10.65 4.45 9.05L9.05 4.45C10.65 2.85 13.35 2.85 14.95 4.45L19.55 9.05C21.15 10.65 21.15 13.25 19.55 14.95Z" fill="black"/>
<path fill-rule="evenodd" clip-rule="evenodd" d="M14.4197 4.98033C13.1126 3.67322 10.8874 3.67322 9.58033 4.98033L4.98033 9.58033C3.67322 10.8874 3.67322 13.1126 4.98033 14.4197L9.58033 19.0197C10.8874 20.3268 13.1126 20.3268 14.4197 19.0197L19.0113 14.4281C20.3405 13.0078 20.3158 10.8765 19.0197 9.58033L14.4197 4.98033ZM8.51967 3.91967C10.4126 2.02678 13.5874 2.02678 15.4803 3.91967L20.0803 8.51967C21.9818 10.4211 21.9594 13.4843 20.0962 15.464L20.0884 15.4723L15.4803 20.0803C13.5874 21.9732 10.4126 21.9732 8.51967 20.0803L3.91967 15.4803C2.02678 13.5874 2.02678 10.4126 3.91967 8.51967L8.51967 3.91967Z" fill="black"/>
<path fill-rule="evenodd" clip-rule="evenodd" d="M11.95 8.19995C12.3642 8.19995 12.7 8.53574 12.7 8.94995V14.95C12.7 15.3642 12.3642 15.7 11.95 15.7C11.5358 15.7 11.2 15.3642 11.2 14.95V8.94995C11.2 8.53574 11.5358 8.19995 11.95 8.19995Z" fill="white"/>
<path fill-rule="evenodd" clip-rule="evenodd" d="M8.20001 11.95C8.20001 11.5357 8.5358 11.2 8.95001 11.2H14.95C15.3642 11.2 15.7 11.5357 15.7 11.95C15.7 12.3642 15.3642 12.7 14.95 12.7H8.95001C8.5358 12.7 8.20001 12.3642 8.20001 11.95Z" fill="white"/>
</svg>
