<svg width="24" height="24" viewBox="0 0 24 24" fill="none" xmlns="http://www.w3.org/2000/svg">
<path fill-rule="evenodd" clip-rule="evenodd" d="M9.73148 3.66437C11.0054 2.64524 12.8946 2.64524 14.1685 3.66437L14.1808 3.67417L17.3001 6.39104L19.1971 8.08845C20.1442 8.91869 20.75 10.1176 20.75 11.45V18.55C20.75 20.1642 19.4142 21.5 17.8 21.5H15.75V16.15C15.75 15.7642 15.4858 15.5 15.1 15.5H8.9C8.51421 15.5 8.25 15.7642 8.25 16.15V21.5H6.2C4.58579 21.5 3.25 20.1642 3.25 18.55V11.45C3.25 10.1652 3.7211 8.94792 4.70533 8.08629C4.70559 8.08606 4.70586 8.08582 4.70612 8.08559L9.71774 3.67536L9.73148 3.66437ZM10.6812 4.82566L5.69547 9.21306L5.69388 9.21446C5.07864 9.75279 4.75 10.5352 4.75 11.45V18.55C4.75 19.3358 5.41421 20 6.2 20H6.75V16.15C6.75 14.9358 7.68579 14 8.9 14H15.1C16.3142 14 17.25 14.9358 17.25 16.15V20H17.8C18.5858 20 19.25 19.3358 19.25 18.55V11.45C19.25 10.584 18.8572 9.78411 18.2061 9.21446L18.1999 9.20899L16.3036 7.51229L13.2202 4.82675C12.4982 4.25815 11.4037 4.25778 10.6812 4.82566ZM12 8.50002C11.3142 8.50002 10.75 9.06424 10.75 9.75002C10.75 10.4358 11.3142 11 12 11C12.61 11 13.25 10.412 13.25 9.75002C13.25 9.06424 12.6858 8.50002 12 8.50002ZM9.25 9.75002C9.25 8.23581 10.4858 7.00002 12 7.00002C13.5142 7.00002 14.75 8.23581 14.75 9.75002C14.75 11.288 13.39 12.5 12 12.5C10.4858 12.5 9.25 11.2642 9.25 9.75002Z" fill="black"/>
<path d="M16.5 17.75H7.5V20.75H16.5V17.75Z" fill="black"/>
<path fill-rule="evenodd" clip-rule="evenodd" d="M6.75 17H17.25V21.5H6.75V17ZM8.25 18.5V20H15.75V18.5H8.25Z" fill="black"/>
<path fill-rule="evenodd" clip-rule="evenodd" d="M16.8 2.5C17.2142 2.5 17.55 2.83579 17.55 3.25V6.95C17.55 7.36421 17.2142 7.7 16.8 7.7C16.3858 7.7 16.05 7.36421 16.05 6.95V3.25C16.05 2.83579 16.3858 2.5 16.8 2.5Z" fill="black"/>
<path fill-rule="evenodd" clip-rule="evenodd" d="M8.9 15.5C8.51421 15.5 8.25 15.7642 8.25 16.15V17H15.75V16.15C15.75 15.7983 15.4207 15.5 15.1 15.5H8.9ZM6.75 16.15C6.75 14.9358 7.68579 14 8.9 14H15.1C16.1793 14 17.25 14.9017 17.25 16.15V18.5H6.75V16.15Z" fill="black"/>
<path d="M12 11.75C13.1046 11.75 14 10.8546 14 9.75C14 8.64543 13.1046 7.75 12 7.75C10.8954 7.75 10 8.64543 10 9.75C10 10.8546 10.8954 11.75 12 11.75Z" fill="black"/>
<path fill-rule="evenodd" clip-rule="evenodd" d="M12 8.5C11.3096 8.5 10.75 9.05964 10.75 9.75C10.75 10.4404 11.3096 11 12 11C12.6904 11 13.25 10.4404 13.25 9.75C13.25 9.05964 12.6904 8.5 12 8.5ZM9.25 9.75C9.25 8.23122 10.4812 7 12 7C13.5188 7 14.75 8.23122 14.75 9.75C14.75 11.2688 13.5188 12.5 12 12.5C10.4812 12.5 9.25 11.2688 9.25 9.75Z" fill="black"/>
</svg>
