<svg width="24" height="24" viewBox="0 0 24 24" fill="none" xmlns="http://www.w3.org/2000/svg">
<path d="M20 11.2375V18.3375C20 19.5375 19 20.5375 17.8 20.5375H16.5V15.9375C16.5 15.1375 15.9 14.5375 15.1 14.5375H8.8C8 14.5375 7.4 15.1375 7.4 15.9375V20.5375H6.2C5 20.5375 4 19.5375 4 18.3375V11.2375C4 10.2375 4.4 9.23752 5.2 8.53752L10.2 4.13752C11.2 3.23752 12.7 3.23752 13.7 4.13752L18.7 8.53752C19.5 9.23752 20 10.2375 20 11.2375Z" fill="black"/>
<path fill-rule="evenodd" clip-rule="evenodd" d="M13.1983 4.69499C12.4835 4.0517 11.4165 4.0517 10.7017 4.69499L10.6955 4.70059L5.69547 9.10056L5.69388 9.10196C5.07109 9.6469 4.75 10.4338 4.75 11.2375V18.3375C4.75 19.1233 5.41421 19.7875 6.2 19.7875H6.65V15.9375C6.65 14.7233 7.58579 13.7875 8.8 13.7875H15.1C16.3142 13.7875 17.25 14.7233 17.25 15.9375V19.7875H17.8C18.5858 19.7875 19.25 19.1233 19.25 18.3375V11.2375C19.25 10.4823 18.8662 9.67949 18.2061 9.10196L18.2045 9.10056L13.1983 4.69499ZM14.1984 3.57707C12.9143 2.42433 10.9857 2.42434 9.70157 3.57709L4.70612 7.97309C4.70586 7.97332 4.70559 7.97356 4.70533 7.97379C3.72865 8.82881 3.25 10.0415 3.25 11.2375V18.3375C3.25 19.9517 4.58579 21.2875 6.2 21.2875H8.15V15.9375C8.15 15.5517 8.41421 15.2875 8.8 15.2875H15.1C15.4858 15.2875 15.75 15.5517 15.75 15.9375V21.2875H17.8C19.4142 21.2875 20.75 19.9517 20.75 18.3375V11.2375C20.75 9.99306 20.1342 8.79625 19.1947 7.97381C19.1944 7.97357 19.1941 7.97333 19.1939 7.97309L14.1984 3.57707Z" fill="black"/>
<path fill-rule="evenodd" clip-rule="evenodd" d="M8.9 15.2875C8.51421 15.2875 8.25 15.5517 8.25 15.9375V19.7875H15.75V15.9375C15.75 15.8446 15.7014 15.7043 15.5453 15.5556C15.4014 15.4186 15.2129 15.3225 15.0378 15.2875H8.9ZM6.75 15.9375C6.75 14.7233 7.68579 13.7875 8.9 13.7875H15.1533L15.2061 13.795C15.7191 13.8683 16.2107 14.1179 16.5797 14.4694C16.9486 14.8206 17.25 15.3303 17.25 15.9375V21.2875H6.75V15.9375Z" fill="black"/>
<path fill-rule="evenodd" clip-rule="evenodd" d="M6.75 17.6376C6.75 17.2234 7.08579 16.8876 7.5 16.8876H16.5C16.9142 16.8876 17.25 17.2234 17.25 17.6376C17.25 18.0518 16.9142 18.3876 16.5 18.3876H7.5C7.08579 18.3876 6.75 18.0518 6.75 17.6376Z" fill="black"/>
</svg>
