<svg width="24" height="24" viewBox="0 0 24 24" fill="none" xmlns="http://www.w3.org/2000/svg">
<path d="M17.7464 20.75H6.24641C5.04641 20.75 4.04641 19.75 4.04641 18.55V11.45C4.04641 10.45 4.54641 9.45005 5.24641 8.75005L10.2464 4.35005C11.2464 3.45005 12.7464 3.45005 13.7464 4.35005L18.7464 8.75005C19.5464 9.45005 19.9464 10.45 19.9464 11.45V18.55C20.0464 19.75 19.0464 20.75 17.7464 20.75Z" fill="black"/>
<path fill-rule="evenodd" clip-rule="evenodd" d="M13.2447 4.90752C12.5299 4.26423 11.4629 4.26423 10.7481 4.90752L10.7419 4.91312L5.76071 9.29651C5.17992 9.88499 4.79641 10.6951 4.79641 11.45V18.55C4.79641 19.3358 5.46062 20 6.24641 20H17.7464C18.6702 20 19.2576 19.3151 19.199 18.6123L19.1964 18.5812V11.45C19.1964 10.6464 18.8753 9.85942 18.2525 9.31448L18.2509 9.31308L13.2447 4.90752ZM14.2448 3.7896C12.9607 2.63686 11.0321 2.63687 9.74797 3.78962L4.73298 8.20281L4.71608 8.21972C3.90583 9.02997 3.29641 10.2119 3.29641 11.45V18.55C3.29641 20.1643 4.63219 21.5 6.24641 21.5H17.7464C19.4116 21.5 20.8166 20.2023 20.6964 18.5212V11.45C20.6964 10.2541 20.2178 9.04135 19.2411 8.18633C19.2408 8.18609 19.2406 8.18586 19.2403 8.18562L14.2448 3.7896Z" fill="black"/>
<path fill-rule="evenodd" clip-rule="evenodd" d="M16.8464 2.5C17.2606 2.5 17.5964 2.83579 17.5964 3.25V6.95C17.5964 7.36421 17.2606 7.7 16.8464 7.7C16.4322 7.7 16.0964 7.36421 16.0964 6.95V3.25C16.0964 2.83579 16.4322 2.5 16.8464 2.5Z" fill="black"/>
</svg>
