<svg width="24" height="24" viewBox="0 0 24 24" fill="none" xmlns="http://www.w3.org/2000/svg">
<path fill-rule="evenodd" clip-rule="evenodd" d="M14.1984 3.52702L19.1939 7.92304C19.1941 7.92328 19.1944 7.92352 19.1947 7.92376C20.1342 8.74621 20.75 9.94301 20.75 11.1875V18.2875C20.75 19.9017 19.4142 21.2375 17.8 21.2375H15.75V18.2375H8.25V21.2375H6.2C4.58579 21.2375 3.25 19.9017 3.25 18.2875V11.1875C3.25 9.9915 3.72865 8.77876 4.70533 7.92374C4.70559 7.92351 4.70586 7.92328 4.70612 7.92304L9.70157 3.52705C10.9857 2.37429 12.9143 2.37429 14.1984 3.52702ZM13.1983 4.64495C12.4835 4.00165 11.4165 4.00165 10.7017 4.64495L10.6955 4.65055L5.69547 9.05051L5.69388 9.05191C5.07109 9.59685 4.75 10.3838 4.75 11.1875V18.2875C4.75 19.0733 5.41421 19.7375 6.2 19.7375H6.75V16.7375H17.25V19.7375H17.8C18.5858 19.7375 19.25 19.0733 19.25 18.2875V11.1875C19.25 10.4323 18.8662 9.62944 18.2061 9.05191L18.2045 9.05051L13.1983 4.64495ZM12 8.33748C11.3142 8.33748 10.75 8.90169 10.75 9.58748C10.75 10.2733 11.3142 10.8375 12 10.8375C12.6858 10.8375 13.25 10.2733 13.25 9.58748C13.25 8.90169 12.6858 8.33748 12 8.33748ZM9.25 9.58748C9.25 8.07326 10.4858 6.83748 12 6.83748C13.5142 6.83748 14.75 8.07326 14.75 9.58748C14.75 11.1017 13.5142 12.3375 12 12.3375C10.4858 12.3375 9.25 11.1017 9.25 9.58748Z" fill="black"/>
<path d="M16.5 17.5875H7.5V20.5875H16.5V17.5875Z" fill="black"/>
<path fill-rule="evenodd" clip-rule="evenodd" d="M6.75 16.8375H17.25V21.3375H6.75V16.8375ZM8.25 18.3375V19.8375H15.75V18.3375H8.25Z" fill="black"/>
<path fill-rule="evenodd" clip-rule="evenodd" d="M8.9 15.3375C8.51421 15.3375 8.25 15.6017 8.25 15.9875V17.5875C8.25 18.0017 7.91421 18.3375 7.5 18.3375C7.08579 18.3375 6.75 18.0017 6.75 17.5875V15.9875C6.75 14.7733 7.68579 13.8375 8.9 13.8375H15.1C16.3142 13.8375 17.25 14.7733 17.25 15.9875V17.5875C17.25 18.0017 16.9142 18.3375 16.5 18.3375C16.0858 18.3375 15.75 18.0017 15.75 17.5875V15.9875C15.75 15.6017 15.4858 15.3375 15.1 15.3375H8.9Z" fill="black"/>
<path d="M12 11.5875C13.1046 11.5875 14 10.6921 14 9.58752C14 8.48295 13.1046 7.58752 12 7.58752C10.8954 7.58752 10 8.48295 10 9.58752C10 10.6921 10.8954 11.5875 12 11.5875Z" fill="black"/>
<path fill-rule="evenodd" clip-rule="evenodd" d="M12 8.33752C11.3096 8.33752 10.75 8.89717 10.75 9.58752C10.75 10.2779 11.3096 10.8375 12 10.8375C12.6904 10.8375 13.25 10.2779 13.25 9.58752C13.25 8.89717 12.6904 8.33752 12 8.33752ZM9.25 9.58752C9.25 8.06874 10.4812 6.83752 12 6.83752C13.5188 6.83752 14.75 8.06874 14.75 9.58752C14.75 11.1063 13.5188 12.3375 12 12.3375C10.4812 12.3375 9.25 11.1063 9.25 9.58752Z" fill="black"/>
</svg>
