<svg width="24" height="24" viewBox="0 0 24 24" fill="none" xmlns="http://www.w3.org/2000/svg">
<path d="M9.55 18.25C9.55 19.85 8.25 21.25 6.55 21.25C4.95 21.25 3.55 19.95 3.55 18.25C3.55 16.55 4.85 15.25 6.55 15.25C8.25 15.35 9.55 16.65 9.55 18.25Z" fill="black"/>
<path fill-rule="evenodd" clip-rule="evenodd" d="M6.52808 16.0001C5.25327 16.011 4.3 16.9715 4.3 18.25C4.3 19.5196 5.34786 20.5 6.55 20.5C7.81962 20.5 8.8 19.4521 8.8 18.25C8.8 17.0932 7.86087 16.0889 6.52808 16.0001ZM2.8 18.25C2.8 16.1358 4.43578 14.5 6.55 14.5H6.57204L6.59404 14.5013C8.64953 14.6222 10.3 16.2132 10.3 18.25C10.3 20.2479 8.68037 22 6.55 22C4.55213 22 2.8 20.3804 2.8 18.25Z" fill="black"/>
<path d="M20.45 18.25C20.45 19.85 19.15 21.25 17.45 21.25C15.75 21.25 14.45 19.95 14.45 18.25C14.45 16.55 15.75 15.25 17.45 15.25C19.15 15.25 20.45 16.65 20.45 18.25Z" fill="black"/>
<path fill-rule="evenodd" clip-rule="evenodd" d="M17.45 16C16.1642 16 15.2 16.9642 15.2 18.25C15.2 19.5358 16.1642 20.5 17.45 20.5C18.7196 20.5 19.7 19.4521 19.7 18.25C19.7 17.0479 18.7196 16 17.45 16ZM13.7 18.25C13.7 16.1358 15.3358 14.5 17.45 14.5C19.5804 14.5 21.2 16.2521 21.2 18.25C21.2 20.2479 19.5804 22 17.45 22C15.3358 22 13.7 20.3642 13.7 18.25Z" fill="black"/>
<path fill-rule="evenodd" clip-rule="evenodd" d="M8.8 18.25C8.8 17.8358 9.13578 17.5 9.55 17.5H14.55C14.9642 17.5 15.3 17.8358 15.3 18.25C15.3 18.6642 14.9642 19 14.55 19H9.55C9.13578 19 8.8 18.6642 8.8 18.25Z" fill="black"/>
<path fill-rule="evenodd" clip-rule="evenodd" d="M17.8385 12.4128C17.9695 12.0199 18.3942 11.8075 18.7872 11.9385C19.0473 12.0252 19.3364 12.0925 19.6686 12.1692L19.6851 12.173C19.9989 12.2454 20.3531 12.3271 20.6872 12.4385C21.0801 12.5695 21.2925 12.9942 21.1615 13.3872C21.0305 13.7801 20.6058 13.9925 20.2128 13.8615C19.9527 13.7748 19.6636 13.7074 19.3313 13.6308C19.3259 13.6295 19.3204 13.6282 19.3149 13.627C19.0011 13.5546 18.6468 13.4728 18.3128 13.3615C17.9199 13.2305 17.7075 12.8058 17.8385 12.4128Z" fill="black"/>
<path fill-rule="evenodd" clip-rule="evenodd" d="M6.49246 12.444C6.55103 12.854 6.26611 13.2339 5.85606 13.2925C5.20616 13.3853 4.44426 13.5745 3.75603 13.7712C3.35776 13.885 2.94264 13.6543 2.82885 13.2561C2.71506 12.8578 2.94568 12.4427 3.34395 12.3289C4.05573 12.1255 4.89383 11.9147 5.64393 11.8076C6.05398 11.749 6.43388 12.0339 6.49246 12.444Z" fill="black"/>
<path d="M18.65 5.95V12.25C18.65 12.45 18.65 12.55 18.55 12.75C16.35 12.25 14.05 12.05 11.75 12.05C9.74999 12.05 7.74999 12.25 5.74999 12.65C5.74999 12.55 5.74999 12.45 5.74999 12.35V5.95C5.74999 4.15 7.14999 2.75 8.94999 2.75H15.55C17.25 2.85 18.65 4.25 18.65 5.95Z" fill="black"/>
<path fill-rule="evenodd" clip-rule="evenodd" d="M8.94999 3.5C7.56421 3.5 6.49999 4.56421 6.49999 5.95V11.7483C8.2489 11.4496 9.99905 11.3 11.75 11.3C13.8121 11.3 15.8863 11.4578 17.9 11.8472V5.95C17.9 4.67874 16.846 3.58822 15.5265 3.5H8.94999ZM4.99999 5.95C4.99999 3.73579 6.73578 2 8.94999 2H15.572L15.594 2.00129C17.665 2.12311 19.4 3.82787 19.4 5.95V12.25C19.4 12.2555 19.4 12.2613 19.4 12.2673C19.4001 12.3535 19.4003 12.4851 19.3773 12.6233C19.3496 12.7897 19.2952 12.9367 19.2208 13.0854L18.9576 13.6118L18.3838 13.4813C16.2505 12.9965 14.0081 12.8 11.75 12.8C9.80035 12.8 7.84961 12.9949 5.89708 13.3854L4.99999 13.5649V5.95Z" fill="black"/>
</svg>
