<svg width="24" height="24" viewBox="0 0 24 24" fill="none" xmlns="http://www.w3.org/2000/svg">
<path d="M12 3C7.02944 3 3 7.02944 3 12C3 16.9706 7.02944 21 12 21C16.9706 21 21 16.9706 21 12C21 7.02944 16.9706 3 12 3Z" fill="black"/>
<path fill-rule="evenodd" clip-rule="evenodd" d="M12 20.25C16.5563 20.25 20.25 16.5563 20.25 12C20.25 7.44365 16.5564 3.75 12 3.75C7.44365 3.75 3.75 7.44365 3.75 12C3.75 16.5563 7.44365 20.25 12 20.25ZM21.75 12C21.75 17.3848 17.3848 21.75 12 21.75C6.61522 21.75 2.25 17.3848 2.25 12C2.25 6.61522 6.61523 2.25 12 2.25C17.3848 2.25 21.75 6.61522 21.75 12Z" fill="black"/>
<path d="M12 9.30005C12.4 9.30005 12.8 9.60005 12.8 10.1L12.8 16.1C12.8 16.5 12.5 16.8 12 16.8C11.5 16.8 11.2 16.5 11.2 16L11.2 10C11.3 9.60005 11.6 9.30005 12 9.30005Z" fill="white"/>
<path d="M12 6.29996C12.1 6.29996 12.2 6.29996 12.3 6.39996C12.4 6.39996 12.5 6.49996 12.5 6.59996C12.5 6.69996 12.7 6.69996 12.7 6.79996C12.8 6.89996 12.8 6.99996 12.8 6.99996C12.8 7.09996 12.8 7.19996 12.7 7.29996C12.7 7.39996 12.6 7.49996 12.5 7.49996C12.4 7.59996 12.3 7.59996 12.3 7.69996C12 7.79996 11.7 7.79996 11.5 7.49996C11.4 7.39996 11.4 7.39996 11.3 7.29996C11.3 7.19996 11.2 7.09996 11.2 6.99996C11.2 6.79996 11.3 6.59996 11.4 6.49996C11.7 6.39996 11.8 6.29996 12 6.29996Z" fill="white"/>
</svg>
