<svg width="24" height="24" viewBox="0 0 24 24" fill="none" xmlns="http://www.w3.org/2000/svg">
<path fill-rule="evenodd" clip-rule="evenodd" d="M7.53034 10.3697C7.82323 10.6626 7.82323 11.1375 7.53034 11.4304L5.03034 13.9304C3.62323 15.3375 3.62323 17.5626 5.03034 18.9697C6.43744 20.3768 8.66257 20.3768 10.0697 18.9697L12.4697 16.5697C13.8768 15.1626 13.8768 12.9375 12.4697 11.5304C12.1768 11.2375 12.1768 10.7626 12.4697 10.4697C12.7626 10.1768 13.2374 10.1768 13.5303 10.4697C15.5232 12.4626 15.5232 15.6375 13.5303 17.6304L11.1303 20.0304C9.13744 22.0232 5.96257 22.0232 3.96968 20.0304C1.97678 18.0375 1.97678 14.8626 3.96968 12.8697L6.46968 10.3697C6.76257 10.0768 7.23744 10.0768 7.53034 10.3697Z" fill="black"/>
<path fill-rule="evenodd" clip-rule="evenodd" d="M18.9697 5.03031C17.5626 3.6232 15.3374 3.6232 13.9303 5.03031L11.5303 7.43031C10.1232 8.83741 10.1232 11.0625 11.5303 12.4696C11.8232 12.7625 11.8232 13.2374 11.5303 13.5303C11.2374 13.8232 10.7626 13.8232 10.4697 13.5303C8.47678 11.5374 8.47678 8.36254 10.4697 6.36965L12.8697 3.96965C14.8626 1.97675 18.0374 1.97675 20.0303 3.96965C22.0232 5.96254 22.0232 9.13741 20.0303 11.1303L17.5303 13.6303C17.2374 13.9232 16.7626 13.9232 16.4697 13.6303C16.1768 13.3374 16.1768 12.8625 16.4697 12.5696L18.9697 10.0696C20.3768 8.66254 20.3768 6.43741 18.9697 5.03031Z" fill="black"/>
</svg>
