<svg width="24" height="24" viewBox="0 0 24 24" fill="none" xmlns="http://www.w3.org/2000/svg">
<path fill-rule="evenodd" clip-rule="evenodd" d="M9 3.75C7.21421 3.75 5.75 5.21421 5.75 7V17C5.75 17.4142 5.41421 17.75 5 17.75C4.58579 17.75 4.25 17.4142 4.25 17V7C4.25 4.38579 6.38579 2.25 9 2.25H15C17.6142 2.25 19.75 4.38579 19.75 7V17C19.75 19.6142 17.6142 21.75 15 21.75C14.5858 21.75 14.25 21.4142 14.25 21C14.25 20.5858 14.5858 20.25 15 20.25C16.7858 20.25 18.25 18.7858 18.25 17V7C18.25 5.21421 16.7858 3.75 15 3.75H9Z" fill="black"/>
<path d="M15 13C14.7 13 14.5 12.9 14.3 12.7C14.2 12.6 14.1 12.5 14.1 12.4C14 12.2 14 12.1 14 12C14 11.7 14.1 11.4 14.2 11.2C14.6 10.8 15.2 10.8 15.6 11.2C15.8 11.4 15.9 11.6 15.9 11.9C15.9 12 15.9 12.2 15.8 12.3C15.7 12.4 15.7 12.5 15.6 12.6C15.5 12.8 15.2 13 15 13Z" fill="black"/>
<path fill-rule="evenodd" clip-rule="evenodd" d="M6.35001 18.4C6.35001 17.9858 6.68579 17.65 7.10001 17.65H11.5C11.9142 17.65 12.25 17.9858 12.25 18.4C12.25 18.8142 11.9142 19.15 11.5 19.15H7.10001C6.68579 19.15 6.35001 18.8142 6.35001 18.4Z" fill="black"/>
<path fill-rule="evenodd" clip-rule="evenodd" d="M9.46967 15.8697C9.76256 15.5768 10.2374 15.5768 10.5303 15.8697L12.3303 17.6697C12.479 17.8184 12.5458 17.9895 12.5774 18.1002C12.6119 18.2211 12.625 18.3417 12.625 18.45C12.625 18.5584 12.6119 18.679 12.5774 18.7998C12.5458 18.9105 12.479 19.0817 12.3303 19.2304L10.5303 21.0304C10.2374 21.3232 9.76256 21.3232 9.46967 21.0304C9.17678 20.7375 9.17678 20.2626 9.46967 19.9697L10.9893 18.45L9.46967 16.9304C9.17678 16.6375 9.17678 16.1626 9.46967 15.8697Z" fill="black"/>
</svg>
