<svg width="24" height="24" viewBox="0 0 24 24" fill="none" xmlns="http://www.w3.org/2000/svg">
<path d="M11 20.1001C14.9765 20.1001 18.2 16.8765 18.2 12.9001C18.2 8.92362 14.9765 5.70007 11 5.70007C7.02355 5.70007 3.8 8.92362 3.8 12.9001C3.8 16.8765 7.02355 20.1001 11 20.1001Z" fill="black"/>
<path fill-rule="evenodd" clip-rule="evenodd" d="M11 6.45007C7.43777 6.45007 4.55 9.33784 4.55 12.9001C4.55 16.4623 7.43777 19.3501 11 19.3501C14.5622 19.3501 17.45 16.4623 17.45 12.9001C17.45 9.33784 14.5622 6.45007 11 6.45007ZM3.05 12.9001C3.05 8.50941 6.60934 4.95007 11 4.95007C15.3907 4.95007 18.95 8.50941 18.95 12.9001C18.95 17.2907 15.3907 20.8501 11 20.8501C6.60934 20.8501 3.05 17.2907 3.05 12.9001Z" fill="black"/>
<path fill-rule="evenodd" clip-rule="evenodd" d="M20.3377 3.87722C20.6265 4.17421 20.6198 4.64903 20.3228 4.93777L16.7228 8.43777C16.4258 8.72651 15.951 8.71982 15.6623 8.42283C15.3735 8.12584 15.3802 7.65102 15.6772 7.36228L19.2772 3.86228C19.5742 3.57354 20.049 3.58023 20.3377 3.87722Z" fill="black"/>
<path fill-rule="evenodd" clip-rule="evenodd" d="M16.05 3.90002C16.05 3.48581 16.3858 3.15002 16.8 3.15002H19.8C20.1439 3.15002 20.4251 3.31444 20.6053 3.49469C20.7856 3.67495 20.95 3.9561 20.95 4.30002V7.30002C20.95 7.71424 20.6142 8.05002 20.2 8.05002C19.7858 8.05002 19.45 7.71424 19.45 7.30002V4.65002H16.8C16.3858 4.65002 16.05 4.31424 16.05 3.90002Z" fill="black"/>
</svg>
