<svg width="24" height="24" viewBox="0 0 24 24" fill="none" xmlns="http://www.w3.org/2000/svg">
<path fill-rule="evenodd" clip-rule="evenodd" d="M4.3 9.75C4.01421 9.75 3.75 10.0142 3.75 10.3V13.7C3.75 14.0664 3.99048 14.25 4.2 14.25H19.7C19.9858 14.25 20.25 13.9858 20.25 13.7V10.3C20.25 10.0142 19.9858 9.75 19.7 9.75H4.3ZM2.25 10.3C2.25 9.18579 3.18579 8.25 4.3 8.25H19.7C20.8142 8.25 21.75 9.18579 21.75 10.3V13.7C21.75 14.8142 20.8142 15.75 19.7 15.75H4.2C3.00952 15.75 2.25 14.7336 2.25 13.7V10.3Z" fill="black"/>
</svg>
