<svg width="24" height="24" viewBox="0 0 24 24" fill="none" xmlns="http://www.w3.org/2000/svg">
<path fill-rule="evenodd" clip-rule="evenodd" d="M18.8556 4.97913L19.3821 5.6271C20.7678 7.33255 21.75 9.49462 21.75 12C21.75 17.4143 17.4142 21.75 12 21.75C9.62372 21.75 7.33683 20.887 5.68825 19.3483L5.12297 18.8207L18.8556 4.97913ZM7.30819 18.7479C8.59849 19.7042 10.2583 20.25 12 20.25C16.5858 20.25 20.25 16.5858 20.25 12C20.25 10.2095 19.6524 8.6065 18.7203 7.24523L7.30819 18.7479Z" fill="black"/>
<path d="M18.8 6.1L6.1 18.8C4.2 17.1 3 14.7 3 12C3 7 7 3 12 3C14.7 3 17.1 4.2 18.8 6.1Z" fill="black"/>
<path fill-rule="evenodd" clip-rule="evenodd" d="M12 3.75C7.41421 3.75 3.75 7.41421 3.75 12C3.75 14.2203 4.63591 16.2251 6.09095 17.7484L17.7484 6.09095C16.2251 4.63591 14.2203 3.75 12 3.75ZM2.25 12C2.25 6.58579 6.58579 2.25 12 2.25C14.9314 2.25 17.5291 3.55484 19.3589 5.5999L19.832 6.12865L6.12865 19.832L5.5999 19.3589C3.55484 17.5291 2.25 14.9314 2.25 12Z" fill="black"/>
</svg>
