<svg width="24" height="24" viewBox="0 0 24 24" fill="none" xmlns="http://www.w3.org/2000/svg">
<path fill-rule="evenodd" clip-rule="evenodd" d="M19.2 10.5001C19.2 8.84322 18.7419 7.40963 17.8555 6.25734L19.0445 5.34277C20.1581 6.79049 20.7 8.5569 20.7 10.5001V14.5001C20.7 17.1143 18.5642 19.2501 15.95 19.2501H14.35V17.7501H15.95C17.7358 17.7501 19.2 16.2858 19.2 14.5001V10.5001Z" fill="black"/>
<path fill-rule="evenodd" clip-rule="evenodd" d="M12.05 3.25C8.06423 3.25 4.80002 6.51421 4.80002 10.5V14.5C4.80002 16.2858 6.26423 17.75 8.05002 17.75H9.55002V19.25H8.05002C5.4358 19.25 3.30002 17.1142 3.30002 14.5V10.5C3.30002 5.68579 7.2358 1.75 12.05 1.75C13.3694 1.75 14.684 2.07845 15.7854 2.62918L15.1146 3.97082C14.2161 3.52155 13.1306 3.25 12.05 3.25Z" fill="black"/>
<path d="M14.55 19C14.55 20.4 13.45 21.5 12.05 21.5C10.65 21.5 9.55002 20.4 9.55002 19C9.55002 18.8 9.55002 18.7 9.55002 18.5H14.45C14.45 18.6 14.55 18.8 14.55 19Z" fill="black"/>
<path fill-rule="evenodd" clip-rule="evenodd" d="M8.80002 17.75H15.2V18.4338C15.2009 18.4369 15.2019 18.4401 15.2029 18.4437C15.2071 18.4577 15.2126 18.4765 15.2212 18.5065C15.2482 18.6011 15.3 18.7876 15.3 19C15.3 20.8142 13.8642 22.25 12.05 22.25C10.2358 22.25 8.80002 20.8142 8.80002 19V17.75ZM10.3168 19.25C10.4336 20.112 11.1493 20.75 12.05 20.75C12.9507 20.75 13.6664 20.112 13.7833 19.25H10.3168Z" fill="black"/>
<path d="M17.05 6.5C18.1546 6.5 19.05 5.60457 19.05 4.5C19.05 3.39543 18.1546 2.5 17.05 2.5C15.9454 2.5 15.05 3.39543 15.05 4.5C15.05 5.60457 15.9454 6.5 17.05 6.5Z" fill="black"/>
<path fill-rule="evenodd" clip-rule="evenodd" d="M17.05 3.25C16.3597 3.25 15.8 3.80964 15.8 4.5C15.8 5.19036 16.3597 5.75 17.05 5.75C17.7404 5.75 18.3 5.19036 18.3 4.5C18.3 3.80964 17.7404 3.25 17.05 3.25ZM14.3 4.5C14.3 2.98122 15.5312 1.75 17.05 1.75C18.5688 1.75 19.8 2.98122 19.8 4.5C19.8 6.01878 18.5688 7.25 17.05 7.25C15.5312 7.25 14.3 6.01878 14.3 4.5Z" fill="black"/>
</svg>
