<svg width="24" height="24" viewBox="0 0 24 24" fill="none" xmlns="http://www.w3.org/2000/svg">
<path d="M16 18.5H8C5.8 18.5 4 16.7 4 14.5V10.5C4 6.1 7.6 2.5 12 2.5C16.4 2.5 20 6.1 20 10.5V14.5C20 16.7 18.2 18.5 16 18.5Z" fill="black"/>
<path fill-rule="evenodd" clip-rule="evenodd" d="M12 3.25C8.01421 3.25 4.75 6.51421 4.75 10.5V14.5C4.75 16.2858 6.21421 17.75 8 17.75H16C17.7858 17.75 19.25 16.2858 19.25 14.5V10.5C19.25 6.51421 15.9858 3.25 12 3.25ZM3.25 10.5C3.25 5.68579 7.18579 1.75 12 1.75C16.8142 1.75 20.75 5.68579 20.75 10.5V14.5C20.75 17.1142 18.6142 19.25 16 19.25H8C5.38579 19.25 3.25 17.1142 3.25 14.5V10.5Z" fill="black"/>
<path fill-rule="evenodd" clip-rule="evenodd" d="M10.251 18.8944C10.2501 18.9178 10.25 18.9463 10.25 19C10.25 19.9857 11.0142 20.75 12 20.75C12.9783 20.75 13.7384 19.9973 13.7499 19.0224C13.7475 19.0149 13.7439 19.0035 13.7385 18.9871C13.7374 18.9838 13.7362 18.9803 13.7349 18.9765C13.7079 18.896 13.65 18.7234 13.65 18.5H15.15C15.15 18.4819 15.1462 18.4655 15.1464 18.4655C15.1466 18.4654 15.1499 18.4779 15.1615 18.5128C15.1626 18.5161 15.1638 18.5196 15.1651 18.5234C15.1921 18.6039 15.25 18.7765 15.25 19C15.25 20.8142 13.8142 22.25 12 22.25C10.1858 22.25 8.75 20.8142 8.75 19C8.75 18.9944 8.75 18.9886 8.74999 18.9827C8.74987 18.8965 8.74968 18.7648 8.77271 18.6267C8.80044 18.4603 8.85481 18.3133 8.92918 18.1646L10.2708 18.8354C10.2595 18.858 10.2542 18.871 10.252 18.8767C10.2517 18.8802 10.2513 18.8858 10.251 18.8944Z" fill="black"/>
</svg>
