<svg width="24" height="24" viewBox="0 0 24 24" fill="none" xmlns="http://www.w3.org/2000/svg">
<path fill-rule="evenodd" clip-rule="evenodd" d="M13.35 18.4H14.85V18.7732C14.9662 20.5045 13.6168 21.85 12 21.85C10.3858 21.85 9.04999 20.5142 9.04999 18.9V18.5H10.55V18.9C10.55 19.6858 11.2142 20.35 12 20.35C12.7737 20.35 13.4179 19.7115 13.3522 18.8575L13.35 18.8288V18.4Z" fill="black"/>
<path d="M20 16.6C20 17.2 19.7 17.8 19.3 18.2C18.9 18.6 18.3 18.9 17.7 18.9H6.2C5 18.9 4 17.9 4 16.7C4 16.1 4.3 15.5 4.7 15.1C4.8 15 5 14.9 5.1 14.8C5 14.4 4.9 14 4.9 13.6V10C4.9 6.10002 8.1 2.90002 12 2.90002C14 2.90002 15.7 3.70002 17 5.00002C18.3 6.30002 19.1 8.10002 19.1 10V13.6C19.1 14 19 14.4 18.9 14.8C19.5 15.1 20 15.8 20 16.6Z" fill="black"/>
<path fill-rule="evenodd" clip-rule="evenodd" d="M12 3.65002C8.51421 3.65002 5.65 6.51424 5.65 10V13.6C5.65 13.8916 5.72321 14.2005 5.82761 14.6181L5.9306 15.0301L5.63033 15.3304C5.56527 15.3954 5.49829 15.4468 5.4505 15.4816C5.40352 15.5157 5.35498 15.5481 5.32037 15.5712L5.31603 15.5741C5.27585 15.6008 5.25152 15.6172 5.23175 15.6316C5.22727 15.6348 5.22395 15.6373 5.22165 15.6391C4.94005 15.9252 4.75 16.3379 4.75 16.7C4.75 17.4858 5.41421 18.15 6.2 18.15H17.7C18.0659 18.15 18.4833 17.9561 18.7697 17.6697C19.056 17.3833 19.25 16.9659 19.25 16.6C19.25 16.1024 18.9273 15.6522 18.5646 15.4708L18.0265 15.2018L18.1724 14.6181C18.2768 14.2005 18.35 13.8916 18.35 13.6V10C18.35 8.31007 17.6371 6.69777 16.4697 5.53035C15.298 4.35869 13.7843 3.65002 12 3.65002ZM4.15 10C4.15 5.68581 7.68579 2.15002 12 2.15002C14.2157 2.15002 16.102 3.04136 17.5303 4.46969C18.9629 5.90227 19.85 7.88998 19.85 10V13.6C19.85 13.9024 19.8051 14.1987 19.7487 14.4696C20.3329 14.9638 20.75 15.7349 20.75 16.6C20.75 17.4341 20.344 18.2167 19.8303 18.7304C19.3167 19.244 18.5341 19.65 17.7 19.65H6.2C4.58579 19.65 3.25 18.3142 3.25 16.7C3.25 15.8659 3.65604 15.0833 4.16967 14.5697C4.19864 14.5407 4.22799 14.5145 4.25585 14.4912C4.19727 14.2145 4.15 13.9105 4.15 13.6V10Z" fill="black"/>
</svg>
