<svg width="24" height="24" viewBox="0 0 24 24" fill="none" xmlns="http://www.w3.org/2000/svg">
<path d="M14.4 3H9.4C8.6 3 7.8 3.3 7.3 3.9L3.8 7.3C3.3 7.9 3 8.7 3 9.5V14.5C3 15.3 3.3 16.1 3.9 16.6L7.4 20.1C8 20.7 8.7 21 9.5 21H14.5C15.3 21 16.1 20.7 16.6 20.1L20.1 16.6C20.7 16 21 15.3 21 14.5V9.5C21 8.7 20.7 7.9 20.1 7.4L16.6 3.9C16 3.3 15.2 3 14.4 3Z" fill="black"/>
<path fill-rule="evenodd" clip-rule="evenodd" d="M6.75118 3.38752C7.42481 2.60235 8.44334 2.25 9.4 2.25H14.4C15.3855 2.25 16.3805 2.61982 17.1303 3.36967L20.608 6.84738C21.3963 7.52098 21.75 8.54154 21.75 9.5V14.5C21.75 15.5119 21.3615 16.3991 20.6303 17.1303L17.1526 20.608C16.479 21.3963 15.4585 21.75 14.5 21.75H9.5C8.48809 21.75 7.60085 21.3615 6.86967 20.6303L3.39197 17.1526C2.60367 16.479 2.25 15.4585 2.25 14.5V9.5C2.25 8.52024 2.6143 7.5513 3.22383 6.81986L3.2491 6.78954L6.75118 3.38752ZM9.4 3.75C8.76969 3.75 8.20296 3.98799 7.87617 4.38014L7.8509 4.41046L4.35275 7.80866C3.97629 8.27413 3.75 8.89226 3.75 9.5V14.5C3.75 15.1303 3.98799 15.697 4.38014 16.0238L4.40627 16.0456L7.93033 19.5697C8.39915 20.0385 8.91191 20.25 9.5 20.25H14.5C15.1303 20.25 15.697 20.012 16.0238 19.6199L16.0456 19.5937L19.5697 16.0697C20.0385 15.6009 20.25 15.0881 20.25 14.5V9.5C20.25 8.86969 20.012 8.30296 19.6199 7.97617L19.5937 7.95439L16.0697 4.43033C15.6195 3.98018 15.0145 3.75 14.4 3.75H9.4Z" fill="black"/>
</svg>
