<svg width="24" height="24" viewBox="0 0 24 24" fill="none" xmlns="http://www.w3.org/2000/svg">
<path fill-rule="evenodd" clip-rule="evenodd" d="M5.75 7C5.75 5.21421 7.21421 3.75 9 3.75H15C16.7858 3.75 18.25 5.21421 18.25 7V11.25H5.75V7ZM5.75 12.75V17C5.75 18.7858 7.21421 20.25 9 20.25H15C16.7858 20.25 18.25 18.7858 18.25 17V12.75H5.75ZM9 2.25C6.38579 2.25 4.25 4.38579 4.25 7V17C4.25 19.6142 6.38579 21.75 9 21.75H15C17.6142 21.75 19.75 19.6142 19.75 17V7C19.75 4.38579 17.6142 2.25 15 2.25H9Z" fill="black"/>
</svg>
