<svg width="24" height="24" viewBox="0 0 24 24" fill="none" xmlns="http://www.w3.org/2000/svg">
<path d="M19 7V12H5V7C5 4.8 6.8 3 9 3H15C17.2 3 19 4.7 19 7Z" fill="black"/>
<path fill-rule="evenodd" clip-rule="evenodd" d="M9 3.75C7.21421 3.75 5.75 5.21421 5.75 7V11.25H18.25V7C18.25 5.12646 16.7981 3.75 15 3.75H9ZM4.25 7C4.25 4.38579 6.38579 2.25 9 2.25H15C17.6019 2.25 19.75 4.27354 19.75 7V12.75H4.25V7Z" fill="black"/>
<path fill-rule="evenodd" clip-rule="evenodd" d="M4.25 11.25H19.75V17C19.75 19.6142 17.6142 21.75 15 21.75H9C6.38579 21.75 4.25 19.6142 4.25 17V11.25ZM5.75 12.75V17C5.75 18.7858 7.21421 20.25 9 20.25H15C16.7858 20.25 18.25 18.7858 18.25 17V12.75H5.75Z" fill="black"/>
</svg>
