<svg width="24" height="24" viewBox="0 0 24 24" fill="none" xmlns="http://www.w3.org/2000/svg">
<path d="M11.55 19.55C15.9683 19.55 19.55 15.9683 19.55 11.55C19.55 7.13177 15.9683 3.55005 11.55 3.55005C7.13171 3.55005 3.54999 7.13177 3.54999 11.55C3.54999 15.9683 7.13171 19.55 11.55 19.55Z" fill="black"/>
<path fill-rule="evenodd" clip-rule="evenodd" d="M11.55 4.30005C7.54592 4.30005 4.29999 7.54598 4.29999 11.55C4.29999 15.5541 7.54592 18.8 11.55 18.8C15.5541 18.8 18.8 15.5541 18.8 11.55C18.8 7.54598 15.5541 4.30005 11.55 4.30005ZM2.79999 11.55C2.79999 6.71756 6.7175 2.80005 11.55 2.80005C16.3825 2.80005 20.3 6.71756 20.3 11.55C20.3 16.3825 16.3825 20.3 11.55 20.3C6.7175 20.3 2.79999 16.3825 2.79999 11.55Z" fill="black"/>
<path fill-rule="evenodd" clip-rule="evenodd" d="M16.9197 16.9197C17.2125 16.6268 17.6874 16.6268 17.9803 16.9197L20.9803 19.9197C21.2732 20.2126 21.2732 20.6875 20.9803 20.9804C20.6874 21.2733 20.2125 21.2733 19.9197 20.9804L16.9197 17.9804C16.6268 17.6875 16.6268 17.2126 16.9197 16.9197Z" fill="black"/>
<path fill-rule="evenodd" clip-rule="evenodd" d="M7.79999 11.55C7.79999 11.1358 8.13577 10.8 8.54999 10.8H14.55C14.9642 10.8 15.3 11.1358 15.3 11.55C15.3 11.9643 14.9642 12.3 14.55 12.3H8.54999C8.13577 12.3 7.79999 11.9643 7.79999 11.55Z" fill="white"/>
<path fill-rule="evenodd" clip-rule="evenodd" d="M11.55 7.80005C11.9642 7.80005 12.3 8.13584 12.3 8.55005V14.55C12.3 14.9643 11.9642 15.3 11.55 15.3C11.1358 15.3 10.8 14.9643 10.8 14.55V8.55005C10.8 8.13584 11.1358 7.80005 11.55 7.80005Z" fill="white"/>
</svg>
