<svg width="24" height="24" viewBox="0 0 24 24" fill="none" xmlns="http://www.w3.org/2000/svg">
<path fill-rule="evenodd" clip-rule="evenodd" d="M10.15 9.69995C9.86974 9.69995 9.65513 9.80549 9.48033 9.98028C9.17323 10.2874 9.17323 10.9125 9.48033 11.2196L9.67354 11.4128L11.5981 13.2412L13.4803 11.359C13.7239 11.0247 13.8 10.7992 13.8 10.65C13.8 10.3697 13.6945 10.1551 13.5197 9.98028C13.2126 9.67317 12.5874 9.67317 12.2803 9.98028L11.55 10.7106L10.8591 10.0197C10.5248 9.77601 10.2993 9.69995 10.15 9.69995ZM11.5309 8.66169C11.1373 8.40703 10.6705 8.19995 10.15 8.19995C9.43027 8.19995 8.84488 8.49441 8.41967 8.91962C7.52678 9.81251 7.52678 11.3874 8.41967 12.2803L8.62647 12.4871L10.5852 14.3478C10.8266 14.656 11.1832 14.825 11.5625 14.825C11.9577 14.825 12.3155 14.6451 12.5803 14.3803L14.618 12.3426L14.65 12.3C14.9823 11.8569 15.3 11.2947 15.3 10.65C15.3 9.93021 15.0055 9.34483 14.5803 8.91962C13.7838 8.12311 12.4446 8.03713 11.5309 8.66169ZM11.4992 13.3368C11.4992 13.3367 11.4998 13.3364 11.5008 13.3359L11.4992 13.3368Z" fill="black"/>
<path fill-rule="evenodd" clip-rule="evenodd" d="M11.55 4.29993C7.54594 4.29993 4.3 7.54586 4.3 11.5499C4.3 15.554 7.54594 18.7999 11.55 18.7999C15.5541 18.7999 18.8 15.554 18.8 11.5499C18.8 7.54586 15.5541 4.29993 11.55 4.29993ZM2.8 11.5499C2.8 6.71743 6.71751 2.79993 11.55 2.79993C16.3825 2.79993 20.3 6.71743 20.3 11.5499C20.3 16.3824 16.3825 20.2999 11.55 20.2999C6.71751 20.2999 2.8 16.3824 2.8 11.5499Z" fill="black"/>
<path fill-rule="evenodd" clip-rule="evenodd" d="M16.9197 16.9196C17.2126 16.6267 17.6874 16.6267 17.9803 16.9196L20.9803 19.9196C21.2732 20.2125 21.2732 20.6874 20.9803 20.9803C20.6874 21.2732 20.2126 21.2732 19.9197 20.9803L16.9197 17.9803C16.6268 17.6874 16.6268 17.2125 16.9197 16.9196Z" fill="black"/>
</svg>
