<svg width="24" height="24" viewBox="0 0 24 24" fill="none" xmlns="http://www.w3.org/2000/svg">
<path fill-rule="evenodd" clip-rule="evenodd" d="M11.55 4.30005C7.54598 4.30005 4.30005 7.54598 4.30005 11.55C4.30005 15.5541 7.54598 18.8 11.55 18.8C15.5541 18.8 18.8 15.5541 18.8 11.55C18.8 7.54598 15.5541 4.30005 11.55 4.30005ZM2.80005 11.55C2.80005 6.71756 6.71756 2.80005 11.55 2.80005C16.3825 2.80005 20.3 6.71756 20.3 11.55C20.3 13.6963 19.5273 15.6621 18.2449 17.1843L20.9803 19.9197C21.2732 20.2126 21.2732 20.6875 20.9803 20.9804C20.6874 21.2733 20.2125 21.2733 19.9196 20.9804L17.1842 18.245C15.662 19.5274 13.6962 20.3 11.55 20.3C6.71756 20.3 2.80005 16.3825 2.80005 11.55ZM9.30005 11.55C9.30005 10.3074 10.3074 9.30005 11.55 9.30005C12.7927 9.30005 13.8 10.3074 13.8 11.55C13.8 12.7927 12.7927 13.8 11.55 13.8C10.3074 13.8 9.30005 12.7927 9.30005 11.55ZM11.55 7.80005C9.47898 7.80005 7.80005 9.47898 7.80005 11.55C7.80005 13.6211 9.47898 15.3 11.55 15.3C13.6211 15.3 15.3 13.6211 15.3 11.55C15.3 9.47898 13.6211 7.80005 11.55 7.80005Z" fill="black"/>
</svg>
