<svg width="24" height="24" viewBox="0 0 24 24" fill="none" xmlns="http://www.w3.org/2000/svg">
<path fill-rule="evenodd" clip-rule="evenodd" d="M4.30005 11.55C4.30005 7.54598 7.54598 4.30005 11.55 4.30005C15.5541 4.30005 18.8 7.54598 18.8 11.55C18.8 15.5541 15.5541 18.8 11.55 18.8C7.54598 18.8 4.30005 15.5541 4.30005 11.55ZM11.55 2.80005C6.71756 2.80005 2.80005 6.71756 2.80005 11.55C2.80005 16.3825 6.71756 20.3 11.55 20.3C13.6962 20.3 15.662 19.5274 17.1842 18.245L19.9196 20.9804C20.2125 21.2733 20.6874 21.2733 20.9803 20.9804C21.2732 20.6875 21.2732 20.2126 20.9803 19.9197L18.2449 17.1843C19.5273 15.6621 20.3 13.6963 20.3 11.55C20.3 6.71756 16.3825 2.80005 11.55 2.80005ZM7.80005 11.55C7.80005 11.1358 8.13584 10.8 8.55005 10.8H10.8V8.55005C10.8 8.13584 11.1358 7.80005 11.55 7.80005C11.9643 7.80005 12.3 8.13584 12.3 8.55005V10.8H14.55C14.9643 10.8 15.3 11.1358 15.3 11.55C15.3 11.9643 14.9643 12.3 14.55 12.3H12.3V14.55C12.3 14.9643 11.9643 15.3 11.55 15.3C11.1358 15.3 10.8 14.9643 10.8 14.55V12.3H8.55005C8.13584 12.3 7.80005 11.9643 7.80005 11.55Z" fill="black"/>
</svg>
