<svg width="24" height="24" viewBox="0 0 24 24" fill="none" xmlns="http://www.w3.org/2000/svg">
<path fill-rule="evenodd" clip-rule="evenodd" d="M10.5407 19.0336L3.4485 6.74711C2.77407 5.56685 3.60123 4.125 4.89968 4.125L19.0997 4.125C19.787 4.125 20.3105 4.56073 20.5717 5.04279C20.831 5.52168 20.9098 6.1907 20.539 6.76776L13.4586 19.0336C13.1458 19.6341 12.5235 19.875 11.9997 19.875C11.4759 19.875 10.8535 19.6341 10.5407 19.0336ZM12.1289 18.3396C12.1289 18.3396 12.1289 18.3396 12.1289 18.3396V18.3396ZM12.1289 18.3396C12.1289 18.3396 12.1289 18.3396 12.1289 18.3396L12.1389 18.3195L19.2622 5.9791L19.2756 5.95897C19.2875 5.94125 19.3148 5.87188 19.2527 5.75721C19.1888 5.63927 19.1124 5.625 19.0997 5.625L4.89968 5.625C4.7983 5.625 4.62587 5.78262 4.75024 6.00179C4.75045 6.00216 4.75066 6.00253 4.75087 6.00289L11.8605 18.3195L11.8704 18.3393C11.8705 18.3394 11.8702 18.3392 11.8704 18.3393C11.8716 18.3405 11.8767 18.3452 11.887 18.3507C11.9096 18.3628 11.9492 18.375 11.9997 18.375C12.0502 18.375 12.0898 18.3628 12.1124 18.3507C12.1227 18.3452 12.1276 18.3408 12.1289 18.3396Z" fill="black"/>
</svg>
