<svg width="24" height="24" viewBox="0 0 24 24" fill="none" xmlns="http://www.w3.org/2000/svg">
<path fill-rule="evenodd" clip-rule="evenodd" d="M13.4593 4.96636L20.5515 17.2529C21.2259 18.4332 20.3988 19.875 19.1003 19.875H4.90032C4.21301 19.875 3.68947 19.4393 3.42835 18.9572C3.16895 18.4783 3.09019 17.8093 3.46105 17.2322L10.5414 4.96636C10.8542 4.36589 11.4765 4.125 12.0003 4.125C12.5241 4.125 13.1465 4.36589 13.4593 4.96636ZM11.8711 5.6604C11.8711 5.6604 11.8711 5.6604 11.8711 5.6604V5.6604ZM11.8711 5.6604C11.8711 5.6604 11.8711 5.6604 11.8711 5.6604L11.8611 5.6805L4.73778 18.0209L4.72436 18.041C4.71254 18.0588 4.68518 18.1281 4.74729 18.2428C4.81117 18.3607 4.88763 18.375 4.90032 18.375H19.1003C19.2017 18.375 19.3741 18.2174 19.2498 17.9982C19.2496 17.9978 19.2493 17.9975 19.2491 17.9971L12.1395 5.6805L12.1296 5.66069C12.1295 5.66058 12.1298 5.66085 12.1296 5.66069C12.1284 5.65945 12.1233 5.65476 12.113 5.64926C12.0904 5.63721 12.0508 5.625 12.0003 5.625C11.9498 5.625 11.9102 5.63721 11.8876 5.64926C11.8773 5.65476 11.8724 5.65917 11.8711 5.6604Z" fill="black"/>
</svg>
