<svg width="24" height="24" viewBox="0 0 24 24" fill="none" xmlns="http://www.w3.org/2000/svg">
<path d="M13 4.39991L14.2 3.39991C15.1 2.59991 16.5 3.19991 16.6 4.39991L16.7 5.99991C16.8 6.69991 17.4 7.29991 18.1 7.29991L19.7 7.39991C20.9 7.49991 21.5 8.89991 20.7 9.79991L19.7 10.9999C19.2 11.5999 19.2 12.3999 19.7 12.8999L20.7 14.0999C21.5 14.9999 20.9 16.3999 19.7 16.4999L18.1 16.5999C17.4 16.6999 16.8 17.1999 16.7 17.9999L16.6 19.5999C16.5 20.7999 15.1 21.3999 14.2 20.5999L13 19.5999C12.4 19.0999 11.6 19.0999 11.1 19.5999L9.90001 20.5999C9.00001 21.3999 7.60001 20.7999 7.50001 19.5999L7.30001 18.0999C7.20001 17.3999 6.70001 16.7999 5.90001 16.6999L4.30001 16.5999C3.10001 16.4999 2.50001 15.0999 3.30001 14.1999L4.30001 12.9999C4.80001 12.3999 4.80001 11.5999 4.30001 11.0999L3.30001 9.89991C2.50001 8.99991 3.10001 7.59991 4.30001 7.49991L6.00001 7.29991C6.70001 7.29991 7.30001 6.69991 7.30001 5.99991L7.40001 4.39991C7.50001 3.19991 8.90001 2.59991 9.80001 3.39991L11 4.39991C11.6 4.89991 12.5 4.89991 13 4.39991Z" fill="black"/>
<path fill-rule="evenodd" clip-rule="evenodd" d="M8.14798 4.45566L8.04983 6.0261C8.03554 7.11239 7.13289 8.02254 6.04913 8.04933L4.37498 8.24628L4.36229 8.24734C3.73786 8.29938 3.4978 8.99356 3.86056 9.40166L3.86851 9.4106L4.85671 10.5964C5.64549 11.4133 5.57652 12.6396 4.87617 13.4801L3.86851 14.6893L3.86056 14.6982C3.49908 15.1049 3.73618 15.7956 4.3557 15.852L5.96998 15.9528L5.99303 15.9557C7.17062 16.1029 7.90089 17.0029 8.04247 17.9939L8.04346 18.0008L8.24587 19.5192L8.24741 19.5376C8.29945 20.1621 8.99363 20.4021 9.40173 20.0394L9.41067 20.0314L10.5965 19.0432C11.4133 18.2544 12.6397 18.3234 13.4801 19.0238L14.6893 20.0314L14.6983 20.0394C15.1049 20.4009 15.7957 20.1638 15.852 19.5442L15.9529 17.93L15.9558 17.9069C16.103 16.7293 17.0029 15.999 17.9939 15.8575L18.0235 15.8533L19.6443 15.752C20.2638 15.6956 20.5009 15.0049 20.1394 14.5982L20.1315 14.5893L19.1433 13.4034C18.3545 12.5866 18.4235 11.3602 19.1238 10.5198L20.1315 9.3106L20.1394 9.30166C20.5009 8.89499 20.2638 8.20424 19.6443 8.14791L18.0739 8.04977C16.9551 8.03554 16.1005 7.10682 15.9575 6.106L15.9533 6.07648L15.852 4.45563C15.7957 3.83611 15.1049 3.59901 14.6983 3.96049L14.6893 3.96844L13.5032 4.95686C12.6842 5.74541 11.3602 5.67639 10.5199 4.9761L9.31067 3.96844L9.30173 3.96049C8.89506 3.599 8.20431 3.83612 8.14798 4.45566ZM10.2885 2.83073C8.89654 1.60663 6.80021 2.56623 6.65259 4.33765L6.65195 4.34539L6.55 5.97652V5.99993C6.55 6.28572 6.28579 6.54993 6 6.54993H5.95604L4.22381 6.75372C2.46129 6.91112 1.50991 9.00011 2.7308 10.3884L3.74562 11.6062L3.76967 11.6303C3.95307 11.8137 4.01577 12.1695 3.72384 12.5198L2.73079 13.7114C1.5067 15.1034 2.4663 17.1997 4.23772 17.3473L4.24546 17.348L5.82686 17.4468C6.23682 17.5063 6.49872 17.802 6.5571 18.203L6.75437 19.6824C6.91618 21.4409 9.00183 22.3886 10.3885 21.1691L11.6063 20.1543L11.6303 20.1303C11.8137 19.9469 12.1695 19.8842 12.5199 20.1761L13.7115 21.1692C15.1035 22.3932 17.1998 21.4336 17.3474 19.6622L17.3481 19.6545L17.4469 18.0731C17.5052 17.6709 17.7909 17.4112 18.1803 17.3464L19.7545 17.248L19.7623 17.2473C21.5337 17.0997 22.4933 15.0034 21.2692 13.6115L20.2544 12.3937L20.2303 12.3696C20.0469 12.1862 19.9842 11.8304 20.2762 11.4801L21.2692 10.2884C22.4933 8.89645 21.5337 6.80014 19.7623 6.65252L19.7545 6.65188L18.1234 6.54993H18.1C17.8373 6.54993 17.5124 6.29635 17.4464 5.91851L17.3481 4.34539L17.3474 4.33765C17.1998 2.56623 15.1035 1.60663 13.7115 2.83072L12.4937 3.84555L12.4697 3.8696C12.2863 4.053 11.8305 4.1157 11.4801 3.82377L10.2885 2.83073Z" fill="black"/>
</svg>
