<svg width="24" height="24" viewBox="0 0 24 24" fill="none" xmlns="http://www.w3.org/2000/svg">
<path d="M13.2968 4.00005C14.5968 2.90005 16.4968 3.70005 16.6968 5.40005C16.7968 6.40005 17.5968 7.20005 18.5968 7.30005C20.2968 7.40005 21.0968 9.40005 19.9968 10.7C19.3968 11.5 19.3968 12.6 19.9968 13.3C21.0968 14.6 20.2968 16.5 18.5968 16.7C17.5968 16.8 16.7968 17.6 16.6968 18.6C16.5968 20.3 14.5968 21.1 13.2968 20C12.4968 19.4 11.3968 19.4 10.6968 20C9.39681 21.1 7.49681 20.3 7.29681 18.6C7.19681 17.6 6.39681 16.8 5.39681 16.7C3.69681 16.6 2.89681 14.6 3.99681 13.3C4.59681 12.5 4.59681 11.4 3.99681 10.7C2.99681 9.40005 3.79681 7.40005 5.39681 7.30005C6.39681 7.20005 7.19681 6.40005 7.29681 5.40005C7.39681 3.80005 9.39681 3.00005 10.6968 4.00005C11.3968 4.70005 12.4968 4.70005 13.2968 4.00005Z" fill="black"/>
<path fill-rule="evenodd" clip-rule="evenodd" d="M13.7852 4.56923C12.7375 5.48153 11.2174 5.53805 10.2078 4.57077C9.79669 4.27276 9.27423 4.23851 8.8298 4.41958C8.37706 4.60402 8.0746 4.97915 8.04537 5.44679L8.0445 5.46073L8.04311 5.47463C7.90759 6.82983 6.82665 7.91076 5.47146 8.04628L5.45756 8.04767L5.44361 8.04855C4.97597 8.07777 4.60085 8.38024 4.4164 8.83298C4.23254 9.28426 4.2707 9.816 4.58158 10.2299C5.42115 11.2278 5.37748 12.7091 4.59683 13.75L4.5836 13.7676L4.56937 13.7845C3.84245 14.6436 4.39787 15.8899 5.44087 15.9513L5.45619 15.9522L5.47146 15.9537C6.82412 16.089 7.90355 17.1662 8.04234 18.5178C8.17999 19.6566 9.39714 20.1154 10.2108 19.4288C11.2088 18.5752 12.7004 18.6152 13.7468 19.4L13.7645 19.4132L13.7813 19.4275C14.6404 20.1544 15.8868 19.599 15.9481 18.556L15.949 18.5406L15.9506 18.5254C16.0858 17.1727 17.163 16.0933 18.5146 15.9545C19.6534 15.8168 20.1122 14.5997 19.4256 13.786C18.5721 12.788 18.612 11.2964 19.3968 10.25L19.4101 10.2324L19.4243 10.2155C20.1512 9.35646 19.5958 8.11006 18.5528 8.04871L18.5375 8.04781L18.5222 8.04628C17.1695 7.91102 16.0901 6.83385 15.9513 5.4822C15.8138 4.34456 14.5989 3.88552 13.7852 4.56923ZM12.8124 3.42747C14.5974 1.91706 17.1762 3.05582 17.4417 5.31237L17.4432 5.32537L17.4431 5.32538C17.5072 5.96599 18.0199 6.48249 18.6589 6.55241C20.9943 6.70343 22.0308 9.42732 20.5859 11.1648C20.1829 11.7154 20.2247 12.4134 20.5663 12.8119L20.5694 12.8155L20.5694 12.8155C22.0798 14.6006 20.941 17.1794 18.6845 17.4449L18.6715 17.4464L18.6715 17.4463C18.0308 17.5103 17.5143 18.0231 17.4444 18.6621C17.2934 20.9975 14.5695 22.034 12.8321 20.5891C12.2815 20.1861 11.5834 20.2279 11.1849 20.5694L11.1813 20.5726L11.1813 20.5725C9.39626 22.083 6.81744 20.9442 6.55197 18.6876L6.55044 18.6746L6.55055 18.6746C6.48649 18.034 5.97374 17.5175 5.33476 17.4476C2.99932 17.2966 1.96281 14.5727 3.40776 12.8353C3.81074 12.2846 3.76895 11.5866 3.42739 11.1881L3.41447 11.173L3.40236 11.1573C2.72215 10.273 2.66301 9.16109 3.02726 8.26703C3.39103 7.37415 4.20965 6.62953 5.3335 6.55255C5.9693 6.48358 6.4804 5.97248 6.54937 5.33668C6.62635 4.21283 7.37097 3.3942 8.26386 3.03044C9.15791 2.66619 10.2698 2.72533 11.1541 3.40554L11.1927 3.43523L11.2272 3.46968C11.6163 3.85883 12.2652 3.90611 12.8029 3.43557L12.8123 3.42739L12.8124 3.42747Z" fill="black"/>
</svg>
