<svg width="24" height="24" viewBox="0 0 24 24" fill="none" xmlns="http://www.w3.org/2000/svg">
<path d="M11.1 4.56248L3.1 18.4625C2.7 19.1625 3.2 19.9625 4 19.9625H20C20.8 19.9625 21.3 19.1625 20.9 18.4625L12.9 4.56248C12.4 3.86248 11.5 3.86248 11.1 4.56248Z" fill="black"/>
<path fill-rule="evenodd" clip-rule="evenodd" d="M11.9625 3.28748C12.5672 3.28748 13.1347 3.60069 13.5103 4.12655L13.5317 4.15648L21.5512 18.0904C22.2575 19.3264 21.3338 20.7125 20 20.7125H4C2.66615 20.7125 1.74251 19.3264 2.44882 18.0904L2.44997 18.0884L10.4488 4.19037C10.449 4.18997 10.4493 4.18956 10.4495 4.18916C10.7792 3.61312 11.3484 3.28748 11.9625 3.28748ZM11.9625 4.78748C11.902 4.78748 11.8216 4.81138 11.7512 4.93458L11.75 4.93659L3.75118 18.8346C3.75104 18.8348 3.75132 18.8343 3.75118 18.8346C3.6895 18.943 3.70512 19.0266 3.74065 19.085C3.77921 19.1484 3.86107 19.2125 4 19.2125H20C20.1389 19.2125 20.2208 19.1484 20.2593 19.085C20.2949 19.0267 20.3109 18.9437 20.2493 18.8353C20.2491 18.8351 20.2494 18.8356 20.2493 18.8353L12.2714 4.97384C12.1525 4.82075 12.0294 4.78748 11.9625 4.78748Z" fill="black"/>
<path d="M12 14.6625C11.6 14.6625 11.2 14.3625 11.2 13.8625V8.8625C11.2 8.4625 11.5 8.0625 12 8.0625C12.5 8.0625 12.8 8.3625 12.8 8.8625V13.8625C12.7 14.3625 12.4 14.6625 12 14.6625Z" fill="white"/>
<path d="M12 17.6624C11.9 17.6624 11.8 17.6624 11.7 17.5624C11.6 17.5624 11.5 17.4624 11.5 17.3624C11.3 17.3624 11.2 17.1624 11.2 16.9624C11.2 16.8624 11.2 16.7624 11.3 16.6624C11.3 16.5624 11.4 16.4624 11.5 16.4624C11.5 16.3624 11.6 16.2624 11.7 16.2624C12 16.1624 12.3 16.1624 12.5 16.4624C12.6 16.5624 12.6 16.5624 12.7 16.6624C12.7 16.7624 12.8 16.8624 12.8 16.9624C12.8 17.1624 12.7 17.3624 12.6 17.4624C12.3 17.6624 12.2 17.6624 12 17.6624Z" fill="white"/>
</svg>
