<svg xmlns="http://www.w3.org/2000/svg" fill="none" viewBox="0 0 24 24">
  <path fill="#000" d="M8.216 15.756c-1.122-1.11-2.86-1.373-4.151-.727a1.45 1.45 0 0 0-.766 1.053c-.07.396.01.888.37 1.249l3 3c.361.36.853.44 1.249.37.4-.07.827-.314 1.053-.765l.006-.013.006-.012c.604-1.33.511-2.993-.767-4.155m-3.415.584 2.856 2.857c.346-.84.224-1.725-.459-2.34l-.014-.013-.014-.014c-.658-.657-1.668-.802-2.37-.49M16.082 3.399c.396-.07.888.01 1.248.37l3 3c.361.361.441.853.371 1.249-.07.4-.314.827-.766 1.053-1.291.646-3.03.383-4.151-.727-1.278-1.162-1.37-2.825-.767-4.154l.006-.013.006-.012a1.45 1.45 0 0 1 1.053-.766m.26 1.504L19.2 7.76c-.701.312-1.71.168-2.369-.49l-.014-.014-.014-.013c-.683-.615-.805-1.5-.46-2.34"/>
  <path fill="#000" d="m16.8 13.4-3.4 3.4a3.32 3.32 0 0 1-4.7 0l-1.5-1.5a3.32 3.32 0 0 1 0-4.7l3.4-3.4c1.3-1.3 3.4-1.3 4.7 0l1.5 1.5c1.3 1.3 1.3 3.4 0 4.7"/>
  <path fill="#000" d="M14.77 7.73a2.57 2.57 0 0 0-3.64 0l-3.4 3.4a2.57 2.57 0 0 0 0 3.64l1.5 1.5a2.57 2.57 0 0 0 3.64 0l3.4-3.4a2.57 2.57 0 0 0 0-3.64zm-4.7-1.06a4.07 4.07 0 0 1 5.76 0l1.5 1.5a4.07 4.07 0 0 1 0 5.76l-3.4 3.4a4.07 4.07 0 0 1-5.76 0l-1.5-1.5a4.07 4.07 0 0 1 0-5.76z"/>
</svg>
