<svg xmlns="http://www.w3.org/2000/svg" fill="none" viewBox="0 0 24 24">
  <path fill="#000" d="M6.05 5.8c-1.286 0-2.25.964-2.25 2.25v1a.75.75 0 0 1-1.5 0v-1c0-2.114 1.636-3.75 3.75-3.75h8c2.114 0 3.75 1.636 3.75 3.75v1.2a.75.75 0 0 1-1.5 0v-1.2c0-1.286-.964-2.25-2.25-2.25zm10.67 8.15a.75.75 0 0 1 .43.97c-1.113 2.893-3.994 4.88-7.2 4.88-2.564 0-4.881-1.335-6.308-3.31a.75.75 0 1 1 1.216-.879c1.173 1.624 3.056 2.69 5.092 2.69 2.594 0 4.913-1.614 5.8-3.92a.75.75 0 0 1 .97-.43Z"/>
  <path fill="#000" d="M17.8 9.727v2.323c0 .743-.121 1.477-.315 2.158.2.056.4.092.565.092 1.286 0 2.25-.964 2.25-2.25 0-1.253-1.034-2.26-2.27-2.35a2 2 0 0 0-.23.027m-.987-1.289c.32-.106.813-.238 1.237-.238h.023l.024.001c1.952.122 3.703 1.71 3.703 3.849 0 2.114-1.636 3.75-3.75 3.75-.66 0-1.378-.25-1.835-.48l-.604-.301.237-.632c.275-.734.452-1.544.452-2.337V8.61zM9.05 10.05v5c0 .5-.4 1-1 1h-3.8c-.8-1.1-1.3-2.5-1.3-4v-3h5c.6 0 1.1.4 1.1 1"/>
  <path fill="#000" d="M2.2 8.3h5.75c.917 0 1.85.645 1.85 1.75v5c0 .865-.688 1.75-1.75 1.75H3.868l-.225-.309A7.58 7.58 0 0 1 2.2 12.05zm1.5 1.5v2.25c0 1.197.359 2.324.947 3.25H8.05c.08 0 .135-.03.177-.074a.27.27 0 0 0 .073-.176v-5a.2.2 0 0 0-.069-.16.43.43 0 0 0-.281-.09z"/>
</svg>
