<svg xmlns="http://www.w3.org/2000/svg" fill="none" viewBox="0 0 24 24">
  <path fill="#000" d="M9.149 10.278a.75.75 0 0 1 1.023-.28c.629.36 1.3.602 2.028.602.66 0 1.232-.16 1.828-.501a.75.75 0 0 1 .744 1.302c-.804.46-1.632.699-2.572.699-1.072 0-2-.358-2.772-.799a.75.75 0 0 1-.28-1.023M12.1 3.2c-1.743 0-3.235 1.248-3.565 2.897a.75.75 0 0 1-1.47-.294C7.535 3.453 9.643 1.7 12.1 1.7s4.565 1.752 5.035 4.103a.75.75 0 1 1-1.47.294C15.335 4.447 13.843 3.2 12.1 3.2"/>
  <path fill="#000" d="M8.548 5.892a.75.75 0 0 1-.69.806c-.889.068-1.708.922-1.708 1.952 0 1.086.864 1.95 1.95 1.95.474 0 .913-.2 1.331-.536a.75.75 0 0 1 .938 1.172c-.582.465-1.343.864-2.269.864a3.44 3.44 0 0 1-3.45-3.45c0-1.77 1.38-3.316 3.092-3.448a.75.75 0 0 1 .806.69m7.224-.024a.75.75 0 0 1 .91-.546c1.494.374 2.668 1.644 2.668 3.328a3.44 3.44 0 0 1-3.45 3.45c-.749 0-1.558-.247-2.13-.82a.75.75 0 1 1 1.06-1.06c.228.227.619.38 1.07.38 1.086 0 1.95-.864 1.95-1.95 0-.916-.626-1.646-1.532-1.872a.75.75 0 0 1-.546-.91"/>
  <path fill="#000" d="M7.004 10.56a.75.75 0 0 1 .985.394l4.061 9.444 4.061-9.444a.75.75 0 0 1 1.378.592l-4.308 10.02-.01.02a1.25 1.25 0 0 1-1.121.714c-.477 0-.902-.277-1.12-.715l-.01-.019-4.309-10.02a.75.75 0 0 1 .393-.985"/>
</svg>
