<svg xmlns="http://www.w3.org/2000/svg" fill="none" viewBox="0 0 24 24">
  <path fill="#000" d="M18.97 4.23a.52.52 0 0 0-.74 0l-2.9 2.9a.52.52 0 0 0 0 .74l.4.4a.52.52 0 0 0 .74 0l2.9-2.9a.52.52 0 0 0 0-.74zm-1.8-1.06a2.017 2.017 0 0 1 2.86 0l.4.4a2.017 2.017 0 0 1 0 2.86l-2.9 2.9a2.017 2.017 0 0 1-2.86 0l-.4-.4a2.017 2.017 0 0 1 0-2.86zM12.9 9.64l4.505 4.505c.45.38.608.926.567 1.417a1.9 1.9 0 0 1-.698 1.32C12.98 20.44 7.068 21.146 4.355 21.347l-.027.002H4.3a1.34 1.34 0 0 1-1.217-.77c-.207-.444-.162-1.045.317-1.44l9.5-9.5Zm0 2.12-8.04 8.041c2.844-.26 7.835-1.071 11.461-4.078l.01-.009a.4.4 0 0 0 .147-.276c.007-.095-.024-.134-.047-.152l-.032-.026z"/>
  <path fill="#000" d="m15.53 9.13-2.1 2.1-1.06-1.06 2.1-2.1z"/>
</svg>
