<svg xmlns="http://www.w3.org/2000/svg" fill="none" viewBox="0 0 24 24">
  <path fill="#000" d="m15.8 17.8-.5 1.3c-.3.9-1.4 1.4-2.3.9-4.7-2.3-8.1-6.5-9.5-11.2-.3-1 .3-1.9 1.3-2.1l1.5-.3c.1 1 .4 2 .8 2.9.3.9.7 1.8 1.2 2.6 1.6 2.5 4 4.6 7 5.7.2.1.3.1.5.2"/>
  <path fill="#000" d="m6.964 5.502.082.823c.09.906.365 1.828.74 2.67l.014.034.012.034c.284.854.66 1.697 1.122 2.436 1.52 2.375 3.795 4.36 6.624 5.397l.04.014.037.02c.05.024.082.035.152.059l.005.001c.08.027.196.065.343.14l.61.304-.74 1.921c-.444 1.299-2.023 2.033-3.35 1.31-4.886-2.395-8.417-6.76-9.874-11.65-.436-1.457.474-2.77 1.872-3.05zM5.674 7.29l-.727.146c-.601.12-.892.605-.729 1.149v.001c1.343 4.505 4.605 8.535 9.112 10.74l.017.009.017.01c.463.257 1.063.002 1.224-.482l.006-.016.239-.621c-3.072-1.182-5.523-3.356-7.165-5.922l-.004-.006c-.53-.85-.95-1.793-1.264-2.727a11 11 0 0 1-.726-2.28"/>
  <path fill="#000" d="M19.771 4.631 7.145 7.004c.128.68.335 1.363.555 2.025.398.895.773 1.733 1.234 2.47 1.48 2.311 3.673 4.252 6.396 5.31l1.765-4.765.002-.004 1.2-3.303 1.494-3.981a.2.2 0 0 0 0-.068.2.2 0 0 0-.02-.057m1.171-.941c.315.405.456.989.27 1.547l-.005.013-1.503 4.01-1.2 3.3-2.182 5.89H15.8c-.224 0-.396-.058-.477-.085l-.01-.003-.036-.012h-.11l-.125-.046c-3.17-1.162-5.695-3.376-7.374-6l-.004-.006c-.528-.845-.946-1.786-1.339-2.669L6.3 9.572l-.012-.035c-.302-.907-.625-1.974-.734-3.062l-.069-.685L19.42 3.17c.641-.186 1.205.113 1.522.52"/>
  <path fill="#000" d="M6.372 9.118C6.664 7.954 7.79 7.15 9 7.15a2.756 2.756 0 0 1 2.75 2.75c0 1.59-1.212 2.85-2.75 2.85h-.05c-.259.001-.623.002-.985-.179a.75.75 0 1 1 .67-1.341c.005.001.016.007.06.012.063.007.143.008.305.008.662 0 1.25-.54 1.25-1.35 0-.686-.564-1.25-1.25-1.25-.589 0-1.064.397-1.172.832a.75.75 0 0 1-1.456-.364M17.5 8.95c-.763 0-1.35.641-1.35 1.35 0 .763.64 1.35 1.35 1.35h.3a.75.75 0 0 1 0 1.5h-.3c-1.49 0-2.85-1.213-2.85-2.85 0-1.49 1.213-2.85 2.85-2.85.834 0 1.617.406 2.13.92a.75.75 0 0 1-1.06 1.06c-.287-.286-.704-.48-1.07-.48"/>
</svg>
