<svg xmlns="http://www.w3.org/2000/svg" fill="none" viewBox="0 0 24 24">
  <path fill="#000" d="M18.8 8.45c-.9 3-3.6 5.1-6.8 5.1s-6-2.1-6.9-5.1z"/>
  <path fill="#000" d="M4.092 7.7h15.716l-.29.965C18.526 11.972 15.542 14.3 12 14.3c-3.53 0-6.623-2.316-7.618-5.635zm2.105 1.5A6.47 6.47 0 0 0 12 12.8c2.502 0 4.665-1.435 5.707-3.6z"/>
  <path fill="#000" d="M5.1 8.45c-.2-.6-.3-1.3-.3-2 0-1.1.3-2.2.7-3.1"/>
  <path fill="#000" d="M5.805 2.665a.75.75 0 0 1 .38.99c-.368.828-.635 1.824-.635 2.795 0 .634.091 1.252.261 1.763a.75.75 0 1 1-1.423.474c-.23-.689-.338-1.47-.338-2.237 0-1.229.333-2.433.765-3.405a.75.75 0 0 1 .99-.38M18.4 3.35c.5 1 .7 2 .7 3.1 0 .7-.1 1.4-.3 2"/>
  <path fill="#000" d="M18.065 2.68a.75.75 0 0 1 1.006.335c.559 1.118.779 2.235.779 3.435 0 .766-.109 1.548-.338 2.237a.75.75 0 1 1-1.424-.474c.17-.511.262-1.129.262-1.763 0-1-.18-1.883-.62-2.765a.75.75 0 0 1 .335-1.006"/>
  <path fill="#000" d="M4.85 3.35a.75.75 0 0 1 .75-.75h12.8a.75.75 0 0 1 0 1.5H5.6a.75.75 0 0 1-.75-.75M12 12.8a.75.75 0 0 1 .75.75v7.1a.75.75 0 1 1-1.5 0v-7.1a.75.75 0 0 1 .75-.75"/>
  <path fill="#000" d="M7.85 20.65a.75.75 0 0 1 .75-.75h6.8a.75.75 0 0 1 0 1.5H8.6a.75.75 0 0 1-.75-.75"/>
</svg>
