<svg width="24" height="24" viewBox="0 0 24 24" fill="none" xmlns="http://www.w3.org/2000/svg">
<path fill-rule="evenodd" clip-rule="evenodd" d="M6.85001 5.76251C5.15166 5.76251 3.70001 7.13918 3.70001 8.91251V14.4125C3.70001 16.1109 5.07668 17.5625 6.85001 17.5625C7.26423 17.5625 7.60001 17.8983 7.60001 18.3125C7.60001 18.7267 7.26423 19.0625 6.85001 19.0625C4.22334 19.0625 2.20001 16.9142 2.20001 14.4125V8.91251C2.20001 6.28584 4.34837 4.26251 6.85001 4.26251H17.15C19.7767 4.26251 21.8 6.41087 21.8 8.91251V11.4125C21.8 11.8267 21.4642 12.1625 21.05 12.1625C20.6358 12.1625 20.3 11.8267 20.3 11.4125V8.91251C20.3 7.21416 18.9233 5.76251 17.15 5.76251H6.85001Z" fill="black"/>
<path d="M11.95 14.0125C13.2755 14.0125 14.35 12.938 14.35 11.6125C14.35 10.287 13.2755 9.21252 11.95 9.21252C10.6245 9.21252 9.54999 10.287 9.54999 11.6125C9.54999 12.938 10.6245 14.0125 11.95 14.0125Z" fill="black"/>
<path fill-rule="evenodd" clip-rule="evenodd" d="M11.95 9.96252C11.0387 9.96252 10.3 10.7013 10.3 11.6125C10.3 12.5238 11.0387 13.2625 11.95 13.2625C12.8613 13.2625 13.6 12.5238 13.6 11.6125C13.6 10.7013 12.8613 9.96252 11.95 9.96252ZM8.79999 11.6125C8.79999 9.87283 10.2103 8.46252 11.95 8.46252C13.6897 8.46252 15.1 9.87283 15.1 11.6125C15.1 13.3522 13.6897 14.7625 11.95 14.7625C10.2103 14.7625 8.79999 13.3522 8.79999 11.6125Z" fill="black"/>
<path fill-rule="evenodd" clip-rule="evenodd" d="M18.9884 15.1904C19.2768 15.4878 19.2695 15.9626 18.9721 16.251L15.7664 19.3595C15.6969 19.4645 15.6064 19.5484 15.5103 19.6075C15.3329 19.7167 15.1535 19.7375 15.0375 19.7375C14.8083 19.7375 14.5315 19.6547 14.3197 19.4429L14.282 19.4052L13.05 17.7625C12.8015 17.4312 12.8686 16.9611 13.2 16.7125C13.5314 16.464 14.0015 16.5312 14.25 16.8625L15.0655 17.9498L17.9279 15.1741C18.2253 14.8857 18.7001 14.8931 18.9884 15.1904Z" fill="black"/>
</svg>
