<svg width="24" height="24" viewBox="0 0 24 24" fill="none" xmlns="http://www.w3.org/2000/svg">
<path fill-rule="evenodd" clip-rule="evenodd" d="M6.85 5.40002C5.15164 5.40002 3.7 6.7767 3.7 8.55002V14.05C3.7 15.7484 5.07667 17.2 6.85 17.2C7.26421 17.2 7.6 17.5358 7.6 17.95C7.6 18.3642 7.26421 18.7 6.85 18.7C4.22332 18.7 2.2 16.5517 2.2 14.05V8.55002C2.2 5.92335 4.34835 3.90002 6.85 3.90002H17.15C19.7767 3.90002 21.8 6.04838 21.8 8.55002V11.05C21.8 11.4642 21.4642 11.8 21.05 11.8C20.6358 11.8 20.3 11.4642 20.3 11.05V8.55002C20.3 6.85167 18.9233 5.40002 17.15 5.40002H6.85Z" fill="black"/>
<path fill-rule="evenodd" clip-rule="evenodd" d="M11.95 9.60004C11.0387 9.60004 10.3 10.3388 10.3 11.25C10.3 12.1613 11.0387 12.9 11.95 12.9C12.8613 12.9 13.6 12.1613 13.6 11.25C13.6 10.3388 12.8613 9.60004 11.95 9.60004ZM8.8 11.25C8.8 9.51034 10.2103 8.10004 11.95 8.10004C13.6897 8.10004 15.1 9.51034 15.1 11.25C15.1 12.9897 13.6897 14.4 11.95 14.4C10.2103 14.4 8.8 12.9897 8.8 11.25Z" fill="black"/>
<path fill-rule="evenodd" clip-rule="evenodd" d="M17.3197 15.5197C17.6126 15.2268 18.0874 15.2268 18.3803 15.5197L19.5803 16.7197C19.8528 16.9922 19.95 17.3512 19.95 17.65C19.95 17.9489 19.8528 18.3079 19.5803 18.5804L18.3803 19.7804C18.0874 20.0733 17.6126 20.0733 17.3197 19.7804C17.0268 19.4875 17.0268 19.0126 17.3197 18.7197L18.3893 17.65L17.3197 16.5804C17.0268 16.2875 17.0268 15.8126 17.3197 15.5197Z" fill="black"/>
<path fill-rule="evenodd" clip-rule="evenodd" d="M15.1803 15.6197C15.4732 15.9126 15.4732 16.3875 15.1803 16.6804L14.1107 17.75L15.1803 18.8197C15.4732 19.1126 15.4732 19.5875 15.1803 19.8804C14.8874 20.1732 14.4126 20.1732 14.1197 19.8804L12.9197 18.6804C12.6472 18.4079 12.55 18.0489 12.55 17.75C12.55 17.4512 12.6472 17.0922 12.9197 16.8197L14.1197 15.6197C14.4126 15.3268 14.8874 15.3268 15.1803 15.6197Z" fill="black"/>
</svg>
