<svg xmlns="http://www.w3.org/2000/svg" fill="none" viewBox="0 0 24 24">
  <path fill="#000" d="M11.25 14.25h10.5V17A4.76 4.76 0 0 1 17 21.75h-5.75zm1.5 1.5v4.5H17A3.26 3.26 0 0 0 20.25 17v-1.25z"/>
  <path fill="#000" d="M2.25 14.15h10.5v7.5H7a4.76 4.76 0 0 1-4.75-4.75zm1.5 1.5v1.25A3.26 3.26 0 0 0 7 20.15h4.25v-4.5z"/>
  <path fill="#000" d="M2.25 8.15h10.5v7.5H2.25zm1.5 1.5v4.5h7.5v-4.5z"/>
  <path fill="#000" d="M11.25 8.15h10.5v7.608l-10.5-.116zm1.5 1.5v4.508l7.5.084V9.65z"/>
  <path fill="#000" d="M21 7v2H3V7c0-2.2 1.8-4 4-4h10c2.2 0 4 1.7 4 4"/>
  <path fill="#000" d="M7 3.75A3.26 3.26 0 0 0 3.75 7v1.25h16.5V7c0-1.874-1.452-3.25-3.25-3.25zM2.25 7A4.76 4.76 0 0 1 7 2.25h10c2.602 0 4.75 2.024 4.75 4.75v2.75H2.25z"/>
</svg>
