<svg xmlns="http://www.w3.org/2000/svg" fill="none" viewBox="0 0 24 24">
  <path fill="#000" d="M11.25 2.25H17c2.602 0 4.75 2.024 4.75 4.75v5.75h-10.5zm1.5 1.5v7.5h7.5V7c0-1.874-1.452-3.25-3.25-3.25z"/>
  <path fill="#000" d="M12 3v9H3V7c0-2.2 1.8-4 4-4z"/>
  <path fill="#000" d="M7 3.75A3.26 3.26 0 0 0 3.75 7v4.25h7.5v-7.5zM2.25 7A4.76 4.76 0 0 1 7 2.25h5.75v10.5H2.25z"/>
  <path fill="#000" d="M2.25 11.25h10.5v10.5H7A4.76 4.76 0 0 1 2.25 17zm1.5 1.5V17A3.26 3.26 0 0 0 7 20.25h4.25v-7.5z"/>
  <path fill="#000" d="M11.25 11.25h10.5V17A4.76 4.76 0 0 1 17 21.75h-5.75zm1.5 1.5v7.5H17A3.26 3.26 0 0 0 20.25 17v-4.25z"/>
</svg>
