<svg xmlns="http://www.w3.org/2000/svg" fill="none" viewBox="0 0 24 24">
  <path fill="#000" d="M15.25 2.25H17c2.602 0 4.75 2.024 4.75 4.75v10A4.76 4.76 0 0 1 17 21.75h-1.75zm1.5 1.5v16.5H17A3.26 3.26 0 0 0 20.25 17V7c0-1.874-1.452-3.25-3.25-3.25z"/>
  <path fill="#000" d="M16 3H8v18h8z"/>
  <path fill="#000" d="M7.25 2.25h9.5v19.5h-9.5zm1.5 1.5v16.5h6.5V3.75z"/>
  <path fill="#000" d="M7 3.75A3.26 3.26 0 0 0 3.75 7v10A3.26 3.26 0 0 0 7 20.25h.25V3.75zM2.25 7A4.76 4.76 0 0 1 7 2.25h1.75v19.5H7A4.76 4.76 0 0 1 2.25 17z"/>
</svg>
