<svg width="24" height="24" viewBox="0 0 24 24" fill="none" xmlns="http://www.w3.org/2000/svg">
<path fill-rule="evenodd" clip-rule="evenodd" d="M12.0871 5.81145L14.226 10.535L14.2325 10.5479C14.6316 11.3462 15.6331 11.5854 16.3097 11.1429L20.3548 8.59272L18.6628 17.993L18.6608 18.0064C18.6155 18.324 18.3433 18.5625 18.0033 18.5625H6.0033C5.66329 18.5625 5.39113 18.324 5.34576 18.0064L5.34384 17.993L3.65985 8.63747L7.63329 11.166L7.66789 11.1833C8.01469 11.3567 8.42718 11.414 8.80905 11.3122C9.18271 11.2125 9.55101 10.9451 9.70227 10.4927L12.0871 5.81145ZM11.0793 4.49647C11.5761 3.75118 12.6305 3.75118 13.1273 4.49647L13.1613 4.54738L15.5592 9.84282L20.2049 6.91402L20.3214 6.88489C20.6736 6.79684 21.095 6.82054 21.4435 7.04225C21.6253 7.15797 21.7917 7.3329 21.8877 7.57047C21.9805 7.80002 21.9885 8.0407 21.9379 8.26491L20.1436 18.2334C19.9826 19.308 19.0584 20.0625 18.0033 20.0625H6.0033C4.94816 20.0625 4.02396 19.308 3.86301 18.2334L2.03125 8.05695L2.09179 7.87533C2.20431 7.53776 2.45692 7.24836 2.7504 7.07717C3.05078 6.90194 3.54538 6.77781 4.01116 7.08307L8.34943 9.84378L11.0549 4.53297L11.0793 4.49647Z" fill="black"/>
</svg>
