<svg width="24" height="24" viewBox="0 0 24 24" fill="none" xmlns="http://www.w3.org/2000/svg">
<path fill-rule="evenodd" clip-rule="evenodd" d="M14.1205 13.8501C13.8402 13.8501 13.6256 13.9556 13.4508 14.1304C13.1437 14.4375 13.1437 15.0627 13.4508 15.3698L13.6436 15.5626L15.4685 17.2914L17.3507 15.4092C17.5944 15.0749 17.6705 14.8494 17.6705 14.7001C17.6705 14.4157 17.5999 14.2402 17.4901 14.1304C17.183 13.8233 16.5579 13.8233 16.2508 14.1304L15.5205 14.8608L14.8295 14.1698C14.4953 13.9262 14.2697 13.8501 14.1205 13.8501ZM15.5014 12.8118C15.1077 12.5572 14.641 12.3501 14.1205 12.3501C13.4007 12.3501 12.8153 12.6446 12.3901 13.0698C11.4972 13.9627 11.4972 15.5375 12.3901 16.4304L12.5973 16.6376L14.456 18.3985C14.6975 18.7064 15.0539 18.8751 15.433 18.8751C15.8282 18.8751 16.186 18.6952 16.4508 18.4304L18.4885 16.3927L18.5205 16.3501C18.8528 15.907 19.1705 15.3448 19.1705 14.7001C19.1705 14.1845 19.041 13.56 18.5508 13.0698C17.7543 12.2733 16.4151 12.1873 15.5014 12.8118ZM15.3697 17.3869C15.3697 17.3869 15.3702 17.3865 15.3713 17.386L15.3697 17.3869Z" fill="black"/>
<path fill-rule="evenodd" clip-rule="evenodd" d="M5.16529 4.1341C5.51139 3.47484 6.27398 3.05005 7.02046 3.05005H17.0205C17.8525 3.05005 18.4485 3.55405 18.8205 4.05005L18.8429 4.07997L21.4636 8.41417C21.911 9.15994 21.9182 10.1034 21.3061 10.8686C21.0474 11.192 20.5754 11.2445 20.2519 10.9857C19.9285 10.7269 19.8761 10.255 20.1348 9.93153C20.3225 9.69692 20.3299 9.44069 20.1778 9.18671C20.1777 9.18645 20.178 9.18697 20.1778 9.18671L17.5996 4.92267C17.38 4.64025 17.1833 4.55005 17.0205 4.55005H7.02046C6.7784 4.55005 6.55295 4.71211 6.49128 4.83546L6.47783 4.86237L3.83682 9.23018L3.80611 9.26857C3.72608 9.36861 3.71007 9.45173 3.71738 9.53215C3.72609 9.62792 3.77502 9.76766 3.90611 9.93153L3.91319 9.94038L11.5131 19.7404C11.767 20.0678 11.7074 20.5389 11.3801 20.7927C11.0528 21.0466 10.5816 20.987 10.3278 20.6597L2.73099 10.8638C2.464 10.5286 2.26464 10.12 2.22354 9.66795C2.18237 9.21512 2.3055 8.7648 2.60128 8.37458L5.16529 4.1341Z" fill="black"/>
</svg>
