<svg width="24" height="24" viewBox="0 0 24 24" fill="none" xmlns="http://www.w3.org/2000/svg">
<path fill-rule="evenodd" clip-rule="evenodd" d="M9 3.75C6.11421 3.75 3.75 6.11421 3.75 9V15C3.75 17.8858 6.11421 20.25 9 20.25H15C17.8858 20.25 20.25 17.8858 20.25 15V9C20.25 6.11421 17.8858 3.75 15 3.75H9ZM2.25 9C2.25 5.28579 5.28579 2.25 9 2.25H15C18.7142 2.25 21.75 5.28579 21.75 9V15C21.75 18.7142 18.7142 21.75 15 21.75H9C5.28579 21.75 2.25 18.7142 2.25 15V9Z" fill="black"/>
<path d="M12 12.9999C11.9 12.9999 11.7 12.9999 11.6 12.8999C11.5 12.7999 11.4 12.7999 11.3 12.6999C11.2 12.5999 11.1 12.4999 11.1 12.3999C11.1 12.2999 11 12.0999 11 11.9999C11 11.6999 11.1 11.3999 11.2 11.1999C11.3 11.0999 11.4 10.9999 11.5 10.9999C11.7 10.8999 11.9 10.8999 12.1 10.8999C12.2 10.8999 12.2 10.8999 12.3 10.9999C12.4 10.9999 12.4 11.0999 12.5 11.0999L12.6 11.1999L12.7 11.2999C12.7 11.3999 12.8 11.3999 12.8 11.4999C12.8 11.5999 12.8 11.5999 12.9 11.6999C12.9 11.7999 12.9 11.7999 12.9 11.8999C12.9 11.9999 12.9 12.1999 12.8 12.2999C12.7 12.3999 12.7 12.4999 12.6 12.5999C12.5 12.5999 12.5 12.6999 12.5 12.6999C12.4 12.6999 12.4 12.7999 12.3 12.7999C12.2 12.7999 12.2 12.7999 12.1 12.8999L12 12.9999Z" fill="black"/>
</svg>
