<svg width="24" height="24" viewBox="0 0 24 24" fill="none" xmlns="http://www.w3.org/2000/svg">
<path fill-rule="evenodd" clip-rule="evenodd" d="M9 3.75C6.11421 3.75 3.75 6.11421 3.75 9V15C3.75 17.8858 6.11421 20.25 9 20.25H15C17.8858 20.25 20.25 17.8858 20.25 15V9C20.25 6.11421 17.8858 3.75 15 3.75H9ZM2.25 9C2.25 5.28579 5.28579 2.25 9 2.25H15C18.7142 2.25 21.75 5.28579 21.75 9V15C21.75 18.7142 18.7142 21.75 15 21.75H9C5.28579 21.75 2.25 18.7142 2.25 15V9Z" fill="black"/>
<path d="M9.29998 16C9.09998 16.2 8.79998 16.3 8.59998 16.3C8.49998 16.3 8.29998 16.3 8.19998 16.2C8.09998 16.2 7.99998 16.1 7.89998 16C7.79998 15.9 7.69998 15.8 7.69998 15.7C7.69998 15.6 7.59998 15.4 7.59998 15.3C7.59998 14.8 8.09998 14.3 8.59998 14.3C8.69998 14.3 8.89998 14.3 8.99998 14.4C9.09998 14.5 9.19998 14.5 9.29998 14.6C9.49998 14.8 9.59998 15 9.59998 15.3C9.59998 15.6 9.49998 15.8 9.29998 16Z" fill="black"/>
<path d="M12.6 12.6999C12.4 12.8999 12.2 12.9999 11.9 12.9999C11.6 12.9999 11.4 12.8999 11.2 12.6999C11 12.4999 10.9 12.1999 10.9 11.8999C10.9 11.3999 11.4 10.8999 11.9 10.8999C12.2 10.8999 12.4 10.9999 12.6 11.1999C12.8 11.3999 12.9 11.5999 12.9 11.8999C12.9 12.1999 12.8 12.4999 12.6 12.6999Z" fill="black"/>
<path d="M16 9.3001C15.8 9.5001 15.6 9.6001 15.3 9.6001C15 9.6001 14.8 9.5001 14.6 9.3001C14.4 9.1001 14.3 8.8001 14.3 8.6001C14.3 8.1001 14.8 7.6001 15.3 7.6001C15.6 7.6001 15.8 7.7001 16 7.9001C16.2 8.1001 16.3 8.3001 16.3 8.6001C16.3 8.9001 16.2 9.1001 16 9.3001Z" fill="black"/>
</svg>
