<svg width="24" height="24" viewBox="0 0 24 24" fill="none" xmlns="http://www.w3.org/2000/svg">
<path d="M6.89985 17.1502C6.69985 16.9502 6.59985 16.6502 6.59985 16.4502C6.59985 16.1502 6.69985 15.9502 6.89985 15.7502C7.09985 15.5502 7.39985 15.4502 7.59985 15.4502C8.09985 15.4502 8.59985 15.9502 8.59985 16.4502C8.59985 16.7502 8.49985 16.9502 8.29985 17.1502C8.09985 17.3502 7.79985 17.4502 7.59985 17.4502C7.39985 17.3502 7.09985 17.2502 6.89985 17.1502Z" fill="black"/>
<path d="M15.6 8.35015C15.4 8.15015 15.3 7.85015 15.3 7.65015C15.3 7.35015 15.4 7.15015 15.6 6.95015C15.8 6.75015 16.1 6.65015 16.3 6.65015C16.8 6.65015 17.3 7.15015 17.3 7.65015C17.3 7.95015 17.2 8.15015 17 8.35015C16.8 8.55015 16.5 8.65015 16.3 8.65015C16.1 8.65015 15.8 8.55015 15.6 8.35015Z" fill="black"/>
<path fill-rule="evenodd" clip-rule="evenodd" d="M5.34995 11.175C5.33547 11.175 5.33043 11.1802 5.33028 11.1804L4.13028 12.3804C3.22317 13.2875 3.22317 14.8126 4.13028 15.7197L8.33028 19.9197C9.23739 20.8268 10.7625 20.8268 11.6696 19.9197L12.8694 18.7199C12.8634 18.7027 12.851 18.6748 12.8256 18.6363L6.26962 12.0804L5.36962 11.1804C5.36947 11.1802 5.36443 11.175 5.34995 11.175ZM6.43028 10.1197L13.968 17.6574L14 17.7001C14.2189 17.992 14.375 18.3461 14.375 18.7375C14.375 19.1438 14.2063 19.5044 13.9303 19.7804L12.7303 20.9804C11.2374 22.4733 8.76251 22.4733 7.26962 20.9804L3.06962 16.7804C1.57673 15.2875 1.57673 12.8126 3.06962 11.3197L4.26962 10.1197C4.86251 9.52683 5.83739 9.52683 6.43028 10.1197Z" fill="black"/>
<path fill-rule="evenodd" clip-rule="evenodd" d="M15.6697 4.08048C14.7626 3.17337 13.2374 3.17337 12.3303 4.08048L11.1303 5.28048C11.1301 5.2807 11.125 5.28578 11.125 5.30015C11.125 5.31463 11.1302 5.31966 11.1303 5.31982L11.1343 5.3238L17.7323 12.0218L18.6303 12.9198C18.6305 12.92 18.6355 12.9251 18.65 12.9251C18.6645 12.9251 18.6695 12.92 18.6697 12.9198L19.8697 11.7198C20.7626 10.8269 20.7946 9.29401 19.8584 8.26923L15.6697 4.08048ZM11.2697 3.01982C12.7626 1.52692 15.2374 1.52692 16.7303 3.01982L20.9409 7.23042L20.9511 7.24144C22.4051 8.81665 22.4344 11.2764 20.9303 12.7805L19.7303 13.9805C19.1374 14.5734 18.1626 14.5734 17.5697 13.9805L16.6657 13.0765L10.0673 6.37815C9.47678 5.78503 9.47755 4.81193 10.0697 4.21982L11.2697 3.01982Z" fill="black"/>
<path d="M11.5134 6.73713L6.70508 11.5454L12.4326 17.2729L17.2409 12.4646L11.5134 6.73713Z" fill="black"/>
<path fill-rule="evenodd" clip-rule="evenodd" d="M5.64429 11.5454L11.5132 5.67648L18.3014 12.4646L12.4324 18.3336L5.64429 11.5454ZM7.76559 11.5454L12.4324 16.2123L16.1801 12.4646L11.5132 7.79778L7.76559 11.5454Z" fill="black"/>
</svg>
