<svg width="24" height="24" viewBox="0 0 24 24" fill="none" xmlns="http://www.w3.org/2000/svg">
<path d="M16.1985 17.2H7.89849C4.99849 17.2 2.69849 14.9 2.69849 12C2.69849 9.10005 4.99849 6.80005 7.89849 6.80005H16.0985C18.9985 6.80005 21.2985 9.10005 21.2985 12C21.3985 14.9 19.0985 17.2 16.1985 17.2Z" fill="black"/>
<path fill-rule="evenodd" clip-rule="evenodd" d="M7.89849 7.55005C5.4127 7.55005 3.44849 9.51426 3.44849 12C3.44849 14.4858 5.4127 16.45 7.89849 16.45H16.1985C18.6894 16.45 20.6338 14.4867 20.5489 12.0259L20.5485 12.013V12C20.5485 9.51426 18.5843 7.55005 16.0985 7.55005H7.89849ZM1.94849 12C1.94849 8.68584 4.58427 6.05005 7.89849 6.05005H16.0985C19.4084 6.05005 22.0416 8.679 22.0485 11.9872C22.1563 15.3202 19.5033 17.95 16.1985 17.95H7.89849C4.58427 17.95 1.94849 15.3143 1.94849 12Z" fill="black"/>
<path fill-rule="evenodd" clip-rule="evenodd" d="M7.49854 9.44995C7.91275 9.44995 8.24854 9.78574 8.24854 10.2V13.9C8.24854 14.3142 7.91275 14.65 7.49854 14.65C7.08432 14.65 6.74854 14.3142 6.74854 13.9V10.2C6.74854 9.78574 7.08432 9.44995 7.49854 9.44995Z" fill="white"/>
<path fill-rule="evenodd" clip-rule="evenodd" d="M4.94849 12C4.94849 11.5858 5.28427 11.25 5.69849 11.25H9.29849C9.7127 11.25 10.0485 11.5858 10.0485 12C10.0485 12.4142 9.7127 12.75 9.29849 12.75H5.69849C5.28427 12.75 4.94849 12.4142 4.94849 12Z" fill="white"/>
<path fill-rule="evenodd" clip-rule="evenodd" d="M15.8984 9.44995C16.3127 9.44995 16.6484 9.78574 16.6484 10.2V13.9C16.6484 14.3142 16.3127 14.65 15.8984 14.65C15.4842 14.65 15.1484 14.3142 15.1484 13.9V10.2C15.1484 9.78574 15.4842 9.44995 15.8984 9.44995Z" fill="white"/>
<path fill-rule="evenodd" clip-rule="evenodd" d="M13.3484 12C13.3484 11.5858 13.6842 11.25 14.0984 11.25H17.6984C18.1126 11.25 18.4484 11.5858 18.4484 12C18.4484 12.4142 18.1126 12.75 17.6984 12.75H14.0984C13.6842 12.75 13.3484 12.4142 13.3484 12Z" fill="white"/>
</svg>
