<svg width="24" height="24" viewBox="0 0 24 24" fill="none" xmlns="http://www.w3.org/2000/svg">
<path fill-rule="evenodd" clip-rule="evenodd" d="M3.94995 19.45C3.94995 19.0357 4.28574 18.7 4.69995 18.7H19.3C19.7142 18.7 20.0499 19.0357 20.0499 19.45C20.0499 19.8642 19.7142 20.2 19.3 20.2H4.69995C4.28574 20.2 3.94995 19.8642 3.94995 19.45Z" fill="black"/>
<path fill-rule="evenodd" clip-rule="evenodd" d="M15.7 5.30005C14.3469 5.30005 13.25 6.39695 13.25 7.75005C13.25 9.10315 14.3469 10.2 15.7 10.2C17.0531 10.2 18.15 9.10315 18.15 7.75005C18.15 6.39695 17.0531 5.30005 15.7 5.30005ZM11.75 7.75005C11.75 5.56852 13.5185 3.80005 15.7 3.80005C17.8815 3.80005 19.65 5.56852 19.65 7.75005C19.65 9.93157 17.8815 11.7 15.7 11.7C13.5185 11.7 11.75 9.93157 11.75 7.75005Z" fill="black"/>
<path fill-rule="evenodd" clip-rule="evenodd" d="M15.0297 10.036C15.424 10.1629 15.6408 10.5854 15.5139 10.9797L12.7139 19.6797C12.587 20.074 12.1645 20.2908 11.7702 20.1639C11.3759 20.037 11.1591 19.6145 11.286 19.2202L14.086 10.5202C14.2129 10.1259 14.6354 9.90912 15.0297 10.036Z" fill="black"/>
</svg>
