<svg width="24" height="24" viewBox="0 0 24 24" fill="none" xmlns="http://www.w3.org/2000/svg">
<path fill-rule="evenodd" clip-rule="evenodd" d="M3.90912 12.6303C4.20202 12.3374 4.67689 12.3374 4.96978 12.6303L11.3698 19.0303C11.6627 19.3232 11.6627 19.7981 11.3698 20.091C11.0769 20.3839 10.602 20.3839 10.3091 20.091L3.90912 13.691C3.61623 13.3981 3.61623 12.9232 3.90912 12.6303Z" fill="black"/>
<path fill-rule="evenodd" clip-rule="evenodd" d="M8.16978 15.8303C8.46268 16.1232 8.46268 16.598 8.16978 16.8909L4.96978 20.0909C4.67689 20.3838 4.20202 20.3838 3.90912 20.0909C3.61623 19.798 3.61623 19.3232 3.90912 19.0303L7.10912 15.8303C7.40202 15.5374 7.87689 15.5374 8.16978 15.8303Z" fill="black"/>
<path fill-rule="evenodd" clip-rule="evenodd" d="M20.2818 5.0884L19.9654 9.09535L9.64604 19.4147L4.4751 14.3699L14.8109 3.92646L18.9244 3.71551C19.7289 3.54055 20.4664 4.28329 20.2818 5.0884ZM18.7663 5.22559L15.4682 5.39472L6.60398 14.3513L9.63303 17.3064L18.5136 8.42584L18.7663 5.22559Z" fill="black"/>
<path fill-rule="evenodd" clip-rule="evenodd" d="M13.9699 10.0302C14.2628 10.3231 14.2628 10.798 13.9699 11.0909L12.0699 12.9909C11.777 13.2838 11.3021 13.2838 11.0092 12.9909C10.7163 12.698 10.7163 12.2231 11.0092 11.9302L12.9092 10.0302C13.2021 9.73732 13.677 9.73732 13.9699 10.0302Z" fill="black"/>
</svg>
