<svg xmlns="http://www.w3.org/2000/svg" fill="none" viewBox="0 0 24 24">
  <path fill="#000" d="M12 3.75A8.213 8.213 0 0 0 3.75 12c0 4.491 3.67 8.25 8.25 8.25A8.213 8.213 0 0 0 20.25 12 8.213 8.213 0 0 0 12 3.75M2.25 12A9.713 9.713 0 0 1 12 2.25 9.713 9.713 0 0 1 21.75 12 9.713 9.713 0 0 1 12 21.75c-5.42 0-9.75-4.441-9.75-9.75"/>
  <path fill="#000" d="M11 7.2c0-.3.1-.5.3-.7.1-.1.2-.2.3-.2.1-.1.2-.1.4-.1.1 0 .3 0 .4.1s.2.1.3.2c.4.4.4 1 0 1.4-.1.1-.2.2-.3.2-.2.1-.3.1-.4.1-.3 0-.6-.1-.7-.3-.2-.2-.3-.4-.3-.7m0 4.7c0-.3.1-.5.3-.7s.4-.3.7-.3.5.1.7.3c.4.4.4 1 0 1.4-.2.2-.4.3-.7.3s-.5-.1-.7-.3c-.2-.1-.3-.4-.3-.7m4.1-2.2c0-.3.1-.5.3-.7s.4-.3.7-.3.5.1.7.3c.4.4.4 1 0 1.4-.2.2-.4.3-.7.3s-.5-.1-.7-.3-.3-.5-.3-.7"/>
</svg>
