<svg xmlns="http://www.w3.org/2000/svg" fill="none" viewBox="0 0 24 24">
  <path fill="#000" d="M9 3.75C6.114 3.75 3.75 6.114 3.75 9v6c0 2.886 2.364 5.25 5.25 5.25h6c2.886 0 5.25-2.364 5.25-5.25V9c0-2.886-2.364-5.25-5.25-5.25zM2.25 9c0-3.714 3.036-6.75 6.75-6.75h6c3.714 0 6.75 3.036 6.75 6.75v6c0 3.714-3.036 6.75-6.75 6.75H9c-3.714 0-6.75-3.036-6.75-6.75z"/>
  <path fill="#000" d="M9.9 16.7c0 .3-.1.5-.3.7-.1.1-.2.2-.3.2s-.3.1-.4.1-.3 0-.4-.1-.2-.1-.3-.2c-.4-.4-.4-1 0-1.4.1-.1.2-.2.3-.2.1-.1.3-.1.4-.1.3 0 .5.1.7.3s.3.4.3.7m0-4.7c0 .3-.1.5-.3.7s-.4.3-.7.3-.5-.1-.7-.3c-.4-.4-.4-1 0-1.4.2-.2.4-.3.7-.3s.6.1.7.2c.2.2.3.5.3.8m0-4.8c0 .3-.1.5-.3.7-.1.2-.4.3-.7.3-.2 0-.5-.1-.7-.3-.4-.4-.4-1 0-1.4.2-.2.5-.3.7-.3.3 0 .6.1.7.3.2.2.3.4.3.7m6 9.5c0 .3-.1.5-.3.7-.1.1-.2.2-.3.2s-.3.1-.4.1-.3 0-.4-.1-.2-.1-.3-.2c-.4-.4-.4-1 0-1.4.1-.1.2-.2.3-.2.1-.1.3-.1.4-.1.3 0 .5.1.7.3s.3.4.3.7m0-4.7c0 .3-.1.5-.3.7s-.4.3-.7.3-.5-.1-.7-.3c-.4-.4-.4-1 0-1.4.2-.2.4-.3.7-.3s.5.1.7.3c.2.1.3.4.3.7m0-4.8c0 .3-.1.5-.3.7-.1.2-.4.3-.7.3s-.5-.1-.7-.3c-.4-.4-.4-1 0-1.4.2-.2.5-.3.7-.3.3 0 .5.1.7.3s.3.4.3.7"/>
</svg>
