<svg xmlns="http://www.w3.org/2000/svg" fill="none" viewBox="0 0 24 24">
  <path fill="#000" d="M16.2 16.65a.9.9 0 0 0-.67.28c-.307.307-.307.933 0 1.24l.2.2 1.72 1.72 1.88-1.881c.244-.334.32-.56.32-.71 0-.25-.056-.467-.135-.618-.322-.257-.895-.24-1.185.05l-.73.73-.69-.691c-.335-.244-.56-.32-.71-.32m1.381-1.038c-.394-.255-.86-.462-1.381-.462-.72 0-1.305.294-1.73.72-.893.893-.893 2.467 0 3.36l.2.2 1.758 1.759c.242.314.601.486.985.486.395 0 .753-.18 1.017-.445l2.038-2.038.032-.042c.332-.443.65-1.005.65-1.65 0-.511-.125-1.065-.426-1.516l-.041-.062-.053-.052c-.796-.797-2.135-.883-3.049-.258m-.232 4.575.002-.001z"/>
  <path fill="#000" d="M9 3.75C6.114 3.75 3.75 6.114 3.75 9v6c0 2.886 2.364 5.25 5.25 5.25h3a.75.75 0 0 1 0 1.5H9c-3.714 0-6.75-3.036-6.75-6.75V9c0-3.714 3.036-6.75 6.75-6.75h6c3.714 0 6.75 3.036 6.75 6.75v4.7a.75.75 0 0 1-1.5 0V9c0-2.886-2.364-5.25-5.25-5.25z"/>
  <path fill="#000" d="M9.4 16c-.2.2-.5.3-.7.3-.1 0-.3 0-.4-.1-.1 0-.2-.1-.3-.2s-.2-.2-.2-.3-.1-.3-.1-.4c0-.5.5-1 1-1 .1 0 .3 0 .4.1s.2.1.3.2c.2.2.3.4.3.7s-.1.5-.3.7m3.3-3.3c-.2.2-.4.3-.7.3s-.5-.1-.7-.3-.3-.5-.3-.7c0-.5.5-1 1-1 .3 0 .5.1.7.3s.3.4.3.7c0 .2-.1.5-.3.7m3.4-3.4c-.2.2-.4.3-.7.3s-.5-.1-.7-.3-.3-.5-.3-.7c0-.5.5-1 1-1 .3 0 .5.1.7.3s.3.4.3.7-.1.5-.3.7"/>
</svg>
