<svg xmlns="http://www.w3.org/2000/svg" fill="none" viewBox="0 0 24 24">
  <path fill="#000" d="M6.7 3.3c-.486 0-.95.464-.95.95v15.5c0 .486.464.95.95.95h10.6c.486 0 .95-.464.95-.95V4.25c0-.486-.464-.95-.95-.95zm-2.45.95c0-1.314 1.136-2.45 2.45-2.45h10.6c1.314 0 2.45 1.136 2.45 2.45v15.5c0 1.314-1.136 2.45-2.45 2.45H6.7c-1.314 0-2.45-1.136-2.45-2.45z"/>
  <path fill="#000" d="M4.35 12.05a.75.75 0 0 1 .75-.75H19a.75.75 0 0 1 0 1.5H5.1a.75.75 0 0 1-.75-.75m2.6 4.5a.75.75 0 0 1 .75-.75h4a.75.75 0 0 1 0 1.5h-4a.75.75 0 0 1-.75-.75"/>
  <path fill="#000" d="M9.7 13.8a.75.75 0 0 1 .75.75v4a.75.75 0 1 1-1.5 0v-4a.75.75 0 0 1 .75-.75m5.8 1.95c-.2 0-.4-.1-.5-.2s-.2-.3-.2-.5.1-.4.2-.5c.2-.2.6-.3.8-.2.1 0 .2.1.2.2.1.1.2.3.2.5s-.1.4-.2.5-.2.1-.2.2zm0 3.1c-.2 0-.4-.1-.5-.2s-.2-.3-.2-.5c0-.1 0-.2.1-.3 0-.1.1-.2.2-.2.3-.3.8-.3 1.1 0 .1.1.2.3.2.5s-.1.4-.2.5c-.3.1-.5.2-.7.2"/>
</svg>
