<svg xmlns="http://www.w3.org/2000/svg" fill="none" viewBox="0 0 24 24">
  <path fill="#000" d="M7.15 6.977h9.693l.09.022c1.41.353 2.606 1.301 3.204 2.726l1.697 3.694c1.067 2.371.008 5.327-2.488 6.397-2.401 1.03-5.287.057-6.416-2.34h-1.814c-1.095 2.47-4.027 3.483-6.461 2.44l-.014-.006-.013-.006c-2.461-1.172-3.527-4-2.467-6.473l.004-.008 1.698-3.698c.607-1.442 1.911-2.373 3.19-2.722zm.206 1.5c-.885.268-1.73.92-2.113 1.838l-.006.013-1.701 3.703c-.732 1.72-.003 3.682 1.723 4.512 1.745.74 3.779-.025 4.502-1.712l.009-.02.417-.834h3.565l.46.691.028.063c.724 1.692 2.767 2.455 4.515 1.706 1.702-.73 2.443-2.772 1.712-4.4v-.002l-1.704-3.707-.005-.013c-.392-.94-1.16-1.577-2.105-1.838z"/>
  <path fill="#000" d="M14.65 12.427c.3 0 .5.1.7.3s.3.4.3.7-.1.5-.3.7c-.4.4-1 .4-1.4 0-.2-.2-.3-.4-.3-.7s.1-.5.3-.7c.1-.2.4-.3.7-.3m-4.5 0c.3 0 .5.1.7.3s.3.4.3.7-.1.5-.3.7c-.4.4-1 .4-1.4 0-.2-.2-.3-.4-.3-.7s.1-.5.3-.7.4-.3.7-.3m2.547-4.869v.003-.013l-.003-.07c0-.066 0-.165.011-.285.022-.245.08-.556.216-.857.133-.294.338-.571.66-.78.321-.207.811-.38 1.57-.38a.75.75 0 0 0 0-1.5c-.993 0-1.778.229-2.384.62a3.3 3.3 0 0 0-1.212 1.421c-.227.5-.313.989-.344 1.344a4 4 0 0 0-.01.614l.002.013v.007s0 .002.747-.068l-.746.07a.75.75 0 0 0 1.493-.136m0 0v-.003z"/>
</svg>
