<svg xmlns="http://www.w3.org/2000/svg" fill="none" viewBox="0 0 24 24">
  <path fill="#000" d="M3.91 12.63a.75.75 0 0 1 1.06 0l6.4 6.4a.75.75 0 0 1-1.06 1.061l-6.4-6.4a.75.75 0 0 1 0-1.06"/>
  <path fill="#000" d="M8.17 15.83a.75.75 0 0 1 0 1.06l-3.2 3.2a.75.75 0 0 1-1.06-1.06l3.2-3.2a.75.75 0 0 1 1.06 0"/>
  <path fill="#000" d="m20.282 5.088-.317 4.007-10.319 10.32-5.17-5.045L14.81 3.926l4.113-.21c.805-.175 1.542.567 1.358 1.372m-1.516.138-3.298.169-8.864 8.956 3.029 2.955 8.88-8.88z"/>
  <path fill="#000" d="M13.97 10.03a.75.75 0 0 1 0 1.06l-1.9 1.9a.75.75 0 0 1-1.06-1.06l1.9-1.9a.75.75 0 0 1 1.06 0"/>
</svg>
