<svg xmlns="http://www.w3.org/2000/svg" fill="none" viewBox="0 0 24 24">
  <path fill="#000" d="M10.229 18.544a.75.75 0 0 1 .927-.515c.647.185 1.177.27 1.794.27.335 0 .602-.007.763-.06a.75.75 0 0 1 .474 1.422c-.418.14-.923.14-1.199.139h-.038c-.783 0-1.453-.114-2.206-.329a.75.75 0 0 1-.515-.927M21.05 11.05h-8v-8c4.4 0 8 3.5 8 8"/>
  <path fill="#000" d="M12.3 2.3h.75c4.808 0 8.75 3.83 8.75 8.75v.75h-9.5zm1.5 1.538V10.3h6.463A7.2 7.2 0 0 0 13.8 3.838"/>
  <path fill="#000" d="M20.95 10.3a.75.75 0 0 1 .75.75c0 2.954-1.528 5.687-3.834 7.224a.75.75 0 0 1-.832-1.248c1.894-1.262 3.166-3.53 3.166-5.976a.75.75 0 0 1 .75-.75m-15.9 0a.75.75 0 0 1 .75.75c0 2.26 1.087 4.355 2.73 5.724a.75.75 0 1 1-.96 1.152C5.613 16.296 4.3 13.79 4.3 11.05a.75.75 0 0 1 .75-.75"/>
  <path fill="#000" d="M2.3 8.05a.75.75 0 0 1 .75-.75c1.498 0 2.179 1.165 2.462 2.013.118.354.187.702.227.987h7.311a.75.75 0 1 1 0 1.5H4.3v-.767l-.003-.076a4.7 4.7 0 0 0-.208-1.17C3.87 9.135 3.552 8.8 3.05 8.8a.75.75 0 0 1-.75-.75m2.75 3H4.3zm6 8c0 1.1-.9 2-2 2s-2-.9-2-2c0-.7.4-1.4 1-1.7.3-.2.6-.3 1-.3 1 0 1.8.8 2 1.7-.1.1 0 .2 0 .3"/>
  <path fill="#000" d="M9.05 17.8a.94.94 0 0 0-.584.174L8.427 18l-.042.02c-.32.16-.585.584-.585 1.03 0 .686.564 1.25 1.25 1.25.66 0 1.207-.522 1.248-1.172a.9.9 0 0 1-.034-.4c-.195-.534-.69-.928-1.214-.928m-1.378-1.099A2.43 2.43 0 0 1 9.05 16.3c1.417 0 2.471 1.112 2.732 2.287l.09.402-.072.072A2.756 2.756 0 0 1 9.05 21.8a2.756 2.756 0 0 1-2.75-2.75c0-.938.517-1.899 1.372-2.349M18.05 19.05c0 1.1-.9 2-2 2s-2-.9-2-2v-.1c0-1.1.9-1.9 2-1.9.6 0 1.1.3 1.5.6.3.3.5.8.5 1.4"/>
  <path fill="#000" d="M16.05 17.8c-.737 0-1.25.514-1.25 1.15v.1c0 .686.564 1.25 1.25 1.25s1.25-.564 1.25-1.25c0-.413-.128-.694-.25-.837-.349-.255-.669-.413-1-.413m-2.75 1.15c0-1.564 1.287-2.65 2.75-2.65.853 0 1.518.426 1.95.75l.043.032.037.038c.47.47.72 1.176.72 1.93a2.756 2.756 0 0 1-2.75 2.75 2.756 2.756 0 0 1-2.75-2.75z"/>
</svg>
