<svg xmlns="http://www.w3.org/2000/svg" fill="none" viewBox="0 0 24 24">
  <path fill="#000" d="M2.3 7.05A4.76 4.76 0 0 1 7.05 2.3h10c2.608 0 4.732 2.023 4.85 4.717v6.064c0 .381 0 .86-.122 1.351l-.182.728-.728-.182c-.378-.095-.809-.178-1.218-.178a3.73 3.73 0 0 0-3.75 3.75c0 .67.167 1.256.42 1.765l.373.745-.78.292c-.91.341-1.805.448-2.763.448h-2.1c-.958 0-1.854-.107-2.763-.448l-.78-.292.372-.745c.254-.509.42-1.094.42-1.765a3.73 3.73 0 0 0-3.75-3.75c-.548 0-.853.015-1.064.12l-.836.419-.227-.907c-.122-.49-.122-.97-.122-1.35zM7.05 3.8A3.26 3.26 0 0 0 3.8 7.05v6l.001.272c.251-.023.488-.022.685-.022h.064a5.23 5.23 0 0 1 5.25 5.25c0 .584-.092 1.122-.246 1.613.463.098.95.137 1.496.137h2.1a7.2 7.2 0 0 0 1.496-.137 5.4 5.4 0 0 1-.246-1.613 5.23 5.23 0 0 1 5.998-5.194q.002-.143.002-.306V7.067C20.31 5.17 18.837 3.8 17.05 3.8zm5 5c-.686 0-1.25.564-1.25 1.25s.564 1.25 1.25 1.25c.256 0 .575-.136.845-.405.27-.27.405-.589.405-.845 0-.686-.564-1.25-1.25-1.25M9.3 10.05a2.756 2.756 0 0 1 2.75-2.75 2.756 2.756 0 0 1 2.75 2.75c0 .744-.365 1.425-.845 1.905s-1.161.845-1.905.845a2.756 2.756 0 0 1-2.75-2.75"/>
  <path fill="#000" d="M9.05 18.55c0 .8-.2 1.5-.5 2.1-2.9-1-5-3.4-5.5-6.4.4-.2.9-.2 1.4-.2 2.5 0 4.6 2 4.6 4.5"/>
  <path fill="#000" d="M3.937 14.81c.576 2.173 2.107 3.937 4.196 4.87.105-.347.167-.723.167-1.13 0-2.065-1.743-3.75-3.85-3.75q-.3-.001-.513.01m.449-1.51h.064c2.893 0 5.35 2.314 5.35 5.25 0 .93-.233 1.744-.58 2.435l-.293.588-.622-.214c-3.148-1.086-5.448-3.703-5.995-6.986l-.09-.546.495-.248c.561-.28 1.22-.28 1.67-.28m16.565.951c-.4 3-2.6 5.5-5.4 6.4-.3-.6-.5-1.3-.5-2.1 0-2.5 2-4.5 4.5-4.5.4 0 .9 0 1.4.2"/>
  <path fill="#000" d="M20.083 14.816a6 6 0 0 0-.533-.016 3.73 3.73 0 0 0-3.75 3.75c0 .412.063.791.17 1.14 2.018-.88 3.596-2.699 4.113-4.874M19.58 13.3c.392 0 1.014 0 1.65.254l.541.216-.077.58c-.44 3.298-2.85 6.03-5.914 7.014l-.612.197-.288-.576a5.4 5.4 0 0 1-.58-2.435 5.23 5.23 0 0 1 5.25-5.25zm-7.53-1.25a2 2 0 1 0 0-4 2 2 0 0 0 0 4"/>
  <path fill="#000" d="M12.05 8.8a1.25 1.25 0 1 0 0 2.5 1.25 1.25 0 0 0 0-2.5M9.3 10.05a2.75 2.75 0 1 1 5.5 0 2.75 2.75 0 0 1-5.5 0"/>
</svg>
