<svg xmlns="http://www.w3.org/2000/svg" fill="none" viewBox="0 0 24 24">
  <path fill="#000" d="M21.05 8.05v4c0 .4 0 .8-.1 1.2-.4-.2-.9-.2-1.4-.2-2.5 0-4.5 2-4.5 4.5 0 .8.2 1.5.5 2.1-.8.3-1.6.4-2.5.4h-2.1c-.9 0-1.7-.1-2.5-.4.3-.6.5-1.3.5-2.1 0-2.5-2-4.5-4.5-4.5-.5 0-1 .1-1.4.2v-5.2c0-2.2 1.8-4 4-4h10c2.2 0 4 1.7 4 4"/>
  <path fill="#000" d="M7.05 4.8A3.26 3.26 0 0 0 3.8 8.05v4.293a5.23 5.23 0 0 1 5.9 5.207c0 .584-.092 1.122-.246 1.613.463.098.95.137 1.496.137h2.1a7.2 7.2 0 0 0 1.496-.137 5.4 5.4 0 0 1-.246-1.613 5.23 5.23 0 0 1 5.25-5.25h.064c.197 0 .434 0 .684.022q.002-.128.002-.272v-4c0-1.873-1.452-3.25-3.25-3.25zM2.3 8.05A4.76 4.76 0 0 1 7.05 3.3h10c2.602 0 4.75 2.024 4.75 4.75v4.031c0 .381 0 .86-.123 1.351l-.226.907-.837-.418c-.21-.105-.515-.121-1.064-.121a3.73 3.73 0 0 0-3.75 3.75c0 .67.167 1.256.42 1.765l.373.745-.78.292c-.91.341-1.805.448-2.763.448h-2.1c-.958 0-1.854-.107-2.763-.448l-.78-.292.372-.745c.254-.509.42-1.094.42-1.765a3.73 3.73 0 0 0-3.75-3.75c-.408 0-.839.083-1.217.178l-.932.233z"/>
  <path fill="#000" d="M3.937 13.81c.576 2.173 2.107 3.937 4.196 4.87.105-.347.167-.723.167-1.13 0-2.065-1.743-3.75-3.85-3.75q-.3-.001-.513.01m.449-1.51h.064c2.893 0 5.35 2.314 5.35 5.25 0 .93-.233 1.744-.58 2.435l-.293.588-.622-.214c-3.148-1.086-5.448-3.703-5.995-6.986l-.09-.546.495-.248c.561-.28 1.22-.28 1.67-.28Zm15.697 1.516a6 6 0 0 0-.533-.016 3.73 3.73 0 0 0-3.75 3.75c0 .412.063.791.17 1.14 2.018-.88 3.596-2.699 4.113-4.874M19.58 12.3c.392 0 1.014 0 1.65.254l.541.216-.077.58c-.44 3.298-2.85 6.03-5.914 7.014l-.612.197-.288-.576a5.4 5.4 0 0 1-.58-2.435 5.23 5.23 0 0 1 5.25-5.25z"/>
</svg>
