<svg width="24" height="24" viewBox="0 0 24 24" fill="none" xmlns="http://www.w3.org/2000/svg">
<path fill-rule="evenodd" clip-rule="evenodd" d="M10.0696 11.4196C10.3625 11.1267 10.8374 11.1267 11.1303 11.4196L14.1303 14.4196C14.4232 14.7125 14.4232 15.1874 14.1303 15.4803C13.8374 15.7732 13.3625 15.7732 13.0696 15.4803L10.0696 12.4803C9.77675 12.1874 9.77675 11.7125 10.0696 11.4196Z" fill="black"/>
<path fill-rule="evenodd" clip-rule="evenodd" d="M8.53035 11.4196C8.82325 11.7125 8.82325 12.1874 8.53035 12.4803L6.43035 14.5803C6.13746 14.8732 5.66259 14.8732 5.36969 14.5803C5.0768 14.2874 5.0768 13.8125 5.36969 13.5196L7.46969 11.4196C7.76259 11.1267 8.23746 11.1267 8.53035 11.4196Z" fill="black"/>
<path fill-rule="evenodd" clip-rule="evenodd" d="M18.9591 8.59148C19.3228 8.78982 19.4568 9.2454 19.2584 9.60904L16.2584 15.109C16.0601 15.4727 15.6045 15.6067 15.2409 15.4083C14.8772 15.21 14.7432 14.7544 14.9416 14.3908L17.9416 8.89076C18.1399 8.52712 18.5955 8.39313 18.9591 8.59148Z" fill="black"/>
<path d="M4.60002 16.85C5.53891 16.85 6.30002 16.0888 6.30002 15.15C6.30002 14.2111 5.53891 13.45 4.60002 13.45C3.66114 13.45 2.90002 14.2111 2.90002 15.15C2.90002 16.0888 3.66114 16.85 4.60002 16.85Z" fill="black"/>
<path fill-rule="evenodd" clip-rule="evenodd" d="M4.60002 14.2C4.07535 14.2 3.65002 14.6253 3.65002 15.15C3.65002 15.6746 4.07535 16.1 4.60002 16.1C5.12469 16.1 5.55002 15.6746 5.55002 15.15C5.55002 14.6253 5.12469 14.2 4.60002 14.2ZM2.15002 15.15C2.15002 13.7969 3.24693 12.7 4.60002 12.7C5.95312 12.7 7.05002 13.7969 7.05002 15.15C7.05002 16.503 5.95312 17.6 4.60002 17.6C3.24693 17.6 2.15002 16.503 2.15002 15.15Z" fill="black"/>
<path d="M9.29998 12.5499C10.2389 12.5499 11 11.7888 11 10.8499C11 9.91102 10.2389 9.1499 9.29998 9.1499C8.36109 9.1499 7.59998 9.91102 7.59998 10.8499C7.59998 11.7888 8.36109 12.5499 9.29998 12.5499Z" fill="black"/>
<path fill-rule="evenodd" clip-rule="evenodd" d="M9.29998 9.8999C8.7753 9.8999 8.34998 10.3252 8.34998 10.8499C8.34998 11.3746 8.77531 11.7999 9.29998 11.7999C9.82465 11.7999 10.25 11.3746 10.25 10.8499C10.25 10.3252 9.82465 9.8999 9.29998 9.8999ZM6.84998 10.8499C6.84998 9.4968 7.94688 8.3999 9.29998 8.3999C10.6531 8.3999 11.75 9.4968 11.75 10.8499C11.75 12.203 10.6531 13.2999 9.29998 13.2999C7.94688 13.2999 6.84998 12.203 6.84998 10.8499Z" fill="black"/>
<path d="M14.8 17.9499C15.7389 17.9499 16.5 17.1888 16.5 16.2499C16.5 15.311 15.7389 14.5499 14.8 14.5499C13.8611 14.5499 13.1 15.311 13.1 16.2499C13.1 17.1888 13.8611 17.9499 14.8 17.9499Z" fill="black"/>
<path fill-rule="evenodd" clip-rule="evenodd" d="M14.8 15.2999C14.2753 15.2999 13.85 15.7253 13.85 16.2499C13.85 16.7746 14.2753 17.1999 14.8 17.1999C15.3246 17.1999 15.75 16.7746 15.75 16.2499C15.75 15.7253 15.3246 15.2999 14.8 15.2999ZM12.35 16.2499C12.35 14.8968 13.4469 13.7999 14.8 13.7999C16.1531 13.7999 17.25 14.8968 17.25 16.2499C17.25 17.603 16.1531 18.6999 14.8 18.6999C13.4469 18.6999 12.35 17.603 12.35 16.2499Z" fill="black"/>
<path d="M19.4001 9.44993C20.339 9.44993 21.1001 8.68881 21.1001 7.74993C21.1001 6.81104 20.339 6.04993 19.4001 6.04993C18.4612 6.04993 17.7001 6.81104 17.7001 7.74993C17.7001 8.68881 18.4612 9.44993 19.4001 9.44993Z" fill="black"/>
<path fill-rule="evenodd" clip-rule="evenodd" d="M19.4001 6.79993C18.8754 6.79993 18.4501 7.22526 18.4501 7.74993C18.4501 8.2746 18.8754 8.69993 19.4001 8.69993C19.9247 8.69993 20.3501 8.2746 20.3501 7.74993C20.3501 7.22526 19.9247 6.79993 19.4001 6.79993ZM16.9501 7.74993C16.9501 6.39683 18.047 5.29993 19.4001 5.29993C20.7532 5.29993 21.8501 6.39683 21.8501 7.74993C21.8501 9.10302 20.7532 10.1999 19.4001 10.1999C18.047 10.1999 16.9501 9.10302 16.9501 7.74993Z" fill="black"/>
</svg>
