<svg width="24" height="24" viewBox="0 0 24 24" fill="none" xmlns="http://www.w3.org/2000/svg">
<path fill-rule="evenodd" clip-rule="evenodd" d="M14.1304 8.41962C14.4233 8.71251 14.4233 9.18739 14.1304 9.48028L11.1304 12.4803C10.8375 12.7732 10.3626 12.7732 10.0697 12.4803C9.77681 12.1874 9.77681 11.7125 10.0697 11.4196L13.0697 8.41962C13.3626 8.12673 13.8375 8.12673 14.1304 8.41962Z" fill="black"/>
<path fill-rule="evenodd" clip-rule="evenodd" d="M5.36969 9.31965C5.66259 9.02675 6.13746 9.02675 6.43035 9.31965L8.53035 11.4196C8.82325 11.7125 8.82325 12.1874 8.53035 12.4803C8.23746 12.7732 7.76259 12.7732 7.46969 12.4803L5.36969 10.3803C5.0768 10.0874 5.0768 9.61254 5.36969 9.31965Z" fill="black"/>
<path fill-rule="evenodd" clip-rule="evenodd" d="M15.2458 8.48882C15.611 8.29322 16.0655 8.43064 16.2611 8.79576L19.2611 14.3958C19.4567 14.7609 19.3193 15.2154 18.9542 15.411C18.589 15.6066 18.1345 15.4692 17.9389 15.1041L14.9389 9.50409C14.7433 9.13897 14.8807 8.68442 15.2458 8.48882Z" fill="black"/>
<path fill-rule="evenodd" clip-rule="evenodd" d="M4.60002 7.79993C4.07535 7.79993 3.65002 8.22526 3.65002 8.74993C3.65002 9.2746 4.07535 9.69993 4.60002 9.69993C5.1247 9.69993 5.55002 9.2746 5.55002 8.74993C5.55002 8.22526 5.12469 7.79993 4.60002 7.79993ZM2.15002 8.74993C2.15002 7.39683 3.24693 6.29993 4.60002 6.29993C5.95312 6.29993 7.05002 7.39683 7.05002 8.74993C7.05002 10.103 5.95312 11.1999 4.60002 11.1999C3.24693 11.1999 2.15002 10.103 2.15002 8.74993Z" fill="black"/>
<path fill-rule="evenodd" clip-rule="evenodd" d="M9.30004 12.2C8.77537 12.2 8.35004 12.6253 8.35004 13.15C8.35004 13.6746 8.77537 14.1 9.30004 14.1C9.82471 14.1 10.25 13.6746 10.25 13.15C10.25 12.6253 9.82471 12.2 9.30004 12.2ZM6.85004 13.15C6.85004 11.7969 7.94694 10.7 9.30004 10.7C10.6531 10.7 11.75 11.7969 11.75 13.15C11.75 14.503 10.6531 15.6 9.30004 15.6C7.94694 15.6 6.85004 14.503 6.85004 13.15Z" fill="black"/>
<path fill-rule="evenodd" clip-rule="evenodd" d="M14.8 6.79993C14.2754 6.79993 13.85 7.22526 13.85 7.74993C13.85 8.2746 14.2754 8.69993 14.8 8.69993C15.3247 8.69993 15.75 8.2746 15.75 7.74993C15.75 7.22526 15.3247 6.79993 14.8 6.79993ZM12.35 7.74993C12.35 6.39683 13.4469 5.29993 14.8 5.29993C16.1531 5.29993 17.25 6.39683 17.25 7.74993C17.25 9.10302 16.1531 10.1999 14.8 10.1999C13.4469 10.1999 12.35 9.10302 12.35 7.74993Z" fill="black"/>
<path fill-rule="evenodd" clip-rule="evenodd" d="M19.4 15.2999C18.8753 15.2999 18.45 15.7253 18.45 16.2499C18.45 16.7746 18.8753 17.1999 19.4 17.1999C19.9247 17.1999 20.35 16.7746 20.35 16.2499C20.35 15.7253 19.9247 15.2999 19.4 15.2999ZM16.95 16.2499C16.95 14.8968 18.0469 13.7999 19.4 13.7999C20.7531 13.7999 21.85 14.8968 21.85 16.2499C21.85 17.603 20.7531 18.6999 19.4 18.6999C18.0469 18.6999 16.95 17.603 16.95 16.2499Z" fill="black"/>
</svg>
