<svg width="24" height="24" viewBox="0 0 24 24" fill="none" xmlns="http://www.w3.org/2000/svg">
<path d="M21 12H14C12.9 12 12 12.9 12 14V21C7 21 3 17 3 12C3 7 7 3 12 3C17 3 21 7 21 12Z" fill="black"/>
<path fill-rule="evenodd" clip-rule="evenodd" d="M12 3.75C7.41421 3.75 3.75 7.41421 3.75 12C3.75 16.3328 7.02112 19.843 11.25 20.217V14C11.25 12.4858 12.4858 11.25 14 11.25H20.217C19.843 7.02112 16.3328 3.75 12 3.75ZM2.25 12C2.25 6.58579 6.58579 2.25 12 2.25C17.4142 2.25 21.75 6.58579 21.75 12V12.75H14C13.3142 12.75 12.75 13.3142 12.75 14V21.75H12C6.58579 21.75 2.25 17.4142 2.25 12Z" fill="black"/>
<path fill-rule="evenodd" clip-rule="evenodd" d="M14 12.75C13.3142 12.75 12.75 13.3142 12.75 14V20.217C16.732 19.8648 19.8648 16.732 20.217 12.75H14ZM11.25 14C11.25 12.4858 12.4858 11.25 14 11.25H21.75V12C21.75 17.4142 17.4142 21.75 12 21.75H11.25V14Z" fill="black"/>
</svg>
