<svg width="24" height="24" viewBox="0 0 24 24" fill="none" xmlns="http://www.w3.org/2000/svg">
<path fill-rule="evenodd" clip-rule="evenodd" d="M12 5.04993C8.05114 5.04993 4.84998 8.25109 4.84998 12.1999C4.84998 16.1488 8.05114 19.3499 12 19.3499C15.9488 19.3499 19.15 16.1488 19.15 12.1999C19.15 8.25109 15.9488 5.04993 12 5.04993ZM3.34998 12.1999C3.34998 7.42266 7.22271 3.54993 12 3.54993C16.7772 3.54993 20.65 7.42266 20.65 12.1999C20.65 16.9772 16.7772 20.8499 12 20.8499C7.22271 20.8499 3.34998 16.9772 3.34998 12.1999Z" fill="black"/>
<path fill-rule="evenodd" clip-rule="evenodd" d="M6.23028 3.06958C6.52317 3.36248 6.52317 3.83735 6.23028 4.13024L4.73028 5.63024C4.43739 5.92314 3.96251 5.92314 3.66962 5.63024C3.37673 5.33735 3.37673 4.86248 3.66962 4.56958L5.16962 3.06958C5.46251 2.77669 5.93739 2.77669 6.23028 3.06958Z" fill="black"/>
<path fill-rule="evenodd" clip-rule="evenodd" d="M7.84711 18.3869C8.1304 18.6891 8.11509 19.1638 7.81291 19.4471L6.21291 20.9471C5.91073 21.2304 5.4361 21.215 5.1528 20.9129C4.8695 20.6107 4.88481 20.136 5.187 19.8528L6.787 18.3528C7.08918 18.0695 7.56381 18.0848 7.84711 18.3869Z" fill="black"/>
<path fill-rule="evenodd" clip-rule="evenodd" d="M17.7528 3.08696C18.0361 2.78478 18.5108 2.76947 18.8129 3.05276L20.4129 4.55276C20.7151 4.83606 20.7304 5.31069 20.4471 5.61287C20.1638 5.91506 19.6892 5.93037 19.387 5.64707L17.787 4.14707C17.4849 3.86377 17.4695 3.38915 17.7528 3.08696Z" fill="black"/>
<path fill-rule="evenodd" clip-rule="evenodd" d="M16.1528 18.3869C16.4361 18.0848 16.9107 18.0695 17.2129 18.3528L18.8129 19.8528C19.1151 20.136 19.1304 20.6107 18.8471 20.9129C18.5638 21.215 18.0892 21.2304 17.787 20.9471L16.187 19.4471C15.8848 19.1638 15.8695 18.6891 16.1528 18.3869Z" fill="black"/>
<path fill-rule="evenodd" clip-rule="evenodd" d="M14.3379 9.97732C14.6266 10.2744 14.6197 10.7493 14.3226 11.0379L10.8226 14.4379C10.5255 14.7265 10.0506 14.7196 9.76203 14.4225C9.47341 14.1254 9.48029 13.6506 9.7774 13.362L13.2774 9.96195C13.5745 9.67333 14.0493 9.68021 14.3379 9.97732Z" fill="black"/>
<path fill-rule="evenodd" clip-rule="evenodd" d="M9.76203 9.97732C10.0506 9.68021 10.5255 9.67333 10.8226 9.96195L14.3226 13.362C14.6197 13.6506 14.6266 14.1254 14.3379 14.4225C14.0493 14.7196 13.5745 14.7265 13.2774 14.4379L9.7774 11.0379C9.48029 10.7493 9.47341 10.2744 9.76203 9.97732Z" fill="black"/>
</svg>
