<svg width="24" height="24" viewBox="0 0 24 24" fill="none" xmlns="http://www.w3.org/2000/svg">
<path fill-rule="evenodd" clip-rule="evenodd" d="M12 5.04993C8.05114 5.04993 4.84998 8.25109 4.84998 12.1999C4.84998 16.1488 8.05114 19.3499 12 19.3499C15.9488 19.3499 19.15 16.1488 19.15 12.1999C19.15 8.25109 15.9488 5.04993 12 5.04993ZM3.34998 12.1999C3.34998 7.42266 7.22271 3.54993 12 3.54993C16.7772 3.54993 20.65 7.42266 20.65 12.1999C20.65 16.9772 16.7772 20.8499 12 20.8499C7.22271 20.8499 3.34998 16.9772 3.34998 12.1999Z" fill="black"/>
<path fill-rule="evenodd" clip-rule="evenodd" d="M6.23028 3.06958C6.52317 3.36248 6.52317 3.83735 6.23028 4.13024L4.73028 5.63024C4.43739 5.92314 3.96251 5.92314 3.66962 5.63024C3.37673 5.33735 3.37673 4.86248 3.66962 4.56958L5.16962 3.06958C5.46251 2.77669 5.93739 2.77669 6.23028 3.06958Z" fill="black"/>
<path fill-rule="evenodd" clip-rule="evenodd" d="M7.84711 18.3869C8.1304 18.6891 8.11509 19.1638 7.81291 19.4471L6.21291 20.9471C5.91073 21.2304 5.4361 21.215 5.1528 20.9129C4.8695 20.6107 4.88481 20.136 5.187 19.8528L6.787 18.3528C7.08918 18.0695 7.56381 18.0848 7.84711 18.3869Z" fill="black"/>
<path fill-rule="evenodd" clip-rule="evenodd" d="M17.7528 3.08696C18.0361 2.78478 18.5107 2.76947 18.8129 3.05276L20.4129 4.55276C20.7151 4.83606 20.7304 5.31069 20.4471 5.61287C20.1638 5.91506 19.6892 5.93037 19.387 5.64707L17.787 4.14707C17.4848 3.86377 17.4695 3.38915 17.7528 3.08696Z" fill="black"/>
<path fill-rule="evenodd" clip-rule="evenodd" d="M16.1528 18.3869C16.4361 18.0848 16.9107 18.0695 17.2129 18.3528L18.8129 19.8528C19.1151 20.136 19.1304 20.6107 18.8471 20.9129C18.5638 21.215 18.0892 21.2304 17.787 20.9471L16.187 19.4471C15.8848 19.1638 15.8695 18.6891 16.1528 18.3869Z" fill="black"/>
<path fill-rule="evenodd" clip-rule="evenodd" d="M10.6999 10.7499C10.4197 10.7499 10.205 10.8554 10.0303 11.0302C9.73736 11.3231 9.72381 11.9053 9.9896 12.225L10.2777 12.4171L12.0499 14.1892L13.7696 12.4696L13.9302 12.309C14.1739 11.9747 14.2499 11.7492 14.2499 11.5999C14.2499 11.3155 14.1793 11.14 14.0696 11.0302C13.7625 10.7231 13.1374 10.7231 12.8303 11.0302L12.0999 11.7606L11.409 11.0696C11.0747 10.826 10.8492 10.7499 10.6999 10.7499ZM12.0809 9.71165C11.6872 9.45698 11.2204 9.24991 10.6999 9.24991C9.98019 9.24991 9.3948 9.54437 8.9696 9.96958C8.0767 10.8625 8.0767 12.4373 8.9696 13.3302L9.02211 13.3828L9.32211 13.5828L11.0279 15.2886C11.2695 15.6026 11.6294 15.7749 12.0124 15.7749C12.4076 15.7749 12.7655 15.595 13.0303 15.3302L15.0679 13.2926L15.0999 13.2499C15.4322 12.8068 15.7499 12.2446 15.7499 11.5999C15.7499 11.0843 15.6205 10.4598 15.1303 9.96958C14.3337 9.17306 12.9945 9.08709 12.0809 9.71165ZM11.9492 14.2867C11.9492 14.2867 11.9497 14.2864 11.9508 14.2858L11.9492 14.2867Z" fill="black"/>
</svg>
