<svg width="24" height="24" viewBox="0 0 24 24" fill="none" xmlns="http://www.w3.org/2000/svg">
<path d="M12 20.0999C16.363 20.0999 19.9 16.563 19.9 12.1999C19.9 7.83688 16.363 4.29993 12 4.29993C7.63693 4.29993 4.09998 7.83688 4.09998 12.1999C4.09998 16.563 7.63693 20.0999 12 20.0999Z" fill="black"/>
<path fill-rule="evenodd" clip-rule="evenodd" d="M12 5.04993C8.05114 5.04993 4.84998 8.25109 4.84998 12.1999C4.84998 16.1488 8.05114 19.3499 12 19.3499C15.9488 19.3499 19.15 16.1488 19.15 12.1999C19.15 8.25109 15.9488 5.04993 12 5.04993ZM3.34998 12.1999C3.34998 7.42266 7.22271 3.54993 12 3.54993C16.7772 3.54993 20.65 7.42266 20.65 12.1999C20.65 16.9772 16.7772 20.8499 12 20.8499C7.22271 20.8499 3.34998 16.9772 3.34998 12.1999Z" fill="black"/>
<path fill-rule="evenodd" clip-rule="evenodd" d="M6.23028 3.06958C6.52317 3.36248 6.52317 3.83735 6.23028 4.13024L4.73028 5.63024C4.43739 5.92314 3.96251 5.92314 3.66962 5.63024C3.37673 5.33735 3.37673 4.86248 3.66962 4.56958L5.16962 3.06958C5.46251 2.77669 5.93739 2.77669 6.23028 3.06958Z" fill="black"/>
<path fill-rule="evenodd" clip-rule="evenodd" d="M7.84711 18.3869C8.1304 18.6891 8.11509 19.1638 7.81291 19.4471L6.21291 20.9471C5.91073 21.2304 5.4361 21.215 5.1528 20.9129C4.8695 20.6107 4.88481 20.136 5.187 19.8528L6.787 18.3528C7.08918 18.0695 7.56381 18.0848 7.84711 18.3869Z" fill="black"/>
<path fill-rule="evenodd" clip-rule="evenodd" d="M17.7528 3.08696C18.0361 2.78478 18.5107 2.76947 18.8129 3.05276L20.4129 4.55276C20.7151 4.83606 20.7304 5.31069 20.4471 5.61287C20.1638 5.91506 19.6892 5.93037 19.387 5.64707L17.787 4.14707C17.4848 3.86377 17.4695 3.38915 17.7528 3.08696Z" fill="black"/>
<path fill-rule="evenodd" clip-rule="evenodd" d="M16.1528 18.3869C16.4361 18.0848 16.9107 18.0695 17.2129 18.3528L18.8129 19.8528C19.1151 20.136 19.1304 20.6107 18.8471 20.9129C18.5638 21.215 18.0892 21.2304 17.787 20.9471L16.187 19.4471C15.8848 19.1638 15.8695 18.6891 16.1528 18.3869Z" fill="black"/>
<path fill-rule="evenodd" clip-rule="evenodd" d="M12 8.54993C12.4142 8.54993 12.75 8.88571 12.75 9.29993V14.5999C12.75 15.0141 12.4142 15.3499 12 15.3499C11.5858 15.3499 11.25 15.0141 11.25 14.5999V9.29993C11.25 8.88571 11.5858 8.54993 12 8.54993Z" fill="white"/>
<path fill-rule="evenodd" clip-rule="evenodd" d="M8.96967 12.2696C9.26256 11.9767 9.73744 11.9767 10.0303 12.2696L12 14.2393L13.9697 12.2696C14.2626 11.9767 14.7374 11.9767 15.0303 12.2696C15.3232 12.5625 15.3232 13.0374 15.0303 13.3303L12.8303 15.5303C12.6017 15.7589 12.2903 15.8999 11.9625 15.8999C11.6666 15.8999 11.3251 15.7755 11.1098 15.4704L8.96967 13.3303C8.67678 13.0374 8.67678 12.5625 8.96967 12.2696Z" fill="white"/>
</svg>
