<svg width="24" height="24" viewBox="0 0 24 24" fill="none" xmlns="http://www.w3.org/2000/svg">
<path fill-rule="evenodd" clip-rule="evenodd" d="M8 2.25C8.41421 2.25 8.75 2.58579 8.75 3V4.25H15.25V3C15.25 2.58579 15.5858 2.25 16 2.25C16.4142 2.25 16.75 2.58579 16.75 3V4.30946C19.0107 4.67133 20.75 6.64085 20.75 9V17C20.75 19.6142 18.6142 21.75 16 21.75H8C5.27354 21.75 3.25 19.6019 3.25 17V9C3.25 6.64085 4.98934 4.67133 7.25 4.30946V3C7.25 2.58579 7.58579 2.25 8 2.25ZM15.25 5.75V7C15.25 7.41421 15.5858 7.75 16 7.75C16.4142 7.75 16.75 7.41421 16.75 7V5.83814C18.1781 6.17954 19.25 7.47206 19.25 9V17C19.25 18.7858 17.7858 20.25 16 20.25H8C6.12646 20.25 4.75 18.7981 4.75 17V9C4.75 7.47206 5.8219 6.17954 7.25 5.83814V7C7.25 7.41421 7.58579 7.75 8 7.75C8.41421 7.75 8.75 7.41421 8.75 7V5.75H15.25Z" fill="black"/>
</svg>
