<svg width="24" height="24" viewBox="0 0 24 24" fill="none" xmlns="http://www.w3.org/2000/svg">
<path d="M20 9V10H4V9C4 6.8 5.8 5 8 5H16C18.2 5 20 6.7 20 9Z" fill="black"/>
<path fill-rule="evenodd" clip-rule="evenodd" d="M8 5.75C6.21421 5.75 4.75 7.21421 4.75 9V9.25H19.25V9C19.25 7.12646 17.7981 5.75 16 5.75H8ZM3.25 9C3.25 6.38579 5.38579 4.25 8 4.25H16C18.6019 4.25 20.75 6.27354 20.75 9V10.75H3.25V9Z" fill="black"/>
<path fill-rule="evenodd" clip-rule="evenodd" d="M3.25 9.25H20.75V17C20.75 19.6142 18.6142 21.75 16 21.75H8C5.38579 21.75 3.25 19.6142 3.25 17V9.25ZM4.75 10.75V17C4.75 18.7858 6.21421 20.25 8 20.25H16C17.7858 20.25 19.25 18.7858 19.25 17V10.75H4.75ZM9 13.75C8.61421 13.75 8.25 14.1142 8.25 14.5C8.25 14.8858 8.61421 15.25 9 15.25C9.38579 15.25 9.75 14.8858 9.75 14.5C9.75 14.1142 9.38579 13.75 9 13.75ZM6.75 14.5C6.75 13.2858 7.78579 12.25 9 12.25C10.2142 12.25 11.25 13.2858 11.25 14.5C11.25 15.7142 10.2142 16.75 9 16.75C7.78579 16.75 6.75 15.7142 6.75 14.5ZM15 13.75C14.6142 13.75 14.25 14.1142 14.25 14.5C14.25 14.8858 14.6142 15.25 15 15.25C15.3858 15.25 15.75 14.8858 15.75 14.5C15.75 14.1142 15.3858 13.75 15 13.75ZM12.75 14.5C12.75 13.2858 13.7858 12.25 15 12.25C16.2142 12.25 17.25 13.2858 17.25 14.5C17.25 15.7142 16.2142 16.75 15 16.75C13.7858 16.75 12.75 15.7142 12.75 14.5Z" fill="black"/>
<path fill-rule="evenodd" clip-rule="evenodd" d="M9 13.75C8.58579 13.75 8.25 14.0858 8.25 14.5C8.25 14.9142 8.58579 15.25 9 15.25C9.41421 15.25 9.75 14.9142 9.75 14.5C9.75 14.0858 9.41421 13.75 9 13.75ZM6.75 14.5C6.75 13.2574 7.75736 12.25 9 12.25C10.2426 12.25 11.25 13.2574 11.25 14.5C11.25 15.7426 10.2426 16.75 9 16.75C7.75736 16.75 6.75 15.7426 6.75 14.5Z" fill="black"/>
<path fill-rule="evenodd" clip-rule="evenodd" d="M15 13.75C14.5858 13.75 14.25 14.0858 14.25 14.5C14.25 14.9142 14.5858 15.25 15 15.25C15.4142 15.25 15.75 14.9142 15.75 14.5C15.75 14.0858 15.4142 13.75 15 13.75ZM12.75 14.5C12.75 13.2574 13.7574 12.25 15 12.25C16.2426 12.25 17.25 13.2574 17.25 14.5C17.25 15.7426 16.2426 16.75 15 16.75C13.7574 16.75 12.75 15.7426 12.75 14.5Z" fill="black"/>
<path fill-rule="evenodd" clip-rule="evenodd" d="M8 2.25C8.41421 2.25 8.75 2.58579 8.75 3V7C8.75 7.41421 8.41421 7.75 8 7.75C7.58579 7.75 7.25 7.41421 7.25 7V3C7.25 2.58579 7.58579 2.25 8 2.25Z" fill="black"/>
<path fill-rule="evenodd" clip-rule="evenodd" d="M16 2.25C16.4142 2.25 16.75 2.58579 16.75 3V7C16.75 7.41421 16.4142 7.75 16 7.75C15.5858 7.75 15.25 7.41421 15.25 7V3C15.25 2.58579 15.5858 2.25 16 2.25Z" fill="black"/>
<path d="M9 16C9.82843 16 10.5 15.3284 10.5 14.5C10.5 13.6716 9.82843 13 9 13C8.17157 13 7.5 13.6716 7.5 14.5C7.5 15.3284 8.17157 16 9 16Z" fill="black"/>
<path fill-rule="evenodd" clip-rule="evenodd" d="M9 13.75C8.58579 13.75 8.25 14.0858 8.25 14.5C8.25 14.9142 8.58579 15.25 9 15.25C9.41421 15.25 9.75 14.9142 9.75 14.5C9.75 14.0858 9.41421 13.75 9 13.75ZM6.75 14.5C6.75 13.2574 7.75736 12.25 9 12.25C10.2426 12.25 11.25 13.2574 11.25 14.5C11.25 15.7426 10.2426 16.75 9 16.75C7.75736 16.75 6.75 15.7426 6.75 14.5Z" fill="black"/>
<path d="M15 16C15.8284 16 16.5 15.3284 16.5 14.5C16.5 13.6716 15.8284 13 15 13C14.1716 13 13.5 13.6716 13.5 14.5C13.5 15.3284 14.1716 16 15 16Z" fill="black"/>
<path fill-rule="evenodd" clip-rule="evenodd" d="M15 13.75C14.5858 13.75 14.25 14.0858 14.25 14.5C14.25 14.9142 14.5858 15.25 15 15.25C15.4142 15.25 15.75 14.9142 15.75 14.5C15.75 14.0858 15.4142 13.75 15 13.75ZM12.75 14.5C12.75 13.2574 13.7574 12.25 15 12.25C16.2426 12.25 17.25 13.2574 17.25 14.5C17.25 15.7426 16.2426 16.75 15 16.75C13.7574 16.75 12.75 15.7426 12.75 14.5Z" fill="black"/>
</svg>
