<svg width="24" height="24" viewBox="0 0 24 24" fill="none" xmlns="http://www.w3.org/2000/svg">
<path fill-rule="evenodd" clip-rule="evenodd" d="M8.75 3C8.75 2.58579 8.41421 2.25 8 2.25C7.58579 2.25 7.25 2.58579 7.25 3V4.30946C4.98934 4.67133 3.25 6.64085 3.25 9V17C3.25 19.6019 5.27354 21.75 8 21.75H16C18.6142 21.75 20.75 19.6142 20.75 17V9C20.75 6.64085 19.0107 4.67133 16.75 4.30946V3C16.75 2.58579 16.4142 2.25 16 2.25C15.5858 2.25 15.25 2.58579 15.25 3V4.25H8.75V3ZM15.25 7V5.75H8.75V7C8.75 7.41421 8.41421 7.75 8 7.75C7.58579 7.75 7.25 7.41421 7.25 7V5.83814C5.8219 6.17954 4.75 7.47206 4.75 9V17C4.75 18.7981 6.12646 20.25 8 20.25H16C17.7858 20.25 19.25 18.7858 19.25 17V9C19.25 7.47206 18.1781 6.17954 16.75 5.83814V7C16.75 7.41421 16.4142 7.75 16 7.75C15.5858 7.75 15.25 7.41421 15.25 7ZM11.7486 11.3267L11.9999 10.909L12.2513 11.3267C12.5306 11.7907 12.9861 12.1217 13.5137 12.2439L13.9886 12.3538L13.669 12.722C13.314 13.1309 13.14 13.6664 13.1868 14.206L13.229 14.6916L12.7801 14.5015C12.2815 14.2902 11.7184 14.2902 11.2198 14.5015L10.7709 14.6916L10.8131 14.206C10.8599 13.6664 10.6859 13.1309 10.3309 12.722L10.0113 12.3538L10.4862 12.2439C11.0138 12.1217 11.4693 11.7907 11.7486 11.3267ZM11.5715 8.71185C11.7659 8.38894 12.234 8.38894 12.4284 8.71185L13.5365 10.5532C13.6063 10.6693 13.7202 10.752 13.8521 10.7825L15.9458 11.2674C16.313 11.3525 16.4576 11.7977 16.2106 12.0823L14.8018 13.7053C14.713 13.8075 14.6695 13.9414 14.6812 14.0763L14.867 16.2174C14.8996 16.5928 14.5209 16.868 14.1739 16.721L12.195 15.8826C12.0703 15.8298 11.9296 15.8298 11.8049 15.8826L9.82603 16.721C9.47901 16.868 9.10027 16.5928 9.13286 16.2174L9.31868 14.0763C9.33038 13.9414 9.28689 13.8075 9.19813 13.7053L7.7893 12.0823C7.54225 11.7977 7.68691 11.3525 8.05407 11.2674L10.1478 10.7825C10.2797 10.752 10.3936 10.6693 10.4634 10.5532L11.5715 8.71185Z" fill="black"/>
</svg>
