<svg width="24" height="24" viewBox="0 0 24 24" fill="none" xmlns="http://www.w3.org/2000/svg">
<path fill-rule="evenodd" clip-rule="evenodd" d="M8 2.25C8.41421 2.25 8.75 2.58579 8.75 3V4.25H15.25V3C15.25 2.58579 15.5858 2.25 16 2.25C16.4142 2.25 16.75 2.58579 16.75 3V4.30946C19.0107 4.67133 20.75 6.64085 20.75 9V17C20.75 19.6142 18.6142 21.75 16 21.75H8C5.27354 21.75 3.25 19.6019 3.25 17V9C3.25 6.64085 4.98934 4.67133 7.25 4.30946V3C7.25 2.58579 7.58579 2.25 8 2.25ZM15.25 5.75V7C15.25 7.41421 15.5858 7.75 16 7.75C16.4142 7.75 16.75 7.41421 16.75 7V5.83814C18.1781 6.17954 19.25 7.47206 19.25 9V17C19.25 18.7858 17.7858 20.25 16 20.25H8C6.12646 20.25 4.75 18.7981 4.75 17V9C4.75 7.47206 5.8219 6.17954 7.25 5.83814V7C7.25 7.41421 7.58579 7.75 8 7.75C8.41421 7.75 8.75 7.41421 8.75 7V5.75H15.25ZM13.3696 10.5696C13.6625 10.2768 14.1373 10.2768 14.4302 10.5696L15.8302 11.9696C16.1007 12.2402 16.2749 12.5993 16.2749 13C16.2749 13.4007 16.1007 13.7598 15.8302 14.0303L14.4302 15.4303C14.1373 15.7232 13.6625 15.7232 13.3696 15.4303C13.0767 15.1374 13.0767 14.6625 13.3696 14.3696L14.7392 13L13.3696 11.6303C13.0767 11.3374 13.0767 10.8625 13.3696 10.5696ZM10.7303 10.6696C11.0232 10.9625 11.0232 11.4374 10.7303 11.7303L9.36061 13.1L10.7303 14.4696C11.0232 14.7625 11.0232 15.2374 10.7303 15.5303C10.4374 15.8232 9.96252 15.8232 9.66962 15.5303L8.26962 14.1303C7.9991 13.8598 7.82495 13.5006 7.82495 13.1C7.82495 12.6993 7.9991 12.3401 8.26962 12.0696L9.66962 10.6696C9.96252 10.3767 10.4374 10.3767 10.7303 10.6696ZM9.33028 13.0696C9.31904 13.0584 9.31523 13.052 9.31508 13.0517L9.31656 13.0547C9.31866 13.0594 9.32124 13.067 9.32298 13.0769L9.33028 13.0696Z" fill="black"/>
</svg>
