<svg width="24" height="24" viewBox="0 0 24 24" fill="none" xmlns="http://www.w3.org/2000/svg">
<path d="M4 17V9C4 6.8 5.8 5 8 5H16C18.2 5 20 6.8 20 9V17C20 19.2 18.2 21 16 21H8C5.7 21 4 19.2 4 17Z" fill="black"/>
<path fill-rule="evenodd" clip-rule="evenodd" d="M8 5.75C6.21421 5.75 4.75 7.21421 4.75 9V17C4.75 18.7981 6.12646 20.25 8 20.25H16C17.7858 20.25 19.25 18.7858 19.25 17V9C19.25 7.21421 17.7858 5.75 16 5.75H8ZM3.25 9C3.25 6.38579 5.38579 4.25 8 4.25H16C18.6142 4.25 20.75 6.38579 20.75 9V17C20.75 19.6142 18.6142 21.75 16 21.75H8C5.27354 21.75 3.25 19.6019 3.25 17V9Z" fill="black"/>
<path fill-rule="evenodd" clip-rule="evenodd" d="M8 2.25C8.41421 2.25 8.75 2.58579 8.75 3V7C8.75 7.41421 8.41421 7.75 8 7.75C7.58579 7.75 7.25 7.41421 7.25 7V3C7.25 2.58579 7.58579 2.25 8 2.25Z" fill="black"/>
<path fill-rule="evenodd" clip-rule="evenodd" d="M16 2.25C16.4142 2.25 16.75 2.58579 16.75 3V7C16.75 7.41421 16.4142 7.75 16 7.75C15.5858 7.75 15.25 7.41421 15.25 7V3C15.25 2.58579 15.5858 2.25 16 2.25Z" fill="black"/>
<path d="M8.5 13C9.32843 13 10 12.3284 10 11.5C10 10.6716 9.32843 10 8.5 10C7.67157 10 7 10.6716 7 11.5C7 12.3284 7.67157 13 8.5 13Z" fill="white"/>
<path fill-rule="evenodd" clip-rule="evenodd" d="M8.5 10.75C8.08579 10.75 7.75 11.0858 7.75 11.5C7.75 11.9142 8.08579 12.25 8.5 12.25C8.91421 12.25 9.25 11.9142 9.25 11.5C9.25 11.0858 8.91421 10.75 8.5 10.75ZM6.25 11.5C6.25 10.2574 7.25736 9.25 8.5 9.25C9.74264 9.25 10.75 10.2574 10.75 11.5C10.75 12.7426 9.74264 13.75 8.5 13.75C7.25736 13.75 6.25 12.7426 6.25 11.5Z" fill="white"/>
</svg>
