<svg width="60" height="60" viewBox="0 0 60 60" fill="none" xmlns="http://www.w3.org/2000/svg">
<path d="M27.4999 33.9C25.6309 33.9 23.8038 33.3458 22.2498 32.3074C20.6957 31.269 19.4845 29.7931 18.7693 28.0664C18.054 26.3396 17.8669 24.4395 18.2315 22.6064C18.5961 20.7733 19.4962 19.0895 20.8178 17.7678C22.1394 16.4462 23.8232 15.5462 25.6563 15.1816C27.4894 14.817 29.3895 15.0041 31.1163 15.7193C32.8431 16.4346 34.3189 17.6458 35.3573 19.1999C36.3957 20.7539 36.9499 22.581 36.9499 24.45C36.9433 26.9543 35.9456 29.3541 34.1748 31.1249C32.404 32.8957 30.0042 33.8934 27.4999 33.9ZM27.4999 20C26.6198 20 25.7594 20.261 25.0276 20.75C24.2958 21.2389 23.7255 21.9339 23.3887 22.7471C23.0519 23.5602 22.9637 24.4549 23.1354 25.3182C23.3071 26.1814 23.731 26.9743 24.3533 27.5966C24.9756 28.219 25.7686 28.6428 26.6318 28.8145C27.495 28.9862 28.3897 28.8981 29.2029 28.5613C30.016 28.2245 30.711 27.6541 31.2 26.9223C31.6889 26.1905 31.9499 25.3301 31.9499 24.45C31.9499 23.2698 31.4811 22.1379 30.6466 21.3034C29.812 20.4688 28.6801 20 27.4999 20Z" fill="black"/>
<path d="M40 45.0001C39.337 45.0001 38.7011 44.7367 38.2322 44.2679C37.7634 43.799 37.5 43.1631 37.5 42.5001C37.5 41.3707 37.2776 40.2524 36.8454 39.209C36.4132 38.1656 35.7797 37.2176 34.9811 36.419C34.1825 35.6204 33.2345 34.9869 32.1911 34.5547C31.1477 34.1225 30.0294 33.9001 28.9 33.9001H26.1C23.8191 33.9001 21.6317 34.8062 20.0189 36.419C18.4061 38.0318 17.5 40.2192 17.5 42.5001C17.5 43.1631 17.2366 43.799 16.7678 44.2679C16.2989 44.7367 15.663 45.0001 15 45.0001C14.337 45.0001 13.7011 44.7367 13.2322 44.2679C12.7634 43.799 12.5 43.1631 12.5 42.5001C12.5066 38.8952 13.9416 35.4398 16.4906 32.8907C19.0397 30.3417 22.4951 28.9067 26.1 28.9001H28.9C32.5049 28.9067 35.9603 30.3417 38.5094 32.8907C41.0584 35.4398 42.4934 38.8952 42.5 42.5001C42.5 43.1631 42.2366 43.799 41.7678 44.2679C41.2989 44.7367 40.663 45.0001 40 45.0001Z" fill="black"/>
<path d="M41.5 52.5H13.5C11.2477 52.4934 9.08951 51.5958 7.49688 50.0031C5.90425 48.4105 5.0066 46.2523 5 44V16C5.0066 13.7477 5.90425 11.5895 7.49688 9.99688C9.08951 8.40425 11.2477 7.5066 13.5 7.5H41.5C43.7523 7.5066 45.9105 8.40425 47.5031 9.99688C49.0958 11.5895 49.9934 13.7477 50 16V44C49.9934 46.2523 49.0958 48.4105 47.5031 50.0031C45.9105 51.5958 43.7523 52.4934 41.5 52.5ZM13.5 12.5C12.5717 12.5 11.6815 12.8687 11.0251 13.5251C10.3687 14.1815 10 15.0717 10 16V44C10 44.9283 10.3687 45.8185 11.0251 46.4749C11.6815 47.1312 12.5717 47.5 13.5 47.5H41.5C42.4283 47.5 43.3185 47.1312 43.9749 46.4749C44.6312 45.8185 45 44.9283 45 44V16C45 15.0717 44.6312 14.1815 43.9749 13.5251C43.3185 12.8687 42.4283 12.5 41.5 12.5H13.5Z" fill="black"/>
<path d="M52.5 26.95H47.5C46.837 26.95 46.2011 26.6866 45.7322 26.2178C45.2634 25.7489 45 25.1131 45 24.45C45 23.787 45.2634 23.1511 45.7322 22.6822C46.2011 22.2134 46.837 21.95 47.5 21.95H52.5C53.163 21.95 53.7989 22.2134 54.2678 22.6822C54.7366 23.1511 55 23.787 55 24.45C55 25.1131 54.7366 25.7489 54.2678 26.2178C53.7989 26.6866 53.163 26.95 52.5 26.95Z" fill="black"/>
<path d="M52.5 40H47.5C46.837 40 46.2011 39.7366 45.7322 39.2678C45.2634 38.7989 45 38.163 45 37.5C45 36.837 45.2634 36.2011 45.7322 35.7322C46.2011 35.2634 46.837 35 47.5 35H52.5C53.163 35 53.7989 35.2634 54.2678 35.7322C54.7366 36.2011 55 36.837 55 37.5C55 38.163 54.7366 38.7989 54.2678 39.2678C53.7989 39.7366 53.163 40 52.5 40Z" fill="black"/>
</svg>
