<svg width="61" height="60" viewBox="0 0 61 60" fill="none" xmlns="http://www.w3.org/2000/svg">
<path d="M23.0749 28.15H10.5749C9.29723 28.1434 8.07379 27.633 7.17035 26.7295C6.2669 25.8261 5.75645 24.6026 5.74988 23.325V10.825C5.75645 9.54736 6.2669 8.32391 7.17035 7.42047C8.07379 6.51702 9.29723 6.00657 10.5749 6H23.0749C24.3525 6.00657 25.576 6.51702 26.4794 7.42047C27.3828 8.32391 27.8933 9.54736 27.8999 10.825V23.325C27.8933 24.6026 27.3828 25.8261 26.4794 26.7295C25.576 27.633 24.3525 28.1434 23.0749 28.15ZM10.5749 9.75C10.2918 9.75636 10.022 9.87167 9.82178 10.0719C9.62154 10.2721 9.50624 10.5419 9.49988 10.825V23.325C9.49988 23.6101 9.61314 23.8835 9.81474 24.0851C10.0163 24.2867 10.2898 24.4 10.5749 24.4H23.0749C23.36 24.4 23.6334 24.2867 23.835 24.0851C24.0366 23.8835 24.1499 23.6101 24.1499 23.325V10.825C24.1499 10.5399 24.0366 10.2665 23.835 10.0649C23.6334 9.86326 23.36 9.75 23.0749 9.75H10.5749Z" fill="black"/>
<path d="M49.8248 28.15H37.3248C36.0471 28.1434 34.8237 27.633 33.9202 26.7295C33.0168 25.8261 32.5063 24.6026 32.4998 23.325V10.825C32.5063 9.54736 33.0168 8.32391 33.9202 7.42047C34.8237 6.51702 36.0471 6.00657 37.3248 6H49.8248C51.1024 6.00657 52.3258 6.51702 53.2293 7.42047C54.1327 8.32391 54.6432 9.54736 54.6498 10.825V23.325C54.6432 24.6026 54.1327 25.8261 53.2293 26.7295C52.3258 27.633 51.1024 28.1434 49.8248 28.15ZM37.3248 9.75C37.0396 9.75 36.7662 9.86326 36.5646 10.0649C36.363 10.2665 36.2498 10.5399 36.2498 10.825V23.325C36.2498 23.6101 36.363 23.8835 36.5646 24.0851C36.7662 24.2867 37.0396 24.4 37.3248 24.4H49.8248C50.1099 24.4 50.3833 24.2867 50.5849 24.0851C50.7865 23.8835 50.8998 23.6101 50.8998 23.325V10.825C50.8934 10.5419 50.7781 10.2721 50.5779 10.0719C50.3776 9.87167 50.1079 9.75636 49.8248 9.75H37.3248Z" fill="black"/>
<path d="M23.0749 54H10.5749C9.29723 53.9934 8.07379 53.483 7.17035 52.5795C6.2669 51.6761 5.75645 50.4527 5.74988 49.175V36.675C5.75645 35.3974 6.2669 34.1739 7.17035 33.2705C8.07379 32.367 9.29723 31.8566 10.5749 31.85H23.0749C24.3525 31.8566 25.576 32.367 26.4794 33.2705C27.3828 34.1739 27.8933 35.3974 27.8999 36.675V49.175C27.8933 50.4527 27.3828 51.6761 26.4794 52.5795C25.576 53.483 24.3525 53.9934 23.0749 54ZM10.5749 35.6C10.2898 35.6 10.0163 35.7133 9.81474 35.9149C9.61314 36.1165 9.49988 36.3899 9.49988 36.675V49.175C9.50624 49.4581 9.62154 49.7279 9.82178 49.9281C10.022 50.1283 10.2918 50.2436 10.5749 50.25H23.0749C23.36 50.25 23.6334 50.1367 23.835 49.9351C24.0366 49.7335 24.1499 49.4601 24.1499 49.175V36.675C24.1499 36.3899 24.0366 36.1165 23.835 35.9149C23.6334 35.7133 23.36 35.6 23.0749 35.6H10.5749Z" fill="black"/>
<path d="M49.8248 54H37.3248C36.0471 53.9934 34.8237 53.483 33.9202 52.5795C33.0168 51.6761 32.5063 50.4527 32.4998 49.175V36.675C32.5063 35.3974 33.0168 34.1739 33.9202 33.2705C34.8237 32.367 36.0471 31.8566 37.3248 31.85H49.8248C51.1024 31.8566 52.3258 32.367 53.2293 33.2705C54.1327 34.1739 54.6432 35.3974 54.6498 36.675V49.175C54.6432 50.4527 54.1327 51.6761 53.2293 52.5795C52.3258 53.483 51.1024 53.9934 49.8248 54ZM37.3248 35.6C37.0396 35.6 36.7662 35.7133 36.5646 35.9149C36.363 36.1165 36.2498 36.3899 36.2498 36.675V49.175C36.2498 49.4601 36.363 49.7335 36.5646 49.9351C36.7662 50.1367 37.0396 50.25 37.3248 50.25H49.8248C50.1079 50.2436 50.3776 50.1283 50.5779 49.9281C50.7781 49.7279 50.8934 49.4581 50.8998 49.175V36.675C50.8998 36.3899 50.7865 36.1165 50.5849 35.9149C50.3833 35.7133 50.1099 35.6 49.8248 35.6H37.3248Z" fill="black"/>
</svg>
