<svg width="60" height="60" viewBox="0 0 60 60" fill="none" xmlns="http://www.w3.org/2000/svg">
<path d="M40 51.25H20C17.3478 51.25 14.8043 50.1964 12.9289 48.3211C11.0536 46.4457 10 43.9022 10 41.25V26.25C10 23.5978 11.0536 21.0543 12.9289 19.1789C14.8043 17.3036 17.3478 16.25 20 16.25H40C42.6522 16.25 45.1957 17.3036 47.0711 19.1789C48.9464 21.0543 50 23.5978 50 26.25V41.25C50 43.9022 48.9464 46.4457 47.0711 48.3211C45.1957 50.1964 42.6522 51.25 40 51.25ZM20 21.25C18.6739 21.25 17.4021 21.7768 16.4645 22.7145C15.5268 23.6521 15 24.9239 15 26.25V41.25C15 42.5761 15.5268 43.8479 16.4645 44.7855C17.4021 45.7232 18.6739 46.25 20 46.25H40C41.3261 46.25 42.5979 45.7232 43.5355 44.7855C44.4732 43.8479 45 42.5761 45 41.25V26.25C45 24.9239 44.4732 23.6521 43.5355 22.7145C42.5979 21.7768 41.3261 21.25 40 21.25H20Z" fill="black"/>
<path d="M45 13.75H15C14.337 13.75 13.7011 13.4866 13.2322 13.0178C12.7634 12.5489 12.5 11.913 12.5 11.25C12.5 10.587 12.7634 9.95107 13.2322 9.48223C13.7011 9.01339 14.337 8.75 15 8.75H45C45.663 8.75 46.2989 9.01339 46.7678 9.48223C47.2366 9.95107 47.5 10.587 47.5 11.25C47.5 11.913 47.2366 12.5489 46.7678 13.0178C46.2989 13.4866 45.663 13.75 45 13.75Z" fill="black"/>
<path d="M32.5 28.75H27.5C26.837 28.75 26.2011 28.4866 25.7322 28.0178C25.2634 27.5489 25 26.913 25 26.25C25 25.587 25.2634 24.9511 25.7322 24.4822C26.2011 24.0134 26.837 23.75 27.5 23.75H32.5C33.163 23.75 33.7989 24.0134 34.2678 24.4822C34.7366 24.9511 35 25.587 35 26.25C35 26.913 34.7366 27.5489 34.2678 28.0178C33.7989 28.4866 33.163 28.75 32.5 28.75Z" fill="black"/>
</svg>
