<svg width="61" height="60" viewBox="0 0 61 60" fill="none" xmlns="http://www.w3.org/2000/svg">
<path d="M30.8 51.425C30.5528 51.4284 30.3075 51.3822 30.0785 51.2891C29.8495 51.1961 29.6414 51.0581 29.4667 50.8833C29.2919 50.7085 29.1539 50.5005 29.0608 50.2715C28.9678 50.0425 28.9216 49.7972 28.925 49.55L28.85 17.5C28.8532 17.2484 28.9064 16.9998 29.0065 16.7689C29.1065 16.538 29.2515 16.3292 29.4329 16.1548C29.6143 15.9803 29.8286 15.8437 30.0633 15.7527C30.298 15.6618 30.5484 15.6184 30.8 15.625C31.2973 15.625 31.7742 15.8226 32.1258 16.1742C32.4774 16.5258 32.675 17.0027 32.675 17.5V49.55C32.6685 50.0453 32.4689 50.5184 32.1186 50.8687C31.7684 51.2189 31.2952 51.4185 30.8 51.425Z" fill="black"/>
<path d="M30.8 55C30.3074 55.001 29.8332 54.8131 29.475 54.475L17.6 42.5C17.2489 42.1485 17.0516 41.6719 17.0516 41.175C17.0516 40.6782 17.2489 40.2016 17.6 39.85C17.9515 39.4989 18.4281 39.3017 18.925 39.3017C19.4219 39.3017 19.8984 39.4989 20.25 39.85L30.8 50.375L41.325 39.8C41.683 39.442 42.1686 39.2408 42.675 39.2408C43.1813 39.2408 43.6669 39.442 44.025 39.8C44.383 40.1581 44.5842 40.6437 44.5842 41.15C44.5842 41.6564 44.383 42.142 44.025 42.5L32.15 54.4C31.9792 54.5886 31.7709 54.7394 31.5384 54.8428C31.3059 54.9461 31.0544 54.9997 30.8 55Z" fill="black"/>
<path d="M30.7999 19.375C29.3858 19.375 28.0034 18.9557 26.8276 18.17C25.6518 17.3844 24.7353 16.2677 24.1942 14.9612C23.653 13.6547 23.5114 12.2171 23.7873 10.8301C24.0632 9.44316 24.7441 8.16915 25.7441 7.1692C26.744 6.16926 28.018 5.48828 29.405 5.2124C30.792 4.93652 32.2296 5.07811 33.5361 5.61928C34.8426 6.16044 35.9593 7.07688 36.7449 8.25269C37.5306 9.4285 37.9499 10.8109 37.9499 12.225C37.9499 14.1213 37.1966 15.9399 35.8557 17.2808C34.5148 18.6217 32.6962 19.375 30.7999 19.375ZM30.7999 8.85002C30.1264 8.85003 29.4681 9.05009 28.9084 9.4248C28.3487 9.79951 27.913 10.332 27.6564 10.9547C27.3998 11.5775 27.334 12.2624 27.4672 12.9226C27.6004 13.5828 27.9267 14.1885 28.4047 14.663C28.8827 15.1375 29.4909 15.4594 30.1521 15.5877C30.8132 15.7161 31.4976 15.6452 32.1184 15.384C32.7393 15.1228 33.2685 14.6831 33.6391 14.1207C34.0097 13.5583 34.2049 12.8985 34.1999 12.225C34.1999 11.7797 34.1118 11.3388 33.9406 10.9277C33.7695 10.5165 33.5186 10.1434 33.2026 9.82965C32.8865 9.51592 32.5115 9.26784 32.0991 9.09971C31.6868 8.93158 31.2452 8.84672 30.7999 8.85002Z" fill="black"/>
</svg>
