<svg width="61" height="60" viewBox="0 0 61 60" fill="none" xmlns="http://www.w3.org/2000/svg">
<path d="M13.3752 56.175C13.1257 56.1758 12.8788 56.1247 12.6502 56.025C12.3081 55.8852 12.0158 55.6462 11.8108 55.3387C11.6059 55.0313 11.4977 54.6695 11.5002 54.3V26.95C11.5002 14.725 21.8002 11.4 27.2252 11.35H50.2002L45.9002 7.02501C45.7233 6.85265 45.5827 6.64661 45.4867 6.41904C45.3907 6.19148 45.3412 5.94699 45.3412 5.70001C45.3412 5.45303 45.3907 5.20854 45.4867 4.98098C45.5827 4.75341 45.7233 4.54737 45.9002 4.37501C46.2517 4.02388 46.7283 3.82666 47.2252 3.82666C47.722 3.82666 48.1986 4.02388 48.5502 4.37501L56.0502 11.875C56.3147 12.1318 56.4965 12.4617 56.5722 12.8225C56.6479 13.1833 56.6142 13.5585 56.4752 13.9C56.332 14.2467 56.0895 14.5433 55.778 14.7524C55.4666 14.9615 55.1003 15.0738 54.7252 15.075H27.2252C26.7502 15.075 15.2252 15.4 15.2252 26.925V49.75L19.3252 45.65C19.4968 45.4658 19.7038 45.318 19.9338 45.2156C20.1638 45.1131 20.4121 45.058 20.6639 45.0535C20.9156 45.0491 21.1657 45.0954 21.3992 45.1897C21.6326 45.284 21.8447 45.4244 22.0228 45.6024C22.2008 45.7805 22.3412 45.9925 22.4355 46.226C22.5298 46.4595 22.5761 46.7096 22.5716 46.9613C22.5672 47.2131 22.5121 47.4614 22.4096 47.6914C22.3071 47.9214 22.1594 48.1284 21.9752 48.3L14.7002 55.625C14.343 55.9679 13.8702 56.1642 13.3752 56.175Z" fill="black"/>
<path d="M47.425 22.5C46.93 22.4892 46.4571 22.2929 46.1 21.95C45.7489 21.5985 45.5516 21.1219 45.5516 20.625C45.5516 20.1281 45.7489 19.6516 46.1 19.3L53.4 11.9C53.7554 11.5688 54.2255 11.3885 54.7113 11.3971C55.197 11.4057 55.6605 11.6024 56.004 11.946C56.3476 12.2895 56.5444 12.753 56.5529 13.2387C56.5615 13.7245 56.3812 14.1946 56.05 14.55L48.75 21.85C48.5846 22.0424 48.3819 22.1991 48.1541 22.3109C47.9264 22.4226 47.6783 22.4869 47.425 22.5Z" fill="black"/>
<path d="M13.3751 56.175C13.1281 56.1806 12.8827 56.1345 12.6545 56.0398C12.4264 55.9451 12.2205 55.8038 12.0501 55.625L4.75009 48.325C4.57319 48.1526 4.4326 47.9466 4.33661 47.719C4.24062 47.4915 4.19116 47.247 4.19116 47C4.19116 46.753 4.24062 46.5086 4.33661 46.281C4.4326 46.0534 4.57319 45.8474 4.75009 45.675C5.10165 45.3239 5.57821 45.1267 6.07509 45.1267C6.57196 45.1267 7.04852 45.3239 7.40009 45.675L14.7001 52.975C15.0512 53.3266 15.2484 53.8031 15.2484 54.3C15.2484 54.7969 15.0512 55.2734 14.7001 55.625C14.527 55.8003 14.3206 55.9392 14.0931 56.0337C13.8655 56.1281 13.6214 56.1762 13.3751 56.175Z" fill="black"/>
</svg>
