<svg width="61" height="60" viewBox="0 0 61 60" fill="none" xmlns="http://www.w3.org/2000/svg">
<path d="M40.2002 41.775C39.9538 41.7762 39.7097 41.7281 39.4822 41.6337C39.2547 41.5392 39.0483 41.4003 38.8752 41.225C38.5241 40.8734 38.3268 40.3969 38.3268 39.9C38.3268 39.4031 38.5241 38.9266 38.8752 38.575L45.5752 31.875H20.4502C19.9529 31.875 19.476 31.6775 19.1244 31.3258C18.7727 30.9742 18.5752 30.4973 18.5752 30C18.5752 29.5027 18.7727 29.0258 19.1244 28.6742C19.476 28.3225 19.9529 28.125 20.4502 28.125H50.0502C50.4208 28.1253 50.783 28.2355 51.091 28.4415C51.3991 28.6476 51.6391 28.9403 51.7809 29.2827C51.9227 29.6251 51.9598 30.0018 51.8876 30.3653C51.8154 30.7288 51.6371 31.0628 51.3752 31.325L41.3752 41.325C41.0481 41.6077 40.6324 41.7669 40.2002 41.775Z" fill="black"/>
<path d="M50.0502 31.875C49.8032 31.8806 49.5578 31.8345 49.3296 31.7398C49.1015 31.6451 48.8956 31.5038 48.7252 31.325L38.7252 21.325C38.541 21.1534 38.3932 20.9464 38.2907 20.7164C38.1883 20.4864 38.1332 20.2381 38.1287 19.9863C38.1243 19.7346 38.1706 19.4845 38.2649 19.251C38.3592 19.0176 38.4995 18.8055 38.6776 18.6274C38.8556 18.4494 39.0677 18.309 39.3012 18.2147C39.5347 18.1204 39.7847 18.0741 40.0365 18.0785C40.2883 18.083 40.5365 18.1381 40.7665 18.2406C40.9965 18.343 41.2035 18.4908 41.3752 18.675L51.3752 28.675C51.7263 29.0266 51.9235 29.5031 51.9235 30C51.9235 30.4969 51.7263 30.9734 51.3752 31.325C51.2021 31.5003 50.9957 31.6392 50.7682 31.7337C50.5406 31.8281 50.2965 31.8762 50.0502 31.875Z" fill="black"/>
<path d="M20.4502 41.775C19.9715 41.7697 19.5125 41.584 19.1649 41.2549C18.8173 40.9258 18.6067 40.4777 18.5752 40V20C18.5752 19.5027 18.7727 19.0258 19.1244 18.6742C19.476 18.3225 19.9529 18.125 20.4502 18.125C20.9475 18.125 21.4244 18.3225 21.776 18.6742C22.1277 19.0258 22.3252 19.5027 22.3252 20V40C22.2996 40.4797 22.0908 40.9314 21.7419 41.2616C21.393 41.5919 20.9306 41.7757 20.4502 41.775Z" fill="black"/>
<path d="M10.3501 41.775C9.87144 41.7697 9.41241 41.584 9.06478 41.2549C8.71716 40.9258 8.50656 40.4777 8.4751 40V20C8.4751 19.5027 8.67264 19.0258 9.02427 18.6742C9.3759 18.3225 9.85282 18.125 10.3501 18.125C10.8474 18.125 11.3243 18.3225 11.6759 18.6742C12.0276 19.0258 12.2251 19.5027 12.2251 20V40C12.1995 40.4797 11.9907 40.9314 11.6418 41.2616C11.2929 41.5919 10.8305 41.7757 10.3501 41.775Z" fill="black"/>
</svg>
