<svg width="60" height="60" viewBox="0 0 60 60" fill="none" xmlns="http://www.w3.org/2000/svg">
<path d="M7.72485 32.7001C7.22757 32.7001 6.75066 32.5025 6.39903 32.1509C6.0474 31.7993 5.84985 31.3224 5.84985 30.8251C5.84985 30.3278 6.0474 29.8509 6.39903 29.4992C6.75066 29.1476 7.22757 28.9501 7.72485 28.9501H49.6498C50.1471 28.9501 50.624 29.1476 50.9757 29.4992C51.3273 29.8509 51.5248 30.3278 51.5248 30.8251C51.5248 31.3224 51.3273 31.7993 50.9757 32.1509C50.624 32.5025 50.1471 32.7001 49.6498 32.7001H7.72485Z" fill="black"/>
<path d="M41.0248 45C40.6573 44.9932 40.2995 44.8798 39.9951 44.6737C39.6906 44.4676 39.4525 44.1776 39.3096 43.8389C39.1667 43.5001 39.1251 43.1272 39.19 42.7653C39.2548 42.4034 39.4232 42.0681 39.6748 41.8L50.5998 30.825L39.6248 19.8C39.4406 19.6283 39.2929 19.4213 39.1904 19.1913C39.0879 18.9613 39.0328 18.7131 39.0284 18.4613C39.0239 18.2095 39.0702 17.9595 39.1645 17.726C39.2588 17.4925 39.3992 17.2804 39.5773 17.1024C39.7553 16.9244 39.9674 16.784 40.2009 16.6897C40.4343 16.5954 40.6844 16.5491 40.9362 16.5535C41.1879 16.558 41.4362 16.6131 41.6662 16.7155C41.8962 16.818 42.1032 16.9658 42.2748 17.15L54.5749 29.375C54.926 29.7266 55.1232 30.2031 55.1232 30.7C55.1232 31.1969 54.926 31.6734 54.5749 32.025L42.3498 44.325C42.1867 44.5219 41.985 44.6834 41.7571 44.7995C41.5293 44.9155 41.2801 44.9838 41.0248 45Z" fill="black"/>
<path d="M19.0499 45C18.8035 45.0012 18.5594 44.9531 18.3319 44.8587C18.1043 44.7642 17.898 44.6253 17.7249 44.45L5.42486 32.2C5.25731 32.001 5.133 31.7693 5.05983 31.5197C4.98666 31.2701 4.96624 31.008 4.99986 30.75C5.00562 30.254 5.20265 29.7793 5.54986 29.425L17.6499 17.125C18.0014 16.7739 18.478 16.5767 18.9749 16.5767C19.4717 16.5767 19.9483 16.7739 20.2999 17.125C20.651 17.4766 20.8482 17.9531 20.8482 18.45C20.8482 18.9469 20.651 19.4234 20.2999 19.775L9.39986 30.75L20.3749 41.675C20.726 42.0266 20.9232 42.5031 20.9232 43C20.9232 43.4969 20.726 43.9734 20.3749 44.325C20.2127 44.5231 20.0112 44.6853 19.7832 44.8015C19.5551 44.9177 19.3054 44.9853 19.0499 45Z" fill="black"/>
<path d="M30 49.225C29.5047 49.2186 29.0316 49.0189 28.6813 48.6687C28.3311 48.3185 28.1315 47.8453 28.125 47.35V12.65C28.125 12.1527 28.3225 11.6758 28.6742 11.3242C29.0258 10.9726 29.5027 10.775 30 10.775C30.4973 10.775 30.9742 10.9726 31.3258 11.3242C31.6775 11.6758 31.875 12.1527 31.875 12.65V47.35C31.8685 47.8453 31.6689 48.3185 31.3187 48.6687C30.9684 49.0189 30.4953 49.2186 30 49.225Z" fill="black"/>
</svg>
