<svg width="61" height="60" viewBox="0 0 61 60" fill="none" xmlns="http://www.w3.org/2000/svg">
<path d="M30.6001 54.15C30.1049 54.1436 29.6317 53.9439 29.2815 53.5937C28.9312 53.2435 28.7316 52.7703 28.7251 52.275V10.35C28.7218 10.1029 28.768 9.85754 28.861 9.62853C28.9541 9.39953 29.092 9.19149 29.2668 9.01671C29.4416 8.84192 29.6497 8.70394 29.8787 8.6109C30.1077 8.51786 30.353 8.47166 30.6001 8.47502C31.0931 8.47498 31.5663 8.66909 31.9172 9.01533C32.2681 9.36157 32.4686 9.83209 32.4751 10.325V52.25C32.4785 52.4983 32.4324 52.7449 32.3397 52.9752C32.2469 53.2056 32.1093 53.4153 31.9349 53.592C31.7604 53.7688 31.5526 53.9092 31.3235 54.0049C31.0944 54.1007 30.8485 54.15 30.6001 54.15Z" fill="black"/>
<path d="M18.3001 20.925C18.0536 20.9276 17.809 20.8802 17.5813 20.7857C17.3536 20.6911 17.1474 20.5514 16.9751 20.375C16.624 20.0234 16.4268 19.5469 16.4268 19.05C16.4268 18.5531 16.624 18.0766 16.9751 17.725L29.2001 5.42501C29.3931 5.26395 29.6164 5.14333 29.8569 5.07032C30.0974 4.99731 30.3502 4.9734 30.6001 5.00001C31.0972 5.00045 31.5738 5.19828 31.9251 5.55001L44.2251 17.775C44.5762 18.1266 44.7735 18.6031 44.7735 19.1C44.7735 19.5969 44.5762 20.0734 44.2251 20.425C43.8693 20.7777 43.3886 20.9755 42.8876 20.9755C42.3866 20.9755 41.9059 20.7777 41.5501 20.425L30.6001 9.40001L19.6251 20.375C19.268 20.7179 18.7951 20.9142 18.3001 20.925Z" fill="black"/>
<path d="M30.6001 55.125C30.103 55.1246 29.6264 54.9267 29.2751 54.575L16.9501 42.35C16.599 41.9984 16.4017 41.5219 16.4017 41.025C16.4017 40.5281 16.599 40.0516 16.9501 39.7C17.3016 39.3489 17.7782 39.1516 18.2751 39.1516C18.772 39.1516 19.2485 39.3489 19.6001 39.7L30.6001 50.6L41.5251 39.625C41.6967 39.4408 41.9037 39.293 42.1337 39.1905C42.3637 39.0881 42.612 39.033 42.8638 39.0285C43.1155 39.0241 43.3656 39.0704 43.5991 39.1647C43.8325 39.259 44.0446 39.3994 44.2227 39.5774C44.4007 39.7554 44.5411 39.9675 44.6354 40.201C44.7297 40.4345 44.776 40.6846 44.7716 40.9363C44.7671 41.1881 44.712 41.4363 44.6095 41.6663C44.5071 41.8963 44.3593 42.1033 44.1751 42.275L31.9251 54.575C31.5738 54.9267 31.0972 55.1246 30.6001 55.125Z" fill="black"/>
<path d="M47.9501 31.875H13.2501C12.7528 31.875 12.2759 31.6775 11.9243 31.3258C11.5727 30.9742 11.3751 30.4973 11.3751 30C11.3751 29.5027 11.5727 29.0258 11.9243 28.6742C12.2759 28.3225 12.7528 28.125 13.2501 28.125H47.9501C48.4474 28.125 48.9243 28.3225 49.2759 28.6742C49.6276 29.0258 49.8251 29.5027 49.8251 30C49.8251 30.4973 49.6276 30.9742 49.2759 31.3258C48.9243 31.6775 48.4474 31.875 47.9501 31.875Z" fill="black"/>
</svg>
