<svg width="61" height="60" viewBox="0 0 61 60" fill="none" xmlns="http://www.w3.org/2000/svg">
<path d="M30.4001 56.5C29.3452 56.5071 28.2995 56.3028 27.3249 55.8992C26.3502 55.4955 25.4662 54.9008 24.7251 54.15L6.25011 35.675C5.50478 34.9298 4.91354 34.0451 4.51016 33.0714C4.10679 32.0977 3.89917 31.054 3.89917 30C3.89917 28.9461 4.10679 27.9024 4.51016 26.9287C4.91354 25.955 5.50478 25.0702 6.25011 24.325L24.7251 5.85004C26.2547 4.39198 28.2869 3.57861 30.4001 3.57861C32.5133 3.57861 34.5455 4.39198 36.0751 5.85004L54.5501 24.325C55.2954 25.0702 55.8867 25.955 56.2901 26.9287C56.6934 27.9024 56.901 28.9461 56.901 30C56.901 31.054 56.6934 32.0977 56.2901 33.0714C55.8867 34.0451 55.2954 34.9298 54.5501 35.675L36.0751 54.15C35.334 54.9008 34.45 55.4955 33.4753 55.8992C32.5007 56.3028 31.455 56.5071 30.4001 56.5ZM30.4001 7.25004C29.8383 7.24812 29.2817 7.3576 28.7624 7.57216C28.2432 7.78671 27.7717 8.10209 27.3751 8.50004L8.90011 26.975C8.5025 27.3721 8.18707 27.8436 7.97186 28.3627C7.75664 28.8817 7.64587 29.4381 7.64587 30C7.64587 30.5619 7.75664 31.1183 7.97186 31.6374C8.18707 32.1565 8.5025 32.628 8.90011 33.025L27.3751 51.5C28.1894 52.2794 29.273 52.7143 30.4001 52.7143C31.5272 52.7143 32.6108 52.2794 33.4251 51.5L51.9001 33.025C52.2977 32.628 52.6131 32.1565 52.8284 31.6374C53.0436 31.1183 53.1543 30.5619 53.1543 30C53.1543 29.4381 53.0436 28.8817 52.8284 28.3627C52.6131 27.8436 52.2977 27.3721 51.9001 26.975L33.4251 8.50004C33.0285 8.10209 32.557 7.78671 32.0378 7.57216C31.5185 7.3576 30.9619 7.24812 30.4001 7.25004Z" fill="black"/>
<path d="M30.4 38.1751C29.9048 38.1686 29.4316 37.969 29.0814 37.6187C28.7311 37.2685 28.5315 36.7953 28.525 36.3001V16.3C28.525 15.8028 28.7226 15.3259 29.0742 14.9742C29.4258 14.6226 29.9027 14.425 30.4 14.425C30.8973 14.425 31.3742 14.6226 31.7258 14.9742C32.0775 15.3259 32.275 15.8028 32.275 16.3V36.3001C32.2685 36.7953 32.0689 37.2685 31.7187 37.6187C31.3684 37.969 30.8953 38.1686 30.4 38.1751Z" fill="black"/>
<path d="M30.4 45.625C29.9029 45.6246 29.4263 45.4267 29.075 45.075C28.8971 44.9086 28.7602 44.7032 28.675 44.475C28.5753 44.2463 28.5243 43.9995 28.525 43.75C28.5255 43.2529 28.7233 42.7763 29.075 42.425C29.2484 42.2555 29.4519 42.1199 29.675 42.025C29.9545 41.9261 30.2534 41.8949 30.5472 41.9339C30.841 41.9729 31.1214 42.081 31.3654 42.2493C31.6093 42.4177 31.8099 42.6414 31.9507 42.9023C32.0914 43.1632 32.1683 43.4537 32.175 43.75C32.1758 43.9995 32.1247 44.2463 32.025 44.475C31.9399 44.7032 31.803 44.9086 31.625 45.075C31.2986 45.4033 30.8623 45.5992 30.4 45.625Z" fill="black"/>
</svg>
