<svg width="60" height="60" viewBox="0 0 60 60" fill="none" xmlns="http://www.w3.org/2000/svg">
<path d="M30 53.8749C27.8944 53.9838 25.7906 53.6282 23.8378 52.8332C21.885 52.0383 20.1309 50.8235 18.7 49.2749C13.9 43.8249 14.55 35.4749 14.675 34.1249V17.1749C14.675 13.3499 16.55 6.12494 23.6 6.12494C30.65 6.12494 32.5 13.3499 32.5 17.1749V34.2749C32.5 34.938 32.2366 35.5739 31.7678 36.0427C31.299 36.5115 30.6631 36.7749 30 36.7749C29.337 36.7749 28.7011 36.5115 28.2323 36.0427C27.7634 35.5739 27.5 34.938 27.5 34.2749V17.1749C27.5 16.9499 27.5 11.1249 23.6 11.1249C19.7 11.1249 19.675 16.9499 19.675 17.1999V34.2749C19.6873 34.3746 19.6873 34.4753 19.675 34.5749C19.675 34.5749 18.825 41.8749 22.5 45.9749C23.4589 46.9815 24.6286 47.7635 25.9252 48.2649C27.2219 48.7663 28.6134 48.9746 30 48.8749C31.3867 48.9746 32.7782 48.7663 34.0748 48.2649C35.3715 47.7635 36.5412 46.9815 37.5 45.9749C41.15 41.8749 40.325 34.6499 40.325 34.5749C40.3127 34.4753 40.3127 34.3746 40.325 34.2749V8.62494C40.325 7.9619 40.5884 7.32601 41.0573 6.85717C41.5261 6.38833 42.162 6.12494 42.825 6.12494C43.4881 6.12494 44.124 6.38833 44.5928 6.85717C45.0616 7.32601 45.325 7.9619 45.325 8.62494V34.1249C45.45 35.4749 46.1 43.8249 41.3 49.2749C39.8691 50.8235 38.1151 52.0383 36.1623 52.8332C34.2094 53.6282 32.1056 53.9838 30 53.8749Z" fill="black"/>
</svg>
