<svg width="60" height="60" viewBox="0 0 60 60" fill="none" xmlns="http://www.w3.org/2000/svg">
<path d="M53.6501 53.775H6.3501C5.68706 53.775 5.05117 53.5116 4.58233 53.0427C4.11349 52.5739 3.8501 51.938 3.8501 51.275C3.8501 50.6119 4.11349 49.976 4.58233 49.5072C5.05117 49.0384 5.68706 48.775 6.3501 48.775H53.6501C54.3131 48.775 54.949 49.0384 55.4179 49.5072C55.8867 49.976 56.1501 50.6119 56.1501 51.275C56.1501 51.938 55.8867 52.5739 55.4179 53.0427C54.949 53.5116 54.3131 53.775 53.6501 53.775Z" fill="black"/>
<path d="M48.95 53.7751C48.287 53.7751 47.6511 53.5117 47.1823 53.0428C46.7134 52.574 46.45 51.9381 46.45 51.2751V46.675H13.55V51.2751C13.55 51.9381 13.2867 52.574 12.8178 53.0428C12.349 53.5117 11.7131 53.7751 11.05 53.7751C10.387 53.7751 9.75112 53.5117 9.28228 53.0428C8.81344 52.574 8.55005 51.9381 8.55005 51.2751V44.175C8.55005 43.512 8.81344 42.8761 9.28228 42.4073C9.75112 41.9384 10.387 41.675 11.05 41.675H48.95C49.6131 41.675 50.249 41.9384 50.7178 42.4073C51.1867 42.8761 51.45 43.512 51.45 44.175V51.2751C51.45 51.9381 51.1867 52.574 50.7178 53.0428C50.249 53.5117 49.6131 53.7751 48.95 53.7751Z" fill="black"/>
<path d="M18.175 39.6C17.512 39.6 16.8761 39.3366 16.4073 38.8678C15.9384 38.399 15.675 37.7631 15.675 37.1V22.9C15.675 22.237 15.9384 21.6011 16.4073 21.1323C16.8761 20.6634 17.512 20.4 18.175 20.4C18.8381 20.4 19.474 20.6634 19.9428 21.1323C20.4117 21.6011 20.675 22.237 20.675 22.9V37.1C20.675 37.7631 20.4117 38.399 19.9428 38.8678C19.474 39.3366 18.8381 39.6 18.175 39.6Z" fill="black"/>
<path d="M30 39.6C29.337 39.6 28.7011 39.3366 28.2322 38.8678C27.7634 38.3989 27.5 37.763 27.5 37.1V18.175C27.5 17.5119 27.7634 16.8761 28.2322 16.4072C28.7011 15.9384 29.337 15.675 30 15.675C30.663 15.675 31.2989 15.9384 31.7678 16.4072C32.2366 16.8761 32.5 17.5119 32.5 18.175V37.1C32.5 37.763 32.2366 38.3989 31.7678 38.8678C31.2989 39.3366 30.663 39.6 30 39.6Z" fill="black"/>
<path d="M41.825 39.6C41.1619 39.6 40.526 39.3366 40.0572 38.8678C39.5883 38.399 39.325 37.7631 39.325 37.1V22.9C39.325 22.237 39.5883 21.6011 40.0572 21.1323C40.526 20.6634 41.1619 20.4 41.825 20.4C42.488 20.4 43.1239 20.6634 43.5927 21.1323C44.0616 21.6011 44.325 22.237 44.325 22.9V37.1C44.325 37.7631 44.0616 38.399 43.5927 38.8678C43.1239 39.3366 42.488 39.6 41.825 39.6Z" fill="black"/>
<path d="M7.50017 23.05C7.03162 23.051 6.57224 22.9202 6.17441 22.6727C5.77658 22.4251 5.45633 22.0708 5.25017 21.65C4.95544 21.0565 4.90838 20.3703 5.11933 19.7422C5.33027 19.114 5.78197 18.5953 6.37517 18.3L30.0002 6.47502C30.3587 6.28669 30.7577 6.18829 31.1627 6.18829C31.5677 6.18829 31.9666 6.28669 32.3252 6.47502L53.6002 18.275C54.1803 18.6065 54.605 19.1549 54.7808 19.7996C54.9567 20.4443 54.8692 21.1324 54.5377 21.7125C54.2062 22.2927 53.6577 22.7174 53.0131 22.8932C52.3684 23.069 51.6803 22.9815 51.1002 22.65L31.1002 11.475L8.60017 22.7C8.26583 22.9009 7.88912 23.0208 7.50017 23.05Z" fill="black"/>
</svg>
