<svg width="61" height="60" viewBox="0 0 61 60" fill="none" xmlns="http://www.w3.org/2000/svg">
<path d="M21.7501 36.2751C21.5038 36.2762 21.2597 36.2282 21.0321 36.1337C20.8046 36.0393 20.5982 35.9003 20.4251 35.7251L15.9001 31.2001C15.7232 31.0277 15.5826 30.8217 15.4866 30.5941C15.3906 30.3665 15.3412 30.122 15.3412 29.8751C15.3412 29.6281 15.3906 29.3836 15.4866 29.156C15.5826 28.9285 15.7232 28.7224 15.9001 28.5501L20.9001 23.5501C21.2517 23.1989 21.7282 23.0017 22.2251 23.0017C22.722 23.0017 23.1986 23.1989 23.5501 23.5501C23.9012 23.9016 24.0985 24.3782 24.0985 24.8751C24.0985 25.3719 23.9012 25.8485 23.5501 26.2001L19.8751 30.0001L23.1001 33.0751C23.4512 33.4266 23.6485 33.9032 23.6485 34.4001C23.6485 34.8969 23.4512 35.3735 23.1001 35.7251C22.9241 35.9034 22.7136 36.0441 22.4816 36.1386C22.2495 36.2332 22.0007 36.2796 21.7501 36.2751Z" fill="black"/>
<path d="M39.4499 36.275C39.2035 36.2762 38.9594 36.2281 38.7319 36.1337C38.5044 36.0392 38.298 35.9003 38.1249 35.725C37.7738 35.3735 37.5765 34.8969 37.5765 34.4C37.5765 33.9032 37.7738 33.4266 38.1249 33.075L41.3249 30L37.7499 26.425C37.3988 26.0735 37.2015 25.5969 37.2015 25.1C37.2015 24.6032 37.3988 24.1266 37.7499 23.775C38.1014 23.4239 38.578 23.2267 39.0749 23.2267C39.5718 23.2267 40.0483 23.4239 40.3999 23.775L45.3999 28.775C45.5768 28.9474 45.7174 29.1534 45.8134 29.381C45.9094 29.6086 45.9588 29.853 45.9588 30.1C45.9588 30.347 45.9094 30.5915 45.8134 30.8191C45.7174 31.0466 45.5768 31.2527 45.3999 31.425L40.8749 35.95C40.6719 36.0981 40.4408 36.2033 40.1958 36.2592C39.9508 36.3151 39.697 36.3205 39.4499 36.275Z" fill="black"/>
<path d="M28.0999 38.6C27.8856 38.6452 27.6643 38.6452 27.4499 38.6C27.2065 38.5177 26.9829 38.3857 26.7933 38.2122C26.6038 38.0387 26.4524 37.8277 26.3489 37.5925C26.2454 37.3573 26.1921 37.1031 26.1923 36.8461C26.1924 36.5892 26.2461 36.3351 26.3499 36.1L31.45 22C31.5354 21.7588 31.6692 21.5377 31.8433 21.3502C32.0174 21.1627 32.228 21.0128 32.4622 20.9098C32.6964 20.8067 32.9492 20.7527 33.2051 20.751C33.4609 20.7493 33.7144 20.8 33.95 20.9C34.1934 20.9823 34.417 21.1144 34.6066 21.2878C34.7961 21.4613 34.9475 21.6724 35.051 21.9076C35.1545 22.1428 35.2078 22.3969 35.2076 22.6539C35.2075 22.9109 35.1538 23.165 35.05 23.4L29.7499 37.5C29.6006 37.8158 29.3682 38.0851 29.0775 38.2788C28.7868 38.4726 28.4489 38.5836 28.0999 38.6Z" fill="black"/>
<path d="M43.725 56.875H17.475C14.8228 56.875 12.2793 55.8214 10.4039 53.9461C8.52854 52.0707 7.47498 49.5272 7.47498 46.875V13.125C7.47498 10.4728 8.52854 7.9293 10.4039 6.05393C12.2793 4.17857 14.8228 3.125 17.475 3.125H43.725C46.3771 3.125 48.9207 4.17857 50.796 6.05393C52.6714 7.9293 53.725 10.4728 53.725 13.125V46.875C53.725 49.5272 52.6714 52.0707 50.796 53.9461C48.9207 55.8214 46.3771 56.875 43.725 56.875ZM17.475 6.875C15.8174 6.875 14.2277 7.53348 13.0556 8.70558C11.8835 9.87769 11.225 11.4674 11.225 13.125V46.875C11.225 48.5326 11.8835 50.1223 13.0556 51.2944C14.2277 52.4665 15.8174 53.125 17.475 53.125H43.725C45.3826 53.125 46.9723 52.4665 48.1444 51.2944C49.3165 50.1223 49.975 48.5326 49.975 46.875V13.125C49.975 11.4674 49.3165 9.87769 48.1444 8.70558C46.9723 7.53348 45.3826 6.875 43.725 6.875H17.475Z" fill="black"/>
</svg>
