<svg width="61" height="60" viewBox="0 0 61 60" fill="none" xmlns="http://www.w3.org/2000/svg">
<path d="M21.2001 31.8751C20.8304 31.8701 20.4703 31.756 20.1653 31.547C19.8603 31.338 19.6238 31.0435 19.4858 30.7005C19.3477 30.3574 19.3141 29.9813 19.3892 29.6192C19.4644 29.2571 19.6449 28.9254 19.9081 28.6657C20.1713 28.4059 20.5054 28.2298 20.8684 28.1595C21.2314 28.0891 21.6071 28.1277 21.9483 28.2703C22.2894 28.4129 22.5808 28.6533 22.7858 28.961C22.9907 29.2688 23.1001 29.6303 23.1001 30.0001C23.0935 30.4996 22.8904 30.9765 22.5348 31.3274C22.1792 31.6784 21.6997 31.8751 21.2001 31.8751Z" fill="black"/>
<path d="M30.8 31.875C31.8356 31.875 32.675 31.0355 32.675 30C32.675 28.9645 31.8356 28.125 30.8 28.125C29.7645 28.125 28.925 28.9645 28.925 30C28.925 31.0355 29.7645 31.875 30.8 31.875Z" fill="black"/>
<path d="M40.8 31.9251C40.4232 31.93 40.0534 31.8228 39.7377 31.6171C39.422 31.4114 39.1746 31.1164 39.0269 30.7697C38.8793 30.423 38.838 30.0402 38.9085 29.67C38.979 29.2998 39.1579 28.9589 39.4226 28.6907C39.6873 28.4224 40.0258 28.239 40.395 28.1636C40.7643 28.0883 41.1476 28.1244 41.4962 28.2674C41.8448 28.4105 42.1431 28.654 42.353 28.9669C42.5629 29.2799 42.675 29.6482 42.675 30.0251C42.675 30.5247 42.4783 31.0042 42.1274 31.3598C41.7764 31.7154 41.2996 31.9185 40.8 31.9251Z" fill="black"/>
<path d="M4.92504 31.875C4.50855 31.8775 4.1031 31.7413 3.77264 31.4878C3.44219 31.2343 3.20554 30.878 3.10004 30.475C2.97701 29.9946 3.04673 29.4851 3.29431 29.0553C3.54188 28.6256 3.94768 28.3096 4.42504 28.175C4.42504 28.1751 10.575 26.5 10.575 22.5V11.25C10.5545 10.3974 10.7073 9.54947 11.0241 8.75763C11.341 7.96579 11.8154 7.24653 12.4184 6.64345C13.0215 6.04036 13.7408 5.56601 14.5326 5.24915C15.3245 4.93228 16.1724 4.77949 17.025 4.80005C17.5223 4.80005 17.9992 4.99759 18.3509 5.34922C18.7025 5.70085 18.9 6.17777 18.9 6.67505C18.9 7.17233 18.7025 7.64924 18.3509 8.00087C17.9992 8.3525 17.5223 8.55005 17.025 8.55005C16.6605 8.51918 16.2937 8.56868 15.9503 8.69507C15.607 8.82146 15.2957 9.02166 15.0382 9.28153C14.7807 9.5414 14.5834 9.85461 14.4602 10.1991C14.3369 10.5435 14.2908 10.9108 14.325 11.275V22.5C14.325 29.425 5.75004 31.75 5.37504 31.85L4.92504 31.875Z" fill="black"/>
<path d="M17.025 55.2C16.8678 55.2262 16.7073 55.2262 16.5501 55.2C16.1751 55.2 7.60005 52.7 7.60005 45.85V34.575C7.62992 34.2151 7.58143 33.8529 7.45792 33.5135C7.33441 33.174 7.13881 32.8654 6.88458 32.6088C6.63036 32.3522 6.32355 32.1537 5.98527 32.027C5.64699 31.9004 5.28529 31.8485 4.92505 31.875C4.42777 31.875 3.95085 31.6775 3.59922 31.3259C3.24759 30.9742 3.05005 30.4973 3.05005 30C3.05005 29.5028 3.24759 29.0259 3.59922 28.6742C3.95085 28.3226 4.42777 28.125 4.92505 28.125C5.77346 28.108 6.61657 28.2626 7.40377 28.5795C8.19097 28.8963 8.90605 29.369 9.50609 29.969C10.1061 30.569 10.5788 31.2841 10.8956 32.0713C11.2125 32.8585 11.3671 33.7016 11.35 34.55V45.8C11.35 49.8 17.425 51.5 17.475 51.525C17.7163 51.5801 17.9438 51.6837 18.1437 51.8295C18.3437 51.9752 18.5119 52.1601 18.6382 52.3729C18.7644 52.5857 18.8461 52.8219 18.8782 53.0673C18.9104 53.3126 18.8923 53.5619 18.8251 53.8C18.7245 54.2009 18.4926 54.5566 18.1664 54.8104C17.8402 55.0641 17.4383 55.2013 17.025 55.2Z" fill="black"/>
<path d="M56.7001 31.875H56.2251C55.8501 31.875 47.2751 29.375 47.2751 22.525V11.25C47.3054 10.8878 47.2564 10.5233 47.1315 10.1819C47.0065 9.84058 46.8086 9.53058 46.5516 9.27354C46.2945 9.0165 45.9845 8.81861 45.6432 8.69365C45.3018 8.5687 44.9373 8.51969 44.5751 8.55004C44.0778 8.55004 43.6009 8.35249 43.2492 8.00086C42.8976 7.64923 42.7001 7.17232 42.7001 6.67503C42.7001 6.17775 42.8976 5.70084 43.2492 5.34921C43.6009 4.99758 44.0778 4.80003 44.5751 4.80003C45.4256 4.77961 46.2714 4.93164 47.0615 5.24698C47.8517 5.56231 48.5697 6.03441 49.1725 6.6348C49.7752 7.2352 50.2501 7.95144 50.5685 8.74035C50.8869 9.52925 51.0422 10.3745 51.0251 11.225V22.5C51.0251 26.5 57.1001 28.2 57.1501 28.2C57.632 28.3293 58.0438 28.643 58.2964 29.0734C58.549 29.5037 58.6222 30.0162 58.5001 30.5C58.3948 30.8963 58.1609 31.2463 57.8351 31.4952C57.5093 31.7441 57.1101 31.8777 56.7001 31.875Z" fill="black"/>
<path d="M44.575 55.2001C44.1278 55.1886 43.6993 55.0176 43.3671 54.718C43.0349 54.4183 42.8207 54.0097 42.7634 53.566C42.706 53.1223 42.8092 52.6727 43.0544 52.2984C43.2995 51.9241 43.6704 51.6498 44.1 51.5251C44.1 51.5251 50.25 49.8501 50.25 45.8001V34.5751C50.2296 33.7246 50.3816 32.8787 50.697 32.0886C51.0123 31.2985 51.4844 30.5804 52.0848 29.9777C52.6852 29.3749 53.4014 28.9001 54.1903 28.5817C54.9792 28.2633 55.8245 28.1079 56.675 28.1251C57.1723 28.1251 57.6492 28.3226 58.0009 28.6742C58.3525 29.0259 58.55 29.5028 58.55 30.0001C58.55 30.4973 58.3525 30.9742 58.0009 31.3259C57.6492 31.6775 57.1723 31.8751 56.675 31.8751C56.3125 31.848 55.9485 31.9004 55.6082 32.0285C55.268 32.1566 54.9599 32.3574 54.7052 32.6168C54.4505 32.8762 54.2555 33.1881 54.1337 33.5306C54.0119 33.8731 53.9663 34.2381 54 34.6001V45.8001C54 52.7251 45.425 55.0501 45.05 55.1501C44.8956 55.1929 44.735 55.2098 44.575 55.2001Z" fill="black"/>
</svg>
