<svg width="60" height="60" viewBox="0 0 60 60" fill="none" xmlns="http://www.w3.org/2000/svg">
<path d="M43.175 53.6H16.825C13.6888 53.6 10.6811 52.3542 8.46346 50.1365C6.24584 47.9189 5 44.9112 5 41.775V31.2C5.00661 28.0658 6.25457 25.0619 8.47076 22.8458C10.6869 20.6296 13.6908 19.3816 16.825 19.375H43.175C46.3092 19.3816 49.3131 20.6296 51.5292 22.8458C53.7454 25.0619 54.9934 28.0658 55 31.2V41.775C55 44.9112 53.7542 47.9189 51.5365 50.1365C49.3189 52.3542 46.3112 53.6 43.175 53.6ZM16.825 24.375C15.0149 24.375 13.2789 25.0941 11.999 26.374C10.7191 27.6539 10 29.3899 10 31.2V41.775C10 43.5851 10.7191 45.3211 11.999 46.601C13.2789 47.8809 15.0149 48.6 16.825 48.6H43.175C44.9851 48.6 46.7211 47.8809 48.001 46.601C49.2809 45.3211 50 43.5851 50 41.775V31.2C50 29.3899 49.2809 27.6539 48.001 26.374C46.7211 25.0941 44.9851 24.375 43.175 24.375H16.825Z" fill="black"/>
<path d="M30 42.2252H29.7L7.2 39.4252C6.53696 39.3456 5.93268 39.0059 5.5201 38.4808C5.10752 37.9557 4.92044 37.2882 5 36.6252C5.07957 35.9621 5.41926 35.3579 5.94437 34.9453C6.46947 34.5327 7.13696 34.3456 7.8 34.4252L30 37.2002L52.2 34.4252C52.5283 34.3858 52.8612 34.4114 53.1795 34.5007C53.4979 34.5899 53.7956 34.741 54.0556 34.9453C54.3156 35.1496 54.5329 35.4031 54.6949 35.6913C54.8569 35.9795 54.9606 36.2969 55 36.6252C55.0394 36.9535 55.0137 37.2863 54.9245 37.6047C54.8353 37.9231 54.6842 38.2208 54.4799 38.4808C54.2756 38.7408 54.0221 38.958 53.7339 39.1201C53.4456 39.2821 53.1283 39.3858 52.8 39.4252L30.3 42.2252H30Z" fill="black"/>
<path d="M39.8499 22.7751C39.1869 22.7751 38.551 22.5117 38.0821 22.0429C37.6133 21.574 37.3499 20.9381 37.3499 20.2751C37.3499 15.2751 34.0499 11.4001 29.9999 11.4001C25.9499 11.4001 22.6499 15.3751 22.6499 20.2751C22.6499 20.9381 22.3865 21.574 21.9177 22.0429C21.4488 22.5117 20.8129 22.7751 20.1499 22.7751C19.4869 22.7751 18.851 22.5117 18.3821 22.0429C17.9133 21.574 17.6499 20.9381 17.6499 20.2751C17.6499 12.6251 23.1999 6.40009 29.9999 6.40009C36.7999 6.40009 42.3499 12.6251 42.3499 20.2751C42.3499 20.6034 42.2852 20.9285 42.1596 21.2318C42.034 21.5351 41.8498 21.8107 41.6177 22.0429C41.3855 22.275 41.1099 22.4591 40.8066 22.5848C40.5033 22.7104 40.1782 22.7751 39.8499 22.7751Z" fill="black"/>
</svg>
