<svg width="60" height="60" viewBox="0 0 60 60" fill="none" xmlns="http://www.w3.org/2000/svg">
<path d="M16.9249 29.275C16.5916 29.2776 16.2637 29.1913 15.9749 29.025L8.79987 24.8C8.58647 24.6753 8.39974 24.5097 8.25033 24.3128C8.10091 24.1159 7.99175 23.8915 7.92907 23.6523C7.86639 23.4132 7.85142 23.1641 7.88502 22.9192C7.91861 22.6743 8.00012 22.4384 8.12487 22.225C8.24963 22.0116 8.41519 21.8249 8.61212 21.6755C8.80904 21.5261 9.03346 21.4169 9.27258 21.3542C9.51169 21.2916 9.7608 21.2766 10.0057 21.3102C10.2506 21.3438 10.4865 21.4253 10.6999 21.55L17.8749 25.8C18.2218 26.0119 18.4904 26.3307 18.6404 26.7085C18.7903 27.0863 18.8135 27.5026 18.7063 27.8947C18.5991 28.2868 18.3674 28.6334 18.0461 28.8824C17.7248 29.1313 17.3313 29.2691 16.9249 29.275Z" fill="black"/>
<path d="M43.0749 29.275C42.6685 29.2691 42.275 29.1313 41.9537 28.8824C41.6324 28.6334 41.4007 28.2868 41.2935 27.8947C41.1864 27.5026 41.2095 27.0863 41.3594 26.7085C41.5094 26.3307 41.778 26.0119 42.1249 25.8L49.2999 21.55C49.7309 21.2981 50.2443 21.2277 50.7272 21.3542C51.2101 21.4808 51.623 21.7941 51.8749 22.225C52.1269 22.656 52.1973 23.1694 52.0707 23.6523C51.9442 24.1353 51.6309 24.5481 51.1999 24.8L44.0249 29.025C43.7361 29.1913 43.4082 29.2776 43.0749 29.275Z" fill="black"/>
<path d="M50.9748 52.225C50.6416 52.2276 50.3136 52.1413 50.0248 51.975L42.8498 47.75C42.4188 47.498 42.1056 47.0852 41.979 46.6023C41.8524 46.1194 41.9229 45.606 42.1748 45.175C42.4268 44.744 42.8396 44.4308 43.3225 44.3042C43.8054 44.1776 44.3188 44.248 44.7498 44.5L51.9498 48.75C52.2984 48.963 52.568 49.284 52.7174 49.6643C52.8668 50.0445 52.8879 50.4632 52.7775 50.8565C52.6672 51.2499 52.4314 51.5964 52.1059 51.8434C51.7805 52.0905 51.3834 52.2244 50.9748 52.225Z" fill="black"/>
<path d="M10.4748 52.225C10.0684 52.2191 9.67492 52.0813 9.35362 51.8323C9.03232 51.5834 8.80063 51.2367 8.69344 50.8446C8.58626 50.4526 8.60938 50.0363 8.75933 49.6585C8.90929 49.2807 9.17794 48.9618 9.52484 48.75L16.6998 44.5C16.9132 44.3752 17.1491 44.2937 17.394 44.2601C17.6389 44.2265 17.888 44.2415 18.1271 44.3042C18.3662 44.3669 18.5907 44.476 18.7876 44.6255C18.9845 44.7749 19.1501 44.9616 19.2748 45.175C19.3996 45.3884 19.4811 45.6243 19.5147 45.8692C19.5483 46.1141 19.5333 46.3632 19.4706 46.6023C19.408 46.8414 19.2988 47.0658 19.1494 47.2628C19 47.4597 18.8132 47.6252 18.5998 47.75L11.4248 51.975C11.136 52.1413 10.8081 52.2276 10.4748 52.225Z" fill="black"/>
<path d="M30 53.6C26.5388 53.6 23.1554 52.5736 20.2775 50.6507C17.3997 48.7278 15.1566 45.9946 13.8321 42.7969C12.5076 39.5992 12.161 36.0806 12.8363 32.6859C13.5115 29.2912 15.1782 26.173 17.6256 23.7256C20.0731 21.2782 23.1913 19.6115 26.5859 18.9362C29.9806 18.261 33.4993 18.6076 36.697 19.9321C39.8947 21.2566 42.6278 23.4996 44.5507 26.3775C46.4737 29.2554 47.5 32.6388 47.5 36.1C47.5 40.7413 45.6563 45.1925 42.3744 48.4743C39.0925 51.7562 34.6413 53.6 30 53.6ZM30 22.5C27.3003 22.5 24.6612 23.3005 22.4165 24.8004C20.1717 26.3003 18.4222 28.4321 17.3891 30.9264C16.3559 33.4206 16.0856 36.1651 16.6123 38.813C17.139 41.4608 18.439 43.893 20.348 45.802C22.257 47.711 24.6892 49.011 27.337 49.5377C29.9849 50.0644 32.7294 49.7941 35.2236 48.7609C37.7178 47.7278 39.8497 45.9782 41.3496 43.7335C42.8494 41.4888 43.65 38.8497 43.65 36.15C43.6434 32.5318 42.2032 29.0637 39.6447 26.5053C37.0863 23.9468 33.6182 22.5066 30 22.5Z" fill="black"/>
<path d="M14.475 38.1H6.44995C5.95267 38.1 5.47576 37.9025 5.12413 37.5509C4.7725 37.1992 4.57495 36.7223 4.57495 36.225C4.57495 35.7278 4.7725 35.2508 5.12413 34.8992C5.47576 34.5476 5.95267 34.35 6.44995 34.35H14.475C14.9722 34.35 15.4491 34.5476 15.8008 34.8992C16.1524 35.2508 16.35 35.7278 16.35 36.225C16.35 36.7223 16.1524 37.1992 15.8008 37.5509C15.4491 37.9025 14.9722 38.1 14.475 38.1Z" fill="black"/>
<path d="M53.55 38.1H45.525C45.0277 38.1 44.5508 37.9025 44.1992 37.5509C43.8476 37.1992 43.65 36.7223 43.65 36.225C43.65 35.7278 43.8476 35.2508 44.1992 34.8992C44.5508 34.5476 45.0277 34.35 45.525 34.35H53.55C54.0473 34.35 54.5242 34.5476 54.8759 34.8992C55.2275 35.2508 55.425 35.7278 55.425 36.225C55.425 36.7223 55.2275 37.1992 54.8759 37.5509C54.5242 37.9025 54.0473 38.1 53.55 38.1Z" fill="black"/>
<path d="M39.8251 26.1H39.4251C39.1832 26.0469 38.9543 25.9463 38.7515 25.8042C38.5488 25.6621 38.3762 25.4812 38.2437 25.272C38.1112 25.0628 38.0214 24.8294 37.9796 24.5854C37.9378 24.3413 37.9448 24.0914 38.0001 23.85C38.0824 23.4047 38.1242 22.9529 38.1251 22.5V18.275C38.1317 17.2062 37.9261 16.1467 37.5201 15.1579C37.1141 14.1691 36.5159 13.2708 35.7601 12.515C35.0043 11.7592 34.106 11.1609 33.1172 10.755C32.1284 10.349 31.0689 10.1434 30.0001 10.15C27.8452 10.15 25.7786 11.006 24.2548 12.5298C22.7311 14.0535 21.8751 16.1201 21.8751 18.275V22.5C21.8728 22.9696 21.9147 23.4383 22.0001 23.9C22.0554 24.1414 22.0623 24.3913 22.0205 24.6354C21.9787 24.8794 21.8889 25.1128 21.7565 25.322C21.624 25.5312 21.4514 25.7121 21.2486 25.8542C21.0458 25.9963 20.8169 26.0969 20.5751 26.15C20.0918 26.2476 19.5895 26.1535 19.1743 25.8876C18.7591 25.6217 18.4636 25.2048 18.3501 24.725C18.1947 23.9937 18.1193 23.2477 18.1251 22.5V18.275C18.1251 15.1256 19.3762 12.1051 21.6032 9.87813C23.8302 7.65114 26.8506 6.40002 30.0001 6.40002C33.1495 6.40002 36.17 7.65114 38.397 9.87813C40.624 12.1051 41.8751 15.1256 41.8751 18.275V22.5C41.8808 23.2477 41.8054 23.9937 41.6501 24.725C41.5362 25.1212 41.2966 25.4695 40.9674 25.7175C40.6382 25.9656 40.2372 26.0998 39.8251 26.1Z" fill="black"/>
</svg>
