<svg width="60" height="60" viewBox="0 0 60 60" fill="none" xmlns="http://www.w3.org/2000/svg">
<path d="M41.975 56.175H18.025C15.2222 56.1421 12.5453 55.0056 10.575 53.0118C8.60468 51.0181 7.49981 48.328 7.5 45.525V14.475C7.49981 11.672 8.60468 8.98188 10.575 6.98818C12.5453 4.99447 15.2222 3.85791 18.025 3.82501H41.975C44.7996 3.82501 47.5084 4.94706 49.5057 6.94433C51.5029 8.94159 52.625 11.6505 52.625 14.475V45.525C52.625 48.3496 51.5029 51.0584 49.5057 53.0557C47.5084 55.053 44.7996 56.175 41.975 56.175ZM18.025 8.82501C16.5483 8.85769 15.1431 9.46735 14.1104 10.5234C13.0777 11.5795 12.4996 12.9979 12.5 14.475V45.525C12.5 47.0235 13.0953 48.4606 14.1548 49.5202C15.2144 50.5797 16.6515 51.175 18.15 51.175H42.1C42.842 51.175 43.5767 51.0289 44.2622 50.7449C44.9477 50.461 45.5705 50.0448 46.0952 49.5202C46.6198 48.9955 47.036 48.3727 47.3199 47.6872C47.6039 47.0017 47.75 46.267 47.75 45.525V14.475C47.75 12.9765 47.1547 11.5394 46.0952 10.4799C45.0356 9.42028 43.5985 8.82501 42.1 8.82501H18.025Z" fill="black"/>
<path d="M41.825 30.125H18.175C17.512 30.125 16.8761 29.8616 16.4073 29.3928C15.9384 28.9239 15.675 28.288 15.675 27.625V13.425C15.675 12.7619 15.9384 12.1261 16.4073 11.6572C16.8761 11.1884 17.512 10.925 18.175 10.925H41.825C42.4881 10.925 43.124 11.1884 43.5928 11.6572C44.0617 12.1261 44.325 12.7619 44.325 13.425V27.625C44.325 28.288 44.0617 28.9239 43.5928 29.3928C43.124 29.8616 42.4881 30.125 41.825 30.125ZM20.675 25.125H39.325V15.925H20.675V25.125Z" fill="black"/>
<path d="M39.8 32.3751H36.75C35.6316 32.3751 34.725 33.2817 34.725 34.4001V44.5501C34.725 45.6684 35.6316 46.5751 36.75 46.5751H39.8C40.9183 46.5751 41.825 45.6684 41.825 44.5501V34.4001C41.825 33.2817 40.9183 32.3751 39.8 32.3751Z" fill="black"/>
<path d="M24.2501 33.2251V37.5001C24.2501 38.0001 23.4751 38.3751 22.5251 38.3751H20.0001C19.0501 38.3751 18.2751 38.0001 18.2751 37.5001V33.2251C18.2751 32.7501 19.0501 32.3751 20.0001 32.3751H22.5001C23.4751 32.5001 24.2501 32.7501 24.2501 33.2251Z" fill="black"/>
<path d="M24.2501 41.35V45.7C24.2501 46.175 23.4751 46.575 22.5251 46.575H20.0001C19.0501 46.575 18.2751 46.175 18.2751 45.7V41.35C18.2751 40.875 19.0501 40.475 20.0001 40.475H22.5001C23.4751 40.475 24.2501 40.875 24.2501 41.35Z" fill="black"/>
<path d="M32.5 41.35V45.7C32.5 46.175 31.725 46.575 30.75 46.575H28.25C27.275 46.575 26.5 46.175 26.5 45.7V41.35C26.5 40.875 27.275 40.475 28.25 40.475H30.75C31.6 40.475 32.5 40.875 32.5 41.35Z" fill="black"/>
<path d="M32.5 33.2251V37.5001C32.5 38.0001 31.725 38.3751 30.75 38.3751H28.25C27.275 38.3751 26.5 38.0001 26.5 37.5001V33.2251C26.5 32.7501 27.275 32.3751 28.25 32.3751H30.75C31.6 32.5001 32.5 32.7501 32.5 33.2251Z" fill="black"/>
</svg>
