<svg width="60" height="60" viewBox="0 0 60 60" fill="none" xmlns="http://www.w3.org/2000/svg">
<path d="M15 55.65C12.3478 55.65 9.8043 54.5964 7.92893 52.721C6.05357 50.8457 5 48.3021 5 45.65V23.15C5 20.4978 6.05357 17.9542 7.92893 16.0789C9.8043 14.2035 12.3478 13.15 15 13.15H17.5C18.163 13.15 18.7989 13.4133 19.2678 13.8822C19.7366 14.351 20 14.9869 20 15.65C20 16.313 19.7366 16.9489 19.2678 17.4177C18.7989 17.8866 18.163 18.15 17.5 18.15H15C13.6739 18.15 12.4021 18.6767 11.4645 19.6144C10.5268 20.5521 10 21.8239 10 23.15V45.65C10 46.976 10.5268 48.2478 11.4645 49.1855C12.4021 50.1232 13.6739 50.65 15 50.65H45C46.3239 50.6444 47.5916 50.1139 48.525 49.175C48.9989 48.7039 49.3737 48.1426 49.627 47.5243C49.8803 46.906 50.0072 46.2431 50 45.575V23.075C50 21.7489 49.4732 20.4771 48.5355 19.5394C47.5979 18.6017 46.3261 18.075 45 18.075H42.5C41.837 18.075 41.2011 17.8116 40.7322 17.3427C40.2634 16.8739 40 16.238 40 15.575C40 14.9119 40.2634 14.276 40.7322 13.8072C41.2011 13.3383 41.837 13.075 42.5 13.075H45C47.6522 13.075 50.1957 14.1285 52.0711 16.0039C53.9464 17.8792 55 20.4228 55 23.075V45.575C55 48.2271 53.9464 50.7707 52.0711 52.646C50.1957 54.5214 47.6522 55.575 45 55.575H15V55.65Z" fill="black"/>
<path d="M25 18.125C24.337 18.125 23.7011 17.8616 23.2322 17.3928C22.7634 16.9239 22.5 16.288 22.5 15.625C22.5 14.962 22.7634 14.3261 23.2322 13.8572C23.7011 13.3884 24.337 13.125 25 13.125H35C35.663 13.125 36.2989 13.3884 36.7678 13.8572C37.2366 14.3261 37.5 14.962 37.5 15.625C37.5 16.288 37.2366 16.9239 36.7678 17.3928C36.2989 17.8616 35.663 18.125 35 18.125H25Z" fill="black"/>
<path d="M21.2 21.8991C20.3773 21.8902 19.5645 21.7176 18.809 21.3914C18.0536 21.0652 17.3707 20.5919 16.8 19.9991C16.229 19.4277 15.7762 18.7495 15.4673 18.0031C15.1585 17.2567 14.9997 16.4568 15.0001 15.6491V10.6491C14.9968 9.82949 15.1553 9.01733 15.4667 8.25919C15.7781 7.50105 16.2361 6.81185 16.8144 6.23116C17.3928 5.65046 18.0802 5.1897 18.8371 4.8753C19.5939 4.5609 20.4055 4.39906 21.225 4.39907C22.041 4.39351 22.85 4.54972 23.6052 4.85867C24.3604 5.16763 25.0469 5.62321 25.625 6.19907C26.2141 6.77643 26.6831 7.46469 27.0049 8.22415C27.3267 8.98361 27.495 9.79926 27.5 10.6241V15.6241C27.5 17.2883 26.8389 18.8844 25.6621 20.0612C24.4854 21.238 22.8893 21.8991 21.225 21.8991H21.2ZM21.2 9.39907C20.8685 9.39907 20.5506 9.53077 20.3162 9.76519C20.0817 9.99961 19.9501 10.3175 19.9501 10.6491V15.6491C19.9565 15.9786 20.0902 16.2928 20.3232 16.5259C20.5563 16.7589 20.8705 16.8927 21.2 16.8991C21.3696 16.9024 21.5381 16.8719 21.6957 16.8093C21.8532 16.7467 21.9968 16.6533 22.1178 16.5346C22.2389 16.4159 22.335 16.2742 22.4007 16.1178C22.4663 15.9615 22.5001 15.7936 22.5001 15.6241V10.6241C22.4935 10.2969 22.3589 9.98534 22.1252 9.7563C21.8915 9.52726 21.5773 9.399 21.2501 9.39907H21.2Z" fill="black"/>
<path d="M38.7 21.85C37.0532 21.8303 35.48 21.1639 34.3201 19.9947C33.1602 18.8254 32.5065 17.247 32.5001 15.6V10.6C32.4968 9.7804 32.6553 8.96823 32.9667 8.21009C33.2781 7.45195 33.7361 6.76276 34.3144 6.18207C34.8928 5.60137 35.5802 5.1406 36.3371 4.82621C37.0939 4.51181 37.9055 4.34997 38.725 4.34998C40.3807 4.34992 41.9692 5.00417 43.1446 6.17017C44.3199 7.33617 44.9869 8.91942 45 10.575V15.575C45.0001 17.2306 44.3459 18.8191 43.1799 19.9945C42.0139 21.1699 40.4306 21.8368 38.7751 21.85H38.7ZM38.7 16.85C39.0316 16.85 39.3495 16.7183 39.5839 16.4839C39.8184 16.2494 39.95 15.9315 39.95 15.6V10.6C39.95 10.2685 39.8184 9.95051 39.5839 9.71609C39.3495 9.48167 39.0316 9.34998 38.7 9.34998C38.3685 9.34998 38.0506 9.48167 37.8162 9.71609C37.5817 9.95051 37.45 10.2685 37.45 10.6V15.6C37.45 15.9315 37.5817 16.2494 37.8162 16.4839C38.0506 16.7183 38.3685 16.85 38.7 16.85Z" fill="black"/>
<path d="M7.5 30.675C6.83696 30.675 6.20107 30.4117 5.73223 29.9428C5.26339 29.474 5 28.8381 5 28.175C5 27.512 5.26339 26.8761 5.73223 26.4073C6.20107 25.9384 6.83696 25.675 7.5 25.675H52.5C53.163 25.675 53.7989 25.9384 54.2678 26.4073C54.7366 26.8761 55 27.512 55 28.175C55 28.8381 54.7366 29.474 54.2678 29.9428C53.7989 30.4117 53.163 30.675 52.5 30.675H7.5Z" fill="black"/>
</svg>
