<svg width="60" height="60" viewBox="0 0 60 60" fill="none" xmlns="http://www.w3.org/2000/svg">
<path d="M22.9251 51.225C20.9367 51.2233 19.0303 50.4319 17.6251 49.025L6.60014 37.975C5.19563 36.5687 4.40674 34.6625 4.40674 32.675C4.40674 30.6875 5.19563 28.7813 6.60014 27.375L29.7251 4.275C31.1314 2.8705 33.0376 2.0816 35.0251 2.0816C37.0126 2.0816 38.9189 2.8705 40.3251 4.275L51.3751 15.3C52.7796 16.7063 53.5685 18.6125 53.5685 20.6C53.5685 22.5875 52.7796 24.4937 51.3751 25.9L28.2501 49.025C27.5514 49.7246 26.7212 50.2792 25.8073 50.6567C24.8934 51.0343 23.9139 51.2274 22.9251 51.225ZM35.0001 7.075C34.6711 7.0731 34.345 7.13616 34.0404 7.26058C33.7358 7.38499 33.4587 7.5683 33.2251 7.8L10.1251 30.9C9.89082 31.1324 9.70483 31.4089 9.57791 31.7136C9.45099 32.0182 9.38564 32.345 9.38564 32.675C9.38564 33.005 9.45099 33.3318 9.57791 33.6364C9.70483 33.9411 9.89082 34.2176 10.1251 34.45L21.1501 45.475C21.3825 45.7093 21.659 45.8953 21.9637 46.0222C22.2683 46.1492 22.5951 46.2145 22.9251 46.2145C23.2552 46.2145 23.5819 46.1492 23.8866 46.0222C24.1912 45.8953 24.4677 45.7093 24.7001 45.475L47.8001 22.5C48.0318 22.2664 48.2151 21.9894 48.3396 21.6848C48.464 21.3802 48.527 21.054 48.5251 20.725C48.5224 20.0692 48.262 19.4407 47.8001 18.975L36.7751 7.8C36.5415 7.5683 36.2645 7.38499 35.9599 7.26058C35.6553 7.13616 35.3291 7.0731 35.0001 7.075Z" fill="black"/>
<path d="M34.9999 29.325C34.4612 29.3266 33.9276 29.2214 33.4298 29.0154C32.932 28.8095 32.48 28.5068 32.0999 28.125L28.1249 24.15C27.744 23.7693 27.4417 23.3172 27.2355 22.8196C27.0293 22.322 26.9232 21.7887 26.9232 21.25C26.9232 20.7114 27.0293 20.1781 27.2355 19.6805C27.4417 19.1829 27.744 18.7308 28.1249 18.35L32.3249 14.125C33.1104 13.3776 34.1532 12.9608 35.2374 12.9608C36.3217 12.9608 37.3645 13.3776 38.1499 14.125L42.1249 18.1C42.8959 18.8733 43.3288 19.9206 43.3288 21.0125C43.3288 22.1044 42.8959 23.1518 42.1249 23.925L37.8999 28.125C37.5199 28.5068 37.0679 28.8095 36.5701 29.0154C36.0723 29.2214 35.5386 29.3266 34.9999 29.325ZM32.2749 21.25L34.9999 23.975L37.9499 21L35.2499 18.3L32.2749 21.25Z" fill="black"/>
<path d="M52.5 52.5H5C4.33696 52.5 3.70107 52.2366 3.23223 51.7678C2.76339 51.2989 2.5 50.663 2.5 50C2.5 49.337 2.76339 48.7011 3.23223 48.2322C3.70107 47.7634 4.33696 47.5 5 47.5H52.5C53.163 47.5 53.7989 47.7634 54.2678 48.2322C54.7366 48.7011 55 49.337 55 50C55 50.663 54.7366 51.2989 54.2678 51.7678C53.7989 52.2366 53.163 52.5 52.5 52.5Z" fill="black"/>
<path d="M17.4998 34.9999C17.1708 35.0018 16.8447 34.9388 16.5401 34.8143C16.2355 34.6899 15.9584 34.5066 15.7248 34.2749C15.4905 34.0425 15.3045 33.766 15.1776 33.4614C15.0507 33.1567 14.9854 32.8299 14.9854 32.4999C14.9854 32.1699 15.0507 31.8431 15.1776 31.5385C15.3045 31.2338 15.4905 30.9573 15.7248 30.7249L20.7248 25.7249C21.1956 25.2542 21.8341 24.9897 22.4998 24.9897C23.1656 24.9897 23.8041 25.2542 24.2748 25.7249C24.7456 26.1957 25.0101 26.8342 25.0101 27.4999C25.0101 28.1657 24.7456 28.8042 24.2748 29.2749L19.2748 34.2749C19.0412 34.5066 18.7642 34.6899 18.4596 34.8143C18.155 34.9388 17.8289 35.0018 17.4998 34.9999Z" fill="black"/>
<path d="M22.4998 39.9999C22.1708 40.0018 21.8447 39.9388 21.5401 39.8143C21.2355 39.6899 20.9584 39.5066 20.7248 39.2749C20.4905 39.0425 20.3045 38.766 20.1776 38.4614C20.0507 38.1567 19.9854 37.8299 19.9854 37.4999C19.9854 37.1699 20.0507 36.8431 20.1776 36.5385C20.3045 36.2338 20.4905 35.9573 20.7248 35.7249L25.7248 30.7249C26.1956 30.2542 26.8341 29.9897 27.4998 29.9897C28.1656 29.9897 28.8041 30.2542 29.2748 30.7249C29.7456 31.1957 30.0101 31.8342 30.0101 32.4999C30.0101 33.1657 29.7456 33.8042 29.2748 34.2749L24.2748 39.2749C24.0412 39.5066 23.7642 39.6899 23.4596 39.8143C23.155 39.9388 22.8289 40.0018 22.4998 39.9999Z" fill="black"/>
</svg>
