<svg width="60" height="60" viewBox="0 0 60 60" fill="none" xmlns="http://www.w3.org/2000/svg">
<path d="M47.5 53.75H12.5C11.837 53.75 11.2011 53.4866 10.7322 53.0178C10.2634 52.5489 10 51.913 10 51.25V36.4C10.0066 31.721 11.8683 27.2355 15.1769 23.9269C18.4855 20.6183 22.971 18.7566 27.65 18.75H32.35C37.029 18.7566 41.5145 20.6183 44.8231 23.9269C48.1317 27.2355 49.9934 31.721 50 36.4V51.25C50 51.913 49.7366 52.5489 49.2678 53.0178C48.7989 53.4866 48.163 53.75 47.5 53.75ZM15 48.75H45V36.4C44.9934 33.047 43.6585 29.8333 41.2876 27.4624C38.9167 25.0915 35.703 23.7566 32.35 23.75H27.65C24.297 23.7566 21.0833 25.0915 18.7124 27.4624C16.3415 29.8333 15.0066 33.047 15 36.4V48.75Z" fill="black"/>
<path d="M35 24C34.4447 23.9911 33.9082 23.7976 33.475 23.45C32.9705 23.0424 32.6441 22.4547 32.5648 21.8109C32.4855 21.1672 32.6595 20.5178 33.05 20L40 11.25H20.125L26.95 20C27.2762 20.5273 27.3949 21.157 27.2829 21.7668C27.1709 22.3766 26.8363 22.9231 26.344 23.3001C25.8518 23.6771 25.237 23.8577 24.619 23.8068C24.0011 23.756 23.4241 23.4774 23 23.025L13 10.3C12.7067 9.92895 12.5247 9.48232 12.4751 9.01196C12.4255 8.5416 12.5103 8.06682 12.7197 7.64274C12.9292 7.21867 13.2546 6.8627 13.6582 6.61617C14.0618 6.36964 14.5271 6.24267 15 6.24999H45C45.4708 6.24745 45.9328 6.37789 46.3327 6.6263C46.7326 6.87472 47.0543 7.23101 47.2606 7.65417C47.467 8.07733 47.5496 8.55016 47.4991 9.01824C47.4486 9.48632 47.2669 9.93061 46.975 10.3L36.975 23.025C36.7421 23.3275 36.443 23.5727 36.1007 23.7417C35.7583 23.9107 35.3818 23.9991 35 24Z" fill="black"/>
</svg>
