<svg width="60" height="60" viewBox="0 0 60 60" fill="none" xmlns="http://www.w3.org/2000/svg">
<path d="M45.8251 36.45C45.162 36.45 44.5261 36.1866 44.0573 35.7177C43.5884 35.2489 43.3251 34.613 43.3251 33.95V20.775C43.3251 17.2409 41.9212 13.8517 39.4223 11.3528C36.9233 8.85383 33.5341 7.44995 30.0001 7.44995C26.466 7.44995 23.0768 8.85383 20.5779 11.3528C18.0789 13.8517 16.675 17.2409 16.675 20.775V33.95C16.675 34.613 16.4117 35.2489 15.9428 35.7177C15.474 36.1866 14.8381 36.45 14.175 36.45C13.512 36.45 12.8761 36.1866 12.4073 35.7177C11.9384 35.2489 11.675 34.613 11.675 33.95V20.775C11.675 15.9149 13.6057 11.2538 17.0423 7.81722C20.4789 4.38062 25.14 2.44995 30.0001 2.44995C34.8601 2.44995 39.5212 4.38062 42.9578 7.81722C46.3944 11.2538 48.3251 15.9149 48.3251 20.775V33.95C48.3251 34.613 48.0617 35.2489 47.5928 35.7177C47.124 36.1866 46.4881 36.45 45.8251 36.45Z" fill="black"/>
<path d="M53.725 36.4499H6.22498C5.56193 36.4499 4.92605 36.1865 4.45721 35.7176C3.98837 35.2488 3.72498 34.6129 3.72498 33.9499V26.0499C3.72498 25.3868 3.98837 24.7509 4.45721 24.2821C4.92605 23.8133 5.56193 23.5499 6.22498 23.5499C6.88802 23.5499 7.5239 23.8133 7.99274 24.2821C8.46158 24.7509 8.72498 25.3868 8.72498 26.0499V31.4499H51.225V26.0499C51.225 25.3868 51.4884 24.7509 51.9572 24.2821C52.4261 23.8133 53.0619 23.5499 53.725 23.5499C54.388 23.5499 55.0239 23.8133 55.4927 24.2821C55.9616 24.7509 56.225 25.3868 56.225 26.0499V33.9499C56.225 34.6129 55.9616 35.2488 55.4927 35.7176C55.0239 36.1865 54.388 36.4499 53.725 36.4499Z" fill="black"/>
<path d="M30 57.4999C29.337 57.4999 28.7011 57.2365 28.2322 56.7677C27.7634 56.2988 27.5 55.6629 27.5 54.9999V33.9499C27.5 33.2868 27.7634 32.651 28.2322 32.1821C28.7011 31.7133 29.337 31.4499 30 31.4499C30.663 31.4499 31.2989 31.7133 31.7678 32.1821C32.2366 32.651 32.5 33.2868 32.5 33.9499V54.9999C32.5 55.6629 32.2366 56.2988 31.7678 56.7677C31.2989 57.2365 30.663 57.4999 30 57.4999Z" fill="black"/>
<path d="M19.45 57.4999C18.7869 57.4999 18.151 57.2365 17.6822 56.7677C17.2134 56.2988 16.95 55.6629 16.95 54.9999C16.8789 53.2694 17.1683 51.5431 17.7997 49.9304C18.431 48.3177 19.3906 46.8538 20.6176 45.6315C21.8446 44.4092 23.3122 43.4553 24.9273 42.8301C26.5424 42.2049 28.2698 41.9222 30 41.9999C30.663 41.9999 31.2989 42.2633 31.7677 42.7321C32.2366 43.201 32.5 43.8368 32.5 44.4999C32.5 45.1629 32.2366 45.7988 31.7677 46.2676C31.2989 46.7365 30.663 46.9999 30 46.9999C28.933 46.9467 27.8667 47.1168 26.8693 47.4993C25.8719 47.8819 24.9653 48.4684 24.2076 49.2214C23.4498 49.9745 22.8576 50.8774 22.4689 51.8724C22.0802 52.8674 21.9034 53.9326 21.95 54.9999C21.95 55.6629 21.6866 56.2988 21.2177 56.7677C20.7489 57.2365 20.113 57.4999 19.45 57.4999Z" fill="black"/>
<path d="M40.55 57.4999C39.887 57.4999 39.2511 57.2365 38.7822 56.7677C38.3134 56.2988 38.05 55.6629 38.05 54.9999C38.1005 53.9317 37.9264 52.8647 37.539 51.8679C37.1516 50.8711 36.5596 49.9666 35.801 49.2128C35.0425 48.4589 34.1343 47.8725 33.1351 47.4914C32.1359 47.1102 31.0679 46.9428 30 46.9999C29.337 46.9999 28.7011 46.7365 28.2322 46.2676C27.7634 45.7988 27.5 45.1629 27.5 44.4999C27.5 43.8368 27.7634 43.201 28.2322 42.7321C28.7011 42.2633 29.337 41.9999 30 41.9999C31.7301 41.9222 33.4576 42.2049 35.0727 42.8301C36.6878 43.4553 38.1554 44.4092 39.3824 45.6315C40.6093 46.8538 41.5689 48.3177 42.2003 49.9304C42.8317 51.5431 43.121 53.2694 43.05 54.9999C43.05 55.6629 42.7866 56.2988 42.3178 56.7677C41.8489 57.2365 41.213 57.4999 40.55 57.4999Z" fill="black"/>
</svg>
