<svg width="61" height="60" viewBox="0 0 61 60" fill="none" xmlns="http://www.w3.org/2000/svg">
<path d="M26.4748 35.75C26.2279 35.7555 25.9825 35.7095 25.7543 35.6148C25.5261 35.5201 25.3203 35.3788 25.1498 35.2L20.1498 30.2C19.9716 30.0217 19.8311 29.8094 19.7368 29.5756C19.6424 29.3418 19.5962 29.0914 19.6009 28.8393C19.6056 28.5873 19.661 28.3388 19.7639 28.1086C19.8668 27.8785 20.0151 27.6715 20.1998 27.5L25.5498 22.25C25.7304 22.076 25.9435 21.9392 26.1769 21.8476C26.4103 21.7559 26.6595 21.7111 26.9102 21.7158C27.1609 21.7204 27.4083 21.7744 27.6381 21.8746C27.868 21.9749 28.0758 22.1194 28.2498 22.3C28.4238 22.4805 28.5606 22.6936 28.6522 22.927C28.7439 23.1604 28.7887 23.4096 28.784 23.6603C28.7794 23.911 28.7254 24.1584 28.6252 24.3882C28.5249 24.6181 28.3804 24.826 28.1998 25L24.1498 28.925L27.6998 32.5C28.051 32.8515 28.2482 33.3281 28.2482 33.825C28.2482 34.3218 28.051 34.7984 27.6998 35.15C27.3828 35.4987 26.9447 35.7133 26.4748 35.75Z" fill="black"/>
<path d="M39.175 35.75C38.9287 35.7511 38.6846 35.7031 38.4571 35.6086C38.2295 35.5142 38.0231 35.3752 37.85 35.2C37.4989 34.8484 37.3017 34.3718 37.3017 33.875C37.3017 33.3781 37.4989 32.9015 37.85 32.55L41.475 28.925L37.45 25C37.2695 24.8194 37.1262 24.605 37.0285 24.3691C36.9308 24.1332 36.8805 23.8803 36.8805 23.625C36.8805 23.3696 36.9308 23.1167 37.0285 22.8808C37.1262 22.6449 37.2695 22.4305 37.45 22.25C37.8147 21.8853 38.3093 21.6804 38.825 21.6804C39.0804 21.6804 39.3333 21.7307 39.5692 21.8284C39.8051 21.9262 40.0195 22.0694 40.2 22.25L45.45 27.5C45.8012 27.8515 45.9984 28.3281 45.9984 28.825C45.9984 29.3218 45.8012 29.7984 45.45 30.15L40.45 35.15C40.1208 35.5103 39.6625 35.726 39.175 35.75Z" fill="black"/>
<path d="M32.9001 51.225C29.4152 51.2001 25.9867 50.343 22.9001 48.725C22.4707 48.4912 22.1479 48.101 21.9989 47.6353C21.8499 47.1697 21.8862 46.6646 22.1001 46.225C22.3292 45.791 22.7193 45.4641 23.1867 45.3146C23.6541 45.165 24.1615 45.2046 24.6001 45.425C28.2022 47.2772 32.3166 47.8839 36.3001 47.15C39.4858 46.5213 42.4442 45.0483 44.8659 42.885C47.2875 40.7216 49.0836 37.9475 50.0661 34.8525C51.0487 31.7575 51.1818 28.4554 50.4515 25.2914C49.7211 22.1273 48.1542 19.2176 45.9145 16.8665C43.6747 14.5153 40.8445 12.809 37.7196 11.9259C34.5948 11.0429 31.2901 11.0156 28.1511 11.8469C25.0121 12.6781 22.154 14.3374 19.8757 16.6512C17.5974 18.9651 15.9826 21.8485 15.2001 25C14.0746 29.6764 14.8381 34.6079 17.3251 38.725C17.5601 39.1426 17.6263 39.6344 17.5101 40.0994C17.3938 40.5643 17.104 40.9671 16.7001 41.225C16.2824 41.46 15.7906 41.5262 15.3257 41.41C14.8607 41.2938 14.4579 41.0039 14.2001 40.6C12.3742 37.5811 11.3075 34.1646 11.0912 30.6431C10.8749 27.1217 11.5156 23.6003 12.9583 20.3807C14.401 17.1611 16.6027 14.3392 19.3748 12.1568C22.1469 9.97442 25.4067 8.49661 28.8751 7.84998C34.5805 6.7858 40.4751 8.03169 45.2619 11.3136C50.0488 14.5955 53.3359 19.6445 54.4001 25.35C55.4642 31.0555 54.2183 36.95 50.9365 41.7369C47.6546 46.5237 42.6055 49.8108 36.9001 50.875C35.5788 51.1031 34.2408 51.2201 32.9001 51.225Z" fill="black"/>
<path d="M13.525 52.5C12.9256 52.5143 12.3324 52.3767 11.8006 52.0998C11.2688 51.823 10.8158 51.416 10.4838 50.9167C10.1519 50.4175 9.95172 49.8424 9.90208 49.2449C9.85244 48.6474 9.95493 48.0471 10.2 47.5L14.025 38.95C14.1223 38.7197 14.2652 38.5116 14.4451 38.3381C14.6251 38.1646 14.8383 38.0294 15.0719 37.9407C15.3056 37.8519 15.5548 37.8114 15.8045 37.8215C16.0543 37.8317 16.2994 37.8924 16.525 38C16.9809 38.2073 17.3364 38.5863 17.5143 39.0545C17.6922 39.5227 17.6781 40.0422 17.475 40.5L13.9 48.625L23.075 45.35C23.311 45.2464 23.5658 45.1926 23.8235 45.1919C24.0812 45.1912 24.3363 45.2436 24.5728 45.346C24.8094 45.4483 25.0223 45.5982 25.1983 45.7865C25.3743 45.9748 25.5095 46.1973 25.5957 46.4402C25.6818 46.6831 25.7169 46.9412 25.6989 47.1982C25.6808 47.4553 25.61 47.7059 25.4907 47.9344C25.3715 48.1629 25.2064 48.3643 25.0059 48.5261C24.8053 48.688 24.5735 48.8067 24.325 48.875L14.7 52.3C14.3238 52.4379 13.9256 52.5057 13.525 52.5Z" fill="black"/>
</svg>
