<svg width="61" height="60" viewBox="0 0 61 60" fill="none" xmlns="http://www.w3.org/2000/svg">
<path d="M29.0752 32.5C28.5799 32.4935 28.1068 32.2939 27.7565 31.9437C27.4063 31.5934 27.2067 31.1203 27.2002 30.625C27.2002 30.1277 27.3977 29.6508 27.7494 29.2992C28.101 28.9475 28.5779 28.75 29.0752 28.75H49.7252C50.2182 28.75 50.6913 28.9441 51.0423 29.2903C51.3932 29.6365 51.5936 30.1071 51.6002 30.6C51.6002 31.0996 51.4035 31.5791 51.0526 31.9347C50.7016 32.2903 50.2248 32.4934 49.7252 32.5H29.1002H29.0752Z" fill="black"/>
<path d="M42.9001 42.1001C42.6531 42.1057 42.4077 42.0596 42.1795 41.9649C41.9514 41.8702 41.7455 41.7289 41.5751 41.5501C41.224 41.1985 41.0267 40.722 41.0267 40.2251C41.0267 39.7282 41.224 39.2517 41.5751 38.9001L49.9751 30.5001L41.5001 22.1001C41.3232 21.9277 41.1826 21.7217 41.0866 21.4941C40.9906 21.2666 40.9412 21.0221 40.9412 20.7751C40.9412 20.5281 40.9906 20.2836 41.0866 20.0561C41.1826 19.8285 41.3232 19.6224 41.5001 19.4501C41.8517 19.099 42.3282 18.9017 42.8251 18.9017C43.322 18.9017 43.7985 19.099 44.1501 19.4501L53.9001 29.1501C54.2512 29.5016 54.4484 29.9782 54.4484 30.4751C54.4484 30.972 54.2512 31.4485 53.9001 31.8001L44.2001 41.5501C43.8565 41.898 43.3891 42.0958 42.9001 42.1001Z" fill="black"/>
<path d="M29.3752 53.025C24.57 53.0203 19.8859 51.5172 15.9752 48.725C11.009 45.1545 7.66456 39.7575 6.67765 33.7212C5.69074 27.6848 7.14218 21.5037 10.7127 16.5375C14.2831 11.5713 19.6802 8.22694 25.7165 7.24003C31.7528 6.25312 37.934 7.70455 42.9002 11.275C43.2712 11.5628 43.5207 11.9794 43.5994 12.4423C43.6781 12.9052 43.5802 13.3808 43.3252 13.775C43.041 14.151 42.624 14.4043 42.1594 14.4833C41.6948 14.5622 41.2176 14.4609 40.8252 14.2C38.0027 12.1798 34.6871 10.9592 31.2285 10.667C27.7698 10.3749 24.2965 11.0221 21.1752 12.5404C18.0539 14.0586 15.4005 16.3915 13.4951 19.2927C11.5897 22.194 10.5031 25.5559 10.35 29.0234C10.1969 32.491 10.983 35.9356 12.6253 38.9935C14.2675 42.0513 16.705 44.609 19.6804 46.3964C22.6557 48.1838 26.0585 49.1347 29.5295 49.1485C33.0004 49.1623 36.4107 48.2387 39.4002 46.475C39.6123 46.332 39.8514 46.2339 40.1029 46.1868C40.3543 46.1397 40.6127 46.1445 40.8622 46.201C41.1117 46.2575 41.347 46.3644 41.5537 46.5152C41.7603 46.666 41.9339 46.8575 42.0638 47.078C42.1936 47.2984 42.277 47.543 42.3088 47.7969C42.3405 48.0507 42.32 48.3084 42.2485 48.554C42.177 48.7996 42.0559 49.028 41.8928 49.2251C41.7297 49.4222 41.528 49.5838 41.3002 49.7C37.7017 51.8727 33.5786 53.0223 29.3752 53.025Z" fill="black"/>
</svg>
