<svg width="61" height="60" viewBox="0 0 61 60" fill="none" xmlns="http://www.w3.org/2000/svg">
<path d="M52.7753 32.5H32.1252C31.6257 32.4934 31.1488 32.2903 30.7979 31.9347C30.4469 31.5791 30.2502 31.0996 30.2502 30.6C30.2568 30.1071 30.4573 29.6365 30.8082 29.2903C31.1591 28.9441 31.6323 28.75 32.1252 28.75H52.7503C53.2475 28.75 53.7244 28.9475 54.0761 29.2992C54.4277 29.6508 54.6253 30.1277 54.6253 30.625C54.6253 31.1223 54.4277 31.5992 54.0761 31.9508C53.7244 32.3025 53.2475 32.5 52.7503 32.5H52.7753Z" fill="black"/>
<path d="M39.0002 42.1001C38.7498 42.1032 38.5014 42.0561 38.2695 41.9617C38.0377 41.8672 37.8271 41.7273 37.6502 41.5501L27.9502 31.8001C27.5984 31.4488 27.4006 30.9722 27.4002 30.4751C27.3993 30.2265 27.45 29.9804 27.5489 29.7524C27.6479 29.5243 27.793 29.3193 27.9752 29.1501L37.7252 19.4501C38.0767 19.099 38.5533 18.9017 39.0502 18.9017C39.547 18.9017 40.0236 19.099 40.3752 19.4501C40.7263 19.8016 40.9235 20.2782 40.9235 20.7751C40.9235 21.272 40.7263 21.7485 40.3752 22.1001L31.9252 30.5001L40.3252 38.9001C40.6763 39.2516 40.8735 39.7282 40.8735 40.2251C40.8735 40.722 40.6763 41.1985 40.3252 41.5501C40.1557 41.7302 39.95 41.8723 39.7216 41.9671C39.4932 42.0619 39.2473 42.1072 39.0002 42.1001Z" fill="black"/>
<path d="M29.5751 53.025C24.7699 53.0203 20.0858 51.5172 16.1751 48.725C11.2089 45.1545 7.86451 39.7575 6.8776 33.7212C5.89069 27.6848 7.34213 21.5037 10.9126 16.5375C14.4831 11.5713 19.8801 8.22694 25.9165 7.24003C31.9528 6.25312 38.1339 7.70455 43.1001 11.275C43.4711 11.5628 43.7206 11.9794 43.7993 12.4423C43.878 12.9052 43.7802 13.3808 43.5251 13.775C43.2409 14.151 42.824 14.4043 42.3594 14.4833C41.8948 14.5622 41.4176 14.4609 41.0251 14.2C38.2027 12.1798 34.8871 10.9592 31.4284 10.667C27.9698 10.3749 24.4964 11.0221 21.3751 12.5404C18.2538 14.0586 15.6004 16.3915 13.6951 19.2927C11.7897 22.194 10.7031 25.5559 10.55 29.0234C10.3969 32.491 11.183 35.9356 12.8252 38.9935C14.4675 42.0513 16.905 44.609 19.8803 46.3964C22.8557 48.1838 26.2585 49.1347 29.7294 49.1485C33.2003 49.1623 36.6106 48.2387 39.6001 46.475C39.8122 46.332 40.0514 46.2339 40.3028 46.1868C40.5542 46.1397 40.8127 46.1445 41.0622 46.201C41.3117 46.2575 41.547 46.3644 41.7536 46.5152C41.9603 46.666 42.1338 46.8575 42.2637 47.078C42.3936 47.2984 42.4769 47.543 42.5087 47.7969C42.5405 48.0507 42.52 48.3084 42.4484 48.554C42.3769 48.7996 42.2559 49.028 42.0928 49.2251C41.9297 49.4222 41.728 49.5838 41.5001 49.7C37.9017 51.8727 33.7786 53.0223 29.5751 53.025Z" fill="black"/>
</svg>
