<svg width="61" height="60" viewBox="0 0 61 60" fill="none" xmlns="http://www.w3.org/2000/svg">
<path d="M30.8 54.425C25.9692 54.425 21.2469 52.9925 17.2302 50.3086C13.2135 47.6248 10.0829 43.8101 8.23425 39.347C6.38558 34.8839 5.90189 29.9729 6.84433 25.2349C7.78677 20.4969 10.113 16.1448 13.5289 12.7289C16.9448 9.31298 21.2969 6.98673 26.0349 6.04428C30.7729 5.10184 35.684 5.58553 40.1471 7.4342C44.6101 9.28288 48.4248 12.4135 51.1087 16.4302C53.7925 20.4468 55.225 25.1692 55.225 30C55.2118 36.4738 52.6342 42.6787 48.0565 47.2565C43.4788 51.8342 37.2739 54.4118 30.8 54.425ZM30.8 9.42496C26.7066 9.42501 22.7054 10.6401 19.3033 12.9164C15.9012 15.1926 13.2513 18.4276 11.6894 22.2113C10.1276 25.9949 9.72401 30.1571 10.5299 34.1704C11.3358 38.1836 13.3148 41.8674 16.2163 44.7548C19.1178 47.6422 22.811 49.6034 26.8282 50.3898C30.8453 51.1762 35.0055 50.7525 38.7815 49.1723C42.5576 47.5921 45.7796 44.9266 48.0394 41.5135C50.2991 38.1004 51.4948 34.0933 51.475 30C51.4684 24.5186 49.288 19.2637 45.4121 15.3878C41.5363 11.512 36.2813 9.33158 30.8 9.32496V9.42496Z" fill="black"/>
<path d="M30.575 44.7749C30.0778 44.7745 29.6013 44.5767 29.25 44.2249L23.575 38.5749C23.2238 38.2234 23.0266 37.7468 23.0266 37.2499C23.0266 36.7531 23.2238 36.2765 23.575 35.9249C23.9265 35.5738 24.4031 35.3766 24.9 35.3766C25.3968 35.3766 25.8734 35.5738 26.225 35.9249L30.575 40.2499L35.375 35.4749C35.5473 35.298 35.7534 35.1575 35.9809 35.0615C36.2085 34.9655 36.453 34.916 36.7 34.916C36.9469 34.916 37.1914 34.9655 37.419 35.0615C37.6466 35.1575 37.8526 35.298 38.025 35.4749C38.3761 35.8265 38.5733 36.3031 38.5733 36.7999C38.5733 37.2968 38.3761 37.7734 38.025 38.1249L31.9 44.2249C31.5487 44.5767 31.0721 44.7745 30.575 44.7749Z" fill="black"/>
<path d="M36.7 24.9999C36.453 25.0055 36.2076 24.9594 35.9795 24.8647C35.7513 24.77 35.5454 24.6287 35.375 24.4499L30.575 19.7499L26.225 24.0749C25.8696 24.4061 25.3995 24.5864 24.9137 24.5779C24.4279 24.5693 23.9645 24.3725 23.621 24.029C23.2774 23.6854 23.0806 23.222 23.0721 22.7362C23.0635 22.2505 23.2438 21.7804 23.575 21.4249L29.25 15.7749C29.6077 15.4355 30.0819 15.2463 30.575 15.2463C31.0681 15.2463 31.5423 15.4355 31.9 15.7749L38.025 21.8749C38.3761 22.2265 38.5734 22.703 38.5734 23.1999C38.5734 23.6968 38.3761 24.1734 38.025 24.5249C37.6632 24.8516 37.187 25.0224 36.7 24.9999Z" fill="black"/>
</svg>
