<svg width="60" height="60" viewBox="0 0 60 60" fill="none" xmlns="http://www.w3.org/2000/svg">
<path d="M17.5 56.125C15.5794 56.13 13.7006 55.5646 12.1016 54.5007C10.5026 53.4367 9.25545 51.9221 8.51818 50.1486C7.78092 48.3751 7.58672 46.4227 7.9602 44.5388C8.33368 42.6548 9.25802 40.9242 10.6161 39.5661C11.9742 38.208 13.7048 37.2837 15.5888 36.9102C17.4727 36.5367 19.4251 36.7309 21.1986 37.4682C22.9721 38.2055 24.4867 39.4526 25.5507 41.0516C26.6146 42.6506 27.1799 44.5294 27.175 46.45C27.1684 49.0139 26.147 51.471 24.334 53.284C22.521 55.097 20.0639 56.1184 17.5 56.125ZM17.5 40.5C16.3221 40.4951 15.1693 40.8398 14.1876 41.4906C13.2058 42.1414 12.4393 43.0689 11.9851 44.1557C11.5309 45.2424 11.4095 46.4396 11.6363 47.5954C11.863 48.7512 12.4277 49.8137 13.2589 50.6484C14.09 51.483 15.1501 52.0522 16.305 52.2838C17.4598 52.5154 18.6575 52.399 19.7462 51.9494C20.8348 51.4998 21.7656 50.7372 22.4205 49.7582C23.0754 48.7792 23.425 47.6279 23.425 46.45C23.4185 44.8783 22.7929 43.3725 21.6839 42.2587C20.5749 41.145 19.0717 40.5131 17.5 40.5Z" fill="black"/>
<path d="M17.5 23.25C15.5805 23.255 13.7026 22.6903 12.1042 21.6274C10.5058 20.5646 9.2586 19.0514 8.52059 17.2794C7.78259 15.5074 7.58692 13.5563 7.95837 11.673C8.32982 9.78974 9.25168 8.05903 10.6072 6.69996C11.9628 5.34089 13.6911 4.41457 15.5734 4.03826C17.4557 3.66195 19.4074 3.85258 21.1813 4.58601C22.9552 5.31944 24.4716 6.56269 25.5385 8.15839C26.6055 9.75408 27.175 11.6305 27.175 13.55C27.175 16.1183 26.1565 18.5817 24.3428 20.4001C22.5291 22.2185 20.0683 23.2434 17.5 23.25ZM17.5 7.62501C16.3222 7.62502 15.1708 7.97462 14.1918 8.62953C13.2128 9.28443 12.4502 10.2152 12.0006 11.3039C11.551 12.3925 11.4346 13.5902 11.6663 14.745C11.8979 15.8999 12.467 16.96 13.3017 17.7911C14.1363 18.6223 15.1988 19.187 16.3546 19.4137C17.5105 19.6405 18.7076 19.5191 19.7944 19.0649C20.8811 18.6107 21.8087 17.8442 22.4594 16.8624C23.1102 15.8807 23.455 14.7279 23.45 13.55C23.4434 11.9763 22.8136 10.4693 21.6985 9.35887C20.5834 8.24844 19.0737 7.62499 17.5 7.62501Z" fill="black"/>
<path d="M42.5 41.125C40.5805 41.125 38.7041 40.5554 37.1084 39.4885C35.5127 38.4215 34.2695 36.9051 33.536 35.1312C32.8026 33.3573 32.612 31.4057 32.9883 29.5234C33.3646 27.6411 34.2909 25.9128 35.65 24.5572C37.009 23.2016 38.7398 22.2798 40.623 21.9083C42.5063 21.5369 44.4574 21.7325 46.2294 22.4705C48.0014 23.2085 49.5146 24.4557 50.5774 26.0542C51.6403 27.6526 52.205 29.5304 52.2 31.45C52.2 32.7226 51.9489 33.9828 51.4612 35.1582C50.9734 36.3337 50.2585 37.4014 49.3574 38.3001C48.4564 39.1988 47.3869 39.911 46.2102 40.3957C45.0334 40.8804 43.7727 41.1283 42.5 41.125ZM42.5 25.5C41.3232 25.5 40.1729 25.8489 39.1944 26.5027C38.2159 27.1565 37.4533 28.0858 37.0029 29.173C36.5526 30.2602 36.4348 31.4566 36.6643 32.6108C36.8939 33.765 37.4606 34.8251 38.2927 35.6573C39.1249 36.4894 40.185 37.0561 41.3392 37.2857C42.4934 37.5152 43.6898 37.3974 44.777 36.9471C45.8642 36.4967 46.7935 35.7341 47.4473 34.7556C48.1011 33.7771 48.45 32.6268 48.45 31.45C48.45 29.8719 47.8231 28.3585 46.7073 27.2427C45.5915 26.1269 44.0781 25.5 42.5 25.5Z" fill="black"/>
<path d="M17.5 40.5C17.2528 40.5034 17.0075 40.4572 16.7785 40.3641C16.5495 40.2711 16.3415 40.1331 16.1667 39.9583C15.9919 39.7836 15.8539 39.5755 15.7609 39.3465C15.6678 39.1175 15.6216 38.8722 15.625 38.625V21.375C15.6132 20.9111 15.774 20.4592 16.0761 20.1069C16.3783 19.7547 16.8003 19.5269 17.2606 19.4678C17.721 19.4087 18.1869 19.5225 18.5682 19.787C18.9495 20.0516 19.2192 20.4481 19.325 20.9C19.325 21.25 21.825 29.575 34.65 29.575C35.1473 29.575 35.6242 29.7726 35.9758 30.1242C36.3274 30.4758 36.525 30.9527 36.525 31.45C36.525 31.9473 36.3274 32.4242 35.9758 32.7758C35.6242 33.1275 35.1473 33.325 34.65 33.325C31.8655 33.4985 29.0748 33.1025 26.4485 32.1611C23.8222 31.2198 21.4153 29.7529 19.375 27.85V38.625C19.375 39.1223 19.1774 39.5992 18.8258 39.9508C18.4742 40.3025 17.9973 40.5 17.5 40.5Z" fill="black"/>
</svg>
