<svg width="61" height="60" viewBox="0 0 61 60" fill="none" xmlns="http://www.w3.org/2000/svg">
<path d="M17.6999 56.1249C15.7794 56.1299 13.9005 55.5646 12.3015 54.5006C10.7025 53.4367 9.4554 51.922 8.71813 50.1485C7.98087 48.3751 7.78667 46.4227 8.16015 44.5387C8.53363 42.6548 9.45797 40.9241 10.816 39.566C12.1741 38.208 13.9048 37.2836 15.7887 36.9101C17.6727 36.5367 19.6251 36.7309 21.3985 37.4681C23.172 38.2054 24.6867 39.4525 25.7506 41.0515C26.8146 42.6505 27.3799 44.5293 27.375 46.4499C27.3684 49.0139 26.3469 51.4709 24.5339 53.2839C22.7209 55.0969 20.2639 56.1183 17.6999 56.1249ZM17.6999 40.4999C16.5221 40.495 15.3693 40.8397 14.3875 41.4905C13.4058 42.1413 12.6393 43.0688 12.1851 44.1556C11.7309 45.2424 11.6095 46.4395 11.8362 47.5953C12.063 48.7512 12.6277 49.8137 13.4588 50.6483C14.2899 51.4829 15.3501 52.0521 16.5049 52.2837C17.6598 52.5153 18.8574 52.399 19.9461 51.9494C21.0348 51.4998 21.9655 50.7372 22.6204 49.7582C23.2753 48.7792 23.6249 47.6278 23.625 46.4499C23.6184 44.8782 22.9929 43.3724 21.8839 42.2587C20.7748 41.145 19.2716 40.5131 17.6999 40.4999Z" fill="black"/>
<path d="M17.7 23.25C15.7804 23.2549 13.9026 22.6902 12.3042 21.6274C10.7057 20.5645 9.45855 19.0513 8.72054 17.2793C7.98254 15.5073 7.78688 13.5562 8.15832 11.6729C8.52977 9.78968 9.45163 8.05897 10.8072 6.6999C12.1628 5.34083 13.8911 4.41451 15.7734 4.0382C17.6557 3.66189 19.6073 3.85252 21.3812 4.58595C23.1551 5.31938 24.6715 6.56263 25.7385 8.15833C26.8054 9.75402 27.375 11.6304 27.375 13.5499C27.375 16.1182 26.3565 18.5817 24.5428 20.4001C22.7291 22.2184 20.2682 23.2433 17.7 23.25ZM17.7 7.62495C16.5221 7.62496 15.3708 7.97456 14.3918 8.62947C13.4127 9.28437 12.6501 10.2151 12.2005 11.3038C11.7509 12.3925 11.6346 13.5901 11.8662 14.745C12.0978 15.8998 12.667 16.96 13.5016 17.7911C14.3362 18.6222 15.3988 19.1869 16.5546 19.4137C17.7104 19.6404 18.9075 19.519 19.9943 19.0648C21.0811 18.6106 22.0086 17.8441 22.6594 16.8624C23.3102 15.8806 23.6549 14.7278 23.65 13.5499C23.6434 11.9762 23.0136 10.4693 21.8984 9.35882C20.7833 8.24837 19.2737 7.62493 17.7 7.62495Z" fill="black"/>
<path d="M42.7 23.25C40.7815 23.25 38.9061 22.6811 37.311 21.6152C35.7158 20.5494 34.4725 19.0345 33.7384 17.262C33.0042 15.4896 32.8121 13.5392 33.1864 11.6576C33.5607 9.77599 34.4845 8.04761 35.8411 6.69104C37.1976 5.33447 38.926 4.41064 40.8076 4.03636C42.6892 3.66209 44.6396 3.85418 46.412 4.58835C48.1845 5.32252 49.6994 6.56579 50.7653 8.16095C51.8311 9.75611 52.4 11.6315 52.4 13.55C52.4 16.1226 51.378 18.5898 49.5589 20.4089C47.7398 22.228 45.2726 23.25 42.7 23.25ZM42.7 7.62498C41.5221 7.62499 40.3708 7.97459 39.3918 8.6295C38.4128 9.2844 37.6502 10.2151 37.2006 11.3038C36.751 12.3925 36.6346 13.5901 36.8662 14.745C37.0978 15.8999 37.667 16.96 38.5016 17.7911C39.3363 18.6222 40.3988 19.1869 41.5546 19.4137C42.7105 19.6404 43.9076 19.519 44.9943 19.0649C46.0811 18.6107 47.0087 17.8442 47.6594 16.8624C48.3102 15.8807 48.655 14.7278 48.65 13.55C48.65 12.7698 48.4959 11.9973 48.1966 11.2768C47.8973 10.5563 47.4586 9.90202 46.9058 9.35151C46.353 8.80099 45.6968 8.36508 44.9751 8.0688C44.2533 7.77251 43.4802 7.62169 42.7 7.62498Z" fill="black"/>
<path d="M17.6999 40.5C17.4527 40.5034 17.2074 40.4572 16.9784 40.3641C16.7494 40.2711 16.5413 40.1331 16.3666 39.9583C16.1918 39.7835 16.0538 39.5755 15.9608 39.3465C15.8677 39.1175 15.8215 38.8722 15.8249 38.625V21.375C15.8249 20.8777 16.0224 20.4008 16.3741 20.0492C16.7257 19.6975 17.2026 19.5 17.6999 19.5C18.1972 19.5 18.6741 19.6975 19.0257 20.0492C19.3773 20.4008 19.5749 20.8777 19.5749 21.375V38.625C19.5749 39.1223 19.3773 39.5992 19.0257 39.9508C18.6741 40.3025 18.1972 40.5 17.6999 40.5Z" fill="black"/>
<path d="M32.7 33.325H17.7C17.2027 33.325 16.7258 33.1275 16.3741 32.7758C16.0225 32.4242 15.825 31.9473 15.825 31.45C15.825 30.9527 16.0225 30.4758 16.3741 30.1242C16.7258 29.7725 17.2027 29.575 17.7 29.575H32.7C33.7902 29.6207 34.878 29.4401 35.8949 29.0445C36.9119 28.6489 37.8358 28.047 38.6086 27.2766C39.3813 26.5062 39.9861 25.5841 40.3847 24.5683C40.7834 23.5526 40.9673 22.4653 40.925 21.375C40.925 20.8777 41.1225 20.4008 41.4741 20.0492C41.8258 19.6975 42.3027 19.5 42.8 19.5C43.2972 19.5 43.7741 19.6975 44.1258 20.0492C44.4774 20.4008 44.675 20.8777 44.675 21.375C44.7348 22.9625 44.4658 24.5452 43.8848 26.0238C43.3039 27.5024 42.4235 28.8449 41.299 29.967C40.1745 31.0892 38.8302 31.9667 37.3504 32.5446C35.8706 33.1225 34.2873 33.3882 32.7 33.325Z" fill="black"/>
</svg>
