<svg width="60" height="60" viewBox="0 0 60 60" fill="none" xmlns="http://www.w3.org/2000/svg">
<path d="M30 52.5H15C12.3478 52.5 9.8043 51.4464 7.92893 49.5711C6.05357 47.6957 5 45.1522 5 42.5V17.5C5 14.8478 6.05357 12.3043 7.92893 10.4289C9.8043 8.55357 12.3478 7.5 15 7.5H30C32.6522 7.5 35.1957 8.55357 37.0711 10.4289C38.9464 12.3043 40 14.8478 40 17.5V42.5C40 45.1522 38.9464 47.6957 37.0711 49.5711C35.1957 51.4464 32.6522 52.5 30 52.5ZM15 12.5C13.6739 12.5 12.4021 13.0268 11.4645 13.9645C10.5268 14.9021 10 16.1739 10 17.5V42.5C10 43.8261 10.5268 45.0979 11.4645 46.0355C12.4021 46.9732 13.6739 47.5 15 47.5H30C31.3261 47.5 32.5979 46.9732 33.5355 46.0355C34.4732 45.0979 35 43.8261 35 42.5V17.5C35 16.1739 34.4732 14.9021 33.5355 13.9645C32.5979 13.0268 31.3261 12.5 30 12.5H15Z" fill="black"/>
<path d="M42.5 42.5H37.5C36.837 42.5 36.2011 42.2366 35.7322 41.7678C35.2634 41.2989 35 40.663 35 40C35 39.337 35.2634 38.7011 35.7322 38.2322C36.2011 37.7634 36.837 37.5 37.5 37.5H42.5C44.4891 37.5 46.3968 36.7098 47.8033 35.3033C49.2098 33.8968 50 31.9891 50 30C50 28.0109 49.2098 26.1032 47.8033 24.6967C46.3968 23.2902 44.4891 22.5 42.5 22.5H37.5C36.837 22.5 36.2011 22.2366 35.7322 21.7678C35.2634 21.2989 35 20.663 35 20C35 19.337 35.2634 18.7011 35.7322 18.2322C36.2011 17.7634 36.837 17.5 37.5 17.5H42.5C45.8152 17.5 48.9946 18.817 51.3388 21.1612C53.683 23.5054 55 26.6848 55 30C55 33.3152 53.683 36.4946 51.3388 38.8388C48.9946 41.183 45.8152 42.5 42.5 42.5Z" fill="black"/>
<path d="M22.5 30C21.837 30 21.2011 29.7366 20.7322 29.2678C20.2634 28.7989 20 28.163 20 27.5V10C20 9.33696 20.2634 8.70107 20.7322 8.23223C21.2011 7.76339 21.837 7.5 22.5 7.5C23.163 7.5 23.7989 7.76339 24.2678 8.23223C24.7366 8.70107 25 9.33696 25 10V27.5C25 28.163 24.7366 28.7989 24.2678 29.2678C23.7989 29.7366 23.163 30 22.5 30Z" fill="black"/>
<path d="M22.5 40C21.0166 40 19.5666 39.5601 18.3332 38.736C17.0999 37.9119 16.1386 36.7406 15.5709 35.3701C15.0032 33.9997 14.8547 32.4917 15.1441 31.0368C15.4335 29.582 16.1478 28.2456 17.1967 27.1967C18.2456 26.1478 19.582 25.4335 21.0368 25.1441C22.4917 24.8547 23.9997 25.0032 25.3701 25.5709C26.7406 26.1386 27.9119 27.0999 28.736 28.3332C29.5601 29.5666 30 31.0166 30 32.5C30 34.4891 29.2098 36.3968 27.8033 37.8033C26.3968 39.2098 24.4891 40 22.5 40ZM22.5 30C22.0055 30 21.5222 30.1466 21.1111 30.4213C20.7 30.696 20.3795 31.0865 20.1903 31.5433C20.0011 32.0001 19.9516 32.5028 20.048 32.9877C20.1445 33.4727 20.3826 33.9181 20.7322 34.2678C21.0819 34.6174 21.5273 34.8555 22.0123 34.952C22.4972 35.0484 22.9999 34.9989 23.4567 34.8097C23.9135 34.6205 24.304 34.3001 24.5787 33.8889C24.8534 33.4778 25 32.9945 25 32.5C25 31.837 24.7366 31.2011 24.2678 30.7322C23.7989 30.2634 23.163 30 22.5 30Z" fill="black"/>
</svg>
