<svg width="60" height="60" viewBox="0 0 60 60" fill="none" xmlns="http://www.w3.org/2000/svg">
<path d="M48.95 52.5H11.05C10.1286 52.5 9.21631 52.3181 8.3654 51.9648C7.51449 51.6114 6.7417 51.0936 6.09136 50.4409C5.44103 49.7883 4.92593 49.0136 4.57562 48.1615C4.22531 47.3093 4.04668 46.3964 4.04997 45.475V23.95C4.04997 22.0935 4.78747 20.313 6.10022 19.0003C7.41298 17.6875 9.19346 16.95 11.05 16.95H48.95C50.8065 16.95 52.587 17.6875 53.8997 19.0003C55.2125 20.313 55.95 22.0935 55.95 23.95V45.425C55.9599 46.3505 55.7862 47.2689 55.4388 48.1268C55.0915 48.9848 54.5774 49.7653 53.9264 50.4233C53.2754 51.0813 52.5004 51.6036 51.6462 51.9601C50.792 52.3165 49.8756 52.5001 48.95 52.5ZM11.05 21.95C10.5195 21.95 10.0108 22.1607 9.63576 22.5358C9.26069 22.9109 9.04997 23.4196 9.04997 23.95V45.425C9.04666 45.6897 9.09595 45.9525 9.19498 46.1981C9.294 46.4436 9.4408 46.667 9.62685 46.8554C9.81289 47.0438 10.0345 47.1933 10.2788 47.2954C10.5231 47.3975 10.7852 47.45 11.05 47.45H48.95C49.2147 47.45 49.4769 47.3975 49.7212 47.2954C49.9655 47.1933 50.1871 47.0438 50.3731 46.8554C50.5592 46.667 50.7059 46.4436 50.805 46.1981C50.904 45.9525 50.9533 45.6897 50.95 45.425V23.95C50.95 23.4196 50.7393 22.9109 50.3642 22.5358C49.9891 22.1607 49.4804 21.95 48.95 21.95H11.05Z" fill="black"/>
<path d="M6.54993 26.625C5.88689 26.625 5.251 26.3616 4.78216 25.8928C4.31332 25.4239 4.04993 24.788 4.04993 24.125V12.5C4.04993 11.837 4.31332 11.2011 4.78216 10.7322C5.251 10.2634 5.88689 10 6.54993 10H25.2999C25.661 9.99998 26.0179 10.0782 26.3458 10.2292C26.6738 10.3803 26.9652 10.6006 27.1999 10.875L33.2249 17.925C33.6559 18.4289 33.8691 19.0834 33.8175 19.7445C33.7659 20.4055 33.4538 21.019 32.9499 21.45C32.446 21.881 31.7915 22.0941 31.1305 22.0426C30.4694 21.991 29.8559 21.6789 29.4249 21.175L24.1499 15H9.14993V24.125C9.1502 24.4619 9.08237 24.7954 8.95053 25.1054C8.81869 25.4154 8.62554 25.6956 8.3827 25.9291C8.13986 26.1626 7.85232 26.3446 7.53737 26.4642C7.22242 26.5838 6.88655 26.6385 6.54993 26.625Z" fill="black"/>
<path d="M27.6501 17.65C27.3218 17.6812 26.9906 17.6474 26.6753 17.5506C26.3601 17.4538 26.067 17.2958 25.8128 17.0857C25.5586 16.8757 25.3483 16.6175 25.1938 16.3262C25.0394 16.0348 24.9438 15.7158 24.9126 15.3875C24.8814 15.0592 24.9152 14.728 25.012 14.4128C25.1089 14.0975 25.2668 13.8044 25.4769 13.5502C25.687 13.296 25.9451 13.0857 26.2365 12.9312C26.5279 12.7768 26.8468 12.6812 27.1751 12.65L52.9751 7.50004C53.6382 7.37075 54.3254 7.51014 54.8857 7.88756C55.4459 8.26498 55.8333 8.8495 55.9626 9.51254C56.0919 10.1756 55.9525 10.8628 55.5751 11.4231C55.1977 11.9834 54.6132 12.3707 53.9501 12.5L28.1501 17.5C27.9918 17.5744 27.8233 17.625 27.6501 17.65Z" fill="black"/>
<path d="M53.4499 43.0501H25.2999C24.6369 43.0501 24.001 42.7867 23.5322 42.3179C23.0633 41.849 22.7999 41.2132 22.7999 40.5501V31.1751C22.8013 30.8443 22.8683 30.5171 22.997 30.2124C23.1258 29.9078 23.3137 29.6316 23.5499 29.4001C24.0156 28.9382 24.6441 28.6779 25.2999 28.6751L53.4499 28.8251C54.113 28.8251 54.7488 29.0885 55.2177 29.5573C55.6865 30.0262 55.9499 30.6621 55.9499 31.3251C55.9499 31.9882 55.6865 32.624 55.2177 33.0929C54.7488 33.5617 54.113 33.8251 53.4499 33.8251L27.7999 33.6751V38.0501H53.4499C54.113 38.0501 54.7488 38.3135 55.2177 38.7823C55.6865 39.2512 55.9499 39.8871 55.9499 40.5501C55.9499 41.2132 55.6865 41.849 55.2177 42.3179C54.7488 42.7867 54.113 43.0501 53.4499 43.0501Z" fill="black"/>
</svg>
