<svg width="61" height="60" viewBox="0 0 61 60" fill="none" xmlns="http://www.w3.org/2000/svg">
<path d="M30.401 30.4C30.0752 30.4057 29.7545 30.319 29.476 30.15L8.876 18.4C8.58549 18.2382 8.34254 18.0029 8.17145 17.7178C8.00035 17.4326 7.90709 17.1075 7.901 16.775C7.90513 16.4417 7.99462 16.1151 8.16094 15.8262C8.32725 15.5373 8.56483 15.2959 8.851 15.125L29.451 3.37503C29.733 3.21507 30.0518 3.13098 30.376 3.13098C30.7002 3.13098 31.019 3.21507 31.301 3.37503L51.901 15.125C52.1872 15.2959 52.4247 15.5373 52.5911 15.8262C52.7574 16.1151 52.8469 16.4417 52.851 16.775C52.8474 17.1051 52.758 17.4285 52.5914 17.7134C52.4248 17.9984 52.1869 18.235 51.901 18.4L31.301 30.15C31.0297 30.3145 30.7183 30.4011 30.401 30.4ZM13.601 16.775L30.401 26.375L47.201 16.775L30.401 7.15003L13.601 16.775Z" fill="black"/>
<path d="M30.4001 56.875C30.0743 56.8807 29.7536 56.794 29.4751 56.625L8.87506 45C8.56558 44.8218 8.311 44.562 8.13906 44.249C7.96713 43.936 7.88446 43.5818 7.90005 43.225V16.775C7.90005 16.2777 8.0976 15.8008 8.44923 15.4492C8.80086 15.0976 9.27777 14.9 9.77505 14.9C10.2723 14.9 10.7492 15.0976 11.1009 15.4492C11.4525 15.8008 11.6501 16.2777 11.6501 16.775V42.15L30.4001 52.85L49.1251 42.15V16.775C49.1251 16.2777 49.3226 15.8008 49.6742 15.4492C50.0259 15.0976 50.5028 14.9 51.0001 14.9C51.4973 14.9 51.9742 15.0976 52.3259 15.4492C52.6775 15.8008 52.8751 16.2777 52.8751 16.775V43.225C52.8709 43.5583 52.7814 43.885 52.6151 44.1738C52.4488 44.4627 52.2112 44.7041 51.9251 44.875L31.3251 56.625C31.0465 56.794 30.7258 56.8807 30.4001 56.875Z" fill="black"/>
<path d="M30.4001 56.8751C29.9048 56.8686 29.4317 56.669 29.0814 56.3187C28.7312 55.9685 28.5316 55.4953 28.5251 55.0001V32.1251L11.4751 44.0501C11.064 44.3352 10.5565 44.4453 10.0642 44.3562C9.57194 44.2671 9.13521 43.9861 8.8501 43.5751C8.56499 43.164 8.45487 42.6565 8.54395 42.1642C8.63303 41.6719 8.91402 41.2352 9.3251 40.95L29.3251 27.0001C29.6053 26.804 29.9338 26.6882 30.2751 26.6654C30.6163 26.6426 30.9573 26.7136 31.2612 26.8706C31.565 27.0277 31.8201 27.2649 31.9988 27.5565C32.1775 27.8481 32.2731 28.183 32.2751 28.525V55.0001C32.2686 55.4953 32.069 55.9685 31.7188 56.3187C31.3685 56.669 30.8954 56.8686 30.4001 56.8751Z" fill="black"/>
<path d="M50.3999 44.375C50.0168 44.379 49.6416 44.2656 49.3249 44.05L29.3249 30.075C28.9499 29.7908 28.6954 29.3759 28.6121 28.9128C28.5287 28.4497 28.6225 27.9722 28.8749 27.575C29.1554 27.1951 29.5707 26.9368 30.0355 26.8531C30.5003 26.7695 30.9795 26.8667 31.3749 27.125L51.3749 41.075C51.5777 41.2171 51.7503 41.398 51.8828 41.6071C52.0153 41.8163 52.1051 42.0497 52.1469 42.2937C52.1888 42.5378 52.1819 42.7877 52.1266 43.0291C52.0713 43.2704 51.9688 43.4985 51.8249 43.7C51.6542 43.9133 51.4371 44.0849 51.1902 44.2018C50.9434 44.3188 50.6731 44.378 50.3999 44.375Z" fill="black"/>
</svg>
