<svg width="60" height="60" viewBox="0 0 60 60" fill="none" xmlns="http://www.w3.org/2000/svg">
<path d="M52.0251 47.5C51.7688 47.5464 51.5063 47.5464 51.2501 47.5C50.6216 47.2989 50.0982 46.8576 49.7938 46.2722C49.4894 45.6868 49.4287 45.0049 49.6251 44.375C50.5955 41.293 50.8265 38.0258 50.2993 34.838C49.7721 31.6501 48.5015 28.6313 46.5904 26.0259C44.6793 23.4205 42.1815 21.3019 39.2992 19.8415C36.4169 18.3811 33.2312 17.6202 30 17.6202C26.7689 17.6202 23.5832 18.3811 20.7009 19.8415C17.8186 21.3019 15.3208 23.4205 13.4097 26.0259C11.4986 28.6313 10.228 31.6501 9.70079 34.838C9.17357 38.0258 9.40456 41.293 10.3751 44.375C10.4735 44.6885 10.5093 45.0184 10.4803 45.3457C10.4513 45.6731 10.3582 45.9915 10.2061 46.2828C10.054 46.5742 9.84609 46.8327 9.59412 47.0437C9.34214 47.2547 9.05108 47.414 8.73755 47.5125C8.10435 47.7114 7.41806 47.6506 6.82966 47.3435C6.24127 47.0364 5.79896 46.5082 5.60005 45.875C4.39714 42.0447 4.11286 37.9851 4.77019 34.0246C5.42753 30.064 7.00803 26.3139 9.38379 23.0776C11.7596 19.8413 14.8638 17.2098 18.4454 15.396C22.027 13.5822 25.9854 12.637 30 12.637C34.0147 12.637 37.9731 13.5822 41.5547 15.396C45.1363 17.2098 48.2406 19.8413 50.6163 23.0776C52.9921 26.3139 54.5726 30.064 55.2299 34.0246C55.8872 37.9851 55.603 42.0447 54.4001 45.875C54.2198 46.3575 53.8949 46.7726 53.4698 47.0634C53.0447 47.3543 52.5401 47.5068 52.0251 47.5Z" fill="black"/>
<path d="M52.0251 47.5H7.9751C7.31206 47.5 6.67617 47.2366 6.20733 46.7678C5.73849 46.2989 5.4751 45.663 5.4751 45C5.4751 44.337 5.73849 43.7011 6.20733 43.2322C6.67617 42.7634 7.31206 42.5 7.9751 42.5H52.0251C52.6881 42.5 53.324 42.7634 53.7929 43.2322C54.2617 43.7011 54.5251 44.337 54.5251 45C54.5251 45.663 54.2617 46.2989 53.7929 46.7678C53.324 47.2366 52.6881 47.5 52.0251 47.5Z" fill="black"/>
<path d="M30.0001 40.5749C29.6711 40.5768 29.3449 40.5138 29.0403 40.3894C28.7357 40.265 28.4587 40.0816 28.2251 39.8499C27.9908 39.6175 27.8048 39.341 27.6779 39.0364C27.5509 38.7317 27.4856 38.405 27.4856 38.0749C27.4856 37.7449 27.5509 37.4181 27.6779 37.1135C27.8048 36.8089 27.9908 36.5323 28.2251 36.2999L37.5001 27.0749C37.9685 26.6093 38.6021 26.348 39.2626 26.348C39.9231 26.348 40.5567 26.6093 41.0251 27.0749C41.2594 27.3073 41.4454 27.5839 41.5723 27.8885C41.6992 28.1931 41.7646 28.5199 41.7646 28.8499C41.7646 29.18 41.6992 29.5067 41.5723 29.8114C41.4454 30.116 41.2594 30.3925 41.0251 30.6249L31.8001 39.8499C31.5635 40.0847 31.2824 40.2697 30.9733 40.3942C30.6642 40.5187 30.3333 40.5802 30.0001 40.5749Z" fill="black"/>
</svg>
