<svg width="61" height="60" viewBox="0 0 61 60" fill="none" xmlns="http://www.w3.org/2000/svg">
<path d="M30.6001 30.35C15.6001 30.35 4.45007 25 4.45007 17.85C4.45007 10.7 15.7001 5.34998 30.6001 5.34998C45.5001 5.34998 56.7501 10.725 56.7501 17.85C56.7501 24.975 45.6001 30.35 30.6001 30.35ZM30.6001 9.12498C17.4001 9.12498 8.10007 13.725 8.10007 17.875C8.10007 22.025 17.3001 26.6 30.6001 26.6C43.9001 26.6 53.1001 22 53.1001 17.875C53.1001 13.75 43.8001 9.12498 30.6001 9.12498Z" fill="black"/>
<path d="M30.6001 42.5C23.3364 42.7459 16.1363 41.0731 9.72507 37.65C8.25832 36.9412 7.00092 35.8635 6.07618 34.5224C5.15144 33.1813 4.59109 31.6229 4.45007 30C4.59416 28.3715 5.15824 26.8083 6.08721 25.4631C7.01617 24.1178 8.27823 23.0366 9.75007 22.325C10.1691 22.096 10.659 22.0331 11.1222 22.1489C11.5855 22.2647 11.9881 22.5507 12.2501 22.95C12.4874 23.3647 12.5575 23.8544 12.446 24.319C12.3345 24.7837 12.0498 25.1882 11.6501 25.45C9.45007 26.925 8.10007 28.5 8.10007 30C8.10007 31.5 9.35007 33.075 11.6251 34.475C17.464 37.5441 24.0092 39.0187 30.6001 38.75C37.1574 39.001 43.6658 37.5269 49.4751 34.475C51.7501 33.075 53.1001 31.5 53.1001 30C53.1001 28.5 51.8501 26.925 49.5751 25.525C49.1753 25.2632 48.8906 24.8587 48.7791 24.394C48.6676 23.9294 48.7377 23.4397 48.9751 23.025C49.237 22.6257 49.6397 22.3397 50.1029 22.2239C50.5662 22.1081 51.0561 22.171 51.4751 22.4C52.932 23.1084 54.1824 24.1795 55.1062 25.5104C56.0299 26.8412 56.596 28.3873 56.7501 30C56.606 31.6285 56.0419 33.1917 55.1129 34.5369C54.184 35.8822 52.9219 36.9634 51.4501 37.675C45.0422 41.0807 37.8526 42.7445 30.6001 42.5Z" fill="black"/>
<path d="M30.6001 54.625C15.6001 54.625 4.45007 49.25 4.45007 42.125C4.59832 40.5009 5.16433 38.9428 6.09306 37.6023C7.0218 36.2618 8.28164 35.1844 9.75007 34.475C10.1648 34.2376 10.6545 34.1675 11.1191 34.279C11.5837 34.3905 11.9883 34.6752 12.2501 35.075C12.4815 35.4911 12.5483 35.9789 12.4371 36.4419C12.326 36.9048 12.0451 37.3092 11.6501 37.575C9.45007 39.05 8.10007 40.65 8.10007 42.125C8.10007 46.275 17.3001 50.875 30.6001 50.875C43.9001 50.875 53.1001 46.275 53.1001 42.125C53.1001 40.65 51.8501 39.05 49.5751 37.675C49.18 37.4092 48.8991 37.0048 48.788 36.5419C48.6769 36.0789 48.7437 35.5911 48.9751 35.175C49.2369 34.7752 49.6414 34.4905 50.1061 34.379C50.5707 34.2675 51.0604 34.3376 51.4751 34.575C52.9435 35.2844 54.2034 36.3618 55.1321 37.7023C56.0608 39.0428 56.6268 40.6009 56.7751 42.225C56.7501 49.25 45.6001 54.625 30.6001 54.625Z" fill="black"/>
</svg>
