<svg width="61" height="60" viewBox="0 0 61 60" fill="none" xmlns="http://www.w3.org/2000/svg">
<path d="M30.0252 51.875H10.1502C8.70679 51.8684 7.32438 51.2921 6.30373 50.2715C5.28308 49.2508 4.70677 47.8684 4.7002 46.425V10C4.7002 9.50272 4.89774 9.02581 5.24937 8.67417C5.601 8.32254 6.07791 8.125 6.5752 8.125H21.0502C35.8502 8.125 53.5502 18.125 54.3752 18.475C54.6663 18.634 54.9085 18.8693 55.0759 19.1556C55.2432 19.4419 55.3294 19.7684 55.3252 20.1V30.1C55.3252 30.5973 55.1277 31.0742 54.776 31.4258C54.4244 31.7775 53.9475 31.975 53.4502 31.975C52.9529 31.975 52.476 31.7775 52.1244 31.4258C51.7727 31.0742 51.5752 30.5973 51.5752 30.1V21.125C47.7252 19.1 33.0252 11.775 21.0502 11.775H8.5502V46.425C8.5502 46.8759 8.7293 47.3083 9.04811 47.6271C9.36693 47.9459 9.79933 48.125 10.2502 48.125H30.2502C30.7475 48.125 31.2244 48.3225 31.576 48.6742C31.9277 49.0258 32.1252 49.5027 32.1252 50C32.1252 50.4973 31.9277 50.9742 31.576 51.3258C31.2244 51.6774 30.7475 51.875 30.2502 51.875H30.0252Z" fill="black"/>
<path d="M53.4502 21.875H6.5752C6.07791 21.875 5.601 21.6775 5.24937 21.3258C4.89774 20.9742 4.7002 20.4973 4.7002 20C4.7002 19.5027 4.89774 19.0258 5.24937 18.6742C5.601 18.3225 6.07791 18.125 6.5752 18.125H53.4502C53.9475 18.125 54.4244 18.3225 54.776 18.6742C55.1277 19.0258 55.3252 19.5027 55.3252 20C55.3252 20.4973 55.1277 20.9742 54.776 21.3258C54.4244 21.6775 53.9475 21.875 53.4502 21.875Z" fill="black"/>
<path d="M55.0252 45.775H35.9502C35.4529 45.775 34.976 45.5775 34.6244 45.2258C34.2727 44.8742 34.0752 44.3973 34.0752 43.9C34.0752 43.4027 34.2727 42.9258 34.6244 42.5742C34.976 42.2226 35.4529 42.025 35.9502 42.025H55.0252C55.5225 42.025 55.9994 42.2226 56.351 42.5742C56.7026 42.9258 56.9002 43.4027 56.9002 43.9C56.9002 44.3973 56.7026 44.8742 56.351 45.2258C55.9994 45.5775 55.5225 45.775 55.0252 45.775Z" fill="black"/>
<path d="M45.5001 55.325C45.0028 55.325 44.5259 55.1275 44.1743 54.7758C43.8227 54.4242 43.6251 53.9473 43.6251 53.45V34.375C43.6251 33.8777 43.8227 33.4008 44.1743 33.0492C44.5259 32.6975 45.0028 32.5 45.5001 32.5C45.9974 32.5 46.4743 32.6975 46.8259 33.0492C47.1776 33.4008 47.3751 33.8777 47.3751 34.375V53.45C47.3686 53.9453 47.169 54.4184 46.8188 54.7687C46.4686 55.1189 45.9954 55.3185 45.5001 55.325Z" fill="black"/>
</svg>
