<svg width="60" height="60" viewBox="0 0 60 60" fill="none" xmlns="http://www.w3.org/2000/svg">
<path d="M42.5 52.5H17.5C14.8478 52.5 12.3043 51.4464 10.4289 49.5711C8.55357 47.6957 7.5 45.1522 7.5 42.5V27.5C7.5 24.8478 8.55357 22.3043 10.4289 20.4289C12.3043 18.5536 14.8478 17.5 17.5 17.5H42.5C45.1522 17.5 47.6957 18.5536 49.5711 20.4289C51.4464 22.3043 52.5 24.8478 52.5 27.5V42.5C52.5 45.1522 51.4464 47.6957 49.5711 49.5711C47.6957 51.4464 45.1522 52.5 42.5 52.5ZM17.5 22.5C16.1739 22.5 14.9021 23.0268 13.9645 23.9645C13.0268 24.9021 12.5 26.1739 12.5 27.5V42.5C12.5 43.8261 13.0268 45.0979 13.9645 46.0355C14.9021 46.9732 16.1739 47.5 17.5 47.5H42.5C43.8261 47.5 45.0979 46.9732 46.0355 46.0355C46.9732 45.0979 47.5 43.8261 47.5 42.5V27.5C47.5 26.1739 46.9732 24.9021 46.0355 23.9645C45.0979 23.0268 43.8261 22.5 42.5 22.5H17.5Z" fill="black"/>
<path d="M10 32.5C9.33696 32.5 8.70107 32.2366 8.23223 31.7678C7.76339 31.2989 7.5 30.663 7.5 30V10C7.5 9.33696 7.76339 8.70107 8.23223 8.23223C8.70107 7.76339 9.33696 7.5 10 7.5H22.5C22.8914 7.50235 23.2767 7.59654 23.625 7.775L43.625 17.775C44.1659 18.1005 44.5636 18.6185 44.7384 19.225C44.9131 19.8316 44.8519 20.4818 44.5671 21.0452C44.2823 21.6085 43.7949 22.0432 43.2028 22.2621C42.6107 22.4809 41.9577 22.4677 41.375 22.225L21.9 12.5H12.5V30C12.5 30.663 12.2366 31.2989 11.7678 31.7678C11.2989 32.2366 10.663 32.5 10 32.5Z" fill="black"/>
</svg>
