<svg width="60" height="60" viewBox="0 0 60 60" fill="none" xmlns="http://www.w3.org/2000/svg">
<path d="M10 17.175C8.64136 17.1701 7.31461 16.7627 6.18732 16.0042C5.06002 15.2458 4.18273 14.1703 3.66621 12.9137C3.14969 11.657 3.0171 10.2755 3.28519 8.9435C3.55328 7.61153 4.21002 6.38886 5.1725 5.42988C6.13497 4.47089 7.36002 3.81859 8.69295 3.55534C10.0259 3.29208 11.4069 3.42968 12.6617 3.95076C13.9165 4.47184 14.9888 5.35303 15.7431 6.48307C16.4974 7.61311 16.9 8.94133 16.9 10.3C16.9 11.205 16.7214 12.101 16.3743 12.9367C16.0273 13.7725 15.5186 14.5315 14.8776 15.1702C14.2365 15.809 13.4757 16.3148 12.6387 16.6589C11.8017 17.0029 10.905 17.1783 10 17.175ZM10 7.17501C9.38305 7.17994 8.78134 7.36741 8.27073 7.71377C7.76013 8.06014 7.36348 8.54991 7.13079 9.12134C6.89809 9.69278 6.83976 10.3203 6.96315 10.9248C7.08654 11.5294 7.38612 12.0839 7.82414 12.5184C8.26216 12.9529 8.81901 13.2481 9.42451 13.3667C10.03 13.4852 10.6571 13.4219 11.2266 13.1847C11.7962 12.9474 12.2828 12.5469 12.6251 12.0335C12.9673 11.5202 13.15 10.917 13.15 10.3C13.15 9.88751 13.0684 9.4791 12.9098 9.09832C12.7512 8.71754 12.5188 8.37192 12.2259 8.08141C11.9331 7.7909 11.5856 7.56124 11.2036 7.40567C10.8216 7.2501 10.4125 7.17171 10 7.17501Z" fill="black"/>
<path d="M30 17.175C28.6403 17.175 27.311 16.7718 26.1805 16.0163C25.0499 15.2609 24.1687 14.1872 23.6483 12.9309C23.128 11.6747 22.9918 10.2924 23.2571 8.95875C23.5224 7.62513 24.1772 6.40012 25.1386 5.43863C26.1001 4.47715 27.3251 3.82237 28.6588 3.55709C29.9924 3.29182 31.3747 3.42797 32.6309 3.94832C33.8872 4.46867 34.9609 5.34986 35.7164 6.48045C36.4718 7.61103 36.875 8.94024 36.875 10.3C36.875 11.2028 36.6972 12.0968 36.3517 12.9309C36.0062 13.7651 35.4998 14.5229 34.8614 15.1614C34.223 15.7998 33.4651 16.3062 32.6309 16.6517C31.7968 16.9972 30.9028 17.175 30 17.175ZM30 7.17499C29.3819 7.17499 28.7777 7.35827 28.2638 7.70165C27.7499 8.04503 27.3494 8.53309 27.1129 9.1041C26.8764 9.67512 26.8145 10.3035 26.935 10.9096C27.0556 11.5158 27.3533 12.0727 27.7903 12.5097C28.2273 12.9467 28.7842 13.2444 29.3903 13.3649C29.9965 13.4855 30.6249 13.4236 31.1959 13.1871C31.7669 12.9506 32.255 12.5501 32.5983 12.0361C32.9417 11.5222 33.125 10.9181 33.125 10.3C33.125 9.47119 32.7958 8.67633 32.2097 8.09028C31.6237 7.50423 30.8288 7.17499 30 7.17499Z" fill="black"/>
<path d="M50.2001 17.175C48.8403 17.175 47.5111 16.7718 46.3805 16.0163C45.2499 15.2609 44.3688 14.1872 43.8484 12.9309C43.3281 11.6747 43.1919 10.2924 43.4572 8.95875C43.7225 7.62513 44.3772 6.40012 45.3387 5.43863C46.3002 4.47715 47.5252 3.82237 48.8588 3.55709C50.1924 3.29182 51.5748 3.42797 52.831 3.94832C54.0873 4.46867 55.161 5.34986 55.9164 6.48045C56.6719 7.61103 57.0751 8.94024 57.0751 10.3C57.0751 12.1234 56.3507 13.872 55.0614 15.1614C53.7721 16.4507 52.0234 17.175 50.2001 17.175ZM50.2001 7.17499C49.582 7.17499 48.9778 7.35827 48.4639 7.70165C47.95 8.04503 47.5495 8.53309 47.313 9.1041C47.0764 9.67512 47.0145 10.3035 47.1351 10.9096C47.2557 11.5158 47.5533 12.0727 47.9904 12.5097C48.4274 12.9467 48.9842 13.2444 49.5904 13.3649C50.1966 13.4855 50.8249 13.4236 51.396 13.1871C51.967 12.9506 52.455 12.5501 52.7984 12.0361C53.1418 11.5222 53.3251 10.9181 53.3251 10.3C53.3251 9.47119 52.9958 8.67633 52.4098 8.09028C51.8237 7.50423 51.0289 7.17499 50.2001 7.17499Z" fill="black"/>
<path d="M9.80005 36.875C8.44031 36.875 7.11109 36.4718 5.98051 35.7164C4.84992 34.9609 3.96873 33.8872 3.44838 32.631C2.92803 31.3747 2.79188 29.9924 3.05715 28.6588C3.32243 27.3251 3.97721 26.1001 4.93869 25.1386C5.90018 24.1772 7.12519 23.5224 8.45881 23.2571C9.79243 22.9918 11.1748 23.128 12.431 23.6483C13.6872 24.1687 14.761 25.0499 15.5164 26.1805C16.2718 27.311 16.6751 28.6403 16.6751 30C16.6751 31.8234 15.9507 33.5721 14.6614 34.8614C13.3721 36.1507 11.6234 36.875 9.80005 36.875ZM9.80005 26.875C9.18199 26.875 8.5778 27.0583 8.0639 27.4017C7.54999 27.745 7.14945 28.2331 6.91293 28.8041C6.6764 29.3751 6.61452 30.0035 6.7351 30.6097C6.85568 31.2159 7.1533 31.7727 7.59034 32.2097C8.02738 32.6468 8.5842 32.9444 9.1904 33.065C9.79659 33.1855 10.4249 33.1237 10.9959 32.8871C11.567 32.6506 12.055 32.2501 12.3984 31.7362C12.7418 31.2223 12.9251 30.6181 12.9251 30C12.9185 29.1732 12.5872 28.3822 12.0025 27.7975C11.4179 27.2129 10.6268 26.8815 9.80005 26.875Z" fill="black"/>
<path d="M30.0001 36.875C28.6363 36.8948 27.2974 36.5086 26.1537 35.7653C25.0101 35.022 24.1133 33.9554 23.5776 32.701C23.0419 31.4466 22.8914 30.0613 23.1453 28.7211C23.3992 27.381 24.0459 26.1466 25.0033 25.1751C25.9607 24.2036 27.1854 23.5388 28.5217 23.2653C29.858 22.9919 31.2454 23.122 32.5075 23.6393C33.7696 24.1566 34.8492 25.0376 35.6092 26.1703C36.3691 27.3029 36.775 28.636 36.7752 30C36.7753 31.8062 36.0648 33.5399 34.797 34.8264C33.5292 36.1128 31.8061 36.8487 30.0001 36.875ZM30.0001 26.875C29.3782 26.8551 28.7645 27.0213 28.2376 27.3524C27.7107 27.6834 27.2947 28.1642 27.0427 28.7332C26.7908 29.3022 26.7145 29.9334 26.8235 30.546C26.9326 31.1587 27.222 31.7248 27.6548 32.1719C28.0876 32.619 28.644 32.9267 29.2528 33.0556C29.8615 33.1845 30.4949 33.1288 31.0718 32.8955C31.6487 32.6622 32.1427 32.262 32.4907 31.7461C32.8388 31.2303 33.0248 30.6223 33.0252 30C33.0256 29.1882 32.7101 28.4082 32.1455 27.8249C31.5809 27.2417 30.8115 26.901 30.0001 26.875Z" fill="black"/>
<path d="M50 36.875C48.6392 36.8799 47.3075 36.4809 46.1736 35.7285C45.0398 34.9761 44.1547 33.9041 43.6305 32.6483C43.1063 31.3925 42.9666 30.0094 43.229 28.6741C43.4915 27.3388 44.1443 26.1115 45.1048 25.1475C46.0653 24.1835 47.2902 23.5263 48.6245 23.2589C49.9588 22.9916 51.3424 23.1263 52.6001 23.6459C53.8578 24.1655 54.933 25.0467 55.6896 26.1778C56.4461 27.309 56.85 28.6392 56.85 30C56.85 31.819 56.1291 33.5639 54.8452 34.8525C53.5613 36.1411 51.819 36.8683 50 36.875ZM50 26.875C49.3809 26.87 48.7742 27.0491 48.2571 27.3894C47.7399 27.7298 47.3355 28.2161 47.0951 28.7866C46.8547 29.3572 46.7893 29.9863 46.907 30.5941C47.0248 31.202 47.3204 31.7611 47.7564 32.2007C48.1924 32.6402 48.7492 32.9403 49.3561 33.063C49.9629 33.1856 50.5925 33.1252 51.165 32.8894C51.7375 32.6536 52.227 32.2531 52.5715 31.7387C52.916 31.2243 53.1 30.6191 53.1 30C53.1 29.1755 52.7742 28.3844 52.1935 27.799C51.6129 27.2137 50.8244 26.8816 50 26.875Z" fill="black"/>
<path d="M10 56.575C8.64026 56.575 7.31105 56.1718 6.18046 55.4164C5.04987 54.6609 4.16868 53.5872 3.64833 52.331C3.12798 51.0747 2.99183 49.6924 3.2571 48.3588C3.52238 47.0252 4.17716 45.8001 5.13864 44.8387C6.10013 43.8772 7.32514 43.2224 8.65876 42.9571C9.99238 42.6918 11.3747 42.828 12.631 43.3483C13.8872 43.8687 14.9609 44.7499 15.7164 45.8805C16.4718 47.0111 16.875 48.3403 16.875 49.7C16.875 51.5234 16.1507 53.2721 14.8614 54.5614C13.5721 55.8507 11.8234 56.575 10 56.575ZM10 46.575C9.38194 46.575 8.77775 46.7583 8.26385 47.1017C7.74994 47.4451 7.3494 47.9331 7.11288 48.5041C6.87636 49.0751 6.81447 49.7035 6.93505 50.3097C7.05563 50.9159 7.35326 51.4727 7.7903 51.9097C8.22733 52.3468 8.78416 52.6444 9.39035 52.765C9.99654 52.8855 10.6249 52.8237 11.1959 52.5871C11.7669 52.3506 12.255 51.9501 12.5983 51.4362C12.9417 50.9223 13.125 50.3181 13.125 49.7C13.125 48.8712 12.7958 48.0764 12.2097 47.4903C11.6237 46.9043 10.8288 46.575 10 46.575Z" fill="black"/>
<path d="M30 56.575C28.6403 56.575 27.311 56.1718 26.1805 55.4164C25.0499 54.6609 24.1687 53.5872 23.6483 52.331C23.128 51.0747 22.9918 49.6924 23.2571 48.3588C23.5224 47.0252 24.1772 45.8001 25.1386 44.8387C26.1001 43.8772 27.3251 43.2224 28.6588 42.9571C29.9924 42.6918 31.3747 42.828 32.6309 43.3483C33.8872 43.8687 34.9609 44.7499 35.7164 45.8805C36.4718 47.0111 36.875 48.3403 36.875 49.7C36.8684 51.5213 36.142 53.2662 34.8541 54.5541C33.5662 55.842 31.8213 56.5684 30 56.575ZM30 46.575C29.3819 46.575 28.7777 46.7583 28.2638 47.1017C27.7499 47.4451 27.3494 47.9331 27.1129 48.5041C26.8764 49.0751 26.8145 49.7035 26.935 50.3097C27.0556 50.9159 27.3533 51.4727 27.7903 51.9097C28.2273 52.3468 28.7842 52.6444 29.3903 52.765C29.9965 52.8855 30.6249 52.8237 31.1959 52.5871C31.7669 52.3506 32.255 51.9501 32.5983 51.4362C32.9417 50.9223 33.125 50.3181 33.125 49.7C33.125 48.8712 32.7958 48.0764 32.2097 47.4903C31.6237 46.9043 30.8288 46.575 30 46.575Z" fill="black"/>
<path d="M50.2001 56.575C48.8403 56.575 47.5111 56.1718 46.3805 55.4164C45.2499 54.6609 44.3688 53.5872 43.8484 52.331C43.3281 51.0747 43.1919 49.6924 43.4572 48.3588C43.7225 47.0252 44.3772 45.8001 45.3387 44.8387C46.3002 43.8772 47.5252 43.2224 48.8588 42.9571C50.1924 42.6918 51.5748 42.828 52.831 43.3483C54.0873 43.8687 55.161 44.7499 55.9164 45.8805C56.6719 47.0111 57.0751 48.3403 57.0751 49.7C57.0751 51.5234 56.3507 53.2721 55.0614 54.5614C53.7721 55.8507 52.0234 56.575 50.2001 56.575ZM50.2001 46.575C49.582 46.575 48.9778 46.7583 48.4639 47.1017C47.95 47.4451 47.5495 47.9331 47.313 48.5041C47.0764 49.0751 47.0145 49.7035 47.1351 50.3097C47.2557 50.9159 47.5533 51.4727 47.9904 51.9097C48.4274 52.3468 48.9842 52.6444 49.5904 52.765C50.1966 52.8855 50.8249 52.8237 51.396 52.5871C51.967 52.3506 52.455 51.9501 52.7984 51.4362C53.1418 50.9223 53.3251 50.3181 53.3251 49.7C53.3251 48.8712 52.9958 48.0764 52.4098 47.4903C51.8237 46.9043 51.0289 46.575 50.2001 46.575Z" fill="black"/>
</svg>
