<svg width="60" height="60" viewBox="0 0 60 60" fill="none" xmlns="http://www.w3.org/2000/svg">
<path d="M45.0002 47.5H15.0002C12.3481 47.5 9.80454 46.4464 7.92918 44.5711C6.05381 42.6957 5.00024 40.1522 5.00024 37.5V17.5C5.00024 14.8478 6.05381 12.3043 7.92918 10.4289C9.80454 8.55357 12.3481 7.5 15.0002 7.5H45.0002C47.6524 7.5 50.1959 8.55357 52.0713 10.4289C53.9467 12.3043 55.0002 14.8478 55.0002 17.5V37.5C55.0002 40.1522 53.9467 42.6957 52.0713 44.5711C50.1959 46.4464 47.6524 47.5 45.0002 47.5ZM15.0002 12.5C13.6742 12.5 12.4024 13.0268 11.4647 13.9645C10.527 14.9021 10.0002 16.1739 10.0002 17.5V37.5C10.0002 38.8261 10.527 40.0979 11.4647 41.0355C12.4024 41.9732 13.6742 42.5 15.0002 42.5H45.0002C46.3263 42.5 47.5981 41.9732 48.5358 41.0355C49.4735 40.0979 50.0002 38.8261 50.0002 37.5V17.5C50.0002 16.1739 49.4735 14.9021 48.5358 13.9645C47.5981 13.0268 46.3263 12.5 45.0002 12.5H15.0002Z" fill="black"/>
<path d="M30 35.2001C29.7278 35.2095 29.4564 35.167 29.2 35.0751L6.70001 27.5001C6.38812 27.395 6.09998 27.2296 5.85204 27.0131C5.60409 26.7967 5.4012 26.5336 5.25495 26.2388C5.1087 25.9439 5.02195 25.6232 4.99965 25.2948C4.97736 24.9665 5.01996 24.637 5.12501 24.3251C5.23007 24.0132 5.39553 23.725 5.61195 23.4771C5.82836 23.2292 6.0915 23.0263 6.38632 22.88C6.68115 22.7338 7.00189 22.647 7.33024 22.6247C7.6586 22.6024 7.98812 22.645 8.30001 22.7501L30 30.0001L51.7 22.9751C52.0257 22.8511 52.3737 22.7967 52.7217 22.8151C53.0697 22.8336 53.4099 22.9246 53.7207 23.0824C54.0314 23.2401 54.3057 23.461 54.526 23.731C54.7464 24.001 54.9078 24.314 55 24.6501C55.2051 25.28 55.1517 25.9655 54.8518 26.5561C54.5518 27.1467 54.0296 27.5941 53.4 27.8001L30.9 35.0751C30.6127 35.1819 30.3055 35.2246 30 35.2001Z" fill="black"/>
<path d="M9.80002 45.3999C9.471 45.4018 9.14485 45.3388 8.84025 45.2144C8.53566 45.09 8.25862 44.9066 8.02502 44.6749C7.7907 44.4425 7.60471 44.166 7.47779 43.8614C7.35087 43.5567 7.28552 43.23 7.28552 42.8999C7.28552 42.5699 7.35087 42.2431 7.47779 41.9385C7.60471 41.6338 7.7907 41.3573 8.02502 41.1249L20.75 28.4249C21.2283 28.0154 21.8435 27.8014 22.4727 27.8257C23.1018 27.85 23.6987 28.1108 24.1439 28.556C24.5892 29.0013 24.85 29.5981 24.8743 30.2273C24.8986 30.8565 24.6846 31.4717 24.275 31.9499L11.575 44.6749C11.3414 44.9066 11.0644 45.09 10.7598 45.2144C10.4552 45.3388 10.129 45.4018 9.80002 45.3999Z" fill="black"/>
<path d="M50.2001 45.4C49.8711 45.4019 49.5449 45.3388 49.2403 45.2144C48.9357 45.09 48.6587 44.9067 48.4251 44.675L35.7751 32C35.3655 31.5217 35.1515 30.9065 35.1758 30.2774C35.2001 29.6482 35.4609 29.0513 35.9062 28.6061C36.3514 28.1608 36.9483 27.9 37.5775 27.8757C38.2067 27.8514 38.8218 28.0654 39.3001 28.475L51.9751 41.125C52.2094 41.3574 52.3954 41.6339 52.5223 41.9385C52.6492 42.2432 52.7146 42.57 52.7146 42.9C52.7146 43.23 52.6492 43.5568 52.5223 43.8614C52.3954 44.1661 52.2094 44.4426 51.9751 44.675C51.7415 44.9067 51.4645 45.09 51.1599 45.2144C50.8553 45.3388 50.5291 45.4019 50.2001 45.4Z" fill="black"/>
</svg>
