<svg width="61" height="60" viewBox="0 0 61 60" fill="none" xmlns="http://www.w3.org/2000/svg">
<path d="M30.4 43.75C31.4356 43.75 32.275 42.9105 32.275 41.875C32.275 40.8395 31.4356 40 30.4 40C29.3645 40 28.525 40.8395 28.525 41.875C28.525 42.9105 29.3645 43.75 30.4 43.75Z" fill="black"/>
<path d="M51.35 51.625H9.44997C8.84776 51.6418 8.25165 51.5007 7.72093 51.2156C7.19022 50.9305 6.74341 50.5114 6.42497 50C6.11778 49.4679 5.95605 48.8644 5.95605 48.25C5.95605 47.6356 6.11778 47.0321 6.42497 46.5L27.375 10C27.7053 9.49975 28.1545 9.08923 28.6824 8.8052C29.2104 8.52117 29.8005 8.3725 30.4 8.3725C30.9994 8.3725 31.5896 8.52117 32.1175 8.8052C32.6454 9.08923 33.0946 9.49975 33.425 10L54.375 46.3C54.6822 46.8321 54.8439 47.4356 54.8439 48.05C54.8439 48.6644 54.6822 49.2679 54.375 49.8C54.082 50.3486 53.6463 50.8078 53.1138 51.1291C52.5813 51.4503 51.9719 51.6217 51.35 51.625ZM9.89997 47.875H50.9L30.4 12.5L9.89997 47.875Z" fill="black"/>
<path d="M30.4 36.55C29.9027 36.55 29.4258 36.3525 29.0742 36.0009C28.7226 35.6492 28.525 35.1723 28.525 34.675V24.15C28.525 23.6527 28.7226 23.1758 29.0742 22.8242C29.4258 22.4726 29.9027 22.275 30.4 22.275C30.8973 22.275 31.3742 22.4726 31.7258 22.8242C32.0775 23.1758 32.275 23.6527 32.275 24.15V34.675C32.275 35.1723 32.0775 35.6492 31.7258 36.0009C31.3742 36.3525 30.8973 36.55 30.4 36.55Z" fill="black"/>
</svg>
