<svg width="61" height="60" viewBox="0 0 61 60" fill="none" xmlns="http://www.w3.org/2000/svg">
<path d="M30.1999 40.725C31.2355 40.725 32.0749 39.8855 32.0749 38.85C32.0749 37.8144 31.2355 36.975 30.1999 36.975C29.1644 36.975 28.325 37.8144 28.325 38.85C28.325 39.8855 29.1644 40.725 30.1999 40.725Z" fill="black"/>
<path d="M30.2 33.525C29.9528 33.5283 29.7075 33.4821 29.4785 33.3891C29.2495 33.2961 29.0415 33.1581 28.8667 32.9833C28.6919 32.8085 28.5539 32.6005 28.4609 32.3715C28.3678 32.1425 28.3216 31.8971 28.325 31.65V21.15C28.325 20.6527 28.5225 20.1758 28.8742 19.8241C29.2258 19.4725 29.7027 19.275 30.2 19.275C30.6973 19.275 31.1742 19.4725 31.5258 19.8241C31.8775 20.1758 32.075 20.6527 32.075 21.15V31.65C32.075 32.1472 31.8775 32.6242 31.5258 32.9758C31.1742 33.3274 30.6973 33.525 30.2 33.525Z" fill="black"/>
<path d="M39.6 54.575H20.8C20.3029 54.5746 19.8263 54.3767 19.475 54.025L6.175 40.725C5.82327 40.3737 5.62544 39.8971 5.625 39.4V20.6C5.62544 20.1029 5.82327 19.6263 6.175 19.275L19.475 5.97499C19.8263 5.62326 20.3029 5.42543 20.8 5.42499H39.6C40.0971 5.42543 40.5737 5.62326 40.925 5.97499L54.225 19.275C54.5767 19.6263 54.7746 20.1029 54.775 20.6V39.4C54.7746 39.8971 54.5767 40.3737 54.225 40.725L40.925 54.025C40.5737 54.3767 40.0971 54.5746 39.6 54.575ZM21.575 50.825H38.825L51.025 38.625V21.375L38.825 9.17499H21.575L9.375 21.375V38.625L21.575 50.825Z" fill="black"/>
</svg>
