<svg width="61" height="60" viewBox="0 0 61 60" fill="none" xmlns="http://www.w3.org/2000/svg">
<path d="M41.1751 31.525H6.42505C5.92978 31.5185 5.45662 31.3189 5.10638 30.9687C4.75615 30.6184 4.55652 30.1453 4.55005 29.65V18.05C4.55652 17.5547 4.75615 17.0816 5.10638 16.7313C5.45662 16.3811 5.92978 16.1815 6.42505 16.175H41.1751C41.6723 16.175 42.1492 16.3725 42.5009 16.7242C42.8525 17.0758 43.0501 17.5527 43.0501 18.05V29.65C43.0501 30.1473 42.8525 30.6242 42.5009 30.9758C42.1492 31.3274 41.6723 31.525 41.1751 31.525ZM8.30005 27.775H39.3001V20H8.30005V27.775Z" fill="black"/>
<path d="M41.1751 55.175H6.42505C5.92978 55.1685 5.45662 54.9689 5.10638 54.6187C4.75615 54.2684 4.55652 53.7953 4.55005 53.3V41.7C4.55652 41.2047 4.75615 40.7316 5.10638 40.3813C5.45662 40.0311 5.92978 39.8315 6.42505 39.825H41.1751C41.6723 39.825 42.1492 40.0226 42.5009 40.3742C42.8525 40.7258 43.0501 41.2027 43.0501 41.7V53.3C43.0501 53.7973 42.8525 54.2742 42.5009 54.6258C42.1492 54.9775 41.6723 55.175 41.1751 55.175ZM8.30005 51.425H39.3001V43.575H8.30005V51.425Z" fill="black"/>
<path d="M55.175 49.375H41.175C40.6778 49.375 40.2009 49.1775 39.8492 48.8258C39.4976 48.4742 39.3 47.9973 39.3 47.5C39.3 47.0027 39.4976 46.5258 39.8492 46.1742C40.2009 45.8226 40.6778 45.625 41.175 45.625H53.3V6.70001C53.3 6.20273 53.4976 5.72582 53.8492 5.37419C54.2009 5.02256 54.6778 4.82501 55.175 4.82501C55.6723 4.82501 56.1492 5.02256 56.5009 5.37419C56.8525 5.72582 57.05 6.20273 57.05 6.70001V47.5C57.0436 47.9953 56.844 48.4684 56.4937 48.8187C56.1435 49.1689 55.6703 49.3685 55.175 49.375Z" fill="black"/>
<path d="M55.175 25.725H41.175C40.6778 25.725 40.2009 25.5275 39.8492 25.1759C39.4976 24.8242 39.3 24.3473 39.3 23.85C39.3 23.3528 39.4976 22.8758 39.8492 22.5242C40.2009 22.1726 40.6778 21.975 41.175 21.975H55.175C55.6723 21.975 56.1492 22.1726 56.5009 22.5242C56.8525 22.8758 57.05 23.3528 57.05 23.85C57.05 24.3473 56.8525 24.8242 56.5009 25.1759C56.1492 25.5275 55.6723 25.725 55.175 25.725Z" fill="black"/>
</svg>
