<svg width="60" height="60" viewBox="0 0 60 60" fill="none" xmlns="http://www.w3.org/2000/svg">
<path d="M17.5 18.825C16.837 18.825 16.2011 18.5616 15.7322 18.0928C15.2634 17.6239 15 16.9881 15 16.325V13.5C15.0065 11.1767 15.9289 8.94976 17.567 7.30228C19.2051 5.6548 21.4268 4.71975 23.75 4.70001H36.25C36.913 4.70001 37.5489 4.9634 38.0178 5.43225C38.4866 5.90109 38.75 6.53697 38.75 7.20001C38.75 7.86305 38.4866 8.49894 38.0178 8.96778C37.5489 9.43662 36.913 9.70001 36.25 9.70001H23.75C22.7509 9.71316 21.7971 10.1193 21.0953 10.8305C20.3934 11.5417 19.9999 12.5008 20 13.5V16.325C20 16.9881 19.7366 17.6239 19.2678 18.0928C18.7989 18.5616 18.163 18.825 17.5 18.825Z" fill="black"/>
<path d="M44.7498 42.7C44.0867 42.7 43.4508 42.4366 42.982 41.9678C42.5132 41.4989 42.2498 40.863 42.2498 40.2V17.5C42.2498 16.837 42.5132 16.2011 42.982 15.7322C43.4508 15.2634 44.0867 15 44.7498 15C45.4128 15 46.0487 15.2634 46.5175 15.7322C46.9864 16.2011 47.2498 16.837 47.2498 17.5V40.2C47.2498 40.863 46.9864 41.4989 46.5175 41.9678C46.0487 42.4366 45.4128 42.7 44.7498 42.7Z" fill="black"/>
<path d="M42.8499 22.3H36.1749C34.9524 22.248 33.8003 21.7137 32.971 20.814C32.1416 19.9144 31.7025 18.7227 31.7499 17.5V9.47502C31.7093 8.25656 32.1514 7.07133 32.98 6.17712C33.8087 5.28291 34.9569 4.75206 36.1749 4.70002C36.5422 4.69942 36.9051 4.77975 37.2378 4.93531C37.5705 5.09086 37.8649 5.31781 38.0999 5.60002L46.6749 15.9C47.0567 16.3463 47.2691 16.9128 47.2749 17.5C47.3223 18.7227 46.8833 19.9144 46.0539 20.814C45.2245 21.7137 44.0724 22.248 42.8499 22.3ZM36.7499 17.3H41.3249L36.7749 11.825L36.7499 17.3Z" fill="black"/>
<path d="M48.2499 55.3001H11.7499C11.0868 55.3001 10.451 55.0367 9.98211 54.5678C9.51327 54.099 9.24988 53.4631 9.24988 52.8001V16.3251C9.24988 15.662 9.51327 15.0261 9.98211 14.5573C10.451 14.0884 11.0868 13.8251 11.7499 13.8251H20.8749C21.2039 13.8232 21.5301 13.8862 21.8346 14.0106C22.1392 14.135 22.4163 14.3184 22.6499 14.5501L49.9999 41.9251C50.4709 42.3866 50.7405 43.0156 50.7499 43.6751V52.8001C50.7499 53.4631 50.4865 54.099 50.0176 54.5678C49.5488 55.0367 48.9129 55.3001 48.2499 55.3001ZM14.2499 50.3001H45.7499V44.7251L19.8499 18.8251H14.2499V50.3001Z" fill="black"/>
</svg>
