<svg width="60" height="60" viewBox="0 0 60 60" fill="none" xmlns="http://www.w3.org/2000/svg">
<path d="M25.2 56.175H7.22498C6.56193 56.175 5.92605 55.9116 5.45721 55.4428C4.98837 54.9739 4.72498 54.3381 4.72498 53.675V6.32501C4.72498 5.66197 4.98837 5.02609 5.45721 4.55725C5.92605 4.0884 6.56193 3.82501 7.22498 3.82501H25.2C25.863 3.82501 26.4989 4.0884 26.9677 4.55725C27.4366 5.02609 27.7 5.66197 27.7 6.32501V53.675C27.7 54.3381 27.4366 54.9739 26.9677 55.4428C26.4989 55.9116 25.863 56.175 25.2 56.175ZM9.72498 51.175H22.7V8.82501H9.72498V51.175Z" fill="black"/>
<path d="M52.775 56.175H34.8C34.137 56.175 33.5011 55.9116 33.0323 55.4428C32.5634 54.9739 32.3 54.3381 32.3 53.675V6.32501C32.3 5.66197 32.5634 5.02609 33.0323 4.55725C33.5011 4.0884 34.137 3.82501 34.8 3.82501H52.775C53.4381 3.82501 54.074 4.0884 54.5428 4.55725C55.0117 5.02609 55.275 5.66197 55.275 6.32501V53.675C55.275 54.3381 55.0117 54.9739 54.5428 55.4428C54.074 55.9116 53.4381 56.175 52.775 56.175ZM37.3 51.175H50.275V8.82501H37.3V51.175Z" fill="black"/>
<path d="M25 17.9H9.34998C8.68693 17.9 8.05105 17.6366 7.58221 17.1678C7.11337 16.699 6.84998 16.0631 6.84998 15.4C6.84998 14.737 7.11337 14.1011 7.58221 13.6323C8.05105 13.1634 8.68693 12.9 9.34998 12.9H25C25.663 12.9 26.2989 13.1634 26.7677 13.6323C27.2366 14.1011 27.5 14.737 27.5 15.4C27.5 16.0631 27.2366 16.699 26.7677 17.1678C26.2989 17.6366 25.663 17.9 25 17.9Z" fill="black"/>
<path d="M51.95 33.1H35.375C34.712 33.1 34.0761 32.8366 33.6072 32.3677C33.1384 31.8989 32.875 31.263 32.875 30.6C32.875 29.9369 33.1384 29.3011 33.6072 28.8322C34.0761 28.3634 34.712 28.1 35.375 28.1H51.95C52.613 28.1 53.2489 28.3634 53.7178 28.8322C54.1866 29.3011 54.45 29.9369 54.45 30.6C54.45 31.263 54.1866 31.8989 53.7178 32.3677C53.2489 32.8366 52.613 33.1 51.95 33.1Z" fill="black"/>
<path d="M16.2 44.325C15.8749 44.3289 15.5522 44.2695 15.25 44.15C14.6492 43.8813 14.1686 43.4007 13.9 42.8C13.7772 42.4899 13.7177 42.1584 13.725 41.825C13.7277 41.1691 13.9881 40.5406 14.45 40.075C14.7386 39.7823 15.0949 39.5653 15.4873 39.4432C15.8798 39.3211 16.2963 39.2977 16.7 39.375L17.175 39.525L17.5 39.75C17.6362 39.8446 17.7619 39.9536 17.875 40.075C18.346 40.5365 18.6156 41.1655 18.625 41.825C18.6243 42.1601 18.5563 42.4916 18.425 42.8C18.2957 43.1 18.1088 43.3718 17.875 43.6C17.428 44.0441 16.8297 44.303 16.2 44.325Z" fill="black"/>
<path d="M43.7999 44.3251C43.4665 44.3324 43.135 44.2729 42.8249 44.1501C42.2242 43.8815 41.7435 43.4008 41.4749 42.8001C41.3521 42.49 41.2926 42.1585 41.2999 41.8251C41.3027 41.1693 41.563 40.5408 42.0249 40.0751C42.2467 39.8338 42.5202 39.6458 42.8249 39.5251C43.2826 39.3322 43.7874 39.2799 44.2749 39.3751L44.7499 39.5251L45.1749 39.7501C45.3161 39.8383 45.4426 39.9479 45.5499 40.0751C46.0209 40.5367 46.2905 41.1657 46.2999 41.8251C46.2993 42.1602 46.2313 42.4918 46.0999 42.8001C45.9706 43.1001 45.7838 43.3719 45.5499 43.6001C45.0843 44.062 44.4558 44.3223 43.7999 44.3251Z" fill="black"/>
</svg>
