<svg width="60" height="60" viewBox="0 0 60 60" fill="none" xmlns="http://www.w3.org/2000/svg">
<path d="M38.75 56.25H21.25C18.5978 56.25 16.0543 55.1964 14.1789 53.3211C12.3036 51.4457 11.25 48.9022 11.25 46.25V13.75C11.25 11.0978 12.3036 8.5543 14.1789 6.67893C16.0543 4.80357 18.5978 3.75 21.25 3.75H36.025C36.688 3.75 37.3239 4.01339 37.7928 4.48223C38.2616 4.95107 38.525 5.58696 38.525 6.25C38.525 6.91304 38.2616 7.54893 37.7928 8.01777C37.3239 8.48661 36.688 8.75 36.025 8.75H21.25C19.9239 8.75 18.6521 9.27678 17.7145 10.2145C16.7768 11.1521 16.25 12.4239 16.25 13.75V46.25C16.25 47.5761 16.7768 48.8479 17.7145 49.7855C18.6521 50.7232 19.9239 51.25 21.25 51.25H38.75C40.0761 51.25 41.3479 50.7232 42.2855 49.7855C43.2232 48.8479 43.75 47.5761 43.75 46.25V18.525C43.75 17.862 44.0134 17.2261 44.4822 16.7572C44.9511 16.2884 45.587 16.025 46.25 16.025C46.913 16.025 47.5489 16.2884 48.0178 16.7572C48.4866 17.2261 48.75 17.862 48.75 18.525V46.25C48.75 48.9022 47.6964 51.4457 45.8211 53.3211C43.9457 55.1964 41.4022 56.25 38.75 56.25Z" fill="black"/>
<path d="M43.975 23.75H36.025C35.3682 23.7211 34.7235 23.563 34.1279 23.2846C33.5323 23.0063 32.9974 22.6132 32.5539 22.1279C32.1103 21.6425 31.7669 21.0745 31.5431 20.4563C31.3194 19.838 31.2198 19.1818 31.25 18.525V8.975C31.2198 8.31824 31.3194 7.66196 31.5431 7.04373C31.7669 6.42551 32.1103 5.85748 32.5539 5.37215C32.9974 4.88683 33.5323 4.49374 34.1279 4.21539C34.7235 3.93704 35.3682 3.77889 36.025 3.75C36.3923 3.74941 36.7552 3.82974 37.0879 3.98529C37.4206 4.14085 37.715 4.3678 37.95 4.65L48.175 16.925C48.5477 17.3748 48.7512 17.9409 48.75 18.525C48.7803 19.1818 48.6807 19.838 48.4569 20.4563C48.2332 21.0745 47.8897 21.6425 47.4462 22.1279C47.0027 22.6132 46.4678 23.0063 45.8722 23.2846C45.2765 23.563 44.6319 23.7211 43.975 23.75ZM36.275 18.75H43.175L36.25 10.425V18.525C36.25 18.525 36.275 18.7 36.275 18.75Z" fill="black"/>
</svg>
