<svg width="60" height="60" viewBox="0 0 60 60" fill="none" xmlns="http://www.w3.org/2000/svg">
<path d="M38.75 55.6259H21.25C18.7636 55.6259 16.379 54.6382 14.6209 52.88C12.8627 51.1219 11.875 48.7373 11.875 46.2509V13.7509C11.875 11.2645 12.8627 8.87994 14.6209 7.12179C16.379 5.36364 18.7636 4.37592 21.25 4.37592H36.025C36.5223 4.37592 36.9992 4.57346 37.3508 4.92509C37.7025 5.27672 37.9 5.75363 37.9 6.25092C37.9 6.7482 37.7025 7.22511 37.3508 7.57674C36.9992 7.92837 36.5223 8.12592 36.025 8.12592H21.25C19.7582 8.12592 18.3274 8.71855 17.2725 9.77344C16.2176 10.8283 15.625 12.2591 15.625 13.7509V46.2509C15.625 47.7428 16.2176 49.1735 17.2725 50.2284C18.3274 51.2833 19.7582 51.8759 21.25 51.8759H38.75C40.2418 51.8759 41.6726 51.2833 42.7275 50.2284C43.7824 49.1735 44.375 47.7428 44.375 46.2509V18.5259C44.375 18.0286 44.5725 17.5517 44.9242 17.2001C45.2758 16.8485 45.7527 16.6509 46.25 16.6509C46.7473 16.6509 47.2242 16.8485 47.5758 17.2001C47.9275 17.5517 48.125 18.0286 48.125 18.5259V46.2509C48.125 48.7373 47.1373 51.1219 45.3791 52.88C43.621 54.6382 41.2364 55.6259 38.75 55.6259Z" fill="black"/>
<path d="M43.975 23.125H36.025C34.8665 23.0604 33.7804 22.5407 33.0032 21.6792C32.2259 20.8177 31.8204 19.6841 31.875 18.525V8.97503C31.8204 7.816 32.2259 6.68235 33.0032 5.82083C33.7804 4.95931 34.8665 4.43967 36.025 4.37503C36.302 4.362 36.5783 4.41141 36.8336 4.5196C37.089 4.62778 37.3167 4.79197 37.5 5.00003L47.75 17.275C48.0219 17.6162 48.1716 18.0387 48.175 18.475C48.2087 19.0571 48.1264 19.64 47.9328 20.1899C47.7393 20.7399 47.4384 21.2459 47.0476 21.6785C46.6568 22.1112 46.1839 22.4618 45.6565 22.7102C45.129 22.9585 44.5574 23.0995 43.975 23.125ZM35.65 8.72503C35.6365 8.80781 35.6365 8.89224 35.65 8.97503V18.525C35.65 19.1 35.975 19.375 36.05 19.375H44C44 19.375 44.175 19.375 44.275 19.075L35.65 8.72503Z" fill="black"/>
<path d="M37.5 34.375H22.5C22.0027 34.375 21.5258 34.1775 21.1742 33.8258C20.8225 33.4742 20.625 32.9973 20.625 32.5C20.625 32.0027 20.8225 31.5258 21.1742 31.1742C21.5258 30.8225 22.0027 30.625 22.5 30.625H37.5C37.9973 30.625 38.4742 30.8225 38.8258 31.1742C39.1775 31.5258 39.375 32.0027 39.375 32.5C39.375 32.9973 39.1775 33.4742 38.8258 33.8258C38.4742 34.1775 37.9973 34.375 37.5 34.375Z" fill="black"/>
<path d="M37.5 44.375H22.5C22.0027 44.375 21.5258 44.1775 21.1742 43.8258C20.8225 43.4742 20.625 42.9973 20.625 42.5C20.625 42.0027 20.8225 41.5258 21.1742 41.1742C21.5258 40.8225 22.0027 40.625 22.5 40.625H37.5C37.9973 40.625 38.4742 40.8225 38.8258 41.1742C39.1775 41.5258 39.375 42.0027 39.375 42.5C39.375 42.9973 39.1775 43.4742 38.8258 43.8258C38.4742 44.1775 37.9973 44.375 37.5 44.375Z" fill="black"/>
</svg>
