<svg width="60" height="60" viewBox="0 0 60 60" fill="none" xmlns="http://www.w3.org/2000/svg">
<path d="M52.5 32.5H7.5C6.83696 32.5 6.20107 32.2366 5.73223 31.7678C5.26339 31.2989 5 30.663 5 30V7.5C5 6.83696 5.26339 6.20107 5.73223 5.73223C6.20107 5.26339 6.83696 5 7.5 5H52.5C53.163 5 53.7989 5.26339 54.2678 5.73223C54.7366 6.20107 55 6.83696 55 7.5V30C55 30.663 54.7366 31.2989 54.2678 31.7678C53.7989 32.2366 53.163 32.5 52.5 32.5ZM10 27.5H50V10H10V27.5Z" fill="black"/>
<path d="M52.5 55H7.5C6.83696 55 6.20107 54.7366 5.73223 54.2678C5.26339 53.7989 5 53.163 5 52.5V30C5 29.337 5.26339 28.7011 5.73223 28.2322C6.20107 27.7634 6.83696 27.5 7.5 27.5H52.5C53.163 27.5 53.7989 27.7634 54.2678 28.2322C54.7366 28.7011 55 29.337 55 30V52.5C55 53.163 54.7366 53.7989 54.2678 54.2678C53.7989 54.7366 53.163 55 52.5 55ZM10 50H50V32.5H10V50Z" fill="black"/>
<path d="M41.25 18.45H19.1C18.4369 18.45 17.801 18.1866 17.3322 17.7178C16.8634 17.2489 16.6 16.613 16.6 15.95V7.5C16.6 6.83696 16.8634 6.20107 17.3322 5.73223C17.801 5.26339 18.4369 5 19.1 5C19.763 5 20.3989 5.26339 20.8677 5.73223C21.3366 6.20107 21.6 6.83696 21.6 7.5V13.45H38.75V7.5C38.75 6.83696 39.0134 6.20107 39.4822 5.73223C39.951 5.26339 40.5869 5 41.25 5C41.913 5 42.5489 5.26339 43.0177 5.73223C43.4866 6.20107 43.75 6.83696 43.75 7.5V15.95C43.75 16.613 43.4866 17.2489 43.0177 17.7178C42.5489 18.1866 41.913 18.45 41.25 18.45Z" fill="black"/>
<path d="M41.25 40.95H19.1C18.4369 40.95 17.801 40.6866 17.3322 40.2178C16.8634 39.7489 16.6 39.113 16.6 38.45V30C16.6 29.337 16.8634 28.7011 17.3322 28.2322C17.801 27.7634 18.4369 27.5 19.1 27.5C19.763 27.5 20.3989 27.7634 20.8677 28.2322C21.3366 28.7011 21.6 29.337 21.6 30V35.95H38.75V30C38.75 29.337 39.0134 28.7011 39.4822 28.2322C39.951 27.7634 40.5869 27.5 41.25 27.5C41.913 27.5 42.5489 27.7634 43.0177 28.2322C43.4866 28.7011 43.75 29.337 43.75 30V38.45C43.75 39.113 43.4866 39.7489 43.0177 40.2178C42.5489 40.6866 41.913 40.95 41.25 40.95Z" fill="black"/>
</svg>
