<svg width="61" height="60" viewBox="0 0 61 60" fill="none" xmlns="http://www.w3.org/2000/svg">
<path d="M42.425 52.3001C42.178 52.3056 41.9326 52.2596 41.7045 52.1649C41.4763 52.0702 41.2704 51.9289 41.1 51.7501L37.625 48.3001C37.2739 47.9485 37.0767 47.4719 37.0767 46.9751C37.0767 46.4782 37.2739 46.0016 37.625 45.6501L41.375 41.9001C41.5467 41.7158 41.7537 41.5681 41.9837 41.4656C42.2137 41.3631 42.462 41.308 42.7137 41.3036C42.9655 41.2991 43.2155 41.3454 43.449 41.4398C43.6825 41.5341 43.8946 41.6744 44.0726 41.8525C44.2507 42.0305 44.391 42.2426 44.4853 42.4761C44.5796 42.7095 44.6259 42.9596 44.6215 43.2114C44.6171 43.4631 44.5619 43.7114 44.4595 43.9414C44.357 44.1714 44.2092 44.3784 44.025 44.5501L41.525 47.0501L43.65 49.1751C44.0011 49.5266 44.1984 50.0032 44.1984 50.5001C44.1984 50.9969 44.0011 51.4735 43.65 51.825C43.3136 52.1279 42.8777 52.2969 42.425 52.3001Z" fill="black"/>
<path d="M51.275 52.3C51.0287 52.3012 50.7846 52.2531 50.5571 52.1587C50.3295 52.0643 50.1232 51.9253 49.95 51.75C49.5989 51.3985 49.4017 50.9219 49.4017 50.425C49.4017 49.9282 49.5989 49.4516 49.95 49.1L52.075 46.975L49.575 44.475C49.3908 44.3034 49.2431 44.0964 49.1406 43.8664C49.0381 43.6364 48.983 43.3881 48.9786 43.1363C48.9741 42.8846 49.0204 42.6345 49.1147 42.401C49.209 42.1676 49.3494 41.9555 49.5274 41.7774C49.7055 41.5994 49.9176 41.459 50.151 41.3647C50.3845 41.2704 50.6346 41.2241 50.8864 41.2286C51.1381 41.233 51.3864 41.2881 51.6164 41.3906C51.8464 41.4931 52.0534 41.6408 52.225 41.825L55.975 45.575C56.3262 45.9266 56.5234 46.4032 56.5234 46.9C56.5234 47.3969 56.3262 47.8735 55.975 48.225L52.6 51.75C52.4296 51.9289 52.2237 52.0702 51.9956 52.1649C51.7674 52.2596 51.522 52.3056 51.275 52.3Z" fill="black"/>
<path d="M31.225 55.6259H21.85C19.3636 55.6259 16.979 54.6382 15.2208 52.88C13.4627 51.1219 12.475 48.7373 12.475 46.2509V13.7509C12.475 11.2645 13.4627 8.87994 15.2208 7.12179C16.979 5.36364 19.3636 4.37592 21.85 4.37592H36.625C37.1223 4.37592 37.5992 4.57346 37.9508 4.92509C38.3024 5.27672 38.5 5.75363 38.5 6.25092C38.5 6.7482 38.3024 7.22511 37.9508 7.57674C37.5992 7.92837 37.1223 8.12592 36.625 8.12592H21.85C20.3581 8.12592 18.9274 8.71855 17.8725 9.77344C16.8176 10.8283 16.225 12.2591 16.225 13.7509V46.2509C16.225 47.7428 16.8176 49.1735 17.8725 50.2284C18.9274 51.2833 20.3581 51.8759 21.85 51.8759H31.225C31.7223 51.8759 32.1992 52.0735 32.5508 52.4251C32.9024 52.7767 33.1 53.2536 33.1 53.7509C33.1 54.2482 32.9024 54.7251 32.5508 55.0767C32.1992 55.4284 31.7223 55.6259 31.225 55.6259Z" fill="black"/>
<path d="M46.85 36.675C46.3547 36.6686 45.8815 36.4689 45.5313 36.1187C45.1811 35.7685 44.9815 35.2953 44.975 34.8V18.525C44.975 18.0277 45.1725 17.5508 45.5241 17.1992C45.8758 16.8476 46.3527 16.65 46.85 16.65C47.3473 16.65 47.8242 16.8476 48.1758 17.1992C48.5274 17.5508 48.725 18.0277 48.725 18.525V34.8C48.7185 35.2953 48.5189 35.7685 48.1686 36.1187C47.8184 36.4689 47.3452 36.6686 46.85 36.675Z" fill="black"/>
<path d="M44.575 23.125H36.625C35.4665 23.0604 34.3804 22.5407 33.6031 21.6792C32.8259 20.8177 32.4204 19.6841 32.475 18.525V8.97503C32.4204 7.816 32.8259 6.68235 33.6031 5.82083C34.3804 4.95931 35.4665 4.43967 36.625 4.37503C36.9019 4.362 37.1783 4.41141 37.4336 4.5196C37.6889 4.62778 37.9167 4.79197 38.1 5.00003L48.35 17.275C48.6219 17.6162 48.7715 18.0387 48.775 18.475C48.8087 19.0571 48.7263 19.64 48.5328 20.1899C48.3393 20.7399 48.0383 21.2459 47.6476 21.6785C47.2568 22.1112 46.7839 22.4618 46.2565 22.7102C45.729 22.9585 45.1574 23.0995 44.575 23.125ZM36.25 8.72503C36.2364 8.80781 36.2364 8.89224 36.25 8.97503V18.525C36.25 19.1 36.575 19.375 36.65 19.375H44.6C44.6 19.375 44.775 19.375 44.875 19.075L36.25 8.72503Z" fill="black"/>
</svg>
