<svg width="60" height="60" viewBox="0 0 60 60" fill="none" xmlns="http://www.w3.org/2000/svg">
<path d="M50.35 56.4249H9.65002C8.98698 56.4249 8.3511 56.1615 7.88226 55.6927C7.41342 55.2239 7.15002 54.588 7.15002 53.9249C7.15002 53.2619 7.41342 52.626 7.88226 52.1572C8.3511 51.6883 8.98698 51.4249 9.65002 51.4249H50.35C51.0131 51.4249 51.6489 51.6883 52.1178 52.1572C52.5866 52.626 52.85 53.2619 52.85 53.9249C52.85 54.588 52.5866 55.2239 52.1178 55.6927C51.6489 56.1615 51.0131 56.4249 50.35 56.4249Z" fill="black"/>
<path d="M16.825 56.425C16.162 56.425 15.5261 56.1616 15.0572 55.6927C14.5884 55.2239 14.325 54.588 14.325 53.925V6.07495C14.322 5.64668 14.4291 5.22482 14.636 4.84982C14.8429 4.47482 15.1427 4.15926 15.5065 3.9334C15.8704 3.70753 16.2862 3.57894 16.7141 3.55995C17.142 3.54097 17.5675 3.63222 17.95 3.82495L46.675 18.2C47.0873 18.4077 47.434 18.7256 47.6767 19.1183C47.9194 19.511 48.0486 19.9633 48.05 20.425C48.0486 20.8866 47.9194 21.3389 47.6767 21.7316C47.434 22.1243 47.0873 22.4422 46.675 22.65L19.325 36.325V53.825C19.3385 54.1616 19.2838 54.4975 19.1642 54.8124C19.0446 55.1274 18.8626 55.4149 18.6291 55.6577C18.3956 55.9006 18.1154 56.0937 17.8054 56.2256C17.4954 56.3574 17.1619 56.4252 16.825 56.425ZM19.325 9.99996V30.75L40 20.425L19.325 9.99996Z" fill="black"/>
</svg>
