<svg width="61" height="60" viewBox="0 0 61 60" fill="none" xmlns="http://www.w3.org/2000/svg">
<path d="M43.95 53.125H16.45C13.9635 53.125 11.579 52.1373 9.82083 50.3791C8.06267 48.621 7.07495 46.2364 7.07495 43.75V16.25C7.07495 13.7636 8.06267 11.379 9.82083 9.62087C11.579 7.86272 13.9635 6.875 16.45 6.875H43.95C46.4364 6.875 48.8209 7.86272 50.5791 9.62087C52.3372 11.379 53.325 13.7636 53.325 16.25V43.75C53.325 46.2364 52.3372 48.621 50.5791 50.3791C48.8209 52.1373 46.4364 53.125 43.95 53.125ZM16.45 10.625C14.9581 10.625 13.5274 11.2176 12.4725 12.2725C11.4176 13.3274 10.825 14.7582 10.825 16.25V43.75C10.825 45.2418 11.4176 46.6726 12.4725 47.7275C13.5274 48.7824 14.9581 49.375 16.45 49.375H43.95C45.4418 49.375 46.8725 48.7824 47.9274 47.7275C48.9823 46.6726 49.575 45.2418 49.575 43.75V16.25C49.575 14.7582 48.9823 13.3274 47.9274 12.2725C46.8725 11.2176 45.4418 10.625 43.95 10.625H16.45Z" fill="black"/>
<path d="M8.94998 42.65C8.67375 42.6497 8.40092 42.5891 8.15049 42.4725C7.90007 42.3559 7.67808 42.1862 7.49998 41.975C7.22486 41.6012 7.09814 41.1387 7.14432 40.6769C7.1905 40.2151 7.4063 39.7869 7.74998 39.475L19.5 29.725C21.4084 28.1422 23.8661 27.3798 26.3352 27.6047C28.8044 27.8296 31.0839 29.0235 32.675 30.925L35.475 34.275C35.9557 34.8507 36.5466 35.3244 37.2131 35.6683C37.8796 36.0122 38.6081 36.2194 39.3558 36.2776C40.1036 36.3359 40.8554 36.244 41.5671 36.0074C42.2787 35.7708 42.9359 35.3943 43.5 34.9L50.2 28.9C50.3855 28.7358 50.6015 28.6098 50.8357 28.5292C51.0699 28.4485 51.3176 28.4147 51.5649 28.4298C51.8121 28.4449 52.054 28.5086 52.2766 28.6171C52.4992 28.7257 52.6983 28.877 52.8625 29.0625C53.0266 29.248 53.1526 29.464 53.2333 29.6982C53.314 29.9324 53.3477 30.1802 53.3326 30.4274C53.3176 30.6746 53.2539 30.9165 53.1454 31.1391C53.0368 31.3618 52.8855 31.5608 52.7 31.725L45.975 37.5C45.0445 38.3169 43.9611 38.9408 42.7876 39.3356C41.6141 39.7304 40.3739 39.8881 39.1389 39.7998C37.9039 39.7114 36.6988 39.3786 35.5935 38.8207C34.4881 38.2629 33.5046 37.491 32.7 36.55L29.9 33.2C29.4248 32.6226 28.8394 32.1458 28.1778 31.7974C27.5162 31.4489 26.7918 31.2359 26.0469 31.1707C25.302 31.1055 24.5516 31.1895 23.8396 31.4178C23.1275 31.646 22.4682 32.0139 21.9 32.5L10.2 42.225C9.85218 42.5199 9.40544 42.6718 8.94998 42.65Z" fill="black"/>
</svg>
