<svg width="60" height="60" viewBox="0 0 60 60" fill="none" xmlns="http://www.w3.org/2000/svg">
<path d="M19.1 52.125C17.2809 52.125 15.536 51.4041 14.2474 50.1202C12.9588 48.8363 12.2316 47.094 12.225 45.275V36.55C12.1684 35.614 12.304 34.6763 12.6233 33.7946C12.9426 32.9129 13.439 32.1058 14.0817 31.423C14.7245 30.7403 15.5002 30.1962 16.361 29.8243C17.2219 29.4525 18.1497 29.2606 19.0875 29.2606C20.0252 29.2606 20.953 29.4525 21.8139 29.8243C22.6747 30.1962 23.4504 30.7403 24.0932 31.423C24.736 32.1058 25.2323 32.9129 25.5516 33.7946C25.8709 34.6763 26.0065 35.614 25.95 36.55V45.275C25.95 47.0917 25.2283 48.8341 23.9436 50.1187C22.659 51.4033 20.9167 52.125 19.1 52.125ZM19.1 34.625C18.6047 34.6315 18.1315 34.8311 17.7813 35.1813C17.4311 35.5316 17.2314 36.0047 17.225 36.5V45.225C17.2315 45.7179 17.432 46.1885 17.7829 46.5347C18.1338 46.8809 18.607 47.0751 19.1 47.075C19.5906 47.075 20.0612 46.8801 20.4081 46.5332C20.7551 46.1862 20.95 45.7157 20.95 45.225V36.55C20.95 36.057 20.7559 35.5839 20.4097 35.2329C20.0634 34.882 19.5929 34.6816 19.1 34.675V34.625Z" fill="black"/>
<path d="M40.9 52.125C39.0832 52.125 37.3409 51.4033 36.0563 50.1187C34.7717 48.8341 34.05 47.0917 34.05 45.275V36.55C33.9935 35.614 34.129 34.6763 34.4483 33.7946C34.7677 32.9129 35.264 32.1058 35.9068 31.423C36.5495 30.7403 37.3252 30.1962 38.1861 29.8243C39.0469 29.4525 39.9747 29.2606 40.9125 29.2606C41.8502 29.2606 42.778 29.4525 43.6389 29.8243C44.4997 30.1962 45.2754 30.7403 45.9182 31.423C46.561 32.1058 47.0573 32.9129 47.3766 33.7946C47.6959 34.6763 47.8315 35.614 47.775 36.55V45.275C47.7684 47.094 47.0411 48.8363 45.7525 50.1202C44.4639 51.4041 42.719 52.125 40.9 52.125ZM40.9 34.625C40.407 34.6316 39.9365 34.832 39.5903 35.1829C39.244 35.5339 39.0499 36.007 39.05 36.5V45.225C39.05 45.7157 39.2449 46.1862 39.5918 46.5332C39.9388 46.8801 40.4093 47.075 40.9 47.075C41.393 47.0751 41.8661 46.8809 42.217 46.5347C42.568 46.1885 42.7684 45.7179 42.775 45.225V36.55C42.7685 36.0547 42.5689 35.5816 42.2186 35.2313C41.8684 34.8811 41.3952 34.6815 40.9 34.675V34.625Z" fill="black"/>
<path d="M51.8 43.4001C51.137 43.4001 50.5011 43.1367 50.0322 42.6678C49.5634 42.199 49.3 41.5631 49.3 40.9001V32.1751C49.3 27.0564 47.2666 22.1474 43.6472 18.5279C40.0277 14.9084 35.1187 12.8751 30 12.8751C24.8813 12.8751 19.9723 14.9084 16.3529 18.5279C12.7334 22.1474 10.7 27.0564 10.7 32.1751V40.9001C10.7 41.5631 10.4366 42.199 9.96778 42.6678C9.49894 43.1367 8.86305 43.4001 8.20001 43.4001C7.53697 43.4001 6.90109 43.1367 6.43225 42.6678C5.9634 42.199 5.70001 41.5631 5.70001 40.9001V32.1751C5.70001 25.7303 8.26018 19.5495 12.8173 14.9924C17.3745 10.4352 23.5553 7.87506 30 7.87506C36.4448 7.87506 42.6256 10.4352 47.1827 14.9924C51.7398 19.5495 54.3 25.7303 54.3 32.1751V40.9001C54.3 41.5631 54.0366 42.199 53.5678 42.6678C53.0989 43.1367 52.4631 43.4001 51.8 43.4001Z" fill="black"/>
</svg>
