<svg width="61" height="60" viewBox="0 0 61 60" fill="none" xmlns="http://www.w3.org/2000/svg">
<path d="M30.4001 56.775C25.1045 56.775 19.9279 55.2047 15.5247 52.2626C11.1216 49.3205 7.6898 45.1388 5.66326 40.2463C3.63672 35.3538 3.10649 29.9703 4.13961 24.7764C5.17273 19.5826 7.7228 14.8118 11.4673 11.0672C15.2119 7.32265 19.9827 4.77258 25.1766 3.73946C30.3704 2.70634 35.754 3.23658 40.6465 5.26311C45.539 7.28965 49.7207 10.7215 52.6627 15.1246C55.6048 19.5277 57.1751 24.7044 57.1751 30C57.1619 37.0971 54.3367 43.8998 49.3183 48.9182C44.2999 53.9366 37.4972 56.7618 30.4001 56.775ZM30.4001 6.97499C25.8462 6.97499 21.3946 8.32538 17.6081 10.8554C13.8217 13.3854 10.8705 16.9814 9.12781 21.1887C7.3851 25.396 6.92913 30.0255 7.81755 34.4919C8.70598 38.9584 10.8989 43.061 14.119 46.2811C17.3391 49.5012 21.4418 51.6941 25.9082 52.5826C30.3746 53.471 35.0041 53.015 39.2114 51.2723C43.4187 49.5296 47.0147 46.5784 49.5447 42.792C52.0747 39.0056 53.4251 34.5539 53.4251 30C53.4185 23.8954 50.9905 18.0428 46.674 13.7262C42.3574 9.40957 36.5047 6.98161 30.4001 6.97499Z" fill="black"/>
<path d="M30.4 41.925C28.0414 41.925 25.7359 41.2256 23.7748 39.9153C21.8137 38.605 20.2853 36.7425 19.3827 34.5635C18.4801 32.3845 18.244 29.9868 18.7041 27.6736C19.1642 25.3603 20.3 23.2355 21.9677 21.5678C23.6355 19.9 25.7603 18.7643 28.0735 18.3042C30.3868 17.844 32.7845 18.0802 34.9635 18.9828C37.1425 19.8853 39.0049 21.4138 40.3153 23.3748C41.6256 25.3359 42.325 27.6415 42.325 30C42.3184 33.1607 41.0599 36.19 38.8249 38.425C36.59 40.6599 33.5607 41.9184 30.4 41.925ZM30.4 21.925C28.7789 21.9251 27.1944 22.4072 25.848 23.31C24.5015 24.2128 23.4539 25.4955 22.8382 26.9951C22.2225 28.4947 22.0665 30.1436 22.3901 31.732C22.7138 33.3205 23.5024 34.7769 24.6557 35.9161C25.809 37.0553 27.275 37.8259 28.8673 38.1299C30.4596 38.434 32.1064 38.2578 33.5983 37.6237C35.0903 36.9895 36.36 35.9262 37.2461 34.5687C38.1323 33.2113 38.5948 31.621 38.575 30C38.5684 27.8339 37.705 25.7584 36.1733 24.2267C34.6416 22.695 32.5661 21.8316 30.4 21.825V21.925Z" fill="black"/>
<path d="M30.4 21.825C29.9132 21.819 29.4472 21.6263 29.0983 21.2867C28.7494 20.9471 28.5442 20.4865 28.525 20V5C28.525 4.50272 28.7226 4.02581 29.0742 3.67417C29.4258 3.32254 29.9027 3.125 30.4 3.125C30.8973 3.125 31.3742 3.32254 31.7258 3.67417C32.0775 4.02581 32.275 4.50272 32.275 5V20C32.2558 20.4865 32.0506 20.9471 31.7017 21.2867C31.3528 21.6263 30.8869 21.819 30.4 21.825Z" fill="black"/>
<path d="M30.4 56.775C29.9048 56.7685 29.4316 56.5689 29.0814 56.2187C28.7311 55.8684 28.5315 55.3953 28.525 54.9V40C28.525 39.5027 28.7226 39.0258 29.0742 38.6742C29.4258 38.3225 29.9027 38.125 30.4 38.125C30.8973 38.125 31.3742 38.3225 31.7258 38.6742C32.0775 39.0258 32.275 39.5027 32.275 40V55C32.2436 55.4776 32.033 55.9258 31.6853 56.2549C31.3377 56.584 30.8787 56.7697 30.4 56.775Z" fill="black"/>
<path d="M20.4 31.875H5.40002C4.90274 31.875 4.42583 31.6775 4.0742 31.3258C3.72257 30.9742 3.52502 30.4973 3.52502 30C3.52502 29.5027 3.72257 29.0258 4.0742 28.6742C4.42583 28.3225 4.90274 28.125 5.40002 28.125H20.4C20.8973 28.125 21.3742 28.3225 21.7258 28.6742C22.0775 29.0258 22.275 29.5027 22.275 30C22.275 30.4973 22.0775 30.9742 21.7258 31.3258C21.3742 31.6775 20.8973 31.875 20.4 31.875Z" fill="black"/>
<path d="M55.4 31.875H40.4C39.9027 31.875 39.4258 31.6775 39.0742 31.3258C38.7226 30.9742 38.525 30.4973 38.525 30C38.525 29.5027 38.7226 29.0258 39.0742 28.6742C39.4258 28.3225 39.9027 28.125 40.4 28.125H55.4C55.8973 28.125 56.3742 28.3225 56.7259 28.6742C57.0775 29.0258 57.275 29.5027 57.275 30C57.275 30.4973 57.0775 30.9742 56.7259 31.3258C56.3742 31.6775 55.8973 31.875 55.4 31.875Z" fill="black"/>
</svg>
