<svg width="61" height="60" viewBox="0 0 61 60" fill="none" xmlns="http://www.w3.org/2000/svg">
<path d="M51.875 54.575H9.37499C8.87771 54.575 8.4008 54.3775 8.04917 54.0258C7.69754 53.6742 7.49999 53.1973 7.49999 52.7V24.65C7.48932 24.3793 7.53743 24.1095 7.641 23.8592C7.74458 23.6089 7.90117 23.384 8.09999 23.2L29.4 5.85002C29.729 5.57323 30.1451 5.42145 30.575 5.42145C31.0049 5.42145 31.421 5.57323 31.75 5.85002L53.1 23.2C53.3125 23.377 53.4832 23.5988 53.5998 23.8494C53.7165 24.1001 53.7764 24.3735 53.775 24.65V52.7C53.775 52.9484 53.7257 53.1942 53.6299 53.4234C53.5341 53.6525 53.3938 53.8603 53.217 54.0348C53.0402 54.2092 52.8306 54.3468 52.6002 54.4395C52.3698 54.5323 52.1233 54.5783 51.875 54.575ZM11.2 50.825H50V25.525L30.6 9.72502L11.2 25.525V50.825Z" fill="black"/>
</svg>
