<svg width="60" height="60" viewBox="0 0 60 60" fill="none" xmlns="http://www.w3.org/2000/svg">
<path d="M42.2755 47.5H17.7505C15.2641 47.5 12.8795 46.5122 11.1214 44.7541C9.36321 42.9959 8.37549 40.6114 8.37549 38.125V13.6C8.37549 11.1136 9.36321 8.729 11.1214 6.97085C12.8795 5.2127 15.2641 4.22498 17.7505 4.22498H42.2755C44.7619 4.22498 47.1465 5.2127 48.9046 6.97085C50.6628 8.729 51.6505 11.1136 51.6505 13.6V38.125C51.6505 40.6114 50.6628 42.9959 48.9046 44.7541C47.1465 46.5122 44.7619 47.5 42.2755 47.5ZM17.7505 7.97497C16.2586 7.97497 14.8279 8.56761 13.773 9.6225C12.7181 10.6774 12.1255 12.1081 12.1255 13.6V38.125C12.1255 39.6168 12.7181 41.0476 13.773 42.1024C14.8279 43.1573 16.2586 43.75 17.7505 43.75H42.2755C43.7673 43.75 45.1981 43.1573 46.253 42.1024C47.3079 41.0476 47.9005 39.6168 47.9005 38.125V13.6C47.9005 12.1081 47.3079 10.6774 46.253 9.6225C45.1981 8.56761 43.7673 7.97497 42.2755 7.97497H17.7505Z" fill="black"/>
<path d="M42.25 55.775H17.725C15.2406 55.7684 12.8599 54.7786 11.1031 53.0218C9.34641 51.2651 8.35657 48.8844 8.34998 46.4V21.875C8.34998 21.3777 8.54752 20.9008 8.89915 20.5492C9.25078 20.1975 9.72769 20 10.225 20C10.7223 20 11.1992 20.1975 11.5508 20.5492C11.9024 20.9008 12.1 21.3777 12.1 21.875V46.4C12.1 47.8918 12.6926 49.3226 13.7475 50.3775C14.8024 51.4324 16.2331 52.025 17.725 52.025H42.25C43.7418 52.025 45.1726 51.4324 46.2274 50.3775C47.2823 49.3226 47.875 47.8918 47.875 46.4V21.875C47.875 21.3777 48.0725 20.9008 48.4241 20.5492C48.7758 20.1975 49.2527 20 49.75 20C50.2472 20 50.7242 20.1975 51.0758 20.5492C51.4274 20.9008 51.625 21.3777 51.625 21.875V46.4C51.625 48.8864 50.6372 51.271 48.8791 53.0291C47.1209 54.7873 44.7364 55.775 42.25 55.775Z" fill="black"/>
<path d="M36.7499 33.5749H21.7499C21.4065 33.5619 21.0734 33.4547 20.7868 33.2651C20.5002 33.0755 20.2713 32.8108 20.1249 32.4999C19.9758 32.1621 19.9342 31.7867 20.0058 31.4244C20.0774 31.0622 20.2586 30.7307 20.5249 30.4749L26.0749 24.925C26.2473 24.7481 26.4533 24.6075 26.6809 24.5115C26.9084 24.4155 27.1529 24.366 27.3999 24.366C27.6469 24.366 27.8914 24.4155 28.1189 24.5115C28.3465 24.6075 28.5525 24.7481 28.7249 24.925C29.076 25.2765 29.2733 25.7531 29.2733 26.2499C29.2733 26.7468 29.076 27.2234 28.7249 27.5749L26.3749 29.9249H34.9999V16.325C34.9999 15.8277 35.1974 15.3508 35.5491 14.9991C35.9007 14.6475 36.3776 14.45 36.8749 14.45C37.3722 14.45 37.8491 14.6475 38.2007 14.9991C38.5524 15.3508 38.7499 15.8277 38.7499 16.325V31.6999C38.7469 31.956 38.6922 32.2088 38.589 32.4431C38.4858 32.6775 38.3363 32.8886 38.1495 33.0637C37.9627 33.2388 37.7424 33.3744 37.5019 33.4623C37.2614 33.5501 37.0056 33.5884 36.7499 33.5749Z" fill="black"/>
<path d="M27.4999 39.125C27.0039 39.1192 26.5292 38.9222 26.1749 38.575L20.5249 33.025C20.1738 32.6734 19.9766 32.1968 19.9766 31.7C19.9766 31.2031 20.1738 30.7265 20.5249 30.375C20.6973 30.1981 20.9033 30.0575 21.1309 29.9615C21.3584 29.8655 21.6029 29.816 21.8499 29.816C22.0969 29.816 22.3414 29.8655 22.5689 29.9615C22.7965 30.0575 23.0026 30.1981 23.1749 30.375L28.7249 35.925C29.076 36.2765 29.2733 36.7531 29.2733 37.25C29.2733 37.7468 29.076 38.2234 28.7249 38.575C28.3934 38.8957 27.96 39.0903 27.4999 39.125Z" fill="black"/>
</svg>
