<svg width="61" height="60" viewBox="0 0 61 60" fill="none" xmlns="http://www.w3.org/2000/svg">
<path d="M19.0251 54.425C16.0029 54.425 13.0487 53.5285 10.5362 51.849C8.02368 50.1694 6.06586 47.7823 4.91047 44.9897C3.75508 42.1971 3.45405 39.1245 4.04547 36.1608C4.63689 33.1971 6.09417 30.4754 8.23292 28.3401C10.3717 26.2049 13.0958 24.752 16.0605 24.1655C19.0252 23.5789 22.0972 23.885 24.8879 25.0449C27.6786 26.2049 30.0625 28.1666 31.738 30.6819C33.4134 33.1971 34.3051 36.1528 34.3001 39.175C34.2935 43.2219 32.6812 47.1007 29.8173 49.9599C26.9534 52.8191 23.072 54.425 19.0251 54.425ZM19.0251 27.65C16.7457 27.65 14.5174 28.3259 12.6222 29.5923C10.7269 30.8587 9.2497 32.6587 8.3774 34.7646C7.5051 36.8705 7.27686 39.1878 7.72156 41.4234C8.16625 43.6591 9.2639 45.7126 10.8757 47.3244C12.4875 48.9362 14.5411 50.0339 16.7767 50.4786C19.0123 50.9233 21.3296 50.695 23.4355 49.8227C25.5415 48.9504 27.3414 47.4732 28.6078 45.578C29.8742 43.6827 30.5501 41.4544 30.5501 39.175C30.5501 36.1184 29.3359 33.187 27.1745 31.0256C25.0132 28.8642 22.0817 27.65 19.0251 27.65Z" fill="black"/>
<path d="M28.5003 31.575C28.2533 31.5806 28.0079 31.5345 27.7797 31.4398C27.5516 31.3451 27.3457 31.2038 27.1753 31.025C26.9984 30.8526 26.8578 30.6466 26.7618 30.419C26.6658 30.1915 26.6163 29.947 26.6163 29.7C26.6163 29.453 26.6658 29.2085 26.7618 28.981C26.8578 28.7534 26.9984 28.5474 27.1753 28.375L49.4253 6.12501C49.7768 5.77388 50.2534 5.57666 50.7503 5.57666C51.2471 5.57666 51.7237 5.77388 52.0753 6.12501L57.2753 11.3C57.6264 11.6516 57.8236 12.1281 57.8236 12.625C57.8236 13.1219 57.6264 13.5984 57.2753 13.95C56.9237 14.3011 56.4471 14.4984 55.9503 14.4984C55.4534 14.4984 54.9768 14.3011 54.6253 13.95L50.8003 10L29.8753 30.925C29.7052 31.1246 29.4947 31.2858 29.2576 31.3978C29.0206 31.5099 28.7624 31.5703 28.5003 31.575Z" fill="black"/>
<path d="M48.3002 20.325C48.0538 20.3261 47.8097 20.2781 47.5822 20.1836C47.3547 20.0892 47.1483 19.9503 46.9752 19.775L42.7252 15.475C42.541 15.3033 42.3932 15.0963 42.2907 14.8663C42.1883 14.6363 42.1332 14.388 42.1287 14.1363C42.1243 13.8845 42.1706 13.6345 42.2649 13.401C42.3592 13.1675 42.4995 12.9554 42.6776 12.7774C42.8556 12.5993 43.0677 12.459 43.3012 12.3647C43.5347 12.2704 43.7847 12.2241 44.0365 12.2285C44.2883 12.2329 44.5365 12.288 44.7665 12.3905C44.9965 12.493 45.2035 12.6408 45.3752 12.825L49.6752 17.125C49.8521 17.2973 49.9927 17.5034 50.0887 17.7309C50.1847 17.9585 50.2341 18.203 50.2341 18.45C50.2341 18.697 50.1847 18.9414 50.0887 19.169C49.9927 19.3966 49.8521 19.6026 49.6752 19.775C49.4972 19.9577 49.2828 20.101 49.046 20.1957C48.8092 20.2905 48.5551 20.3345 48.3002 20.325Z" fill="black"/>
</svg>
