<svg width="60" height="60" viewBox="0 0 60 60" fill="none" xmlns="http://www.w3.org/2000/svg">
<path d="M47.65 57.2H10C9.33696 57.2 8.70107 56.9366 8.23223 56.4678C7.76339 55.9989 7.5 55.3631 7.5 54.7C7.5 54.037 7.76339 53.4011 8.23223 52.9322C8.70107 52.4634 9.33696 52.2 10 52.2H47.65C48.313 52.2 48.9489 52.4634 49.4178 52.9322C49.8866 53.4011 50.15 54.037 50.15 54.7C50.15 55.3631 49.8866 55.9989 49.4178 56.4678C48.9489 56.9366 48.313 57.2 47.65 57.2Z" fill="black"/>
<path d="M28.825 57.2001C28.496 57.202 28.1699 57.139 27.8653 57.0146C27.5607 56.8902 27.2836 56.7068 27.05 56.4751L8.22503 37.6501C7.7594 37.1817 7.49805 36.5481 7.49805 35.8876C7.49805 35.2272 7.7594 34.5935 8.22503 34.1251L24.7 17.6501C25.1684 17.1845 25.8021 16.9232 26.4625 16.9232C27.123 16.9232 27.7566 17.1845 28.225 17.6501C28.6907 18.1185 28.952 18.7522 28.952 19.4126C28.952 20.0731 28.6907 20.7067 28.225 21.1751L13.525 35.8751L30.6 52.9501C31.0657 53.4185 31.327 54.0522 31.327 54.7126C31.327 55.3731 31.0657 56.0067 30.6 56.4751C30.3664 56.7068 30.0894 56.8902 29.7848 57.0146C29.4802 57.139 29.154 57.202 28.825 57.2001Z" fill="black"/>
<path d="M35.8749 28.975C33.1168 28.8419 30.5156 27.6525 28.6107 25.6534C26.7058 23.6543 25.6432 20.9989 25.6432 18.2375C25.6432 15.4761 26.7058 12.8207 28.6107 10.8216C30.5156 8.82251 33.1168 7.63313 35.8749 7.5C36.538 7.5 37.1739 7.76339 37.6427 8.23223C38.1115 8.70107 38.3749 9.33696 38.3749 10V26.475C38.3749 27.138 38.1115 27.7739 37.6427 28.2428C37.1739 28.7116 36.538 28.975 35.8749 28.975ZM33.3749 13.075C32.4095 13.5485 31.5961 14.2833 31.0273 15.1958C30.4585 16.1084 30.1569 17.1622 30.1569 18.2375C30.1569 19.3128 30.4585 20.3666 31.0273 21.2792C31.5961 22.1917 32.4095 22.9265 33.3749 23.4V13.075Z" fill="black"/>
<path d="M50.0001 33.6751C49.7371 33.67 49.4762 33.6279 49.2251 33.5501L35.0001 28.8501C34.6882 28.7467 34.3997 28.5828 34.1511 28.3679C33.9026 28.153 33.6987 27.8913 33.5513 27.5976C33.2536 27.0045 33.2037 26.3175 33.4126 25.6876C33.6214 25.0577 34.0719 24.5366 34.665 24.2388C35.2581 23.9411 35.9452 23.8912 36.5751 24.1001L47.5001 27.7001V8.75007L36.6751 12.5001C36.3616 12.6054 36.0304 12.6475 35.7006 12.624C35.3707 12.6004 35.0488 12.5117 34.7535 12.3629C34.4583 12.2141 34.1954 12.0081 33.9802 11.7571C33.7651 11.506 33.6019 11.2147 33.5001 10.9001C33.3769 10.5871 33.3181 10.2525 33.3273 9.91635C33.3365 9.58016 33.4134 9.24928 33.5535 8.94352C33.6935 8.63775 33.8938 8.36338 34.1424 8.13684C34.3909 7.9103 34.6826 7.73623 35.0001 7.62507L49.1251 2.92507C49.5104 2.79886 49.9207 2.76829 50.3206 2.836C50.7204 2.90371 51.0977 3.06766 51.4201 3.31372C51.7424 3.55978 52.0001 3.88055 52.1708 4.24838C52.3415 4.61621 52.4202 5.02005 52.4001 5.42507V31.1751C52.4011 31.5695 52.3087 31.9586 52.1306 32.3106C51.9524 32.6625 51.6935 32.9673 51.3751 33.2001C50.9739 33.4912 50.4953 33.6565 50.0001 33.6751Z" fill="black"/>
</svg>
