<svg width="61" height="60" viewBox="0 0 61 60" fill="none" xmlns="http://www.w3.org/2000/svg">
<path d="M48.2749 40.5H12.125C11.8745 40.5067 11.6253 40.4631 11.3921 40.3719C11.1588 40.2807 10.9461 40.1436 10.7667 39.9688C10.5872 39.7941 10.4446 39.5851 10.3473 39.3543C10.25 39.1235 10.1999 38.8755 10.2 38.625V14.725C10.2032 14.1451 10.3211 13.5715 10.5468 13.0373C10.7725 12.5031 11.1016 12.0187 11.5152 11.6121C11.9287 11.2055 12.4186 10.8847 12.9566 10.6681C13.4945 10.4515 14.07 10.3434 14.65 10.35H30.2C30.6972 10.35 31.1741 10.5476 31.5258 10.8992C31.8774 11.2508 32.075 11.7277 32.075 12.225C32.075 12.7223 31.8774 13.1992 31.5258 13.5508C31.1741 13.9025 30.6972 14.1 30.2 14.1H14.65C14.4818 14.0999 14.3202 14.1649 14.1989 14.2815C14.0777 14.398 14.0064 14.557 14 14.725V36.75H46.5V25.425C46.5 24.9277 46.6975 24.4508 47.0491 24.0992C47.4008 23.7476 47.8777 23.55 48.375 23.55C48.8722 23.55 49.3491 23.7476 49.7008 24.0992C50.0524 24.4508 50.25 24.9277 50.25 25.425V38.625C50.2503 38.8799 50.1987 39.1322 50.0983 39.3664C49.9979 39.6007 49.8507 39.812 49.6659 39.9875C49.4811 40.163 49.2624 40.2989 49.0232 40.3871C48.7841 40.4752 48.5295 40.5136 48.2749 40.5Z" fill="black"/>
<path d="M52.075 49.65H8.32495C7.82968 49.6435 7.35652 49.4439 7.00629 49.0937C6.65605 48.7434 6.45643 48.2703 6.44995 47.775V38.625C6.45643 38.1297 6.65605 37.6566 7.00629 37.3063C7.35652 36.9561 7.82968 36.7565 8.32495 36.75H52.075C52.5702 36.7565 53.0434 36.9561 53.3936 37.3063C53.7439 37.6566 53.9435 38.1297 53.95 38.625V47.775C53.9435 48.2703 53.7439 48.7434 53.3936 49.0937C53.0434 49.4439 52.5702 49.6435 52.075 49.65ZM10.2 45.9H50.2V40.5H10.2V45.9Z" fill="black"/>
<path d="M30.3999 32.2C30.1507 32.1987 29.9042 32.1477 29.6749 32.05C29.3329 31.9102 29.0406 31.6712 28.8356 31.3637C28.6306 31.0563 28.5224 30.6945 28.5249 30.325V20.8C28.5249 20.3027 28.7225 19.8258 29.0741 19.4742C29.4258 19.1226 29.9027 18.925 30.3999 18.925C30.8972 18.925 31.3741 19.1226 31.7258 19.4742C32.0774 19.8258 32.2749 20.3027 32.2749 20.8V25.8L42.275 15.8C42.4466 15.6158 42.6536 15.468 42.8836 15.3656C43.1136 15.2631 43.3619 15.208 43.6136 15.2035C43.8654 15.1991 44.1155 15.2454 44.3489 15.3397C44.5824 15.434 44.7945 15.5744 44.9725 15.7524C45.1506 15.9305 45.291 16.1426 45.3853 16.376C45.4796 16.6095 45.5259 16.8596 45.5214 17.1113C45.517 17.3631 45.4619 17.6114 45.3594 17.8414C45.2569 18.0714 45.1092 18.2784 44.9249 18.45L31.7499 31.625C31.5751 31.8067 31.3655 31.9513 31.1335 32.0501C30.9016 32.1489 30.6521 32.1999 30.3999 32.2Z" fill="black"/>
<path d="M39.9249 32.2H30.3999C29.9026 32.2 29.4257 32.0025 29.0741 31.6508C28.7224 31.2992 28.5249 30.8223 28.5249 30.325C28.5249 29.8277 28.7224 29.3508 29.0741 28.9992C29.4257 28.6476 29.9026 28.45 30.3999 28.45H39.9249C40.4222 28.45 40.8991 28.6476 41.2507 28.9992C41.6024 29.3508 41.7999 29.8277 41.7999 30.325C41.7999 30.8223 41.6024 31.2992 41.2507 31.6508C40.8991 32.0025 40.4222 32.2 39.9249 32.2Z" fill="black"/>
</svg>
