<svg width="61" height="60" viewBox="0 0 61 60" fill="none" xmlns="http://www.w3.org/2000/svg">
<path d="M30.4002 36.5C30.0643 36.4975 29.7355 36.4024 29.4502 36.225L4.70022 21.475C4.41999 21.3123 4.1874 21.0789 4.02571 20.7981C3.86403 20.5173 3.77893 20.199 3.77893 19.875C3.77893 19.551 3.86403 19.2326 4.02571 18.9519C4.1874 18.6711 4.41999 18.4377 4.70022 18.275L29.4502 3.525C29.7333 3.34202 30.0632 3.24469 30.4002 3.24469C30.7373 3.24469 31.0672 3.34202 31.3502 3.525L56.1002 18.275C56.3805 18.4377 56.613 18.6711 56.7747 18.9519C56.9364 19.2326 57.0215 19.551 57.0215 19.875C57.0215 20.199 56.9364 20.5173 56.7747 20.7981C56.613 21.0789 56.3805 21.3123 56.1002 21.475L31.3502 36.225C31.0649 36.4024 30.7362 36.4975 30.4002 36.5ZM9.32522 20L30.4002 32.5L51.4752 20L30.4002 7.3L9.32522 20Z" fill="black"/>
<path d="M30.4001 46.75C30.0551 46.7565 29.7158 46.6608 29.4251 46.475L4.42507 31.475C4.02069 31.2072 3.73584 30.793 3.63034 30.3196C3.52485 29.8462 3.60692 29.3503 3.85932 28.9361C4.11172 28.5219 4.5148 28.2217 4.98391 28.0984C5.45302 27.9751 5.95165 28.0384 6.37507 28.275L30.4001 42.7L54.4251 28.275C54.8485 28.0384 55.3471 27.9751 55.8162 28.0984C56.2853 28.2217 56.6884 28.5219 56.9408 28.9361C57.1932 29.3503 57.2753 29.8462 57.1698 30.3196C57.0643 30.793 56.7794 31.2072 56.3751 31.475L31.3751 46.475C31.0843 46.6608 30.7451 46.7565 30.4001 46.75Z" fill="black"/>
<path d="M30.4001 56.75C30.0551 56.7565 29.7158 56.6608 29.4251 56.475L4.42507 41.475C4.02069 41.2072 3.73584 40.793 3.63034 40.3196C3.52485 39.8462 3.60692 39.3503 3.85932 38.9361C4.11172 38.5219 4.5148 38.2216 4.98391 38.0984C5.45302 37.9751 5.95165 38.0384 6.37507 38.275L30.4001 52.7L54.4251 38.275C54.6353 38.1357 54.8715 38.0403 55.1195 37.9945C55.3674 37.9486 55.6221 37.9532 55.8683 38.0081C56.1144 38.0629 56.347 38.1669 56.552 38.3137C56.757 38.4605 56.9304 38.6472 57.0616 38.8625C57.1928 39.0778 57.2793 39.3175 57.3157 39.567C57.3522 39.8165 57.338 40.0708 57.2739 40.3147C57.2098 40.5586 57.0972 40.7871 56.9427 40.9865C56.7883 41.1858 56.5952 41.352 56.3751 41.475L31.3751 56.475C31.0843 56.6608 30.7451 56.7565 30.4001 56.75Z" fill="black"/>
</svg>
