<svg width="61" height="60" viewBox="0 0 61 60" fill="none" xmlns="http://www.w3.org/2000/svg">
<path d="M17.675 47.7C17.2981 47.7 16.9298 47.5879 16.6168 47.378C16.3039 47.1681 16.0604 46.8699 15.9173 46.5212C15.7743 46.1726 15.7382 45.7893 15.8135 45.4201C15.8889 45.0508 16.0723 44.7123 16.3406 44.4477C16.6088 44.183 16.9497 44.004 17.3199 43.9335C17.6901 43.8631 18.0729 43.9043 18.4196 44.0519C18.7663 44.1996 19.0613 44.447 19.267 44.7627C19.4727 45.0784 19.5799 45.4482 19.575 45.825C19.5684 46.3246 19.3653 46.8015 19.0097 47.1524C18.6541 47.5033 18.1746 47.7001 17.675 47.7Z" fill="black"/>
<path d="M29.9749 47.725C29.5981 47.73 29.2283 47.6228 28.9126 47.417C28.5969 47.2113 28.3495 46.9163 28.2018 46.5696C28.0542 46.2229 28.013 45.8401 28.0834 45.4699C28.1539 45.0997 28.3329 44.7588 28.5976 44.4906C28.8623 44.2224 29.2007 44.0389 29.57 43.9636C29.9392 43.8882 30.3225 43.9243 30.6711 44.0674C31.0198 44.2104 31.318 44.4539 31.5279 44.7669C31.7378 45.0798 31.8499 45.4482 31.8499 45.825C31.85 46.3246 31.6532 46.8041 31.3023 47.1597C30.9514 47.5154 30.4745 47.7184 29.9749 47.725Z" fill="black"/>
<path d="M42.275 47.725C43.3106 47.725 44.15 46.8856 44.15 45.85C44.15 44.8145 43.3106 43.975 42.275 43.975C41.2395 43.975 40.4 44.8145 40.4 45.85C40.4 46.8856 41.2395 47.725 42.275 47.725Z" fill="black"/>
<path d="M47.075 55.85H14.125C11.6386 55.85 9.25403 54.8623 7.49587 53.1042C5.73772 51.346 4.75 48.9614 4.75 46.475V13.525C4.75 11.0386 5.73772 8.65405 7.49587 6.8959C9.25403 5.13775 11.6386 4.15002 14.125 4.15002H47.075C49.5614 4.15002 51.946 5.13775 53.7041 6.8959C55.4623 8.65405 56.45 11.0386 56.45 13.525V46.475C56.45 48.9614 55.4623 51.346 53.7041 53.1042C51.946 54.8623 49.5614 55.85 47.075 55.85ZM14.125 7.90003C12.6332 7.90003 11.2024 8.49266 10.1475 9.54755C9.09263 10.6024 8.5 12.0332 8.5 13.525V46.475C8.5 47.9669 9.09263 49.3976 10.1475 50.4525C11.2024 51.5074 12.6332 52.1 14.125 52.1H47.075C48.5669 52.1 49.9976 51.5074 51.0525 50.4525C52.1074 49.3976 52.7 47.9669 52.7 46.475V13.525C52.7 12.0332 52.1074 10.6024 51.0525 9.54755C49.9976 8.49266 48.5669 7.90003 47.075 7.90003H14.125Z" fill="black"/>
<path d="M54.575 39.8H6.62502C6.25134 39.7998 5.88626 39.6879 5.57662 39.4787C5.26698 39.2695 5.0269 38.9726 4.88719 38.626C4.74749 38.2794 4.71452 37.899 4.79254 37.5336C4.87055 37.1681 5.05597 36.8343 5.32502 36.575L29.55 13.35C29.8938 13.0425 30.3388 12.8726 30.8 12.8726C31.2612 12.8726 31.7063 13.0425 32.05 13.35L55.8 36.55C56.0707 36.8108 56.2567 37.1469 56.3339 37.5147C56.4112 37.8825 56.3761 38.2651 56.2333 38.6127C56.0905 38.9604 55.8465 39.2571 55.5329 39.4643C55.2194 39.6716 54.8508 39.7798 54.475 39.775L54.575 39.8ZM11.275 36.05H49.975L30.825 17.325L11.275 36.05Z" fill="black"/>
</svg>
