<svg width="61" height="60" viewBox="0 0 61 60" fill="none" xmlns="http://www.w3.org/2000/svg">
<path d="M47.8501 56.425H13.7501C11.2637 56.425 8.87915 55.4373 7.121 53.6791C5.36284 51.921 4.37512 49.5364 4.37512 47.05V12.95C4.37512 10.4636 5.36284 8.07904 7.121 6.32089C8.87915 4.56273 11.2637 3.57501 13.7501 3.57501H47.8501C50.3365 3.57501 52.7211 4.56273 54.4792 6.32089C56.2374 8.07904 57.2251 10.4636 57.2251 12.95V47.05C57.2251 49.5364 56.2374 51.921 54.4792 53.6791C52.7211 55.4373 50.3365 56.425 47.8501 56.425ZM13.7501 7.32501C12.2583 7.32501 10.8275 7.91764 9.77265 8.97254C8.71775 10.0274 8.12512 11.4582 8.12512 12.95V47.05C8.12512 48.5419 8.71775 49.9726 9.77265 51.0275C10.8275 52.0824 12.2583 52.675 13.7501 52.675H47.8501C49.342 52.675 50.7727 52.0824 51.8276 51.0275C52.8825 49.9726 53.4751 48.5419 53.4751 47.05V12.95C53.4751 11.4582 52.8825 10.0274 51.8276 8.97254C50.7727 7.91764 49.342 7.32501 47.8501 7.32501H13.7501Z" fill="black"/>
<path d="M55.3501 22.175H6.25012C5.75284 22.175 5.27593 21.9774 4.9243 21.6258C4.57267 21.2742 4.37512 20.7973 4.37512 20.3C4.37512 19.8027 4.57267 19.3258 4.9243 18.9742C5.27593 18.6225 5.75284 18.425 6.25012 18.425H55.3501C55.8474 18.425 56.3243 18.6225 56.6759 18.9742C57.0276 19.3258 57.2251 19.8027 57.2251 20.3C57.2251 20.7973 57.0276 21.2742 56.6759 21.6258C56.3243 21.9774 55.8474 22.175 55.3501 22.175Z" fill="black"/>
<path d="M20.3751 56.425C19.8799 56.4185 19.4067 56.2189 19.0565 55.8687C18.7062 55.5184 18.5066 55.0453 18.5001 54.55V20.3C18.5001 19.8027 18.6977 19.3258 19.0493 18.9742C19.4009 18.6225 19.8778 18.425 20.3751 18.425C20.8724 18.425 21.3493 18.6225 21.7009 18.9742C22.0526 19.3258 22.2501 19.8027 22.2501 20.3V54.55C22.2501 55.0473 22.0526 55.5242 21.7009 55.8758C21.3493 56.2274 20.8724 56.425 20.3751 56.425Z" fill="black"/>
<path d="M41.2251 56.425C40.7278 56.425 40.2509 56.2274 39.8993 55.8758C39.5476 55.5242 39.3501 55.0473 39.3501 54.55V20.3C39.3501 19.8027 39.5476 19.3258 39.8993 18.9742C40.2509 18.6225 40.7278 18.425 41.2251 18.425C41.7224 18.425 42.1993 18.6225 42.5509 18.9742C42.9026 19.3258 43.1001 19.8027 43.1001 20.3V54.55C43.0936 55.0453 42.894 55.5184 42.5438 55.8687C42.1935 56.2189 41.7204 56.4185 41.2251 56.425Z" fill="black"/>
</svg>
