<svg width="60" height="60" viewBox="0 0 60 60" fill="none" xmlns="http://www.w3.org/2000/svg">
<path d="M48.3499 55.4501H11.6499C10.9869 55.4501 10.351 55.1867 9.88214 54.7178C9.41329 54.249 9.1499 53.6131 9.1499 52.9501V7.05005C9.1499 6.38701 9.41329 5.75112 9.88214 5.28228C10.351 4.81344 10.9869 4.55005 11.6499 4.55005H48.3499C49.0129 4.55005 49.6488 4.81344 50.1177 5.28228C50.5865 5.75112 50.8499 6.38701 50.8499 7.05005V52.9501C50.8499 53.6131 50.5865 54.249 50.1177 54.7178C49.6488 55.1867 49.0129 55.4501 48.3499 55.4501ZM14.1499 50.4501H45.8499V9.55005H14.1499V50.4501Z" fill="black"/>
<path d="M29.9999 23.325H18.5249C18.0633 23.3236 17.611 23.1944 17.2183 22.9517C16.8255 22.709 16.5077 22.3623 16.2999 21.95L9.39994 8.17504C9.19921 7.78411 9.10508 7.34717 9.12702 6.90827C9.14897 6.46936 9.28622 6.04399 9.52494 5.67504C9.74709 5.31011 10.0591 5.00821 10.4311 4.79813C10.8031 4.58806 11.2227 4.47682 11.6499 4.47504H29.9999C30.663 4.47504 31.2989 4.73843 31.7677 5.20727C32.2365 5.67611 32.4999 6.312 32.4999 6.97504C32.4999 7.63808 32.2365 8.27396 31.7677 8.7428C31.2989 9.21164 30.663 9.47504 29.9999 9.47504H15.6999L19.9999 18.325H29.9999C30.663 18.325 31.2989 18.5884 31.7677 19.0573C32.2365 19.5261 32.4999 20.162 32.4999 20.825C32.4999 21.4881 32.2365 22.124 31.7677 22.5928C31.2989 23.0616 30.663 23.325 29.9999 23.325Z" fill="black"/>
<path d="M41.475 23.325H30C29.337 23.325 28.7011 23.0617 28.2322 22.5928C27.7634 22.124 27.5 21.4881 27.5 20.825C27.5 20.162 27.7634 19.5261 28.2322 19.0573C28.7011 18.5884 29.337 18.325 30 18.325H40L44.375 9.55005H30C29.337 9.55005 28.7011 9.28666 28.2322 8.81782C27.7634 8.34897 27.5 7.71309 27.5 7.05005C27.5 6.38701 27.7634 5.75112 28.2322 5.28228C28.7011 4.81344 29.337 4.55005 30 4.55005H48.35C48.7772 4.55183 49.1969 4.66307 49.5689 4.87314C49.9409 5.08322 50.2528 5.38512 50.475 5.75005C50.6944 6.1301 50.8099 6.56121 50.8099 7.00005C50.8099 7.43889 50.6944 7.87 50.475 8.25005L43.7 21.95C43.4922 22.3623 43.1744 22.709 42.7817 22.9517C42.3889 23.1944 41.9367 23.3236 41.475 23.325Z" fill="black"/>
<path d="M48.35 55.45H30C29.337 55.45 28.7011 55.1867 28.2322 54.7178C27.7634 54.249 27.5 53.6131 27.5 52.95C27.5 52.287 27.7634 51.6511 28.2322 51.1823C28.7011 50.7134 29.337 50.45 30 50.45H44.3L40 41.675H30C29.337 41.675 28.7011 41.4117 28.2322 40.9428C27.7634 40.474 27.5 39.8381 27.5 39.175C27.5 38.512 27.7634 37.8761 28.2322 37.4073C28.7011 36.9384 29.337 36.675 30 36.675H41.475C41.9367 36.6764 42.3889 36.8057 42.7817 37.0484C43.1744 37.2911 43.4923 37.6378 43.7 38.05L50.6 51.825C50.8194 52.2051 50.9349 52.6362 50.9349 53.075C50.9349 53.5139 50.8194 53.945 50.6 54.325C50.3579 54.6947 50.0221 54.9935 49.6268 55.1912C49.2316 55.3888 48.791 55.4781 48.35 55.45Z" fill="black"/>
<path d="M29.9999 55.45H11.6499C11.2227 55.4482 10.8031 55.337 10.4311 55.1269C10.0591 54.9168 9.74709 54.6149 9.52494 54.25C9.28622 53.881 9.14897 53.4557 9.12702 53.0168C9.10508 52.5779 9.19921 52.1409 9.39994 51.75L16.2999 37.975C16.5077 37.5627 16.8255 37.216 17.2183 36.9733C17.611 36.7306 18.0633 36.6014 18.5249 36.6H27.4999V30C27.4999 29.337 27.7633 28.7011 28.2322 28.2322C28.701 27.7634 29.3369 27.5 29.9999 27.5C30.663 27.5 31.2989 27.7634 31.7677 28.2322C32.2365 28.7011 32.4999 29.337 32.4999 30V39.175C32.4999 39.5033 32.4353 39.8284 32.3096 40.1317C32.184 40.435 31.9999 40.7106 31.7677 40.9428C31.5356 41.1749 31.26 41.3591 30.9567 41.4847C30.6533 41.6103 30.3282 41.675 29.9999 41.675H19.9999L15.6999 50.45H29.9999C30.663 50.45 31.2989 50.7134 31.7677 51.1822C32.2365 51.6511 32.4999 52.287 32.4999 52.95C32.4999 53.613 32.2365 54.2489 31.7677 54.7178C31.2989 55.1866 30.663 55.45 29.9999 55.45Z" fill="black"/>
</svg>
