<svg width="60" height="60" viewBox="0 0 60 60" fill="none" xmlns="http://www.w3.org/2000/svg">
<path d="M19.4001 53.1C16.9297 53.0995 14.5149 52.367 12.4605 50.995C10.4061 49.623 8.80437 47.6731 7.85746 45.3914C6.91054 43.1097 6.66094 40.5986 7.14018 38.1751C7.61941 35.7517 8.80598 33.5246 10.5501 31.775L14.1001 28.225C14.5685 27.7594 15.2021 27.498 15.8626 27.498C16.523 27.498 17.1567 27.7594 17.6251 28.225C17.8594 28.4574 18.0454 28.7339 18.1723 29.0386C18.2992 29.3432 18.3646 29.67 18.3646 30C18.3646 30.33 18.2992 30.6568 18.1723 30.9615C18.0454 31.2661 17.8594 31.5426 17.6251 31.775L14.1001 35.3C12.7753 36.7218 12.054 38.6022 12.0883 40.5452C12.1226 42.4883 12.9097 44.3421 14.2839 45.7162C15.658 47.0904 17.5118 47.8775 19.4548 47.9118C21.3979 47.946 23.2783 47.2248 24.7001 45.9L31.7751 38.85C32.4743 38.1532 33.029 37.3253 33.4076 36.4137C33.7861 35.502 33.981 34.5246 33.981 33.5375C33.981 32.5504 33.7861 31.573 33.4076 30.6614C33.029 29.7497 32.4743 28.9218 31.7751 28.225C31.3655 27.7468 31.1515 27.1316 31.1758 26.5024C31.2001 25.8732 31.4609 25.2763 31.9062 24.8311C32.3514 24.3859 32.9482 24.125 33.5774 24.1007C34.2066 24.0764 34.8218 24.2905 35.3001 24.7C37.6435 27.0441 38.9599 30.223 38.9599 33.5375C38.9599 36.8521 37.6435 40.0309 35.3001 42.375L28.2251 49.45C25.8824 51.7867 22.7089 53.0993 19.4001 53.1Z" fill="black"/>
<path d="M26.4751 36.025C26.1461 36.0269 25.8199 35.9638 25.5153 35.8394C25.2108 35.715 24.9337 35.5317 24.7001 35.3C22.3567 32.9559 21.0403 29.777 21.0403 26.4625C21.0403 23.1479 22.3567 19.9691 24.7001 17.625L31.7751 10.55C34.1326 8.273 37.2902 7.01307 40.5676 7.04155C43.8451 7.07003 46.9802 8.38464 49.2979 10.7022C51.6155 13.0198 52.9301 16.155 52.9585 19.4325C52.987 22.7099 51.7271 25.8674 49.4501 28.225L45.9001 31.775C45.4317 32.2406 44.7981 32.502 44.1376 32.502C43.4772 32.502 42.8435 32.2406 42.3751 31.775C42.1408 31.5426 41.9548 31.2661 41.8279 30.9614C41.701 30.6568 41.6356 30.33 41.6356 30C41.6356 29.6699 41.701 29.3432 41.8279 29.0385C41.9548 28.7339 42.1408 28.4574 42.3751 28.225L45.9001 24.7C47.2249 23.2782 47.9461 21.3978 47.9119 19.4547C47.8776 17.5117 47.0905 15.6579 45.7163 14.2838C44.3422 12.9096 42.4884 12.1225 40.5453 12.0882C38.6023 12.0539 36.7219 12.7752 35.3001 14.1L28.2251 21.15C27.5259 21.8467 26.9711 22.6747 26.5926 23.5863C26.2141 24.498 26.0192 25.4754 26.0192 26.4625C26.0192 27.4496 26.2141 28.427 26.5926 29.3386C26.9711 30.2502 27.5259 31.0782 28.2251 31.775C28.6907 32.2434 28.9521 32.877 28.9521 33.5375C28.9521 34.1979 28.6907 34.8316 28.2251 35.3C27.7595 35.7618 27.131 36.0222 26.4751 36.025Z" fill="black"/>
</svg>
