<svg width="60" height="60" viewBox="0 0 60 60" fill="none" xmlns="http://www.w3.org/2000/svg">
<path d="M8.67498 55.55C8.26463 55.5479 7.86109 55.4449 7.49998 55.25C7.10544 55.0341 6.77645 54.7158 6.54765 54.3286C6.31886 53.9414 6.19875 53.4997 6.19998 53.05V16.175C6.19797 15.759 6.29981 15.3491 6.49625 14.9824C6.6927 14.6157 6.97755 14.3038 7.32498 14.075L21.525 4.84997C21.9027 4.60119 22.3409 4.45955 22.7929 4.44016C23.2448 4.42078 23.6935 4.52436 24.0912 4.73988C24.4889 4.95541 24.8206 5.27479 25.0511 5.66399C25.2816 6.0532 25.4022 6.49765 25.4 6.94997V43.825C25.3993 44.2433 25.2936 44.6547 25.0927 45.0216C24.8918 45.3885 24.602 45.6991 24.25 45.925L9.99998 55.15C9.60476 55.4053 9.14549 55.544 8.67498 55.55ZM11.175 17.5V48.45L20.4 42.5V11.55L11.175 17.5Z" fill="black"/>
<path d="M37.1 55.5496C36.6896 55.5476 36.2861 55.4446 35.925 55.2496C35.5258 55.0371 35.1917 54.7202 34.9584 54.3328C34.7251 53.9454 34.6012 53.5019 34.6 53.0496V16.1746C34.6007 15.7563 34.7063 15.3449 34.9072 14.978C35.1081 14.6111 35.3979 14.3005 35.75 14.0746L50 4.84964C50.3774 4.60749 50.813 4.47131 51.2611 4.45538C51.7093 4.43944 52.1534 4.54433 52.5471 4.75906C52.9408 4.97378 53.2694 5.29044 53.4987 5.67585C53.7279 6.06125 53.8492 6.50122 53.85 6.94964V43.8246C53.852 44.2406 53.7502 44.6506 53.5537 45.0173C53.3573 45.384 53.0724 45.6958 52.725 45.9246L38.5 55.1496C38.0833 55.4189 37.596 55.5582 37.1 55.5496ZM39.6 17.4996V48.4496L48.825 42.4996V11.5496L39.6 17.4996Z" fill="black"/>
<path d="M37.1 55.5499C36.621 55.5487 36.1524 55.4098 35.75 55.1499L21.525 45.9249C21.0249 45.5414 20.6881 44.9832 20.582 44.362C20.4759 43.7407 20.6083 43.1023 20.9527 42.5746C21.2972 42.0468 21.8283 41.6686 22.4397 41.5157C23.0511 41.3628 23.6977 41.4465 24.25 41.7499L34.6 48.4499V17.4999L21.525 9.02491C21.0249 8.64141 20.6881 8.08318 20.582 7.46196C20.4759 6.84073 20.6083 6.20234 20.9527 5.67459C21.2972 5.14683 21.8283 4.76864 22.4397 4.61573C23.0511 4.46281 23.6977 4.54645 24.25 4.84991L38.475 14.0999C38.8225 14.3287 39.1073 14.6406 39.3038 15.0073C39.5002 15.374 39.602 15.7839 39.6 16.1999V53.0499C39.6012 53.4996 39.4811 53.9414 39.2523 54.3286C39.0236 54.7157 38.6946 55.034 38.3 55.2499C37.9315 55.4488 37.5188 55.552 37.1 55.5499Z" fill="black"/>
</svg>
