<svg width="60" height="60" viewBox="0 0 60 60" fill="none" xmlns="http://www.w3.org/2000/svg">
<path d="M53.325 45.325H52.825L6.19997 35.95C5.62218 35.8382 5.10231 35.5263 4.7319 35.069C4.36149 34.6117 4.16427 34.0384 4.17497 33.45V24.175C4.16427 23.5866 4.36149 23.0132 4.7319 22.5559C5.10231 22.0986 5.62218 21.7867 6.19997 21.675L52.825 12.4999C53.1863 12.425 53.5598 12.4309 53.9185 12.5174C54.2773 12.6038 54.6124 12.7686 54.9 12.9999C55.19 13.2352 55.4237 13.5325 55.5837 13.87C55.7438 14.2074 55.8262 14.5765 55.825 14.9499V42.825C55.8225 43.1942 55.7383 43.5584 55.5784 43.8912C55.4184 44.224 55.1868 44.5173 54.9 44.75C54.4568 45.1172 53.9005 45.3203 53.325 45.325ZM9.17497 31.45L50.825 39.775V17.9L9.17497 26.225V31.45Z" fill="black"/>
<path d="M6.67493 40.6499C6.01189 40.6499 5.376 40.3865 4.90716 39.9176C4.43832 39.4488 4.17493 38.8129 4.17493 38.1499V19.4999C4.17493 18.8368 4.43832 18.201 4.90716 17.7321C5.376 17.2633 6.01189 16.9999 6.67493 16.9999C7.33797 16.9999 7.97385 17.2633 8.44269 17.7321C8.91153 18.201 9.17493 18.8368 9.17493 19.4999V38.1499C9.17493 38.4782 9.11026 38.8033 8.98463 39.1066C8.85899 39.4099 8.67484 39.6855 8.44269 39.9176C8.21055 40.1498 7.93495 40.3339 7.63164 40.4596C7.32832 40.5852 7.00323 40.6499 6.67493 40.6499Z" fill="black"/>
<path d="M24.1748 47.6499C21.348 47.6499 18.6365 46.5286 16.6353 44.5321C14.6341 42.5355 13.5065 39.8267 13.4998 36.9999C13.4939 36.2688 13.5693 35.5393 13.7248 34.8249C13.7985 34.5047 13.9346 34.2021 14.1253 33.9346C14.316 33.667 14.5575 33.4396 14.8362 33.2655C15.1148 33.0914 15.425 32.9739 15.7491 32.9197C16.0732 32.8655 16.4047 32.8758 16.7248 32.9499C17.045 33.0236 17.3476 33.1596 17.6151 33.3503C17.8827 33.541 18.1101 33.7826 18.2842 34.0612C18.4583 34.3398 18.5759 34.65 18.63 34.9741C18.6842 35.2982 18.6739 35.6298 18.5998 35.9499C18.569 36.2992 18.569 36.6506 18.5998 36.9999C18.6142 38.3969 19.1433 39.7396 20.0859 40.7707C21.0286 41.8019 22.3185 42.4491 23.7086 42.5884C25.0987 42.7278 26.4914 42.3494 27.62 41.5258C28.7485 40.7022 29.5336 39.4913 29.8248 38.1249C29.9519 37.4757 30.3311 36.9033 30.8793 36.5331C31.4276 36.1629 32.1002 36.0251 32.7498 36.1499C33.0739 36.2126 33.3822 36.3389 33.6572 36.5215C33.9322 36.704 34.1683 36.9392 34.3519 37.2134C34.5355 37.4877 34.663 37.7956 34.727 38.1194C34.791 38.4431 34.7903 38.7764 34.7248 39.0999C34.2273 41.5257 32.9038 43.7038 30.98 45.2629C29.0561 46.8221 26.6511 47.6657 24.1748 47.6499Z" fill="black"/>
<path d="M43.8 42.9999C43.137 42.9999 42.5011 42.7365 42.0323 42.2677C41.5634 41.7989 41.3 41.163 41.3 40.4999V16.7499C41.3 16.0869 41.5634 15.451 42.0323 14.9822C42.5011 14.5133 43.137 14.2499 43.8 14.2499C44.4631 14.2499 45.099 14.5133 45.5678 14.9822C46.0367 15.451 46.3 16.0869 46.3 16.7499V40.4999C46.3 41.163 46.0367 41.7989 45.5678 42.2677C45.099 42.7365 44.4631 42.9999 43.8 42.9999Z" fill="black"/>
</svg>
