<svg width="60" height="60" viewBox="0 0 60 60" fill="none" xmlns="http://www.w3.org/2000/svg">
<path d="M30 43.225C28.2689 43.2217 26.5554 42.8767 24.958 42.2097C23.3605 41.5427 21.9105 40.5668 20.6911 39.3381C19.4717 38.1094 18.5068 36.652 17.852 35.0495C17.1971 33.4471 16.8651 31.7311 16.875 30V16.175C16.875 12.694 18.2578 9.35563 20.7192 6.89421C23.1806 4.4328 26.519 3.04999 30 3.04999C33.4809 3.04999 36.8193 4.4328 39.2807 6.89421C41.7422 9.35563 43.125 12.694 43.125 16.175V30C43.1348 31.7311 42.8028 33.4471 42.148 35.0495C41.4931 36.652 40.5283 38.1094 39.3089 39.3381C38.0894 40.5668 36.6394 41.5427 35.042 42.2097C33.4445 42.8767 31.7311 43.2217 30 43.225ZM30 8.02499C27.8428 8.03161 25.7762 8.89318 24.2532 10.4209C22.7302 11.9486 21.875 14.0178 21.875 16.175V30C21.875 32.1549 22.731 34.2215 24.2547 35.7452C25.7785 37.269 27.8451 38.125 30 38.125C32.1549 38.125 34.2215 37.269 35.7452 35.7452C37.2689 34.2215 38.125 32.1549 38.125 30V16.175C38.125 14.0178 37.2698 11.9486 35.7467 10.4209C34.2237 8.89318 32.1571 8.03161 30 8.02499Z" fill="black"/>
<path d="M40.625 56.9749H19.375C18.712 56.9749 18.0761 56.7115 17.6072 56.2427C17.1384 55.7738 16.875 55.138 16.875 54.4749C16.875 53.8119 17.1384 53.176 17.6072 52.7071C18.0761 52.2383 18.712 51.9749 19.375 51.9749H27.5V40.7249C27.5 40.0619 27.7634 39.426 28.2322 38.9571C28.7011 38.4883 29.337 38.2249 30 38.2249C30.663 38.2249 31.2989 38.4883 31.7678 38.9571C32.2366 39.426 32.5 40.0619 32.5 40.7249V51.9749H40.625C41.288 51.9749 41.9239 52.2383 42.3928 52.7071C42.8616 53.176 43.125 53.8119 43.125 54.4749C43.125 55.138 42.8616 55.7738 42.3928 56.2427C41.9239 56.7115 41.288 56.9749 40.625 56.9749Z" fill="black"/>
<path d="M40.6249 21.5H33.2499C32.5868 21.5 31.951 21.2366 31.4821 20.7678C31.0133 20.2989 30.7499 19.663 30.7499 19C30.7499 18.337 31.0133 17.7011 31.4821 17.2322C31.951 16.7634 32.5868 16.5 33.2499 16.5H40.6249C41.2879 16.5 41.9238 16.7634 42.3927 17.2322C42.8615 17.7011 43.1249 18.337 43.1249 19C43.1249 19.663 42.8615 20.2989 42.3927 20.7678C41.9238 21.2366 41.2879 21.5 40.6249 21.5Z" fill="black"/>
<path d="M40.6249 30.9H33.2499C32.5868 30.9 31.951 30.6366 31.4821 30.1678C31.0133 29.699 30.7499 29.0631 30.7499 28.4C30.7499 27.737 31.0133 27.1011 31.4821 26.6323C31.951 26.1634 32.5868 25.9 33.2499 25.9H40.6249C41.2879 25.9 41.9238 26.1634 42.3927 26.6323C42.8615 27.1011 43.1249 27.737 43.1249 28.4C43.1249 29.0631 42.8615 29.699 42.3927 30.1678C41.9238 30.6366 41.2879 30.9 40.6249 30.9Z" fill="black"/>
</svg>
