<svg width="60" height="60" viewBox="0 0 60 60" fill="none" xmlns="http://www.w3.org/2000/svg">
<path d="M25.525 33.275C25.03 33.2642 24.5571 33.0679 24.2 32.725L20.7 29.225C20.3488 28.8734 20.1516 28.3969 20.1516 27.9C20.1516 27.4031 20.3488 26.9266 20.7 26.575L24.475 22.8C24.8265 22.4489 25.3031 22.2516 25.8 22.2516C26.2968 22.2516 26.7734 22.4489 27.125 22.8C27.3019 22.9724 27.4424 23.1784 27.5384 23.406C27.6344 23.6335 27.6839 23.878 27.6839 24.125C27.6839 24.372 27.6344 24.6165 27.5384 24.844C27.4424 25.0716 27.3019 25.2776 27.125 25.45L24.625 27.95L26.8 30.1C27.1467 30.4589 27.3405 30.9385 27.3405 31.4375C27.3405 31.9365 27.1467 32.4161 26.8 32.775C26.4482 33.0884 25.996 33.2657 25.525 33.275Z" fill="black"/>
<path d="M34.4749 33.275C33.9799 33.2642 33.507 33.0679 33.1499 32.725C32.8032 32.3661 32.6094 31.8866 32.6094 31.3875C32.6094 30.8885 32.8032 30.4089 33.1499 30.05L35.3249 27.9L32.8249 25.4C32.648 25.2276 32.5074 25.0216 32.4114 24.794C32.3154 24.5665 32.266 24.322 32.266 24.075C32.266 23.828 32.3154 23.5835 32.4114 23.356C32.5074 23.1284 32.648 22.9224 32.8249 22.75C33.1765 22.3989 33.653 22.2017 34.1499 22.2017C34.6468 22.2017 35.1234 22.3989 35.4749 22.75L39.2499 26.525C39.601 26.8766 39.7983 27.3531 39.7983 27.85C39.7983 28.3469 39.601 28.8234 39.2499 29.175L35.7499 32.675C35.4132 33.025 34.9592 33.2386 34.4749 33.275Z" fill="black"/>
<path d="M37.5 56.875H22.5C20.0136 56.875 17.629 55.8873 15.8709 54.1291C14.1127 52.371 13.125 49.9864 13.125 47.5V12.5C13.125 10.0136 14.1127 7.62903 15.8709 5.87087C17.629 4.11272 20.0136 3.125 22.5 3.125H37.5C39.9864 3.125 42.371 4.11272 44.1291 5.87087C45.8873 7.62903 46.875 10.0136 46.875 12.5V47.5C46.875 49.9864 45.8873 52.371 44.1291 54.1291C42.371 55.8873 39.9864 56.875 37.5 56.875ZM22.5 6.875C21.0082 6.875 19.5774 7.46763 18.5225 8.52252C17.4676 9.57742 16.875 11.0082 16.875 12.5V47.5C16.875 48.9918 17.4676 50.4226 18.5225 51.4775C19.5774 52.5324 21.0082 53.125 22.5 53.125H37.5C38.9918 53.125 40.4226 52.5324 41.4775 51.4775C42.5324 50.4226 43.125 48.9918 43.125 47.5V12.5C43.125 11.0082 42.5324 9.57742 41.4775 8.52252C40.4226 7.46763 38.9918 6.875 37.5 6.875H22.5Z" fill="black"/>
<path d="M29.9999 49.375C29.6293 49.3747 29.2671 49.2645 28.9591 49.0585C28.6511 48.8524 28.411 48.5597 28.2692 48.2173C28.1274 47.8749 28.0903 47.4982 28.1625 47.1347C28.2347 46.7712 28.413 46.4372 28.6749 46.175C28.8929 45.9567 29.1614 45.7956 29.4565 45.706C29.7517 45.6163 30.0644 45.6008 30.3669 45.6609C30.6695 45.721 30.9525 45.8549 31.191 46.0505C31.4295 46.2462 31.6159 46.4977 31.734 46.7827C31.852 47.0677 31.8978 47.3774 31.8675 47.6844C31.8372 47.9913 31.7316 48.2861 31.5601 48.5425C31.3886 48.7989 31.1565 49.009 30.8843 49.1542C30.6122 49.2994 30.3084 49.3753 29.9999 49.375Z" fill="black"/>
</svg>
