<svg width="61" height="60" viewBox="0 0 61 60" fill="none" xmlns="http://www.w3.org/2000/svg">
<path d="M24.4499 52.175C21.1984 52.1723 18.0206 51.206 15.318 49.3983C12.6153 47.5905 10.509 45.0224 9.26509 42.0183C8.02116 39.0141 7.69542 35.7087 8.32901 32.5195C8.96259 29.3304 10.5271 26.4005 12.8249 24.1L24.2999 12.625C27.3863 9.52195 31.5791 7.7721 35.9557 7.76037C40.3323 7.74865 44.5343 9.47602 47.6374 12.5625C50.7404 15.6489 52.4903 19.8417 52.502 24.2183C52.5137 28.5949 50.7863 32.7969 47.6999 35.9L36.0999 47.5C34.5626 49.0094 32.7417 50.1996 30.7422 51.002C28.7427 51.8044 26.6042 52.203 24.4499 52.175ZM35.9499 11.55C34.2786 11.5494 32.6236 11.8781 31.0794 12.5173C29.5351 13.1564 28.1319 14.0935 26.9499 15.275L15.4749 26.75C13.0912 29.1336 11.7521 32.3665 11.7521 35.7375C11.7521 39.1084 13.0912 42.3413 15.4749 44.725C17.8585 47.1086 21.0914 48.4477 24.4624 48.4477C27.8333 48.4477 31.0662 47.1086 33.4499 44.725L44.9249 33.25C46.6953 31.4706 47.8999 29.2073 48.3871 26.7449C48.8744 24.2825 48.6224 21.731 47.6631 19.4115C46.7037 17.0919 45.0798 15.1079 42.9956 13.709C40.9114 12.3102 38.46 11.559 35.9499 11.55Z" fill="black"/>
<path d="M32.2997 29.775C32.0534 29.7762 31.8093 29.7281 31.5818 29.6337C31.3542 29.5392 31.1479 29.4003 30.9747 29.225C30.6236 28.8734 30.4264 28.3969 30.4264 27.9C30.4264 27.4031 30.6236 26.9266 30.9747 26.575L35.8247 21.725C35.9964 21.5408 36.2034 21.393 36.4334 21.2906C36.6634 21.1881 36.9117 21.133 37.1634 21.1285C37.4152 21.1241 37.6653 21.1704 37.8987 21.2647C38.1322 21.359 38.3443 21.4994 38.5223 21.6774C38.7004 21.8555 38.8407 22.0675 38.9351 22.301C39.0294 22.5345 39.0757 22.7846 39.0712 23.0363C39.0668 23.2881 39.0117 23.5364 38.9092 23.7664C38.8067 23.9964 38.659 24.2034 38.4747 24.375L33.6247 29.225C33.4516 29.4003 33.2453 29.5392 33.0177 29.6337C32.7902 29.7281 32.5461 29.7762 32.2997 29.775Z" fill="black"/>
</svg>
