<svg width="60" height="60" viewBox="0 0 60 60" fill="none" xmlns="http://www.w3.org/2000/svg">
<path d="M45.675 54.9999C44.9573 54.9998 44.2469 54.856 43.5856 54.5769C42.9244 54.2978 42.3258 53.8891 41.825 53.3749L30.35 41.9999C30.2538 41.9138 30.1292 41.8662 30 41.8662C29.8709 41.8662 29.7463 41.9138 29.65 41.9999L18.175 53.4749C17.2822 54.3872 16.0988 54.9588 14.8292 55.091C13.5596 55.2232 12.2838 54.9077 11.2222 54.199C10.1606 53.4903 9.37999 52.4329 9.01532 51.2097C8.65064 49.9865 8.72482 48.6743 9.22502 47.4999L25 8.34993C25.4104 7.33346 26.1152 6.46281 27.0239 5.84972C27.9326 5.23662 29.0038 4.90906 30.1 4.90906C31.1962 4.90906 32.2674 5.23662 33.1761 5.84972C34.0848 6.46281 34.7896 7.33346 35.2 8.34993L50.775 47.4999C51.0969 48.3239 51.2153 49.2134 51.1202 50.093C51.025 50.9725 50.7191 51.8161 50.2284 52.5522C49.7376 53.2882 49.0766 53.8951 48.3013 54.3212C47.5261 54.7473 46.6595 54.9802 45.775 54.9999H45.675ZM30 9.99993C29.9026 9.99441 29.8061 10.0207 29.7249 10.0748C29.6438 10.1289 29.5824 10.2079 29.55 10.2999L13.85 49.4249C13.8053 49.5284 13.801 49.6449 13.838 49.7514C13.8751 49.8579 13.9507 49.9466 14.05 49.9999C14.1297 50.0793 14.2376 50.1239 14.35 50.1239C14.4625 50.1239 14.5704 50.0793 14.65 49.9999L26.125 38.5249C26.6319 38.0124 27.2353 37.6056 27.9005 37.3279C28.5656 37.0503 29.2792 36.9073 30 36.9073C30.7208 36.9073 31.4344 37.0503 32.0996 37.3279C32.7647 37.6056 33.3682 38.0124 33.875 38.5249L45.35 49.9999C45.4297 50.0793 45.5376 50.1239 45.65 50.1239C45.7625 50.1239 45.8704 50.0793 45.95 49.9999C46.0493 49.9466 46.125 49.8579 46.162 49.7514C46.199 49.6449 46.1948 49.5284 46.15 49.4249L30.45 10.1999C30.4026 10.1265 30.3347 10.0684 30.2548 10.0329C30.1749 9.9974 30.0863 9.98593 30 9.99993Z" fill="black"/>
</svg>
