<svg width="60" height="60" viewBox="0 0 60 60" fill="none" xmlns="http://www.w3.org/2000/svg">
<path d="M43.75 56.25H16.25C13.5978 56.25 11.0543 55.1964 9.17893 53.3211C7.30357 51.4457 6.25 48.9022 6.25 46.25V18.75C6.25 16.0978 7.30357 13.5543 9.17893 11.6789C11.0543 9.80357 13.5978 8.75 16.25 8.75H43.75C46.4022 8.75 48.9457 9.80357 50.8211 11.6789C52.6964 13.5543 53.75 16.0978 53.75 18.75V46.25C53.75 48.9022 52.6964 51.4457 50.8211 53.3211C48.9457 55.1964 46.4022 56.25 43.75 56.25ZM16.25 13.75C14.9239 13.75 13.6521 14.2768 12.7145 15.2145C11.7768 16.1521 11.25 17.4239 11.25 18.75V46.25C11.25 47.5761 11.7768 48.8479 12.7145 49.7855C13.6521 50.7232 14.9239 51.25 16.25 51.25H43.75C45.0761 51.25 46.3479 50.7232 47.2855 49.7855C48.2232 48.8479 48.75 47.5761 48.75 46.25V18.75C48.75 17.4239 48.2232 16.1521 47.2855 15.2145C46.3479 14.2768 45.0761 13.75 43.75 13.75H16.25Z" fill="black"/>
<path d="M20 18.75C19.337 18.75 18.7011 18.4866 18.2322 18.0178C17.7634 17.5489 17.5 16.913 17.5 16.25V6.25C17.5 5.58696 17.7634 4.95107 18.2322 4.48223C18.7011 4.01339 19.337 3.75 20 3.75C20.663 3.75 21.2989 4.01339 21.7678 4.48223C22.2366 4.95107 22.5 5.58696 22.5 6.25V16.25C22.5 16.913 22.2366 17.5489 21.7678 18.0178C21.2989 18.4866 20.663 18.75 20 18.75Z" fill="black"/>
<path d="M30 18.75C29.337 18.75 28.7011 18.4866 28.2322 18.0178C27.7634 17.5489 27.5 16.913 27.5 16.25V6.25C27.5 5.58696 27.7634 4.95107 28.2322 4.48223C28.7011 4.01339 29.337 3.75 30 3.75C30.663 3.75 31.2989 4.01339 31.7678 4.48223C32.2366 4.95107 32.5 5.58696 32.5 6.25V16.25C32.5 16.913 32.2366 17.5489 31.7678 18.0178C31.2989 18.4866 30.663 18.75 30 18.75Z" fill="black"/>
<path d="M40 18.75C39.337 18.75 38.7011 18.4866 38.2322 18.0178C37.7634 17.5489 37.5 16.913 37.5 16.25V6.25C37.5 5.58696 37.7634 4.95107 38.2322 4.48223C38.7011 4.01339 39.337 3.75 40 3.75C40.663 3.75 41.2989 4.01339 41.7678 4.48223C42.2366 4.95107 42.5 5.58696 42.5 6.25V16.25C42.5 16.913 42.2366 17.5489 41.7678 18.0178C41.2989 18.4866 40.663 18.75 40 18.75Z" fill="black"/>
</svg>
