<svg width="60" height="60" viewBox="0 0 60 60" fill="none" xmlns="http://www.w3.org/2000/svg">
<path d="M49.85 48.75H49.575C48.9197 48.6746 48.3207 48.3433 47.9086 47.8281C47.4965 47.313 47.3047 46.6559 47.375 46C47.375 45.2 47.5 44.425 47.5 43.5V32.925C47.5349 27.9669 45.6748 23.1826 42.3 19.55C40.7391 17.8374 38.8404 16.4667 36.7234 15.5244C34.6064 14.5821 32.3172 14.0886 30 14.075C25.1831 14.2638 20.6372 16.3533 17.3574 19.8862C14.0776 23.419 12.331 28.1074 12.5 32.925V43.575C12.5 44.4 12.5 45.175 12.5 46.075C12.5361 46.4033 12.5072 46.7355 12.415 47.0527C12.3227 47.3698 12.1689 47.6656 11.9623 47.9233C11.7556 48.181 11.5003 48.3955 11.2108 48.5545C10.9213 48.7135 10.6033 48.8139 10.275 48.85C9.94673 48.8861 9.61452 48.8572 9.29739 48.7649C8.98026 48.6727 8.6844 48.5188 8.42672 48.3122C8.16904 48.1056 7.95457 47.8503 7.79557 47.5608C7.63657 47.2713 7.53615 46.9533 7.50003 46.625C7.43196 45.6095 7.43196 44.5905 7.50003 43.575V32.925C7.33172 26.7816 9.60527 20.8219 13.8226 16.3515C18.0399 11.8811 23.8572 9.26455 30 9.07501C33.003 9.0893 35.9705 9.7253 38.7156 10.9429C41.4607 12.1606 43.9239 13.9335 45.95 16.15C50.1946 20.7006 52.538 26.7022 52.5 32.925V43.575C52.5055 44.5611 52.4471 45.5465 52.325 46.525C52.2575 47.135 51.968 47.6989 51.5116 48.1092C51.0552 48.5195 50.4638 48.7476 49.85 48.75Z" fill="black"/>
<path d="M49.85 48.75H10.15C9.48698 48.75 8.8511 48.4866 8.38226 48.0178C7.91342 47.5489 7.65002 46.913 7.65002 46.25C7.65002 45.587 7.91342 44.9511 8.38226 44.4822C8.8511 44.0134 9.48698 43.75 10.15 43.75H49.85C50.5131 43.75 51.1489 44.0134 51.6178 44.4822C52.0866 44.9511 52.35 45.587 52.35 46.25C52.35 46.913 52.0866 47.5489 51.6178 48.0178C51.1489 48.4866 50.5131 48.75 49.85 48.75Z" fill="black"/>
<path d="M30 14.075C29.337 14.075 28.7011 13.8116 28.2322 13.3428C27.7634 12.8739 27.5 12.238 27.5 11.575V6.25C27.5 5.58696 27.7634 4.95107 28.2322 4.48223C28.7011 4.01339 29.337 3.75 30 3.75C30.663 3.75 31.2989 4.01339 31.7678 4.48223C32.2366 4.95107 32.5 5.58696 32.5 6.25V11.575C32.5 12.238 32.2366 12.8739 31.7678 13.3428C31.2989 13.8116 30.663 14.075 30 14.075Z" fill="black"/>
<path d="M30 56.25C27.3478 56.25 24.8043 55.1964 22.9289 53.3211C21.0536 51.4457 20 48.9022 20 46.25C20 45.587 20.2634 44.9511 20.7322 44.4822C21.2011 44.0134 21.837 43.75 22.5 43.75C23.163 43.75 23.7989 44.0134 24.2678 44.4822C24.7366 44.9511 25 45.587 25 46.25C25 47.5761 25.5268 48.8479 26.4645 49.7855C27.4021 50.7232 28.6739 51.25 30 51.25C31.3261 51.25 32.5979 50.7232 33.5355 49.7855C34.4732 48.8479 35 47.5761 35 46.25C35 45.587 35.2634 44.9511 35.7322 44.4822C36.2011 44.0134 36.837 43.75 37.5 43.75C38.163 43.75 38.7989 44.0134 39.2678 44.4822C39.7366 44.9511 40 45.587 40 46.25C40 48.9022 38.9464 51.4457 37.0711 53.3211C35.1957 55.1964 32.6522 56.25 30 56.25Z" fill="black"/>
</svg>
