<svg width="60" height="60" viewBox="0 0 60 60" fill="none" xmlns="http://www.w3.org/2000/svg">
<path d="M30.0001 38.6251C28.2942 38.6251 26.6266 38.1192 25.2083 37.1715C23.7899 36.2238 22.6844 34.8767 22.0316 33.3007C21.3788 31.7247 21.208 29.9905 21.5408 28.3174C21.8736 26.6443 22.695 25.1075 23.9013 23.9013C25.1075 22.695 26.6443 21.8736 28.3174 21.5408C29.9905 21.208 31.7247 21.3788 33.3007 22.0316C34.8767 22.6844 36.2238 23.7899 37.1715 25.2083C38.1192 26.6266 38.6251 28.2942 38.6251 30.0001C38.6185 32.2855 37.7076 34.4755 36.0916 36.0916C34.4755 37.7076 32.2855 38.6185 30.0001 38.6251ZM30.0001 26.3751C29.2831 26.3751 28.5823 26.5877 27.9861 26.986C27.39 27.3843 26.9254 27.9505 26.651 28.6128C26.3766 29.2752 26.3048 30.0041 26.4447 30.7073C26.5846 31.4104 26.9298 32.0564 27.4368 32.5633C27.9438 33.0703 28.5897 33.4155 29.2929 33.5554C29.996 33.6953 30.7249 33.6235 31.3873 33.3491C32.0497 33.0748 32.6158 32.6101 33.0141 32.014C33.4125 31.4179 33.6251 30.717 33.6251 30.0001C33.6251 29.0387 33.2431 28.1166 32.5633 27.4368C31.8835 26.757 30.9615 26.3751 30.0001 26.3751Z" fill="black"/>
<path d="M30.0001 46.8251C26.6724 46.8251 23.4194 45.8383 20.6526 43.9895C17.8857 42.1408 15.7292 39.5131 14.4558 36.4387C13.1823 33.3643 12.8491 29.9814 13.4983 26.7177C14.1475 23.4539 15.75 20.456 18.103 18.103C20.456 15.75 23.4539 14.1475 26.7177 13.4983C29.9814 12.8491 33.3643 13.1823 36.4387 14.4558C39.5131 15.7292 42.1408 17.8857 43.9895 20.6526C45.8383 23.4194 46.8251 26.6724 46.8251 30.0001C46.8184 34.4603 45.0437 38.736 41.8898 41.8898C38.736 45.0437 34.4603 46.8184 30.0001 46.8251ZM30.0001 18.1751C27.6613 18.1751 25.375 18.8686 23.4304 20.1679C21.4858 21.4673 19.9702 23.3141 19.0752 25.4748C18.1802 27.6356 17.946 30.0132 18.4023 32.307C18.8585 34.6008 19.9848 36.7078 21.6385 38.3616C23.2923 40.0154 25.3993 41.1416 27.6931 41.5978C29.9869 42.0541 32.3646 41.8199 34.5253 40.9249C36.686 40.0299 38.5328 38.5143 39.8322 36.5697C41.1315 34.6251 41.8251 32.3388 41.8251 30.0001C41.8251 26.8639 40.5792 23.8561 38.3616 21.6385C36.144 19.4209 33.1362 18.1751 30.0001 18.1751Z" fill="black"/>
<path d="M30 55C25.0555 55 20.222 53.5338 16.1108 50.7867C11.9995 48.0397 8.79521 44.1353 6.90302 39.5671C5.01083 34.9989 4.51575 29.9723 5.48038 25.1228C6.44501 20.2732 8.82603 15.8187 12.3223 12.3223C15.8187 8.82603 20.2732 6.44501 25.1228 5.48038C29.9723 4.51575 34.9989 5.01083 39.5671 6.90302C44.1353 8.79521 48.0397 11.9995 50.7867 16.1108C53.5338 20.222 55 25.0555 55 30C55 36.6304 52.3661 42.9893 47.6777 47.6777C42.9893 52.3661 36.6304 55 30 55ZM30 10C26.0444 10 22.1776 11.173 18.8886 13.3706C15.5996 15.5682 13.0362 18.6918 11.5224 22.3463C10.0087 26.0009 9.6126 30.0222 10.3843 33.9018C11.156 37.7814 13.0608 41.3451 15.8579 44.1421C18.6549 46.9392 22.2186 48.844 26.0982 49.6157C29.9778 50.3874 33.9992 49.9914 37.6537 48.4776C41.3082 46.9638 44.4318 44.4004 46.6294 41.1114C48.827 37.8224 50 33.9556 50 30C50 24.6957 47.8929 19.6086 44.1421 15.8579C40.3914 12.1071 35.3043 10 30 10Z" fill="black"/>
</svg>
