<svg width="60" height="60" viewBox="0 0 60 60" fill="none" xmlns="http://www.w3.org/2000/svg">
<path d="M37.625 55.0001H22.5C21.6153 55.0168 20.7362 54.8561 19.9146 54.5275C19.093 54.199 18.3456 53.7091 17.7164 53.0869C17.0872 52.4648 16.5891 51.7229 16.2513 50.905C15.9136 50.0871 15.7431 49.2099 15.75 48.3251V30.8251C15.763 29.9529 15.9481 29.0919 16.2947 28.2914C16.6413 27.491 17.1425 26.7668 17.7697 26.1606C18.3968 25.5543 19.1376 25.0779 19.9493 24.7586C20.761 24.4394 21.6278 24.2835 22.5 24.3001H37.75C39.507 24.3001 41.1921 24.9981 42.4345 26.2405C43.677 27.4829 44.375 29.168 44.375 30.9251V48.4251C44.3685 49.3015 44.1882 50.1679 43.8445 50.9742C43.5008 51.7804 43.0006 52.5104 42.3728 53.122C41.745 53.7335 41.0021 54.2144 40.1871 54.5368C39.3721 54.8592 38.5012 55.0166 37.625 55.0001ZM22.5 29.3001C22.069 29.3001 21.6557 29.4713 21.3509 29.776C21.0462 30.0808 20.875 30.4941 20.875 30.9251V48.4251C20.888 48.8473 21.0649 49.2479 21.3682 49.5419C21.6716 49.836 22.0775 50.0003 22.5 50.0001H37.75C38.1809 50.0001 38.5943 49.8289 38.899 49.5241C39.2037 49.2194 39.375 48.8061 39.375 48.3751V30.8751C39.375 30.4441 39.2037 30.0308 38.899 29.726C38.5943 29.4213 38.1809 29.2501 37.75 29.2501L22.5 29.3001Z" fill="black"/>
<path d="M24.4 29.3001C23.8356 29.3195 23.2813 29.1471 22.8273 28.8112C22.3734 28.4753 22.0465 27.9955 21.9 27.4501L17.975 12.5001C17.8279 11.8688 17.9318 11.2051 18.2647 10.6489C18.5976 10.0927 19.1335 9.68758 19.7594 9.51895C20.3853 9.35032 21.0522 9.43137 21.6195 9.74502C22.1867 10.0587 22.61 10.5804 22.8 11.2001L26.8 26.2001C26.952 26.8362 26.8487 27.5066 26.5122 28.0674C26.1757 28.6283 25.6328 29.0349 25 29.2001C24.807 29.2668 24.6042 29.3006 24.4 29.3001Z" fill="black"/>
<path d="M33.0749 29.3C32.8924 29.3244 32.7074 29.3244 32.5249 29.3C32.2025 29.2291 31.8972 29.0951 31.6269 28.9056C31.3565 28.7161 31.1264 28.4749 30.9497 28.196C30.7731 27.9171 30.6534 27.6059 30.5977 27.2805C30.5419 26.9551 30.5512 26.6219 30.6249 26.3L34.9999 7.00004C35.0736 6.67984 35.2097 6.37731 35.4004 6.10974C35.5911 5.84217 35.8326 5.61481 36.1112 5.44067C36.3899 5.26653 36.7001 5.14902 37.0242 5.09486C37.3482 5.04071 37.6798 5.05096 37.9999 5.12504C38.3313 5.18446 38.6474 5.31022 38.929 5.49478C39.2106 5.67934 39.4521 5.91889 39.6389 6.19906C39.8257 6.47923 39.9539 6.79425 40.016 7.12521C40.078 7.45616 40.0725 7.79625 39.9999 8.12504L35.4999 27.35C35.3756 27.9013 35.0682 28.3942 34.6278 28.7483C34.1874 29.1025 33.64 29.2969 33.0749 29.3Z" fill="black"/>
<path d="M41.75 45.975H27.225C26.5619 45.975 25.926 45.7116 25.4572 45.2428C24.9884 44.774 24.725 44.1381 24.725 43.475V34.475C24.725 33.812 24.9884 33.1761 25.4572 32.7073C25.926 32.2384 26.5619 31.975 27.225 31.975H41.75C42.413 31.975 43.0489 32.2384 43.5177 32.7073C43.9866 33.1761 44.25 33.812 44.25 34.475C44.25 35.1381 43.9866 35.774 43.5177 36.2428C43.0489 36.7116 42.413 36.975 41.75 36.975H29.725V40.975H41.75C42.413 40.975 43.0489 41.2384 43.5177 41.7073C43.9866 42.1761 44.25 42.812 44.25 43.475C44.25 44.1381 43.9866 44.774 43.5177 45.2428C43.0489 45.7116 42.413 45.975 41.75 45.975Z" fill="black"/>
</svg>
