<svg width="60" height="60" viewBox="0 0 60 60" fill="none" xmlns="http://www.w3.org/2000/svg">
<path d="M36.1251 55.2H23.8751C21.223 55.2 18.6794 54.1465 16.8041 52.2711C14.9287 50.3957 13.8751 47.8522 13.8751 45.2V14.8C13.8751 12.1479 14.9287 9.60434 16.8041 7.72898C18.6794 5.85362 21.223 4.80005 23.8751 4.80005H36.1251C37.4383 4.80005 38.7387 5.05871 39.952 5.56125C41.1652 6.0638 42.2676 6.80039 43.1962 7.72898C44.1248 8.65757 44.8614 9.75996 45.3639 10.9732C45.8665 12.1865 46.1251 13.4868 46.1251 14.8V45.2C46.1251 46.5133 45.8665 47.8136 45.3639 49.0269C44.8614 50.2401 44.1248 51.3425 43.1962 52.2711C42.2676 53.1997 41.1652 53.9363 39.952 54.4388C38.7387 54.9414 37.4383 55.2 36.1251 55.2ZM23.8751 9.80005C22.549 9.80005 21.2773 10.3268 20.3396 11.2645C19.4019 12.2022 18.8751 13.474 18.8751 14.8V45.2C18.8751 46.5261 19.4019 47.7979 20.3396 48.7356C21.2773 49.6733 22.549 50.2 23.8751 50.2H36.1251C36.7817 50.2 37.4319 50.0707 38.0385 49.8194C38.6452 49.5682 39.1964 49.1999 39.6607 48.7356C40.1249 48.2713 40.4932 47.7201 40.7445 47.1135C40.9958 46.5068 41.1251 45.8567 41.1251 45.2V14.8C41.1251 13.474 40.5983 12.2022 39.6607 11.2645C38.723 10.3268 37.4512 9.80005 36.1251 9.80005H23.8751Z" fill="black"/>
<path d="M30.0001 48.375C29.6751 48.379 29.3524 48.3195 29.0501 48.2C28.7429 48.0702 28.463 47.8836 28.2251 47.65C27.9934 47.4164 27.8101 47.1393 27.6857 46.8347C27.5612 46.5301 27.4982 46.204 27.5001 45.875C27.4916 45.547 27.5601 45.2217 27.7001 44.925C27.8219 44.627 28.0002 44.3553 28.2251 44.125C28.4563 43.8832 28.738 43.6954 29.0501 43.575C29.5003 43.387 29.9956 43.3349 30.4751 43.425L30.9501 43.575L31.3751 43.8L31.7751 44.125C32.2369 44.5906 32.4973 45.2191 32.5001 45.875C32.5001 46.538 32.2367 47.1739 31.7679 47.6427C31.299 48.1116 30.6631 48.375 30.0001 48.375Z" fill="black"/>
</svg>
