<svg width="60" height="60" viewBox="0 0 60 60" fill="none" xmlns="http://www.w3.org/2000/svg">
<path d="M30 55C25.0555 55 20.222 53.5338 16.1108 50.7867C11.9995 48.0397 8.79521 44.1353 6.90302 39.5671C5.01083 34.9989 4.51575 29.9723 5.48038 25.1228C6.44501 20.2732 8.82603 15.8187 12.3223 12.3223C15.8187 8.82603 20.2732 6.44501 25.1228 5.48038C29.9723 4.51575 34.9989 5.01083 39.5671 6.90302C44.1353 8.79521 48.0397 11.9995 50.7867 16.1108C53.5338 20.222 55 25.0555 55 30C55 36.6304 52.3661 42.9893 47.6777 47.6777C42.9893 52.3661 36.6304 55 30 55ZM30 10C26.0444 10 22.1776 11.173 18.8886 13.3706C15.5996 15.5682 13.0362 18.6918 11.5224 22.3463C10.0087 26.0009 9.6126 30.0222 10.3843 33.9018C11.156 37.7814 13.0608 41.3451 15.8579 44.1421C18.6549 46.9392 22.2186 48.844 26.0982 49.6157C29.9778 50.3874 33.9992 49.9914 37.6537 48.4776C41.3082 46.9638 44.4318 44.4004 46.6294 41.1114C48.827 37.8224 50 33.9556 50 30C50 24.6957 47.8929 19.6086 44.1421 15.8579C40.3914 12.1071 35.3043 10 30 10Z" fill="black"/>
<path d="M52.5 32.5H30C29.337 32.5 28.7011 32.2366 28.2322 31.7678C27.7634 31.2989 27.5 30.663 27.5 30V7.5C27.5 6.83696 27.7634 6.20107 28.2322 5.73223C28.7011 5.26339 29.337 5 30 5C30.663 5 31.2989 5.26339 31.7678 5.73223C32.2366 6.20107 32.5 6.83696 32.5 7.5V27.5H52.5C53.163 27.5 53.7989 27.7634 54.2678 28.2322C54.7366 28.7011 55 29.337 55 30C55 30.663 54.7366 31.2989 54.2678 31.7678C53.7989 32.2366 53.163 32.5 52.5 32.5Z" fill="black"/>
</svg>
