<svg width="60" height="60" viewBox="0 0 60 60" fill="none" xmlns="http://www.w3.org/2000/svg">
<path d="M27.225 29.9999C26.87 29.9995 26.5192 29.9235 26.1959 29.7769C25.8726 29.6303 25.5842 29.4166 25.35 29.1499C25.1185 28.8854 24.9454 28.5749 24.842 28.2389C24.7386 27.9029 24.7073 27.5489 24.75 27.1999C25.775 19.0249 32.075 3.59994 48.65 3.59994C49.2604 3.59477 49.8516 3.81309 50.3121 4.21375C50.7726 4.6144 51.0706 5.1697 51.15 5.77494C51.7869 11.9098 49.9916 18.0496 46.15 22.8749C41.875 27.6249 35.55 29.9999 27.225 29.9999ZM46.225 8.72494C35.575 9.99994 31.65 19.8499 30.325 24.9999C34.8521 24.8496 39.1447 22.9498 42.3 19.6999C44.8186 16.6043 46.2035 12.7407 46.225 8.74994V8.72494Z" fill="black"/>
<path d="M27.2251 30H26.9251C20.6501 29.2 8.77509 24.35 8.77509 11.55C8.77065 10.9358 8.99248 10.3414 9.39824 9.88034C9.80401 9.41924 10.3653 9.12365 10.9751 9.04996C15.7316 8.57368 20.4839 9.9931 24.2001 13C26.1257 14.8655 27.6184 17.1309 28.5731 19.6363C29.5277 22.1417 29.921 24.826 29.7251 27.5C29.7251 28.163 29.4617 28.7989 28.9929 29.2677C28.524 29.7366 27.8881 30 27.2251 30ZM14.0001 14.025C15.2001 20.45 20.9001 23.2 24.5251 24.325C24.2754 21.4708 22.9958 18.805 20.9251 16.825C18.9725 15.1802 16.5471 14.1995 14.0001 14.025Z" fill="black"/>
<path d="M27.2251 40.45C26.5621 40.45 25.9262 40.1866 25.4573 39.7178C24.9885 39.2489 24.7251 38.613 24.7251 37.95V27.5C24.7251 26.837 24.9885 26.2011 25.4573 25.7322C25.9262 25.2634 26.5621 25 27.2251 25C27.8881 25 28.524 25.2634 28.9929 25.7322C29.4617 26.2011 29.7251 26.837 29.7251 27.5V37.925C29.7284 38.2554 29.6662 38.5832 29.542 38.8894C29.4179 39.1956 29.2342 39.4741 29.0018 39.709C28.7693 39.9438 28.4926 40.1301 28.1876 40.2573C27.8827 40.3845 27.5555 40.45 27.2251 40.45Z" fill="black"/>
<path d="M33.8751 56.3749H21.5751C18.9229 56.3749 16.3794 55.3213 14.504 53.446C12.6286 51.5706 11.5751 49.0271 11.5751 46.3749V37.9499C11.5751 37.2868 11.8385 36.651 12.3073 36.1821C12.7761 35.7133 13.412 35.4499 14.0751 35.4499H41.3751C42.0381 35.4499 42.674 35.7133 43.1428 36.1821C43.6117 36.651 43.8751 37.2868 43.8751 37.9499V46.3749C43.8751 49.0271 42.8215 51.5706 40.9461 53.446C39.0708 55.3213 36.5272 56.3749 33.8751 56.3749ZM16.5751 40.4499V46.3749C16.5751 47.701 17.1019 48.9727 18.0395 49.9104C18.9772 50.8481 20.249 51.3749 21.5751 51.3749H33.8751C35.2012 51.3749 36.4729 50.8481 37.4106 49.9104C38.3483 48.9727 38.8751 47.701 38.8751 46.3749V40.4499H16.5751Z" fill="black"/>
</svg>
