<svg width="60" height="60" viewBox="0 0 60 60" fill="none" xmlns="http://www.w3.org/2000/svg">
<path d="M6.07502 55.2999C5.8674 55.3243 5.65764 55.3243 5.45002 55.2999C4.81176 55.1349 4.26451 54.7244 3.92739 54.1579C3.59028 53.5914 3.49059 52.9146 3.65002 52.2749L15 6.59991C15.1369 6.04522 15.4596 5.55415 15.9145 5.20845C16.3694 4.86275 16.9289 4.68328 17.5 4.69991H45C45.3693 4.70236 45.7334 4.78657 46.0663 4.94651C46.3991 5.10644 46.6924 5.33813 46.925 5.62491C47.1607 5.91035 47.33 6.24455 47.4208 6.60339C47.5116 6.96223 47.5216 7.33675 47.45 7.69991L38.15 53.2749C38.0207 53.938 37.6333 54.5225 37.0731 54.8999C36.5128 55.2773 35.8256 55.4167 35.1625 55.2874C34.4995 55.1581 33.915 54.7707 33.5375 54.2105C33.1601 53.6502 33.0207 52.963 33.15 52.2999L41.675 9.79991H19.425L8.50002 53.3999C8.36602 53.9419 8.05444 54.4235 7.61495 54.7678C7.17546 55.1122 6.63335 55.2995 6.07502 55.2999Z" fill="black"/>
<path d="M8.34998 46.1749C7.68693 46.1749 7.05105 45.9115 6.58221 45.4427C6.11337 44.9739 5.84998 44.338 5.84998 43.6749C5.84998 43.0119 6.11337 42.376 6.58221 41.9072C7.05105 41.4383 7.68693 41.1749 8.34998 41.1749H37.55C38.213 41.1749 38.8489 41.4383 39.3177 41.9072C39.7866 42.376 40.05 43.0119 40.05 43.6749C40.05 44.338 39.7866 44.9739 39.3177 45.4427C38.8489 45.9115 38.213 46.1749 37.55 46.1749H8.34998Z" fill="black"/>
<path d="M53.9251 55.2999C53.3607 55.3192 52.8063 55.1469 52.3524 54.8109C51.8984 54.475 51.5716 53.9953 51.4251 53.4499L44.5751 28.4499C44.4883 28.1314 44.4654 27.7989 44.5077 27.4715C44.5501 27.1442 44.6569 26.8284 44.8219 26.5425C44.9869 26.2567 45.2069 26.0063 45.4692 25.8059C45.7315 25.6055 46.0309 25.459 46.3501 25.3749C46.9899 25.2071 47.6701 25.2997 48.2417 25.6324C48.8134 25.9651 49.2299 26.5107 49.4001 27.1499L56.2501 52.1499C56.4188 52.7863 56.3296 53.4635 56.0019 54.0345C55.6743 54.6056 55.1346 55.0243 54.5001 55.1999C54.314 55.2598 54.1205 55.2935 53.9251 55.2999Z" fill="black"/>
<path d="M26.575 55.2999C26.0684 55.2965 25.5749 55.1393 25.1597 54.8491C24.7445 54.5589 24.4272 54.1495 24.25 53.6749L20.825 44.5499C20.6876 44.2385 20.6153 43.9024 20.6124 43.562C20.6095 43.2217 20.6762 42.8843 20.8083 42.5707C20.9404 42.257 21.1351 41.9736 21.3806 41.7378C21.6261 41.5021 21.9171 41.3189 22.2359 41.1996C22.5546 41.0803 22.8944 41.0273 23.2343 41.0439C23.5743 41.0605 23.9073 41.1464 24.2129 41.2962C24.5185 41.4461 24.7902 41.6567 25.0116 41.9153C25.2329 42.1738 25.3991 42.4749 25.5 42.7999L28.925 51.9249C29.1541 52.5387 29.1331 53.2178 28.8666 53.8163C28.6001 54.4147 28.1094 54.8846 27.5 55.1249C27.2088 55.2525 26.8926 55.3124 26.575 55.2999Z" fill="black"/>
<path d="M34.55 23.3749H20.875C20.212 23.3749 19.5761 23.1115 19.1072 22.6427C18.6384 22.1739 18.375 21.538 18.375 20.8749C18.375 20.2119 18.6384 19.576 19.1072 19.1072C19.5761 18.6383 20.212 18.3749 20.875 18.3749H34.55C35.213 18.3749 35.8489 18.6383 36.3178 19.1072C36.7866 19.576 37.05 20.2119 37.05 20.8749C37.05 21.538 36.7866 22.1739 36.3178 22.6427C35.8489 23.1115 35.213 23.3749 34.55 23.3749Z" fill="black"/>
<path d="M32.275 32.5H18.6C17.9369 32.5 17.301 32.2366 16.8322 31.7678C16.3634 31.2989 16.1 30.663 16.1 30C16.1 29.337 16.3634 28.7011 16.8322 28.2322C17.301 27.7634 17.9369 27.5 18.6 27.5H32.275C32.938 27.5 33.5739 27.7634 34.0427 28.2322C34.5116 28.7011 34.775 29.337 34.775 30C34.775 30.663 34.5116 31.2989 34.0427 31.7678C33.5739 32.2366 32.938 32.5 32.275 32.5Z" fill="black"/>
</svg>
