<svg width="60" height="60" viewBox="0 0 60 60" fill="none" xmlns="http://www.w3.org/2000/svg">
<path d="M42.5 45H17.5C14.8478 45 12.3043 43.9464 10.4289 42.0711C8.55357 40.1957 7.5 37.6522 7.5 35V30C7.5 27.3478 8.55357 24.8043 10.4289 22.9289C12.3043 21.0536 14.8478 20 17.5 20H42.5C45.1522 20 47.6957 21.0536 49.5711 22.9289C51.4464 24.8043 52.5 27.3478 52.5 30V35C52.5 37.6522 51.4464 40.1957 49.5711 42.0711C47.6957 43.9464 45.1522 45 42.5 45ZM17.5 25C16.1739 25 14.9021 25.5268 13.9645 26.4645C13.0268 27.4021 12.5 28.6739 12.5 30V35C12.5 36.3261 13.0268 37.5979 13.9645 38.5355C14.9021 39.4732 16.1739 40 17.5 40H42.5C43.8261 40 45.0979 39.4732 46.0355 38.5355C46.9732 37.5979 47.5 36.3261 47.5 35V30C47.5 28.6739 46.9732 27.4021 46.0355 26.4645C45.0979 25.5268 43.8261 25 42.5 25H17.5Z" fill="black"/>
<path d="M39.75 52.5H20.25C19.587 52.5 18.9511 52.2366 18.4822 51.7678C18.0134 51.2989 17.75 50.663 17.75 50V42.5C17.75 41.837 18.0134 41.2011 18.4822 40.7322C18.9511 40.2634 19.587 40 20.25 40C20.913 40 21.5489 40.2634 22.0178 40.7322C22.4866 41.2011 22.75 41.837 22.75 42.5V47.5H37.25V42.5C37.25 41.837 37.5134 41.2011 37.9822 40.7322C38.4511 40.2634 39.087 40 39.75 40C40.413 40 41.0489 40.2634 41.5178 40.7322C41.9866 41.2011 42.25 41.837 42.25 42.5V50C42.25 50.663 41.9866 51.2989 41.5178 51.7678C41.0489 52.2366 40.413 52.5 39.75 52.5Z" fill="black"/>
<path d="M39.75 25C39.087 25 38.4511 24.7366 37.9822 24.2678C37.5134 23.7989 37.25 23.163 37.25 22.5V12.5H22.75V22.5C22.75 23.163 22.4866 23.7989 22.0178 24.2678C21.5489 24.7366 20.913 25 20.25 25C19.587 25 18.9511 24.7366 18.4822 24.2678C18.0134 23.7989 17.75 23.163 17.75 22.5V12.5C17.75 11.1739 18.2768 9.90215 19.2145 8.96447C20.1521 8.02678 21.4239 7.5 22.75 7.5H37.25C38.5761 7.5 39.8478 8.02678 40.7855 8.96447C41.7232 9.90215 42.25 11.1739 42.25 12.5V22.5C42.25 23.163 41.9866 23.7989 41.5178 24.2678C41.0489 24.7366 40.413 25 39.75 25Z" fill="black"/>
<path d="M30 35H20C19.337 35 18.7011 34.7366 18.2322 34.2678C17.7634 33.7989 17.5 33.163 17.5 32.5C17.5 31.837 17.7634 31.2011 18.2322 30.7322C18.7011 30.2634 19.337 30 20 30H30C30.663 30 31.2989 30.2634 31.7678 30.7322C32.2366 31.2011 32.5 31.837 32.5 32.5C32.5 33.163 32.2366 33.7989 31.7678 34.2678C31.2989 34.7366 30.663 35 30 35Z" fill="black"/>
<path d="M40 35C39.671 35.0019 39.3449 34.9389 39.0403 34.8145C38.7357 34.6901 38.4586 34.5067 38.225 34.275C38.0042 34.032 37.8266 33.753 37.7 33.45C37.5719 33.1495 37.504 32.8267 37.5 32.5C37.4878 32.3419 37.4878 32.1831 37.5 32.025C37.5232 31.8595 37.5739 31.6989 37.65 31.55C37.7048 31.3907 37.7804 31.2394 37.875 31.1C37.9673 30.9691 38.0675 30.8438 38.175 30.725C38.4128 30.4974 38.6932 30.319 39 30.2C39.6087 29.95 40.2914 29.95 40.9 30.2C41.203 30.3267 41.482 30.5042 41.725 30.725L42.025 31.1C42.1196 31.2394 42.1953 31.3907 42.25 31.55C42.3262 31.6989 42.3769 31.8595 42.4 32.025C42.4458 32.1805 42.4793 32.3393 42.5 32.5C42.5 33.1631 42.2366 33.799 41.7678 34.2678C41.299 34.7366 40.6631 35 40 35Z" fill="black"/>
</svg>
