<svg width="61" height="60" viewBox="0 0 61 60" fill="none" xmlns="http://www.w3.org/2000/svg">
<path d="M40.7251 49.7H20.1001C17.6157 49.6934 15.235 48.7036 13.4783 46.9468C11.7215 45.1901 10.7317 42.8094 10.7251 40.325V19.7C10.7251 17.2136 11.7128 14.829 13.471 13.0709C15.2291 11.3127 17.6137 10.325 20.1001 10.325H40.7251C43.2095 10.3316 45.5902 11.3214 47.3469 13.0782C49.1037 14.8349 50.0935 17.2156 50.1001 19.7V40.325C50.0935 42.8094 49.1037 45.1901 47.3469 46.9468C45.5902 48.7036 43.2095 49.6934 40.7251 49.7ZM20.1001 14.075C19.3605 14.0717 18.6275 14.2149 17.9436 14.4964C17.2596 14.778 16.6382 15.1922 16.1152 15.7152C15.5923 16.2381 15.178 16.8596 14.8965 17.5435C14.615 18.2275 14.4718 18.9604 14.4751 19.7V40.325C14.4751 41.0637 14.6206 41.7952 14.9033 42.4776C15.186 43.1601 15.6003 43.7802 16.1226 44.3025C16.645 44.8248 17.265 45.2392 17.9475 45.5218C18.63 45.8045 19.3614 45.95 20.1001 45.95H40.7251C41.4638 45.95 42.1952 45.8045 42.8777 45.5218C43.5601 45.2392 44.1802 44.8248 44.7026 44.3025C45.2249 43.7802 45.6392 43.1601 45.9219 42.4776C46.2046 41.7952 46.3501 41.0637 46.3501 40.325V19.7C46.3501 18.9613 46.2046 18.2299 45.9219 17.5474C45.6392 16.865 45.2249 16.2449 44.7026 15.7225C44.1802 15.2002 43.5601 14.7859 42.8777 14.5032C42.1952 14.2205 41.4638 14.075 40.7251 14.075H20.1001Z" fill="black"/>
<path d="M24.625 13.925C24.3779 13.9284 24.1326 13.8822 23.9036 13.7891C23.6746 13.6961 23.4665 13.5581 23.2917 13.3833C23.1169 13.2085 22.979 13.0005 22.8859 12.7715C22.7929 12.5425 22.7467 12.2972 22.75 12.05V5C22.75 4.50272 22.9476 4.02581 23.2992 3.67417C23.6509 3.32254 24.1278 3.125 24.625 3.125C25.1223 3.125 25.5992 3.32254 25.9509 3.67417C26.3025 4.02581 26.5 4.50272 26.5 5V12.05C26.5 12.5473 26.3025 13.0242 25.9509 13.3758C25.5992 13.7275 25.1223 13.925 24.625 13.925Z" fill="black"/>
<path d="M36.1752 14C35.6799 13.9935 35.2067 13.7939 34.8565 13.4437C34.5063 13.0934 34.3066 12.6203 34.3002 12.125V5C34.3002 4.50272 34.4977 4.02581 34.8493 3.67417C35.201 3.32254 35.6779 3.125 36.1752 3.125C36.6725 3.125 37.1494 3.32254 37.501 3.67417C37.8526 4.02581 38.0502 4.50272 38.0502 5V12.125C38.0502 12.6223 37.8526 13.0992 37.501 13.4508C37.1494 13.8025 36.6725 14 36.1752 14Z" fill="black"/>
<path d="M24.6249 56.875C24.1276 56.875 23.6507 56.6775 23.2991 56.3258C22.9474 55.9742 22.7499 55.4973 22.7499 55V47.825C22.7499 47.3277 22.9474 46.8508 23.2991 46.4992C23.6507 46.1476 24.1276 45.95 24.6249 45.95C25.1222 45.95 25.5991 46.1476 25.9507 46.4992C26.3023 46.8508 26.4999 47.3277 26.4999 47.825V55C26.4934 55.4953 26.2938 55.9684 25.9435 56.3187C25.5933 56.6689 25.1201 56.8685 24.6249 56.875Z" fill="black"/>
<path d="M36.1752 56.95C35.6799 56.9435 35.2067 56.7439 34.8565 56.3937C34.5063 56.0434 34.3066 55.5703 34.3002 55.075V47.825C34.3002 47.3277 34.4977 46.8508 34.8493 46.4992C35.201 46.1476 35.6779 45.95 36.1752 45.95C36.6725 45.95 37.1494 46.1476 37.501 46.4992C37.8526 46.8508 38.0502 47.3277 38.0502 47.825V55C38.0603 55.2525 38.0193 55.5044 37.9296 55.7406C37.8399 55.9768 37.7034 56.1925 37.5282 56.3746C37.3531 56.5567 37.143 56.7016 36.9105 56.8005C36.6779 56.8994 36.4278 56.9502 36.1752 56.95Z" fill="black"/>
<path d="M55.4 26.2H48.275C47.7777 26.2 47.3008 26.0025 46.9492 25.6508C46.5976 25.2992 46.4 24.8223 46.4 24.325C46.4 23.8277 46.5976 23.3508 46.9492 22.9992C47.3008 22.6476 47.7777 22.45 48.275 22.45H55.4C55.8973 22.45 56.3742 22.6476 56.7258 22.9992C57.0775 23.3508 57.275 23.8277 57.275 24.325C57.275 24.8223 57.0775 25.2992 56.7258 25.6508C56.3742 26.0025 55.8973 26.2 55.4 26.2Z" fill="black"/>
<path d="M55.4 37.75H48.15C47.6527 37.75 47.1758 37.5524 46.8242 37.2008C46.4726 36.8492 46.275 36.3723 46.275 35.875C46.275 35.3777 46.4726 34.9008 46.8242 34.5492C47.1758 34.1975 47.6527 34 48.15 34H55.4C55.8973 34 56.3742 34.1975 56.7258 34.5492C57.0775 34.9008 57.275 35.3777 57.275 35.875C57.275 36.3723 57.0775 36.8492 56.7258 37.2008C56.3742 37.5524 55.8973 37.75 55.4 37.75Z" fill="black"/>
<path d="M12.65 26.2H5.40004C4.96158 26.1277 4.56307 25.902 4.27555 25.5631C3.98803 25.2243 3.8302 24.7944 3.8302 24.35C3.8302 23.9056 3.98803 23.4757 4.27555 23.1369C4.56307 22.798 4.96158 22.5723 5.40004 22.5H12.65C13.1473 22.5 13.6242 22.6975 13.9759 23.0492C14.3275 23.4008 14.525 23.8777 14.525 24.375C14.525 24.8723 14.3275 25.3492 13.9759 25.7008C13.6242 26.0525 13.1473 26.25 12.65 26.25V26.2Z" fill="black"/>
<path d="M12.65 37.75H5.40002C4.90274 37.75 4.42583 37.5524 4.0742 37.2008C3.72257 36.8492 3.52502 36.3723 3.52502 35.875C3.52502 35.3777 3.72257 34.9008 4.0742 34.5492C4.42583 34.1975 4.90274 34 5.40002 34H12.65C13.1473 34 13.6242 34.1975 13.9758 34.5492C14.3275 34.9008 14.525 35.3777 14.525 35.875C14.525 36.3723 14.3275 36.8492 13.9758 37.2008C13.6242 37.5524 13.1473 37.75 12.65 37.75Z" fill="black"/>
</svg>
