<svg width="60" height="60" viewBox="0 0 60 60" fill="none" xmlns="http://www.w3.org/2000/svg">
<path d="M48.2999 40.85H11.6999C9.55825 40.85 7.50435 39.9993 5.98999 38.4849C4.47563 36.9706 3.62488 34.9167 3.62488 32.775V20C3.6446 17.8691 4.50326 15.8318 6.01478 14.3297C7.5263 12.8275 9.56889 11.9815 11.6999 11.975H48.2999C50.4309 11.9815 52.4735 12.8275 53.985 14.3297C55.4965 15.8318 56.3552 17.8691 56.3749 20V32.7C56.3848 33.7668 56.1832 34.8249 55.7819 35.8132C55.3805 36.8016 54.7873 37.7007 54.0364 38.4585C53.2856 39.2163 52.3921 39.8178 51.4075 40.2283C50.4228 40.6388 49.3666 40.8501 48.2999 40.85ZM11.6999 16.975C10.8929 16.9749 10.1183 17.292 9.54301 17.8579C8.96776 18.4238 8.638 19.1932 8.62488 20V32.7C8.62488 33.5156 8.94885 34.2977 9.52553 34.8744C10.1022 35.4511 10.8843 35.775 11.6999 35.775H48.2999C49.1154 35.775 49.8976 35.4511 50.4742 34.8744C51.0509 34.2977 51.3749 33.5156 51.3749 32.7V20C51.3782 19.5941 51.3011 19.1916 51.148 18.8156C50.995 18.4396 50.769 18.0977 50.4831 17.8095C50.1973 17.5213 49.8572 17.2926 49.4824 17.1365C49.1077 16.9804 48.7058 16.9 48.2999 16.9L11.6999 16.975Z" fill="black"/>
<path d="M41.9499 33.7C40.5111 33.7 39.1045 33.2734 37.9082 32.474C36.7118 31.6746 35.7793 30.5384 35.2287 29.209C34.6781 27.8797 34.534 26.417 34.8147 25.0057C35.0954 23.5945 35.7883 22.2983 36.8057 21.2808C37.8232 20.2634 39.1194 19.5705 40.5306 19.2898C41.9419 19.0091 43.4046 19.1532 44.7339 19.7038C46.0633 20.2544 47.1995 21.1869 47.9989 22.3833C48.7983 23.5796 49.2249 24.9862 49.2249 26.425C49.2249 27.3804 49.0367 28.3264 48.6711 29.209C48.3055 30.0917 47.7697 30.8937 47.0941 31.5692C46.4186 32.2448 45.6166 32.7806 44.7339 33.1463C43.8513 33.5119 42.9053 33.7 41.9499 33.7ZM41.9499 24.15C41.5 24.15 41.0601 24.2835 40.686 24.5334C40.3119 24.7834 40.0203 25.1387 39.8481 25.5544C39.6759 25.9701 39.6309 26.4276 39.7186 26.8689C39.8064 27.3102 40.0231 27.7155 40.3413 28.0337C40.6594 28.3519 41.0648 28.5685 41.5061 28.6563C41.9474 28.7441 42.4048 28.699 42.8205 28.5269C43.2362 28.3547 43.5915 28.0631 43.8415 27.689C44.0915 27.3148 44.2249 26.875 44.2249 26.425C44.2249 25.8217 43.9852 25.243 43.5586 24.8164C43.132 24.3897 42.5533 24.15 41.9499 24.15Z" fill="black"/>
<path d="M29.9999 28.925H13.2749C12.6119 28.925 11.976 28.6617 11.5071 28.1928C11.0383 27.724 10.7749 27.0881 10.7749 26.425C10.7749 25.762 11.0383 25.1261 11.5071 24.6573C11.976 24.1884 12.6119 23.925 13.2749 23.925H29.9999C30.6629 23.925 31.2988 24.1884 31.7677 24.6573C32.2365 25.1261 32.4999 25.762 32.4999 26.425C32.4999 27.0881 32.2365 27.724 31.7677 28.1928C31.2988 28.6617 30.6629 28.925 29.9999 28.925Z" fill="black"/>
<path d="M16.3499 48.0251C15.6868 48.0251 15.0509 47.7617 14.5821 47.2929C14.1132 46.824 13.8499 46.1881 13.8499 45.5251V38.3501C13.8499 37.6871 14.1132 37.0512 14.5821 36.5823C15.0509 36.1135 15.6868 35.8501 16.3499 35.8501C17.0129 35.8501 17.6488 36.1135 18.1176 36.5823C18.5865 37.0512 18.8499 37.6871 18.8499 38.3501V45.5251C18.8499 46.1881 18.5865 46.824 18.1176 47.2929C17.6488 47.7617 17.0129 48.0251 16.3499 48.0251Z" fill="black"/>
<path d="M43.6499 48.0251C42.9869 48.0251 42.351 47.7617 41.8821 47.2929C41.4133 46.824 41.1499 46.1881 41.1499 45.5251V38.3501C41.1499 37.6871 41.4133 37.0512 41.8821 36.5823C42.351 36.1135 42.9869 35.8501 43.6499 35.8501C44.3129 35.8501 44.9488 36.1135 45.4177 36.5823C45.8865 37.0512 46.1499 37.6871 46.1499 38.3501V45.5251C46.1499 46.1881 45.8865 46.824 45.4177 47.2929C44.9488 47.7617 44.3129 48.0251 43.6499 48.0251Z" fill="black"/>
</svg>
