<svg width="61" height="60" viewBox="0 0 61 60" fill="none" xmlns="http://www.w3.org/2000/svg">
<path d="M25.1999 27.925H18.4249C17.501 27.925 16.6145 27.5597 15.9589 26.9087C15.3032 26.2577 14.9315 25.3739 14.9249 24.45V17.675C14.9249 16.7467 15.2937 15.8565 15.9501 15.2001C16.6064 14.5437 17.4967 14.175 18.4249 14.175H25.1999C26.1238 14.1816 27.0077 14.5532 27.6587 15.2089C28.3096 15.8646 28.6749 16.751 28.6749 17.675V24.45C28.6749 25.3716 28.3088 26.2555 27.6571 26.9072C27.0054 27.5589 26.1216 27.925 25.1999 27.925ZM18.6749 24.175H24.9249V17.925H18.6749V24.175Z" fill="black"/>
<path d="M42.8 27.925H36C35.0784 27.925 34.1945 27.5589 33.5428 26.9072C32.8911 26.2555 32.525 25.3716 32.525 24.45V17.675C32.525 16.751 32.8903 15.8646 33.5413 15.2089C34.1923 14.5532 35.0761 14.1816 36 14.175H42.8C43.7239 14.1816 44.6078 14.5532 45.2587 15.2089C45.9097 15.8646 46.275 16.751 46.275 17.675V24.45C46.275 25.3716 45.9089 26.2555 45.2572 26.9072C44.6055 27.5589 43.7216 27.925 42.8 27.925ZM36.275 24.175H42.525V17.925H36.275V24.175Z" fill="black"/>
<path d="M25.1999 45.825H18.4249C17.4967 45.825 16.6064 45.4563 15.9501 44.7999C15.2937 44.1435 14.9249 43.2533 14.9249 42.325V35.55C14.9315 34.6261 15.3032 33.7423 15.9589 33.0913C16.6145 32.4403 17.501 32.075 18.4249 32.075H25.1999C26.1216 32.075 27.0054 32.4411 27.6571 33.0928C28.3088 33.7445 28.6749 34.6284 28.6749 35.55V42.325C28.6749 43.249 28.3096 44.1354 27.6587 44.7911C27.0077 45.4468 26.1238 45.8184 25.1999 45.825ZM18.6749 42.075H24.9249V35.825H18.6749V42.075Z" fill="black"/>
<path d="M42.8 46.1H36C35.5437 46.1 35.0918 46.0101 34.6702 45.8355C34.2486 45.6608 33.8655 45.4049 33.5428 45.0822C33.2201 44.7595 32.9642 44.3764 32.7895 43.9548C32.6149 43.5332 32.525 43.0813 32.525 42.625V35.825C32.525 34.9033 32.8911 34.0195 33.5428 33.3678C34.1945 32.7161 35.0784 32.35 36 32.35H42.8C43.7196 32.3565 44.5997 32.7247 45.25 33.375C45.9003 34.0253 46.2685 34.9054 46.275 35.825V42.625C46.275 43.0813 46.1851 43.5332 46.0105 43.9548C45.8359 44.3764 45.5799 44.7595 45.2572 45.0822C44.9345 45.4049 44.5515 45.6608 44.1298 45.8355C43.7082 46.0101 43.2564 46.1 42.8 46.1ZM36.275 42.35H42.525V36.1H36.275V42.35Z" fill="black"/>
<path d="M8.09998 20.625C7.60471 20.6185 7.13155 20.4189 6.78131 20.0687C6.43107 19.7184 6.23145 19.2453 6.22498 18.75V7.5C6.23145 7.00473 6.43107 6.53157 6.78131 6.18133C7.13155 5.8311 7.60471 5.63147 8.09998 5.625H19.35C19.8473 5.625 20.3242 5.82254 20.6758 6.17417C21.0274 6.52581 21.225 7.00272 21.225 7.5C21.225 7.99728 21.0274 8.4742 20.6758 8.82583C20.3242 9.17746 19.8473 9.375 19.35 9.375H9.97498V18.75C9.9685 19.2453 9.76888 19.7184 9.41864 20.0687C9.0684 20.4189 8.59524 20.6185 8.09998 20.625Z" fill="black"/>
<path d="M53.1 20.625C52.6047 20.6185 52.1315 20.4189 51.7813 20.0687C51.4311 19.7184 51.2314 19.2453 51.225 18.75V9.375H41.85C41.3527 9.375 40.8758 9.17746 40.5242 8.82583C40.1725 8.4742 39.975 7.99728 39.975 7.5C39.975 7.00272 40.1725 6.52581 40.5242 6.17417C40.8758 5.82254 41.3527 5.625 41.85 5.625H53.1C53.5952 5.63147 54.0684 5.8311 54.4186 6.18133C54.7689 6.53157 54.9685 7.00473 54.975 7.5V18.75C54.9685 19.2453 54.7689 19.7184 54.4186 20.0687C54.0684 20.4189 53.5952 20.6185 53.1 20.625Z" fill="black"/>
<path d="M53.1 54.375H41.85C41.3527 54.375 40.8758 54.1775 40.5242 53.8258C40.1725 53.4742 39.975 52.9973 39.975 52.5C39.975 52.0027 40.1725 51.5258 40.5242 51.1742C40.8758 50.8225 41.3527 50.625 41.85 50.625H51.225V41.25C51.225 40.7527 51.4225 40.2758 51.7741 39.9242C52.1258 39.5725 52.6027 39.375 53.1 39.375C53.5972 39.375 54.0742 39.5725 54.4258 39.9242C54.7774 40.2758 54.975 40.7527 54.975 41.25V52.5C54.9685 52.9953 54.7689 53.4684 54.4186 53.8187C54.0684 54.1689 53.5952 54.3685 53.1 54.375Z" fill="black"/>
<path d="M19.35 54.375H8.09998C7.60471 54.3685 7.13155 54.1689 6.78131 53.8187C6.43107 53.4684 6.23145 52.9953 6.22498 52.5V41.25C6.22498 40.7527 6.42252 40.2758 6.77415 39.9242C7.12578 39.5725 7.60269 39.375 8.09998 39.375C8.59726 39.375 9.07417 39.5725 9.4258 39.9242C9.77743 40.2758 9.97498 40.7527 9.97498 41.25V50.625H19.35C19.8473 50.625 20.3242 50.8225 20.6758 51.1742C21.0274 51.5258 21.225 52.0027 21.225 52.5C21.225 52.9973 21.0274 53.4742 20.6758 53.8258C20.3242 54.1775 19.8473 54.375 19.35 54.375Z" fill="black"/>
</svg>
