<svg width="60" height="60" viewBox="0 0 60 60" fill="none" xmlns="http://www.w3.org/2000/svg">
<path d="M49.725 56.25H10.275C8.21294 56.25 6.23534 55.4308 4.77724 53.9728C3.31915 52.5147 2.5 50.5371 2.5 48.475V36.525C2.5 34.4629 3.31915 32.4853 4.77724 31.0272C6.23534 29.5692 8.21294 28.75 10.275 28.75H49.725C51.7871 28.75 53.7647 29.5692 55.2228 31.0272C56.6809 32.4853 57.5 34.4629 57.5 36.525V48.475C57.5 50.5371 56.6809 52.5147 55.2228 53.9728C53.7647 55.4308 51.7871 56.25 49.725 56.25ZM10.275 33.75C9.53902 33.75 8.83319 34.0424 8.31278 34.5628C7.79237 35.0832 7.5 35.789 7.5 36.525V48.475C7.5 49.211 7.79237 49.9168 8.31278 50.4372C8.83319 50.9576 9.53902 51.25 10.275 51.25H49.725C50.461 51.25 51.1668 50.9576 51.6872 50.4372C52.2076 49.9168 52.5 49.211 52.5 48.475V36.525C52.5 35.789 52.2076 35.0832 51.6872 34.5628C51.1668 34.0424 50.461 33.75 49.725 33.75H10.275Z" fill="black"/>
<path d="M50 26.25H30C29.337 26.25 28.7011 25.9866 28.2322 25.5178C27.7634 25.0489 27.5 24.413 27.5 23.75V6.25C27.5 5.58696 27.7634 4.95107 28.2322 4.48223C28.7011 4.01339 29.337 3.75 30 3.75H50C50.663 3.75 51.2989 4.01339 51.7678 4.48223C52.2366 4.95107 52.5 5.58696 52.5 6.25V23.75C52.5 24.413 52.2366 25.0489 51.7678 25.5178C51.2989 25.9866 50.663 26.25 50 26.25ZM32.5 21.25H47.5V8.75H32.5V21.25Z" fill="black"/>
<path d="M40 33.75C39.337 33.75 38.7011 33.4866 38.2322 33.0178C37.7634 32.5489 37.5 31.913 37.5 31.25V16.25C37.5 15.587 37.7634 14.9511 38.2322 14.4822C38.7011 14.0134 39.337 13.75 40 13.75C40.663 13.75 41.2989 14.0134 41.7678 14.4822C42.2366 14.9511 42.5 15.587 42.5 16.25V31.25C42.5 31.913 42.2366 32.5489 41.7678 33.0178C41.2989 33.4866 40.663 33.75 40 33.75Z" fill="black"/>
</svg>
