<svg width="60" height="60" viewBox="0 0 60 60" fill="none" xmlns="http://www.w3.org/2000/svg">
<path d="M49.075 56.325C48.746 56.3269 48.4198 56.2639 48.1152 56.1394C47.8106 56.015 47.5336 55.8317 47.3 55.6L39.525 47.825L31.775 55.6C31.5426 55.8343 31.2661 56.0203 30.9614 56.1472C30.6568 56.2742 30.33 56.3395 30 56.3395C29.67 56.3395 29.3432 56.2742 29.0385 56.1472C28.7339 56.0203 28.4574 55.8343 28.225 55.6L20.475 47.825L12.7 55.6C12.3533 55.9461 11.9126 56.1828 11.4326 56.2806C10.9526 56.3784 10.4544 56.333 9.99998 56.15C9.5395 55.9608 9.14597 55.6385 8.86983 55.2243C8.59368 54.8101 8.44749 54.3228 8.44998 53.825V6.17502C8.44749 5.6772 8.59368 5.18997 8.86983 4.77575C9.14597 4.36153 9.5395 4.03919 9.99998 3.85002C10.4576 3.66169 10.9609 3.61342 11.446 3.71133C11.9311 3.80924 12.3762 4.04892 12.725 4.40002L20.475 12.175L28.225 4.40002C28.4574 4.1657 28.7339 3.97971 29.0385 3.85279C29.3432 3.72587 29.67 3.66052 30 3.66052C30.33 3.66052 30.6568 3.72587 30.9614 3.85279C31.2661 3.97971 31.5426 4.1657 31.775 4.40002L39.525 12.175L47.3 4.40002C47.6466 4.05389 48.0873 3.81724 48.5674 3.71946C49.0474 3.62168 49.5455 3.66708 50 3.85002C50.4605 4.03919 50.854 4.36153 51.1301 4.77575C51.4063 5.18997 51.5525 5.6772 51.55 6.17502V53.825C51.5525 54.3228 51.4063 54.8101 51.1301 55.2243C50.854 55.6385 50.4605 55.9608 50 56.15C49.7055 56.2664 49.3916 56.3258 49.075 56.325ZM20.475 41.8C21.1308 41.8028 21.7593 42.0632 22.225 42.525L30 50.3L37.775 42.5C38.2406 42.0382 38.8691 41.7778 39.525 41.775C39.854 41.7731 40.1802 41.8362 40.4847 41.9606C40.7893 42.085 41.0664 42.2683 41.3 42.5L46.575 47.775V12.2L41.3 17.5C40.8316 17.9656 40.1979 18.227 39.5375 18.227C38.877 18.227 38.2434 17.9656 37.775 17.5L30 9.70002L22.225 17.5C21.7593 17.9619 21.1308 18.2223 20.475 18.225C20.146 18.2269 19.8198 18.1639 19.5152 18.0394C19.2106 17.915 18.9336 17.7317 18.7 17.5L13.425 12.2V47.8L18.7 42.5C19.1758 42.0412 19.814 41.7895 20.475 41.8Z" fill="black"/>
</svg>
