<svg width="61" height="60" viewBox="0 0 61 60" fill="none" xmlns="http://www.w3.org/2000/svg">
<path d="M47.1501 39.15C46.6551 39.1392 46.1822 38.9429 45.8251 38.6C45.474 38.2484 45.2767 37.7718 45.2767 37.275C45.2767 36.7781 45.474 36.3015 45.8251 35.95L51.8501 30L45.9751 24.05C45.6439 23.6945 45.4636 23.2244 45.4721 22.7387C45.4807 22.2529 45.6775 21.7894 46.021 21.4459C46.3646 21.1024 46.828 20.9056 47.3138 20.897C47.7995 20.8885 48.2696 21.0688 48.6251 21.4L55.8001 28.6C56.1512 28.9515 56.3484 29.4281 56.3484 29.925C56.3484 30.4218 56.1512 30.8984 55.8001 31.25L48.4501 38.6C48.102 38.9413 47.6374 39.1378 47.1501 39.15Z" fill="black"/>
<path d="M14.3001 39.15C13.8029 39.1495 13.3264 38.9517 12.9751 38.6L5.80006 31.4C5.44893 31.0484 5.25171 30.5719 5.25171 30.075C5.25171 29.5781 5.44893 29.1015 5.80006 28.75L13.1251 21.4C13.4765 21.0453 13.9544 20.8447 14.4537 20.8423C14.953 20.84 15.4328 21.0361 15.7876 21.3875C16.1423 21.7389 16.3429 22.2168 16.3452 22.7161C16.3476 23.2155 16.1515 23.6953 15.8001 24.05L9.75006 30L15.6251 35.875C15.9762 36.2265 16.1734 36.7031 16.1734 37.2C16.1734 37.6969 15.9762 38.1734 15.6251 38.525C15.2799 38.8955 14.8055 39.1192 14.3001 39.15Z" fill="black"/>
<path d="M30.8 39.15C28.9903 39.15 27.2213 38.6133 25.7166 37.6079C24.2119 36.6025 23.0391 35.1735 22.3465 33.5015C21.654 31.8296 21.4728 29.9898 21.8258 28.2149C22.1789 26.44 23.0504 24.8096 24.33 23.53C25.6097 22.2503 27.24 21.3788 29.015 21.0258C30.7899 20.6727 32.6296 20.8539 34.3016 21.5465C35.9735 22.239 37.4026 23.4118 38.408 24.9165C39.4134 26.4212 39.95 28.1903 39.95 30C39.95 32.4267 38.986 34.7541 37.2701 36.47C35.5541 38.186 33.2268 39.15 30.8 39.15ZM30.8 24.6C29.732 24.6 28.688 24.9167 27.8 25.51C26.9119 26.1034 26.2198 26.9468 25.8111 27.9335C25.4024 28.9202 25.2954 30.006 25.5038 31.0535C25.7121 32.101 26.2264 33.0632 26.9817 33.8184C27.7369 34.5736 28.699 35.0879 29.7465 35.2962C30.794 35.5046 31.8798 35.3976 32.8665 34.9889C33.8532 34.5802 34.6966 33.8881 35.29 33.0001C35.8833 32.112 36.2 31.068 36.2 30C36.2 28.5678 35.6311 27.1943 34.6184 26.1816C33.6057 25.1689 32.2322 24.6 30.8 24.6Z" fill="black"/>
</svg>
