<svg width="61" height="60" viewBox="0 0 61 60" fill="none" xmlns="http://www.w3.org/2000/svg">
<path d="M16.7999 23.125C17.8355 23.125 18.6749 22.2855 18.6749 21.25C18.6749 20.2145 17.8355 19.375 16.7999 19.375C15.7644 19.375 14.9249 20.2145 14.9249 21.25C14.9249 22.2855 15.7644 23.125 16.7999 23.125Z" fill="black"/>
<path d="M24.9248 23.15C24.547 23.1549 24.1762 23.0471 23.86 22.8402C23.5437 22.6334 23.2963 22.3369 23.1494 21.9887C23.0025 21.6405 22.9628 21.2565 23.0353 20.8856C23.1078 20.5147 23.2893 20.1739 23.5565 19.9067C23.8237 19.6394 24.1645 19.458 24.5354 19.3855C24.9063 19.313 25.2904 19.3527 25.6386 19.4996C25.9867 19.6465 26.2832 19.8939 26.4901 20.2101C26.6969 20.5264 26.8048 20.8971 26.7998 21.275C26.7934 21.7703 26.5937 22.2434 26.2435 22.5937C25.8933 22.9439 25.4201 23.1435 24.9248 23.15Z" fill="black"/>
<path d="M44.2999 23.125H34.2999C33.8026 23.125 33.3257 22.9275 32.9741 22.5758C32.6225 22.2242 32.4249 21.7473 32.4249 21.25C32.4249 20.7527 32.6225 20.2758 32.9741 19.9242C33.3257 19.5725 33.8026 19.375 34.2999 19.375H44.2999C44.7972 19.375 45.2741 19.5725 45.6258 19.9242C45.9774 20.2758 46.1749 20.7527 46.1749 21.25C46.1749 21.7473 45.9774 22.2242 45.6258 22.5758C45.2741 22.9275 44.7972 23.125 44.2999 23.125Z" fill="black"/>
<path d="M41.95 55H18.45C14.9399 54.9868 11.5773 53.5866 9.09534 51.1046C6.61333 48.6226 5.21312 45.2601 5.19995 41.75V18.25C5.21312 14.7399 6.61333 11.3774 9.09534 8.89539C11.5773 6.41338 14.9399 5.01317 18.45 5H41.95C45.46 5.01317 48.8226 6.41338 51.3046 8.89539C53.7866 11.3774 55.1868 14.7399 55.1999 18.25V41.75C55.1868 45.2601 53.7866 48.6226 51.3046 51.1046C48.8226 53.5866 45.46 54.9868 41.95 55ZM18.45 8.7C15.9171 8.7 13.4881 9.70616 11.6971 11.4971C9.90611 13.2881 8.89995 15.7172 8.89995 18.25V41.75C8.89995 44.2828 9.90611 46.7119 11.6971 48.5029C13.4881 50.2938 15.9171 51.3 18.45 51.3H41.95C44.4828 51.3 46.9118 50.2938 48.7028 48.5029C50.4938 46.7119 51.4999 44.2828 51.4999 41.75V18.25C51.4999 15.7172 50.4938 13.2881 48.7028 11.4971C46.9118 9.70616 44.4828 8.7 41.95 8.7H18.45Z" fill="black"/>
<path d="M16.7999 40.625C17.8355 40.625 18.6749 39.7855 18.6749 38.75C18.6749 37.7145 17.8355 36.875 16.7999 36.875C15.7644 36.875 14.9249 37.7145 14.9249 38.75C14.9249 39.7855 15.7644 40.625 16.7999 40.625Z" fill="black"/>
<path d="M24.9248 40.65C24.547 40.6549 24.1762 40.5471 23.86 40.3402C23.5437 40.1334 23.2963 39.8369 23.1494 39.4887C23.0025 39.1405 22.9628 38.7565 23.0353 38.3856C23.1078 38.0147 23.2893 37.6739 23.5565 37.4067C23.8237 37.1394 24.1645 36.958 24.5354 36.8855C24.9063 36.813 25.2904 36.8527 25.6386 36.9996C25.9867 37.1465 26.2832 37.3939 26.4901 37.7101C26.6969 38.0264 26.8048 38.3971 26.7998 38.775C26.7934 39.2703 26.5937 39.7434 26.2435 40.0937C25.8933 40.4439 25.4201 40.6435 24.9248 40.65Z" fill="black"/>
<path d="M44.2999 40.625H34.2999C33.8026 40.625 33.3257 40.4275 32.9741 40.0758C32.6225 39.7242 32.4249 39.2473 32.4249 38.75C32.4249 38.2527 32.6225 37.7758 32.9741 37.4242C33.3257 37.0725 33.8026 36.875 34.2999 36.875H44.2999C44.7972 36.875 45.2741 37.0725 45.6258 37.4242C45.9774 37.7758 46.1749 38.2527 46.1749 38.75C46.1749 39.2473 45.9774 39.7242 45.6258 40.0758C45.2741 40.4275 44.7972 40.625 44.2999 40.625Z" fill="black"/>
<path d="M52.6999 31.875H7.0249C6.52762 31.875 6.05071 31.6775 5.69908 31.3258C5.34745 30.9742 5.1499 30.4973 5.1499 30C5.1499 29.5027 5.34745 29.0258 5.69908 28.6742C6.05071 28.3225 6.52762 28.125 7.0249 28.125H52.6999C53.1972 28.125 53.6741 28.3225 54.0257 28.6742C54.3774 29.0258 54.5749 29.5027 54.5749 30C54.5749 30.4973 54.3774 30.9742 54.0257 31.3258C53.6741 31.6775 53.1972 31.875 52.6999 31.875Z" fill="black"/>
</svg>
