<svg width="60" height="60" viewBox="0 0 60 60" fill="none" xmlns="http://www.w3.org/2000/svg">
<path d="M16.6 23.125C17.6355 23.125 18.475 22.2855 18.475 21.25C18.475 20.2145 17.6355 19.375 16.6 19.375C15.5644 19.375 14.725 20.2145 14.725 21.25C14.725 22.2855 15.5644 23.125 16.6 23.125Z" fill="black"/>
<path d="M24.7251 23.15C24.3473 23.1549 23.9765 23.0471 23.6602 22.8402C23.344 22.6334 23.0966 22.3369 22.9497 21.9887C22.8028 21.6405 22.7631 21.2565 22.8356 20.8856C22.9081 20.5147 23.0896 20.1739 23.3568 19.9067C23.624 19.6394 23.9648 19.458 24.3357 19.3855C24.7066 19.313 25.0907 19.3527 25.4388 19.4996C25.787 19.6465 26.0835 19.8939 26.2904 20.2101C26.4972 20.5264 26.6051 20.8971 26.6001 21.275C26.5937 21.7703 26.394 22.2434 26.0438 22.5937C25.6936 22.9439 25.2204 23.1435 24.7251 23.15Z" fill="black"/>
<path d="M44.1 23.125H34.1C33.6027 23.125 33.1258 22.9275 32.7741 22.5758C32.4225 22.2242 32.225 21.7473 32.225 21.25C32.225 20.7527 32.4225 20.2758 32.7741 19.9242C33.1258 19.5725 33.6027 19.375 34.1 19.375H44.1C44.5973 19.375 45.0742 19.5725 45.4258 19.9242C45.7774 20.2758 45.975 20.7527 45.975 21.25C45.975 21.7473 45.7774 22.2242 45.4258 22.5758C45.0742 22.9275 44.5973 23.125 44.1 23.125Z" fill="black"/>
<path d="M41.75 55H18.25C14.7399 54.9868 11.3774 53.5866 8.89539 51.1046C6.41338 48.6226 5.01317 45.2601 5 41.75V18.25C5.01317 14.7399 6.41338 11.3774 8.89539 8.89539C11.3774 6.41338 14.7399 5.01317 18.25 5H41.75C45.2601 5.01317 48.6226 6.41338 51.1046 8.89539C53.5866 11.3774 54.9868 14.7399 55 18.25V41.75C54.9868 45.2601 53.5866 48.6226 51.1046 51.1046C48.6226 53.5866 45.2601 54.9868 41.75 55ZM18.25 8.7C15.7172 8.7 13.2881 9.70616 11.4971 11.4971C9.70616 13.2881 8.7 15.7172 8.7 18.25V41.75C8.7 44.2828 9.70616 46.7119 11.4971 48.5029C13.2881 50.2938 15.7172 51.3 18.25 51.3H41.75C44.2828 51.3 46.7119 50.2938 48.5029 48.5029C50.2938 46.7119 51.3 44.2828 51.3 41.75V18.25C51.3 15.7172 50.2938 13.2881 48.5029 11.4971C46.7119 9.70616 44.2828 8.7 41.75 8.7H18.25Z" fill="black"/>
<path d="M16.6 40.625C17.6355 40.625 18.475 39.7855 18.475 38.75C18.475 37.7145 17.6355 36.875 16.6 36.875C15.5644 36.875 14.725 37.7145 14.725 38.75C14.725 39.7855 15.5644 40.625 16.6 40.625Z" fill="black"/>
<path d="M24.7251 40.65C24.3473 40.6549 23.9765 40.5471 23.6602 40.3402C23.344 40.1334 23.0966 39.8369 22.9497 39.4887C22.8028 39.1405 22.7631 38.7565 22.8356 38.3856C22.9081 38.0147 23.0896 37.6739 23.3568 37.4067C23.624 37.1394 23.9648 36.958 24.3357 36.8855C24.7066 36.813 25.0907 36.8527 25.4388 36.9996C25.787 37.1465 26.0835 37.3939 26.2904 37.7101C26.4972 38.0264 26.6051 38.3971 26.6001 38.775C26.5937 39.2703 26.394 39.7434 26.0438 40.0937C25.6936 40.4439 25.2204 40.6435 24.7251 40.65Z" fill="black"/>
<path d="M44.1 40.625H34.1C33.6027 40.625 33.1258 40.4275 32.7741 40.0758C32.4225 39.7242 32.225 39.2473 32.225 38.75C32.225 38.2527 32.4225 37.7758 32.7741 37.4242C33.1258 37.0725 33.6027 36.875 34.1 36.875H44.1C44.5973 36.875 45.0742 37.0725 45.4258 37.4242C45.7774 37.7758 45.975 38.2527 45.975 38.75C45.975 39.2473 45.7774 39.7242 45.4258 40.0758C45.0742 40.4275 44.5973 40.625 44.1 40.625Z" fill="black"/>
</svg>
