<svg width="61" height="60" viewBox="0 0 61 60" fill="none" xmlns="http://www.w3.org/2000/svg">
<path d="M30.4001 56.65C29.3985 56.6454 28.4104 56.4188 27.507 55.9865C26.6035 55.5542 25.8071 54.927 25.1751 54.15L22.9751 51.65C22.6598 51.282 22.2626 50.9931 21.8154 50.8064C21.3682 50.6197 20.8835 50.5404 20.4001 50.575L17.0251 50.875C16.0317 50.9588 15.032 50.8256 14.0952 50.4845C13.1585 50.1435 12.3071 49.6028 11.6001 48.9C10.8969 48.1923 10.3543 47.3414 10.0092 46.4053C9.66406 45.4692 9.52454 44.4698 9.60009 43.475L9.87509 40C9.88933 39.5277 9.79796 39.0582 9.60766 38.6257C9.41736 38.1932 9.13292 37.8086 8.77509 37.5L6.27509 35.325C5.51228 34.682 4.89913 33.8801 4.47851 32.9755C4.05789 32.0708 3.83997 31.0852 3.83997 30.0875C3.83997 29.0898 4.05789 28.1042 4.47851 27.1995C4.89913 26.2949 5.51228 25.493 6.27509 24.85L8.77509 22.65C9.14934 22.3245 9.44003 21.914 9.62274 21.4528C9.80544 20.9917 9.87484 20.4935 9.82509 20L9.52509 16.625C9.44795 15.6322 9.58429 14.6343 9.92496 13.6986C10.2656 12.7628 10.8027 11.9109 11.5001 11.2C12.2039 10.4913 13.0541 9.94505 13.9912 9.59956C14.9284 9.25408 15.9297 9.1177 16.9251 9.2L20.4001 9.475C20.8734 9.49663 21.3453 9.40861 21.7789 9.2178C22.2126 9.02699 22.5963 8.73855 22.9001 8.375L25.0751 5.875C25.7105 5.10193 26.5076 4.47747 27.4103 4.04556C28.3131 3.61364 29.2994 3.38475 30.3001 3.375C31.3017 3.37958 32.2897 3.60618 33.1932 4.03846C34.0967 4.47075 34.8931 5.09798 35.5251 5.875L37.7251 8.375C38.0557 8.74964 38.4708 9.04024 38.9359 9.22281C39.401 9.40539 39.9029 9.47469 40.4001 9.425L43.7751 9.125C44.7841 9.02822 45.802 9.15575 46.7559 9.49844C47.7098 9.84113 48.5761 10.3905 49.2929 11.1072C50.0096 11.824 50.559 12.6903 50.9017 13.6442C51.2443 14.5981 51.3719 15.616 51.2751 16.625L50.9251 20C50.9109 20.4723 51.0022 20.9418 51.1925 21.3743C51.3828 21.8068 51.6673 22.1914 52.0251 22.5L54.5251 24.675C55.2879 25.318 55.9011 26.1199 56.3217 27.0245C56.7423 27.9292 56.9602 28.9148 56.9602 29.9125C56.9602 30.9102 56.7423 31.8958 56.3217 32.8005C55.9011 33.7051 55.2879 34.507 54.5251 35.15L52.0251 37.35C51.6508 37.6755 51.3602 38.086 51.1775 38.5472C50.9947 39.0083 50.9254 39.5065 50.9751 40L51.2751 43.375C51.3522 44.3678 51.2159 45.3657 50.8752 46.3014C50.5346 47.2372 49.9975 48.0891 49.3001 48.8C48.5963 49.5087 47.7461 50.0549 46.809 50.4004C45.8718 50.7459 44.8705 50.8823 43.8751 50.8L40.4001 50.525C39.9278 50.5108 39.4583 50.6021 39.0258 50.7924C38.5933 50.9827 38.2087 51.2672 37.9001 51.625L35.7251 54.125C35.0897 54.8981 34.2925 55.5225 33.3898 55.9544C32.4871 56.3864 31.5008 56.6152 30.5001 56.625L30.4001 56.65ZM20.6501 46.825C21.6505 46.8364 22.6363 47.0661 23.5387 47.4979C24.4412 47.9297 25.2385 48.5532 25.8751 49.325L28.0751 51.825C28.3668 52.1705 28.7305 52.4479 29.1408 52.6379C29.5511 52.828 29.998 52.9259 30.4501 52.925C30.9262 52.9496 31.4014 52.8604 31.8361 52.6648C32.2709 52.4691 32.6528 52.1727 32.9501 51.8L35.1251 49.3C35.8203 48.4485 36.7103 47.7768 37.7198 47.3416C38.7293 46.9065 39.8287 46.7207 40.9251 46.8L44.3001 47.05C44.7578 47.1001 45.221 47.0451 45.6542 46.8892C46.0874 46.7332 46.4794 46.4804 46.8001 46.15C47.1246 45.825 47.3735 45.4325 47.529 45.0004C47.6846 44.5683 47.743 44.1072 47.7001 43.65L47.4251 40.3C47.3437 39.2033 47.5285 38.1033 47.9638 37.0934C48.3991 36.0836 49.072 35.1938 49.9251 34.5L52.4251 32.3C52.7706 32.0083 53.048 31.6446 53.238 31.2343C53.4281 30.824 53.526 30.3771 53.5251 29.925C53.5497 29.4489 53.4605 28.9737 53.2649 28.539C53.0692 28.1042 52.7728 27.7223 52.4001 27.425L49.9001 25.25C49.0502 24.5534 48.3796 23.6632 47.9446 22.6541C47.5097 21.6449 47.3229 20.5462 47.4001 19.45L47.6501 16.075C47.6886 15.6232 47.6275 15.1684 47.4712 14.7428C47.3148 14.3172 47.067 13.931 46.7452 13.6116C46.4233 13.2922 46.0354 13.0472 45.6086 12.894C45.1818 12.7408 44.7266 12.6831 44.2751 12.725L40.9251 13C39.8282 13.0835 38.7274 12.8997 37.7172 12.4642C36.707 12.0288 35.8175 11.3548 35.1251 10.5L32.9251 8C32.5984 7.6706 32.2019 7.41873 31.7649 7.26297C31.3279 7.1072 30.8615 7.05151 30.4001 7.1C29.924 7.07538 29.4488 7.16459 29.0141 7.36023C28.5793 7.55588 28.1974 7.85232 27.9001 8.225L25.7251 10.725C25.0245 11.5702 24.1336 12.2374 23.1255 12.6719C22.1173 13.1064 21.0206 13.296 19.9251 13.225L16.5501 12.975C16.0924 12.9248 15.6292 12.9799 15.196 13.1358C14.7627 13.2918 14.3708 13.5446 14.0501 13.875C13.7256 14.2 13.4767 14.5925 13.3212 15.0246C13.1656 15.4567 13.1072 15.9178 13.1501 16.375L13.4251 19.725C13.5065 20.8217 13.3216 21.9217 12.8864 22.9316C12.4511 23.9414 11.7782 24.8312 10.9251 25.525L8.42509 27.725C8.07964 28.0167 7.80217 28.3804 7.61215 28.7907C7.42213 29.201 7.32415 29.6479 7.32509 30.1C7.30047 30.5761 7.38968 31.0513 7.58533 31.486C7.78097 31.9208 8.07742 32.3027 8.45009 32.6L10.9501 34.775C11.8 35.4716 12.4706 36.3618 12.9055 37.3709C13.3405 38.3801 13.5273 39.4788 13.4501 40.575L13.2001 43.95C13.1616 44.4018 13.2227 44.8566 13.379 45.2822C13.5354 45.7078 13.7832 46.094 14.105 46.4134C14.4269 46.7328 14.8148 46.9778 15.2416 47.131C15.6684 47.2842 16.1236 47.3419 16.5751 47.3L19.9251 47.025L20.6501 46.825Z" fill="black"/>
<path d="M30.4 39.375C27.9136 39.375 25.5291 38.3873 23.7709 36.6291C22.0127 34.871 21.025 32.4864 21.025 30C21.025 27.5136 22.0127 25.129 23.7709 23.3709C25.5291 21.6127 27.9136 20.625 30.4 20.625C32.8864 20.625 35.271 21.6127 37.0292 23.3709C38.7873 25.129 39.775 27.5136 39.775 30C39.775 32.4864 38.7873 34.871 37.0292 36.6291C35.271 38.3873 32.8864 39.375 30.4 39.375ZM30.4 24.375C28.9082 24.375 27.4774 24.9676 26.4225 26.0225C25.3677 27.0774 24.775 28.5082 24.775 30C24.775 31.4918 25.3677 32.9226 26.4225 33.9775C27.4774 35.0324 28.9082 35.625 30.4 35.625C31.8919 35.625 33.3226 35.0324 34.3775 33.9775C35.4324 32.9226 36.025 31.4918 36.025 30C36.025 28.5082 35.4324 27.0774 34.3775 26.0225C33.3226 24.9676 31.8919 24.375 30.4 24.375Z" fill="black"/>
</svg>
