<svg width="60" height="60" viewBox="0 0 60 60" fill="none" xmlns="http://www.w3.org/2000/svg">
<path d="M50.3749 50.6H9.62494C8.9619 50.6 8.32601 50.3366 7.85717 49.8678C7.38833 49.3989 7.12494 48.763 7.12494 48.1V7.5C7.12494 6.83696 7.38833 6.20107 7.85717 5.73223C8.32601 5.26339 8.9619 5 9.62494 5H50.3749C51.038 5 51.6739 5.26339 52.1427 5.73223C52.6115 6.20107 52.8749 6.83696 52.8749 7.5V48.1C52.8749 48.763 52.6115 49.3989 52.1427 49.8678C51.6739 50.3366 51.038 50.6 50.3749 50.6ZM12.1249 45.6H47.8749V10H12.1249V45.6Z" fill="black"/>
<path d="M30 50.6C29.337 50.6 28.7011 50.3366 28.2322 49.8678C27.7634 49.3989 27.5 48.763 27.5 48.1V7.5C27.5 6.83696 27.7634 6.20107 28.2322 5.73223C28.7011 5.26339 29.337 5 30 5C30.663 5 31.2989 5.26339 31.7678 5.73223C32.2366 6.20107 32.5 6.83696 32.5 7.5V48.1C32.5 48.763 32.2366 49.3989 31.7678 49.8678C31.2989 50.3366 30.663 50.6 30 50.6Z" fill="black"/>
<path d="M50.3749 30.225H9.62494C8.9619 30.225 8.32601 29.9616 7.85717 29.4927C7.38833 29.0239 7.12494 28.388 7.12494 27.725C7.12494 27.0619 7.38833 26.4261 7.85717 25.9572C8.32601 25.4884 8.9619 25.225 9.62494 25.225H50.3749C51.038 25.225 51.6739 25.4884 52.1427 25.9572C52.6115 26.4261 52.8749 27.0619 52.8749 27.725C52.8749 28.388 52.6115 29.0239 52.1427 29.4927C51.6739 29.9616 51.038 30.225 50.3749 30.225Z" fill="black"/>
<path d="M16.275 55.125C15.6119 55.125 14.976 54.8616 14.5072 54.3927C14.0384 53.9239 13.775 53.288 13.775 52.625V48.1C13.775 47.4369 14.0384 46.8011 14.5072 46.3322C14.976 45.8634 15.6119 45.6 16.275 45.6C16.938 45.6 17.5739 45.8634 18.0427 46.3322C18.5116 46.8011 18.775 47.4369 18.775 48.1V52.625C18.775 53.288 18.5116 53.9239 18.0427 54.3927C17.5739 54.8616 16.938 55.125 16.275 55.125Z" fill="black"/>
<path d="M43.725 55.125C43.0619 55.125 42.4261 54.8616 41.9572 54.3927C41.4884 53.9239 41.225 53.288 41.225 52.625V48.1C41.225 47.4369 41.4884 46.8011 41.9572 46.3322C42.4261 45.8634 43.0619 45.6 43.725 45.6C44.388 45.6 45.0239 45.8634 45.4927 46.3322C45.9616 46.8011 46.225 47.4369 46.225 48.1V52.625C46.225 53.288 45.9616 53.9239 45.4927 54.3927C45.0239 54.8616 44.388 55.125 43.725 55.125Z" fill="black"/>
<path d="M35.575 30.225C34.9119 30.225 34.276 29.9616 33.8072 29.4928C33.3383 29.024 33.075 28.3881 33.075 27.725V14.15C33.075 13.487 33.3383 12.8511 33.8072 12.3823C34.276 11.9134 34.9119 11.65 35.575 11.65C36.238 11.65 36.8739 11.9134 37.3427 12.3823C37.8116 12.8511 38.075 13.487 38.075 14.15V27.725C38.075 28.3881 37.8116 29.024 37.3427 29.4928C36.8739 29.9616 36.238 30.225 35.575 30.225Z" fill="black"/>
<path d="M44.7999 30.2499C44.2452 30.2736 43.6985 30.1121 43.2458 29.7907C42.7931 29.4693 42.4603 29.0064 42.2999 28.4749L38.7999 17.1499C38.6912 16.8332 38.6473 16.498 38.6707 16.164C38.6941 15.83 38.7844 15.5042 38.9361 15.2057C39.0879 14.9073 39.298 14.6424 39.5541 14.4267C39.8101 14.211 40.1069 14.049 40.4268 13.9502C40.7466 13.8514 41.0831 13.8178 41.4162 13.8515C41.7493 13.8852 42.0722 13.9854 42.3658 14.1463C42.6594 14.3072 42.9177 14.5254 43.1254 14.7879C43.3331 15.0505 43.4859 15.3522 43.5749 15.6749L47.0749 26.9999C47.2701 27.6331 47.206 28.318 46.8966 28.9039C46.5872 29.4899 46.0579 29.9291 45.4249 30.1249C45.2227 30.1931 45.0127 30.2351 44.7999 30.2499Z" fill="black"/>
<path d="M23.2 50.6001C22.537 50.6001 21.9011 50.3367 21.4322 49.8679C20.9634 49.399 20.7 48.7631 20.7 48.1001V34.5251C20.7 33.862 20.9634 33.2262 21.4322 32.7573C21.9011 32.2885 22.537 32.0251 23.2 32.0251C23.8631 32.0251 24.4989 32.2885 24.9678 32.7573C25.4366 33.2262 25.7 33.862 25.7 34.5251V48.1001C25.7 48.7631 25.4366 49.399 24.9678 49.8679C24.4989 50.3367 23.8631 50.6001 23.2 50.6001Z" fill="black"/>
<path d="M43.5749 50.6H36.7999C36.1369 50.6 35.501 50.3366 35.0322 49.8678C34.5633 49.3989 34.2999 48.763 34.2999 48.1V36.8C34.2999 36.1369 34.5633 35.5011 35.0322 35.0322C35.501 34.5634 36.1369 34.3 36.7999 34.3H43.5749C44.238 34.3 44.8738 34.5634 45.3427 35.0322C45.8115 35.5011 46.0749 36.1369 46.0749 36.8V48.1C46.0749 48.763 45.8115 49.3989 45.3427 49.8678C44.8738 50.3366 44.238 50.6 43.5749 50.6ZM39.2999 45.6H41.0749V39.3H39.2999V45.6Z" fill="black"/>
</svg>
