<svg width="61" height="60" viewBox="0 0 61 60" fill="none" xmlns="http://www.w3.org/2000/svg">
<path d="M43.1001 56.875H18.1001C15.6137 56.875 13.2291 55.8873 11.471 54.1291C9.7128 52.371 8.72508 49.9864 8.72508 47.5V26.775C8.71818 25.2912 9.06075 23.8267 9.72508 22.5L16.8501 8.29999C17.622 6.74017 18.8161 5.42826 20.2967 4.51342C21.7772 3.59858 23.4847 3.11754 25.2251 3.12499H43.1001C45.5865 3.12499 47.9711 4.11271 49.7292 5.87087C51.4874 7.62902 52.4751 10.0136 52.4751 12.5V47.5C52.4751 49.9864 51.4874 52.371 49.7292 54.1291C47.9711 55.8873 45.5865 56.875 43.1001 56.875ZM25.2251 6.87499C24.1799 6.87758 23.156 7.17134 22.2684 7.72332C21.3809 8.2753 20.6646 9.06367 20.2001 9.99999L13.1001 24.25C12.7063 25.0246 12.5007 25.8811 12.5001 26.75V47.5C12.5001 48.9875 13.0893 50.4145 14.1388 51.4687C15.1882 52.5228 16.6126 53.1184 18.1001 53.125H43.1001C44.5919 53.125 46.0227 52.5324 47.0776 51.4775C48.1325 50.4226 48.7251 48.9918 48.7251 47.5V12.5C48.7251 11.0082 48.1325 9.57741 47.0776 8.52252C46.0227 7.46763 44.5919 6.87499 43.1001 6.87499H25.2251Z" fill="black"/>
<path d="M39.35 29.375C38.8547 29.3685 38.3815 29.1689 38.0313 28.8187C37.6811 28.4684 37.4815 27.9953 37.475 27.5V15C37.475 14.5027 37.6725 14.0258 38.0242 13.6742C38.3758 13.3225 38.8527 13.125 39.35 13.125C39.8473 13.125 40.3242 13.3225 40.6758 13.6742C41.0274 14.0258 41.225 14.5027 41.225 15V27.5C41.2185 27.9953 41.0189 28.4684 40.6686 28.8187C40.3184 29.1689 39.8452 29.3685 39.35 29.375Z" fill="black"/>
<path d="M26.85 29.375C26.3547 29.3685 25.8815 29.1689 25.5313 28.8187C25.1811 28.4684 24.9815 27.9953 24.975 27.5V15C24.975 14.5027 25.1725 14.0258 25.5242 13.6742C25.8758 13.3225 26.3527 13.125 26.85 13.125C27.3473 13.125 27.8242 13.3225 28.1758 13.6742C28.5274 14.0258 28.725 14.5027 28.725 15V27.5C28.7185 27.9953 28.5189 28.4684 28.1686 28.8187C27.8184 29.1689 27.3452 29.3685 26.85 29.375Z" fill="black"/>
</svg>
