<svg width="60" height="60" viewBox="0 0 60 60" fill="none" xmlns="http://www.w3.org/2000/svg">
<path d="M46.7501 56.875H13.2501C10.5886 56.8357 8.049 55.7524 6.17852 53.8585C4.30805 51.9647 3.25639 49.4118 3.25012 46.75V13.25C3.28945 10.5885 4.37274 8.04887 6.2666 6.1784C8.16045 4.30792 10.7133 3.25627 13.3751 3.25H46.7501C49.412 3.25627 51.9648 4.30792 53.8587 6.1784C55.7525 8.04887 56.8358 10.5885 56.8751 13.25V46.75C56.8685 49.4333 55.7997 52.0048 53.9023 53.9022C52.0049 55.7995 49.4334 56.8684 46.7501 56.875ZM13.2501 6.875C11.5614 6.88158 9.94371 7.55535 8.74959 8.74947C7.55547 9.94359 6.88171 11.5613 6.87512 13.25V46.75C6.88171 48.4387 7.55547 50.0564 8.74959 51.2505C9.94371 52.4447 11.5614 53.1184 13.2501 53.125H46.7501C48.4389 53.1184 50.0565 52.4447 51.2507 51.2505C52.4448 50.0564 53.1185 48.4387 53.1251 46.75V13.25C53.1185 11.5613 52.4448 9.94359 51.2507 8.74947C50.0565 7.55535 48.4389 6.88158 46.7501 6.875H13.2501Z" fill="black"/>
<path d="M33.8001 27.975C33.3237 27.9787 32.862 27.81 32.5001 27.5C32.149 27.1484 31.9517 26.6719 31.9517 26.175C31.9517 25.6781 32.149 25.2016 32.5001 24.85L35.5001 21.85H21.7251C21.2278 21.85 20.7509 21.6525 20.3993 21.3008C20.0476 20.9492 19.8501 20.4723 19.8501 19.975C19.8501 19.4777 20.0476 19.0008 20.3993 18.6492C20.7509 18.2975 21.2278 18.1 21.7251 18.1H40.0001C40.3703 18.094 40.7336 18.2009 41.0417 18.4063C41.3499 18.6117 41.5882 18.9059 41.7251 19.25C41.8727 19.5922 41.9134 19.9711 41.8421 20.3368C41.7707 20.7026 41.5905 21.0384 41.3251 21.3L35.1251 27.5C34.7619 27.8244 34.2867 27.9947 33.8001 27.975Z" fill="black"/>
<path d="M40.0002 21.775C39.5052 21.7642 39.0323 21.5679 38.6752 21.225L32.5002 15C32.1927 14.6562 32.0227 14.2112 32.0227 13.75C32.0227 13.2888 32.1927 12.8438 32.5002 12.5C32.6725 12.3231 32.8786 12.1825 33.1061 12.0865C33.3337 11.9905 33.5782 11.9411 33.8252 11.9411C34.0721 11.9411 34.3166 11.9905 34.5442 12.0865C34.7718 12.1825 34.9778 12.3231 35.1502 12.5L41.3502 18.7C41.7013 19.0516 41.8985 19.5281 41.8985 20.025C41.8985 20.5219 41.7013 20.9984 41.3502 21.35C40.9705 21.658 40.4878 21.8099 40.0002 21.775Z" fill="black"/>
<path d="M26.2002 48.175C25.9532 48.1806 25.7078 48.1345 25.4796 48.0398C25.2515 47.9451 25.0456 47.8038 24.8752 47.625L18.6752 41.425C18.4106 41.1682 18.2288 40.8383 18.1531 40.4775C18.0774 40.1167 18.1112 39.7415 18.2502 39.4C18.3933 39.0533 18.6359 38.7567 18.9473 38.5476C19.2587 38.3385 19.6251 38.2262 20.0002 38.225H38.3252C38.8224 38.225 39.2994 38.4226 39.651 38.7742C40.0026 39.1258 40.2002 39.6027 40.2002 40.1C40.2002 40.5973 40.0026 41.0742 39.651 41.4258C39.2994 41.7775 38.8224 41.975 38.3252 41.975H24.5252L27.5002 45C27.8513 45.3516 28.0485 45.8281 28.0485 46.325C28.0485 46.8219 27.8513 47.2984 27.5002 47.65C27.1525 47.9888 26.6856 48.1773 26.2002 48.175Z" fill="black"/>
<path d="M20.0001 41.975C19.7536 41.9776 19.5091 41.9302 19.2813 41.8357C19.0536 41.7411 18.8474 41.6014 18.6751 41.425C18.4982 41.2526 18.3577 41.0466 18.2617 40.819C18.1657 40.5915 18.1162 40.347 18.1162 40.1C18.1162 39.853 18.1657 39.6085 18.2617 39.381C18.3577 39.1534 18.4982 38.9474 18.6751 38.775L25.0001 32.5C25.1676 32.285 25.38 32.1091 25.6224 31.9845C25.8648 31.86 26.1315 31.7897 26.4038 31.7788C26.6761 31.7678 26.9476 31.8163 27.1992 31.921C27.4509 32.0256 27.6767 32.1839 27.8609 32.3847C28.0452 32.5855 28.1834 32.8241 28.2661 33.0838C28.3487 33.3436 28.3737 33.6182 28.3393 33.8885C28.305 34.1589 28.2121 34.4185 28.0672 34.6494C27.9223 34.8802 27.7287 35.0766 27.5001 35.225L21.3251 41.425C21.152 41.6003 20.9456 41.7392 20.7181 41.8337C20.4906 41.9281 20.2465 41.9762 20.0001 41.975Z" fill="black"/>
</svg>
