<svg width="61" height="60" viewBox="0 0 61 60" fill="none" xmlns="http://www.w3.org/2000/svg">
<path d="M35.5502 18.9C35.3032 18.9056 35.0578 18.8595 34.8296 18.7648C34.6015 18.6701 34.3956 18.5288 34.2252 18.35L30.8002 15L27.3752 18.25C27.0197 18.5812 26.5496 18.7615 26.0638 18.7529C25.5781 18.7444 25.1146 18.5476 24.7711 18.2041C24.4276 17.8605 24.2308 17.3971 24.2222 16.9113C24.2136 16.4256 24.394 15.9554 24.7252 15.6L29.4252 10.9C29.7828 10.5606 30.2571 10.3714 30.7502 10.3714C31.2432 10.3714 31.7175 10.5606 32.0752 10.9L36.8752 15.7C37.2263 16.0516 37.4235 16.5281 37.4235 17.025C37.4235 17.5219 37.2263 17.9984 36.8752 18.35C36.702 18.5253 36.4957 18.6642 36.2681 18.7587C36.0406 18.8531 35.7965 18.9012 35.5502 18.9Z" fill="black"/>
<path d="M30.8002 49.1C30.5539 49.1012 30.3098 49.0531 30.0822 48.9587C29.8547 48.8642 29.6483 48.7253 29.4752 48.55L24.7252 43.775C24.3741 43.4234 24.1769 42.9469 24.1769 42.45C24.1769 41.9531 24.3741 41.4766 24.7252 41.125C24.8976 40.9481 25.1036 40.8075 25.3312 40.7115C25.5588 40.6155 25.8032 40.5661 26.0502 40.5661C26.2972 40.5661 26.5417 40.6155 26.7693 40.7115C26.9968 40.8075 27.2029 40.9481 27.3752 41.125L30.8002 44.575L34.1752 41.225C34.3476 41.0481 34.5536 40.9075 34.7812 40.8115C35.0088 40.7155 35.2532 40.6661 35.5002 40.6661C35.7472 40.6661 35.9917 40.7155 36.2193 40.8115C36.4468 40.9075 36.6529 41.0481 36.8252 41.225C37.1764 41.5766 37.3736 42.0531 37.3736 42.55C37.3736 43.0469 37.1764 43.5234 36.8252 43.875L32.1252 48.55C31.9521 48.7253 31.7457 48.8642 31.5182 48.9587C31.2907 49.0531 31.0466 49.1012 30.8002 49.1Z" fill="black"/>
<path d="M47.5502 56.875H14.0502C11.3886 56.8357 8.84904 55.7524 6.97857 53.8585C5.10809 51.9647 4.05644 49.4118 4.05017 46.75V13.25C4.0895 10.5885 5.17279 8.04887 7.06665 6.1784C8.9605 4.30792 11.5133 3.25627 14.1752 3.25H47.5502C50.212 3.25627 52.7648 4.30792 54.6587 6.1784C56.5526 8.04887 57.6358 10.5885 57.6752 13.25V46.75C57.6686 49.4333 56.5997 52.0048 54.7023 53.9022C52.805 55.7995 50.2335 56.8684 47.5502 56.875ZM14.0502 6.875C12.3614 6.88158 10.7438 7.55535 9.54964 8.74947C8.35552 9.94359 7.68175 11.5613 7.67517 13.25V46.75C7.68175 48.4387 8.35552 50.0564 9.54964 51.2505C10.7438 52.4447 12.3614 53.1184 14.0502 53.125H47.5502C49.2389 53.1184 50.8566 52.4447 52.0507 51.2505C53.2448 50.0564 53.9186 48.4387 53.9252 46.75V13.25C53.9186 11.5613 53.2448 9.94359 52.0507 8.74947C50.8566 7.55535 49.2389 6.88158 47.5502 6.875H14.0502Z" fill="black"/>
<path d="M43.5002 36.35C43.2538 36.3511 43.0097 36.3031 42.7822 36.2086C42.5547 36.1142 42.3483 35.9753 42.1752 35.8C41.8241 35.4484 41.6268 34.9719 41.6268 34.475C41.6268 33.9781 41.8241 33.5015 42.1752 33.15L45.6502 29.675L42.2752 26.325C41.9241 25.9734 41.7268 25.4969 41.7268 25C41.7268 24.5031 41.9241 24.0265 42.2752 23.675C42.4475 23.4981 42.6536 23.3575 42.8812 23.2615C43.1087 23.1655 43.3532 23.1161 43.6002 23.1161C43.8472 23.1161 44.0916 23.1655 44.3192 23.2615C44.5468 23.3575 44.7528 23.4981 44.9252 23.675L49.6252 28.35C49.9763 28.7015 50.1735 29.1781 50.1735 29.675C50.1735 30.1719 49.9763 30.6484 49.6252 31L44.8252 35.8C44.6548 35.9788 44.4489 36.1201 44.2207 36.2148C43.9926 36.3095 43.7472 36.3556 43.5002 36.35Z" fill="black"/>
<path d="M18.0002 36.35C17.7537 36.3526 17.5091 36.3052 17.2814 36.2106C17.0537 36.1161 16.8475 35.9764 16.6752 35.8L11.9752 31.1C11.6241 30.7484 11.4269 30.2719 11.4269 29.775C11.4269 29.2781 11.6241 28.8015 11.9752 28.45L16.7752 23.675C16.9476 23.4981 17.1536 23.3575 17.3812 23.2615C17.6088 23.1655 17.8532 23.1161 18.1002 23.1161C18.3472 23.1161 18.5917 23.1655 18.8193 23.2615C19.0468 23.3575 19.2529 23.4981 19.4252 23.675C19.7764 24.0265 19.9736 24.5031 19.9736 25C19.9736 25.4969 19.7764 25.9734 19.4252 26.325L15.9502 29.775L19.3252 33.15C19.6764 33.5015 19.8736 33.9781 19.8736 34.475C19.8736 34.9719 19.6764 35.4484 19.3252 35.8C19.1521 35.9753 18.9457 36.1142 18.7182 36.2086C18.4907 36.3031 18.2466 36.3511 18.0002 36.35Z" fill="black"/>
</svg>
