<svg width="61" height="60" viewBox="0 0 61 60" fill="none" xmlns="http://www.w3.org/2000/svg">
<path d="M43.4749 55.825C42.3407 55.8145 41.2386 55.4471 40.3249 54.775L31.1499 48.1C30.8718 47.9042 30.54 47.7991 30.1999 47.7991C29.8598 47.7991 29.528 47.9042 29.2499 48.1L20.1999 54.775C19.2823 55.442 18.1772 55.8015 17.0428 55.8022C15.9084 55.8028 14.8029 55.4446 13.8845 54.7787C12.9661 54.1128 12.282 53.1734 11.93 52.095C11.578 51.0166 11.5762 49.8545 11.9249 48.775L15.3249 38C15.4242 37.671 15.4199 37.3194 15.3125 36.9929C15.2052 36.6665 15 36.3809 14.7249 36.175L5.54989 29.5C4.62616 28.8387 3.93692 27.9005 3.582 26.8213C3.22708 25.7421 3.22491 24.578 3.57579 23.4975C3.92668 22.4169 4.61241 21.4762 5.53366 20.8114C6.45492 20.1467 7.56387 19.7924 8.69989 19.8H20.0499C20.3941 19.8008 20.7297 19.6923 21.0082 19.4901C21.2868 19.2879 21.494 19.0025 21.5999 18.675L25.1999 7.87499C25.5563 6.80417 26.2406 5.87268 27.156 5.21257C28.0714 4.55247 29.1713 4.19724 30.2999 4.19724C31.4285 4.19724 32.5284 4.55247 33.4438 5.21257C34.3592 5.87268 35.0435 6.80417 35.3999 7.87499L38.8999 18.675C39.0058 19.0025 39.213 19.2879 39.4915 19.4901C39.7701 19.6923 40.1057 19.8008 40.4499 19.8H51.6999C52.8359 19.7924 53.9449 20.1467 54.8661 20.8114C55.7874 21.4762 56.4731 22.4169 56.824 23.4975C57.1749 24.578 57.1727 25.7421 56.8178 26.8213C56.4629 27.9005 55.7736 28.8387 54.8499 29.5L45.6749 36.175C45.4018 36.3768 45.1977 36.658 45.0903 36.9801C44.9829 37.3023 44.9775 37.6497 45.0749 37.975L48.5999 48.775C48.9567 49.8524 48.9599 51.0155 48.6091 52.0949C48.2583 53.1742 47.5719 54.1132 46.6499 54.775C45.7285 55.4506 44.6174 55.8181 43.4749 55.825ZM30.1999 44.05C31.3308 44.0566 32.4317 44.4148 33.3499 45.075L42.5249 51.75C42.8054 51.9515 43.1421 52.0598 43.4874 52.0598C43.8327 52.0598 44.1694 51.9515 44.4499 51.75C44.7308 51.5553 44.9394 51.2733 45.0434 50.9477C45.1474 50.6222 45.1409 50.2714 45.0249 49.95L41.5249 39.15C41.1681 38.0726 41.1649 36.9095 41.5157 35.8301C41.8665 34.7508 42.5529 33.8118 43.4749 33.15L52.6999 26.475C52.9788 26.2782 53.1875 25.9974 53.2955 25.6735C53.4035 25.3497 53.405 24.9998 53.2999 24.675C53.2011 24.3432 52.9957 24.0532 52.7155 23.8498C52.4354 23.6465 52.096 23.5411 51.7499 23.55H40.3499C39.2358 23.5277 38.1561 23.1596 37.2603 22.4967C36.3645 21.8339 35.6969 20.9089 35.3499 19.85L31.8499 9.04999C31.7461 8.72024 31.5398 8.43219 31.2611 8.22771C30.9823 8.02323 30.6456 7.91297 30.2999 7.91297C29.9542 7.91297 29.6175 8.02323 29.3387 8.22771C29.06 8.43219 28.8537 8.72024 28.7499 9.04999L25.1999 19.825C24.8571 20.8886 24.1913 21.8189 23.2952 22.4866C22.3991 23.1542 21.3171 23.5259 20.1999 23.55H8.69989C8.35381 23.5411 8.01443 23.6465 7.73425 23.8498C7.45407 24.0532 7.24869 24.3432 7.14989 24.675C7.0448 24.9998 7.04634 25.3497 7.15429 25.6735C7.26224 25.9974 7.47094 26.2782 7.74989 26.475L16.9249 33.15C17.8469 33.8118 18.5333 34.7508 18.8841 35.8301C19.2349 36.9095 19.2317 38.0726 18.8749 39.15L15.3749 50C15.2589 50.3214 15.2524 50.6722 15.3564 50.9977C15.4604 51.3233 15.669 51.6053 15.9499 51.8C16.2304 52.0014 16.567 52.1098 16.9124 52.1098C17.2577 52.1098 17.5944 52.0014 17.8749 51.8L27.0499 45C27.977 44.3664 29.0771 44.0346 30.1999 44.05Z" fill="black"/>
</svg>
