<svg width="60" height="60" viewBox="0 0 60 60" fill="none" xmlns="http://www.w3.org/2000/svg">
<path d="M43.5 55H16.5C13.45 55 10.5249 53.7884 8.36827 51.6317C6.2116 49.4751 5 46.55 5 43.5V16.5C5 13.45 6.2116 10.5249 8.36827 8.36827C10.5249 6.2116 13.45 5 16.5 5H43.5C45.0102 5 46.5056 5.29746 47.9009 5.87539C49.2961 6.45331 50.5639 7.3004 51.6317 8.36827C52.6996 9.43615 53.5467 10.7039 54.1246 12.0991C54.7025 13.4944 55 14.9898 55 16.5V43.5C55 45.0102 54.7025 46.5056 54.1246 47.9009C53.5467 49.2961 52.6996 50.5639 51.6317 51.6317C50.5639 52.6996 49.2961 53.5467 47.9009 54.1246C46.5056 54.7025 45.0102 55 43.5 55ZM16.5 10C14.7781 10.0066 13.1286 10.6935 11.9111 11.9111C10.6935 13.1286 10.0066 14.7781 10 16.5V43.5C10.0066 45.2219 10.6935 46.8714 11.9111 48.0889C13.1286 49.3065 14.7781 49.9934 16.5 50H43.5C45.2219 49.9934 46.8714 49.3065 48.0889 48.0889C49.3065 46.8714 49.9934 45.2219 50 43.5V16.5C49.9934 14.7781 49.3065 13.1286 48.0889 11.9111C46.8714 10.6935 45.2219 10.0066 43.5 10H16.5Z" fill="black"/>
<path d="M36.1751 55C35.512 55 34.8761 54.7366 34.4073 54.2677C33.9384 53.7989 33.6751 53.163 33.6751 52.5V44.2C33.6559 43.1902 33.8409 42.187 34.219 41.2505C34.597 40.314 35.1603 39.4635 35.8751 38.75C36.5764 38.0278 37.4159 37.4541 38.3437 37.0633C39.2714 36.6724 40.2683 36.4724 41.2751 36.475H52.5001C53.1631 36.475 53.799 36.7384 54.2678 37.2072C54.7367 37.676 55.0001 38.3119 55.0001 38.975C55.0001 39.638 54.7367 40.2739 54.2678 40.7427C53.799 41.2116 53.1631 41.475 52.5001 41.475H41.1751C40.8299 41.4694 40.4873 41.5354 40.1689 41.6688C39.8505 41.8022 39.5632 42.0001 39.3251 42.25C39.0765 42.4932 38.8814 42.7855 38.7523 43.1084C38.6232 43.4312 38.5628 43.7775 38.5751 44.125V52.45C38.5751 53.113 38.3117 53.7489 37.8428 54.2177C37.374 54.6866 36.7381 54.95 36.0751 54.95L36.1751 55Z" fill="black"/>
</svg>
