<svg width="60" height="60" viewBox="0 0 60 60" fill="none" xmlns="http://www.w3.org/2000/svg">
<path d="M36.925 17.5001H23.075C22.4119 17.5001 21.776 17.2367 21.3072 16.7678C20.8383 16.299 20.575 15.6631 20.575 15.0001V5.75006C20.575 5.08702 20.8383 4.45114 21.3072 3.98229C21.776 3.51345 22.4119 3.25006 23.075 3.25006H36.925C37.588 3.25006 38.2239 3.51345 38.6927 3.98229C39.1616 4.45114 39.425 5.08702 39.425 5.75006V15.0001C39.425 15.6631 39.1616 16.299 38.6927 16.7678C38.2239 17.2367 37.588 17.5001 36.925 17.5001ZM25.575 12.5001H34.425V8.25006H25.575V12.5001Z" fill="black"/>
<path d="M29.9999 56.7501C29.436 56.7468 28.8897 56.553 28.4499 56.2001L16.8999 46.9501C16.555 46.678 16.288 46.3198 16.1256 45.9117C15.9632 45.5035 15.9112 45.0597 15.9749 44.6251L20.5999 14.6251C20.6903 14.029 20.9931 13.4856 21.4525 13.0951C21.9119 12.7046 22.497 12.4933 23.0999 12.5001H36.9499C37.5528 12.4933 38.1379 12.7046 38.5973 13.0951C39.0567 13.4856 39.3595 14.029 39.4499 14.6251L44.0749 44.6251C44.1386 45.0597 44.0866 45.5035 43.9242 45.9117C43.7618 46.3198 43.4947 46.678 43.1499 46.9501L31.6249 56.2001C31.1583 56.5569 30.5872 56.7501 29.9999 56.7501ZM21.1499 43.9501L29.9999 51.0501L38.8499 43.9501L34.7749 17.5001H25.2249L21.1499 43.9501Z" fill="black"/>
<path d="M29.9998 35H20.3748C19.7117 35 19.0758 34.7366 18.607 34.2678C18.1381 33.7989 17.8748 33.163 17.8748 32.5C17.8748 31.837 18.1381 31.2011 18.607 30.7322C19.0758 30.2634 19.7117 30 20.3748 30H29.9998C30.6628 30 31.2987 30.2634 31.7675 30.7322C32.2364 31.2011 32.4998 31.837 32.4998 32.5C32.4998 33.163 32.2364 33.7989 31.7675 34.2678C31.2987 34.7366 30.6628 35 29.9998 35Z" fill="black"/>
</svg>
