<svg width="61" height="60" viewBox="0 0 61 60" fill="none" xmlns="http://www.w3.org/2000/svg">
<path d="M21.975 25.725H11.4C10.2397 25.725 9.1269 25.2641 8.30643 24.4436C7.48596 23.6231 7.02502 22.5103 7.02502 21.35V10.775C7.02502 9.61467 7.48596 8.50187 8.30643 7.6814C9.1269 6.86093 10.2397 6.39999 11.4 6.39999H21.975C23.1353 6.39999 24.2481 6.86093 25.0686 7.6814C25.8891 8.50187 26.35 9.61467 26.35 10.775V21.35C26.35 22.5103 25.8891 23.6231 25.0686 24.4436C24.2481 25.2641 23.1353 25.725 21.975 25.725ZM11.4 10.15C11.2343 10.15 11.0753 10.2158 10.9581 10.3331C10.8409 10.4503 10.775 10.6092 10.775 10.775V21.35C10.775 21.5158 10.8409 21.6747 10.9581 21.7919C11.0753 21.9091 11.2343 21.975 11.4 21.975H21.975C22.1408 21.975 22.2998 21.9091 22.417 21.7919C22.5342 21.6747 22.6 21.5158 22.6 21.35V10.775C22.6 10.6092 22.5342 10.4503 22.417 10.3331C22.2998 10.2158 22.1408 10.15 21.975 10.15H11.4Z" fill="black"/>
<path d="M49.4 25.725H38.825C37.6646 25.725 36.5518 25.2641 35.7314 24.4436C34.9109 23.6231 34.45 22.5103 34.45 21.35V10.775C34.45 9.61467 34.9109 8.50187 35.7314 7.6814C36.5518 6.86093 37.6646 6.39999 38.825 6.39999H49.4C50.5603 6.39999 51.6731 6.86093 52.4935 7.6814C53.314 8.50187 53.775 9.61467 53.775 10.775V21.35C53.775 22.5103 53.314 23.6231 52.4935 24.4436C51.6731 25.2641 50.5603 25.725 49.4 25.725ZM38.825 10.15C38.6592 10.15 38.5002 10.2158 38.383 10.3331C38.2658 10.4503 38.2 10.6092 38.2 10.775V21.35C38.2 21.5158 38.2658 21.6747 38.383 21.7919C38.5002 21.9091 38.6592 21.975 38.825 21.975H49.4C49.5657 21.975 49.7247 21.9091 49.8419 21.7919C49.9591 21.6747 50.025 21.5158 50.025 21.35V10.775C50.025 10.6092 49.9591 10.4503 49.8419 10.3331C49.7247 10.2158 49.5657 10.15 49.4 10.15H38.825Z" fill="black"/>
<path d="M21.975 53.6H11.4C10.2397 53.6 9.1269 53.1391 8.30643 52.3186C7.48596 51.4981 7.02502 50.3853 7.02502 49.225V38.65C7.02502 37.4897 7.48596 36.3769 8.30643 35.5564C9.1269 34.7359 10.2397 34.275 11.4 34.275H21.975C23.1353 34.275 24.2481 34.7359 25.0686 35.5564C25.8891 36.3769 26.35 37.4897 26.35 38.65V49.225C26.35 50.3853 25.8891 51.4981 25.0686 52.3186C24.2481 53.1391 23.1353 53.6 21.975 53.6ZM11.4 38.025C11.2343 38.025 11.0753 38.0908 10.9581 38.2081C10.8409 38.3253 10.775 38.4842 10.775 38.65V49.225C10.775 49.3908 10.8409 49.5497 10.9581 49.6669C11.0753 49.7842 11.2343 49.85 11.4 49.85H21.975C22.1408 49.85 22.2998 49.7842 22.417 49.6669C22.5342 49.5497 22.6 49.3908 22.6 49.225V38.65C22.6 38.4842 22.5342 38.3253 22.417 38.2081C22.2998 38.0908 22.1408 38.025 21.975 38.025H11.4Z" fill="black"/>
<path d="M16.7 38.025C16.2027 38.025 15.7258 37.8275 15.3741 37.4758C15.0225 37.1242 14.825 36.6473 14.825 36.15V23.85C14.825 23.3527 15.0225 22.8758 15.3741 22.5242C15.7258 22.1726 16.2027 21.975 16.7 21.975C17.1972 21.975 17.6741 22.1726 18.0258 22.5242C18.3774 22.8758 18.575 23.3527 18.575 23.85V36.15C18.5685 36.6453 18.3689 37.1184 18.0186 37.4687C17.6684 37.8189 17.1952 38.0185 16.7 38.025Z" fill="black"/>
<path d="M36.325 17.925H24.475C23.9777 17.925 23.5008 17.7274 23.1491 17.3758C22.7975 17.0242 22.6 16.5473 22.6 16.05C22.6 15.5527 22.7975 15.0758 23.1491 14.7242C23.5008 14.3725 23.9777 14.175 24.475 14.175H36.325C36.8223 14.175 37.2992 14.3725 37.6508 14.7242C38.0024 15.0758 38.2 15.5527 38.2 16.05C38.2 16.5473 38.0024 17.0242 37.6508 17.3758C37.2992 17.7274 36.8223 17.925 36.325 17.925Z" fill="black"/>
</svg>
