<svg width="61" height="60" viewBox="0 0 61 60" fill="none" xmlns="http://www.w3.org/2000/svg">
<path d="M39.2999 56.875H21.7999C20.2948 56.875 18.8513 56.2771 17.787 55.2128C16.7228 54.1486 16.1249 52.7051 16.1249 51.2V20C16.128 19.7462 16.182 19.4955 16.2836 19.2629C16.3852 19.0303 16.5325 18.8204 16.7166 18.6456C16.9007 18.4708 17.1179 18.3347 17.3555 18.2453C17.5931 18.1558 17.8462 18.115 18.0999 18.125H43.0999C43.5951 18.1315 44.0683 18.3311 44.4185 18.6813C44.7688 19.0316 44.9684 19.5047 44.9749 20V51.2C44.9749 52.7051 44.377 54.1486 43.3127 55.2128C42.2484 56.2771 40.805 56.875 39.2999 56.875ZM19.9749 21.875V51.2C19.9814 51.7085 20.1862 52.1944 20.5459 52.554C20.9055 52.9136 21.3914 53.1185 21.8999 53.125H39.3999C39.9084 53.1185 40.3943 52.9136 40.7539 52.554C41.1135 52.1944 41.3184 51.7085 41.3249 51.2V21.875H19.9749Z" fill="black"/>
<path d="M38.725 19.375C38.2297 19.3685 37.7565 19.1689 37.4063 18.8187C37.0561 18.4684 36.8565 17.9953 36.85 17.5V6.875H24.35V17.5C24.35 17.9973 24.1524 18.4742 23.8008 18.8258C23.4492 19.1775 22.9723 19.375 22.475 19.375C21.9777 19.375 21.5008 19.1775 21.1492 18.8258C20.7975 18.4742 20.6 17.9973 20.6 17.5V5C20.6065 4.50473 20.8061 4.03157 21.1563 3.68133C21.5065 3.3311 21.9797 3.13147 22.475 3.125H38.725C39.2202 3.13147 39.6934 3.3311 40.0436 3.68133C40.3939 4.03157 40.5935 4.50473 40.6 5V17.5C40.5935 17.9953 40.3939 18.4684 40.0436 18.8187C39.6934 19.1689 39.2202 19.3685 38.725 19.375Z" fill="black"/>
</svg>
