<svg width="61" height="60" viewBox="0 0 61 60" fill="none" xmlns="http://www.w3.org/2000/svg">
<path d="M28.4251 56.15C28.1788 56.1512 27.9347 56.1031 27.7072 56.0087C27.4796 55.9142 27.2732 55.7753 27.1001 55.6C26.749 55.2484 26.5518 54.7719 26.5518 54.275C26.5518 53.7781 26.749 53.3016 27.1001 52.95L31.6251 48.45L26.6251 43.45C26.274 43.0984 26.0768 42.6219 26.0768 42.125C26.0768 41.6281 26.274 41.1516 26.6251 40.8C26.984 40.4533 27.4636 40.2595 27.9626 40.2595C28.4617 40.2595 28.9412 40.4533 29.3001 40.8L35.6001 47.1C35.9528 47.4558 36.1507 47.9365 36.1507 48.4375C36.1507 48.9385 35.9528 49.4192 35.6001 49.775L29.7501 55.6C29.5797 55.7788 29.3738 55.9201 29.1457 56.0148C28.9175 56.1095 28.6721 56.1556 28.4251 56.15Z" fill="black"/>
<path d="M31.2251 32.5C28.382 32.5 25.6027 31.6569 23.2388 30.0774C20.8748 28.4978 19.0323 26.2528 17.9443 23.6261C16.8563 20.9994 16.5717 18.1091 17.1263 15.3206C17.681 12.5321 19.0501 9.97073 21.0604 7.96035C23.0708 5.94997 25.6322 4.58088 28.4207 4.02622C31.2092 3.47156 34.0995 3.75623 36.7262 4.84424C39.3529 5.93225 41.5979 7.77473 43.1775 10.1387C44.757 12.5026 45.6001 15.2819 45.6001 18.125C45.5935 21.9355 44.0769 25.588 41.3825 28.2824C38.6881 30.9768 35.0356 32.4934 31.2251 32.5ZM31.2251 7.50001C29.1237 7.50001 27.0694 8.12315 25.3222 9.29064C23.5749 10.4581 22.2131 12.1175 21.4089 14.059C20.6047 16.0005 20.3943 18.1368 20.8043 20.1978C21.2142 22.2589 22.2262 24.1521 23.7121 25.638C25.198 27.124 27.0912 28.1359 29.1523 28.5459C31.2133 28.9558 33.3496 28.7454 35.2911 27.9412C37.2326 27.137 38.892 25.7752 40.0595 24.0279C41.227 22.2807 41.8501 20.2264 41.8501 18.125C41.8435 15.3091 40.722 12.6104 38.7308 10.6193C36.7397 8.62815 34.041 7.50661 31.2251 7.50001Z" fill="black"/>
<path d="M8.7251 52.5C8.22782 52.5 7.7509 52.3025 7.39927 51.9508C7.04764 51.5992 6.8501 51.1223 6.8501 50.625C6.8501 44.8234 9.15478 39.2594 13.2571 35.157C17.3595 31.0547 22.9235 28.75 28.7251 28.75H33.7251C34.2224 28.75 34.6993 28.9475 35.0509 29.2992C35.4025 29.6508 35.6001 30.1277 35.6001 30.625C35.6001 31.1223 35.4025 31.5992 35.0509 31.9508C34.6993 32.3025 34.2224 32.5 33.7251 32.5H28.7251C23.9201 32.5066 19.3138 34.4183 15.9161 37.816C12.5184 41.2137 10.6067 45.82 10.6001 50.625C10.5936 51.1203 10.394 51.5934 10.0438 51.9437C9.69353 52.2939 9.22037 52.4935 8.7251 52.5Z" fill="black"/>
<path d="M52.8751 50H42.7251C42.2278 50 41.7509 49.8025 41.3993 49.4508C41.0476 49.0992 40.8501 48.6223 40.8501 48.125C40.8501 47.6277 41.0476 47.1508 41.3993 46.7992C41.7509 46.4475 42.2278 46.25 42.7251 46.25H52.8751C53.3724 46.25 53.8493 46.4475 54.2009 46.7992C54.5526 47.1508 54.7501 47.6277 54.7501 48.125C54.7501 48.6223 54.5526 49.0992 54.2009 49.4508C53.8493 49.8025 53.3724 50 52.8751 50Z" fill="black"/>
</svg>
