<svg width="60" height="60" viewBox="0 0 60 60" fill="none" xmlns="http://www.w3.org/2000/svg">
<path d="M30 35C27.0333 35 24.1332 34.1203 21.6665 32.472C19.1997 30.8238 17.2771 28.4811 16.1418 25.7403C15.0065 22.9994 14.7094 19.9834 15.2882 17.0737C15.867 14.1639 17.2956 11.4912 19.3934 9.3934C21.4912 7.29562 24.1639 5.86701 27.0737 5.28823C29.9834 4.70945 32.9994 5.0065 35.7403 6.14181C38.4811 7.27713 40.8238 9.19972 42.472 11.6665C44.1203 14.1332 45 17.0333 45 20C45 23.9783 43.4197 27.7936 40.6066 30.6066C37.7936 33.4197 33.9783 35 30 35ZM30 10C28.0222 10 26.0888 10.5865 24.4443 11.6853C22.7998 12.7841 21.5181 14.3459 20.7612 16.1732C20.0043 18.0004 19.8063 20.0111 20.1922 21.9509C20.578 23.8907 21.5304 25.6726 22.9289 27.0711C24.3275 28.4696 26.1093 29.422 28.0491 29.8079C29.9889 30.1937 31.9996 29.9957 33.8268 29.2388C35.6541 28.4819 37.2159 27.2002 38.3147 25.5557C39.4135 23.9112 40 21.9778 40 20C40 17.3478 38.9464 14.8043 37.0711 12.9289C35.1957 11.0536 32.6522 10 30 10Z" fill="black"/>
<path d="M52.5 55C51.837 55 51.2011 54.7366 50.7322 54.2678C50.2634 53.7989 50 53.163 50 52.5C50 47.8587 48.1563 43.4075 44.8744 40.1256C41.5925 36.8437 37.1413 35 32.5 35H27.5C22.8587 35 18.4075 36.8437 15.1256 40.1256C11.8437 43.4075 10 47.8587 10 52.5C10 53.163 9.73661 53.7989 9.26777 54.2678C8.79893 54.7366 8.16304 55 7.5 55C6.83696 55 6.20107 54.7366 5.73223 54.2678C5.26339 53.7989 5 53.163 5 52.5C5 46.5326 7.37053 40.8097 11.5901 36.5901C15.8097 32.3705 21.5326 30 27.5 30H32.5C38.4674 30 44.1903 32.3705 48.4099 36.5901C52.6295 40.8097 55 46.5326 55 52.5C55 53.163 54.7366 53.7989 54.2678 54.2678C53.7989 54.7366 53.163 55 52.5 55Z" fill="black"/>
<path d="M30 55C29.671 55.0019 29.3449 54.9388 29.0403 54.8144C28.7357 54.69 28.4586 54.5067 28.225 54.275L25.725 51.775C25.4513 51.4995 25.2456 51.164 25.124 50.7952C25.0025 50.4263 24.9686 50.0342 25.025 49.65L27.525 32.15C27.525 31.487 27.7884 30.8511 28.2573 30.3822C28.7261 29.9134 29.362 29.65 30.025 29.65C30.6881 29.65 31.324 29.9134 31.7928 30.3822C32.2616 30.8511 32.525 31.487 32.525 32.15L35.025 49.65C35.0814 50.0342 35.0475 50.4263 34.926 50.7952C34.8045 51.164 34.5987 51.4995 34.325 51.775L31.825 54.275C31.5855 54.5128 31.3003 54.6996 30.9867 54.8242C30.673 54.9488 30.3374 55.0086 30 55Z" fill="black"/>
</svg>
