<svg width="60" height="60" viewBox="0 0 60 60" fill="none" xmlns="http://www.w3.org/2000/svg">
<path d="M50 56.25H10C9.33696 56.25 8.70107 55.9866 8.23223 55.5178C7.76339 55.0489 7.5 54.413 7.5 53.75C7.5 53.087 7.76339 52.4511 8.23223 51.9822C8.70107 51.5134 9.33696 51.25 10 51.25H50C50.663 51.25 51.2989 51.5134 51.7678 51.9822C52.2366 52.4511 52.5 53.087 52.5 53.75C52.5 54.413 52.2366 55.0489 51.7678 55.5178C51.2989 55.9866 50.663 56.25 50 56.25Z" fill="black"/>
<path d="M46.725 56.25C46.062 56.25 45.4261 55.9866 44.9573 55.5178C44.4884 55.0489 44.225 54.413 44.225 53.75V8.75H15.775V53.75C15.775 54.413 15.5116 55.0489 15.0428 55.5178C14.574 55.9866 13.9381 56.25 13.275 56.25C12.612 56.25 11.9761 55.9866 11.5073 55.5178C11.0384 55.0489 10.775 54.413 10.775 53.75V6.25C10.775 5.58696 11.0384 4.95107 11.5073 4.48223C11.9761 4.01339 12.612 3.75 13.275 3.75H46.725C47.3881 3.75 48.024 4.01339 48.4928 4.48223C48.9616 4.95107 49.225 5.58696 49.225 6.25V53.75C49.225 54.413 48.9616 55.0489 48.4928 55.5178C48.024 55.9866 47.3881 56.25 46.725 56.25Z" fill="black"/>
<path d="M37.5 36.25H22.5C21.837 36.25 21.2011 35.9866 20.7322 35.5178C20.2634 35.0489 20 34.413 20 33.75V16.25C20 15.587 20.2634 14.9511 20.7322 14.4822C21.2011 14.0134 21.837 13.75 22.5 13.75H37.5C38.163 13.75 38.7989 14.0134 39.2678 14.4822C39.7366 14.9511 40 15.587 40 16.25V33.75C40 34.413 39.7366 35.0489 39.2678 35.5178C38.7989 35.9866 38.163 36.25 37.5 36.25ZM25 31.25H35V18.75H25V31.25Z" fill="black"/>
<path d="M37.5 27.5H22.5C21.837 27.5 21.2011 27.2366 20.7322 26.7678C20.2634 26.2989 20 25.663 20 25C20 24.337 20.2634 23.7011 20.7322 23.2322C21.2011 22.7634 21.837 22.5 22.5 22.5H37.5C38.163 22.5 38.7989 22.7634 39.2678 23.2322C39.7366 23.7011 40 24.337 40 25C40 25.663 39.7366 26.2989 39.2678 26.7678C38.7989 27.2366 38.163 27.5 37.5 27.5Z" fill="black"/>
<path d="M30 48.75C29.0111 48.75 28.0444 48.4568 27.2222 47.9073C26.3999 47.3579 25.759 46.5771 25.3806 45.6634C25.0022 44.7498 24.9031 43.7445 25.0961 42.7746C25.289 41.8046 25.7652 40.9137 26.4645 40.2145C27.1637 39.5152 28.0546 39.039 29.0246 38.8461C29.9945 38.6531 30.9998 38.7522 31.9134 39.1306C32.8271 39.509 33.6079 40.1499 34.1574 40.9721C34.7068 41.7944 35 42.7611 35 43.75C35 45.0761 34.4732 46.3479 33.5355 47.2855C32.5979 48.2232 31.3261 48.75 30 48.75Z" fill="black"/>
</svg>
