<svg width="60" height="60" viewBox="0 0 60 60" fill="none" xmlns="http://www.w3.org/2000/svg">
<path d="M47.5 53.1C47.0513 53.0998 46.6109 52.979 46.225 52.75L23.475 39.375H12.5C11.837 39.375 11.2011 39.1116 10.7322 38.6427C10.2634 38.1739 10 37.538 10 36.875V23.125C10 22.4619 10.2634 21.826 10.7322 21.3572C11.2011 20.8884 11.837 20.625 12.5 20.625H23.475L46.225 7.24998C46.605 7.03056 47.0362 6.91504 47.475 6.91504C47.9138 6.91504 48.345 7.03056 48.725 7.24998C49.1028 7.46811 49.417 7.78134 49.6363 8.15851C49.8556 8.53569 49.9724 8.96369 49.975 9.39998V50.6C49.9724 51.0363 49.8556 51.4643 49.6363 51.8414C49.417 52.2186 49.1028 52.5318 48.725 52.75C48.3537 52.9705 47.9317 53.0911 47.5 53.1ZM15 34.375H24.175C24.6129 34.372 25.044 34.484 25.425 34.7L45 46.225V13.725L25.425 25.25C25.044 25.4659 24.6129 25.578 24.175 25.575H15V34.375Z" fill="black"/>
</svg>
