<svg width="60" height="60" viewBox="0 0 60 60" fill="none" xmlns="http://www.w3.org/2000/svg">
<path d="M45 48.75H15C12.3478 48.75 9.8043 47.6964 7.92893 45.8211C6.05357 43.9457 5 41.4022 5 38.75V21.25C5 18.5978 6.05357 16.0543 7.92893 14.1789C9.8043 12.3036 12.3478 11.25 15 11.25H45C47.6522 11.25 50.1957 12.3036 52.0711 14.1789C53.9464 16.0543 55 18.5978 55 21.25V38.75C55 41.4022 53.9464 43.9457 52.0711 45.8211C50.1957 47.6964 47.6522 48.75 45 48.75ZM15 16.25C13.6739 16.25 12.4021 16.7768 11.4645 17.7145C10.5268 18.6521 10 19.9239 10 21.25V38.75C10 40.0761 10.5268 41.3479 11.4645 42.2855C12.4021 43.2232 13.6739 43.75 15 43.75H45C46.3261 43.75 47.5979 43.2232 48.5355 42.2855C49.4732 41.3479 50 40.0761 50 38.75V21.25C50 19.9239 49.4732 18.6521 48.5355 17.7145C47.5979 16.7768 46.3261 16.25 45 16.25H15Z" fill="black"/>
<path d="M52.5 40H38.625C36.3395 39.9934 34.1496 39.0826 32.5335 37.4665C30.9174 35.8504 30.0066 33.6605 30 31.375V28.625C30.0066 26.3395 30.9174 24.1496 32.5335 22.5335C34.1496 20.9174 36.3395 20.0066 38.625 20H52.5C53.163 20 53.7989 20.2634 54.2678 20.7322C54.7366 21.2011 55 21.837 55 22.5C55 23.163 54.7366 23.7989 54.2678 24.2678C53.7989 24.7366 53.163 25 52.5 25H38.625C37.6636 25 36.7416 25.3819 36.0617 26.0617C35.3819 26.7416 35 27.6636 35 28.625V31.375C35 32.3364 35.3819 33.2584 36.0617 33.9383C36.7416 34.6181 37.6636 35 38.625 35H52.5C53.163 35 53.7989 35.2634 54.2678 35.7322C54.7366 36.2011 55 36.837 55 37.5C55 38.163 54.7366 38.7989 54.2678 39.2678C53.7989 39.7366 53.163 40 52.5 40Z" fill="black"/>
<path d="M42.5 32.5001C41.8381 32.4909 41.2041 32.2319 40.7251 31.7751C40.6175 31.6563 40.5174 31.531 40.425 31.4001C40.3304 31.2607 40.2548 31.1094 40.2 30.9501C40.1106 30.8113 40.0431 30.6595 40 30.5001C39.9878 30.3336 39.9878 30.1665 40 30.0001C40.004 29.6734 40.0719 29.3506 40.2 29.0501C40.319 28.7432 40.4974 28.4628 40.7251 28.2251C41.0137 27.9241 41.3731 27.7 41.7704 27.5734C42.1678 27.4468 42.5905 27.4216 43 27.5001C43.1567 27.5274 43.3083 27.578 43.45 27.6501C43.6036 27.7 43.7474 27.7761 43.875 27.8751L44.275 28.1751C44.5026 28.4128 44.6811 28.6932 44.8 29.0001C44.9347 29.3161 45.0028 29.6565 45 30.0001C45.0123 30.1665 45.0123 30.3336 45 30.5001C44.9727 30.6567 44.9221 30.8084 44.85 30.9501C44.7953 31.1094 44.7197 31.2607 44.625 31.4001L44.325 31.7751L43.925 32.0751C43.7974 32.174 43.6536 32.2501 43.5 32.3001C43.3583 32.3721 43.2067 32.4227 43.05 32.4501L42.5 32.5001Z" fill="black"/>
</svg>
