<svg width="60" height="60" viewBox="0 0 60 60" fill="none" xmlns="http://www.w3.org/2000/svg">
<path d="M30 48.75C25.5499 48.75 21.1998 47.4304 17.4997 44.9581C13.7996 42.4857 10.9157 38.9717 9.21272 34.8604C7.50975 30.7491 7.06417 26.225 7.93234 21.8605C8.80051 17.4959 10.9434 13.4868 14.0901 10.3401C17.2368 7.19343 21.2459 5.05051 25.6105 4.18234C29.9751 3.31417 34.4991 3.75975 38.6104 5.46272C42.7217 7.16569 46.2357 10.0496 48.7081 13.7497C51.1804 17.4498 52.5 21.7999 52.5 26.25C52.5 32.2174 50.1295 37.9403 45.9099 42.1599C41.6903 46.3795 35.9674 48.75 30 48.75ZM30 8.75001C26.5388 8.75001 23.1554 9.77637 20.2775 11.6993C17.3997 13.6222 15.1567 16.3553 13.8321 19.5531C12.5076 22.7508 12.161 26.2694 12.8363 29.6641C13.5115 33.0588 15.1782 36.177 17.6256 38.6244C20.0731 41.0718 23.1913 42.7385 26.5859 43.4138C29.9806 44.089 33.4993 43.7424 36.697 42.4179C39.8947 41.0934 42.6278 38.8503 44.5507 35.9725C46.4737 33.0946 47.5 29.7112 47.5 26.25C47.5 21.6087 45.6563 17.1575 42.3744 13.8756C39.0925 10.5938 34.6413 8.75001 30 8.75001Z" fill="black"/>
<path d="M30 36.25C28.0222 36.25 26.0888 35.6635 24.4443 34.5647C22.7998 33.4659 21.5181 31.9041 20.7612 30.0768C20.0043 28.2496 19.8063 26.2389 20.1922 24.2991C20.578 22.3593 21.5304 20.5775 22.9289 19.1789C24.3275 17.7804 26.1093 16.828 28.0491 16.4422C29.9889 16.0563 31.9996 16.2543 33.8268 17.0112C35.6541 17.7681 37.2159 19.0498 38.3147 20.6943C39.4135 22.3388 40 24.2722 40 26.25C40 28.9022 38.9464 31.4457 37.0711 33.3211C35.1957 35.1964 32.6522 36.25 30 36.25ZM30 21.25C29.0111 21.25 28.0444 21.5432 27.2222 22.0927C26.3999 22.6421 25.759 23.423 25.3806 24.3366C25.0022 25.2502 24.9032 26.2556 25.0961 27.2255C25.289 28.1954 25.7652 29.0863 26.4645 29.7855C27.1637 30.4848 28.0546 30.961 29.0246 31.1539C29.9945 31.3469 30.9998 31.2478 31.9134 30.8694C32.8271 30.491 33.6079 29.8501 34.1574 29.0279C34.7068 28.2056 35 27.2389 35 26.25C35 24.9239 34.4732 23.6522 33.5355 22.7145C32.5979 21.7768 31.3261 21.25 30 21.25Z" fill="black"/>
<path d="M55 56.25H4.99996C4.51204 56.2517 4.03428 56.1106 3.62559 55.8441C3.21689 55.5775 2.89513 55.1972 2.69996 54.75C2.50959 54.3081 2.45079 53.8207 2.53061 53.3462C2.61043 52.8717 2.82549 52.4303 3.14996 52.075L14.725 39.375C15.1698 38.8854 15.7906 38.5921 16.4513 38.5593C17.112 38.5265 17.7588 38.7569 18.25 39.2C18.4961 39.4207 18.696 39.6879 18.8382 39.9863C18.9804 40.2847 19.062 40.6084 19.0782 40.9385C19.0945 41.2687 19.0452 41.5988 18.933 41.9097C18.8209 42.2206 18.6482 42.5063 18.425 42.75L10.65 51.25H49.6L42.325 42.675C42.0813 42.4306 41.891 42.1383 41.7659 41.8167C41.6407 41.495 41.5836 41.1509 41.598 40.8061C41.6124 40.4613 41.698 40.1232 41.8495 39.8131C42.001 39.503 42.215 39.2276 42.4781 39.0043C42.7413 38.7809 43.0478 38.6145 43.3784 38.5155C43.709 38.4164 44.0566 38.3869 44.3991 38.4288C44.7417 38.4707 45.0719 38.583 45.3689 38.7588C45.666 38.9346 45.9234 39.1699 46.125 39.45L56.9 52.125C57.2106 52.4882 57.4106 52.9328 57.4764 53.4062C57.5421 53.8796 57.4708 54.3618 57.2708 54.7959C57.0709 55.23 56.7507 55.5977 56.3483 55.8554C55.9458 56.1131 55.4779 56.2501 55 56.25Z" fill="black"/>
</svg>
