<svg width="60" height="60" viewBox="0 0 60 60" fill="none" xmlns="http://www.w3.org/2000/svg">
<path d="M47.7001 51.575H12.3C9.81567 51.5684 7.43494 50.5785 5.67821 48.8218C3.92149 47.0651 2.93165 44.6844 2.92505 42.2V17.825C2.92505 15.3386 3.91277 12.954 5.67092 11.1959C7.42908 9.4377 9.81364 8.44998 12.3 8.44998H47.7001C50.1865 8.44998 52.571 9.4377 54.3292 11.1959C56.0873 12.954 57.0751 15.3386 57.0751 17.825V42.2C57.0685 44.6844 56.0786 47.0651 54.3219 48.8218C52.5652 50.5785 50.1844 51.5684 47.7001 51.575ZM12.3 12.2C10.8082 12.2 9.37747 12.7926 8.32257 13.8475C7.26768 14.9024 6.67505 16.3331 6.67505 17.825V42.2C6.67505 43.6918 7.26768 45.1226 8.32257 46.1775C9.37747 47.2323 10.8082 47.825 12.3 47.825H47.7001C49.1919 47.825 50.6226 47.2323 51.6775 46.1775C52.7324 45.1226 53.3251 43.6918 53.3251 42.2V17.825C53.3251 16.3331 52.7324 14.9024 51.6775 13.8475C50.6226 12.7926 49.1919 12.2 47.7001 12.2H12.3Z" fill="black"/>
<path d="M14.0001 21.3C13.5057 21.3 13.0223 21.1534 12.6112 20.8787C12.2001 20.604 11.8796 20.2135 11.6904 19.7567C11.5012 19.2999 11.4517 18.7972 11.5482 18.3123C11.6446 17.8273 11.8827 17.3819 12.2324 17.0322C12.582 16.6826 13.0274 16.4445 13.5124 16.348C13.9974 16.2516 14.5 16.3011 14.9568 16.4903C15.4136 16.6795 15.8041 16.9999 16.0788 17.4111C16.3535 17.8222 16.5001 18.3055 16.5001 18.8C16.5001 19.463 16.2367 20.0989 15.7679 20.5678C15.2991 21.0366 14.6632 21.3 14.0001 21.3ZM14.0001 17.5C13.6951 17.5 13.4026 17.6211 13.187 17.8368C12.9713 18.0525 12.8501 18.345 12.8501 18.65C12.8452 18.8844 12.9105 19.115 13.0377 19.312C13.1649 19.509 13.3481 19.6635 13.5638 19.7555C13.7795 19.8475 14.0178 19.8729 14.248 19.8283C14.4783 19.7838 14.6899 19.6714 14.8557 19.5056C15.0215 19.3398 15.1339 19.1281 15.1785 18.8979C15.223 18.6677 15.1976 18.4294 15.1056 18.2137C15.0136 17.998 14.8592 17.8148 14.6621 17.6876C14.4651 17.5604 14.2346 17.4951 14.0001 17.5Z" fill="black"/>
<path d="M23.7002 21.3C23.2057 21.3 22.7224 21.1534 22.3113 20.8787C21.9001 20.604 21.5797 20.2135 21.3905 19.7567C21.2013 19.2999 21.1518 18.7972 21.2482 18.3123C21.3447 17.8273 21.5828 17.3819 21.9324 17.0322C22.2821 16.6826 22.7275 16.4445 23.2125 16.348C23.6974 16.2516 24.2001 16.3011 24.6569 16.4903C25.1137 16.6795 25.5042 16.9999 25.7789 17.4111C26.0536 17.8222 26.2002 18.3055 26.2002 18.8C26.2002 19.463 25.9368 20.0989 25.468 20.5678C24.9991 21.0366 24.3632 21.3 23.7002 21.3ZM23.7002 17.55C23.5441 17.5395 23.3876 17.5617 23.2406 17.6151C23.0936 17.6685 22.9594 17.752 22.8465 17.8602C22.7335 17.9684 22.6444 18.099 22.5848 18.2436C22.5252 18.3882 22.4964 18.5436 22.5002 18.7C22.5002 19.005 22.6214 19.2975 22.837 19.5132C23.0527 19.7288 23.3452 19.85 23.6502 19.85C23.9532 19.8436 24.242 19.7204 24.4563 19.5061C24.6706 19.2918 24.7938 19.003 24.8002 18.7C24.8069 18.5489 24.7838 18.398 24.7321 18.2559C24.6804 18.1138 24.6012 17.9833 24.4991 17.8719C24.3969 17.7604 24.2737 17.6702 24.1367 17.6064C23.9996 17.5426 23.8513 17.5064 23.7002 17.5V17.55Z" fill="black"/>
<path d="M33.3751 21.3C32.8807 21.3 32.3973 21.1534 31.9862 20.8787C31.5751 20.604 31.2546 20.2135 31.0654 19.7567C30.8762 19.2999 30.8267 18.7972 30.9232 18.3123C31.0196 17.8273 31.2577 17.3819 31.6074 17.0322C31.957 16.6826 32.4024 16.4445 32.8874 16.348C33.3723 16.2516 33.875 16.3011 34.3318 16.4903C34.7886 16.6795 35.1791 16.9999 35.4538 17.4111C35.7285 17.8222 35.8751 18.3055 35.8751 18.8C35.8751 19.463 35.6117 20.0989 35.1429 20.5678C34.674 21.0366 34.0382 21.3 33.3751 21.3ZM33.3751 17.55C33.0701 17.55 32.7776 17.6711 32.5619 17.8868C32.3463 18.1025 32.2251 18.395 32.2251 18.7C32.2301 18.9323 32.3039 19.1579 32.4371 19.3483C32.5703 19.5387 32.757 19.6853 32.9735 19.7697C33.19 19.854 33.4267 19.8722 33.6536 19.822C33.8805 19.7718 34.0874 19.6555 34.2482 19.4877C34.409 19.3199 34.5164 19.1083 34.5569 18.8795C34.5974 18.6506 34.5691 18.415 34.4756 18.2022C34.3822 17.9895 34.2278 17.8092 34.0319 17.6842C33.836 17.5592 33.6074 17.4951 33.3751 17.5V17.55Z" fill="black"/>
<path d="M36.875 41.1C36.6286 41.1011 36.3845 41.0531 36.157 40.9586C35.9295 40.8642 35.7231 40.7252 35.55 40.55C35.1988 40.1984 35.0016 39.7218 35.0016 39.225C35.0016 38.7281 35.1988 38.2515 35.55 37.9L39.2 34.25L35.15 30.2C34.9727 30.026 34.8314 29.8187 34.7342 29.5901C34.637 29.3615 34.5858 29.116 34.5835 28.8676C34.5811 28.6192 34.6278 28.3728 34.7207 28.1425C34.8136 27.9121 34.951 27.7023 35.125 27.525C35.299 27.3477 35.5062 27.2064 35.7348 27.1092C35.9634 27.012 36.2089 26.9608 36.4573 26.9585C36.7057 26.9561 36.9521 27.0028 37.1825 27.0957C37.4129 27.1886 37.6227 27.326 37.8 27.5L43.175 32.875C43.5261 33.2265 43.7233 33.7031 43.7233 34.2C43.7233 34.6968 43.5261 35.1734 43.175 35.525L38.175 40.525C38.0096 40.7052 37.8088 40.8493 37.585 40.9483C37.3613 41.0472 37.1196 41.0989 36.875 41.1Z" fill="black"/>
<path d="M24.1252 41.1C23.8788 41.1011 23.6347 41.0531 23.4072 40.9586C23.1797 40.8642 22.9733 40.7253 22.8002 40.55L17.8002 35.55C17.4491 35.1984 17.2518 34.7219 17.2518 34.225C17.2518 33.7281 17.4491 33.2515 17.8002 32.9L23.2002 27.5C23.5517 27.1489 24.0283 26.9516 24.5252 26.9516C25.0221 26.9516 25.4986 27.1489 25.8502 27.5C26.0271 27.6723 26.1677 27.8784 26.2637 28.1059C26.3597 28.3335 26.4091 28.578 26.4091 28.825C26.4091 29.072 26.3597 29.3164 26.2637 29.544C26.1677 29.7716 26.0271 29.9776 25.8502 30.15L21.8002 34.25L25.4502 37.9C25.6271 38.0723 25.7677 38.2784 25.8637 38.5059C25.9597 38.7335 26.0091 38.978 26.0091 39.225C26.0091 39.472 25.9597 39.7164 25.8637 39.944C25.7677 40.1716 25.6271 40.3776 25.4502 40.55C25.2798 40.7288 25.0739 40.8701 24.8457 40.9648C24.6176 41.0595 24.3722 41.1056 24.1252 41.1Z" fill="black"/>
</svg>
