<svg width="24" height="24" viewBox="0 0 24 24" fill="none" xmlns="http://www.w3.org/2000/svg">
<path fill-rule="evenodd" clip-rule="evenodd" d="M7.15546 18.6961C8.51217 19.6753 10.1838 20.25 12 20.25C13.8427 20.25 15.5366 19.6584 16.9037 18.653C16.4341 18.1423 16.0185 17.5745 15.6662 16.9618L15.4212 17.0778C15.0469 17.2551 14.5997 17.0954 14.4224 16.7211C14.245 16.3468 14.4047 15.8995 14.7791 15.7222L15.0204 15.6079C14.6738 14.7111 14.4523 13.7488 14.3778 12.75H14.1001C13.6859 12.75 13.3501 12.4142 13.3501 12C13.3501 11.5858 13.6859 11.25 14.1001 11.25H14.378C14.456 10.2125 14.6944 9.22923 15.0656 8.31355L14.7791 8.1778C14.4047 8.00048 14.245 7.55327 14.4224 7.17893C14.5997 6.80459 15.0469 6.64488 15.4212 6.8222L15.7323 6.96955C16.0729 6.39446 16.4687 5.85398 16.9111 5.3524C15.5427 4.34377 13.846 3.75 12 3.75C10.2386 3.75 8.60064 4.31621 7.2559 5.28353C7.71488 5.77838 8.12605 6.32599 8.47847 6.91723L8.67907 6.8222C9.05341 6.64488 9.50062 6.80459 9.67795 7.17893C9.85527 7.55327 9.69556 8.00048 9.32122 8.1778L9.14521 8.26118C9.52008 9.19047 9.75851 10.1956 9.82846 11.25H10.1001C10.5143 11.25 10.8501 11.5858 10.8501 12C10.8501 12.4142 10.5143 12.75 10.1001 12.75H9.81391C9.72723 13.7656 9.4866 14.7285 9.11815 15.626L9.32122 15.7222C9.69556 15.8995 9.85527 16.3468 9.67795 16.7211C9.50062 17.0954 9.05341 17.2551 8.67907 17.0778L8.44572 16.9673C8.07601 17.5857 7.64227 18.1638 7.15546 18.6961ZM15.8827 12.75H16.1001C16.5143 12.75 16.8501 12.4142 16.8501 12C16.8501 11.5858 16.5143 11.25 16.1001 11.25H15.8831C15.9545 10.4453 16.1402 9.67819 16.4239 8.95694L16.6791 9.07782C17.0534 9.25515 17.5006 9.09544 17.6779 8.7211C17.8553 8.34676 17.6956 7.89955 17.3212 7.72223L17.0945 7.61485C17.3685 7.16847 17.6827 6.74567 18.0321 6.34904C19.4104 7.821 20.25 9.80492 20.25 12C20.25 14.1983 19.408 16.1848 18.0261 17.6574C17.6511 17.2524 17.3156 16.8028 17.0269 16.3172L17.3212 16.1778C17.6956 16.0005 17.8553 15.5533 17.6779 15.1789C17.5006 14.8046 17.0534 14.6449 16.6791 14.8222L16.3803 14.9637C16.1215 14.2666 15.9505 13.5225 15.8827 12.75ZM8.30739 12.75C8.22833 13.533 8.04095 14.2799 7.76029 14.9828L7.42122 14.8222C7.04689 14.6449 6.59968 14.8046 6.42235 15.1789C6.24503 15.5533 6.40474 16.0005 6.77908 16.1778L7.08285 16.3217C6.77693 16.8148 6.42174 17.2789 6.02413 17.7104C4.61402 16.2343 3.75194 14.2293 3.75 12.0075C3.79678 9.76421 4.69479 7.74592 6.12137 6.26627C6.49144 6.6602 6.82552 7.09457 7.11568 7.56278L6.77908 7.72223C6.40474 7.89955 6.24503 8.34676 6.42235 8.7211C6.59968 9.09544 7.04689 9.25515 7.42122 9.07782L7.78676 8.90467C8.07326 9.63782 8.25975 10.4256 8.32451 11.25H8.1001C7.68588 11.25 7.3501 11.5858 7.3501 12C7.3501 12.4142 7.68588 12.75 8.1001 12.75H8.30739ZM2.25015 11.985C2.35803 6.59079 6.6777 2.25 12 2.25C17.4142 2.25 21.75 6.58579 21.75 12C21.75 17.4142 17.4142 21.75 12 21.75C6.58579 21.75 2.25 17.4142 2.25 12V11.9925L2.25015 11.985Z" fill="black"/>
</svg>
