<svg width="24" height="24" viewBox="0 0 24 24" fill="none" xmlns="http://www.w3.org/2000/svg">
<path d="M11.65 18.85L11.45 19.15C10.85 19.75 9.85003 19.75 9.25002 19.15L4.85002 14.75C4.25002 14.15 4.25002 13.15 4.85002 12.55L5.05002 12.35C5.65002 11.75 6.65002 11.75 7.25002 12.35L11.65 16.75C12.25 17.35 12.25 18.25 11.65 18.85Z" fill="black"/>
<path fill-rule="evenodd" clip-rule="evenodd" d="M5.58035 12.8803C5.58035 12.8803 5.58035 12.8803 5.58035 12.8803L5.38036 13.0803C5.07325 13.3874 5.07325 13.9126 5.38035 14.2197L9.78035 18.6197C10.0728 18.9121 10.5629 18.9261 10.8743 18.6615L11.0672 18.3722L11.1197 18.3197C11.4268 18.0126 11.4268 17.5874 11.1197 17.2803L6.71969 12.8803C6.41259 12.5732 5.88746 12.5732 5.58035 12.8803ZM4.51969 11.8197C5.41259 10.9268 6.88746 10.9268 7.78035 11.8197L12.1804 16.2197C13.0541 17.0934 13.0728 18.4286 12.2367 19.3221L12.0329 19.6278L11.9804 19.6803C11.0875 20.5732 9.61259 20.5732 8.71969 19.6803L4.31969 15.2803C3.4268 14.3874 3.4268 12.9126 4.31969 12.0197C4.31969 12.0197 4.31969 12.0197 4.31969 12.0197L4.51969 11.8197Z" fill="black"/>
<path d="M19.1501 11.45L18.95 11.65C18.35 12.25 17.35 12.25 16.75 11.65L12.25 7.24999C11.65 6.64999 11.65 5.64999 12.25 5.04999L12.45 4.84999C13.05 4.24999 14.05 4.24999 14.65 4.84999L19.05 9.24999C19.75 9.84999 19.7501 10.85 19.1501 11.45Z" fill="black"/>
<path fill-rule="evenodd" clip-rule="evenodd" d="M14.1197 5.38032C13.8126 5.07322 13.2875 5.07322 12.9804 5.38032L12.7804 5.58032C12.4741 5.88661 12.4733 6.40974 12.7779 6.71718L17.2804 11.1196C17.5875 11.4267 18.1126 11.4268 18.4197 11.1197L18.6197 10.9197C18.9183 10.6211 18.9223 10.1283 18.562 9.81944L18.5401 9.80069L14.1197 5.38032ZM11.9197 4.31966C12.8126 3.42677 14.2875 3.42677 15.1804 4.31966L15.0326 6.10709M19.5619 8.70115L15.1804 4.31966L19.5619 8.70115ZM19.5619 8.70115C20.5778 9.59476 20.5749 11.0858 19.6804 11.9803L19.4804 12.1803C18.5886 13.0721 17.1162 13.0732 16.223 12.1836L11.7197 7.78036C10.8268 6.88746 10.8268 5.41256 11.7197 4.51966L11.9197 4.31966" fill="black"/>
<path d="M20.35 7.85L20.15 8.05C19.55 8.65 18.55 8.65 17.95 8.05L15.95 6.05C15.35 5.45 15.35 4.45 15.95 3.85L16.15 3.65C16.75 3.05 17.75 3.05 18.35 3.65L20.35 5.65C20.95 6.25 20.95 7.25 20.35 7.85Z" fill="black"/>
<path fill-rule="evenodd" clip-rule="evenodd" d="M17.8197 4.18033C17.5126 3.87322 16.9874 3.87322 16.6803 4.18033L16.4803 4.38033C16.1732 4.68743 16.1732 5.21256 16.4803 5.51967L18.4803 7.51967C18.7874 7.82677 19.3126 7.82677 19.6197 7.51967L19.8197 7.31967C20.1268 7.01256 20.1268 6.48743 19.8197 6.18033L17.8197 4.18033ZM15.6197 3.11967C16.5126 2.22677 17.9874 2.22677 18.8803 3.11967L20.8803 5.11967C21.7732 6.01256 21.7732 7.48743 20.8803 8.38033L20.6803 8.58033C19.7874 9.47322 18.3126 9.47322 17.4197 8.58033L15.4197 6.58033C14.5268 5.68743 14.5268 4.21256 15.4197 3.31967C15.4197 3.31967 15.4197 3.31967 15.4197 3.31967L15.6197 3.11967Z" fill="black"/>
<path d="M8.04995 20.05L7.84995 20.25C7.24995 20.85 6.24995 20.85 5.64995 20.25L3.64995 18.25C3.04995 17.65 3.04995 16.65 3.64995 16.05L3.84995 15.85C4.44995 15.25 5.44995 15.25 6.04995 15.85L8.04995 17.85C8.64995 18.55 8.64995 19.45 8.04995 20.05Z" fill="black"/>
<path fill-rule="evenodd" clip-rule="evenodd" d="M4.38028 16.3803C4.38028 16.3803 4.38028 16.3803 4.38028 16.3803L4.18028 16.5803C3.87318 16.8874 3.87317 17.4126 4.18028 17.7197L6.18028 19.7197C6.48739 20.0268 7.01251 20.0268 7.31962 19.7197L7.51962 19.5197C7.80201 19.2373 7.85855 18.7945 7.4972 18.3579L5.51962 16.3803C5.21251 16.0732 4.68739 16.0732 4.38028 16.3803ZM3.31962 15.3197C4.21251 14.4268 5.68739 14.4268 6.58028 15.3197L8.60065 17.34L8.61939 17.3619C9.4397 18.3189 9.49362 19.667 8.58028 20.5803L8.38028 20.7803C7.48739 21.6732 6.01251 21.6732 5.11962 20.7803L3.11962 18.7803C2.22673 17.8874 2.22673 16.4126 3.11962 15.5197C3.11962 15.5197 3.11962 15.5197 3.11962 15.5197L3.31962 15.3197Z" fill="black"/>
<path fill-rule="evenodd" clip-rule="evenodd" d="M10.0197 15.1197L15.1197 10.0197L16.1803 11.0803L11.0803 16.1803L10.0197 15.1197Z" fill="black"/>
<path fill-rule="evenodd" clip-rule="evenodd" d="M7.8197 12.9197L12.9197 7.81967L13.9804 8.88033L8.88036 13.9803L7.8197 12.9197Z" fill="black"/>
</svg>
