<svg width="24" height="24" viewBox="0 0 24 24" fill="none" xmlns="http://www.w3.org/2000/svg">
<path fill-rule="evenodd" clip-rule="evenodd" d="M5.75 6C5.75 4.71421 6.71421 3.75 8 3.75H8.25V6C8.25 6.47044 8.41009 6.92075 8.74467 7.25533C9.07925 7.58991 9.52956 7.75 10 7.75H14C14.4939 7.75 14.9251 7.51059 15.2178 7.21783C15.5106 6.92507 15.75 6.49392 15.75 6V3.75H16C17.2858 3.75 18.25 4.71421 18.25 6V11.25H14.6465C14.32 10.0957 13.2588 9.25 12 9.25C10.7412 9.25 9.67998 10.0957 9.35352 11.25H5.75V6ZM4.25 12V18C4.25 20.1142 5.88579 21.75 8 21.75H8.25H15.75H16C18.0142 21.75 19.75 20.0142 19.75 18V12V6C19.75 3.88579 18.1142 2.25 16 2.25H15.75H8.25H8C5.88579 2.25 4.25 3.88579 4.25 6V12ZM5.75 12.75H9.35352C9.67998 13.9043 10.7412 14.75 12 14.75C13.2588 14.75 14.32 13.9043 14.6465 12.75H18.25V18C18.25 19.1858 17.1858 20.25 16 20.25H15.75V18C15.75 17.5296 15.5899 17.0793 15.2553 16.7447C14.9207 16.4101 14.4704 16.25 14 16.25H10C9.52956 16.25 9.07925 16.4101 8.74467 16.7447C8.41009 17.0793 8.25 17.5296 8.25 18V20.25H8C6.71421 20.25 5.75 19.2858 5.75 18V12.75ZM10.75 12C10.75 12.6904 11.3096 13.25 12 13.25C12.6904 13.25 13.25 12.6904 13.25 12C13.25 11.3096 12.6904 10.75 12 10.75C11.3096 10.75 10.75 11.3096 10.75 12ZM14.25 18V20.25H9.75V18C9.75 17.8704 9.78991 17.8207 9.80533 17.8053C9.82075 17.7899 9.87044 17.75 10 17.75H14C14.1296 17.75 14.1793 17.7899 14.1947 17.8053C14.2101 17.8207 14.25 17.8704 14.25 18ZM14.25 3.75H9.75V6C9.75 6.12956 9.78991 6.17925 9.80533 6.19467C9.82075 6.21009 9.87044 6.25 10 6.25H14C14.0061 6.25 14.0749 6.23941 14.1572 6.15717C14.2394 6.07493 14.25 6.00608 14.25 6V3.75Z" fill="black"/>
</svg>
