<svg width="24" height="24" viewBox="0 0 24 24" fill="none" xmlns="http://www.w3.org/2000/svg">
<path fill-rule="evenodd" clip-rule="evenodd" d="M3.75 8C3.75 6.71421 4.71421 5.75 6 5.75H11.25V9.35352C10.0957 9.67998 9.25 10.7412 9.25 12C9.25 13.2588 10.0957 14.32 11.25 14.6465V18.25H6C4.71421 18.25 3.75 17.2858 3.75 16V15.75H6C6.47044 15.75 6.92075 15.5899 7.25533 15.2553C7.58991 14.9207 7.75 14.4704 7.75 14V10C7.75 8.93789 6.86464 8.25 6 8.25H3.75V8ZM12.75 18.25V14.6465C13.9043 14.32 14.75 13.2588 14.75 12C14.75 10.7412 13.9043 9.67998 12.75 9.35352V5.75H18C19.2021 5.75 20.25 6.73037 20.25 8V8.25H18C17.5296 8.25 17.0793 8.41009 16.7447 8.74467C16.4101 9.07925 16.25 9.52956 16.25 10V14C16.25 14.4704 16.4101 14.9207 16.7447 15.2553C17.0793 15.5899 17.5296 15.75 18 15.75H20.25V16C20.25 17.2858 19.2858 18.25 18 18.25H12.75ZM12 19.75H18C20.1142 19.75 21.75 18.1142 21.75 16V15.75V8.25V8C21.75 5.86963 19.9979 4.25 18 4.25H12H6C3.88579 4.25 2.25 5.88579 2.25 8V8.25V15.75V16C2.25 18.1142 3.88579 19.75 6 19.75H12ZM12 13.25C12.6904 13.25 13.25 12.6904 13.25 12C13.25 11.3096 12.6904 10.75 12 10.75C11.3096 10.75 10.75 11.3096 10.75 12C10.75 12.6904 11.3096 13.25 12 13.25ZM18 9.75H20.25V14.25H18C17.8704 14.25 17.8207 14.2101 17.8053 14.1947C17.7899 14.1793 17.75 14.1296 17.75 14V10C17.75 9.87044 17.7899 9.82075 17.8053 9.80533C17.8207 9.78991 17.8704 9.75 18 9.75ZM3.75 9.75V14.25H6C6.12956 14.25 6.17925 14.2101 6.19467 14.1947C6.21009 14.1793 6.25 14.1296 6.25 14V10C6.25 9.92063 6.22086 9.86539 6.17576 9.82329C6.12315 9.77419 6.05465 9.75 6 9.75H3.75Z" fill="black"/>
</svg>
