<svg xmlns="http://www.w3.org/2000/svg" fill="none" viewBox="0 0 24 24">
  <path fill="#000" d="M9.6 12.302c2.596 0 4.7-2.115 4.7-4.724s-2.104-4.724-4.7-4.724-4.7 2.115-4.7 4.724 2.104 4.724 4.7 4.724"/>
  <path fill="#000" d="M9.6 3.608c-2.182 0-3.95 1.777-3.95 3.97 0 2.192 1.768 3.97 3.95 3.97s3.95-1.778 3.95-3.97-1.769-3.97-3.95-3.97m-5.45 3.97C4.15 4.552 6.59 2.1 9.6 2.1s5.45 2.452 5.45 5.478-2.44 5.477-5.45 5.477-5.45-2.452-5.45-5.477"/>
  <path fill="#000" d="M12.6 21.146H6.7c-2.1 0-3.7-1.708-3.7-3.719 0-2.814 2.3-5.125 5.1-5.125h3.2c2.8 0 5.1 2.311 5.1 5.125-.1 2.01-1.7 3.72-3.8 3.72"/>
  <path fill="#000" d="M8.1 13.055c-2.386 0-4.35 1.975-4.35 4.372 0 1.608 1.277 2.965 2.95 2.965h5.9c1.66 0 2.96-1.348 3.05-2.984-.01-2.389-1.97-4.353-4.35-4.353zm-5.85 4.372c0-3.23 2.636-5.88 5.85-5.88h3.2c3.214 0 5.85 2.65 5.85 5.88v.038c-.12 2.376-2.016 4.435-4.55 4.435H6.7c-2.527 0-4.45-2.06-4.45-4.473M19.1 4.914c.414 0 .75.338.75.754v4.12a.75.75 0 0 1-.75.755.75.75 0 0 1-.75-.754v-4.12c0-.417.336-.755.75-.755"/>
  <path fill="#000" d="m19.05 6.181 1.42 1.427a.747.747 0 0 0 1.06 0 .756.756 0 0 0 0-1.066l-1.786-1.795-.109-.055a1.4 1.4 0 0 0-.623-.155c-.219 0-.51.063-.742.297l-1.7 1.708a.756.756 0 0 0 0 1.066.747.747 0 0 0 1.06 0z"/>
</svg>
