<svg xmlns="http://www.w3.org/2000/svg" fill="none" viewBox="0 0 24 24">
  <path fill="#000" d="M16.2 3.75a.9.9 0 0 0-.67.28c-.307.307-.307.933 0 1.24l.193.193 1.825 1.728L19.43 5.31c.244-.334.32-.56.32-.709 0-.146-.02-.292-.053-.401a.5.5 0 0 0-.038-.091l-.037-.025-.052-.053c-.307-.307-.933-.307-1.24 0l-.73.73-.69-.69c-.335-.244-.56-.32-.71-.32Zm1.38-1.038c-.393-.255-.86-.462-1.38-.462-.72 0-1.305.294-1.73.72-.893.893-.893 2.467 0 3.36l.207.207 1.859 1.761c.241.308.597.477.976.477.396 0 .753-.18 1.018-.445l1.8-1.8.238-.237.032-.043c.332-.443.65-1.005.65-1.65 0-.254-.03-.558-.122-.849-.08-.259-.236-.593-.545-.828-.802-.753-2.106-.824-3.002-.211Zm-.13 4.575v-.001Z"/>
  <path fill="#000" d="M2.25 9c0-3.714 3.036-6.75 6.75-6.75h2a.75.75 0 0 1 0 1.5H9C6.114 3.75 3.75 6.114 3.75 9v6c0 2.886 2.364 5.25 5.25 5.25h6c2.886 0 5.25-2.364 5.25-5.25v-3a.75.75 0 0 1 1.5 0v3c0 3.714-3.036 6.75-6.75 6.75H9c-3.714 0-6.75-3.036-6.75-6.75z"/>
  <path fill="#000" d="M12 9.75a2.25 2.25 0 1 0 0 4.5 2.25 2.25 0 0 0 0-4.5M8.25 12a3.75 3.75 0 1 1 7.5 0 3.75 3.75 0 0 1-7.5 0"/>
  <path fill="#000" d="M5.257 20.1c.45-3.383 3.379-5.85 6.743-5.85 3.39 0 6.194 2.592 6.643 5.848l-1.486.204C16.806 17.758 14.61 15.75 12 15.75c-2.636 0-4.908 1.933-5.257 4.55z"/>
</svg>
