<svg xmlns="http://www.w3.org/2000/svg" fill="none" viewBox="0 0 24 24">
  <path fill="#000" d="M21 10.25a.75.75 0 0 1 .75.75v4c0 2.473-1.35 4.731-3.5 5.864a.75.75 0 1 1-.7-1.328c1.65-.867 2.7-2.609 2.7-4.536v-4a.75.75 0 0 1 .75-.75M9 3.75C6.114 3.75 3.75 6.114 3.75 9v6c0 1.932 1.056 3.679 2.614 4.544a.75.75 0 1 1-.728 1.312C3.594 19.72 2.25 17.468 2.25 15V9c0-3.714 3.036-6.75 6.75-6.75h6a.75.75 0 0 1 0 1.5z"/>
  <path fill="#000" d="M12 15a3 3 0 1 0 0-6 3 3 0 0 0 0 6"/>
  <path fill="#000" d="M12 9.75a2.25 2.25 0 1 0 0 4.5 2.25 2.25 0 0 0 0-4.5M8.25 12a3.75 3.75 0 1 1 7.5 0 3.75 3.75 0 0 1-7.5 0"/>
  <path fill="#000" d="M17.9 20.2c-.9.5-1.9.8-2.9.8H9c-1.1 0-2.1-.3-2.9-.8.4-3 2.9-5.2 5.9-5.2s5.5 2.2 5.9 5.2"/>
  <path fill="#000" d="M6.933 19.802A4.8 4.8 0 0 0 9 20.25h6c.688 0 1.391-.167 2.062-.468A5.18 5.18 0 0 0 12 15.75a5.18 5.18 0 0 0-5.067 4.052m-1.576.299C5.806 16.732 8.62 14.25 12 14.25s6.194 2.482 6.643 5.85l.068.507-.447.249c-.991.55-2.115.894-3.264.894H9c-1.236 0-2.374-.337-3.297-.914l-.41-.256zM18 3.25a.75.75 0 0 1 .75.75v6a.75.75 0 0 1-1.5 0V4a.75.75 0 0 1 .75-.75"/>
  <path fill="#000" d="M14.25 7a.75.75 0 0 1 .75-.75h6a.75.75 0 0 1 0 1.5h-6a.75.75 0 0 1-.75-.75"/>
</svg>
