<svg xmlns="http://www.w3.org/2000/svg" fill="none" viewBox="0 0 24 24">
  <path fill="#000" d="M19.895 4.055c-.995-1.067-2.709-1.096-3.83.02l-.01.01-.01.009c-1.072.99-1.101 2.695.02 3.81l.01.01.01.01c1.005 1.078 2.804 1.078 3.81 0l.019-.02.02-.019c1.072-.99 1.101-2.695-.02-3.81l-.01-.01-.01-.01Zm1.092-1.029c-1.61-1.713-4.292-1.684-5.975-.02-1.722 1.602-1.693 4.272-.02 5.947 1.596 1.698 4.385 1.702 5.985.01 1.712-1.602 1.68-4.265.01-5.937"/>
  <path fill="#000" d="m15.002 7.905 4.912-4.888 1.063 1.058-4.912 4.888zM5.648 6.66C7.11 5.21 9.22 4.294 11.524 4.294a.75.75 0 0 0 .752-.748.75.75 0 0 0-.752-.749c-2.705 0-5.202 1.077-6.947 2.813l-.008.008-.008.009C2.84 7.447 1.75 9.819 1.75 12.524c0 2.692 1.081 5.177 2.827 6.913l.009.01c.2.198.444.442.807.682a.754.754 0 0 0 1.042-.207.746.746 0 0 0-.208-1.038 3.6 3.6 0 0 1-.587-.505c-1.463-1.455-2.386-3.56-2.386-5.855 0-2.28.912-4.293 2.394-5.864m14.898 5.116a.75.75 0 0 1 .752.748c0 3.021-1.409 5.837-3.705 7.578a.754.754 0 0 1-1.053-.142.746.746 0 0 1 .142-1.049c1.914-1.451 3.112-3.823 3.112-6.387a.75.75 0 0 1 .752-.748"/>
  <path fill="#000" d="M11.524 15.516a3 3 0 0 0 3.007-2.992 3 3 0 0 0-3.007-2.993 3 3 0 0 0-3.008 2.993 3 3 0 0 0 3.008 2.992"/>
  <path fill="#000" d="M11.524 10.28a2.25 2.25 0 0 0-2.256 2.244 2.25 2.25 0 0 0 2.256 2.244 2.25 2.25 0 0 0 2.255-2.244 2.25 2.25 0 0 0-2.255-2.245Zm-3.76 2.244a3.75 3.75 0 0 1 3.76-3.741 3.75 3.75 0 0 1 3.759 3.74 3.75 3.75 0 0 1-3.76 3.742 3.75 3.75 0 0 1-3.758-3.741Z"/>
  <path fill="#000" d="M17.138 19.507c-1.504 1.296-3.51 1.995-5.715 1.995s-4.11-.798-5.713-1.995c.802-2.295 3.007-3.99 5.714-3.99 2.706 0 4.912 1.596 5.714 3.99"/>
  <path fill="#000" d="M6.63 19.24c1.394.93 2.989 1.514 4.794 1.514 1.847 0 3.513-.528 4.814-1.488-.813-1.813-2.61-3.001-4.814-3.001-2.17 0-3.964 1.237-4.793 2.975ZM5 19.26c.904-2.586 3.388-4.492 6.424-4.492 3.02 0 5.52 1.793 6.427 4.502l.159.474-.38.328c-1.656 1.428-3.842 2.178-6.206 2.178-2.4 0-4.459-.871-6.165-2.145l-.44-.328.18-.516Z"/>
</svg>
