<svg width="24" height="24" viewBox="0 0 24 24" fill="none" xmlns="http://www.w3.org/2000/svg">
<path d="M6.55007 15.6C8.5383 15.6 10.1501 13.9882 10.1501 12C10.1501 10.0118 8.5383 8.39999 6.55007 8.39999C4.56185 8.39999 2.95007 10.0118 2.95007 12C2.95007 13.9882 4.56185 15.6 6.55007 15.6Z" fill="black"/>
<path fill-rule="evenodd" clip-rule="evenodd" d="M6.55007 9.14999C4.97606 9.14999 3.70007 10.426 3.70007 12C3.70007 13.574 4.97606 14.85 6.55007 14.85C8.12409 14.85 9.40007 13.574 9.40007 12C9.40007 10.426 8.12409 9.14999 6.55007 9.14999ZM2.20007 12C2.20007 9.59756 4.14763 7.64999 6.55007 7.64999C8.95251 7.64999 10.9001 9.59756 10.9001 12C10.9001 14.4024 8.95251 16.35 6.55007 16.35C4.14763 16.35 2.20007 14.4024 2.20007 12Z" fill="black"/>
<path fill-rule="evenodd" clip-rule="evenodd" d="M9.40002 12C9.40002 11.5858 9.73581 11.25 10.15 11.25H21.05C21.4642 11.25 21.8 11.5858 21.8 12C21.8 12.4142 21.4642 12.75 21.05 12.75H10.15C9.73581 12.75 9.40002 12.4142 9.40002 12Z" fill="black"/>
<path fill-rule="evenodd" clip-rule="evenodd" d="M21.05 10.15C21.4643 10.15 21.8 10.4858 21.8 10.9V15.6C21.8 16.0142 21.4643 16.35 21.05 16.35C20.6358 16.35 20.3 16.0142 20.3 15.6V10.9C20.3 10.4858 20.6358 10.15 21.05 10.15Z" fill="black"/>
<path fill-rule="evenodd" clip-rule="evenodd" d="M17.2501 11.25C17.6643 11.25 18.0001 11.5858 18.0001 12V14.5C18.0001 14.9142 17.6643 15.25 17.2501 15.25C16.8359 15.25 16.5001 14.9142 16.5001 14.5V12C16.5001 11.5858 16.8359 11.25 17.2501 11.25Z" fill="black"/>
</svg>
