<svg width="24" height="24" viewBox="0 0 24 24" fill="none" xmlns="http://www.w3.org/2000/svg">
<path fill-rule="evenodd" clip-rule="evenodd" d="M12 3.75C10.2142 3.75 8.75 5.21421 8.75 7V9.08249C9.71408 8.55187 10.8218 8.25 12 8.25C15.7279 8.25 18.75 11.2721 18.75 15C18.75 18.7279 15.7279 21.75 12 21.75C8.27208 21.75 5.25 18.7279 5.25 15C5.25 13.1244 6.015 11.4274 7.25 10.2042V7C7.25 4.38579 9.38579 2.25 12 2.25C13.3282 2.25 14.5118 2.85116 15.3303 3.66968C16.1488 4.48821 16.75 5.67184 16.75 7C16.75 7.41421 16.4142 7.75 16 7.75C15.5858 7.75 15.25 7.41421 15.25 7C15.25 6.12816 14.8511 5.31182 14.2697 4.73034C13.6882 4.14887 12.8718 3.75 12 3.75ZM12 9.75C9.10051 9.75 6.75 12.1005 6.75 15C6.75 17.8995 9.10051 20.25 12 20.25C14.8995 20.25 17.25 17.8995 17.25 15C17.25 12.1005 14.8995 9.75 12 9.75ZM12.75 16C12.75 15.5858 12.4142 15.25 12 15.25C11.5858 15.25 11.25 15.5858 11.25 16V17C11.25 17.4142 11.5858 17.75 12 17.75C12.4142 17.75 12.75 17.4142 12.75 17V16Z" fill="black"/>
</svg>
