<svg width="24" height="24" viewBox="0 0 24 24" fill="none" xmlns="http://www.w3.org/2000/svg">
<path d="M6.3999 15V13C6.3999 10.8 8.1999 9 10.3999 9H13.4999C15.6999 9 17.4999 10.8 17.4999 13V15C17.4999 16.7 16.1999 18 14.4999 18H9.3999C7.6999 18 6.3999 16.6 6.3999 15Z" fill="black"/>
<path fill-rule="evenodd" clip-rule="evenodd" d="M10.3999 9.75C8.61412 9.75 7.1499 11.2142 7.1499 13V15C7.1499 16.2021 8.13028 17.25 9.3999 17.25H14.4999C15.7857 17.25 16.7499 16.2858 16.7499 15V13C16.7499 11.2142 15.2857 9.75 13.4999 9.75H10.3999ZM5.6499 13C5.6499 10.3858 7.78569 8.25 10.3999 8.25H13.4999C16.1141 8.25 18.2499 10.3858 18.2499 13V15C18.2499 17.1142 16.6141 18.75 14.4999 18.75H9.3999C7.26953 18.75 5.6499 16.9979 5.6499 15V13Z" fill="black"/>
<path fill-rule="evenodd" clip-rule="evenodd" d="M12 6.14999C10.8315 6.14999 9.94995 7.09664 9.94995 8.19999V8.89999H8.44995V8.19999C8.44995 6.30335 9.96839 4.64999 12 4.64999C12.9925 4.64999 13.8852 5.02459 14.5303 5.66966C15.1754 6.31474 15.55 7.20743 15.55 8.19999V8.89999H14.05V8.19999C14.05 7.59256 13.8245 7.08525 13.4696 6.73032C13.1147 6.3754 12.6074 6.14999 12 6.14999Z" fill="black"/>
<path fill-rule="evenodd" clip-rule="evenodd" d="M5 3.75C4.31421 3.75 3.75 4.31421 3.75 5V7C3.75 7.41421 3.41421 7.75 3 7.75C2.58579 7.75 2.25 7.41421 2.25 7V5C2.25 3.48579 3.48579 2.25 5 2.25H7C7.41421 2.25 7.75 2.58579 7.75 3C7.75 3.41421 7.41421 3.75 7 3.75H5Z" fill="black"/>
<path fill-rule="evenodd" clip-rule="evenodd" d="M16.25 3C16.25 2.58579 16.5858 2.25 17 2.25H19C20.5142 2.25 21.75 3.48579 21.75 5V7C21.75 7.41421 21.4142 7.75 21 7.75C20.5858 7.75 20.25 7.41421 20.25 7V5C20.25 4.31421 19.6858 3.75 19 3.75H17C16.5858 3.75 16.25 3.41421 16.25 3Z" fill="black"/>
<path fill-rule="evenodd" clip-rule="evenodd" d="M21 16.25C21.4142 16.25 21.75 16.5858 21.75 17V19C21.75 20.5142 20.5142 21.75 19 21.75H17C16.5858 21.75 16.25 21.4142 16.25 21C16.25 20.5858 16.5858 20.25 17 20.25H19C19.6858 20.25 20.25 19.6858 20.25 19V17C20.25 16.5858 20.5858 16.25 21 16.25Z" fill="black"/>
<path fill-rule="evenodd" clip-rule="evenodd" d="M3 16.25C3.41421 16.25 3.75 16.5858 3.75 17V19C3.75 19.6858 4.31421 20.25 5 20.25H7C7.41421 20.25 7.75 20.5858 7.75 21C7.75 21.4142 7.41421 21.75 7 21.75H5C3.48579 21.75 2.25 20.5142 2.25 19V17C2.25 16.5858 2.58579 16.25 3 16.25Z" fill="black"/>
</svg>
