<svg width="24" height="24" viewBox="0 0 24 24" fill="none" xmlns="http://www.w3.org/2000/svg">
<path fill-rule="evenodd" clip-rule="evenodd" d="M5 3.75C4.31421 3.75 3.75 4.31421 3.75 5V7C3.75 7.41421 3.41421 7.75 3 7.75C2.58579 7.75 2.25 7.41421 2.25 7V5C2.25 3.48579 3.48579 2.25 5 2.25H7C7.41421 2.25 7.75 2.58579 7.75 3C7.75 3.41421 7.41421 3.75 7 3.75H5Z" fill="black"/>
<path fill-rule="evenodd" clip-rule="evenodd" d="M16.25 3C16.25 2.58579 16.5858 2.25 17 2.25H19C20.5142 2.25 21.75 3.48579 21.75 5V7C21.75 7.41421 21.4142 7.75 21 7.75C20.5858 7.75 20.25 7.41421 20.25 7V5C20.25 4.31421 19.6858 3.75 19 3.75H17C16.5858 3.75 16.25 3.41421 16.25 3Z" fill="black"/>
<path fill-rule="evenodd" clip-rule="evenodd" d="M21 16.25C21.4142 16.25 21.75 16.5858 21.75 17V19C21.75 20.5142 20.5142 21.75 19 21.75H17C16.5858 21.75 16.25 21.4142 16.25 21C16.25 20.5858 16.5858 20.25 17 20.25H19C19.6858 20.25 20.25 19.6858 20.25 19V17C20.25 16.5858 20.5858 16.25 21 16.25Z" fill="black"/>
<path fill-rule="evenodd" clip-rule="evenodd" d="M3 16.25C3.41421 16.25 3.75 16.5858 3.75 17V19C3.75 19.6858 4.31421 20.25 5 20.25H7C7.41421 20.25 7.75 20.5858 7.75 21C7.75 21.4142 7.41421 21.75 7 21.75H5C3.48579 21.75 2.25 20.5142 2.25 19V17C2.25 16.5858 2.58579 16.25 3 16.25Z" fill="black"/>
<path d="M15 8.29999V7.49999C15 6.89999 14.5 6.39999 13.9 6.39999H9.90005C9.30005 6.39999 8.80005 6.89999 8.80005 7.49999V8.29999C7.40005 8.29999 6.30005 9.39999 6.30005 10.8V14.5C6.30005 15.9 7.40005 17 8.80005 17H15C16.4 17 17.5 15.9 17.5 14.5V10.7C17.5 9.39999 16.4 8.29999 15 8.29999ZM12 14.5C11 14.5 10.1 13.7 10.1 12.6C10.1 11.6 10.9 10.7 12 10.7C13.1 10.7 13.9 11.5 13.9 12.6C13.8 13.6 13 14.5 12 14.5Z" fill="black"/>
<path fill-rule="evenodd" clip-rule="evenodd" d="M8.05005 7.49999C8.05005 6.48578 8.88583 5.64999 9.90005 5.64999H13.9C14.9143 5.64999 15.75 6.48578 15.75 7.49999V7.63464C17.183 7.96399 18.25 9.21546 18.25 10.7V14.5C18.25 16.3142 16.8143 17.75 15 17.75H8.80005C6.98584 17.75 5.55005 16.3142 5.55005 14.5V10.8C5.55005 9.2445 6.60553 7.96719 8.05005 7.63452V7.49999ZM9.90005 7.14999C9.71426 7.14999 9.55005 7.31421 9.55005 7.49999V9.04999H8.80005C7.81426 9.04999 7.05005 9.81421 7.05005 10.8V14.5C7.05005 15.4858 7.81426 16.25 8.80005 16.25H15C15.9858 16.25 16.75 15.4858 16.75 14.5V10.7C16.75 9.83398 16.0059 9.04999 15 9.04999H14.25V7.49999C14.25 7.31421 14.0858 7.14999 13.9 7.14999H9.90005ZM12 11.45C11.3397 11.45 10.85 11.9883 10.85 12.6C10.85 13.2603 11.3883 13.75 12 13.75C12.5173 13.75 13.0632 13.2544 13.1496 12.5626C13.133 11.8974 12.6733 11.45 12 11.45ZM9.35005 12.6C9.35005 11.2117 10.4604 9.94999 12 9.94999C13.5143 9.94999 14.65 11.0858 14.65 12.6V12.6374L14.6463 12.6746C14.5175 13.9634 13.4736 15.25 12 15.25C10.6118 15.25 9.35005 14.1397 9.35005 12.6Z" fill="black"/>
<path fill-rule="evenodd" clip-rule="evenodd" d="M11.9 11.45C11.2397 11.45 10.75 11.9883 10.75 12.6C10.75 13.2858 11.2142 13.75 11.9 13.75C12.5603 13.75 13.05 13.2117 13.05 12.6C13.05 11.9883 12.5603 11.45 11.9 11.45ZM9.25 12.6C9.25 11.2117 10.3603 9.94998 11.9 9.94998C13.4397 9.94998 14.55 11.2117 14.55 12.6C14.55 13.9883 13.4397 15.25 11.9 15.25C10.3858 15.25 9.25 14.1142 9.25 12.6Z" fill="white"/>
</svg>
