<svg width="24" height="24" viewBox="0 0 24 24" fill="none" xmlns="http://www.w3.org/2000/svg">
<path fill-rule="evenodd" clip-rule="evenodd" d="M5 3.75C4.31421 3.75 3.75 4.31421 3.75 5V7C3.75 7.41421 3.41421 7.75 3 7.75C2.58579 7.75 2.25 7.41421 2.25 7V5C2.25 3.48579 3.48579 2.25 5 2.25H7C7.41421 2.25 7.75 2.58579 7.75 3C7.75 3.41421 7.41421 3.75 7 3.75H5ZM9.94989 8.19989C9.94989 7.09654 10.8314 6.1499 11.9999 6.1499C12.6073 6.1499 13.1146 6.3753 13.4695 6.73022C13.8245 7.08515 14.0499 7.59247 14.0499 8.19989V8.2817C13.8694 8.26069 13.6858 8.24988 13.4999 8.24988H10.3999C10.2482 8.24988 10.0981 8.25707 9.94989 8.27114V8.19989ZM8.44989 8.67051V8.19989C8.44989 6.30324 9.96831 4.6499 11.9999 4.6499C12.9924 4.6499 13.8851 5.02448 14.5302 5.66956C15.1753 6.31463 15.5499 7.20731 15.5499 8.19989V8.71727C17.1441 9.48547 18.2499 11.1188 18.2499 12.9999V14.9999C18.2499 17.1141 16.6141 18.7499 14.4999 18.7499H9.3999C7.26953 18.7499 5.6499 16.9977 5.6499 14.9999V12.9999C5.6499 11.0797 6.80215 9.41769 8.44989 8.67051ZM7.1499 12.9999C7.1499 11.2141 8.61412 9.74988 10.3999 9.74988H13.4999C15.2857 9.74988 16.7499 11.2141 16.7499 12.9999V14.9999C16.7499 16.2857 15.7857 17.2499 14.4999 17.2499H9.3999C8.13028 17.2499 7.1499 16.202 7.1499 14.9999V12.9999ZM17 2.25C16.5858 2.25 16.25 2.58579 16.25 3C16.25 3.41421 16.5858 3.75 17 3.75H19C19.6858 3.75 20.25 4.31421 20.25 5V7C20.25 7.41421 20.5858 7.75 21 7.75C21.4142 7.75 21.75 7.41421 21.75 7V5C21.75 3.48579 20.5142 2.25 19 2.25H17ZM21 16.25C21.4142 16.25 21.75 16.5858 21.75 17V19C21.75 20.5142 20.5142 21.75 19 21.75H17C16.5858 21.75 16.25 21.4142 16.25 21C16.25 20.5858 16.5858 20.25 17 20.25H19C19.6858 20.25 20.25 19.6858 20.25 19V17C20.25 16.5858 20.5858 16.25 21 16.25ZM3.75 17C3.75 16.5858 3.41421 16.25 3 16.25C2.58579 16.25 2.25 16.5858 2.25 17V19C2.25 20.5142 3.48579 21.75 5 21.75H7C7.41421 21.75 7.75 21.4142 7.75 21C7.75 20.5858 7.41421 20.25 7 20.25H5C4.31421 20.25 3.75 19.6858 3.75 19V17Z" fill="black"/>
</svg>
