<svg width="24" height="24" viewBox="0 0 24 24" fill="none" xmlns="http://www.w3.org/2000/svg">
<path fill-rule="evenodd" clip-rule="evenodd" d="M3.75 5C3.75 4.31421 4.31421 3.75 5 3.75H7C7.41421 3.75 7.75 3.41421 7.75 3C7.75 2.58579 7.41421 2.25 7 2.25H5C3.48579 2.25 2.25 3.48579 2.25 5V7C2.25 7.41421 2.58579 7.75 3 7.75C3.41421 7.75 3.75 7.41421 3.75 7V5ZM17 2.25C16.5858 2.25 16.25 2.58579 16.25 3C16.25 3.41421 16.5858 3.75 17 3.75H19C19.6858 3.75 20.25 4.31421 20.25 5V7C20.25 7.41421 20.5858 7.75 21 7.75C21.4142 7.75 21.75 7.41421 21.75 7V5C21.75 3.48579 20.5142 2.25 19 2.25H17ZM21 16.25C21.4142 16.25 21.75 16.5858 21.75 17V19C21.75 20.5142 20.5142 21.75 19 21.75H17C16.5858 21.75 16.25 21.4142 16.25 21C16.25 20.5858 16.5858 20.25 17 20.25H19C19.6858 20.25 20.25 19.6858 20.25 19V17C20.25 16.5858 20.5858 16.25 21 16.25ZM3.75 17C3.75 16.5858 3.41421 16.25 3 16.25C2.58579 16.25 2.25 16.5858 2.25 17V19C2.25 20.5142 3.48579 21.75 5 21.75H7C7.41421 21.75 7.75 21.4142 7.75 21C7.75 20.5858 7.41421 20.25 7 20.25H5C4.31421 20.25 3.75 19.6858 3.75 19V17ZM12 8.75C12.4142 8.75 12.75 9.08579 12.75 9.5V11.25H14.4C14.8142 11.25 15.15 11.5858 15.15 12C15.15 12.4142 14.8142 12.75 14.4 12.75H12.75V14.4C12.75 14.8142 12.4142 15.15 12 15.15C11.5858 15.15 11.25 14.8142 11.25 14.4V12.75H9.5C9.08579 12.75 8.75 12.4142 8.75 12C8.75 11.5858 9.08579 11.25 9.5 11.25H11.25V9.5C11.25 9.08579 11.5858 8.75 12 8.75Z" fill="black"/>
</svg>
