<svg width="24" height="24" viewBox="0 0 24 24" fill="none" xmlns="http://www.w3.org/2000/svg">
<path fill-rule="evenodd" clip-rule="evenodd" d="M5 3.75C4.31421 3.75 3.75 4.31421 3.75 5V7C3.75 7.41421 3.41421 7.75 3 7.75C2.58579 7.75 2.25 7.41421 2.25 7V5C2.25 3.48579 3.48579 2.25 5 2.25H7C7.41421 2.25 7.75 2.58579 7.75 3C7.75 3.41421 7.41421 3.75 7 3.75H5Z" fill="black"/>
<path fill-rule="evenodd" clip-rule="evenodd" d="M16.25 3C16.25 2.58579 16.5858 2.25 17 2.25H19C20.5142 2.25 21.75 3.48579 21.75 5V7C21.75 7.41421 21.4142 7.75 21 7.75C20.5858 7.75 20.25 7.41421 20.25 7V5C20.25 4.31421 19.6858 3.75 19 3.75H17C16.5858 3.75 16.25 3.41421 16.25 3Z" fill="black"/>
<path fill-rule="evenodd" clip-rule="evenodd" d="M21 16.25C21.4142 16.25 21.75 16.5858 21.75 17V19C21.75 20.5142 20.5142 21.75 19 21.75H17C16.5858 21.75 16.25 21.4142 16.25 21C16.25 20.5858 16.5858 20.25 17 20.25H19C19.6858 20.25 20.25 19.6858 20.25 19V17C20.25 16.5858 20.5858 16.25 21 16.25Z" fill="black"/>
<path fill-rule="evenodd" clip-rule="evenodd" d="M3 16.25C3.41421 16.25 3.75 16.5858 3.75 17V19C3.75 19.6858 4.31421 20.25 5 20.25H7C7.41421 20.25 7.75 20.5858 7.75 21C7.75 21.4142 7.41421 21.75 7 21.75H5C3.48579 21.75 2.25 20.5142 2.25 19V17C2.25 16.5858 2.58579 16.25 3 16.25Z" fill="black"/>
<path d="M11.6999 16C14.0747 16 15.9999 14.0748 15.9999 11.7C15.9999 9.32517 14.0747 7.39999 11.6999 7.39999C9.32508 7.39999 7.3999 9.32517 7.3999 11.7C7.3999 14.0748 9.32508 16 11.6999 16Z" fill="black"/>
<path fill-rule="evenodd" clip-rule="evenodd" d="M11.6999 8.14999C9.73929 8.14999 8.1499 9.73938 8.1499 11.7C8.1499 13.6606 9.73929 15.25 11.6999 15.25C13.6605 15.25 15.2499 13.6606 15.2499 11.7C15.2499 9.73938 13.6605 8.14999 11.6999 8.14999ZM6.6499 11.7C6.6499 8.91096 8.91086 6.64999 11.6999 6.64999C14.4889 6.64999 16.7499 8.91096 16.7499 11.7C16.7499 14.489 14.4889 16.75 11.6999 16.75C8.91086 16.75 6.6499 14.489 6.6499 11.7Z" fill="black"/>
<path fill-rule="evenodd" clip-rule="evenodd" d="M14.3696 14.3697C14.6625 14.0768 15.1373 14.0768 15.4302 14.3697L17.0302 15.9697C17.3231 16.2626 17.3231 16.7374 17.0302 17.0303C16.7373 17.3232 16.2625 17.3232 15.9696 17.0303L14.3696 15.4303C14.0767 15.1374 14.0767 14.6626 14.3696 14.3697Z" fill="black"/>
</svg>
