<svg width="24" height="24" viewBox="0 0 24 24" fill="none" xmlns="http://www.w3.org/2000/svg">
<path d="M12 20.5C7.3 20.5 3.5 16.7 3.5 12V7.5C3.5 5.3 5.3 3.5 7.5 3.5H16.5C18.7 3.5 20.5 5.3 20.5 7.5V12C20.5 16.6 16.6 20.5 12 20.5Z" fill="black"/>
<path fill-rule="evenodd" clip-rule="evenodd" d="M7.5 4.25C5.71421 4.25 4.25 5.71421 4.25 7.5V12C4.25 16.2858 7.71421 19.75 12 19.75C16.1858 19.75 19.75 16.1858 19.75 12V7.5C19.75 5.71421 18.2858 4.25 16.5 4.25H7.5ZM2.75 7.5C2.75 4.88579 4.88579 2.75 7.5 2.75H16.5C19.1142 2.75 21.25 4.88579 21.25 7.5V12C21.25 17.0142 17.0142 21.25 12 21.25C6.88579 21.25 2.75 17.1142 2.75 12V7.5Z" fill="black"/>
</svg>
