<svg width="24" height="24" viewBox="0 0 24 24" fill="none" xmlns="http://www.w3.org/2000/svg">
<path fill-rule="evenodd" clip-rule="evenodd" d="M7.5 4.25C5.71421 4.25 4.25 5.71421 4.25 7.5V12C4.25 16.2858 7.71421 19.75 12 19.75C16.1858 19.75 19.75 16.1858 19.75 12V7.5C19.75 5.71421 18.2858 4.25 16.5 4.25H7.5ZM2.75 7.5C2.75 4.88579 4.88579 2.75 7.5 2.75H16.5C19.1142 2.75 21.25 4.88579 21.25 7.5V12C21.25 17.0142 17.0142 21.25 12 21.25C6.88579 21.25 2.75 17.1142 2.75 12V7.5ZM10.6304 9.56965C10.9233 9.86254 10.9233 10.3374 10.6304 10.6303L9.26076 12L10.6304 13.3697C10.9233 13.6626 10.9233 14.1374 10.6304 14.4303C10.3375 14.7232 9.86265 14.7232 9.56976 14.4303L8.16977 13.0303L8.16976 13.0303C7.89925 12.7598 7.7251 12.4007 7.7251 12C7.7251 11.5993 7.89925 11.2402 8.16977 10.9696L9.56976 9.56965C9.86265 9.27675 10.3375 9.27675 10.6304 9.56965ZM14.3304 9.46968C14.0376 9.17678 13.5627 9.17677 13.2698 9.46966C12.9769 9.76255 12.9769 10.2374 13.2698 10.5303L14.6394 11.9L13.2698 13.2697C12.9769 13.5626 12.9769 14.0375 13.2698 14.3303C13.5627 14.6232 14.0375 14.6232 14.3304 14.3303L15.7304 12.9304C16.0009 12.6598 16.1751 12.3007 16.1751 11.9C16.1751 11.4993 16.001 11.1402 15.7304 10.8697L15.7304 10.8697L14.3304 9.46968Z" fill="black"/>
</svg>
