<svg width="24" height="24" viewBox="0 0 24 24" fill="none" xmlns="http://www.w3.org/2000/svg">
<path d="M12.3 20.8C7.60005 20.8 3.80005 17 3.80005 12.3V7.79999C3.80005 5.59999 5.60005 3.79999 7.80005 3.79999H16.8C19 3.79999 20.8 5.59999 20.8 7.79999V12.3C20.8 16.9 16.9 20.8 12.3 20.8Z" fill="black"/>
<path fill-rule="evenodd" clip-rule="evenodd" d="M7.80005 4.54999C6.01426 4.54999 4.55005 6.0142 4.55005 7.79999V12.3C4.55005 16.5858 8.01426 20.05 12.3 20.05C16.4858 20.05 20.05 16.4858 20.05 12.3V7.79999C20.05 6.0142 18.5858 4.54999 16.8 4.54999H7.80005ZM3.05005 7.79999C3.05005 5.18577 5.18584 3.04999 7.80005 3.04999H16.8C19.4143 3.04999 21.55 5.18577 21.55 7.79999V12.3C21.55 17.3142 17.3143 21.55 12.3 21.55C7.18584 21.55 3.05005 17.4142 3.05005 12.3V7.79999Z" fill="black"/>
<path fill-rule="evenodd" clip-rule="evenodd" d="M10.9305 9.86966C11.2234 10.1626 11.2234 10.6374 10.9305 10.9303L9.60835 12.2524L10.9484 13.6883C11.2311 13.9911 11.2147 14.4657 10.9119 14.7483C10.6091 15.0309 10.1345 15.0145 9.85186 14.7117L8.49791 13.2611C8.16243 12.9932 8.02515 12.5957 8.02515 12.25C8.02515 11.9 8.16585 11.497 8.51045 11.229L9.86982 9.86966C10.1627 9.57677 10.6376 9.57677 10.9305 9.86966Z" fill="white"/>
<path fill-rule="evenodd" clip-rule="evenodd" d="M13.5698 9.76966C13.8627 9.47676 14.3375 9.47676 14.6304 9.76966L16.0304 11.1697C16.3009 11.4402 16.4751 11.7993 16.4751 12.2C16.4751 12.6007 16.3009 12.9598 16.0304 13.2303L14.6304 14.6303C14.3375 14.9232 13.8627 14.9232 13.5698 14.6303C13.2769 14.3374 13.2769 13.8626 13.5698 13.5697L14.9394 12.2L13.5698 10.8303C13.2769 10.5374 13.2769 10.0626 13.5698 9.76966Z" fill="white"/>
</svg>
