<svg width="24" height="24" viewBox="0 0 24 24" fill="none" xmlns="http://www.w3.org/2000/svg">
<path fill-rule="evenodd" clip-rule="evenodd" d="M4.25 7.5C4.25 5.71421 5.71421 4.25 7.5 4.25H16.5C18.2858 4.25 19.75 5.71421 19.75 7.5V12C19.75 16.1858 16.1858 19.75 12 19.75C7.71421 19.75 4.25 16.2858 4.25 12V7.5ZM7.5 2.75C4.88579 2.75 2.75 4.88579 2.75 7.5V12C2.75 17.1142 6.88579 21.25 12 21.25C17.0142 21.25 21.25 17.0142 21.25 12V7.5C21.25 4.88579 19.1142 2.75 16.5 2.75H7.5ZM15.5237 10.5368C15.8202 10.2476 15.8261 9.77274 15.5368 9.47626C15.2476 9.17977 14.7727 9.17391 14.4763 9.46317L10.7566 13.0921L9.6 11.55C9.35147 11.2186 8.88137 11.1515 8.55 11.4C8.21863 11.6485 8.15147 12.1186 8.4 12.45L9.93198 14.4926L9.96967 14.5303C10.1922 14.7528 10.4762 14.825 10.7 14.825C10.9224 14.825 11.2041 14.7538 11.426 14.5347L15.5237 10.5368Z" fill="black"/>
</svg>
