<svg xmlns="http://www.w3.org/2000/svg" fill="none" viewBox="0 0 24 24">
  <path fill="#000" d="M10.098 2.436a9.8 9.8 0 0 1 3.804 0 .75.75 0 0 1-.291 1.471 8.3 8.3 0 0 0-3.222 0 .75.75 0 1 1-.291-1.471m6.28 1.663a.75.75 0 0 1 1.04-.206 9.8 9.8 0 0 1 2.69 2.69.75.75 0 0 1-1.247.834 8.3 8.3 0 0 0-2.278-2.278.75.75 0 0 1-.206-1.04m-8.755 0a.75.75 0 0 1-.206 1.04 8.3 8.3 0 0 0-2.278 2.278.75.75 0 0 1-1.246-.835 9.8 9.8 0 0 1 2.69-2.69.75.75 0 0 1 1.04.207M3.317 9.508a.75.75 0 0 1 .59.881 8.3 8.3 0 0 0 0 3.222.75.75 0 0 1-1.471.291 9.8 9.8 0 0 1 0-3.804.75.75 0 0 1 .88-.59m17.366 0a.75.75 0 0 1 .881.59 9.8 9.8 0 0 1 0 3.804.75.75 0 1 1-1.471-.291 8.3 8.3 0 0 0 0-3.222.75.75 0 0 1 .59-.881m-.782 6.87a.75.75 0 0 1 .206 1.04 9.8 9.8 0 0 1-2.69 2.69.75.75 0 0 1-.834-1.247 8.3 8.3 0 0 0 2.278-2.278.75.75 0 0 1 1.04-.206m-15.802 0a.75.75 0 0 1 1.04.205 8.3 8.3 0 0 0 2.278 2.278.75.75 0 1 1-.835 1.246 9.8 9.8 0 0 1-2.69-2.69.75.75 0 0 1 .207-1.04m5.409 4.305a.75.75 0 0 1 .881-.59 8.3 8.3 0 0 0 3.222 0 .75.75 0 1 1 .291 1.471 9.8 9.8 0 0 1-3.804 0 .75.75 0 0 1-.59-.88M12 13.9c-1.1 0-1.9-.9-1.9-1.9V9.4c0-1.1.9-1.9 1.9-1.9 1.1 0 1.9.9 1.9 1.9V12c0 1-.9 1.9-1.9 1.9"/>
  <path fill="#000" d="M12 8.25c-.612 0-1.15.49-1.15 1.15V12c0 .612.49 1.15 1.15 1.15.586 0 1.15-.564 1.15-1.15V9.4c0-.612-.49-1.15-1.15-1.15M9.35 9.4c0-1.54 1.262-2.65 2.65-2.65 1.54 0 2.65 1.262 2.65 2.65V12c0 1.414-1.236 2.65-2.65 2.65-1.54 0-2.65-1.262-2.65-2.65z"/>
  <path fill="#000" d="M11.9 13.15a.75.75 0 0 1 .75.75v2.6a.75.75 0 0 1-1.5 0v-2.6a.75.75 0 0 1 .75-.75"/>
  <path fill="#000" d="M9.25 16.5a.75.75 0 0 1 .75-.75h3.9a.75.75 0 0 1 0 1.5H10a.75.75 0 0 1-.75-.75"/>
</svg>
