<svg xmlns="http://www.w3.org/2000/svg" fill="none" viewBox="0 0 24 24">
  <path fill="#000" d="M2.25 2.25h19.5v19.5H2.25zm1.5 1.5v16.5h16.5V3.75z"/>
  <path fill="#000" d="M12 13.9c-1.1 0-1.9-.9-1.9-1.9V9.4c0-1.1.9-1.9 1.9-1.9 1.1 0 1.9.9 1.9 1.9V12c0 1-.9 1.9-1.9 1.9"/>
  <path fill="#000" d="M12 8.25c-.612 0-1.15.49-1.15 1.15V12c0 .612.49 1.15 1.15 1.15.586 0 1.15-.564 1.15-1.15V9.4c0-.612-.49-1.15-1.15-1.15M9.35 9.4c0-1.54 1.262-2.65 2.65-2.65 1.54 0 2.65 1.262 2.65 2.65V12c0 1.414-1.236 2.65-2.65 2.65-1.54 0-2.65-1.262-2.65-2.65z"/>
  <path fill="#000" d="M11.9 13.15a.75.75 0 0 1 .75.75v2.6a.75.75 0 0 1-1.5 0v-2.6a.75.75 0 0 1 .75-.75"/>
  <path fill="#000" d="M9.25 16.5a.75.75 0 0 1 .75-.75h3.9a.75.75 0 0 1 0 1.5H10a.75.75 0 0 1-.75-.75"/>
</svg>
