<svg xmlns="http://www.w3.org/2000/svg" fill="none" viewBox="0 0 24 24">
  <path fill="#000" d="M12.1 13.5c-1.7 0-3-1.3-3-3v-4c0-1.7 1.3-3 3-3s3 1.3 3 3v4c0 1.6-1.4 3-3 3"/>
  <path fill="#000" d="M12.1 4.25c-1.286 0-2.25.964-2.25 2.25v4c0 1.286.964 2.25 2.25 2.25 1.186 0 2.25-1.064 2.25-2.25v-4c0-1.286-.964-2.25-2.25-2.25M8.35 6.5c0-2.114 1.636-3.75 3.75-3.75s3.75 1.636 3.75 3.75v4c0 2.014-1.736 3.75-3.75 3.75-2.114 0-3.75-1.636-3.75-3.75z"/>
  <path fill="#000" d="M6.037 10.768a.75.75 0 0 1 .895.57C7.458 13.705 9.563 15.45 12 15.45s4.542-1.744 5.068-4.113a.75.75 0 0 1 1.464.326c-.674 3.031-3.369 5.287-6.532 5.287s-5.858-2.255-6.532-5.287a.75.75 0 0 1 .57-.895"/>
  <path fill="#000" d="M12.1 15.75a.75.75 0 0 1 .75.75v4a.75.75 0 1 1-1.5 0v-4a.75.75 0 0 1 .75-.75"/>
  <path fill="#000" d="M8.35 20.5a.75.75 0 0 1 .75-.75h6a.75.75 0 1 1 0 1.5h-6a.75.75 0 0 1-.75-.75"/>
</svg>
