<svg xmlns="http://www.w3.org/2000/svg" fill="none" viewBox="0 0 24 24">
  <path fill="#000" d="M6.25 3.376a3.266 3.266 0 0 0-2.5 3.161v1.45h2.5zm0 6.111h-2.5v4.3h2.5zm-2.5 7.05v-1.25h2.5V19.7a3.266 3.266 0 0 1-2.5-3.161m4-13.25h8.5v9.25a.75.75 0 0 0 1.5 0v-3.05h2.5v3.05a.75.75 0 0 0 1.5 0v-6A4.76 4.76 0 0 0 17 1.787H7a4.76 4.76 0 0 0-4.75 4.75v10A4.76 4.76 0 0 0 7 21.288h5a.75.75 0 0 0 0-1.5H7.75zm12.5 4.7h-2.5V3.376a3.266 3.266 0 0 1 2.5 3.161zM15.6 19.476l2.824-2.823c-.822-.358-1.764-.205-2.382.404-.642.71-.772 1.658-.441 2.419m3.899-1.777-2.823 2.823c.822.358 1.764.205 2.382-.403.642-.71.772-1.659.441-2.42m-4.53-1.692c1.406-1.405 3.664-1.373 5.138-.022l.012.01.011.012c1.405 1.405 1.374 3.664.023 5.137l-.011.012-.012.012c-1.405 1.405-3.663 1.373-5.137.022l-.012-.01-.011-.012c-1.405-1.405-1.374-3.664-.023-5.137l.011-.012z"/>
</svg>
