<svg xmlns="http://www.w3.org/2000/svg" fill="none" viewBox="0 0 24 24">
  <path fill="#000" d="M12 21a9 9 0 1 0 0-18 9 9 0 0 0 0 18"/>
  <path fill="#000" d="M12 3.75a8.25 8.25 0 1 0 0 16.5 8.25 8.25 0 0 0 0-16.5M2.25 12c0-5.385 4.365-9.75 9.75-9.75s9.75 4.365 9.75 9.75-4.365 9.75-9.75 9.75S2.25 17.385 2.25 12"/>
  <path fill="#fff" d="M12 18a6 6 0 1 0 0-12 6 6 0 0 0 0 12"/>
  <path fill="#000" d="M12 6.75a5.25 5.25 0 1 0 0 10.5 5.25 5.25 0 0 0 0-10.5M5.25 12a6.75 6.75 0 1 1 13.5 0 6.75 6.75 0 0 1-13.5 0"/>
  <path fill="#000" d="M12 15a3 3 0 1 0 0-6 3 3 0 0 0 0 6"/>
  <path fill="#000" d="M12 9.75a2.25 2.25 0 1 0 0 4.5 2.25 2.25 0 0 0 0-4.5M8.25 12a3.75 3.75 0 1 1 7.5 0 3.75 3.75 0 0 1-7.5 0"/>
</svg>
