<svg xmlns="http://www.w3.org/2000/svg" fill="none" viewBox="0 0 24 24">
  <path fill="#000" d="M10.05 4.25v2.3h-5.9v-2.3c0-.7.6-1.3 1.3-1.3h3.3c.7.1 1.3.6 1.3 1.3"/>
  <path fill="#000" d="M5.45 3.7a.575.575 0 0 0-.55.55V5.8h4.4V4.25a.44.44 0 0 0-.153-.33.9.9 0 0 0-.457-.22zm-2.05.55c0-1.114.936-2.05 2.05-2.05h3.353l.053.008c.934.133 1.944.847 1.944 2.042V7.3H3.4z"/>
  <path fill="#000" d="M3.3 5.9h7.5v13.85c0 1.114-.936 2.05-2.05 2.05h-3.4a2.073 2.073 0 0 1-2.05-2.05zm1.5 1.5v12.35c0 .286.264.55.55.55h3.4c.286 0 .55-.264.55-.55V7.4zm15.15 4.65v7.7c0 .7-.6 1.3-1.3 1.3h-3.3c-.7 0-1.3-.6-1.3-1.3v-7.7z"/>
  <path fill="#000" d="M13.3 11.3h7.4v8.45c0 1.114-.936 2.05-2.05 2.05h-3.3a2.073 2.073 0 0 1-2.05-2.05zm1.5 1.5v6.95c0 .286.264.55.55.55h3.3c.286 0 .55-.264.55-.55V12.8z"/>
  <path fill="#000" d="M15.35 3.7a.575.575 0 0 0-.55.55v6.95h4.4V4.25a.46.46 0 0 0-.13-.345c-.08-.08-.228-.167-.471-.205zm-2.05.55c0-1.114.936-2.05 2.05-2.05h3.347l.046.006c.531.066 1.022.273 1.387.639.372.372.57.865.57 1.405v8.45h-7.4z"/>
  <path fill="#000" d="M17.05 8.65c-.3 0-.5-.1-.7-.3s-.3-.4-.3-.7.1-.5.3-.7c.4-.4 1-.4 1.4 0 .2.2.3.4.3.7s-.1.5-.3.7-.5.3-.7.3m-10 8.5c-.3 0-.5-.1-.7-.3s-.3-.4-.3-.7.1-.5.3-.7c.4-.4 1-.4 1.4 0 .2.2.3.4.3.7s-.1.5-.3.7-.4.3-.7.3"/>
</svg>
