<svg width="24" height="24" viewBox="0 0 24 24" fill="none" xmlns="http://www.w3.org/2000/svg">
<path fill-rule="evenodd" clip-rule="evenodd" d="M18.8697 5.13023C17.5626 3.82313 15.5375 3.82313 14.2304 5.13023L13.0065 6.35408L17.6048 11.0345L18.8697 9.76958C20.1768 8.46248 20.1768 6.43734 18.8697 5.13023ZM18.1367 12.6239L19.9303 10.8302C21.8232 8.93735 21.8232 5.96247 19.9303 4.06957C18.0375 2.17668 15.0626 2.17668 13.1697 4.06957L4.06969 13.1696C2.17964 15.0596 2.17681 18.0284 4.06119 19.9217C5.86785 21.8387 8.95016 21.8104 10.8304 19.9303L12.5194 18.2412C12.5247 18.2361 12.5299 18.231 12.5351 18.2257L12.541 18.2196L18.1243 12.6363C18.1248 12.6358 18.1253 12.6353 18.1257 12.6349C18.1294 12.6313 18.1331 12.6276 18.1367 12.6239ZM16.5441 12.0952L11.9458 7.41478L7.31487 12.0457L11.9953 16.644L16.5441 12.0952ZM5.13035 14.2302L6.25417 13.1064L10.9346 17.7047L9.76969 18.8696C8.45277 20.1865 6.34167 20.1611 5.14718 18.887L5.13891 18.8781L5.13035 18.8696C3.82325 17.5625 3.82325 15.5373 5.13035 14.2302Z" fill="black"/>
<path d="M10.905 11.9811C10.805 11.9811 10.705 11.8811 10.605 11.8811C10.505 11.8811 10.405 11.7811 10.405 11.6811C10.205 11.5811 10.205 11.3811 10.205 11.1811C10.205 11.0811 10.205 10.9811 10.305 10.8811C10.405 10.7811 10.405 10.6811 10.505 10.6811C10.605 10.4811 10.905 10.3811 11.205 10.4811C11.305 10.4811 11.405 10.5811 11.405 10.6811C11.505 10.6811 11.505 10.7811 11.605 10.8811C11.705 10.9811 11.705 11.0811 11.705 11.1811C11.705 11.3811 11.605 11.5811 11.505 11.6811C11.305 11.8811 11.105 11.9811 10.905 11.9811Z" fill="black"/>
<path d="M12.905 13.981C12.705 13.981 12.505 13.881 12.405 13.781C12.305 13.681 12.305 13.581 12.205 13.581C12.205 13.481 12.105 13.381 12.105 13.281C12.105 13.181 12.105 13.081 12.205 12.981C12.205 12.881 12.305 12.781 12.405 12.781C12.505 12.781 12.505 12.481 12.605 12.481C12.805 12.381 13.005 12.381 13.205 12.481C13.305 12.481 13.405 12.581 13.405 12.681C13.505 12.781 13.505 12.881 13.605 12.881C13.605 12.981 13.705 13.081 13.705 13.181C13.705 13.281 13.705 13.381 13.605 13.481C13.605 13.581 13.505 13.681 13.405 13.681C13.305 13.881 13.105 13.981 12.905 13.981Z" fill="black"/>
</svg>
