<svg width="24" height="24" viewBox="0 0 24 24" fill="none" xmlns="http://www.w3.org/2000/svg">
<path d="M12.0499 6.3432L6.39307 12L12.0499 17.6568L17.7067 12L12.0499 6.3432Z" fill="black"/>
<path fill-rule="evenodd" clip-rule="evenodd" d="M5.3324 12L12.0498 5.28255L18.7673 12L12.0498 18.7174L5.3324 12ZM7.4537 12L12.0498 16.5961L16.646 12L12.0498 7.40385L7.4537 12Z" fill="black"/>
<path fill-rule="evenodd" clip-rule="evenodd" d="M18.9197 5.13048C17.6126 3.82337 15.5875 3.82337 14.2804 5.13048L13.1107 6.30015L17.7337 10.9232L18.8117 9.77785L18.8197 9.76982C19.4835 9.10598 19.8 8.29498 19.8 7.50015C19.8 6.54405 19.5444 5.75519 18.9197 5.13048ZM13.2197 4.06982C15.1126 2.17692 18.0875 2.17692 19.9804 4.06982C20.9557 5.0451 21.3 6.25624 21.3 7.50015C21.3 8.70173 20.8194 9.88724 19.8887 10.8221L17.7664 13.0771L10.9894 6.30015L13.2197 4.06982Z" fill="black"/>
<path fill-rule="evenodd" clip-rule="evenodd" d="M6.35001 10.9395L13.1107 17.7001L10.8803 19.9304C8.98745 21.8233 6.01258 21.8233 4.11968 19.9304C2.22679 18.0376 2.22679 15.0627 4.11968 13.1698L6.35001 10.9395ZM6.35001 13.0608L5.18034 14.2304C3.87324 15.5375 3.87324 17.5627 5.18034 18.8698C6.48745 20.1769 8.51258 20.1769 9.81968 18.8698L10.9894 17.7001L6.35001 13.0608Z" fill="black"/>
<path d="M11.05 11.8001C10.85 11.8001 10.65 11.7001 10.55 11.5001C10.35 11.4001 10.35 11.2001 10.35 11.0001C10.35 10.9001 10.35 10.8001 10.45 10.7001C10.55 10.6001 10.55 10.5001 10.65 10.5001C10.95 10.2001 11.45 10.2001 11.75 10.5001C11.65 10.5001 11.65 10.6001 11.75 10.7001C11.85 10.8001 11.85 10.9001 11.85 11.0001C11.85 11.1001 11.85 11.2001 11.75 11.3001C11.65 11.4001 11.65 11.5001 11.55 11.5001C11.45 11.7001 11.25 11.8001 11.05 11.8001Z" fill="white"/>
<path d="M13.05 13.8001C12.85 13.8001 12.65 13.7001 12.55 13.6001C12.45 13.5001 12.35 13.3001 12.35 13.1001C12.35 12.9001 12.45 12.7001 12.55 12.6001C12.55 12.4001 12.65 12.3001 12.75 12.3001C12.95 12.2001 13.15 12.2001 13.35 12.3001C13.45 12.3001 13.55 12.4001 13.55 12.5001C13.65 12.6001 13.75 12.8001 13.75 13.0001C13.75 13.2001 13.65 13.4001 13.55 13.5001C13.45 13.6001 13.35 13.6001 13.35 13.7001C13.25 13.7001 13.15 13.8001 13.05 13.8001Z" fill="white"/>
</svg>
