<svg width="24" height="24" viewBox="0 0 24 24" fill="none" xmlns="http://www.w3.org/2000/svg">
<path fill-rule="evenodd" clip-rule="evenodd" d="M9.36443 8.00254C8.4069 8.411 7.75 9.2623 7.75 10.3001V19.5001C7.75 19.8859 8.11421 20.2501 8.5 20.2501H15.5C15.8858 20.2501 16.25 19.8859 16.25 19.5001V18.7501H12.7C11.3858 18.7501 10.25 17.6143 10.25 16.3001V13.6001C10.25 12.2859 11.2858 11.2501 12.6 11.2501H16.25V10.3001C16.25 9.27113 15.6042 8.42549 14.6599 8.01305C14.6148 8.00161 14.5723 7.99067 14.5319 7.98025C14.2172 7.89918 14.0266 7.8501 13.7 7.8501H10.1C9.84194 7.8501 9.649 7.90799 9.36443 8.00254ZM8.88233 6.58208C9.18051 6.4826 9.57768 6.3501 10.1 6.3501H13.7C14.2288 6.3501 14.602 6.44762 14.928 6.53284C14.9804 6.54652 15.0315 6.55989 15.0819 6.57249L15.1365 6.58614L15.1885 6.60779C16.6179 7.20339 17.75 8.54655 17.75 10.3001V12.7501H12.6C12.1142 12.7501 11.75 13.1143 11.75 13.6001V16.3001C11.75 16.7859 12.2142 17.2501 12.7 17.2501H17.75V19.5001C17.75 20.7143 16.7142 21.7501 15.5 21.7501H8.5C7.28579 21.7501 6.25 20.7143 6.25 19.5001V10.3001C6.25 8.54655 7.38209 7.20339 8.81154 6.60779L8.83683 6.59725L8.86283 6.58859C8.86928 6.58643 8.87578 6.58426 8.88233 6.58208Z" fill="black"/>
<path fill-rule="evenodd" clip-rule="evenodd" d="M11.9 5.75C10.8565 5.75 9.95389 6.50181 9.73078 7.46864C9.63764 7.87225 9.23494 8.12393 8.83134 8.03079C8.42773 7.93765 8.17605 7.53496 8.26919 7.13136C8.64607 5.49819 10.1435 4.25 11.9 4.25C13.6565 4.25 15.1539 5.49819 15.5308 7.13136C15.6239 7.53496 15.3722 7.93765 14.9686 8.03079C14.565 8.12393 14.1623 7.87225 14.0692 7.46864C13.8461 6.50181 12.9435 5.75 11.9 5.75Z" fill="black"/>
<path fill-rule="evenodd" clip-rule="evenodd" d="M12.75 3V5H11.25V3H12.75Z" fill="black"/>
<path fill-rule="evenodd" clip-rule="evenodd" d="M8.25 3C8.25 2.58579 8.58579 2.25 9 2.25H14.3C14.9439 2.25 15.5251 2.56441 15.9303 2.96967L17.4303 4.46967C17.7232 4.76256 17.7232 5.23744 17.4303 5.53033C17.1374 5.82322 16.6626 5.82322 16.3697 5.53033L14.8697 4.03033C14.6749 3.83559 14.4561 3.75 14.3 3.75H9C8.58579 3.75 8.25 3.41421 8.25 3Z" fill="black"/>
<path d="M17 11.9999V17.9999H12.6C11.7 17.9999 10.9 17.1999 10.9 16.2999V13.5999C10.9 12.6999 11.7 11.8999 12.6 11.8999H17V11.9999Z" fill="black"/>
<path fill-rule="evenodd" clip-rule="evenodd" d="M12.6 12.6499C12.1142 12.6499 11.65 13.1141 11.65 13.5999V16.2999C11.65 16.7857 12.1142 17.2499 12.6 17.2499H16.25V12.6499H12.6ZM10.15 13.5999C10.15 12.2857 11.2858 11.1499 12.6 11.1499H17.75V18.7499H12.6C11.2858 18.7499 10.15 17.6141 10.15 16.2999V13.5999Z" fill="black"/>
</svg>
