<svg width="24" height="24" viewBox="0 0 24 24" fill="none" xmlns="http://www.w3.org/2000/svg">
<path d="M3 17V7C3 4.8 4.8 3 7 3H17C19.2 3 21 4.8 21 7V17C21 19.2 19.2 21 17 21H7C4.7 21 3 19.2 3 17Z" fill="black"/>
<path fill-rule="evenodd" clip-rule="evenodd" d="M7 3.75C5.21421 3.75 3.75 5.21421 3.75 7V17C3.75 18.7981 5.12646 20.25 7 20.25H17C18.7858 20.25 20.25 18.7858 20.25 17V7C20.25 5.21421 18.7858 3.75 17 3.75H7ZM2.25 7C2.25 4.38579 4.38579 2.25 7 2.25H17C19.6142 2.25 21.75 4.38579 21.75 7V17C21.75 19.6142 19.6142 21.75 17 21.75H7C4.27354 21.75 2.25 19.6019 2.25 17V7Z" fill="black"/>
<path fill-rule="evenodd" clip-rule="evenodd" d="M6.75 10C6.75 9.58579 7.08579 9.25 7.5 9.25H16.5C16.9142 9.25 17.25 9.58579 17.25 10C17.25 10.4142 16.9142 10.75 16.5 10.75H7.5C7.08579 10.75 6.75 10.4142 6.75 10Z" fill="white"/>
<path fill-rule="evenodd" clip-rule="evenodd" d="M9.58399 6.37604C9.92864 6.14628 10.3943 6.23941 10.6241 6.58405L12.6241 9.58405C12.8538 9.9287 12.7607 10.3944 12.416 10.6241C12.0714 10.8539 11.6057 10.7608 11.376 10.4161L9.37598 7.4161C9.14622 7.07146 9.23935 6.60581 9.58399 6.37604Z" fill="white"/>
</svg>
