<svg xmlns="http://www.w3.org/2000/svg" fill="none" viewBox="0 0 24 24">
  <path fill="#000" d="M12 20.1a7.9 7.9 0 1 0 0-15.8 7.9 7.9 0 0 0 0 15.8"/>
  <path fill="#000" d="M12 5.05a7.15 7.15 0 1 0 0 14.3 7.15 7.15 0 0 0 0-14.3M3.35 12.2a8.65 8.65 0 1 1 17.3 0 8.65 8.65 0 0 1-17.3 0m2.88-9.13a.75.75 0 0 1 0 1.06l-1.5 1.5a.75.75 0 1 1-1.06-1.06l1.5-1.5a.75.75 0 0 1 1.06 0"/>
  <path fill="#000" d="M7.847 18.387a.75.75 0 0 1-.034 1.06l-1.6 1.5a.75.75 0 0 1-1.026-1.094l1.6-1.5a.75.75 0 0 1 1.06.034m9.906-15.3a.75.75 0 0 1 1.06-.034l1.6 1.5a.75.75 0 1 1-1.026 1.094l-1.6-1.5a.75.75 0 0 1-.034-1.06m-1.6 15.3a.75.75 0 0 1 1.06-.034l1.6 1.5a.75.75 0 1 1-1.026 1.094l-1.6-1.5a.75.75 0 0 1-.034-1.06"/>
  <path fill="#fff" d="M14.338 9.977a.75.75 0 0 1-.015 1.06l-3.5 3.4a.75.75 0 0 1-1.046-1.075l3.5-3.4a.75.75 0 0 1 1.06.015"/>
  <path fill="#fff" d="M9.762 9.977a.75.75 0 0 1 1.06-.015l3.5 3.4a.75.75 0 1 1-1.045 1.076l-3.5-3.4a.75.75 0 0 1-.015-1.06"/>
</svg>
