<svg xmlns="http://www.w3.org/2000/svg" fill="none" viewBox="0 0 24 24">
  <path fill="#000" d="M12 5.05a7.15 7.15 0 1 0 0 14.3 7.15 7.15 0 0 0 0-14.3M3.35 12.2a8.65 8.65 0 1 1 17.3 0 8.65 8.65 0 0 1-17.3 0"/>
  <path fill="#000" d="M11.5 7.55a.75.75 0 0 1 .75.75v4c0 .156.086.375.28.57l1.9 1.9a.75.75 0 0 1-1.06 1.06l-1.9-1.9c-.406-.405-.72-.986-.72-1.63v-4a.75.75 0 0 1 .75-.75M6.23 3.07a.75.75 0 0 1 0 1.06l-1.5 1.5a.75.75 0 1 1-1.06-1.06l1.5-1.5a.75.75 0 0 1 1.06 0m1.617 15.317a.75.75 0 0 1-.034 1.06l-1.6 1.5a.75.75 0 0 1-1.026-1.094l1.6-1.5a.75.75 0 0 1 1.06.034m9.906-15.3a.75.75 0 0 1 1.06-.034l1.6 1.5a.75.75 0 1 1-1.026 1.094l-1.6-1.5a.75.75 0 0 1-.034-1.06m-1.6 15.3a.75.75 0 0 1 1.06-.034l1.6 1.5a.75.75 0 1 1-1.026 1.094l-1.6-1.5a.75.75 0 0 1-.034-1.06"/>
</svg>
