<svg xmlns="http://www.w3.org/2000/svg" fill="none" viewBox="0 0 24 24">
  <path fill="#000" d="M21.08 16.72a.75.75 0 0 1 0 1.06l-4.3 4.3a.75.75 0 1 1-1.06-1.06l4.3-4.3a.75.75 0 0 1 1.06 0"/>
  <path fill="#000" d="M15.72 16.72a.75.75 0 0 1 1.06 0l4.3 4.3a.75.75 0 1 1-1.06 1.06l-4.3-4.3a.75.75 0 0 1 0-1.06m3.73-8.27v1h-16v-1c0-2.2 1.8-4 4-4h8c2.2 0 4 1.7 4 4"/>
  <path fill="#000" d="M7.45 5.2A3.26 3.26 0 0 0 4.2 8.45v.25h14.5v-.25c0-1.873-1.452-3.25-3.25-3.25zM2.7 8.45A4.76 4.76 0 0 1 7.45 3.7h8c2.602 0 4.75 2.024 4.75 4.75v1.75H2.7z"/>
  <path fill="#000" d="M3.45 8.7a.75.75 0 0 1 .75.75v7a3.26 3.26 0 0 0 3.25 3.25h4a.75.75 0 0 1 0 1.5h-4a4.76 4.76 0 0 1-4.75-4.75v-7a.75.75 0 0 1 .75-.75m16 0a.75.75 0 0 1 .75.75v5a.75.75 0 0 1-1.5 0v-5a.75.75 0 0 1 .75-.75m-12-7a.75.75 0 0 1 .75.75v4a.75.75 0 1 1-1.5 0v-4a.75.75 0 0 1 .75-.75m8 0a.75.75 0 0 1 .75.75v4a.75.75 0 0 1-1.5 0v-4a.75.75 0 0 1 .75-.75"/>
</svg>
