<svg xmlns="http://www.w3.org/2000/svg" fill="none" viewBox="0 0 24 24">
  <path fill="#000" d="M20 9v1H4V9c0-2.2 1.8-4 4-4h8c2.2 0 4 1.7 4 4"/>
  <path fill="#000" d="M8 5.75A3.26 3.26 0 0 0 4.75 9v.25h14.5V9c0-1.874-1.452-3.25-3.25-3.25zM3.25 9A4.76 4.76 0 0 1 8 4.25h8c2.602 0 4.75 2.024 4.75 4.75v1.75H3.25z"/>
  <path fill="#000" d="M3.25 9.25h17.5V17A4.76 4.76 0 0 1 16 21.75H8A4.76 4.76 0 0 1 3.25 17zm1.5 1.5V17A3.26 3.26 0 0 0 8 20.25h8A3.26 3.26 0 0 0 19.25 17v-6.25zm4.25 3c-.386 0-.75.364-.75.75s.364.75.75.75.75-.364.75-.75-.364-.75-.75-.75m-2.25.75c0-1.214 1.036-2.25 2.25-2.25s2.25 1.036 2.25 2.25-1.036 2.25-2.25 2.25-2.25-1.036-2.25-2.25m8.25-.75c-.386 0-.75.364-.75.75s.364.75.75.75.75-.364.75-.75-.364-.75-.75-.75m-2.25.75c0-1.214 1.036-2.25 2.25-2.25s2.25 1.036 2.25 2.25-1.036 2.25-2.25 2.25-2.25-1.036-2.25-2.25"/>
  <path fill="#000" d="M9 13.75a.75.75 0 1 0 0 1.5.75.75 0 0 0 0-1.5m-2.25.75a2.25 2.25 0 1 1 4.5 0 2.25 2.25 0 0 1-4.5 0m8.25-.75a.75.75 0 1 0 0 1.5.75.75 0 0 0 0-1.5m-2.25.75a2.25 2.25 0 1 1 4.5 0 2.25 2.25 0 0 1-4.5 0M8 2.25a.75.75 0 0 1 .75.75v4a.75.75 0 0 1-1.5 0V3A.75.75 0 0 1 8 2.25m8 0a.75.75 0 0 1 .75.75v4a.75.75 0 0 1-1.5 0V3a.75.75 0 0 1 .75-.75"/>
  <path fill="#000" d="M9 16a1.5 1.5 0 1 0 0-3 1.5 1.5 0 0 0 0 3"/>
  <path fill="#000" d="M9 13.75a.75.75 0 1 0 0 1.5.75.75 0 0 0 0-1.5m-2.25.75a2.25 2.25 0 1 1 4.5 0 2.25 2.25 0 0 1-4.5 0M15 16a1.5 1.5 0 1 0 0-3 1.5 1.5 0 0 0 0 3"/>
  <path fill="#000" d="M15 13.75a.75.75 0 1 0 0 1.5.75.75 0 0 0 0-1.5m-2.25.75a2.25 2.25 0 1 1 4.5 0 2.25 2.25 0 0 1-4.5 0"/>
</svg>
