<svg xmlns="http://www.w3.org/2000/svg" fill="none" viewBox="0 0 24 24">
  <path fill="#000" d="M5.75 7a2.25 2.25 0 1 1 4.5 0 2.25 2.25 0 0 1-4.5 0M8 3.25a3.75 3.75 0 1 0 0 7.5 3.75 3.75 0 0 0 0-7.5M14.75 7a2.25 2.25 0 1 1 4.5 0 2.25 2.25 0 0 1-4.5 0M17 3.25a3.75 3.75 0 1 0 0 7.5 3.75 3.75 0 0 0 0-7.5m-9 10.5a2.25 2.25 0 1 0 0 4.5 2.25 2.25 0 0 0 0-4.5M4.25 16a3.75 3.75 0 1 1 7.5 0 3.75 3.75 0 0 1-7.5 0m10.5 0a2.25 2.25 0 1 1 4.5 0 2.25 2.25 0 0 1-4.5 0M17 12.25a3.75 3.75 0 1 0 0 7.5 3.75 3.75 0 0 0 0-7.5"/>
</svg>
