<svg xmlns="http://www.w3.org/2000/svg" fill="none" viewBox="0 0 24 24">
  <path fill="#000" d="M7.5 10.5a3 3 0 1 0 0-6 3 3 0 0 0 0 6"/>
  <path fill="#000" d="M7.5 5.25a2.25 2.25 0 1 0 0 4.5 2.25 2.25 0 0 0 0-4.5M3.75 7.5a3.75 3.75 0 1 1 7.5 0 3.75 3.75 0 0 1-7.5 0m12.75 3a3 3 0 1 0 0-6 3 3 0 0 0 0 6"/>
  <path fill="#000" d="M16.5 5.25a2.25 2.25 0 1 0 0 4.5 2.25 2.25 0 0 0 0-4.5M12.75 7.5a3.75 3.75 0 1 1 7.5 0 3.75 3.75 0 0 1-7.5 0m-5.25 12a3 3 0 1 0 0-6 3 3 0 0 0 0 6"/>
  <path fill="#000" d="M7.5 14.25a2.25 2.25 0 1 0 0 4.5 2.25 2.25 0 0 0 0-4.5M3.75 16.5a3.75 3.75 0 1 1 7.5 0 3.75 3.75 0 0 1-7.5 0m10.02-2.73a.75.75 0 0 1 1.06 0l4.3 4.3a.75.75 0 0 1-1.06 1.06l-4.3-4.3a.75.75 0 0 1 0-1.06"/>
  <path fill="#000" d="M19.13 13.77a.75.75 0 0 1 0 1.06l-4.3 4.3a.75.75 0 0 1-1.06-1.06l4.3-4.3a.75.75 0 0 1 1.06 0"/>
</svg>
