<svg xmlns="http://www.w3.org/2000/svg" fill="none" viewBox="0 0 24 24">
  <path fill="#000" d="M19 7.05v2.2H5v-2.2c0-2.2 1.8-4 4-4h6c2.2 0 4 1.7 4 4"/>
  <path fill="#000" d="M9 3.8a3.26 3.26 0 0 0-3.25 3.25V8.5h12.5V7.05c0-1.874-1.452-3.25-3.25-3.25zM4.25 7.05A4.76 4.76 0 0 1 9 2.3h6c2.602 0 4.75 2.023 4.75 4.75V10H4.25z"/>
  <path fill="#000" d="M4.25 8.4h15.5v8.55A4.76 4.76 0 0 1 15 21.7H9a4.76 4.76 0 0 1-4.75-4.75zm1.5 1.5v7.05A3.26 3.26 0 0 0 9 20.2h6a3.26 3.26 0 0 0 3.25-3.25V9.9z"/>
</svg>
