<svg xmlns="http://www.w3.org/2000/svg" fill="none" viewBox="0 0 24 24">
  <path fill="#000" d="m19.55 8.6-3.4 3.4-4.1-4.2 3.3-3.4c.5-.5 1.3-.5 1.8 0l2.4 2.4c.5.5.5 1.3 0 1.8"/>
  <path fill="#000" d="M15.884 4.927 13.096 7.8l3.06 3.134L19.02 8.07a.52.52 0 0 0 0-.74l-2.4-2.4a.517.517 0 0 0-.737-.003ZM14.82 3.87a2.017 2.017 0 0 1 2.86 0l2.4 2.4a2.017 2.017 0 0 1 0 2.86l-3.936 3.937-5.14-5.265zM12.05 16.1l-3.4 3.4c-.5.5-1.3.5-1.8 0l-2.4-2.4c-.5-.5-.5-1.3 0-1.8l3.4-3.4z"/>
  <path fill="#000" d="m7.85 10.84 5.26 5.26-3.93 3.93a2.017 2.017 0 0 1-2.86 0l-2.4-2.4a2.017 2.017 0 0 1 0-2.86zm0 2.12-2.87 2.87a.52.52 0 0 0 0 .74l2.4 2.4a.52.52 0 0 0 .74 0l2.87-2.87z"/>
  <path fill="#000" d="m19.55 17.2-2.4 2.4c-.5.5-1.3.5-1.8 0l-3.4-3.4 4.2-4.2 3.4 3.4c.5.4.5 1.3 0 1.8"/>
  <path fill="#000" d="m16.15 10.94 3.905 3.905c.442.374.62.923.62 1.417a2.08 2.08 0 0 1-.595 1.468l-2.4 2.4a2.02 2.02 0 0 1-2.86 0l-3.93-3.93zm-3.14 5.26 2.87 2.87a.52.52 0 0 0 .74 0l2.4-2.4a.6.6 0 0 0 .155-.408c0-.167-.062-.251-.094-.276l-.032-.026-2.899-2.9z"/>
  <path fill="#000" d="m11.99 7.802-4.172 4.172 4.172 4.172 4.172-4.172z"/>
  <path fill="#000" d="M6.757 11.974 11.99 6.74l5.233 5.233-5.233 5.232-5.233-5.232Zm2.122 0 3.111 3.111 3.111-3.111-3.111-3.111-3.111 3.11Z"/>
  <path fill="#000" d="M12.05 7.8 7.85 12l-3.4-3.4c-.5-.5-.5-1.3 0-1.8l2.4-2.4c.5-.5 1.3-.5 1.8 0z"/>
  <path fill="#000" d="M8.12 4.93a.52.52 0 0 0-.74 0l-2.4 2.4a.52.52 0 0 0 0 .74l2.87 2.87 3.14-3.14zm-1.8-1.06a2.017 2.017 0 0 1 2.86 0l3.93 3.93-5.26 5.26-3.93-3.93a2.017 2.017 0 0 1 0-2.86z"/>
</svg>
