<svg xmlns="http://www.w3.org/2000/svg" fill="none" viewBox="0 0 24 24">
  <path fill="#000" d="M15.884 4.927a.517.517 0 0 1 .736.003l2.4 2.4a.52.52 0 0 1 0 .74l-3.4 3.4a.75.75 0 0 0 1.06 1.06l3.4-3.4a2.017 2.017 0 0 0 0-2.86l-2.4-2.4a2.017 2.017 0 0 0-2.86 0l-3.308 3.408a.75.75 0 1 0 1.076 1.044zM8.38 11.37a.75.75 0 0 1 0 1.06l-3.4 3.4a.52.52 0 0 0 0 .74l2.4 2.4a.52.52 0 0 0 .74 0l3.4-3.4a.75.75 0 1 1 1.06 1.06l-3.4 3.4a2.02 2.02 0 0 1-2.86 0l-2.4-2.4a2.02 2.02 0 0 1 0-2.86l3.4-3.4a.75.75 0 0 1 1.06 0"/>
  <path fill="#000" d="M15.62 11.47a.75.75 0 0 1 1.06 0l3.4 3.4a2.017 2.017 0 0 1 0 2.86l-2.4 2.4a2.017 2.017 0 0 1-2.86 0l-3.4-3.4a.75.75 0 1 1 1.06-1.06l3.4 3.4a.52.52 0 0 0 .74 0l2.4-2.4a.52.52 0 0 0 0-.74l-3.4-3.4a.75.75 0 0 1 0-1.06m-7.5-6.54a.52.52 0 0 0-.74 0l-2.4 2.4a.52.52 0 0 0 0 .74l3.4 3.4a.75.75 0 0 1-1.06 1.06l-3.4-3.4a2.017 2.017 0 0 1 0-2.86l2.4-2.4a2.017 2.017 0 0 1 2.86 0l3.4 3.4a.75.75 0 0 1-1.06 1.06z"/>
</svg>
