<svg xmlns="http://www.w3.org/2000/svg" fill="none" viewBox="0 0 24 24">
  <path fill="#000" d="M21.05 15c0 1.1-.2 2.1-.5 3.1H3.45c-.4-1-.5-2-.5-3.1 0-5 4.1-9.1 9.1-9.1 4.9.1 9 4.1 9 9.1"/>
  <path fill="#000" d="M12.042 6.65C7.46 6.654 3.7 10.417 3.7 15c0 .867.065 1.623.282 2.35h16c.198-.77.318-1.533.318-2.35 0-4.575-3.755-8.254-8.258-8.35M2.2 15c0-5.414 4.436-9.85 9.85-9.85h.015C17.36 5.258 21.8 9.578 21.8 15c0 1.195-.218 2.27-.532 3.316l-.16.534H2.942l-.188-.471C2.304 17.253 2.2 16.144 2.2 15"/>
  <path fill="#fff" d="M9.328 9.68a.75.75 0 0 1 1.042.198l3.2 4.7a.75.75 0 1 1-1.24.844l-3.2-4.7a.75.75 0 0 1 .198-1.042"/>
</svg>
