<svg xmlns="http://www.w3.org/2000/svg" fill="none" viewBox="0 0 24 24">
  <path fill="#000" d="m6.85 19.55-2.4-2.4c-.5-.5-.5-1.3 0-1.8l10.9-10.9c.5-.5 1.3-.5 1.8 0l2.4 2.4c.5.5.5 1.3 0 1.8l-10.9 10.9c-.5.5-1.3.5-1.8 0"/>
  <path fill="#000" d="M16.62 4.98a.52.52 0 0 0-.74 0l-10.9 10.9a.52.52 0 0 0 0 .74l2.4 2.4a.517.517 0 0 0 .74 0l10.9-10.9a.52.52 0 0 0 0-.74zm-1.8-1.06a2.017 2.017 0 0 1 2.86 0l2.4 2.4a2.017 2.017 0 0 1 0 2.86l-10.9 10.9a2.017 2.017 0 0 1-2.86 0l-2.4-2.4a2.02 2.02 0 0 1 0-2.86z"/>
</svg>
