<svg xmlns="http://www.w3.org/2000/svg" fill="none" viewBox="0 0 24 24">
  <path fill="#000" d="M15 21H9c-2.2 0-4-1.8-4-4V7c0-2.2 1.8-4 4-4h6c2.2 0 4 1.8 4 4v10c0 2.2-1.8 4-4 4"/>
  <path fill="#000" d="M9 3.75A3.26 3.26 0 0 0 5.75 7v10A3.26 3.26 0 0 0 9 20.25h6A3.26 3.26 0 0 0 18.25 17V7A3.26 3.26 0 0 0 15 3.75zM4.25 7A4.76 4.76 0 0 1 9 2.25h6A4.76 4.76 0 0 1 19.75 7v10A4.76 4.76 0 0 1 15 21.75H9A4.76 4.76 0 0 1 4.25 17z"/>
  <path fill="#fff" d="M15 13c-.3 0-.5-.1-.7-.3-.1-.1-.2-.2-.2-.3-.1-.2-.1-.3-.1-.4 0-.3.1-.6.2-.8.4-.4 1-.4 1.4 0 .2.2.3.4.3.7 0 .1 0 .3-.1.4s-.1.2-.2.3c-.1.2-.4.4-.6.4"/>
</svg>
