<svg xmlns="http://www.w3.org/2000/svg" fill="none" viewBox="0 0 24 24">
  <path fill="#000" d="m19.55 14.95-4.6 4.6c-1.6 1.6-4.3 1.6-5.9 0l-4.6-4.6c-1.6-1.6-1.6-4.3 0-5.9l4.6-4.6c1.6-1.6 4.3-1.6 5.9 0l4.6 4.6c1.6 1.6 1.6 4.2 0 5.9"/>
  <path fill="#000" d="M14.42 4.98c-1.307-1.307-3.533-1.307-4.84 0l-4.6 4.6c-1.307 1.307-1.307 3.533 0 4.84l4.6 4.6c1.307 1.307 3.533 1.307 4.84 0l4.591-4.592c1.33-1.42 1.305-3.552.009-4.848zm-5.9-1.06c1.893-1.893 5.067-1.893 6.96 0l4.6 4.6c1.902 1.901 1.88 4.964.016 6.944l-.008.008-4.608 4.608c-1.893 1.893-5.067 1.893-6.96 0l-4.6-4.6c-1.893-1.893-1.893-5.067 0-6.96z"/>
  <path fill="#fff" d="M14.58 9.32a.75.75 0 0 1 0 1.06l-4.2 4.2a.75.75 0 1 1-1.06-1.06l4.2-4.2a.75.75 0 0 1 1.06 0"/>
  <path fill="#fff" d="M9.32 9.32a.75.75 0 0 1 1.06 0l4.2 4.2a.75.75 0 0 1-1.06 1.06l-4.2-4.2a.75.75 0 0 1 0-1.06"/>
</svg>
