<svg xmlns="http://www.w3.org/2000/svg" fill="none" viewBox="0 0 24 24">
  <path fill="#000" d="M14.42 4.98c-1.307-1.307-3.533-1.307-4.84 0l-4.6 4.6c-1.307 1.307-1.307 3.533 0 4.84l4.6 4.6c1.307 1.307 3.533 1.307 4.84 0l4.6-4.6c1.307-1.307 1.307-3.533 0-4.84zm-5.9-1.06c1.893-1.893 5.067-1.893 6.96 0l4.6 4.6c1.893 1.893 1.893 5.067 0 6.96l-4.6 4.6c-1.893 1.893-5.068 1.893-6.96 0l-4.6-4.6c-1.893-1.893-1.893-5.068 0-6.96z"/>
  <path fill="#000" d="M14.68 9.32a.75.75 0 0 1 0 1.06l-4.3 4.3a.75.75 0 0 1-1.06-1.06l4.3-4.3a.75.75 0 0 1 1.06 0"/>
  <path fill="#000" d="M9.32 9.32a.75.75 0 0 1 1.06 0l4.3 4.3a.75.75 0 0 1-1.06 1.06l-4.3-4.3a.75.75 0 0 1 0-1.06"/>
</svg>
