<svg xmlns="http://www.w3.org/2000/svg" fill="none" viewBox="0 0 24 24">
  <path fill="#000" d="M9 3.75A3.26 3.26 0 0 0 5.75 7v10a.75.75 0 0 1-1.5 0V7A4.76 4.76 0 0 1 9 2.25h6A4.76 4.76 0 0 1 19.75 7v10A4.76 4.76 0 0 1 15 21.75a.75.75 0 0 1 0-1.5A3.26 3.26 0 0 0 18.25 17V7A3.26 3.26 0 0 0 15 3.75z"/>
  <path fill="#000" d="M15 13c-.3 0-.5-.1-.7-.3-.1-.1-.2-.2-.2-.3-.1-.2-.1-.3-.1-.4 0-.3.1-.6.2-.8.4-.4 1-.4 1.4 0 .2.2.3.4.3.7 0 .1 0 .3-.1.4s-.1.2-.2.3c-.1.2-.4.4-.6.4m-8.15 5.4a.75.75 0 0 1 .75-.75H12a.75.75 0 0 1 0 1.5H7.6a.75.75 0 0 1-.75-.75"/>
  <path fill="#000" d="M9.53 15.87a.75.75 0 0 1 0 1.06l-1.52 1.52 1.52 1.52a.75.75 0 0 1-1.06 1.06l-1.8-1.8a1 1 0 0 1-.247-.43 1.3 1.3 0 0 1 0-.7 1 1 0 0 1 .247-.43l1.8-1.8a.75.75 0 0 1 1.06 0"/>
</svg>
