<svg xmlns="http://www.w3.org/2000/svg" fill="none" viewBox="0 0 24 24">
  <path fill="#000" d="M11 20.1a7.2 7.2 0 1 0 0-14.4 7.2 7.2 0 0 0 0 14.4"/>
  <path fill="#000" d="M11 6.45a6.45 6.45 0 1 0 0 12.9 6.45 6.45 0 0 0 0-12.9M3.05 12.9a7.95 7.95 0 1 1 15.9 0 7.95 7.95 0 0 1-15.9 0"/>
  <path fill="#000" d="M20.338 3.877a.75.75 0 0 1-.015 1.06l-3.6 3.5a.75.75 0 1 1-1.046-1.075l3.6-3.5a.75.75 0 0 1 1.06.015"/>
  <path fill="#000" d="M16.05 3.9a.75.75 0 0 1 .75-.75h3c.344 0 .625.164.805.345s.345.461.345.805v3a.75.75 0 0 1-1.5 0V4.65H16.8a.75.75 0 0 1-.75-.75"/>
</svg>
