<svg xmlns="http://www.w3.org/2000/svg" fill="none" viewBox="0 0 24 24">
  <path fill="#000" d="M19.2 10.5c0-1.657-.458-3.09-1.344-4.243l1.188-.914C20.159 6.79 20.7 8.557 20.7 10.5v4a4.76 4.76 0 0 1-4.75 4.75h-1.6v-1.5h1.6a3.26 3.26 0 0 0 3.25-3.25zm-7.15-7.25c-3.986 0-7.25 3.264-7.25 7.25v4a3.26 3.26 0 0 0 3.25 3.25h1.5v1.5h-1.5A4.76 4.76 0 0 1 3.3 14.5v-4c0-4.814 3.936-8.75 8.75-8.75 1.32 0 2.634.328 3.735.88l-.67 1.34a7 7 0 0 0-3.065-.72"/>
  <path fill="#000" d="M14.55 19c0 1.4-1.1 2.5-2.5 2.5s-2.5-1.1-2.5-2.5v-.5h4.9c0 .1.1.3.1.5"/>
  <path fill="#000" d="M8.8 17.75h6.4v.684l.003.01.018.063c.027.094.079.28.079.493a3.226 3.226 0 0 1-3.25 3.25A3.226 3.226 0 0 1 8.8 19zm1.517 1.5c.117.862.832 1.5 1.733 1.5.9 0 1.616-.638 1.733-1.5zM17.05 6.5a2 2 0 1 0 0-4 2 2 0 0 0 0 4"/>
  <path fill="#000" d="M17.05 3.25a1.25 1.25 0 1 0 0 2.5 1.25 1.25 0 0 0 0-2.5M14.3 4.5a2.75 2.75 0 1 1 5.5 0 2.75 2.75 0 0 1-5.5 0"/>
</svg>
