<svg xmlns="http://www.w3.org/2000/svg" fill="none" viewBox="0 0 24 24">
  <path fill="#000" d="M11.55 19.55a8 8 0 1 0 0-16 8 8 0 0 0 0 16"/>
  <path fill="#000" d="M11.55 4.3a7.25 7.25 0 1 0 0 14.5 7.25 7.25 0 0 0 0-14.5M2.8 11.55a8.75 8.75 0 1 1 17.5 0 8.75 8.75 0 0 1-17.5 0"/>
  <path fill="#000" d="M16.92 16.92a.75.75 0 0 1 1.06 0l3 3a.75.75 0 0 1-1.06 1.06l-3-3a.75.75 0 0 1 0-1.06"/>
  <path fill="#fff" d="M8.82 8.82a.75.75 0 0 1 1.06 0l4.3 4.3a.75.75 0 1 1-1.06 1.06l-4.3-4.3a.75.75 0 0 1 0-1.06"/>
  <path fill="#fff" d="M14.18 8.82a.75.75 0 0 1 0 1.06l-4.3 4.3a.75.75 0 0 1-1.06-1.06l4.3-4.3a.75.75 0 0 1 1.06 0"/>
</svg>
