<svg xmlns="http://www.w3.org/2000/svg" fill="none" viewBox="0 0 24 24">
  <path fill="#000" d="M6.5 9.5a2 2 0 1 0 0-4 2 2 0 0 0 0 4"/>
  <path fill="#000" d="M6.5 6.25a1.25 1.25 0 1 0 0 2.5 1.25 1.25 0 0 0 0-2.5M3.75 7.5a2.75 2.75 0 1 1 5.5 0 2.75 2.75 0 0 1-5.5 0m7 0a.75.75 0 0 1 .75-.75h8a.75.75 0 0 1 0 1.5h-8a.75.75 0 0 1-.75-.75m6.75 11a2 2 0 1 0 0-4 2 2 0 0 0 0 4"/>
  <path fill="#000" d="M17.5 15.25a1.25 1.25 0 1 0 0 2.5 1.25 1.25 0 0 0 0-2.5m-2.75 1.25a2.75 2.75 0 1 1 5.5 0 2.75 2.75 0 0 1-5.5 0m-11 0a.75.75 0 0 1 .75-.75h8a.75.75 0 0 1 0 1.5h-8a.75.75 0 0 1-.75-.75"/>
</svg>
