<svg xmlns="http://www.w3.org/2000/svg" fill="none" viewBox="0 0 24 24">
  <path fill="#000" d="M20.6 11.725a.75.75 0 0 1 .75.75v2.5c0 2.13-1.752 3.75-3.75 3.75H6.4a.75.75 0 0 1 0-1.5h11.2c1.202 0 2.25-.98 2.25-2.25v-2.5a.75.75 0 0 1 .75-.75"/>
  <path fill="#000" d="M3.4 11.725a.75.75 0 0 1 .75.75v2.5c0 1.27 1.048 2.25 2.25 2.25h11.2a.75.75 0 0 1 0 1.5H6.4c-1.998 0-3.75-1.62-3.75-3.75v-2.5a.75.75 0 0 1 .75-.75m8.6-5.8a.75.75 0 0 1 .75.75v7.1a.75.75 0 1 1-1.5 0v-7.1a.75.75 0 0 1 .75-.75"/>
  <path fill="#000" d="m12 6.836 2.77 2.77a.75.75 0 1 0 1.06-1.061l-2.9-2.9a1.32 1.32 0 0 0-.93-.37c-.299 0-.658.097-.93.37l-2.9 2.9a.75.75 0 0 0 1.06 1.06L12 6.835Z"/>
</svg>
