<svg width="24" height="24" viewBox="0 0 24 24" fill="none" xmlns="http://www.w3.org/2000/svg">
<path d="M18 11.5H10C8.9 11.5 8 10.6 8 9.5V8.5C8 7.4 8.9 6.5 10 6.5H18C19.1 6.5 20 7.4 20 8.5V9.5C20 10.6 19.1 11.5 18 11.5Z" fill="black"/>
<path fill-rule="evenodd" clip-rule="evenodd" d="M10 7.25C9.31421 7.25 8.75 7.81421 8.75 8.5V9.5C8.75 10.1858 9.31421 10.75 10 10.75H18C18.6858 10.75 19.25 10.1858 19.25 9.5V8.5C19.25 7.81421 18.6858 7.25 18 7.25H10ZM7.25 8.5C7.25 6.98579 8.48579 5.75 10 5.75H18C19.5142 5.75 20.75 6.98579 20.75 8.5V9.5C20.75 11.0142 19.5142 12.25 18 12.25H10C8.48579 12.25 7.25 11.0142 7.25 9.5V8.5Z" fill="black"/>
<path d="M18 19.5H10C8.9 19.5 8 18.6 8 17.5V16.5C8 15.4 8.9 14.5 10 14.5H18C19.1 14.5 20 15.4 20 16.5V17.5C20 18.6 19.1 19.5 18 19.5Z" fill="black"/>
<path fill-rule="evenodd" clip-rule="evenodd" d="M10 15.25C9.31421 15.25 8.75 15.8142 8.75 16.5V17.5C8.75 18.1858 9.31421 18.75 10 18.75H18C18.6858 18.75 19.25 18.1858 19.25 17.5V16.5C19.25 15.8142 18.6858 15.25 18 15.25H10ZM7.25 16.5C7.25 14.9858 8.48579 13.75 10 13.75H18C19.5142 13.75 20.75 14.9858 20.75 16.5V17.5C20.75 19.0142 19.5142 20.25 18 20.25H10C8.48579 20.25 7.25 19.0142 7.25 17.5V16.5Z" fill="black"/>
<path fill-rule="evenodd" clip-rule="evenodd" d="M4 3.75C4.41421 3.75 4.75 4.08579 4.75 4.5V15C4.75 15.6858 5.31421 16.25 6 16.25H8C8.41421 16.25 8.75 16.5858 8.75 17C8.75 17.4142 8.41421 17.75 8 17.75H6C4.48579 17.75 3.25 16.5142 3.25 15V4.5C3.25 4.08579 3.58579 3.75 4 3.75Z" fill="black"/>
<path fill-rule="evenodd" clip-rule="evenodd" d="M3.25 8.80005C3.25 8.38584 3.58579 8.05005 4 8.05005H8C8.41421 8.05005 8.75 8.38584 8.75 8.80005C8.75 9.21426 8.41421 9.55005 8 9.55005H4C3.58579 9.55005 3.25 9.21426 3.25 8.80005Z" fill="black"/>
</svg>
