<svg width="24" height="24" viewBox="0 0 24 24" fill="none" xmlns="http://www.w3.org/2000/svg">
<path d="M7 3H17C19.2 3 21 4.8 21 7V17C21 19.2 19.2 21 17 21H7C4.8 21 3 19.2 3 17V7C3 4.7 4.7 3 7 3Z" fill="black"/>
<path fill-rule="evenodd" clip-rule="evenodd" d="M7 3.75C5.11421 3.75 3.75 5.11421 3.75 7V17C3.75 18.7858 5.21421 20.25 7 20.25H17C18.7858 20.25 20.25 18.7858 20.25 17V7C20.25 5.21421 18.7858 3.75 17 3.75H7ZM2.25 7C2.25 4.28579 4.28579 2.25 7 2.25H17C19.6142 2.25 21.75 4.38579 21.75 7V17C21.75 19.6142 19.6142 21.75 17 21.75H7C4.38579 21.75 2.25 19.6142 2.25 17V7Z" fill="black"/>
<path fill-rule="evenodd" clip-rule="evenodd" d="M14.4983 13.2883C14.7809 13.5911 14.7645 14.0657 14.4617 14.3483L12.9698 15.7408C12.7005 16.0054 12.3455 16.1751 11.95 16.1751C11.5493 16.1751 11.1902 16.0009 10.9197 15.7304L9.51966 14.3304C9.22676 14.0375 9.22676 13.5626 9.51966 13.2697C9.81255 12.9768 10.2874 12.9768 10.5803 13.2697L11.9507 14.6401L13.4382 13.2518C13.7411 12.9691 14.2157 12.9855 14.4983 13.2883Z" fill="white"/>
<path fill-rule="evenodd" clip-rule="evenodd" d="M9.44557 10.5309C9.16294 10.2281 9.17931 9.7535 9.48212 9.47087L10.9741 8.07839C11.2433 7.81384 11.5984 7.64416 11.9939 7.64416C12.3945 7.64416 12.7537 7.81832 13.0242 8.08883L14.4242 9.48883C14.7171 9.78173 14.7171 10.2566 14.4242 10.5495C14.1313 10.8424 13.6564 10.8424 13.3635 10.5495L11.9931 9.17909L10.5056 10.5675C10.2028 10.8501 9.72819 10.8337 9.44557 10.5309Z" fill="white"/>
</svg>
