<svg width="24" height="24" viewBox="0 0 24 24" fill="none" xmlns="http://www.w3.org/2000/svg">
<path d="M20.3 14.4999V9.49985C20.3 8.09985 19.5 6.79985 18.3 5.99985L14 3.49985C12.8 2.79985 11.2 2.79985 9.99995 3.49985L5.69995 5.99985C4.49995 6.69985 3.69995 7.99985 3.69995 9.49985V14.4999C3.69995 15.8999 4.49995 17.1999 5.69995 17.9999L9.99995 20.4999C11.2 21.1999 12.8 21.1999 14 20.4999L18.3 17.9999C19.5 17.1999 20.3 15.8999 20.3 14.4999Z" fill="black"/>
<path fill-rule="evenodd" clip-rule="evenodd" d="M14.3779 2.85207C14.3776 2.85195 14.3781 2.85219 14.3779 2.85207L18.6968 5.36309L18.716 5.37586C20.0888 6.2911 21.05 7.80897 21.05 9.4999V14.4999C21.05 16.1908 20.0888 17.7087 18.716 18.6239L18.6968 18.6367L14.3779 21.1477C14.3778 21.1478 14.3779 21.1477 14.3779 21.1477C12.9444 21.9838 11.0555 21.9839 9.62205 21.1477L5.30308 18.6367L5.28393 18.6239C3.91107 17.7087 2.94995 16.1908 2.94995 14.4999V9.4999C2.94995 7.72545 3.89836 6.18255 5.32205 5.35207L9.62205 2.85207C9.62189 2.85216 9.6222 2.85198 9.62205 2.85207C11.0553 2.01624 12.9446 2.0163 14.3779 2.85207ZM13.622 4.14774C12.6556 3.58396 11.3443 3.58396 10.3779 4.14774L6.07785 6.64774C6.07774 6.6478 6.07796 6.64767 6.07785 6.64774C5.10172 7.2173 4.44995 8.27449 4.44995 9.4999V14.4999C4.44995 15.6024 5.08124 16.6782 6.09764 17.3636L10.3779 19.8521C11.3443 20.4158 12.6556 20.4158 13.622 19.8521L17.9023 17.3636C18.9187 16.6782 19.55 15.6024 19.55 14.4999V9.4999C19.55 8.39745 18.9187 7.32161 17.9023 6.63623L13.622 4.14774Z" fill="black"/>
<path fill-rule="evenodd" clip-rule="evenodd" d="M13.2696 9.46955C13.5625 9.17665 14.0374 9.17665 14.3303 9.46955L15.7303 10.8695C16.0008 11.1401 16.1749 11.4992 16.1749 11.8999C16.1749 12.3006 16.0008 12.6597 15.7303 12.9302L14.3303 14.3302C14.0374 14.6231 13.5625 14.6231 13.2696 14.3302C12.9767 14.0373 12.9767 13.5624 13.2696 13.2695L14.6393 11.8999L13.2696 10.5302C12.9767 10.2373 12.9767 9.76244 13.2696 9.46955Z" fill="white"/>
<path fill-rule="evenodd" clip-rule="evenodd" d="M10.6303 9.56952C10.9232 9.86242 10.9232 10.3373 10.6303 10.6302L9.26064 11.9999L10.6303 13.3695C10.9232 13.6624 10.9232 14.1373 10.6303 14.4302C10.3374 14.7231 9.86254 14.7231 9.56965 14.4302L8.16965 13.0302C7.89913 12.7597 7.72498 12.4005 7.72498 11.9999C7.72498 11.5992 7.89913 11.24 8.16965 10.9695L9.56965 9.56952C9.86254 9.27663 10.3374 9.27663 10.6303 9.56952Z" fill="white"/>
</svg>
