<svg width="24" height="24" viewBox="0 0 24 24" fill="none" xmlns="http://www.w3.org/2000/svg">
<path d="M3 15V9C3 6.8 4.8 5 7 5H17C19.2 5 21 6.8 21 9V15C21 17.2 19.2 19 17 19H7C4.7 19 3 17.2 3 15Z" fill="black"/>
<path fill-rule="evenodd" clip-rule="evenodd" d="M7 5.75C5.21421 5.75 3.75 7.21421 3.75 9V15C3.75 16.7981 5.12646 18.25 7 18.25H17C18.7858 18.25 20.25 16.7858 20.25 15V9C20.25 7.21421 18.7858 5.75 17 5.75H7ZM2.25 9C2.25 6.38579 4.38579 4.25 7 4.25H17C19.6142 4.25 21.75 6.38579 21.75 9V15C21.75 17.6142 19.6142 19.75 17 19.75H7C4.27354 19.75 2.25 17.6019 2.25 15V9Z" fill="black"/>
<path fill-rule="evenodd" clip-rule="evenodd" d="M13.2883 9.45171C13.5911 9.16909 14.0657 9.18545 14.3483 9.48826L15.7408 10.9802C16.0053 11.2495 16.175 11.6045 16.175 12C16.175 12.4007 16.0008 12.7598 15.7303 13.0303L14.3303 14.4303C14.0374 14.7232 13.5626 14.7232 13.2697 14.4303C12.9768 14.1374 12.9768 13.6626 13.2697 13.3697L14.6401 11.9993L13.2517 10.5117C12.9691 10.2089 12.9854 9.73434 13.2883 9.45171Z" fill="white"/>
<path fill-rule="evenodd" clip-rule="evenodd" d="M10.6303 9.46967C10.9232 9.76256 10.9232 10.2374 10.6303 10.5303L9.25991 11.9007L10.6483 13.3883C10.9309 13.6911 10.9145 14.1657 10.6117 14.4483C10.3089 14.7309 9.83431 14.7146 9.55168 14.4117L8.15921 12.9198C7.89466 12.6505 7.72498 12.2955 7.72498 11.9C7.72498 11.4993 7.89913 11.1402 8.16965 10.8697L9.56965 9.46967C9.86254 9.17678 10.3374 9.17678 10.6303 9.46967Z" fill="white"/>
</svg>
