<svg width="24" height="24" viewBox="0 0 24 24" fill="none" xmlns="http://www.w3.org/2000/svg">
<path d="M8 20C9.10457 20 10 19.1046 10 18C10 16.8954 9.10457 16 8 16C6.89543 16 6 16.8954 6 18C6 19.1046 6.89543 20 8 20Z" stroke="black" stroke-width="1.5" stroke-miterlimit="10" stroke-linecap="round"/>
<path d="M8 7C9.10457 7 10 6.10457 10 5C10 3.89543 9.10457 3 8 3C6.89543 3 6 3.89543 6 5C6 6.10457 6.89543 7 8 7Z" stroke="black" stroke-width="1.5" stroke-miterlimit="10" stroke-linecap="round"/>
<path d="M8 16V7" stroke="black" stroke-width="1.5" stroke-miterlimit="10" stroke-linecap="round"/>
<path d="M17 5C17 5 17 12 8 12" stroke="black" stroke-width="1.5" stroke-miterlimit="10" stroke-linecap="round"/>
<path d="M14.1 6.50008L16.5 4.70008C16.7 4.50008 17.1 4.60009 17.2 4.80009L19 7.20008" stroke="black" stroke-width="1.5" stroke-miterlimit="10" stroke-linecap="round"/>
</svg>
