<svg width="24" height="24" viewBox="0 0 24 24" fill="none" xmlns="http://www.w3.org/2000/svg">
<path d="M7.5 20.55C8.60457 20.55 9.5 19.6546 9.5 18.55C9.5 17.4455 8.60457 16.55 7.5 16.55C6.39543 16.55 5.5 17.4455 5.5 18.55C5.5 19.6546 6.39543 20.55 7.5 20.55Z" fill="black"/>
<path d="M7.50001 21.25C6.00001 21.25 4.70001 20.05 4.70001 18.45C4.70001 16.85 5.90001 15.75 7.50001 15.75C9.10001 15.75 10.3 16.95 10.3 18.55C10.3 20.15 9.00001 21.25 7.50001 21.25ZM7.50001 17.25C6.80001 17.25 6.20001 17.85 6.20001 18.55C6.20001 19.25 6.80001 19.75 7.50001 19.75C8.20001 19.75 8.70001 19.15 8.70001 18.55C8.70001 17.95 8.10001 17.25 7.50001 17.25Z" fill="black"/>
<path d="M7.5 7.55005C8.60457 7.55005 9.5 6.65462 9.5 5.55005C9.5 4.44548 8.60457 3.55005 7.5 3.55005C6.39543 3.55005 5.5 4.44548 5.5 5.55005C5.5 6.65462 6.39543 7.55005 7.5 7.55005Z" fill="black"/>
<path d="M7.50001 8.25C5.90001 8.25 4.70001 7.05 4.70001 5.55C4.70001 4.05 5.90001 2.75 7.50001 2.75C9.10001 2.75 10.3 3.95 10.3 5.55C10.3 7.15 9.00001 8.25 7.50001 8.25ZM7.50001 4.25C6.80001 4.25 6.20001 4.85 6.20001 5.55C6.20001 6.25 6.80001 6.75 7.50001 6.75C8.20001 6.75 8.70001 6.15 8.70001 5.55C8.70001 4.95 8.10001 4.25 7.50001 4.25Z" fill="black"/>
<path d="M7.50001 17.25C7.10001 17.25 6.70001 16.95 6.70001 16.45V7.45C6.70001 7.05 7.00001 6.75 7.50001 6.75C8.00001 6.75 8.30001 7.05 8.30001 7.55V16.55C8.20001 16.95 7.90001 17.25 7.50001 17.25Z" fill="black"/>
<path d="M7.50001 13.25C7.00001 13.25 6.70001 12.95 6.70001 12.55C6.70001 12.15 7.00001 11.75 7.50001 11.75C15.6 11.75 15.7 5.75 15.7 5.55C15.7 5.05 16 4.75 16.5 4.75C17 4.75 17.3 5.05 17.3 5.55C17.2 5.55 17.1 13.25 7.50001 13.25Z" fill="black"/>
<path d="M18.5 8.45003C18.3 8.45003 18 8.35003 17.9 8.15003L16.2 5.95003L14 7.65003C13.7 7.85003 13.2 7.75003 13 7.45003C12.7 7.15003 12.8 6.65003 13.2 6.45003L15.6 4.65003C16.2 4.25003 17 4.35003 17.4 4.95003L19.2 7.35003C19.4 7.65003 19.4 8.15003 19 8.35003C18.9 8.45003 18.7 8.45003 18.5 8.45003Z" fill="black"/>
</svg>
