<svg width="24" height="24" viewBox="0 0 24 24" fill="none" xmlns="http://www.w3.org/2000/svg">
<path d="M7.5 20.5C8.60457 20.5 9.5 19.6046 9.5 18.5C9.5 17.3954 8.60457 16.5 7.5 16.5C6.39543 16.5 5.5 17.3954 5.5 18.5C5.5 19.6046 6.39543 20.5 7.5 20.5Z" fill="black" stroke="black" stroke-width="1.5" stroke-miterlimit="10" stroke-linecap="round"/>
<path d="M7.5 7.5C8.60457 7.5 9.5 6.60457 9.5 5.5C9.5 4.39543 8.60457 3.5 7.5 3.5C6.39543 3.5 5.5 4.39543 5.5 5.5C5.5 6.60457 6.39543 7.5 7.5 7.5Z" fill="black" stroke="black" stroke-width="1.5" stroke-miterlimit="10" stroke-linecap="round"/>
<path d="M16.5 7.5C17.6046 7.5 18.5 6.60457 18.5 5.5C18.5 4.39543 17.6046 3.5 16.5 3.5C15.3954 3.5 14.5 4.39543 14.5 5.5C14.5 6.60457 15.3954 7.5 16.5 7.5Z" fill="black" stroke="black" stroke-width="1.5" stroke-miterlimit="10" stroke-linecap="round"/>
<path d="M7.5 16.5V7.5" stroke="black" stroke-width="1.5" stroke-miterlimit="10" stroke-linecap="round"/>
<path d="M16.5 7.5C16.5 7.5 16.5 12.5 7.5 12.5" stroke="black" stroke-width="1.5" stroke-miterlimit="10" stroke-linecap="round"/>
</svg>
