<svg width="24" height="24" viewBox="0 0 24 24" fill="none" xmlns="http://www.w3.org/2000/svg">
<path fill-rule="evenodd" clip-rule="evenodd" d="M4.75 4C4.75 3.58579 4.41421 3.25 4 3.25C3.58579 3.25 3.25 3.58579 3.25 4V20C3.25 20.4142 3.58579 20.75 4 20.75C4.41421 20.75 4.75 20.4142 4.75 20V4ZM9 4.75C8.31421 4.75 7.75 5.31421 7.75 6V8C7.75 8.68579 8.31421 9.25 9 9.25H14C14.6858 9.25 15.25 8.68579 15.25 8V6C15.25 5.31421 14.6858 4.75 14 4.75H9ZM6.25 6C6.25 4.48579 7.48579 3.25 9 3.25H14C15.5142 3.25 16.75 4.48579 16.75 6V8C16.75 9.51421 15.5142 10.75 14 10.75H9C7.48579 10.75 6.25 9.51421 6.25 8V6ZM9 14.75C8.31421 14.75 7.75 15.3142 7.75 16V18C7.75 18.6858 8.31421 19.25 9 19.25H18C18.6858 19.25 19.25 18.6858 19.25 18V16C19.25 15.3142 18.6858 14.75 18 14.75H9ZM6.25 16C6.25 14.4858 7.48579 13.25 9 13.25H18C19.5142 13.25 20.75 14.4858 20.75 16V18C20.75 19.5142 19.5142 20.75 18 20.75H9C7.48579 20.75 6.25 19.5142 6.25 18V16Z" fill="black"/>
</svg>
