<svg width="24" height="24" viewBox="0 0 24 24" fill="none" xmlns="http://www.w3.org/2000/svg">
<path d="M11.1136 4.65V16.75C11.1136 17.85 10.7136 18.85 9.91357 19.55C9.81357 19.65 9.71357 19.75 9.61357 19.85C9.51357 19.95 9.31357 20.05 9.21357 20.15C9.11357 20.25 9.01357 20.25 9.01357 20.25C8.91357 20.35 8.81357 20.35 8.71357 20.45C8.61357 20.45 8.51357 20.45 8.51357 20.45C8.41357 20.45 8.31357 20.55 8.21357 20.55H8.11357C8.01357 20.55 7.91357 20.55 7.81357 20.65C7.61357 20.65 7.41357 20.65 7.21357 20.65C6.71357 20.65 6.11357 20.55 5.71357 20.35C5.71357 20.35 5.71357 20.35 5.61357 20.35C5.51357 20.35 5.51357 20.25 5.41357 20.25C5.41357 20.25 5.41357 20.25 5.31357 20.25C5.21357 20.25 5.11357 20.15 5.11357 20.15C5.01357 20.15 5.01357 20.05 4.91357 20.05C4.91357 20.05 4.91357 20.05 4.81357 19.95C4.71357 19.95 4.71357 19.85 4.61357 19.85C4.51357 19.75 4.41357 19.75 4.41357 19.65C4.21357 19.45 4.11357 19.25 3.91357 19.05C3.81357 18.95 3.81357 18.85 3.71357 18.75C3.61357 18.65 3.61357 18.45 3.51357 18.35C3.41357 18.15 3.41357 18.05 3.41357 18.05V17.95V17.85V17.75C3.41357 17.75 3.41357 17.75 3.41357 17.65C3.41357 17.55 3.41357 17.55 3.41357 17.45V17.35V17.25C3.41357 17.15 3.41357 16.95 3.41357 16.85V4.65C3.41357 3.85 4.01357 3.25 4.81357 3.25H9.81357C10.4136 3.25 11.1136 3.85 11.1136 4.65Z" fill="black"/>
<path fill-rule="evenodd" clip-rule="evenodd" d="M4.81355 4C4.42776 4 4.16355 4.26421 4.16355 4.65V17.9649C4.20567 18.027 4.23513 18.085 4.2557 18.1303C4.28824 18.2019 4.31183 18.2729 4.32292 18.3064C4.32311 18.3069 4.32329 18.3075 4.32347 18.308C4.40988 18.4145 4.45825 18.512 4.48039 18.5566C4.48026 18.5563 4.48053 18.5569 4.48039 18.5566C4.59996 18.6815 4.69073 18.8029 4.75638 18.8904L4.76355 18.9C4.84095 19.0032 4.8866 19.0624 4.94388 19.1197L5.02421 19.2H5.12421L5.32421 19.4H5.42421L5.53216 19.508C5.57075 19.5132 5.60979 19.5211 5.64898 19.5321C5.72918 19.5545 5.79914 19.5867 5.8588 19.6225C5.9169 19.6574 5.96108 19.6932 5.99063 19.7193C6.00015 19.7277 6.00911 19.7359 6.0169 19.7433L6.04896 19.6792C6.30846 19.8089 6.78106 19.9 7.21355 19.9H7.59558C7.80535 19.8036 7.99708 19.7998 8.08836 19.7999C8.11331 19.7884 8.14343 19.7753 8.17521 19.7634C8.24229 19.7382 8.35089 19.7046 8.48595 19.7004C8.49897 19.6937 8.51021 19.6881 8.51932 19.6836L8.70289 19.5L8.8208 19.5C8.83599 19.4883 8.85021 19.4778 8.86304 19.4685C8.91007 19.4343 8.95864 19.4019 8.99326 19.3788L8.99752 19.376C9.0377 19.3492 9.06203 19.3328 9.08179 19.3184C9.08647 19.3151 9.08988 19.3125 9.09219 19.3107L9.40088 19.002L9.41967 18.9856C10.0349 18.4472 10.3635 17.6648 10.3635 16.75V4.65C10.3635 4.47569 10.2877 4.30981 10.1582 4.18033C10.0192 4.04135 9.87632 4 9.81355 4H4.81355ZM6.01606 19.745C5.99867 19.7306 5.9731 19.7111 5.94005 19.6913C5.89601 19.6648 5.84324 19.6405 5.78257 19.6235C5.75905 19.6169 5.73598 19.6119 5.71355 19.6082V20.35L6.01606 19.745ZM3.40237 19.6C3.39609 19.5934 3.38973 19.5868 3.38322 19.5803C3.24562 19.4427 3.1749 19.3002 3.14671 19.2434C3.14607 19.2421 3.14545 19.2409 3.14485 19.2397C3.05639 19.1403 3.00325 19.0398 2.9714 18.9697C2.94222 18.9055 2.92023 18.8417 2.908 18.8051L2.89716 18.7943L2.84273 18.6854C2.7703 18.5406 2.72528 18.4143 2.69844 18.3069C2.68504 18.2533 2.67629 18.2049 2.6709 18.1618C2.66821 18.1403 2.66637 18.1201 2.66521 18.1015C2.66462 18.0921 2.66421 18.0832 2.66394 18.0746L2.66364 18.062L2.66357 18.0559L2.66356 18.0529L2.66355 18.0515C2.66355 18.0511 2.66355 18.05 3.41355 18.05H2.66355V4.65C2.66355 3.43579 3.59934 2.5 4.81355 2.5H9.81355C10.3508 2.5 10.8579 2.75865 11.2189 3.11967C11.5894 3.49019 11.8636 4.02431 11.8636 4.65V16.75C11.8636 18.0266 11.3985 19.2365 10.4271 20.0971L10.1439 20.3803C10.0788 20.4454 10.0118 20.4968 9.96406 20.5316C9.91703 20.5657 9.86846 20.5981 9.83384 20.6212L9.82958 20.624C9.7894 20.6508 9.76507 20.6672 9.74531 20.6816C9.74031 20.6852 9.73676 20.6879 9.73445 20.6897C9.60882 20.8125 9.47387 20.8893 9.35177 20.9353C9.28946 20.9758 9.23737 21.0017 9.20778 21.0164L9.02421 21.2H8.63902C8.61404 21.2115 8.58373 21.2247 8.55189 21.2366C8.48204 21.2628 8.36716 21.2982 8.22428 21.2999L8.12421 21.4H7.21355C6.70308 21.4 6.06325 21.3119 5.54643 21.0975C5.49123 21.0933 5.43484 21.0838 5.37812 21.0679C5.30893 21.0486 5.24735 21.0219 5.19344 20.992C4.98553 20.9643 4.83246 20.8719 4.76568 20.8278C4.74567 20.819 4.7265 20.8097 4.70817 20.8H3.94839L4.05741 20.3723C4.04436 20.3636 4.02524 20.3505 4.00241 20.333L2.5365 19.6H3.40237Z" fill="black"/>
<path fill-rule="evenodd" clip-rule="evenodd" d="M14.3374 5.83013C14.1618 5.61949 13.7805 5.54368 13.4439 5.88033L11.8635 7.46066V16.5393L17.9832 10.4197C18.1627 10.2402 18.2266 9.79976 17.9556 9.45268L14.3592 5.85627L14.3374 5.83013ZM10.4439 20.0803L9.38322 19.0197C9.38309 19.0198 9.38334 19.0195 9.38322 19.0197C9.96448 18.4382 10.3635 17.6217 10.3635 16.75V6.83934L12.3832 4.81967C13.2381 3.96474 14.6376 3.88206 15.4654 4.84119L19.0679 8.44372L19.0897 8.46986C19.7978 9.31954 19.8605 10.6637 19.0439 11.4803L10.4439 20.0803Z" fill="black"/>
<path fill-rule="evenodd" clip-rule="evenodd" d="M16.3029 12H19.2135C20.4277 12 21.4635 13.0358 21.4635 14.25V19.35C21.4635 20.5642 20.5277 21.5 19.3135 21.5H7.76099C7.74785 21.5001 7.73616 21.5001 7.72606 21.5C7.72156 21.5 7.71738 21.5 7.71353 21.5H7.11353V20H7.6022L7.70287 19.9H8.00287L8.10287 19.8H8.20286L8.30287 19.7H8.40286L8.60287 19.5H8.72077C8.73597 19.4883 8.75019 19.4778 8.76302 19.4684C8.80999 19.4343 8.85852 19.4019 8.89313 19.3789L8.8975 19.376C8.93768 19.3492 8.96201 19.3328 8.98177 19.3184C8.98645 19.315 8.98986 19.3125 8.99217 19.3107L16.3029 12ZM10.4242 20L16.9242 13.5H19.2135C19.5993 13.5 19.9635 13.8642 19.9635 14.25V19.35C19.9635 19.7358 19.6993 20 19.3135 20H10.4242Z" fill="black"/>
</svg>
