<svg width="24" height="24" viewBox="0 0 24 24" fill="none" xmlns="http://www.w3.org/2000/svg">
<path fill-rule="evenodd" clip-rule="evenodd" d="M18.45 17.5001V6.50006H19.95V17.5001H18.45Z" fill="black"/>
<path fill-rule="evenodd" clip-rule="evenodd" d="M4.04993 15.5001V8.50006H5.54993V15.5001H4.04993Z" fill="black"/>
<path fill-rule="evenodd" clip-rule="evenodd" d="M6.36584 6.06213L17.3658 4.06213L17.6342 5.53794L6.63417 7.53794L6.36584 6.06213Z" fill="black"/>
<path fill-rule="evenodd" clip-rule="evenodd" d="M6.63417 16.4622L17.6342 18.4622L17.3658 19.938L6.36584 17.938L6.63417 16.4622Z" fill="black"/>
<path fill-rule="evenodd" clip-rule="evenodd" d="M4.79998 16.2501C4.27531 16.2501 3.84998 16.6754 3.84998 17.2001C3.84998 17.7247 4.27531 18.1501 4.79998 18.1501C5.32465 18.1501 5.74998 17.7247 5.74998 17.2001C5.74998 16.6754 5.32465 16.2501 4.79998 16.2501ZM2.34998 17.2001C2.34998 15.847 3.44688 14.7501 4.79998 14.7501C6.15307 14.7501 7.24998 15.847 7.24998 17.2001C7.24998 18.5532 6.15307 19.6501 4.79998 19.6501C3.44688 19.6501 2.34998 18.5532 2.34998 17.2001Z" fill="black"/>
<path fill-rule="evenodd" clip-rule="evenodd" d="M19.2 18.2501C18.6753 18.2501 18.25 18.6754 18.25 19.2001C18.25 19.7247 18.6753 20.1501 19.2 20.1501C19.7247 20.1501 20.15 19.7247 20.15 19.2001C20.15 18.6754 19.7247 18.2501 19.2 18.2501ZM16.75 19.2001C16.75 17.847 17.8469 16.7501 19.2 16.7501C20.5531 16.7501 21.65 17.847 21.65 19.2001C21.65 20.5532 20.5531 21.6501 19.2 21.6501C17.8469 21.6501 16.75 20.5532 16.75 19.2001Z" fill="black"/>
<path fill-rule="evenodd" clip-rule="evenodd" d="M19.2 3.85004C18.6753 3.85004 18.25 4.27537 18.25 4.80004C18.25 5.32471 18.6753 5.75004 19.2 5.75004C19.7247 5.75004 20.15 5.32471 20.15 4.80004C20.15 4.27537 19.7247 3.85004 19.2 3.85004ZM16.75 4.80004C16.75 3.44694 17.8469 2.35004 19.2 2.35004C20.5531 2.35004 21.65 3.44694 21.65 4.80004C21.65 6.15313 20.5531 7.25004 19.2 7.25004C17.8469 7.25004 16.75 6.15313 16.75 4.80004Z" fill="black"/>
<path fill-rule="evenodd" clip-rule="evenodd" d="M4.79998 5.85004C4.27531 5.85004 3.84998 6.27537 3.84998 6.80004C3.84998 7.32471 4.27531 7.75004 4.79998 7.75004C5.32465 7.75004 5.74998 7.32471 5.74998 6.80004C5.74998 6.27537 5.32465 5.85004 4.79998 5.85004ZM2.34998 6.80004C2.34998 5.44694 3.44688 4.35004 4.79998 4.35004C6.15307 4.35004 7.24998 5.44694 7.24998 6.80004C7.24998 8.15313 6.15307 9.25004 4.79998 9.25004C3.44688 9.25004 2.34998 8.15313 2.34998 6.80004Z" fill="black"/>
</svg>
