<svg width="24" height="24" viewBox="0 0 24 24" fill="none" xmlns="http://www.w3.org/2000/svg">
<path fill-rule="evenodd" clip-rule="evenodd" d="M16.1738 4.18017C15.9983 3.96953 15.617 3.89371 15.2803 4.23036L15.2779 4.23276L4.15495 15.2555L4.13012 15.2762C3.91948 15.4517 3.84367 15.8331 4.18031 16.1697L7.78031 19.7697C8.08742 20.0768 8.51255 20.0768 8.81965 19.7697L19.8437 8.74565L19.8698 8.72387C20.0805 8.54833 20.1563 8.16701 19.8197 7.83036L16.1956 4.20631L16.1738 4.18017ZM17.3018 3.19123C16.4745 2.23258 15.076 2.3147 14.221 3.1684C14.2205 3.16883 14.2201 3.16927 14.2197 3.1697L3.1426 14.147C2.18196 14.9746 2.26431 16.375 3.11965 17.2304L6.71965 20.8304C7.61255 21.7233 8.98742 21.7233 9.88031 20.8304L20.8588 9.85189C21.8179 9.02409 21.7352 7.62463 20.8803 6.7697L17.3018 3.19123Z" fill="black"/>
<path fill-rule="evenodd" clip-rule="evenodd" d="M12.9196 5.16968C13.2125 4.87679 13.6874 4.87679 13.9803 5.16968L15.3803 6.56968C15.6732 6.86257 15.6732 7.33745 15.3803 7.63034C15.0874 7.92324 14.6125 7.92324 14.3196 7.63034L12.9196 6.23034C12.6267 5.93745 12.6267 5.46258 12.9196 5.16968Z" fill="black"/>
<path fill-rule="evenodd" clip-rule="evenodd" d="M10.4196 7.66968C10.7125 7.37679 11.1874 7.37679 11.4803 7.66968L14.2803 10.4697C14.5732 10.7626 14.5732 11.2374 14.2803 11.5303C13.9874 11.8232 13.5125 11.8232 13.2196 11.5303L10.4196 8.73034C10.1267 8.43745 10.1267 7.96258 10.4196 7.66968Z" fill="black"/>
<path fill-rule="evenodd" clip-rule="evenodd" d="M7.91962 10.1697C8.21251 9.87679 8.68739 9.87679 8.98028 10.1697L10.3803 11.5697C10.6732 11.8626 10.6732 12.3374 10.3803 12.6303C10.0874 12.9232 9.61251 12.9232 9.31962 12.6303L7.91962 11.2303C7.62673 10.9374 7.62673 10.4626 7.91962 10.1697Z" fill="black"/>
<path fill-rule="evenodd" clip-rule="evenodd" d="M5.41962 12.6697C5.71251 12.3768 6.18739 12.3768 6.48028 12.6697L9.28028 15.4697C9.57317 15.7626 9.57317 16.2374 9.28028 16.5303C8.98739 16.8232 8.51251 16.8232 8.21962 16.5303L5.41962 13.7303C5.12673 13.4374 5.12673 12.9626 5.41962 12.6697Z" fill="black"/>
</svg>
