<svg width="24" height="24" viewBox="0 0 24 24" fill="none" xmlns="http://www.w3.org/2000/svg">
<path fill-rule="evenodd" clip-rule="evenodd" d="M9.44993 3.5C9.06414 3.5 8.79993 3.76421 8.79993 4.15V19.85C8.79993 20.2358 9.06414 20.5 9.44993 20.5H14.4499C14.6311 20.5 14.8266 20.4184 14.9821 20.27C15.1418 20.1175 15.1999 19.9535 15.1999 19.85V4.15C15.1999 3.76421 14.9357 3.5 14.5499 3.5H9.44993ZM7.29993 4.15C7.29993 2.93579 8.23571 2 9.44993 2H14.5499C15.7641 2 16.6999 2.93579 16.6999 4.15V19.85C16.6999 20.4465 16.408 20.9825 16.0178 21.355C15.6233 21.7316 15.0688 22 14.4499 22H9.44993C8.23571 22 7.29993 21.0642 7.29993 19.85V4.15Z" fill="black"/>
<path fill-rule="evenodd" clip-rule="evenodd" d="M7.79993 6.54999C7.79993 6.13577 8.13571 5.79999 8.54993 5.79999H10.5499C10.9641 5.79999 11.2999 6.13577 11.2999 6.54999C11.2999 6.9642 10.9641 7.29999 10.5499 7.29999H8.54993C8.13571 7.29999 7.79993 6.9642 7.79993 6.54999Z" fill="black"/>
<path fill-rule="evenodd" clip-rule="evenodd" d="M7.79993 10.05C7.79993 9.63577 8.13571 9.29999 8.54993 9.29999H12.4499C12.8641 9.29999 13.1999 9.63577 13.1999 10.05C13.1999 10.4642 12.8641 10.8 12.4499 10.8H8.54993C8.13571 10.8 7.79993 10.4642 7.79993 10.05Z" fill="black"/>
<path fill-rule="evenodd" clip-rule="evenodd" d="M7.79993 13.55C7.79993 13.1358 8.13571 12.8 8.54993 12.8H10.5499C10.9641 12.8 11.2999 13.1358 11.2999 13.55C11.2999 13.9642 10.9641 14.3 10.5499 14.3H8.54993C8.13571 14.3 7.79993 13.9642 7.79993 13.55Z" fill="black"/>
<path fill-rule="evenodd" clip-rule="evenodd" d="M7.79993 17.15C7.79993 16.7358 8.13571 16.4 8.54993 16.4H12.4499C12.8641 16.4 13.1999 16.7358 13.1999 17.15C13.1999 17.5642 12.8641 17.9 12.4499 17.9H8.54993C8.13571 17.9 7.79993 17.5642 7.79993 17.15Z" fill="black"/>
</svg>
