<svg width="24" height="24" viewBox="0 0 24 24" fill="none" xmlns="http://www.w3.org/2000/svg">
<path fill-rule="evenodd" clip-rule="evenodd" d="M9 3.75C6.11421 3.75 3.75 6.11421 3.75 9V15C3.75 17.8858 6.11421 20.25 9 20.25H15C17.8858 20.25 20.25 17.8858 20.25 15V9C20.25 6.11421 17.8858 3.75 15 3.75H9ZM2.25 9C2.25 5.28579 5.28579 2.25 9 2.25H15C18.7142 2.25 21.75 5.28579 21.75 9V15C21.75 18.7142 18.7142 21.75 15 21.75H9C5.28579 21.75 2.25 18.7142 2.25 15V9Z" fill="black"/>
<path fill-rule="evenodd" clip-rule="evenodd" d="M5.23034 4.16968L9.93034 8.86968L8.86968 9.93034L4.16968 5.23034L5.23034 4.16968Z" fill="black"/>
<path fill-rule="evenodd" clip-rule="evenodd" d="M15.0304 13.9697L19.7304 18.6697L18.6697 19.7303L13.9697 15.0303L15.0304 13.9697Z" fill="black"/>
<path fill-rule="evenodd" clip-rule="evenodd" d="M12 9.15002C10.426 9.15002 9.15002 10.426 9.15002 12C9.15002 13.574 10.426 14.85 12 14.85C13.574 14.85 14.85 13.574 14.85 12C14.85 10.426 13.574 9.15002 12 9.15002ZM7.65002 12C7.65002 9.59759 9.59759 7.65002 12 7.65002C14.4025 7.65002 16.35 9.59759 16.35 12C16.35 14.4025 14.4025 16.35 12 16.35C9.59759 16.35 7.65002 14.4025 7.65002 12Z" fill="black"/>
</svg>
