<svg width="24" height="24" viewBox="0 0 24 24" fill="none" xmlns="http://www.w3.org/2000/svg">
<path d="M8.85012 13.4906L5.65012 13.2906C5.25012 13.2906 5.15012 12.8906 5.35012 12.5906L7.45012 10.0906C7.55012 9.99057 7.55012 9.89057 7.55012 9.69057L6.65012 6.59057C6.55012 6.29057 6.95012 5.89057 7.25012 6.09057L10.2501 7.29057C10.3501 7.39057 10.5501 7.29057 10.6501 7.29057L13.3501 5.49057C13.6501 5.29057 14.0501 5.49057 14.0501 5.89057L13.8501 9.19057C13.8501 9.29057 13.8501 9.49057 14.0501 9.59057L16.5501 11.5906C16.8501 11.7906 16.7501 12.2906 16.3501 12.3906L13.1501 13.0906C13.0501 13.0906 12.8501 13.1906 12.8501 13.3906L11.6501 16.3906C11.5501 16.6906 11.0501 16.7906 10.8501 16.4906L9.25012 13.6906C9.15012 13.5906 9.05012 13.4906 8.85012 13.4906Z" fill="black"/>
<path fill-rule="evenodd" clip-rule="evenodd" d="M13.265 6.44879L10.8773 8.0406H10.7062C10.6771 8.04738 10.6232 8.0596 10.5735 8.06789C10.5048 8.07934 10.382 8.09534 10.2395 8.07591C10.1357 8.06175 10.0121 8.02722 9.89117 7.95477L7.55602 7.02071L8.30018 9.58393V9.6906C8.30018 9.70055 8.30035 9.71203 8.30055 9.72489C8.30303 9.88686 8.30888 10.2684 8.00919 10.5912L6.33685 12.582L8.87831 12.7409C9.37371 12.7513 9.65586 13.035 9.76962 13.1493C9.77344 13.1532 9.77707 13.1568 9.78051 13.1603L9.85153 13.2313L11.1778 15.5522L12.1166 13.2052C12.1678 12.9211 12.3314 12.7101 12.4942 12.5799C12.6404 12.4629 12.8321 12.3724 13.0377 12.3475L15.5961 11.7878L13.6293 10.2144C13.0896 9.88798 13.0986 9.29871 13.1001 9.20008C13.1001 9.1961 13.1002 9.19293 13.1002 9.1906V9.16789L13.265 6.44879ZM12.9342 4.86656C13.7466 4.32496 14.8002 4.90846 14.8002 5.8906V5.9133L14.6085 9.07675L16.9993 10.9894C17.4247 11.2939 17.5363 11.7943 17.4435 12.1967C17.3468 12.6155 17.0234 12.9954 16.5321 13.1182L16.5213 13.1209L13.5016 13.7815L12.3526 16.6539C12.1828 17.1254 11.7512 17.3531 11.4017 17.4069C11.0284 17.4643 10.5274 17.3584 10.2261 16.9066L10.2118 16.8851L8.69598 14.2324L5.6219 14.0403C5.14012 14.0299 4.73207 13.7542 4.57033 13.3094C4.42551 12.9112 4.51696 12.4883 4.72614 12.1746L4.74918 12.14L6.77883 9.72375L5.93293 6.8101C5.76761 6.28564 6.04387 5.82475 6.29845 5.59562C6.55822 5.36183 7.07157 5.13205 7.58373 5.41624L10.4124 6.54772L12.9342 4.86656Z" fill="black"/>
<path fill-rule="evenodd" clip-rule="evenodd" d="M12.7198 12.5602C13.0127 12.2674 13.4876 12.2674 13.7805 12.5602L19.2805 18.0602C19.5733 18.3531 19.5733 18.828 19.2805 19.1209C18.9876 19.4138 18.5127 19.4138 18.2198 19.1209L12.7198 13.6209C12.4269 13.328 12.4269 12.8531 12.7198 12.5602Z" fill="black"/>
</svg>
