<svg width="24" height="24" viewBox="0 0 24 24" fill="none" xmlns="http://www.w3.org/2000/svg">
<path d="M5.75 20.4H5.55C3.95 20.4 2.75 19.1 2.75 17.6V16.4C2.75 14.8 4.05 13.6 5.55 13.6H5.75C7.35 13.6 8.55 14.9 8.55 16.4V17.6C8.55 19.1 7.25 20.4 5.75 20.4Z" fill="black"/>
<path fill-rule="evenodd" clip-rule="evenodd" d="M5.55 14.35C4.44665 14.35 3.5 15.2316 3.5 16.4V17.6C3.5 18.7034 4.38156 19.65 5.55 19.65H5.75C6.83579 19.65 7.8 18.6858 7.8 17.6V16.4C7.8 15.2967 6.91844 14.35 5.75 14.35H5.55ZM2 16.4C2 14.3684 3.65335 12.85 5.55 12.85H5.75C7.78156 12.85 9.3 14.5034 9.3 16.4V17.6C9.3 19.5142 7.66421 21.15 5.75 21.15H5.55C3.51844 21.15 2 19.4967 2 17.6V16.4Z" fill="black"/>
<path fill-rule="evenodd" clip-rule="evenodd" d="M2 12.9C2 7.28055 6.54105 2.85001 12.05 2.85001C14.7507 2.85001 17.2365 3.92997 19.0723 5.76166C20.9255 7.51028 22 10.0082 22 12.8V16.4C22 16.8142 21.6642 17.15 21.25 17.15C20.8358 17.15 20.5 16.8142 20.5 16.4V12.8C20.5 10.396 19.5777 8.29717 18.036 6.84616L18.0277 6.83837L18.0197 6.83034C16.4562 5.26689 14.3454 4.35001 12.05 4.35001C7.35895 4.35001 3.5 8.11947 3.5 12.9V16.4C3.5 16.8142 3.16421 17.15 2.75 17.15C2.33579 17.15 2 16.8142 2 16.4V12.9Z" fill="black"/>
<path d="M18.35 20.4H18.15C16.55 20.4 15.35 19.1 15.35 17.6V16.4C15.35 14.8 16.65 13.6 18.15 13.6H18.35C19.95 13.6 21.15 14.9 21.15 16.4V17.6C21.25 19.1 19.95 20.4 18.35 20.4Z" fill="black"/>
<path fill-rule="evenodd" clip-rule="evenodd" d="M18.15 14.35C17.0467 14.35 16.1 15.2316 16.1 16.4V17.6C16.1 18.7034 16.9816 19.65 18.15 19.65H18.35C19.5656 19.65 20.4696 18.6692 20.4017 17.6499L20.4 17.625V16.4C20.4 15.2967 19.5184 14.35 18.35 14.35H18.15ZM14.6 16.4C14.6 14.3684 16.2534 12.85 18.15 12.85H18.35C20.3816 12.85 21.9 14.5034 21.9 16.4V17.5767C22.0152 19.5453 20.3255 21.15 18.35 21.15H18.15C16.1184 21.15 14.6 19.4967 14.6 17.6V16.4Z" fill="black"/>
</svg>
