<svg width="24" height="24" viewBox="0 0 24 24" fill="none" xmlns="http://www.w3.org/2000/svg">
<path fill-rule="evenodd" clip-rule="evenodd" d="M12 5.75C10.7142 5.75 9.75 6.71421 9.75 8V12C9.75 13.2858 10.7142 14.25 12 14.25C13.1858 14.25 14.25 13.1858 14.25 12V8C14.25 6.71421 13.2858 5.75 12 5.75ZM15.75 12C15.75 13.7587 14.4266 15.3052 12.75 15.6692V18.25H15C15.4142 18.25 15.75 18.5858 15.75 19C15.75 19.4142 15.4142 19.75 15 19.75H12H9C8.58579 19.75 8.25 19.4142 8.25 19C8.25 18.5858 8.58579 18.25 9 18.25H11.25V15.6791C9.51117 15.3439 8.25 13.8564 8.25 12V8C8.25 5.88579 9.88579 4.25 12 4.25C14.1142 4.25 15.75 5.88579 15.75 8V12Z" fill="black"/>
</svg>
