<svg width="24" height="24" viewBox="0 0 24 24" fill="none" xmlns="http://www.w3.org/2000/svg">
<path fill-rule="evenodd" clip-rule="evenodd" d="M3.59998 9C3.59998 7.71421 4.56419 6.75 5.84998 6.75H12.85C14.1358 6.75 15.1 7.71421 15.1 9V15C15.1 16.2021 14.1196 17.25 12.85 17.25H5.84998C4.56419 17.25 3.59998 16.2858 3.59998 15V9ZM5.84998 5.25C3.73576 5.25 2.09998 6.88579 2.09998 9V15C2.09998 17.1142 3.73576 18.75 5.84998 18.75H12.85C14.9804 18.75 16.6 16.9979 16.6 15V13.6962L19.2734 15.2485L19.2779 15.2511C20.5139 15.9574 21.9 15.0337 21.9 13.6999V10.0999C21.9 8.76602 20.5139 7.8424 19.2779 8.5487L16.6 10.1036V9C16.6 6.88579 14.9642 5.25 12.85 5.25H5.84998ZM16.6 11.8136V11.9926C16.6428 12.0077 16.6845 12.0268 16.7245 12.0499H16.7519L20.0238 13.9497C20.1317 14.0107 20.2143 13.9946 20.2725 13.9592C20.3358 13.9207 20.4 13.8388 20.4 13.6999V10.0999C20.4 9.96095 20.3358 9.87908 20.2725 9.84053C20.2143 9.80511 20.1317 9.78907 20.0238 9.8501L16.8388 11.6994C16.8253 11.7086 16.8108 11.718 16.7953 11.7273C16.7392 11.761 16.6741 11.7914 16.6 11.8136ZM10.2625 9.94239C9.48145 9.57967 8.48761 9.72303 7.78031 10.4303L7.76879 10.4419L7.75677 10.4529C7.07314 11.0795 6.9097 12.093 7.32999 12.9447L10.2625 9.94239ZM11.3363 10.9897C11.7984 11.8545 11.6445 12.9043 10.9432 13.5471C10.2262 14.2043 9.20085 14.334 8.40531 13.9905L11.3363 10.9897ZM11.9918 9.38116C10.5844 7.85968 8.20763 7.89387 6.73114 9.35823C5.2057 10.7692 5.24403 13.1547 6.71965 14.6303C8.12461 16.0353 10.4832 16.0036 11.9568 14.6529C13.4905 13.247 13.46 10.8615 11.9918 9.38116Z" fill="black"/>
</svg>
