<svg width="24" height="24" viewBox="0 0 24 24" fill="none" xmlns="http://www.w3.org/2000/svg">
<path fill-rule="evenodd" clip-rule="evenodd" d="M7.52502 8.79998C7.52502 7.46612 8.9111 6.5425 10.1471 7.2488L10.1522 7.2517L15.672 10.4632L15.691 10.4759C16.2394 10.8415 16.475 11.451 16.475 12C16.475 12.549 16.2394 13.1585 15.691 13.524L15.672 13.5367L10.1471 16.7512C8.91111 17.4575 7.52502 16.5338 7.52502 15.2V8.79998ZM9.15248 8.54063C9.08914 8.57919 9.02502 8.66105 9.02502 8.79998V15.2C9.02502 15.3389 9.08914 15.4208 9.15248 15.4593C9.21063 15.4947 9.29316 15.5108 9.40099 15.4499L14.8698 12.268C14.9192 12.2287 14.975 12.1406 14.975 12C14.975 11.8594 14.9192 11.7712 14.8698 11.7319L9.40101 8.55008C9.29317 8.4892 9.21064 8.50523 9.15248 8.54063Z" fill="black"/>
</svg>
