<svg width="24" height="24" viewBox="0 0 24 24" fill="none" xmlns="http://www.w3.org/2000/svg">
<path d="M17.4625 15.4375L7.76249 18.5375L6.36249 19.9375C6.06249 20.2375 5.56249 20.2375 5.26249 19.9375L4.06249 18.7375C3.76249 18.4375 3.76249 17.9375 4.06249 17.6375L5.46249 16.2375L8.56249 6.43748C8.76249 5.83748 9.46249 5.63748 9.96249 6.13748L17.8625 14.0375C18.2625 14.4375 18.0625 15.2375 17.4625 15.4375Z" fill="black"/>
<path fill-rule="evenodd" clip-rule="evenodd" d="M9.27525 6.67103L6.12233 16.6383L4.59282 18.1678C4.59267 18.168 4.58749 18.173 4.58749 18.1875C4.58749 18.202 4.59267 18.207 4.59282 18.2072L5.79282 19.4072C5.79298 19.4073 5.79802 19.4125 5.81249 19.4125C5.82697 19.4125 5.83201 19.4073 5.83216 19.4072L7.36084 17.8785L17.2274 14.7252C17.2553 14.7151 17.2953 14.6835 17.3139 14.6151C17.3214 14.5877 17.3212 14.5668 17.3198 14.5555L9.43216 6.66781C9.38775 6.62339 9.35559 6.6105 9.3432 6.60674C9.33064 6.60293 9.32508 6.60426 9.32375 6.60458C9.32185 6.60503 9.31645 6.60664 9.30854 6.61406C9.30125 6.6209 9.28708 6.63729 9.27525 6.67103ZM8.97628 5.14538C9.51265 5.01767 10.0741 5.1884 10.4928 5.60715L18.3928 13.5071C18.8247 13.939 18.8899 14.5373 18.7611 15.0098C18.6302 15.4898 18.2717 15.9583 17.6997 16.149L17.6908 16.1519L8.16415 19.1965L6.89282 20.4678C6.29993 21.0607 5.32506 21.0607 4.73216 20.4678L3.53216 19.2678C2.93927 18.6749 2.93927 17.7 3.53216 17.1072L4.80266 15.8367L7.8509 6.20028C8.02845 5.66764 8.44791 5.27118 8.97628 5.14538Z" fill="black"/>
<path fill-rule="evenodd" clip-rule="evenodd" d="M14.3125 6.63748C14.3125 6.22327 14.6483 5.88748 15.0625 5.88748C16.7767 5.88748 18.1125 7.22327 18.1125 8.93748C18.1125 9.3517 17.7767 9.68748 17.3625 9.68748C16.9483 9.68748 16.6125 9.3517 16.6125 8.93748C16.6125 8.0517 15.9483 7.38748 15.0625 7.38748C14.6483 7.38748 14.3125 7.0517 14.3125 6.63748Z" fill="black"/>
<path fill-rule="evenodd" clip-rule="evenodd" d="M14.3125 3.83749C14.3125 3.42328 14.6483 3.08749 15.0625 3.08749C18.2767 3.08749 20.9125 5.72328 20.9125 8.93749C20.9125 9.35171 20.5767 9.68749 20.1625 9.68749C19.7483 9.68749 19.4125 9.35171 19.4125 8.93749C19.4125 6.55171 17.4483 4.58749 15.0625 4.58749C14.6483 4.58749 14.3125 4.25171 14.3125 3.83749Z" fill="black"/>
</svg>
