<svg xmlns="http://www.w3.org/2000/svg" fill="none" viewBox="0 0 24 24">
  <path fill="#000" d="M12 3.75a8.25 8.25 0 1 0 0 16.5 8.25 8.25 0 0 0 0-16.5M2.25 12c0-5.385 4.365-9.75 9.75-9.75s9.75 4.365 9.75 9.75-4.365 9.75-9.75 9.75S2.25 17.385 2.25 12"/>
  <path fill="#000" d="M9.55 14.838a.75.75 0 0 1 0-1.061l4.666-4.667a.75.75 0 0 1 1.061 1.06l-4.667 4.668a.75.75 0 0 1-1.06 0"/>
  <path fill="#000" d="M10.037 9.357a.75.75 0 0 1 .75-.75h3.536c.697 0 1.245.548 1.245 1.245v3.536a.75.75 0 1 1-1.5 0v-3.28h-3.281a.75.75 0 0 1-.75-.75Z"/>
</svg>
