<svg xmlns="http://www.w3.org/2000/svg" fill="none" viewBox="0 0 24 24">
  <path fill="#000" d="M20.25 9c0-2.886-2.364-5.25-5.25-5.25H9C6.114 3.75 3.75 6.114 3.75 9v6c0 2.786 2.464 5.25 5.25 5.25h6c2.886 0 5.25-2.364 5.25-5.25zM15 2.25c3.714 0 6.75 3.036 6.75 6.75v6c0 3.714-3.036 6.75-6.75 6.75H9c-3.614 0-6.75-3.136-6.75-6.75V9c0-3.714 3.036-6.75 6.75-6.75z"/>
  <path fill="#000" d="M15.138 14.7a.75.75 0 0 1-1.061 0L9.41 10.034a.75.75 0 0 1 1.06-1.061l4.667 4.667a.75.75 0 0 1 0 1.06Z"/>
  <path fill="#000" d="M9.657 14.213a.75.75 0 0 1-.75-.75V9.927c0-.697.548-1.245 1.245-1.245h3.536a.75.75 0 0 1 0 1.5h-3.28v3.28a.75.75 0 0 1-.75.75Z"/>
</svg>
