<svg xmlns="http://www.w3.org/2000/svg" fill="none" viewBox="0 0 24 24">
  <path fill="#000" d="M17.798 17.798a.75.75 0 0 1-1.06 0L6.202 7.262a.75.75 0 0 1 1.06-1.06l10.536 10.536a.75.75 0 0 1 0 1.06"/>
  <path fill="#000" d="M10.72 17.55a.75.75 0 0 1 .75-.75h5.167a.3.3 0 0 0 .145-.071.1.1 0 0 0 .019-.026l-.07-5.294a.75.75 0 0 1 1.499-.02l.07 5.313c0 .888-.724 1.482-1.492 1.591l-.052.008H11.47a.75.75 0 0 1-.75-.75Zm-4.2-4.34a.75.75 0 0 1-.75-.75V7.227c0-.838.69-1.528 1.528-1.528h5.232a.75.75 0 0 1 0 1.5H7.298s-.008 0-.018.01-.01.018-.01.018v5.233a.75.75 0 0 1-.75.75"/>
</svg>
