<svg xmlns="http://www.w3.org/2000/svg" fill="none" viewBox="0 0 24 24">
  <path fill="#000" d="M16.8 4.75a.75.75 0 0 1 .75.75v13a.75.75 0 1 1-1.5 0v-13a.75.75 0 0 1 .75-.75"/>
  <path fill="#000" d="m16.83 5.33-3.7 3.7a.75.75 0 0 1-1.06-1.06l3.7-3.7a1.535 1.535 0 0 1 2.16 0l3.7 3.7a.75.75 0 1 1-1.06 1.06l-3.7-3.7s-.006-.005-.02-.005-.02.005-.02.005m-4.76 9.64a.75.75 0 0 1 1.06 0l3.7 3.7s.006.005.02.005.02-.005.02-.005l3.7-3.7a.75.75 0 0 1 1.06 1.06l-3.7 3.7a1.535 1.535 0 0 1-2.16 0l-3.7-3.7a.75.75 0 0 1 0-1.06M2.9 8V6c0-1.1.9-2 2-2h2c1.1 0 2 .9 2 2v2c0 1.1-.9 2-2 2h-2c-1.2 0-2-.9-2-2"/>
  <path fill="#000" d="M4.9 4.75c-.686 0-1.25.564-1.25 1.25v2c0 .71.489 1.25 1.25 1.25h2c.686 0 1.25-.564 1.25-1.25V6c0-.686-.564-1.25-1.25-1.25zM2.15 6A2.756 2.756 0 0 1 4.9 3.25h2A2.756 2.756 0 0 1 9.65 6v2a2.756 2.756 0 0 1-2.75 2.75h-2c-1.639 0-2.75-1.26-2.75-2.75zm.75 12v-2c0-1.1.9-2 2-2h2c1.1 0 2 .9 2 2v2c0 1.1-.9 2-2 2h-2c-1.2 0-2-.9-2-2"/>
  <path fill="#000" d="M4.9 14.75c-.686 0-1.25.564-1.25 1.25v2c0 .71.489 1.25 1.25 1.25h2c.686 0 1.25-.564 1.25-1.25v-2c0-.686-.564-1.25-1.25-1.25zM2.15 16a2.756 2.756 0 0 1 2.75-2.75h2A2.756 2.756 0 0 1 9.65 16v2a2.756 2.756 0 0 1-2.75 2.75h-2c-1.639 0-2.75-1.26-2.75-2.75z"/>
</svg>
