<svg xmlns="http://www.w3.org/2000/svg" fill="none" viewBox="0 0 24 24">
  <path fill="#000" d="M5.75 11.45a.75.75 0 0 1 .75.75v6a.75.75 0 0 1-1.5 0v-6a.75.75 0 0 1 .75-.75"/>
  <path fill="#000" d="m5.7 12.41 2.32 2.32a.75.75 0 1 0 1.06-1.06l-2.5-2.5a1.233 1.233 0 0 0-1.76 0l-2.5 2.5a.75.75 0 0 0 1.06 1.06zm10.35-6.16a.75.75 0 0 1 .75.75v11.2a.75.75 0 0 1-1.5 0V7a.75.75 0 0 1 .75-.75"/>
  <path fill="#000" d="M15.977 6.557a.4.4 0 0 0-.097.073l-4.5 4.5a.75.75 0 0 1-1.06-1.06l4.5-4.5c.312-.312.719-.52 1.18-.52s.869.208 1.18.52l4.5 4.5a.75.75 0 0 1-1.06 1.06l-4.5-4.5a.4.4 0 0 0-.098-.073L16 6.55h-.005z"/>
</svg>
