<svg xmlns="http://www.w3.org/2000/svg" fill="none" viewBox="0 0 24 25">
  <path fill="#000" d="M12 18.246a.75.75 0 0 1-.75-.75v-10a.75.75 0 0 1 1.5 0v10a.75.75 0 0 1-.75.75"/>
  <path fill="#000" d="m12.069 16.747 3.694-3.794A.75.75 0 1 1 16.837 14l-3.707 3.807a1.535 1.535 0 0 1-2.16 0l-.007-.007-3.7-3.8a.75.75 0 0 1 1.074-1.047l3.694 3.794q.002.003.019.005c.017.002.017-.004.019-.005"/>
  <path fill="#000" d="M18.75 17.504a.75.75 0 0 1-.75.75H6a.75.75 0 0 1 0-1.5h12a.75.75 0 0 1 .75.75"/>
</svg>
