<svg xmlns="http://www.w3.org/2000/svg" fill="none" viewBox="0 0 24 24">
  <path fill="#000" d="M12 21a9 9 0 1 0 0-18 9 9 0 0 0 0 18"/>
  <path fill="#000" d="M12 3.75a8.25 8.25 0 1 0 0 16.5 8.25 8.25 0 0 0 0-16.5M2.25 12c0-5.385 4.365-9.75 9.75-9.75s9.75 4.365 9.75 9.75-4.365 9.75-9.75 9.75S2.25 17.385 2.25 12"/>
  <path fill="#fff" d="M9.104 9.008a.75.75 0 0 1 1.06 0l4.243 4.243a.75.75 0 1 1-1.06 1.06L9.104 10.07a.75.75 0 0 1 0-1.06"/>
  <path fill="#fff" d="M9.662 14.418a.75.75 0 0 1 .75-.75h3.28v-3.281a.75.75 0 1 1 1.5 0v3.535c0 .698-.547 1.245-1.245 1.245h-3.535a.75.75 0 0 1-.75-.75"/>
</svg>
