<svg xmlns="http://www.w3.org/2000/svg" fill="none" viewBox="0 0 24 24">
  <path fill="#000" d="M12 21a9 9 0 1 0 0-18 9 9 0 0 0 0 18"/>
  <path fill="#000" d="M12 3.75a8.25 8.25 0 1 0 0 16.5 8.25 8.25 0 0 0 0-16.5M2.25 12c0-5.385 4.365-9.75 9.75-9.75s9.75 4.365 9.75 9.75-4.365 9.75-9.75 9.75S2.25 17.385 2.25 12"/>
  <path fill="#fff" d="M9.033 14.771a.75.75 0 0 1 0-1.06l4.243-4.243a.75.75 0 1 1 1.06 1.06l-4.242 4.243a.75.75 0 0 1-1.06 0Z"/>
  <path fill="#fff" d="M14.443 14.213a.75.75 0 0 1-.75-.75v-3.28h-3.281a.75.75 0 1 1 0-1.5h3.535c.698 0 1.246.547 1.246 1.244v3.536a.75.75 0 0 1-.75.75"/>
</svg>
