<svg xmlns="http://www.w3.org/2000/svg" fill="none" viewBox="0 0 24 24">
  <path fill="#000" d="M18.25 12.55a.75.75 0 0 1-.75-.75v-6a.75.75 0 0 1 1.5 0v6a.75.75 0 0 1-.75.75"/>
  <path fill="#000" d="m18.3 11.59-2.32-2.32a.75.75 0 0 0-1.06 1.06l2.5 2.5a1.233 1.233 0 0 0 1.76 0l2.5-2.5a.75.75 0 0 0-1.06-1.06zM7.95 17.75A.75.75 0 0 1 7.2 17V5.8a.75.75 0 0 1 1.5 0V17a.75.75 0 0 1-.75.75"/>
  <path fill="#000" d="M8.023 17.443a.4.4 0 0 0 .097-.073l4.5-4.5a.75.75 0 0 1 1.06 1.06l-4.5 4.5c-.311.312-.719.52-1.18.52s-.868-.208-1.18-.52l-4.5-4.5a.75.75 0 0 1 1.06-1.06l4.5 4.5a.4.4 0 0 0 .097.073L8 17.45h.005z"/>
</svg>
