<svg xmlns="http://www.w3.org/2000/svg" fill="none" viewBox="0 0 24 24">
  <path fill="#000" d="M12 21a9 9 0 1 0 0-18 9 9 0 0 0 0 18"/>
  <path fill="#000" d="M12 3.75a8.25 8.25 0 1 0 0 16.5 8.25 8.25 0 0 0 0-16.5M2.25 12c0-5.385 4.365-9.75 9.75-9.75s9.75 4.365 9.75 9.75-4.365 9.75-9.75 9.75S2.25 17.385 2.25 12"/>
  <path fill="#fff" d="M8.55 12a.75.75 0 0 1 .75-.75h6a.75.75 0 1 1 0 1.5h-6a.75.75 0 0 1-.75-.75"/>
  <path fill="#fff" d="M11.83 8.57a.75.75 0 0 1 0 1.06l-2.32 2.32 2.32 2.32a.75.75 0 0 1-1.06 1.06l-2.5-2.5a1.233 1.233 0 0 1 0-1.76l2.5-2.5a.75.75 0 0 1 1.06 0"/>
</svg>
