<svg xmlns="http://www.w3.org/2000/svg" fill="none" viewBox="0 0 24 24">
  <path fill="#000" d="m8.367 5.812-2.54 2.54 4.795 4.905-2.298 2.297 9.84 2.594L15.55 8.23l-2.382 2.382-4.8-4.8Zm0-1.56c.299 0 .658.096.93.369l3.87 3.87 1.87-1.87c.275-.275.646-.305.873-.276.265.033.632.18.828.57l.034.07 2.923 11.084c.121.487-.062.963-.338 1.264s-.786.556-1.34.328L7.133 16.79a.9.9 0 0 1-.539-.288.96.96 0 0 1-.232-.508 1.1 1.1 0 0 1 .024-.427 1 1 0 0 1 .25-.447l1.876-1.876-3.879-3.967a1.32 1.32 0 0 1-.366-.927c0-.299.097-.658.37-.93l2.8-2.8c.272-.273.631-.37.93-.37Z"/>
</svg>
