<svg xmlns="http://www.w3.org/2000/svg" fill="none" viewBox="0 0 24 24">
  <path fill="#000" d="M21 9v6c0 3.3-2.7 6-6 6H9c-3.3 0-6-2.7-6-6V9c0-3.3 2.7-6 6-6h6c3.3 0 6 2.6 6 6"/>
  <path fill="#000" d="M9 3.75C6.114 3.75 3.75 6.114 3.75 9v6c0 2.886 2.364 5.25 5.25 5.25h6c2.886 0 5.25-2.364 5.25-5.25V9c0-2.978-2.356-5.25-5.25-5.25zM2.25 9c0-3.714 3.036-6.75 6.75-6.75h6c3.706 0 6.75 2.928 6.75 6.75v6c0 3.714-3.036 6.75-6.75 6.75H9c-3.714 0-6.75-3.036-6.75-6.75z"/>
  <path fill="#000" d="M9.458 13.513V9.977c0-.283.212-.495.494-.495h3.536"/>
  <path fill="#fff" d="M10.208 10.232h3.28a.75.75 0 0 0 0-1.5H9.952c-.697 0-1.245.548-1.245 1.245h.75-.75v3.536a.75.75 0 0 0 1.5 0z"/>
  <path fill="#fff" d="M9.564 9.518a.75.75 0 0 1 1.06 0l4.243 4.242a.75.75 0 0 1-1.06 1.061l-4.243-4.243a.75.75 0 0 1 0-1.06"/>
</svg>
