<svg xmlns="http://www.w3.org/2000/svg" fill="none" viewBox="0 0 24 24">
  <path fill="#000" d="M12.55 5.75a.75.75 0 0 1-.75.75h-6a.75.75 0 0 1 0-1.5h6a.75.75 0 0 1 .75.75"/>
  <path fill="#000" d="M11.59 5.7 9.27 8.02a.75.75 0 0 0 1.06 1.06l2.5-2.5a1.233 1.233 0 0 0 0-1.76l-2.5-2.5a.75.75 0 1 0-1.06 1.06zm6.16 10.35a.75.75 0 0 1-.75.75H5.8a.75.75 0 0 1 0-1.5H17a.75.75 0 0 1 .75.75"/>
  <path fill="#000" d="M17.443 15.977a.4.4 0 0 0-.073-.097l-4.5-4.5a.75.75 0 0 1 1.06-1.06l4.5 4.5c.312.312.52.719.52 1.18s-.208.869-.52 1.18l-4.5 4.5a.75.75 0 0 1-1.06-1.06l4.5-4.5a.4.4 0 0 0 .073-.098l.006-.017.001-.005v-.005z"/>
</svg>
