<svg xmlns="http://www.w3.org/2000/svg" fill="none" viewBox="0 0 24 24">
  <path fill="#000" d="M12 20.25a8.25 8.25 0 1 0 0-16.5 8.25 8.25 0 0 0 0 16.5M21.75 12c0 5.385-4.365 9.75-9.75 9.75S2.25 17.385 2.25 12 6.615 2.25 12 2.25s9.75 4.365 9.75 9.75"/>
  <path fill="#000" d="M14.663 14.925a.75.75 0 0 1-1.061 0l-4.667-4.667a.75.75 0 0 1 1.06-1.06l4.668 4.667a.75.75 0 0 1 0 1.06"/>
  <path fill="#000" d="M9.182 14.438a.75.75 0 0 1-.75-.75v-3.536c0-.697.548-1.245 1.245-1.245h3.536a.75.75 0 1 1 0 1.5h-3.28v3.281a.75.75 0 0 1-.75.75"/>
</svg>
