<svg xmlns="http://www.w3.org/2000/svg" fill="none" viewBox="0 0 24 24">
  <path fill="#000" d="m16.04 17.888-3.9-3.9q-.15-.15-.3 0l-3.9 3.9c-.2.2 0 .4.2.4h7.7c.3 0 .4-.3.2-.4"/>
  <path fill="#000" d="M11.99 13.163a.96.96 0 0 1 .68.294l3.845 3.845a.92.92 0 0 1 .301 1.118c-.17.4-.567.617-.977.617h-7.7c-.318 0-.668-.15-.874-.459a.93.93 0 0 1-.15-.643c.032-.245.156-.44.294-.578l3.9-3.9a.96.96 0 0 1 .68-.295Zm0 1.735-2.64 2.64h5.279l-2.64-2.64Zm4.05-5.21-3.9-3.9c-.1-.1-.3-.1-.3 0l-3.9 3.9c-.1.1 0 .4.2.4h7.7c.3 0 .4-.3.2-.4"/>
  <path fill="#000" d="M11.952 4.963c.23 0 .506.082.718.294l3.845 3.845a.92.92 0 0 1 .301 1.118c-.17.4-.567.617-.977.617h-7.7c-.518 0-.8-.381-.901-.617a1.1 1.1 0 0 1-.087-.456.9.9 0 0 1 .258-.607l3.809-3.809a.8.8 0 0 1 .261-.255.9.9 0 0 1 .473-.13m.037 1.735L9.35 9.338h5.279z"/>
</svg>
