<svg xmlns="http://www.w3.org/2000/svg" fill="none" viewBox="0 0 24 25">
  <path fill="#000" d="M17.357 7.93c.205-.204.647-.475 1.14-.228.451.226.54.692.54.959v7.7c0 .318-.15.668-.459.874a.93.93 0 0 1-.643.15 1 1 0 0 1-.578-.294l-3.809-3.809a.8.8 0 0 1-.255-.261.9.9 0 0 1-.13-.473c0-.23.082-.506.294-.718zm.18 1.941-2.639 2.64 2.64 2.639V9.87ZM9.157 7.93c.205-.204.647-.475 1.14-.228.451.226.54.692.54.959v7.7c0 .318-.15.668-.458.874a.93.93 0 0 1-.644.15 1 1 0 0 1-.578-.294l-3.809-3.809a.8.8 0 0 1-.255-.261.9.9 0 0 1-.13-.473c0-.23.082-.506.294-.718zm.18 1.941-2.639 2.64 2.64 2.639V9.871Z"/>
</svg>
