<svg xmlns="http://www.w3.org/2000/svg" fill="none" viewBox="0 0 24 25">
  <path fill="#000" d="M6.065 7.647c.245.033.44.156.578.294l3.809 3.81a.8.8 0 0 1 .255.26.9.9 0 0 1 .13.473c0 .23-.082.506-.294.718l-3.986 3.986-.11.055a1.06 1.06 0 0 1-.945.012.98.98 0 0 1-.54-.883v-7.7c0-.319.15-.668.46-.874a.93.93 0 0 1 .643-.15m.398 2.235 2.639 2.64-2.64 2.64zm7.802-2.236c.245.033.44.156.578.294l3.808 3.81c.11.07.196.162.256.26.11.178.13.357.13.473 0 .23-.082.506-.294.718l-3.9 3.9a.9.9 0 0 1-.607.258 1.1 1.1 0 0 1-.457-.086c-.235-.101-.617-.384-.617-.902v-7.7c0-.319.15-.668.46-.874a.93.93 0 0 1 .643-.15m.397 2.235v5.28l2.64-2.64z"/>
</svg>
