<svg xmlns="http://www.w3.org/2000/svg" fill="none" viewBox="0 0 24 24">
  <path fill="#000" d="m6.113 16.072 3.9-3.9c.1-.1.1-.3 0-.3l-3.9-3.9c-.2-.2-.4 0-.4.2v7.7c0 .2.2.3.4.2"/>
  <path fill="#000" d="M6.065 7.147c.245.033.44.156.578.294l3.809 3.81a.8.8 0 0 1 .255.26.9.9 0 0 1 .13.473c0 .23-.082.506-.294.718l-3.986 3.986-.11.055a1.06 1.06 0 0 1-.945.012.98.98 0 0 1-.54-.883v-7.7c0-.319.15-.668.46-.874a.93.93 0 0 1 .643-.15Zm.398 2.235 2.639 2.64-2.64 2.64v-5.28Zm7.85 6.69 3.9-3.9c.1-.1.1-.3 0-.3l-3.9-3.9c-.2-.2-.4 0-.4.2v7.7c0 .2.3.3.4.2"/>
  <path fill="#000" d="M14.265 7.147c.245.033.44.156.578.294l3.809 3.81a.8.8 0 0 1 .255.26.9.9 0 0 1 .13.473c0 .23-.082.506-.294.718l-3.9 3.9a.9.9 0 0 1-.607.258 1.1 1.1 0 0 1-.456-.086c-.236-.101-.617-.384-.617-.902v-7.7c0-.319.15-.668.458-.874a.93.93 0 0 1 .644-.15Zm.397 2.235v5.28l2.64-2.64z"/>
</svg>
