<svg xmlns="http://www.w3.org/2000/svg" fill="none" viewBox="0 0 24 24">
  <path fill="#000" d="M9 3.75C6.114 3.75 3.75 6.114 3.75 9v6c0 2.886 2.364 5.25 5.25 5.25h6c2.886 0 5.25-2.364 5.25-5.25V9c0-2.886-2.364-5.25-5.25-5.25zM2.25 9c0-3.714 3.036-6.75 6.75-6.75h6c3.714 0 6.75 3.036 6.75 6.75v6c0 3.714-3.036 6.75-6.75 6.75H9c-3.714 0-6.75-3.036-6.75-6.75z"/>
  <path fill="#000" d="M7.82 9.757a.75.75 0 0 1 1.06 0l3.12 3.12 3.12-3.12a.75.75 0 0 1 1.06 1.06l-3.2 3.2a1.45 1.45 0 0 1-1.018.446c-.383 0-.742-.173-.984-.487L7.82 10.818a.75.75 0 0 1 0-1.06Zm4.08 3.217"/>
</svg>
