<svg width="24" height="24" viewBox="0 0 24 24" fill="none" xmlns="http://www.w3.org/2000/svg">
<path fill-rule="evenodd" clip-rule="evenodd" d="M11.9 5.75C11.6197 5.75 11.4051 5.85554 11.2303 6.03033C10.9374 6.32323 10.9239 6.9054 11.1897 7.22506L11.4693 7.41149L13.348 9.19132L15.0697 7.46967L15.2303 7.30907C15.4739 6.97479 15.55 6.74926 15.55 6.6C15.55 6.44392 15.4644 6.22507 15.2697 6.03033C14.9626 5.72322 14.3374 5.72322 14.0303 6.03033M14.0303 6.03033L13.3 6.76066L12.6091 6.06973C12.2748 5.82606 12.0493 5.75 11.9 5.75M13.2809 4.71174C12.8872 4.45708 12.4205 4.25 11.9 4.25C11.1803 4.25 10.5949 4.54446 10.1697 4.96967C9.27678 5.86256 9.27678 7.43744 10.1697 8.33033L10.2222 8.38284L10.5307 8.58851L12.3356 10.2984C12.577 10.6063 12.9334 10.775 13.3125 10.775C13.7077 10.775 14.0655 10.5951 14.3303 10.3303L16.368 8.29264L16.4 8.25C16.7323 7.80691 17.05 7.24472 17.05 6.6C17.05 5.95608 16.7356 5.37493 16.3303 4.96967C15.5338 4.17316 14.1946 4.08718 13.2809 4.71174ZM13.2492 9.28682C13.2492 9.28679 13.2498 9.28645 13.2508 9.2859L13.2492 9.28682Z" fill="black"/>
<path fill-rule="evenodd" clip-rule="evenodd" d="M7 4.25C5.21421 4.25 3.75 5.71421 3.75 7.5V13.5C3.75 15.2858 5.21421 16.75 7 16.75H17C18.7858 16.75 20.25 15.2858 20.25 13.5V7.5C20.25 7.08579 20.5858 6.75 21 6.75C21.4142 6.75 21.75 7.08579 21.75 7.5V13.5C21.75 16.1142 19.6142 18.25 17 18.25H7C4.38579 18.25 2.25 16.1142 2.25 13.5V7.5C2.25 4.88579 4.38579 2.75 7 2.75C7.41421 2.75 7.75 3.08579 7.75 3.5C7.75 3.91421 7.41421 4.25 7 4.25Z" fill="black"/>
<path fill-rule="evenodd" clip-rule="evenodd" d="M8.9161 16.876C9.26075 17.1057 9.35388 17.5714 9.12412 17.916L7.12412 20.916C6.89435 21.2607 6.4287 21.3538 6.08405 21.1241C5.73941 20.8943 5.64628 20.4286 5.87604 20.084L7.87604 17.084C8.10581 16.7393 8.57146 16.6462 8.9161 16.876Z" fill="black"/>
<path fill-rule="evenodd" clip-rule="evenodd" d="M15.0841 16.876C15.4287 16.6462 15.8944 16.7393 16.1241 17.084L18.1241 20.084C18.3539 20.4286 18.2608 20.8943 17.9161 21.1241C17.5715 21.3538 17.1058 21.2607 16.876 20.916L14.876 17.916C14.6463 17.5714 14.7394 17.1057 15.0841 16.876Z" fill="black"/>
</svg>
