<svg width="24" height="24" viewBox="0 0 24 24" fill="none" xmlns="http://www.w3.org/2000/svg">
<path d="M19 10.25C19 12.45 18 14.35 16.5 15.65C16.2 15.45 15.9 15.25 15.5 15.25H8.5C8.1 15.25 7.8 15.35 7.5 15.65C6 14.35 5 12.45 5 10.25C5 6.35 8.1 3.25 12 3.25C15.9 3.25 19 6.35 19 10.25Z" fill="black"/>
<path fill-rule="evenodd" clip-rule="evenodd" d="M12 4C8.51421 4 5.75 6.76421 5.75 10.25C5.75 12.0019 6.45914 13.5445 7.57294 14.6886C7.61221 14.6703 7.65231 14.6532 7.69327 14.6375C7.96544 14.5328 8.23739 14.5 8.5 14.5H15.5C15.8521 14.5 16.1534 14.5976 16.3997 14.7166C17.5292 13.5697 18.25 12.0162 18.25 10.25C18.25 6.76421 15.4858 4 12 4ZM4.25 10.25C4.25 5.93579 7.68579 2.5 12 2.5C16.3142 2.5 19.75 5.93579 19.75 10.25C19.75 12.6877 18.6397 14.7881 16.9912 16.2168L16.5594 16.591L16.084 16.274C15.7598 16.0579 15.6408 16 15.5 16H8.5C8.36261 16 8.28456 16.0172 8.23173 16.0375C8.18223 16.0565 8.11845 16.0922 8.03033 16.1803L7.53653 16.6741L7.0088 16.2168C5.3603 14.7881 4.25 12.6877 4.25 10.25Z" fill="black"/>
<path fill-rule="evenodd" clip-rule="evenodd" d="M10.4001 7.09998C9.51431 7.09998 8.8501 7.76419 8.8501 8.64998C8.8501 9.06419 8.51431 9.39998 8.1001 9.39998C7.68588 9.39998 7.3501 9.06419 7.3501 8.64998C7.3501 6.93576 8.68588 5.59998 10.4001 5.59998C10.8143 5.59998 11.1501 5.93576 11.1501 6.34998C11.1501 6.76419 10.8143 7.09998 10.4001 7.09998Z" fill="white"/>
<path fill-rule="evenodd" clip-rule="evenodd" d="M8.5 16C8.35922 16 8.24022 16.0579 7.91603 16.274C7.87369 16.3023 7.75 16.4355 7.75 16.75C7.75 17.1358 8.11421 17.5 8.5 17.5H15.5C15.8858 17.5 16.25 17.1358 16.25 16.75C16.25 16.4355 16.1263 16.3023 16.084 16.274L16.0222 16.2328L15.9697 16.1803C15.8816 16.0922 15.8178 16.0565 15.7683 16.0375C15.7154 16.0172 15.6374 16 15.5 16H8.5ZM7.12073 15.0014C7.40152 14.8133 7.86916 14.5 8.5 14.5H15.5C15.7626 14.5 16.0346 14.5328 16.3067 14.6375C16.5609 14.7352 16.7816 14.8826 16.9806 15.0712C17.495 15.4503 17.75 16.0915 17.75 16.75C17.75 17.9642 16.7142 19 15.5 19H8.5C7.28579 19 6.25 17.9642 6.25 16.75C6.25 16.0645 6.52631 15.3977 7.08397 15.026C7.09585 15.018 7.1081 15.0098 7.12073 15.0014Z" fill="black"/>
<path d="M14.5 18.25C14.5 19.65 13.4 20.75 12 20.75C10.6 20.75 9.5 19.65 9.5 18.25H14.5Z" fill="black"/>
<path fill-rule="evenodd" clip-rule="evenodd" d="M8.75 18.25C8.75 17.8358 9.08579 17.5 9.5 17.5H14.5C14.9142 17.5 15.25 17.8358 15.25 18.25C15.25 20.0642 13.8142 21.5 12 21.5C10.1858 21.5 8.75 20.0642 8.75 18.25ZM10.4113 19C10.6859 19.5975 11.2846 20 12 20C12.7154 20 13.3141 19.5975 13.5887 19H10.4113Z" fill="black"/>
</svg>
