<svg width="24" height="24" viewBox="0 0 24 24" fill="none" xmlns="http://www.w3.org/2000/svg">
<path fill-rule="evenodd" clip-rule="evenodd" d="M5.9499 6.20001C5.06412 6.20001 4.3999 6.86423 4.3999 7.75001V17.8H19.3999V7.75001C19.3999 6.86423 18.7357 6.20001 17.8499 6.20001H5.9499ZM20.2499 18.55V19.3H2.8999V7.75001C2.8999 6.0358 4.23569 4.70001 5.9499 4.70001H17.8499C19.5641 4.70001 20.8999 6.0358 20.8999 7.75001V18.55H20.2499Z" fill="black"/>
<path fill-rule="evenodd" clip-rule="evenodd" d="M1.69995 18.55C1.69995 18.1358 2.03574 17.8 2.44995 17.8H21.55C21.9642 17.8 22.3 18.1358 22.3 18.55C22.3 18.9642 21.9642 19.3 21.55 19.3H2.44995C2.03574 19.3 1.69995 18.9642 1.69995 18.55Z" fill="black"/>
<path fill-rule="evenodd" clip-rule="evenodd" d="M8.5499 16.8C8.46412 16.8 8.3999 16.8642 8.3999 16.95V18.55C8.3999 18.9642 8.06412 19.3 7.6499 19.3C7.23569 19.3 6.8999 18.9642 6.8999 18.55V16.95C6.8999 16.0358 7.63569 15.3 8.5499 15.3H15.3499C16.2641 15.3 16.9999 16.0358 16.9999 16.95V18.55C16.9999 18.9642 16.6641 19.3 16.2499 19.3C15.8357 19.3 15.4999 18.9642 15.4999 18.55V16.95C15.4999 16.8642 15.4357 16.8 15.3499 16.8H8.5499Z" fill="black"/>
</svg>
