<svg width="24" height="24" viewBox="0 0 24 24" fill="none" xmlns="http://www.w3.org/2000/svg">
<path fill-rule="evenodd" clip-rule="evenodd" d="M4.5 5.25C4.08579 5.25 3.75 5.58579 3.75 6C3.75 6.41421 4.08579 6.75 4.5 6.75H19.5C19.9142 6.75 20.25 6.41421 20.25 6C20.25 5.58579 19.9142 5.25 19.5 5.25H4.5ZM4.5 9.25C4.08579 9.25 3.75 9.58579 3.75 10C3.75 10.4142 4.08579 10.75 4.5 10.75H19.5C19.9142 10.75 20.25 10.4142 20.25 10C20.25 9.58579 19.9142 9.25 19.5 9.25H4.5ZM3.75 14C3.75 13.5858 4.08579 13.25 4.5 13.25H19.5C19.9142 13.25 20.25 13.5858 20.25 14C20.25 14.4142 19.9142 14.75 19.5 14.75H4.5C4.08579 14.75 3.75 14.4142 3.75 14ZM4.5 17.25C4.08579 17.25 3.75 17.5858 3.75 18C3.75 18.4142 4.08579 18.75 4.5 18.75H19.5C19.9142 18.75 20.25 18.4142 20.25 18C20.25 17.5858 19.9142 17.25 19.5 17.25H4.5Z" fill="black"/>
</svg>
