<svg width="24" height="24" viewBox="0 0 24 24" fill="none" xmlns="http://www.w3.org/2000/svg">
<path fill-rule="evenodd" clip-rule="evenodd" d="M6.55005 4.3C5.26426 4.3 4.30005 5.26422 4.30005 6.55V12.55C4.30005 13.8358 5.26426 14.8 6.55005 14.8H12.55C13.7358 14.8 14.8 13.7358 14.8 12.55V6.55C14.8 5.26422 13.8358 4.3 12.55 4.3H6.55005ZM2.80005 6.55C2.80005 4.43579 4.43584 2.8 6.55005 2.8H12.55C14.6643 2.8 16.3 4.43579 16.3 6.55V12.55C16.3 14.5642 14.5643 16.3 12.55 16.3H6.55005C4.43584 16.3 2.80005 14.6642 2.80005 12.55V6.55Z" fill="black"/>
<path d="M17.55 20.55H11.55C9.85005 20.55 8.55005 19.25 8.55005 17.55V11.55C8.55005 9.85 9.85005 8.55 11.55 8.55H17.55C19.25 8.55 20.55 9.85 20.55 11.55V17.55C20.55 19.15 19.15 20.55 17.55 20.55Z" fill="black"/>
<path fill-rule="evenodd" clip-rule="evenodd" d="M11.55 9.3C10.2643 9.3 9.30005 10.2642 9.30005 11.55V17.55C9.30005 18.8358 10.2643 19.8 11.55 19.8H17.55C18.7358 19.8 19.8 18.7358 19.8 17.55V11.55C19.8 10.2642 18.8358 9.3 17.55 9.3H11.55ZM7.80005 11.55C7.80005 9.43579 9.43584 7.8 11.55 7.8H17.55C19.6643 7.8 21.3 9.43579 21.3 11.55V17.55C21.3 19.5642 19.5643 21.3 17.55 21.3H11.55C9.43584 21.3 7.80005 19.6642 7.80005 17.55V11.55Z" fill="black"/>
</svg>
