<svg width="24" height="24" viewBox="0 0 24 24" fill="none" xmlns="http://www.w3.org/2000/svg">
<path fill-rule="evenodd" clip-rule="evenodd" d="M4.19995 4.70001C3.78574 4.70001 3.44995 5.0358 3.44995 5.45001C3.44995 5.86423 3.78574 6.20001 4.19995 6.20001H19.2C19.6142 6.20001 19.95 5.86423 19.95 5.45001C19.95 5.0358 19.6142 4.70001 19.2 4.70001H4.19995ZM4.19995 8.70001C3.78574 8.70001 3.44995 9.0358 3.44995 9.45001C3.44995 9.86423 3.78574 10.2 4.19995 10.2H19.2C19.6142 10.2 19.95 9.86423 19.95 9.45001C19.95 9.0358 19.6142 8.70001 19.2 8.70001H4.19995ZM3.44995 13.45C3.44995 13.0358 3.78574 12.7 4.19995 12.7H11.2C11.6142 12.7 11.95 13.0358 11.95 13.45C11.95 13.8642 11.6142 14.2 11.2 14.2H4.19995C3.78574 14.2 3.44995 13.8642 3.44995 13.45ZM4.19995 16.7C3.78574 16.7 3.44995 17.0358 3.44995 17.45C3.44995 17.8642 3.78574 18.2 4.19995 18.2H10.2C10.6142 18.2 10.95 17.8642 10.95 17.45C10.95 17.0358 10.6142 16.7 10.2 16.7H4.19995ZM20.3303 13.7196C20.6231 14.0125 20.6231 14.4874 20.3303 14.7803L18.7106 16.4L20.3303 18.0197C20.6231 18.3126 20.6231 18.7874 20.3303 19.0803C20.0374 19.3732 19.5625 19.3732 19.2696 19.0803L17.6499 17.4606L16.0302 19.0803C15.7373 19.3732 15.2624 19.3732 14.9695 19.0803C14.6767 18.7874 14.6767 18.3126 14.9695 18.0197L16.5892 16.4L14.9695 14.7803C14.6767 14.4874 14.6767 14.0125 14.9695 13.7196C15.2624 13.4267 15.7373 13.4267 16.0302 13.7196L17.6499 15.3393L19.2696 13.7196C19.5625 13.4267 20.0374 13.4267 20.3303 13.7196Z" fill="black"/>
</svg>
