<svg width="24" height="24" viewBox="0 0 24 24" fill="none" xmlns="http://www.w3.org/2000/svg">
<path fill-rule="evenodd" clip-rule="evenodd" d="M3.75 5.46249C3.75 5.04828 4.08579 4.71249 4.5 4.71249H19.5C19.9142 4.71249 20.25 5.04828 20.25 5.46249C20.25 5.87671 19.9142 6.21249 19.5 6.21249H4.5C4.08579 6.21249 3.75 5.87671 3.75 5.46249ZM3.75 9.46249C3.75 9.04828 4.08579 8.71249 4.5 8.71249H19.5C19.9142 8.71249 20.25 9.04828 20.25 9.46249C20.25 9.87671 19.9142 10.2125 19.5 10.2125H4.5C4.08579 10.2125 3.75 9.87671 3.75 9.46249ZM4.5 12.7125C4.08579 12.7125 3.75 13.0483 3.75 13.4625C3.75 13.8767 4.08579 14.2125 4.5 14.2125H11.5C11.9142 14.2125 12.25 13.8767 12.25 13.4625C12.25 13.0483 11.9142 12.7125 11.5 12.7125H4.5ZM3.75 17.4625C3.75 17.0483 4.08579 16.7125 4.5 16.7125H10.5C10.9142 16.7125 11.25 17.0483 11.25 17.4625C11.25 17.8767 10.9142 18.2125 10.5 18.2125H4.5C4.08579 18.2125 3.75 17.8767 3.75 17.4625ZM20.0238 14.9993C20.3202 14.7101 20.3261 14.2352 20.0368 13.9387C19.7476 13.6423 19.2728 13.6364 18.9763 13.9257L15.2566 17.5546L14.1 16.0125C13.8515 15.6811 13.3814 15.614 13.05 15.8625C12.7186 16.111 12.6515 16.5811 12.9 16.9125L14.432 18.9551L14.4697 18.9928C14.6922 19.2153 14.9762 19.2875 15.2 19.2875C15.4224 19.2875 15.7042 19.2163 15.926 18.9972L20.0238 14.9993Z" fill="black"/>
</svg>
