<svg width="24" height="24" viewBox="0 0 24 24" fill="none" xmlns="http://www.w3.org/2000/svg">
<path fill-rule="evenodd" clip-rule="evenodd" d="M3.80005 5.75C3.80005 5.33579 4.13584 5 4.55005 5H19.55C19.9643 5 20.3 5.33579 20.3 5.75C20.3 6.16421 19.9643 6.5 19.55 6.5H4.55005C4.13584 6.5 3.80005 6.16421 3.80005 5.75Z" fill="black"/>
<path fill-rule="evenodd" clip-rule="evenodd" d="M3.80005 9.75C3.80005 9.33579 4.13584 9 4.55005 9H19.55C19.9643 9 20.3 9.33579 20.3 9.75C20.3 10.1642 19.9643 10.5 19.55 10.5H4.55005C4.13584 10.5 3.80005 10.1642 3.80005 9.75Z" fill="black"/>
<path fill-rule="evenodd" clip-rule="evenodd" d="M3.80005 13.75C3.80005 13.3358 4.13584 13 4.55005 13H11.55C11.9643 13 12.3 13.3358 12.3 13.75C12.3 14.1642 11.9643 14.5 11.55 14.5H4.55005C4.13584 14.5 3.80005 14.1642 3.80005 13.75Z" fill="black"/>
<path fill-rule="evenodd" clip-rule="evenodd" d="M3.80005 17.75C3.80005 17.3358 4.13584 17 4.55005 17H10.55C10.9643 17 11.3 17.3358 11.3 17.75C11.3 18.1642 10.9643 18.5 10.55 18.5H4.55005C4.13584 18.5 3.80005 18.1642 3.80005 17.75Z" fill="black"/>
<path d="M18.45 14.95L15.95 13.45C15.25 13.05 14.45 13.55 14.45 14.35V17.25C14.45 18.05 15.25 18.55 15.95 18.15L18.45 16.65C19.15 16.25 19.15 15.35 18.45 14.95Z" fill="black"/>
<path fill-rule="evenodd" clip-rule="evenodd" d="M13.7 14.35C13.7 13.0162 15.086 12.0925 16.3221 12.7988L16.329 12.8028L18.8298 14.3033C19.3971 14.6308 19.725 15.1955 19.725 15.8C19.725 16.4045 19.3971 16.9692 18.8298 17.2967L16.329 18.7972L16.3221 18.8012C15.086 19.5075 13.7 18.5839 13.7 17.25V14.35ZM15.3274 14.0907C15.2641 14.1292 15.2 14.2111 15.2 14.35V17.25C15.2 17.3889 15.2641 17.4708 15.3274 17.5094C15.385 17.5444 15.4664 17.5605 15.5726 17.5018L18.0709 16.0028L18.0778 15.9988C18.2058 15.9257 18.225 15.8427 18.225 15.8C18.225 15.7573 18.2058 15.6743 18.0778 15.6012L18.0709 15.5972L15.5726 14.0983C15.4664 14.0395 15.385 14.0556 15.3274 14.0907Z" fill="black"/>
</svg>
