<svg width="24" height="24" viewBox="0 0 24 24" fill="none" xmlns="http://www.w3.org/2000/svg">
<path fill-rule="evenodd" clip-rule="evenodd" d="M15.5738 4.07431C15.8703 3.78506 15.8762 3.31022 15.5869 3.01373C15.2977 2.71725 14.8228 2.71138 14.5264 3.00064L10.8067 6.62959L9.65009 5.08748C9.40156 4.7561 8.93146 4.68895 8.60009 4.93748C8.26872 5.186 8.20156 5.65611 8.45009 5.98748L9.98207 8.03012L10.0198 8.06781C10.2422 8.29028 10.5262 8.36248 10.7501 8.36248C10.9725 8.36248 11.2542 8.29122 11.4761 8.07214L15.5738 4.07431ZM6.18035 5.6679C6.47325 5.37501 6.47325 4.90014 6.18035 4.60724C5.88746 4.31435 5.41259 4.31435 5.11969 4.60724C1.3268 8.40014 1.3268 14.575 5.11969 18.3679C8.91259 22.1607 15.0875 22.1607 18.8804 18.3679C22.6733 14.575 22.6733 8.40014 18.8804 4.60724C18.5875 4.31435 18.1126 4.31435 17.8197 4.60724C17.5268 4.90014 17.5268 5.37501 17.8197 5.6679C20.8946 8.74278 21.0214 13.6727 18.2 16.9005V13.4375C18.2 11.4233 16.5643 9.78748 14.55 9.78748H9.45004C7.43582 9.78748 5.80005 11.4233 5.80005 13.4375V16.9005C2.9787 13.6727 3.10547 8.74279 6.18035 5.6679ZM7.30005 18.2446C10.1127 20.2018 13.8874 20.2018 16.7 18.2446V13.4375C16.7 12.2517 15.7358 11.2875 14.55 11.2875H9.45004C8.26427 11.2875 7.30005 12.2517 7.30005 13.4375V18.2446ZM9.44316 13.4846C9.7485 13.2047 10.2229 13.2253 10.5028 13.5307C11.2933 14.393 12.6991 14.4277 13.6196 13.5071C13.9125 13.2143 14.3874 13.2143 14.6803 13.5071C14.9732 13.8 14.9732 14.2749 14.6803 14.5678C13.2008 16.0473 10.8066 16.082 9.39709 14.5443C9.1172 14.2389 9.13782 13.7645 9.44316 13.4846Z" fill="black"/>
</svg>
