<svg width="24" height="24" viewBox="0 0 24 24" fill="none" xmlns="http://www.w3.org/2000/svg">
<path fill-rule="evenodd" clip-rule="evenodd" d="M7.05005 3.80005C5.26426 3.80005 3.80005 5.26426 3.80005 7.05005V17.05C3.80005 18.8358 5.26426 20.3 7.05005 20.3H17.05C18.8358 20.3 20.3 18.8358 20.3 17.05V7.05005C20.3 5.17651 18.8482 3.80005 17.05 3.80005H15.8V7.55005C15.8 8.76426 14.7643 9.80005 13.55 9.80005H10.55C9.33584 9.80005 8.30005 8.76426 8.30005 7.55005V3.80005H7.05005ZM2.30005 7.05005C2.30005 4.43584 4.43584 2.30005 7.05005 2.30005H9.80005V7.55005C9.80005 7.93584 10.1643 8.30005 10.55 8.30005H13.55C13.9358 8.30005 14.3 7.93584 14.3 7.55005V2.30005H17.05C19.6519 2.30005 21.8 4.32359 21.8 7.05005V17.05C21.8 19.6643 19.6643 21.8 17.05 21.8H7.05005C4.43584 21.8 2.30005 19.6643 2.30005 17.05V7.05005Z" fill="black"/>
<path d="M15.05 3.05005V7.55005C15.05 8.35005 14.35 9.05005 13.55 9.05005H10.55C9.75005 9.05005 9.05005 8.35005 9.05005 7.55005V3.05005H15.05Z" fill="black"/>
<path fill-rule="evenodd" clip-rule="evenodd" d="M8.30005 2.30005H15.8V7.55005C15.8 8.76426 14.7643 9.80005 13.55 9.80005H10.55C9.33584 9.80005 8.30005 8.76426 8.30005 7.55005V2.30005ZM9.80005 3.80005V7.55005C9.80005 7.93584 10.1643 8.30005 10.55 8.30005H13.55C13.9358 8.30005 14.3 7.93584 14.3 7.55005V3.80005H9.80005Z" fill="black"/>
<path fill-rule="evenodd" clip-rule="evenodd" d="M17.1803 12.6197C17.4732 12.9126 17.4732 13.3875 17.1803 13.6804L14.2803 16.5804C13.9874 16.8732 13.5126 16.8732 13.2197 16.5804C12.9268 16.2875 12.9268 15.8126 13.2197 15.5197L16.1197 12.6197C16.4126 12.3268 16.8874 12.3268 17.1803 12.6197Z" fill="black"/>
<path fill-rule="evenodd" clip-rule="evenodd" d="M13.45 13C13.8642 13 14.2 13.3358 14.2 13.75V15.7H16.15C16.5642 15.7 16.9 16.0358 16.9 16.45C16.9 16.8642 16.5642 17.2 16.15 17.2H13.75C13.3711 17.2 13.0964 17.0024 12.9393 16.806C12.8012 16.6334 12.7 16.3974 12.7 16.15V13.75C12.7 13.3358 13.0357 13 13.45 13Z" fill="black"/>
</svg>
