<svg width="24" height="24" viewBox="0 0 24 24" fill="none" xmlns="http://www.w3.org/2000/svg">
<path d="M21 9H3C3 6.8 4.8 5 7 5H17C19.2 5 21 6.7 21 9Z" fill="black"/>
<path fill-rule="evenodd" clip-rule="evenodd" d="M3.83814 8.25H20.1688C19.8397 6.77044 18.5482 5.75 17 5.75H7C5.47206 5.75 4.17954 6.8219 3.83814 8.25ZM2.25 9C2.25 6.38579 4.38579 4.25 7 4.25H17C19.6019 4.25 21.75 6.27354 21.75 9V9.75H2.25V9Z" fill="black"/>
<path fill-rule="evenodd" clip-rule="evenodd" d="M2.25 8.25H21.75V15C21.75 17.6142 19.6142 19.75 17 19.75H7C4.38579 19.75 2.25 17.6142 2.25 15V8.25ZM3.75 9.75V15C3.75 16.7858 5.21421 18.25 7 18.25H17C18.7858 18.25 20.25 16.7858 20.25 15V9.75H3.75Z" fill="black"/>
</svg>
