<svg width="24" height="24" viewBox="0 0 24 24" fill="none" xmlns="http://www.w3.org/2000/svg">
<path d="M21 7V10H3V7C3 5.9 3.9 5 5 5H19C20 5 21 5.9 21 7Z" fill="black"/>
<path fill-rule="evenodd" clip-rule="evenodd" d="M5 5.75C4.31421 5.75 3.75 6.31421 3.75 7V9.25H20.25V7C20.25 6.33798 19.61 5.75 19 5.75H5ZM2.25 7C2.25 5.48579 3.48579 4.25 5 4.25H19C20.39 4.25 21.75 5.46202 21.75 7V10.75H2.25V7Z" fill="black"/>
<path fill-rule="evenodd" clip-rule="evenodd" d="M21 9.25C21.4142 9.25 21.75 9.58579 21.75 10V12C21.75 12.4142 21.4142 12.75 21 12.75C20.5858 12.75 20.25 12.4142 20.25 12V10C20.25 9.58579 20.5858 9.25 21 9.25Z" fill="black"/>
<path fill-rule="evenodd" clip-rule="evenodd" d="M3 9.25C3.41421 9.25 3.75 9.58579 3.75 10V17C3.75 17.6858 4.31421 18.25 5 18.25H12C12.4142 18.25 12.75 18.5858 12.75 19C12.75 19.4142 12.4142 19.75 12 19.75H5C3.48579 19.75 2.25 18.5142 2.25 17V10C2.25 9.58579 2.58579 9.25 3 9.25Z" fill="black"/>
<path fill-rule="evenodd" clip-rule="evenodd" d="M17 13.35C17.4142 13.35 17.75 13.6858 17.75 14.1V18.1C17.75 18.5142 17.4142 18.85 17 18.85C16.5858 18.85 16.25 18.5142 16.25 18.1V14.1C16.25 13.6858 16.5858 13.35 17 13.35Z" fill="black"/>
<path fill-rule="evenodd" clip-rule="evenodd" d="M17.05 14.5107L18.4696 15.9303C18.7625 16.2232 19.2374 16.2232 19.5303 15.9303C19.8232 15.6374 19.8232 15.1626 19.5303 14.8697L17.7442 13.0836L17.6354 13.0292C17.4511 12.9371 17.2368 12.875 17.0125 12.875C16.7932 12.875 16.5015 12.9378 16.2696 13.1697L14.5696 14.8697C14.2768 15.1626 14.2768 15.6374 14.5696 15.9303C14.8625 16.2232 15.3374 16.2232 15.6303 15.9303L17.05 14.5107Z" fill="black"/>
</svg>
