<svg width="24" height="24" viewBox="0 0 24 24" fill="none" xmlns="http://www.w3.org/2000/svg">
<path d="M21 7V10H3V7C3 5.9 3.9 5 5 5H19C20 5 21 5.8 21 7Z" fill="black"/>
<path fill-rule="evenodd" clip-rule="evenodd" d="M5 5.75C4.31421 5.75 3.75 6.31421 3.75 7V9.25H20.25V7C20.25 6.26211 19.6354 5.75 19 5.75H5ZM2.25 7C2.25 5.48579 3.48579 4.25 5 4.25H19C20.3646 4.25 21.75 5.33789 21.75 7V10.75H2.25V7Z" fill="black"/>
<path fill-rule="evenodd" clip-rule="evenodd" d="M21 9.25C21.4142 9.25 21.75 9.58579 21.75 10V12C21.75 12.4142 21.4142 12.75 21 12.75C20.5858 12.75 20.25 12.4142 20.25 12V10C20.25 9.58579 20.5858 9.25 21 9.25Z" fill="black"/>
<path fill-rule="evenodd" clip-rule="evenodd" d="M3 9.25C3.41421 9.25 3.75 9.58579 3.75 10V17C3.75 17.6858 4.31421 18.25 5 18.25H12C12.4142 18.25 12.75 18.5858 12.75 19C12.75 19.4142 12.4142 19.75 12 19.75H5C3.48579 19.75 2.25 18.5142 2.25 17V10C2.25 9.58579 2.58579 9.25 3 9.25Z" fill="black"/>
<path fill-rule="evenodd" clip-rule="evenodd" d="M18.9697 14.3697C19.2626 14.0768 19.7374 14.0768 20.0303 14.3697L21.2303 15.5697L20.7 16.1L20.3 16.5M18.9697 14.3697C18.6768 14.6626 18.6768 15.1375 18.9697 15.4304L18.9697 14.3697ZM18.9697 15.4304L20.0441 16.5048L18.9697 15.4304ZM20.0441 16.5048L18.9489 17.6913C18.6679 17.9957 18.6869 18.4702 18.9913 18.7511C19.2957 19.0321 19.7702 19.0131 20.0511 18.7087L21.2434 17.4171C21.5059 17.1463 21.6 16.7941 21.6 16.5C21.6 16.2012 21.5028 15.8422 21.2303 15.5697L20.7 16.1" fill="black"/>
<path fill-rule="evenodd" clip-rule="evenodd" d="M16.8303 14.4697C17.1232 14.7626 17.1232 15.2374 16.8303 15.5303L15.7606 16.6L16.8303 17.6697C17.1232 17.9626 17.1232 18.4374 16.8303 18.7303C16.5374 19.0232 16.0625 19.0232 15.7696 18.7303L14.5696 17.5303C14.2971 17.2578 14.2 16.8989 14.2 16.6C14.2 16.3011 14.2971 15.9421 14.5696 15.6697L15.1 16.2L14.5696 15.6697L15.7696 14.4697C16.0625 14.1768 16.5374 14.1768 16.8303 14.4697Z" fill="black"/>
</svg>
